<svg width="1119" height="1119" viewBox="0 0 1119 1119" fill="none" xmlns="http://www.w3.org/2000/svg">
<circle opacity="0.5" cx="559.5" cy="559.5" r="122" stroke="#815DC1"/>
<circle opacity="0.5" cx="559.5" cy="559.5" r="217" stroke="#2576BC"/>
<circle opacity="0.5" cx="559.5" cy="559.5" r="318" stroke="#65CED6"/>
<circle opacity="0.5" cx="559.5" cy="559.5" r="559" stroke="#DDDDDD"/>
<path d="M556.16 555.826H574.295C574.64 555.826 574.972 555.963 575.216 556.208C575.46 556.452 575.597 556.783 575.597 557.128V559.629H557.462C557.117 559.629 556.786 559.492 556.542 559.248C556.297 559.003 556.16 558.672 556.16 558.327V555.826Z" fill="#503885"/>
<path d="M541.26 552.023H559.395C559.74 552.023 560.071 552.161 560.316 552.405C560.56 552.649 560.697 552.98 560.697 553.326V555.826H542.562C542.217 555.826 541.885 555.689 541.641 555.445C541.397 555.201 541.26 554.869 541.26 554.524V552.023Z" fill="#815DC1"/>
<path d="M555.977 546.273H574.111C574.457 546.273 574.788 546.411 575.032 546.655C575.277 546.899 575.414 547.23 575.414 547.576V550.076H557.279C556.933 550.076 556.602 549.939 556.358 549.695C556.114 549.451 555.977 549.119 555.977 548.774V546.273Z" fill="#2576BC"/>
<path d="M541.26 542.536H559.395C559.74 542.536 560.071 542.674 560.316 542.918C560.56 543.162 560.697 543.493 560.697 543.839V546.326H542.562C542.217 546.326 541.885 546.189 541.641 545.945C541.397 545.701 541.26 545.369 541.26 545.024V542.523V542.536Z" fill="#51A4E4"/>
<path d="M555.977 536.174H574.111C574.457 536.174 574.788 536.311 575.032 536.555C575.277 536.8 575.414 537.131 575.414 537.476V539.977H557.279C556.933 539.977 556.602 539.839 556.358 539.595C556.114 539.351 555.977 539.02 555.977 538.674V536.174Z" fill="#8CE2E9"/>
<path d="M541.26 532.365H559.395C559.74 532.365 560.071 532.502 560.316 532.747C560.56 532.991 560.697 533.322 560.697 533.668V536.168H542.562C542.217 536.168 541.885 536.031 541.641 535.787C541.397 535.542 541.26 535.211 541.26 534.866V532.365Z" fill="#65CED6"/>
<path d="M505.85 582.099H501.006V574.487C500.996 574.369 501.011 574.25 501.05 574.137C501.089 574.025 501.152 573.923 501.233 573.836C501.411 573.678 501.62 573.559 501.846 573.484C502.394 573.32 502.956 573.209 503.526 573.152C504.174 573.074 504.826 573.035 505.479 573.035C507.433 573.035 508.898 573.445 509.868 574.246C510.349 574.652 510.731 575.163 510.984 575.74C511.237 576.317 511.354 576.944 511.326 577.574C511.348 578.407 511.121 579.227 510.675 579.931C510.2 580.626 509.542 581.176 508.774 581.52C507.853 581.925 506.855 582.122 505.85 582.099V582.099ZM501.006 581.123H503.825V586.807C503.647 586.866 503.464 586.907 503.278 586.931C503.026 586.971 502.771 586.99 502.516 586.99C502.107 587.023 501.699 586.917 501.357 586.69C501.23 586.555 501.132 586.395 501.072 586.22C501.011 586.045 500.988 585.859 501.006 585.674V581.123ZM503.806 579.898H505.648C506.389 579.935 507.122 579.732 507.739 579.319C507.998 579.118 508.204 578.858 508.339 578.559C508.474 578.26 508.534 577.933 508.513 577.606C508.534 577.283 508.474 576.96 508.339 576.665C508.204 576.371 507.997 576.115 507.739 575.92C507.055 575.49 506.253 575.287 505.446 575.34C505.153 575.34 504.86 575.34 504.58 575.373C504.3 575.405 504.04 575.431 503.806 575.477V579.898ZM505.473 581.39L507.869 580.699C508.24 581.188 508.624 581.676 509.015 582.177L510.148 583.617C510.513 584.085 510.838 584.515 511.125 584.919C511.411 585.323 511.639 585.622 511.776 585.876C511.687 586.214 511.488 586.513 511.211 586.726C510.935 586.939 510.595 587.055 510.246 587.055C509.875 587.076 509.509 586.968 509.21 586.749C508.938 586.517 508.703 586.244 508.513 585.941L505.473 581.39Z" fill="#1D1D1B"/>
<path d="M517.291 582.287H514.537V574.864C514.527 574.664 514.558 574.464 514.629 574.277C514.699 574.09 514.808 573.92 514.947 573.776C515.095 573.639 515.268 573.533 515.457 573.464C515.646 573.395 515.847 573.364 516.048 573.373C516.295 573.373 516.541 573.397 516.784 573.444C516.955 573.47 517.125 573.507 517.291 573.555V582.287ZM514.537 577.931H517.291V586.708C517.125 586.757 516.955 586.794 516.784 586.819C516.541 586.866 516.295 586.89 516.048 586.891C515.846 586.901 515.643 586.869 515.454 586.797C515.265 586.725 515.092 586.615 514.947 586.474C514.809 586.332 514.702 586.164 514.631 585.979C514.561 585.794 514.529 585.597 514.537 585.4V577.931ZM516.048 575.639V573.373H523.406C523.498 573.51 523.566 573.662 523.608 573.822C523.672 574.033 523.703 574.253 523.699 574.473C523.717 574.792 523.625 575.107 523.438 575.365C523.347 575.47 523.232 575.553 523.103 575.606C522.975 575.659 522.835 575.681 522.696 575.671L516.048 575.639ZM516.048 581.089V578.842H522.742C522.831 578.982 522.901 579.133 522.95 579.292C523.019 579.491 523.054 579.7 523.054 579.91C523.077 580.222 522.982 580.532 522.787 580.776C522.693 580.875 522.578 580.953 522.451 581.003C522.324 581.054 522.188 581.076 522.051 581.069L516.048 581.089ZM516.048 586.891V584.644H523.517C523.592 584.786 523.655 584.934 523.705 585.087C523.775 585.297 523.811 585.517 523.81 585.738C523.833 586.05 523.737 586.359 523.543 586.604C523.448 586.703 523.334 586.78 523.207 586.831C523.08 586.882 522.943 586.904 522.807 586.897L516.048 586.891Z" fill="#1D1D1B"/>
<path d="M530.647 584.911C531.326 584.963 532.002 584.779 532.561 584.39C532.763 584.238 532.927 584.042 533.04 583.816C533.153 583.59 533.212 583.341 533.213 583.088C533.22 582.877 533.18 582.668 533.097 582.474C533.013 582.281 532.888 582.108 532.731 581.968C532.307 581.621 531.811 581.374 531.279 581.245L529.833 580.796C529.158 580.576 528.504 580.295 527.879 579.956C527.348 579.671 526.9 579.254 526.577 578.745C526.163 577.982 526.025 577.099 526.187 576.246C526.348 575.393 526.799 574.622 527.463 574.063C528.538 573.314 529.833 572.947 531.142 573.021C531.888 573.011 532.632 573.096 533.356 573.275C533.909 573.403 534.432 573.64 534.893 573.972C535.174 574.165 535.369 574.46 535.434 574.795C535.5 575.13 535.432 575.477 535.244 575.762C535.112 575.973 534.934 576.151 534.723 576.283C534.295 575.992 533.822 575.772 533.323 575.632C532.691 575.438 532.032 575.343 531.37 575.352C530.748 575.316 530.13 575.463 529.592 575.775C529.393 575.89 529.228 576.055 529.114 576.254C529 576.453 528.94 576.679 528.941 576.908C528.937 577.087 528.974 577.264 529.049 577.425C529.125 577.587 529.237 577.729 529.377 577.84C529.764 578.14 530.207 578.361 530.679 578.491L531.982 578.868C533.081 579.157 534.099 579.694 534.958 580.438C535.319 580.784 535.602 581.204 535.786 581.669C535.97 582.134 536.052 582.634 536.026 583.134C536.041 583.7 535.924 584.263 535.683 584.776C535.442 585.29 535.084 585.739 534.639 586.09C533.488 586.915 532.086 587.315 530.673 587.223C529.863 587.237 529.054 587.14 528.27 586.936C527.668 586.791 527.104 586.518 526.616 586.135C526.432 586.003 526.282 585.831 526.175 585.631C526.069 585.431 526.011 585.209 526.004 584.983C525.998 584.671 526.11 584.369 526.317 584.136C526.497 583.918 526.718 583.736 526.968 583.602C527.421 583.973 527.923 584.279 528.459 584.514C529.15 584.808 529.897 584.944 530.647 584.911Z" fill="#1D1D1B"/>
<path d="M551.744 580.106C551.791 581.462 551.488 582.808 550.865 584.013C550.316 585.026 549.483 585.857 548.469 586.403C547.397 586.934 546.217 587.21 545.021 587.21C543.825 587.21 542.645 586.934 541.573 586.403C540.559 585.857 539.726 585.026 539.177 584.013C538.554 582.808 538.251 581.462 538.298 580.106C538.25 578.748 538.56 577.401 539.196 576.199C539.757 575.186 540.598 574.357 541.619 573.81C542.678 573.278 543.846 573.002 545.031 573.002C546.215 573.002 547.384 573.278 548.443 573.81C549.459 574.37 550.289 575.214 550.833 576.238C551.465 577.428 551.779 578.76 551.744 580.106ZM548.879 580.106C548.966 578.833 548.591 577.571 547.824 576.551C547.477 576.15 547.044 575.832 546.557 575.621C546.07 575.41 545.541 575.312 545.011 575.333C544.488 575.315 543.968 575.415 543.488 575.626C543.009 575.837 542.584 576.153 542.244 576.551C541.554 577.618 541.187 578.862 541.187 580.132C541.187 581.403 541.554 582.647 542.244 583.714C542.601 584.1 543.034 584.407 543.516 584.618C543.998 584.828 544.518 584.937 545.044 584.937C545.57 584.937 546.09 584.828 546.572 584.618C547.053 584.407 547.487 584.1 547.844 583.714C548.612 582.675 548.979 581.394 548.879 580.106Z" fill="#1D1D1B"/>
<path d="M557.48 581.245H554.68V573.372L555.221 573.262C555.468 573.217 555.718 573.195 555.969 573.197C556.374 573.161 556.779 573.259 557.122 573.477C557.257 573.609 557.36 573.771 557.422 573.949C557.484 574.128 557.504 574.318 557.48 574.505V581.245ZM560.28 587.197C559.236 587.22 558.201 586.997 557.259 586.545C556.44 586.162 555.759 585.537 555.305 584.755C554.855 583.924 554.63 582.99 554.654 582.046V580.444H557.454V581.935C557.428 582.334 557.485 582.735 557.621 583.111C557.756 583.487 557.968 583.832 558.242 584.123C558.793 584.618 559.507 584.891 560.248 584.891C560.988 584.891 561.702 584.618 562.253 584.123C562.531 583.834 562.745 583.49 562.883 583.113C563.021 582.737 563.079 582.335 563.054 581.935V580.444H565.874V582.098C565.9 583.043 565.675 583.977 565.222 584.807C564.775 585.582 564.106 586.206 563.301 586.598C562.355 587.03 561.32 587.235 560.28 587.197V587.197ZM565.9 581.265H563.08V573.372L563.634 573.262C563.883 573.218 564.136 573.196 564.389 573.197C564.791 573.164 565.193 573.262 565.535 573.477C565.672 573.608 565.776 573.769 565.84 573.948C565.903 574.126 565.924 574.317 565.9 574.505V581.265Z" fill="#1D1D1B"/>
<path d="M574.346 582.099H569.502V574.487C569.491 574.368 569.507 574.248 569.548 574.136C569.588 574.024 569.652 573.921 569.736 573.836C569.913 573.677 570.122 573.557 570.348 573.484C570.896 573.32 571.459 573.209 572.028 573.152C572.676 573.074 573.329 573.035 573.982 573.035C575.935 573.035 577.4 573.445 578.371 574.246C578.852 574.652 579.234 575.163 579.487 575.74C579.74 576.317 579.857 576.944 579.829 577.574C579.844 578.41 579.606 579.232 579.145 579.931C578.675 580.628 578.019 581.178 577.251 581.52C576.336 581.92 575.345 582.118 574.346 582.099V582.099ZM569.502 581.123H572.321V586.807C572.143 586.866 571.96 586.907 571.774 586.931C571.52 586.971 571.263 586.99 571.006 586.99C570.599 587.023 570.193 586.917 569.853 586.69C569.725 586.556 569.626 586.396 569.564 586.221C569.503 586.046 569.479 585.859 569.495 585.674L569.502 581.123ZM572.302 579.898H574.151C574.892 579.935 575.625 579.732 576.241 579.319C576.5 579.118 576.707 578.858 576.842 578.559C576.977 578.26 577.037 577.933 577.016 577.606C577.037 577.283 576.977 576.96 576.842 576.665C576.706 576.371 576.5 576.115 576.241 575.92C575.557 575.49 574.755 575.287 573.949 575.34C573.65 575.34 573.363 575.34 573.083 575.373C572.803 575.405 572.543 575.431 572.302 575.477V579.898ZM573.969 581.39L576.371 580.699C576.743 581.188 577.127 581.676 577.518 582.177L578.651 583.617C579.015 584.085 579.341 584.515 579.627 584.919C579.914 585.323 580.142 585.622 580.278 585.876C580.188 586.223 579.981 586.529 579.692 586.742C579.405 586.939 579.064 587.044 578.716 587.044C578.367 587.044 578.027 586.939 577.739 586.742C577.465 586.51 577.227 586.238 577.036 585.935L573.969 581.39Z" fill="#1D1D1B"/>
<path d="M593.106 575.085C593.11 575.351 593.03 575.611 592.878 575.828C592.734 576.032 592.547 576.203 592.331 576.329C591.919 576.059 591.483 575.828 591.029 575.639C590.453 575.42 589.84 575.316 589.225 575.333C588.461 575.318 587.706 575.505 587.037 575.873C586.394 576.251 585.882 576.817 585.572 577.495C585.205 578.313 585.027 579.203 585.051 580.099C584.956 581.398 585.38 582.681 586.229 583.668C586.639 584.076 587.129 584.394 587.668 584.603C588.207 584.811 588.784 584.905 589.362 584.879C589.974 584.893 590.583 584.794 591.159 584.586C591.617 584.422 592.055 584.203 592.461 583.935C592.666 584.068 592.837 584.246 592.962 584.456C593.1 584.688 593.172 584.954 593.171 585.224C593.174 585.467 593.108 585.706 592.982 585.914C592.82 586.155 592.594 586.346 592.331 586.468C591.92 586.686 591.482 586.85 591.029 586.956C589.182 587.382 587.248 587.192 585.52 586.416C584.474 585.906 583.609 585.091 583.039 584.078C582.439 582.851 582.127 581.504 582.127 580.138C582.127 578.773 582.439 577.426 583.039 576.199C583.607 575.185 584.455 574.355 585.481 573.809C586.517 573.267 587.671 572.989 588.841 573.002C589.595 572.986 590.348 573.082 591.074 573.288C591.611 573.432 592.111 573.689 592.539 574.044C592.707 574.163 592.845 574.318 592.943 574.499C593.041 574.679 593.097 574.88 593.106 575.085V575.085Z" fill="#1D1D1B"/>
<path d="M598.752 582.287H595.998V574.864C595.988 574.664 596.019 574.464 596.09 574.277C596.16 574.09 596.269 573.92 596.408 573.776C596.556 573.639 596.729 573.533 596.918 573.464C597.107 573.395 597.308 573.364 597.509 573.373C597.756 573.373 598.002 573.397 598.245 573.444C598.416 573.47 598.586 573.507 598.752 573.555V582.287ZM595.998 577.931H598.752V586.708C598.586 586.756 598.416 586.793 598.245 586.819C598.002 586.866 597.756 586.89 597.509 586.891C597.306 586.901 597.104 586.869 596.915 586.797C596.726 586.725 596.553 586.615 596.408 586.474C596.27 586.332 596.163 586.164 596.092 585.979C596.022 585.794 595.99 585.597 595.998 585.4V577.931ZM597.509 575.639V573.373H604.88C604.97 573.511 605.038 573.663 605.082 573.822C605.144 574.033 605.173 574.253 605.166 574.473C605.187 574.791 605.097 575.106 604.912 575.365C604.821 575.47 604.706 575.553 604.577 575.606C604.448 575.659 604.309 575.681 604.17 575.671L597.509 575.639ZM597.509 581.089V578.842H604.229C604.318 578.982 604.388 579.133 604.437 579.292C604.504 579.491 604.537 579.7 604.535 579.91C604.545 580.071 604.523 580.232 604.471 580.384C604.418 580.536 604.336 580.676 604.229 580.796C604.136 580.895 604.022 580.972 603.896 581.023C603.77 581.074 603.635 581.096 603.499 581.089H597.509ZM597.509 586.891V584.644H604.978C605.053 584.786 605.116 584.934 605.166 585.087C605.234 585.297 605.267 585.517 605.264 585.738C605.29 586.051 605.195 586.361 604.997 586.604C604.904 586.703 604.791 586.781 604.665 586.831C604.539 586.882 604.403 586.905 604.268 586.897L597.509 586.891Z" fill="#1D1D1B"/>
<path d="M619.204 584.013C618.624 585.044 617.739 585.87 616.671 586.377C615.472 586.923 614.166 587.19 612.849 587.159C612.363 587.159 611.783 587.133 611.11 587.08C610.483 587.036 609.863 586.911 609.267 586.709C608.965 586.647 608.693 586.485 608.496 586.248C608.298 586.012 608.187 585.715 608.18 585.407V574.487C608.171 574.368 608.188 574.249 608.228 574.137C608.269 574.024 608.332 573.922 608.414 573.836C608.591 573.675 608.799 573.552 609.026 573.478C609.609 573.308 610.206 573.197 610.811 573.146C611.462 573.087 612.061 573.054 612.627 573.054C613.97 573.029 615.302 573.291 616.534 573.823C617.614 574.312 618.522 575.115 619.139 576.128C619.814 577.316 620.141 578.67 620.083 580.035C620.14 581.415 619.837 582.786 619.204 584.013ZM616.639 577.385C616.27 576.726 615.712 576.193 615.037 575.854C614.32 575.512 613.533 575.34 612.738 575.353C612.413 575.353 612.087 575.353 611.813 575.386C611.54 575.418 611.247 575.444 610.98 575.49V584.704C611.274 584.765 611.572 584.806 611.872 584.827C612.198 584.827 612.523 584.86 612.849 584.86C613.446 584.898 614.045 584.81 614.606 584.601C615.167 584.393 615.677 584.068 616.105 583.649C616.939 582.648 617.353 581.361 617.257 580.061C617.291 579.132 617.085 578.21 616.658 577.385H616.639Z" fill="#1D1D1B"/>
</svg>
