  <svg width="1114" height="1114" viewBox="0 0 1114 1114" fill="none" xmlns="http://www.w3.org/2000/svg">
          <circle opacity="0.5" cx="557" cy="557" r="214.5" stroke="#815DC1" />
          <circle opacity="0.5" cx="557" cy="557" r="379.5" stroke="#2576BC" />
          <circle opacity="0.5" cx="557" cy="557" r="556.5" stroke="#65CED6" />
          <path
            d="M553.159 552.826H571.294C571.639 552.826 571.971 552.963 572.215 553.208C572.459 553.452 572.596 553.783 572.596 554.128V556.629H554.462C554.116 556.629 553.785 556.492 553.541 556.248C553.296 556.003 553.159 555.672 553.159 555.327V552.826Z"
            fill="#503885" />
          <path
            d="M538.26 549.023H556.395C556.741 549.023 557.072 549.161 557.316 549.405C557.561 549.649 557.698 549.98 557.698 550.326V552.826H539.563C539.217 552.826 538.886 552.689 538.642 552.445C538.398 552.201 538.26 551.869 538.26 551.524V549.023Z"
            fill="#815DC1" />
          <path
            d="M552.977 543.273H571.112C571.457 543.273 571.788 543.411 572.033 543.655C572.277 543.899 572.414 544.23 572.414 544.576V547.076H554.279C553.934 547.076 553.602 546.939 553.358 546.695C553.114 546.451 552.977 546.119 552.977 545.774V543.273Z"
            fill="#2576BC" />
          <path
            d="M538.26 539.536H556.395C556.741 539.536 557.072 539.674 557.316 539.918C557.561 540.162 557.698 540.493 557.698 540.839V543.326H539.563C539.217 543.326 538.886 543.189 538.642 542.945C538.398 542.701 538.26 542.369 538.26 542.024V539.523V539.536Z"
            fill="#51A4E4" />
          <path
            d="M552.977 533.174H571.112C571.457 533.174 571.788 533.311 572.033 533.555C572.277 533.8 572.414 534.131 572.414 534.476V536.977H554.279C553.934 536.977 553.602 536.839 553.358 536.595C553.114 536.351 552.977 536.02 552.977 535.674V533.174Z"
            fill="#8CE2E9" />
          <path
            d="M538.26 529.365H556.395C556.741 529.365 557.072 529.502 557.316 529.747C557.561 529.991 557.698 530.322 557.698 530.668V533.168H539.563C539.217 533.168 538.886 533.031 538.642 532.787C538.398 532.542 538.26 532.211 538.26 531.866V529.365Z"
            fill="#65CED6" />
          <path
            d="M502.85 579.099H498.006V571.487C497.996 571.369 498.011 571.25 498.05 571.137C498.089 571.025 498.152 570.923 498.233 570.836C498.411 570.678 498.62 570.559 498.846 570.484C499.394 570.32 499.956 570.209 500.526 570.152C501.174 570.074 501.826 570.035 502.479 570.035C504.433 570.035 505.898 570.445 506.868 571.246C507.349 571.652 507.731 572.163 507.984 572.74C508.237 573.317 508.354 573.944 508.326 574.574C508.348 575.407 508.121 576.227 507.675 576.931C507.2 577.626 506.542 578.176 505.774 578.52C504.853 578.925 503.855 579.122 502.85 579.099V579.099ZM498.006 578.123H500.825V583.807C500.647 583.866 500.464 583.907 500.278 583.931C500.026 583.971 499.771 583.99 499.516 583.99C499.107 584.023 498.699 583.917 498.357 583.69C498.23 583.555 498.132 583.395 498.072 583.22C498.011 583.045 497.988 582.859 498.006 582.674V578.123ZM500.806 576.898H502.648C503.389 576.935 504.122 576.732 504.739 576.319C504.998 576.118 505.204 575.858 505.339 575.559C505.474 575.26 505.534 574.933 505.513 574.606C505.534 574.283 505.474 573.96 505.339 573.665C505.204 573.371 504.997 573.115 504.739 572.92C504.055 572.49 503.253 572.287 502.446 572.34C502.153 572.34 501.86 572.34 501.58 572.373C501.3 572.405 501.04 572.431 500.806 572.477V576.898ZM502.473 578.39L504.869 577.699C505.24 578.188 505.624 578.676 506.015 579.177L507.148 580.617C507.513 581.085 507.838 581.515 508.125 581.919C508.411 582.323 508.639 582.622 508.776 582.876C508.687 583.214 508.488 583.513 508.211 583.726C507.935 583.939 507.595 584.055 507.246 584.055C506.875 584.076 506.509 583.968 506.21 583.749C505.938 583.517 505.703 583.244 505.513 582.941L502.473 578.39Z"
            fill="#1D1D1B" />
          <path
            d="M514.291 579.287H511.537V571.864C511.526 571.664 511.558 571.464 511.628 571.277C511.699 571.09 511.807 570.92 511.947 570.776C512.094 570.639 512.268 570.533 512.456 570.464C512.645 570.395 512.846 570.364 513.047 570.373C513.294 570.373 513.541 570.397 513.783 570.444C513.955 570.47 514.124 570.507 514.291 570.555V579.287ZM511.537 574.931H514.291V583.708C514.124 583.757 513.955 583.794 513.783 583.819C513.541 583.866 513.294 583.89 513.047 583.891C512.845 583.901 512.643 583.869 512.454 583.797C512.264 583.725 512.092 583.615 511.947 583.474C511.809 583.332 511.701 583.164 511.631 582.979C511.56 582.794 511.528 582.597 511.537 582.4V574.931ZM513.047 572.639V570.373H520.405C520.498 570.51 520.566 570.662 520.607 570.822C520.672 571.033 520.703 571.253 520.698 571.473C520.717 571.792 520.625 572.107 520.438 572.365C520.346 572.47 520.232 572.553 520.103 572.606C519.974 572.659 519.835 572.681 519.696 572.671L513.047 572.639ZM513.047 578.089V575.842H519.741C519.831 575.982 519.901 576.133 519.95 576.292C520.018 576.491 520.054 576.7 520.054 576.91C520.077 577.222 519.982 577.532 519.787 577.776C519.692 577.875 519.578 577.953 519.451 578.003C519.324 578.054 519.187 578.076 519.051 578.069L513.047 578.089ZM513.047 583.891V581.644H520.516C520.592 581.786 520.655 581.934 520.705 582.087C520.775 582.297 520.81 582.517 520.809 582.738C520.832 583.05 520.737 583.359 520.542 583.604C520.448 583.703 520.333 583.78 520.206 583.831C520.079 583.882 519.943 583.904 519.806 583.897L513.047 583.891Z"
            fill="#1D1D1B" />
          <path
            d="M527.646 581.911C528.325 581.963 529.002 581.779 529.561 581.39C529.763 581.238 529.927 581.042 530.039 580.816C530.152 580.59 530.212 580.341 530.212 580.088C530.219 579.877 530.179 579.668 530.096 579.474C530.013 579.281 529.888 579.108 529.73 578.968C529.307 578.621 528.81 578.374 528.278 578.245L526.832 577.796C526.157 577.576 525.503 577.295 524.879 576.956C524.348 576.671 523.899 576.254 523.577 575.745C523.163 574.982 523.025 574.099 523.186 573.246C523.347 572.393 523.798 571.622 524.462 571.063C525.538 570.314 526.833 569.947 528.141 570.021C528.887 570.011 529.631 570.096 530.355 570.275C530.909 570.403 531.431 570.64 531.892 570.972C532.174 571.165 532.368 571.46 532.434 571.795C532.5 572.13 532.431 572.477 532.244 572.762C532.111 572.973 531.933 573.151 531.723 573.283C531.295 572.992 530.822 572.772 530.323 572.632C529.69 572.438 529.031 572.343 528.369 572.352C527.748 572.316 527.13 572.463 526.592 572.775C526.393 572.89 526.228 573.055 526.114 573.254C525.999 573.453 525.939 573.679 525.94 573.908C525.936 574.087 525.973 574.264 526.049 574.425C526.125 574.587 526.237 574.729 526.377 574.84C526.764 575.14 527.206 575.361 527.679 575.491L528.981 575.868C530.08 576.157 531.099 576.694 531.957 577.438C532.319 577.784 532.601 578.204 532.786 578.669C532.97 579.134 533.052 579.634 533.025 580.134C533.041 580.7 532.923 581.263 532.682 581.776C532.442 582.29 532.084 582.739 531.638 583.09C530.487 583.915 529.086 584.315 527.673 584.223C526.862 584.237 526.054 584.14 525.27 583.936C524.667 583.791 524.103 583.518 523.616 583.135C523.432 583.003 523.281 582.831 523.175 582.631C523.069 582.431 523.01 582.209 523.004 581.983C522.998 581.671 523.109 581.369 523.316 581.136C523.497 580.918 523.718 580.736 523.967 580.602C524.421 580.973 524.922 581.279 525.459 581.514C526.149 581.808 526.897 581.944 527.646 581.911Z"
            fill="#1D1D1B" />
          <path
            d="M548.744 577.106C548.791 578.462 548.488 579.808 547.865 581.013C547.316 582.026 546.483 582.857 545.469 583.403C544.397 583.934 543.217 584.21 542.021 584.21C540.825 584.21 539.645 583.934 538.573 583.403C537.558 582.857 536.726 582.026 536.177 581.013C535.554 579.808 535.251 578.462 535.297 577.106C535.25 575.748 535.56 574.401 536.196 573.199C536.757 572.186 537.598 571.357 538.618 570.81C539.677 570.278 540.846 570.002 542.03 570.002C543.215 570.002 544.384 570.278 545.443 570.81C546.458 571.37 547.289 572.214 547.832 573.238C548.464 574.428 548.778 575.76 548.744 577.106ZM545.879 577.106C545.966 575.833 545.591 574.571 544.824 573.551C544.477 573.15 544.044 572.832 543.557 572.621C543.07 572.41 542.541 572.312 542.011 572.333C541.488 572.315 540.967 572.415 540.488 572.626C540.009 572.837 539.584 573.153 539.244 573.551C538.554 574.618 538.187 575.862 538.187 577.132C538.187 578.403 538.554 579.647 539.244 580.714C539.601 581.1 540.034 581.407 540.516 581.618C540.998 581.828 541.518 581.937 542.043 581.937C542.569 581.937 543.089 581.828 543.571 581.618C544.053 581.407 544.486 581.1 544.843 580.714C545.612 579.675 545.979 578.394 545.879 577.106Z"
            fill="#1D1D1B" />
          <path
            d="M554.481 578.245H551.681V570.372L552.221 570.262C552.468 570.217 552.719 570.195 552.97 570.197C553.375 570.161 553.78 570.259 554.123 570.477C554.258 570.609 554.36 570.771 554.422 570.949C554.485 571.128 554.505 571.318 554.481 571.505V578.245ZM557.281 584.197C556.237 584.22 555.202 583.997 554.259 583.545C553.441 583.162 552.759 582.537 552.306 581.755C551.856 580.924 551.631 579.99 551.655 579.046V577.444H554.455V578.935C554.429 579.334 554.486 579.735 554.621 580.111C554.757 580.487 554.968 580.832 555.243 581.123C555.794 581.618 556.508 581.891 557.248 581.891C557.989 581.891 558.703 581.618 559.254 581.123C559.531 580.834 559.746 580.49 559.884 580.113C560.022 579.737 560.08 579.335 560.055 578.935V577.444H562.874V579.098C562.901 580.043 562.676 580.977 562.223 581.807C561.776 582.582 561.107 583.206 560.302 583.598C559.356 584.03 558.321 584.235 557.281 584.197V584.197ZM562.9 578.265H560.081V570.372L560.634 570.262C560.884 570.218 561.136 570.196 561.39 570.197C561.792 570.164 562.194 570.262 562.536 570.477C562.673 570.608 562.777 570.769 562.841 570.948C562.904 571.126 562.924 571.317 562.9 571.505V578.265Z"
            fill="#1D1D1B" />
          <path
            d="M571.346 579.099H566.501V571.487C566.491 571.368 566.507 571.248 566.547 571.136C566.588 571.024 566.652 570.921 566.736 570.836C566.912 570.677 567.121 570.557 567.348 570.484C567.896 570.32 568.458 570.209 569.028 570.152C569.676 570.074 570.328 570.035 570.981 570.035C572.935 570.035 574.4 570.445 575.37 571.246C575.852 571.652 576.234 572.163 576.486 572.74C576.739 573.317 576.856 573.944 576.829 574.574C576.843 575.41 576.605 576.232 576.145 576.931C575.675 577.628 575.018 578.178 574.25 578.52C573.335 578.92 572.344 579.118 571.346 579.099V579.099ZM566.501 578.123H569.321V583.807C569.143 583.866 568.96 583.907 568.774 583.931C568.52 583.971 568.263 583.99 568.005 583.99C567.598 584.023 567.192 583.917 566.853 583.69C566.724 583.556 566.626 583.396 566.564 583.221C566.502 583.046 566.479 582.859 566.495 582.674L566.501 578.123ZM569.301 576.898H571.151C571.891 576.935 572.625 576.732 573.241 576.319C573.5 576.118 573.706 575.858 573.841 575.559C573.976 575.26 574.036 574.933 574.016 574.606C574.036 574.283 573.977 573.96 573.841 573.665C573.706 573.371 573.5 573.115 573.241 572.92C572.557 572.49 571.755 572.287 570.949 572.34C570.649 572.34 570.363 572.34 570.083 572.373C569.803 572.405 569.542 572.431 569.301 572.477V576.898ZM570.968 578.39L573.371 577.699C573.742 578.188 574.126 578.676 574.517 579.177L575.65 580.617C576.015 581.085 576.34 581.515 576.627 581.919C576.913 582.323 577.141 582.622 577.278 582.876C577.187 583.223 576.981 583.529 576.692 583.742C576.404 583.939 576.064 584.044 575.715 584.044C575.367 584.044 575.026 583.939 574.738 583.742C574.464 583.51 574.227 583.238 574.035 582.935L570.968 578.39Z"
            fill="#1D1D1B" />
          <path
            d="M590.106 572.085C590.11 572.351 590.031 572.611 589.878 572.828C589.734 573.032 589.548 573.203 589.331 573.329C588.919 573.059 588.483 572.828 588.029 572.639C587.453 572.42 586.84 572.316 586.225 572.333C585.461 572.318 584.707 572.505 584.037 572.873C583.394 573.251 582.882 573.817 582.572 574.495C582.206 575.313 582.028 576.203 582.051 577.099C581.956 578.398 582.38 579.681 583.23 580.668C583.639 581.076 584.129 581.394 584.668 581.603C585.208 581.811 585.784 581.905 586.362 581.879C586.974 581.893 587.583 581.794 588.159 581.586C588.618 581.422 589.055 581.203 589.461 580.935C589.666 581.068 589.837 581.246 589.963 581.456C590.1 581.688 590.172 581.954 590.171 582.224C590.174 582.467 590.108 582.706 589.982 582.914C589.82 583.155 589.595 583.346 589.331 583.468C588.92 583.686 588.482 583.85 588.029 583.956C586.183 584.382 584.248 584.192 582.52 583.416C581.475 582.906 580.609 582.091 580.039 581.078C579.439 579.851 579.127 578.504 579.127 577.138C579.127 575.773 579.439 574.426 580.039 573.199C580.607 572.185 581.455 571.355 582.481 570.809C583.517 570.267 584.671 569.989 585.841 570.002C586.595 569.986 587.348 570.082 588.074 570.288C588.611 570.432 589.111 570.689 589.539 571.044C589.707 571.163 589.845 571.318 589.943 571.499C590.042 571.679 590.097 571.88 590.106 572.085V572.085Z"
            fill="#1D1D1B" />
          <path
            d="M595.751 579.287H592.997V571.864C592.987 571.664 593.018 571.464 593.089 571.277C593.159 571.09 593.268 570.92 593.407 570.776C593.555 570.639 593.728 570.533 593.917 570.464C594.106 570.395 594.307 570.364 594.508 570.373C594.755 570.373 595.001 570.397 595.244 570.444C595.415 570.47 595.585 570.507 595.751 570.555V579.287ZM592.997 574.931H595.751V583.708C595.585 583.756 595.415 583.793 595.244 583.819C595.001 583.866 594.755 583.89 594.508 583.891C594.305 583.901 594.103 583.869 593.914 583.797C593.725 583.725 593.552 583.615 593.407 583.474C593.269 583.332 593.162 583.164 593.091 582.979C593.021 582.794 592.989 582.597 592.997 582.4V574.931ZM594.508 572.639V570.373H601.879C601.969 570.511 602.037 570.663 602.081 570.822C602.143 571.033 602.172 571.253 602.165 571.473C602.186 571.791 602.096 572.106 601.911 572.365C601.82 572.47 601.705 572.553 601.576 572.606C601.448 572.659 601.308 572.681 601.169 572.671L594.508 572.639ZM594.508 578.089V575.842H601.228C601.317 575.982 601.387 576.133 601.436 576.292C601.503 576.491 601.536 576.7 601.534 576.91C601.544 577.071 601.522 577.232 601.47 577.384C601.417 577.536 601.335 577.676 601.228 577.796C601.135 577.895 601.021 577.972 600.895 578.023C600.77 578.074 600.634 578.096 600.498 578.089H594.508ZM594.508 583.891V581.644H601.977C602.052 581.786 602.115 581.934 602.165 582.087C602.233 582.297 602.266 582.517 602.263 582.738C602.289 583.051 602.194 583.361 601.996 583.604C601.903 583.703 601.79 583.781 601.664 583.831C601.538 583.882 601.402 583.905 601.267 583.897L594.508 583.891Z"
            fill="#1D1D1B" />
          <path
            d="M616.205 581.013C615.624 582.044 614.74 582.87 613.672 583.377C612.473 583.923 611.166 584.19 609.849 584.159C609.363 584.159 608.784 584.133 608.111 584.08C607.483 584.036 606.864 583.911 606.268 583.709C605.966 583.647 605.694 583.485 605.496 583.248C605.299 583.012 605.187 582.715 605.18 582.407V571.487C605.172 571.368 605.188 571.249 605.229 571.137C605.269 571.024 605.332 570.922 605.415 570.836C605.591 570.675 605.8 570.552 606.027 570.478C606.609 570.308 607.207 570.197 607.811 570.146C608.462 570.087 609.061 570.054 609.628 570.054C610.97 570.029 612.302 570.291 613.535 570.823C614.615 571.312 615.522 572.115 616.139 573.128C616.814 574.316 617.141 575.67 617.084 577.035C617.141 578.415 616.838 579.786 616.205 581.013ZM613.639 574.385C613.27 573.726 612.712 573.193 612.037 572.854C611.32 572.512 610.533 572.34 609.739 572.353C609.413 572.353 609.087 572.353 608.814 572.386C608.54 572.418 608.247 572.444 607.98 572.49V581.704C608.275 581.765 608.573 581.806 608.873 581.827C609.198 581.827 609.524 581.86 609.849 581.86C610.447 581.898 611.045 581.81 611.606 581.601C612.167 581.393 612.678 581.068 613.105 580.649C613.94 579.648 614.353 578.361 614.258 577.061C614.291 576.132 614.085 575.21 613.659 574.385H613.639Z"
            fill="#1D1D1B" />
        </svg>
