<svg width="1084" height="998" viewBox="0 0 1084 998" fill="none" xmlns="http://www.w3.org/2000/svg">
<circle opacity="0.5" cx="559.5" cy="473.5" r="122" stroke="#815DC1"/>
<circle opacity="0.5" cx="559.5" cy="473.5" r="217" stroke="#2576BC"/>
<circle opacity="0.5" cx="559.5" cy="473.5" r="318" stroke="#65CED6"/>
<circle opacity="0.5" cx="559.5" cy="473.5" r="559" stroke="#DDDDDD"/>
<path d="M505.85 496.099H501.006V488.487C500.996 488.369 501.011 488.25 501.05 488.137C501.089 488.025 501.152 487.923 501.233 487.836C501.411 487.678 501.62 487.559 501.846 487.484C502.394 487.32 502.956 487.209 503.526 487.152C504.174 487.074 504.826 487.035 505.479 487.035C507.433 487.035 508.898 487.445 509.868 488.246C510.349 488.652 510.731 489.163 510.984 489.74C511.237 490.317 511.354 490.944 511.326 491.574C511.348 492.407 511.121 493.227 510.675 493.931C510.2 494.626 509.542 495.176 508.774 495.52C507.853 495.925 506.855 496.122 505.85 496.099V496.099ZM501.006 495.123H503.825V500.807C503.647 500.866 503.464 500.907 503.278 500.931C503.026 500.971 502.771 500.99 502.516 500.99C502.107 501.023 501.699 500.917 501.357 500.69C501.23 500.555 501.132 500.395 501.072 500.22C501.011 500.045 500.988 499.859 501.006 499.674V495.123ZM503.806 493.898H505.648C506.389 493.935 507.122 493.732 507.739 493.319C507.998 493.118 508.204 492.858 508.339 492.559C508.474 492.26 508.534 491.933 508.513 491.606C508.534 491.283 508.474 490.96 508.339 490.665C508.204 490.371 507.997 490.115 507.739 489.92C507.055 489.49 506.253 489.287 505.446 489.34C505.153 489.34 504.86 489.34 504.58 489.373C504.3 489.405 504.04 489.431 503.806 489.477V493.898ZM505.473 495.39L507.869 494.699C508.24 495.188 508.624 495.676 509.015 496.177L510.148 497.617C510.513 498.085 510.838 498.515 511.125 498.919C511.411 499.323 511.639 499.622 511.776 499.876C511.687 500.214 511.488 500.513 511.211 500.726C510.935 500.939 510.595 501.055 510.246 501.055C509.875 501.076 509.509 500.968 509.21 500.749C508.938 500.517 508.703 500.244 508.513 499.941L505.473 495.39Z" fill="#1D1D1B"/>
<path d="M517.291 496.287H514.537V488.864C514.526 488.664 514.558 488.464 514.628 488.277C514.699 488.09 514.807 487.92 514.947 487.776C515.094 487.639 515.268 487.533 515.456 487.464C515.645 487.395 515.846 487.364 516.047 487.373C516.294 487.373 516.541 487.397 516.783 487.444C516.955 487.47 517.124 487.507 517.291 487.555V496.287ZM514.537 491.931H517.291V500.708C517.124 500.757 516.955 500.794 516.783 500.819C516.541 500.866 516.294 500.89 516.047 500.891C515.845 500.901 515.643 500.869 515.454 500.797C515.264 500.725 515.092 500.615 514.947 500.474C514.809 500.332 514.701 500.164 514.631 499.979C514.56 499.794 514.528 499.597 514.537 499.4V491.931ZM516.047 489.639V487.373H523.405C523.498 487.51 523.566 487.662 523.607 487.822C523.672 488.033 523.703 488.253 523.698 488.473C523.717 488.792 523.625 489.107 523.438 489.365C523.346 489.47 523.232 489.553 523.103 489.606C522.974 489.659 522.835 489.681 522.696 489.671L516.047 489.639ZM516.047 495.089V492.842H522.741C522.831 492.982 522.901 493.133 522.95 493.292C523.018 493.491 523.054 493.7 523.054 493.91C523.077 494.222 522.982 494.532 522.787 494.776C522.692 494.875 522.578 494.953 522.451 495.003C522.324 495.054 522.187 495.076 522.051 495.069L516.047 495.089ZM516.047 500.891V498.644H523.516C523.592 498.786 523.655 498.934 523.705 499.087C523.775 499.297 523.81 499.517 523.809 499.738C523.832 500.05 523.737 500.359 523.542 500.604C523.448 500.703 523.333 500.78 523.206 500.831C523.079 500.882 522.943 500.904 522.806 500.897L516.047 500.891Z" fill="#1D1D1B"/>
<path d="M530.646 498.911C531.325 498.963 532.002 498.779 532.561 498.39C532.763 498.238 532.927 498.042 533.039 497.816C533.152 497.59 533.212 497.341 533.212 497.088C533.219 496.877 533.179 496.668 533.096 496.474C533.013 496.281 532.888 496.108 532.73 495.968C532.307 495.621 531.81 495.374 531.278 495.245L529.832 494.796C529.157 494.576 528.503 494.295 527.879 493.956C527.348 493.671 526.899 493.254 526.577 492.745C526.163 491.982 526.025 491.099 526.186 490.246C526.347 489.393 526.798 488.622 527.462 488.063C528.538 487.314 529.833 486.947 531.141 487.021C531.887 487.011 532.631 487.096 533.355 487.275C533.909 487.403 534.431 487.64 534.892 487.972C535.174 488.165 535.368 488.46 535.434 488.795C535.5 489.13 535.431 489.477 535.244 489.762C535.111 489.973 534.933 490.151 534.723 490.283C534.295 489.992 533.822 489.772 533.323 489.632C532.69 489.438 532.031 489.343 531.369 489.352C530.748 489.316 530.13 489.463 529.592 489.775C529.393 489.89 529.228 490.055 529.114 490.254C528.999 490.453 528.939 490.679 528.94 490.908C528.936 491.087 528.973 491.264 529.049 491.425C529.125 491.587 529.237 491.729 529.377 491.84C529.764 492.14 530.206 492.361 530.679 492.491L531.981 492.868C533.08 493.157 534.099 493.694 534.957 494.438C535.319 494.784 535.601 495.204 535.786 495.669C535.97 496.134 536.052 496.634 536.025 497.134C536.041 497.7 535.923 498.263 535.682 498.776C535.442 499.29 535.084 499.739 534.638 500.09C533.487 500.915 532.086 501.315 530.673 501.223C529.862 501.237 529.054 501.14 528.27 500.936C527.667 500.791 527.103 500.518 526.616 500.135C526.432 500.003 526.281 499.831 526.175 499.631C526.069 499.431 526.01 499.209 526.004 498.983C525.998 498.671 526.109 498.369 526.316 498.136C526.497 497.918 526.718 497.736 526.967 497.602C527.421 497.973 527.922 498.279 528.459 498.514C529.149 498.808 529.897 498.944 530.646 498.911Z" fill="#1D1D1B"/>
<path d="M551.744 494.106C551.791 495.462 551.488 496.808 550.865 498.013C550.316 499.026 549.483 499.857 548.469 500.403C547.397 500.934 546.217 501.21 545.021 501.21C543.825 501.21 542.645 500.934 541.573 500.403C540.558 499.857 539.726 499.026 539.177 498.013C538.554 496.808 538.251 495.462 538.297 494.106C538.25 492.748 538.56 491.401 539.196 490.199C539.757 489.186 540.598 488.357 541.618 487.81C542.677 487.278 543.846 487.002 545.03 487.002C546.215 487.002 547.384 487.278 548.443 487.81C549.458 488.37 550.289 489.214 550.832 490.238C551.464 491.428 551.778 492.76 551.744 494.106ZM548.879 494.106C548.966 492.833 548.591 491.571 547.824 490.551C547.477 490.15 547.044 489.832 546.557 489.621C546.07 489.41 545.541 489.312 545.011 489.333C544.488 489.315 543.967 489.415 543.488 489.626C543.009 489.837 542.584 490.153 542.244 490.551C541.554 491.618 541.187 492.862 541.187 494.132C541.187 495.403 541.554 496.647 542.244 497.714C542.601 498.1 543.034 498.407 543.516 498.618C543.998 498.828 544.518 498.937 545.043 498.937C545.569 498.937 546.089 498.828 546.571 498.618C547.053 498.407 547.486 498.1 547.843 497.714C548.612 496.675 548.979 495.394 548.879 494.106Z" fill="#1D1D1B"/>
<path d="M557.481 495.245H554.681V487.372L555.221 487.262C555.468 487.217 555.719 487.195 555.97 487.197C556.375 487.161 556.78 487.259 557.123 487.477C557.258 487.609 557.36 487.771 557.422 487.949C557.485 488.128 557.505 488.318 557.481 488.505V495.245ZM560.281 501.197C559.237 501.22 558.202 500.997 557.259 500.545C556.441 500.162 555.759 499.537 555.306 498.755C554.856 497.924 554.631 496.99 554.655 496.046V494.444H557.455V495.935C557.429 496.334 557.486 496.735 557.621 497.111C557.757 497.487 557.968 497.832 558.243 498.123C558.794 498.618 559.508 498.891 560.248 498.891C560.989 498.891 561.703 498.618 562.254 498.123C562.531 497.834 562.746 497.49 562.884 497.113C563.022 496.737 563.08 496.335 563.055 495.935V494.444H565.874V496.098C565.901 497.043 565.676 497.977 565.223 498.807C564.776 499.582 564.107 500.206 563.302 500.598C562.356 501.03 561.321 501.235 560.281 501.197V501.197ZM565.9 495.265H563.081V487.372L563.634 487.262C563.884 487.218 564.136 487.196 564.39 487.197C564.792 487.164 565.194 487.262 565.536 487.477C565.673 487.608 565.777 487.769 565.841 487.948C565.904 488.126 565.924 488.317 565.9 488.505V495.265Z" fill="#1D1D1B"/>
<path d="M574.346 496.099H569.501V488.487C569.491 488.368 569.507 488.248 569.547 488.136C569.588 488.024 569.652 487.921 569.736 487.836C569.912 487.677 570.121 487.557 570.348 487.484C570.896 487.32 571.458 487.209 572.028 487.152C572.676 487.074 573.328 487.035 573.981 487.035C575.935 487.035 577.4 487.445 578.37 488.246C578.852 488.652 579.234 489.163 579.486 489.74C579.739 490.317 579.856 490.944 579.829 491.574C579.843 492.41 579.605 493.232 579.145 493.931C578.675 494.628 578.018 495.178 577.25 495.52C576.335 495.92 575.344 496.118 574.346 496.099V496.099ZM569.501 495.123H572.321V500.807C572.143 500.866 571.96 500.907 571.774 500.931C571.52 500.971 571.263 500.99 571.005 500.99C570.598 501.023 570.192 500.917 569.853 500.69C569.724 500.556 569.626 500.396 569.564 500.221C569.502 500.046 569.479 499.859 569.495 499.674L569.501 495.123ZM572.301 493.898H574.151C574.891 493.935 575.625 493.732 576.241 493.319C576.5 493.118 576.706 492.858 576.841 492.559C576.976 492.26 577.036 491.933 577.016 491.606C577.036 491.283 576.977 490.96 576.841 490.665C576.706 490.371 576.5 490.115 576.241 489.92C575.557 489.49 574.755 489.287 573.949 489.34C573.649 489.34 573.363 489.34 573.083 489.373C572.803 489.405 572.542 489.431 572.301 489.477V493.898ZM573.968 495.39L576.371 494.699C576.742 495.188 577.126 495.676 577.517 496.177L578.65 497.617C579.015 498.085 579.34 498.515 579.627 498.919C579.913 499.323 580.141 499.622 580.278 499.876C580.187 500.223 579.981 500.529 579.692 500.742C579.404 500.939 579.064 501.044 578.715 501.044C578.367 501.044 578.026 500.939 577.738 500.742C577.464 500.51 577.227 500.238 577.035 499.935L573.968 495.39Z" fill="#1D1D1B"/>
<path d="M593.106 489.085C593.11 489.351 593.031 489.611 592.878 489.828C592.734 490.032 592.548 490.203 592.331 490.329C591.919 490.059 591.483 489.828 591.029 489.639C590.453 489.42 589.84 489.316 589.225 489.333C588.461 489.318 587.707 489.505 587.037 489.873C586.394 490.251 585.882 490.817 585.572 491.495C585.206 492.313 585.028 493.203 585.051 494.099C584.956 495.398 585.38 496.681 586.23 497.668C586.639 498.076 587.129 498.394 587.668 498.603C588.208 498.811 588.784 498.905 589.362 498.879C589.974 498.893 590.583 498.794 591.159 498.586C591.618 498.422 592.055 498.203 592.461 497.935C592.666 498.068 592.837 498.246 592.963 498.456C593.1 498.688 593.172 498.954 593.171 499.224C593.174 499.467 593.108 499.706 592.982 499.914C592.82 500.155 592.595 500.346 592.331 500.468C591.92 500.686 591.482 500.85 591.029 500.956C589.183 501.382 587.248 501.192 585.52 500.416C584.475 499.906 583.609 499.091 583.039 498.078C582.439 496.851 582.127 495.504 582.127 494.138C582.127 492.773 582.439 491.426 583.039 490.199C583.607 489.185 584.455 488.355 585.481 487.809C586.517 487.267 587.671 486.989 588.841 487.002C589.595 486.986 590.348 487.082 591.074 487.288C591.611 487.432 592.111 487.689 592.539 488.044C592.707 488.163 592.845 488.318 592.943 488.499C593.042 488.679 593.097 488.88 593.106 489.085V489.085Z" fill="#1D1D1B"/>
<path d="M598.751 496.287H595.997V488.864C595.987 488.664 596.018 488.464 596.089 488.277C596.159 488.09 596.268 487.92 596.407 487.776C596.555 487.639 596.728 487.533 596.917 487.464C597.106 487.395 597.307 487.364 597.508 487.373C597.755 487.373 598.001 487.397 598.244 487.444C598.415 487.47 598.585 487.507 598.751 487.555V496.287ZM595.997 491.931H598.751V500.708C598.585 500.756 598.415 500.793 598.244 500.819C598.001 500.866 597.755 500.89 597.508 500.891C597.305 500.901 597.103 500.869 596.914 500.797C596.725 500.725 596.552 500.615 596.407 500.474C596.269 500.332 596.162 500.164 596.091 499.979C596.021 499.794 595.989 499.597 595.997 499.4V491.931ZM597.508 489.639V487.373H604.879C604.969 487.511 605.037 487.663 605.081 487.822C605.143 488.033 605.172 488.253 605.165 488.473C605.186 488.791 605.096 489.106 604.911 489.365C604.82 489.47 604.705 489.553 604.576 489.606C604.448 489.659 604.308 489.681 604.169 489.671L597.508 489.639ZM597.508 495.089V492.842H604.228C604.317 492.982 604.387 493.133 604.436 493.292C604.503 493.491 604.536 493.7 604.534 493.91C604.544 494.071 604.522 494.232 604.47 494.384C604.417 494.536 604.335 494.676 604.228 494.796C604.135 494.895 604.021 494.972 603.895 495.023C603.77 495.074 603.634 495.096 603.498 495.089H597.508ZM597.508 500.891V498.644H604.977C605.052 498.786 605.115 498.934 605.165 499.087C605.233 499.297 605.266 499.517 605.263 499.738C605.289 500.051 605.194 500.361 604.996 500.604C604.903 500.703 604.79 500.781 604.664 500.831C604.538 500.882 604.402 500.905 604.267 500.897L597.508 500.891Z" fill="#1D1D1B"/>
<path d="M619.205 498.013C618.624 499.044 617.74 499.87 616.672 500.377C615.473 500.923 614.166 501.19 612.849 501.159C612.363 501.159 611.784 501.133 611.111 501.08C610.483 501.036 609.864 500.911 609.268 500.709C608.966 500.647 608.694 500.485 608.496 500.248C608.299 500.012 608.187 499.715 608.18 499.407V488.487C608.172 488.368 608.188 488.249 608.229 488.137C608.269 488.024 608.332 487.922 608.415 487.836C608.591 487.675 608.8 487.552 609.027 487.478C609.609 487.308 610.207 487.197 610.811 487.146C611.462 487.087 612.061 487.054 612.628 487.054C613.97 487.029 615.302 487.291 616.535 487.823C617.615 488.312 618.522 489.115 619.139 490.128C619.814 491.316 620.141 492.67 620.084 494.035C620.141 495.415 619.838 496.786 619.205 498.013ZM616.639 491.385C616.27 490.726 615.712 490.193 615.037 489.854C614.32 489.512 613.533 489.34 612.739 489.353C612.413 489.353 612.087 489.353 611.814 489.386C611.54 489.418 611.247 489.444 610.98 489.49V498.704C611.275 498.765 611.573 498.806 611.873 498.827C612.198 498.827 612.524 498.86 612.849 498.86C613.447 498.898 614.045 498.81 614.606 498.601C615.167 498.393 615.678 498.068 616.105 497.649C616.94 496.648 617.353 495.361 617.258 494.061C617.291 493.132 617.085 492.21 616.659 491.385H616.639Z" fill="#1D1D1B"/>
<path d="M551.639 475.935H574.913C575.357 475.935 575.782 476.127 576.095 476.468C576.409 476.81 576.585 477.274 576.585 477.757V481.256H553.311C552.867 481.256 552.442 481.064 552.129 480.723C551.815 480.381 551.639 479.917 551.639 479.434V475.935Z" fill="#5A36C7"/>
<path d="M539 470.612H562.274C562.718 470.612 563.143 470.804 563.456 471.146C563.77 471.488 563.946 471.951 563.946 472.435V475.934H540.671C540.228 475.934 539.803 475.742 539.49 475.4C539.176 475.058 539 474.595 539 474.112V470.612Z" fill="#7040FF"/>
<path d="M551.639 463.628H574.913C575.357 463.628 575.782 463.82 576.095 464.162C576.409 464.504 576.585 464.968 576.585 465.451V468.95H553.311C552.867 468.95 552.442 468.758 552.129 468.416C551.815 468.075 551.639 467.611 551.639 467.128V463.628Z" fill="#2576BC"/>
<path d="M539 458.324H562.274C562.718 458.324 563.143 458.516 563.456 458.858C563.77 459.2 563.946 459.664 563.946 460.147V463.628H540.671C540.228 463.628 539.803 463.436 539.49 463.094C539.176 462.752 539 462.289 539 461.805V458.306V458.324Z" fill="#51A4E4"/>
<path d="M551.639 451.322H574.913C575.357 451.322 575.782 451.514 576.095 451.856C576.409 452.198 576.585 452.661 576.585 453.145V456.644H553.311C552.867 456.644 552.442 456.452 552.129 456.11C551.815 455.768 551.639 455.305 551.639 454.821V451.322Z" fill="#65CED6"/>
<path d="M539 446H562.274C562.718 446 563.143 446.192 563.456 446.534C563.77 446.876 563.946 447.339 563.946 447.823V451.322H540.671C540.228 451.322 539.803 451.13 539.49 450.788C539.176 450.446 539 449.983 539 449.499V446Z" fill="#8CE2E9"/>
</svg>
