<svg width="26" height="26" viewBox="0 0 26 26" fill="none" xmlns="http://www.w3.org/2000/svg">
<path d="M6.81792 4.58413C7.04589 4.58413 7.26456 4.49414 7.42583 4.33426C7.5869 4.17417 7.67754 3.9571 7.67754 3.7308V0.85311C7.67754 0.548307 7.51379 0.266656 7.24784 0.114376C6.98188 -0.0381252 6.6542 -0.0381252 6.3882 0.114376C6.12225 0.266672 5.9585 0.548312 5.9585 0.85311V3.73406C5.95932 3.95974 6.05018 4.17599 6.21124 4.33526C6.37251 4.49473 6.59056 4.5841 6.81793 4.5841L6.81792 4.58413Z" fill="#10084D"/>
<path d="M18.6226 4.58413C18.8505 4.58413 19.069 4.49414 19.2303 4.33426C19.3915 4.17417 19.482 3.9571 19.482 3.7308V0.85311C19.482 0.548307 19.3182 0.266656 19.0523 0.114376C18.7863 -0.0381252 18.4586 -0.0381252 18.1926 0.114376C17.9269 0.266672 17.7629 0.548312 17.7629 0.85311V3.73406C17.7638 3.95974 17.8548 4.17599 18.0159 4.33526C18.177 4.49473 18.395 4.5841 18.6226 4.5841L18.6226 4.58413Z" fill="#10084D"/>
<path d="M23.1006 2.29248H20.5926V3.7808C20.5926 4.53142 20.1902 5.2248 19.5365 5.60003C18.8831 5.97524 18.0781 5.97524 17.4245 5.60003C16.7711 5.22483 16.3684 4.53142 16.3684 3.7808V2.29248H8.84424V3.7808C8.84424 4.53142 8.44184 5.2248 7.78821 5.60003C7.1348 5.97524 6.32978 5.97524 5.67616 5.60003C5.02274 5.22483 4.62013 4.53142 4.62013 3.7808V2.29248H2.11206C1.5521 2.29248 1.01479 2.51383 0.61878 2.90771C0.222563 3.30179 0 3.836 0 4.39315V8.48105H25.2127V4.39315C25.2127 3.836 24.9901 3.3018 24.5941 2.90771C24.1981 2.51384 23.6608 2.29248 23.1006 2.29248Z" fill="#10084D"/>
<path d="M0 23.2083C0 23.7703 0.222548 24.3094 0.61878 24.7067C1.01479 25.104 1.5521 25.3273 2.11206 25.3273H23.1006C23.6608 25.3273 24.1981 25.104 24.5941 24.7067C24.9901 24.3094 25.2127 23.7703 25.2127 23.2083V10.5435H0V23.2083ZM18.8902 15.256C19.3506 15.256 19.7922 15.4397 20.1177 15.7665C20.4431 16.0934 20.6257 16.5366 20.6253 16.9985C20.6249 17.4606 20.4413 17.9034 20.1152 18.2295C19.7891 18.5556 19.3471 18.7383 18.8867 18.7375C18.4261 18.7365 17.985 18.5519 17.6601 18.2245C17.3355 17.897 17.1538 17.4535 17.1552 16.9915C17.1565 16.5306 17.34 16.0893 17.6653 15.764C17.9903 15.4387 18.4309 15.256 18.8902 15.256L18.8902 15.256ZM12.6058 15.256C13.0662 15.256 13.5078 15.4397 13.8332 15.7665C14.1587 16.0934 14.3412 16.5366 14.3408 16.9985C14.3404 17.4606 14.1569 17.9034 13.8308 18.2295C13.5047 18.5556 13.0627 18.7383 12.6023 18.7375C12.1417 18.7365 11.7005 18.5519 11.3757 18.2245C11.0511 17.897 10.8694 17.4535 10.8708 16.9915C10.872 16.5306 11.0556 16.0891 11.3811 15.7636C11.7065 15.4383 12.1473 15.2558 12.6069 15.256L12.6058 15.256ZM6.32139 15.256C6.78175 15.2558 7.22355 15.4391 7.54923 15.7658C7.87491 16.0926 8.05765 16.5358 8.05745 16.9979C8.05724 17.46 7.87388 17.9028 7.54779 18.2291C7.2217 18.5554 6.77969 18.7383 6.3191 18.7375C5.85874 18.7367 5.41736 18.5521 5.09253 18.2245C4.76767 17.8972 4.58596 17.4535 4.58741 16.9915C4.58864 16.5307 4.77221 16.0893 5.09727 15.764C5.42253 15.4387 5.8631 15.256 6.32242 15.256L6.32139 15.256Z" fill="#10084D"/>
</svg>
