<svg width="29" height="25" viewBox="0 0 29 25" fill="none" xmlns="http://www.w3.org/2000/svg">
<path d="M20.3212 14.4273C18.7878 15.8373 16.9404 16.5337 14.8044 16.5306C14.2351 16.5306 13.6658 16.5383 13.0971 16.5263H13.0974C12.9066 16.5131 12.7207 16.5861 12.5951 16.7235C11.3151 18.0095 10.0219 19.2857 8.73678 20.568C8.47246 20.8313 8.17042 21.0044 7.77492 20.9999C7.12316 20.9928 6.62896 20.5135 6.62484 19.8615C6.61515 18.7962 6.61515 17.7308 6.62484 16.6656C6.62484 16.4629 6.5636 16.3956 6.35 16.3432C3.19871 15.5718 1.27689 13.6102 0.342264 10.7023C0.169074 10.1629 0.115462 9.59265 0 9.03673V7.49389C0.0542237 7.0027 0.149069 6.51624 0.283502 6.03921C1.0668 3.36129 2.7284 1.42328 5.49601 0.417476C6.29314 0.134097 7.13782 -0.00719895 7.98836 0.000282248C10.2168 0.000282248 12.4452 0.0079569 14.6728 0.000282248C17.7735 -0.0129028 20.0994 1.30896 21.6966 3.783C23.8712 7.14692 23.2656 11.7151 20.3213 14.4275L20.3212 14.4273Z" fill="#10084D"/>
<path d="M26.8417 10.3827C26.0382 9.66199 25.0465 9.18265 23.9814 9C23.9701 9.07945 23.9616 9.12511 23.9576 9.16896C23.8412 10.5685 23.4956 11.9105 22.8144 13.1417C21.0273 16.3711 18.3183 18.1346 14.5593 18.183C14.1639 18.188 13.7686 18.179 13.3703 18.183C13.0478 18.188 12.9044 18.4302 13.0682 18.6967C13.9826 20.1864 15.2614 21.2024 17.0091 21.5071C17.7541 21.6373 18.5297 21.5984 19.2917 21.6198V21.6196C19.4597 21.6151 19.6209 21.6855 19.7316 21.8117C20.24 22.3535 20.7596 22.8858 21.2753 23.4208C21.6707 23.8342 22.066 24.2532 22.4721 24.6598C22.8901 25.0782 23.46 25.1104 23.8707 24.7578C24.1346 24.5325 24.2137 24.2306 24.2131 23.8983C24.2131 23.2134 24.2232 22.5281 24.2074 21.8432C24.2018 21.5976 24.274 21.5116 24.5181 21.4208C25.1055 21.2028 25.7172 20.9884 26.2283 20.6402C29.6569 18.3035 29.9547 13.1377 26.8418 10.3828L26.8417 10.3827Z" fill="#10084D"/>
</svg>
