<svg width="312" height="326" viewBox="0 0 312 326" fill="none" xmlns="http://www.w3.org/2000/svg">
<path d="M31.698 302.519H144.599C148.574 302.519 152.246 300.301 154.232 296.702C156.219 293.102 156.219 288.666 154.232 285.066C152.246 281.467 148.574 279.249 144.599 279.249H31.698C29.1903 279.246 26.7868 278.204 25.0137 276.35C23.2407 274.496 22.2452 271.982 22.2428 269.358V33.159C22.2452 30.5359 23.2409 28.0218 25.0137 26.1671C26.7866 24.3125 29.19 23.2713 31.698 23.2687H181.071L225.918 70.1794V142.306C225.918 146.461 228.038 150.302 231.48 152.38C234.921 154.46 239.162 154.46 242.603 152.38C246.045 150.302 248.165 146.461 248.165 142.306V65.3922C248.096 64.5689 247.939 63.7586 247.698 62.9717C247.626 62.2782 247.495 61.5926 247.304 60.9251C246.812 59.7901 246.146 58.7435 245.337 57.8293C245.153 57.6033 245.084 57.3202 244.878 57.1073L193.54 3.41011C193.056 2.99975 192.537 2.63872 191.991 2.32709C191.36 1.77128 190.67 1.29339 189.938 0.898654C188.582 0.309091 187.132 0.00259304 185.664 0H31.7021C23.2971 0.00779175 15.238 3.50619 9.29355 9.72123C3.35187 15.9389 0.00762756 24.3692 0 33.161V269.36C0.00744895 278.152 3.35193 286.582 9.29355 292.8C15.2377 299.015 23.2971 302.513 31.7021 302.521L31.698 302.519Z" fill="#10084D"/>
<path d="M233.567 162.929C212.919 162.929 193.115 171.512 178.515 186.789C163.914 202.066 155.711 222.788 155.711 244.393C155.711 265.998 163.914 286.72 178.515 301.998C193.115 317.275 212.919 325.858 233.567 325.858C254.215 325.858 274.019 317.275 288.62 301.998C303.22 286.72 311.423 265.998 311.423 244.393C311.398 222.796 303.188 202.09 288.592 186.818C273.997 171.546 254.207 162.955 233.567 162.929ZM266.934 253.118H241.909V279.303C241.909 284.125 238.175 288.032 233.567 288.032C228.959 288.032 225.225 284.125 225.225 279.303V253.118H200.2C195.593 253.118 191.859 249.211 191.859 244.39C191.859 239.569 195.593 235.662 200.2 235.662H225.225V209.477C225.225 204.655 228.959 200.748 233.567 200.748C238.175 200.748 241.909 204.655 241.909 209.477V235.662H266.934C271.542 235.662 275.276 239.569 275.276 244.39C275.276 249.211 271.542 253.118 266.934 253.118Z" fill="#10084D"/>
</svg>
