<svg width="51" height="51" viewBox="0 0 51 51" fill="none" xmlns="http://www.w3.org/2000/svg">
<g clip-path="url(#clip0_2453_14659)">
<path d="M9.04552 35.5743H3.05149C3.05149 35.5743 0 35.5698 0 40.2193C0.145174 43.2224 2.48797 43.7022 2.90584 43.7022C3.32372 43.7022 15.1108 43.7022 15.1108 43.7022C15.1108 43.7022 18.168 43.7061 18.3029 40.0376C18.308 39.8976 18.3193 40.0337 18.3209 39.893C18.327 39.3514 18.3209 36.5519 18.3209 36.5519C18.3282 36.1535 18.6324 35.7014 19.0426 35.7014H28.5993C28.7398 35.7014 28.8615 35.8151 28.8743 35.9545L31.1317 41.0602C31.9738 43.1481 33.6112 44.6803 36.3467 43.696C38.9363 42.7639 39.0702 40.712 38.613 39.2709L32.9998 22.2555C32.156 20.2401 30.0281 19.0645 27.3648 19.0645H21.6498H14.203C7.07849 19.0645 1.10199 27.3646 9.19399 35.3435C9.25128 35.4714 9.18552 35.5743 9.04552 35.5743Z" fill="#10084D"/>
<path d="M42.1578 24.6832C47.0413 24.6832 51.0001 20.7244 51.0001 15.8409C51.0001 10.9574 47.0413 6.99854 42.1578 6.99854C37.2743 6.99854 33.3154 10.9574 33.3154 15.8409C33.3154 20.7244 37.2743 24.6832 42.1578 24.6832Z" fill="#10084D"/>
</g>
<defs>
<clipPath id="clip0_2453_14659">
<rect width="51" height="51" fill="white"/>
</clipPath>
</defs>
</svg>
