<svg width="44" height="44" viewBox="0 0 44 44" fill="none" xmlns="http://www.w3.org/2000/svg">
<g clip-path="url(#clip0_2453_14666)">
<path d="M43.9865 2.50907C43.9826 2.4694 43.9749 2.43083 43.9693 2.39171C43.9623 2.34235 43.9567 2.29281 43.9468 2.24382C43.9378 2.19812 43.9252 2.1537 43.9139 2.10891C43.9033 2.06724 43.8943 2.02519 43.8817 1.98388C43.8682 1.93928 43.8514 1.8965 43.8358 1.85299C43.8212 1.81223 43.8079 1.7711 43.791 1.73088C43.774 1.68975 43.7541 1.65027 43.7351 1.61023C43.7155 1.56929 43.6976 1.52797 43.6762 1.48794C43.6554 1.44882 43.6315 1.41171 43.6086 1.37369C43.5854 1.33494 43.5636 1.29582 43.5384 1.25798C43.5095 1.21484 43.4775 1.17407 43.4463 1.13257C43.4236 1.1026 43.403 1.0717 43.379 1.04245C43.2638 0.902063 43.1352 0.773554 42.9948 0.658389C42.9672 0.635539 42.9375 0.615979 42.9092 0.594409C42.8664 0.56187 42.824 0.528783 42.7791 0.498804C42.7432 0.474857 42.7059 0.454018 42.669 0.431899C42.629 0.407952 42.5899 0.382908 42.5487 0.360789C42.5111 0.340681 42.4723 0.323681 42.4339 0.3054C42.3913 0.28511 42.3491 0.263905 42.3054 0.245807C42.2685 0.230635 42.2307 0.218387 42.1932 0.204677C42.1464 0.187677 42.1 0.169762 42.0522 0.155321C42.0155 0.14417 41.9782 0.13631 41.9413 0.126621C41.8917 0.114008 41.8426 0.100298 41.7921 0.0902437C41.7508 0.0822005 41.7093 0.0776304 41.6678 0.0712324C41.621 0.0641032 41.5746 0.0555115 41.5269 0.0509415C41.4563 0.0439951 41.3857 0.0416187 41.3148 0.0401563C41.2958 0.0397907 41.2773 0.0372314 41.258 0.0372314H32.6007C31.0864 0.0372314 29.8587 1.26492 29.8587 2.77925C29.8587 4.29357 31.0864 5.52126 32.6007 5.52126H34.6386L30.5076 9.65293C27.3187 7.2533 23.3559 5.8291 19.0667 5.8291C8.55325 5.8291 0 14.3824 0 24.8956C0 35.4088 8.55325 43.9621 19.0667 43.9621C29.5799 43.9621 38.133 35.4088 38.133 24.8956C38.133 20.6453 36.7346 16.7156 34.3744 13.5417L38.5161 9.39975V11.4372C38.5161 12.9516 39.7438 14.1793 41.2582 14.1793C42.7725 14.1793 44.0002 12.9516 44.0002 11.4372V2.78089C44 2.69004 43.9954 2.59937 43.9865 2.50907ZM19.0667 38.4781C11.5771 38.4781 5.48403 32.3851 5.48403 24.8956C5.48403 17.4061 11.5771 11.3129 19.0667 11.3129C26.556 11.3129 32.649 17.4061 32.649 24.8956C32.649 32.3851 26.556 38.4781 19.0667 38.4781Z" fill="#10084D"/>
</g>
<defs>
<clipPath id="clip0_2453_14666">
<rect width="44" height="44" fill="white"/>
</clipPath>
</defs>
</svg>
