<svg width="48" height="48" viewBox="0 0 48 48" fill="none" xmlns="http://www.w3.org/2000/svg">
<g clip-path="url(#clip0_2453_14664)">
<path d="M41.2336 17.2338C41.2336 7.73104 33.5025 0 23.9999 0C14.4973 0 6.76642 7.73104 6.76642 17.2338C6.76642 25.8949 13.1892 33.083 21.5215 34.2885L21.5216 37.51H18.4671C17.0983 37.51 15.9886 38.6197 15.9886 39.9884C15.9886 41.3572 17.0983 42.4668 18.4671 42.4668H21.5216L21.5218 45.5217C21.5218 46.8905 22.6315 48.0002 24.0002 48.0002C25.369 48.0002 26.4787 46.8905 26.4787 45.5216L26.4785 42.4668H29.5331C30.9018 42.4668 32.0115 41.3572 32.0115 39.9884C32.0115 38.6197 30.9018 37.51 29.5331 37.51H26.4785L26.4783 34.2885C34.8108 33.0832 41.2336 25.8949 41.2336 17.2338ZM11.7233 17.2338C11.7233 10.4642 17.2307 4.95685 23.9999 4.95685C30.7691 4.95685 36.2767 10.4642 36.2767 17.2338C36.2767 24.0032 30.7693 29.5106 23.9999 29.5106C17.2305 29.5106 11.7233 24.0032 11.7233 17.2338Z" fill="#10084D"/>
</g>
<defs>
<clipPath id="clip0_2453_14664">
<rect width="48" height="48" fill="white"/>
</clipPath>
</defs>
</svg>
