<svg width="45" height="45" viewBox="0 0 45 45" fill="none" xmlns="http://www.w3.org/2000/svg">
<path d="M2.79185 0.0833927L5.60783 2.89937L8.41854 0.0889285L11.0951 2.76607L13.8605 0L16.75 2.88955L19.6344 0.00455362L22.4549 2.82508L25.2504 0.0296429L28.0458 2.82508L30.8715 0L33.7311 2.85955L36.5265 0.0641071L39.2874 2.825L42.0535 0.0595535L44.8489 2.855L42.1006 5.60785L44.9111 8.41856L42.2339 11.0951L45 13.8605L42.1104 16.7501L44.9954 19.6344L42.1749 22.455L44.9704 25.2504L42.1749 28.0459L45 30.8716L42.1404 33.7311L44.9359 36.5266L42.175 39.2874L44.9404 42.0535L42.145 44.8489L42.2081 44.9166L39.3922 42.1006L36.5814 44.9111L33.9049 42.2339L31.1395 45L28.2499 42.1105L25.3656 44.9954L22.545 42.1749L19.7496 44.9704L16.9542 42.1749L14.1284 45L11.2689 42.1405L8.47345 44.9359L5.71256 42.175L2.9465 44.9404L0.151054 42.145L0.0833926 42.2081L2.89937 39.3922L0.0889286 36.5814L2.76607 33.9049L0 31.1395L2.88955 28.2499L0.00455379 25.3656L2.82509 22.545L0.0296429 19.7496L2.82509 16.9542L0 14.1284L2.85955 11.2689L0.0641072 8.47345L2.825 5.71257L0.0595535 2.9465L2.855 0.151057L2.79185 0.0833927Z" fill="#10084D"/>
</svg>
