<svg width="30" height="30" viewBox="0 0 30 30" fill="none" xmlns="http://www.w3.org/2000/svg">
<g clip-path="url(#clip0_1150_4411)">
<path d="M29.6785 22.7511C28.5618 20.6399 24.6837 18.3508 24.513 18.2507C24.0147 17.9671 23.4947 17.8169 23.008 17.8169C22.2845 17.8169 21.6922 18.1484 21.3335 18.7513C20.7662 19.4298 20.0627 20.2228 19.8919 20.3457C18.5705 21.2423 17.5361 21.1405 16.3915 19.9959L10.0035 13.6074C8.86619 12.4701 8.76163 11.4228 9.65203 10.1086C9.77661 9.93679 10.5697 9.2327 11.2482 8.66487C11.6809 8.40737 11.9779 8.02473 12.108 7.55534C12.281 6.93078 12.1536 6.1961 11.7454 5.48033C11.6492 5.31571 9.35894 1.4371 7.24889 0.320903C6.85514 0.112346 6.41133 0.00222778 5.96641 0.00222778C5.2334 0.00222778 4.54377 0.28809 4.02543 0.805869L2.61392 2.21683C0.381519 4.44867 -0.426571 6.97861 0.21078 9.73602C0.742463 12.034 2.2919 14.4794 4.81684 17.0038L12.9951 25.182C16.1907 28.3777 19.2373 29.9983 22.0503 29.9983C22.0503 29.9983 22.0503 29.9983 22.0509 29.9983C24.1198 29.9983 26.0485 29.1191 27.7821 27.3855L29.193 25.9746C30.0506 25.1175 30.2453 23.8217 29.6785 22.7511Z" fill="#8E57FF"/>
</g>
<defs>
<clipPath id="clip0_1150_4411">
<rect width="30" height="30" fill="white"/>
</clipPath>
</defs>
</svg>
