<svg width="40" height="39" viewBox="0 0 40 39" fill="none" xmlns="http://www.w3.org/2000/svg">
<path fill-rule="evenodd" clip-rule="evenodd" d="M13.499 4.00904C13.0502 4.00904 12.6859 3.64997 12.6859 3.20704C12.6859 2.76441 13.0499 2.40503 13.499 2.40503H30.6277C30.9814 1.17507 32.1286 0.274543 33.4883 0.274543C35.13 0.274543 36.4608 1.58715 36.4608 3.20734C36.4608 4.54993 35.5457 5.68191 34.2974 6.02936V17.5577C34.2974 17.9985 33.9346 18.3564 33.4876 18.3564C33.0407 18.3564 32.6778 17.9985 32.6778 17.5577V6.02936C31.688 5.75354 30.9077 4.98478 30.6271 4.00935L13.499 4.00904ZM13.0259 14.2962C13.0259 10.7483 10.1098 7.87235 6.51297 7.87235C2.91583 7.87235 0 10.7489 0 14.2962C0 17.844 13.0259 17.844 13.0259 14.2962ZM3.26142 3.20711C3.26142 4.97849 4.71731 6.41453 6.51336 6.41453C8.3094 6.41453 9.76529 4.97857 9.76529 3.20711C9.76529 1.43596 8.3094 0 6.51336 0C4.71739 0.000299459 3.26142 1.43627 3.26142 3.20711ZM30.2355 25.2495C30.2355 27.0209 31.6914 28.4569 33.488 28.4569C35.2838 28.4569 36.74 27.021 36.74 25.2495C36.74 23.4783 35.2841 22.0424 33.488 22.0424C31.6915 22.0427 30.2355 23.4787 30.2355 25.2495ZM3.5397 34.9501C3.5397 36.5694 4.87145 37.8829 6.5132 37.8829C7.87442 37.8829 9.02157 36.9803 9.37439 35.7491H22.999C23.4459 35.7491 23.8088 35.3912 23.8088 34.9504C23.8088 34.5096 23.4459 34.1517 22.999 34.1517H9.37516C9.09551 33.1742 8.31453 32.4045 7.32346 32.1281V22.1944C7.32346 21.7536 6.96062 21.3957 6.51367 21.3957C6.06672 21.3957 5.70387 21.7536 5.70387 22.1944V32.1281C4.45505 32.4761 3.5397 33.6075 3.5397 34.9501ZM40 36.3391C40 39.887 26.9739 39.887 26.9739 36.3391C26.9739 32.7912 29.8904 29.9153 33.4875 29.9153C37.0841 29.9153 40 32.7915 40 36.3391Z" fill="#10084D"/>
</svg>
