<svg width="47" height="42" viewBox="0 0 47 42" fill="none" xmlns="http://www.w3.org/2000/svg">
<path d="M45.1633 13.7499H12.4643L9.02221 1.39999C8.86615 0.599914 8.13604 0 7.19709 0H1.82549C0.834515 0 0 0.74985 0 1.75016C0 2.70024 0.782124 3.50032 1.82549 3.50032H5.78891L14.1333 33.25C13.5076 33.4499 12.9339 33.8499 12.4643 34.3002C11.6298 35.1003 11.1085 36.2502 11.1085 37.5002C11.1085 38.7502 11.6301 39.9001 12.4643 40.7001L12.5687 40.75C13.4032 41.5501 14.5506 42 15.8543 42C17.1581 42 18.3575 41.4999 19.192 40.7001C20.0265 39.9 20.6002 38.7501 20.6002 37.5001C20.6002 36.6502 20.3394 35.8002 19.8701 35.1002H33.6381C33.1688 35.8002 32.908 36.6003 32.908 37.5001C32.908 38.7501 33.4297 39.9 34.2639 40.7001C35.1504 41.5002 36.3501 42 37.6539 42C38.9056 42 40.1571 41.4999 40.9916 40.7001C41.8261 39.9 42.3998 38.7501 42.3998 37.5001C42.3998 36.6502 42.1389 35.8002 41.6697 35.1002C42.5562 35.0001 43.2343 34.2503 43.2343 33.3501C43.2343 32.4 42.3998 31.5999 41.4088 31.5999H17.4713L16.2719 27.2501H42.5041C43.3906 27.2501 44.1731 26.6 44.3296 25.8002L46.9372 15.9503C47.198 15.0003 46.6243 14.0503 45.6334 13.8005C45.4769 13.8002 45.3202 13.7503 45.1637 13.7503L45.1633 13.7499Z" fill="#10084D"/>
</svg>
