<svg width="48" height="31" viewBox="0 0 48 31" fill="none" xmlns="http://www.w3.org/2000/svg">
<path d="M47.5707 24.6252L41.4098 19.9508C40.7532 19.4534 39.8444 19.9012 39.8444 20.6965V23.7795H37.0668C32.4208 23.7795 28.0274 21.5419 25.3004 17.8619L23.6339 15.5251L25.3508 13.188C28.0776 9.45844 32.4713 7.27037 37.1172 7.27037H39.8948V10.3533C39.8948 11.1491 40.8036 11.5965 41.4602 11.0991L47.6211 6.4247C48.1263 6.02684 48.1263 5.28107 47.6211 4.88326L41.4602 0.208845C40.8036 -0.288565 39.8948 0.159243 39.8948 0.954605V4.08784H37.1172C31.4614 4.08784 26.0578 6.77291 22.7753 11.3481L21.6643 12.84L20.5533 11.3481C17.2206 6.77327 11.8678 4.08784 6.16095 4.08784H1.61617C0.707355 4.08784 0 4.784 0 5.67927C0 6.57418 0.706976 7.27071 1.61617 7.27071H6.21172C10.8577 7.27071 15.2512 9.50833 17.9781 13.1883L19.695 15.5255L17.9274 17.8623C15.2006 21.5918 10.8068 23.7798 6.16095 23.7798H1.61617C0.707355 23.7798 0 24.476 0 25.3713C0 26.2662 0.706976 26.9627 1.61617 26.9627H6.21172C11.8676 26.9627 17.2711 24.2776 20.5536 19.7024L21.6646 18.2105L22.7756 19.7024C26.0579 24.2769 31.4109 26.9624 37.067 26.9624H39.8446V30.0453C39.8446 30.841 40.7534 31.2885 41.41 30.7911L47.5709 26.1167C48.1264 25.7688 48.1264 25.023 47.5709 24.6251L47.5707 24.6252Z" fill="#10084D"/>
</svg>
