<svg width="25" height="28" viewBox="0 0 25 28" fill="none" xmlns="http://www.w3.org/2000/svg">
<path d="M24.9853 16.6614C24.9263 16.3072 24.7203 16.0118 24.3963 15.8347L18.712 13C17.9463 14.5649 16.9448 16.5137 15.5901 18.8758C14.9422 19.9979 13.7935 20.677 12.4976 20.677C11.2016 20.677 10.0236 19.9979 9.37568 18.8758C8.13868 16.7499 7.19616 14.9782 6.48941 13.502L3.30856 14.0333C2.9552 14.0924 2.66061 14.3287 2.5133 14.6238L0.0978997 20.0868C-0.137745 20.5887 0.0685216 21.2089 0.539599 21.4451L12.2321 27.882C12.3795 27.9705 12.5561 28 12.7328 28C12.7918 28 12.8801 28 12.9391 27.9705L22.9234 25.9037C23.2474 25.8446 23.5124 25.638 23.6597 25.3427C23.807 25.0473 23.807 24.7225 23.6891 24.4274L21.7452 20.0575L24.661 17.5476C24.9262 17.3705 25.0439 17.0162 24.9852 16.6617L24.9853 16.6614Z" fill="#10084D"/>
<path d="M14.2113 17.2915C15.9577 14.1996 19 8.50258 19 6.09781C19 2.71978 16.2957 0 13 0C9.70423 0 7 2.74841 7 6.09781C7 8.50253 10.0423 14.1996 11.7887 17.2915C12.3241 18.2362 13.6764 18.2362 14.2114 17.2915H14.2113ZM10.2113 6.06919C10.2113 4.49458 11.4789 3.23494 13.0001 3.23494C14.5211 3.23494 15.7889 4.52316 15.7889 6.06919C15.7889 7.64379 14.5213 8.90343 13.0001 8.90343C11.4791 8.90323 10.2113 7.64353 10.2113 6.06919Z" fill="#10084D"/>
</svg>
