<svg width="9" height="12" viewBox="0 0 9 12" fill="none" xmlns="http://www.w3.org/2000/svg">
<path d="M8.99259 6.08662C8.96572 6.21979 8.8807 6.3433 8.74986 6.44001L1.58102 11.7729C1.42183 11.9075 1.1918 11.9894 0.945531 11.999C0.699043 12.0087 0.457974 11.9455 0.278999 11.824C0.100018 11.7028 -0.000825902 11.534 6.64765e-06 11.3579C0.000840151 11.1816 0.103353 11.0134 0.283582 10.8929L6.86462 6L0.283581 1.10711C0.103352 0.98658 0.000837791 0.818443 6.17925e-06 0.64212C-0.00082734 0.465946 0.100018 0.297211 0.278999 0.175953C0.45798 0.0545353 0.699048 -0.00870478 0.94553 0.000966424C1.19181 0.0106386 1.42184 0.0924743 1.58102 0.227137L8.74986 5.55999C8.93842 5.70016 9.0278 5.89389 8.99239 6.08657L8.99259 6.08662Z" fill="white"/>
</svg>
