<svg width="22" height="22" viewBox="0 0 22 22" fill="none" xmlns="http://www.w3.org/2000/svg">
<path d="M20.7579 5.9199H15.8309C15.6136 4.59526 15.3146 3.38331 14.9412 2.33776C14.6868 1.62307 14.3967 0.99178 14.0701 0.435992C16.9791 1.27795 19.3853 3.28147 20.7576 5.91998L20.7579 5.9199ZM14.5371 11.0006C14.5371 12.1899 14.4532 13.3117 14.3356 14.3867H7.97305C7.85473 13.3117 7.77155 12.1898 7.77155 11.0006C7.77155 9.81144 7.85412 8.68819 7.97305 7.61317H14.3356C14.454 8.68819 14.5371 9.8114 14.5371 11.0006ZM10.1519 0.626534C10.5417 0.164248 10.8538 0.0130487 11.1117 0C11.1508 0 11.1879 0.00614114 11.2259 0.00690873C11.4775 0.0323946 11.7848 0.18715 12.1568 0.626565C12.5652 1.11003 12.9901 1.89838 13.3496 2.90663C13.6563 3.76576 13.9121 4.78918 14.1101 5.91915L8.19574 5.9193C8.39371 4.78855 8.65155 3.76513 8.95756 2.90678C9.31836 1.89842 9.74331 1.11019 10.1517 0.626561L10.1519 0.626534ZM8.2908 0.343888C7.9409 0.921018 7.63427 1.58469 7.36465 2.3379C6.99203 3.38266 6.69291 4.59525 6.47561 5.92004L1.24293 5.91989C2.67095 3.1742 5.22117 1.12056 8.29069 0.343931L8.2908 0.343888ZM0 11.0006C0 9.81748 0.189683 8.67984 0.533443 7.61311H6.24896C6.13832 8.69089 6.07708 9.82514 6.07708 11.0006C6.07708 12.176 6.13755 13.3081 6.24896 14.3866H0.533443C0.189679 13.3199 0 12.1837 0 11.0006ZM1.24431 16.0821H6.47581C6.69312 17.4081 6.99146 18.6229 7.36484 19.6684C7.63372 20.4216 7.94095 21.0831 8.291 21.6583C5.22258 20.881 2.67331 18.8264 1.24443 16.0819L1.24431 16.0821ZM12.1568 21.3747C11.7875 21.8115 11.4836 21.9655 11.2327 21.9931C11.1914 21.9937 11.1523 22 11.1118 22C10.854 21.9862 10.5418 21.837 10.152 21.3748C9.74361 20.8914 9.31946 20.1085 8.95849 19.0995C8.65248 18.2404 8.39326 17.215 8.19529 16.0821H14.1124C13.9144 17.215 13.6572 18.2412 13.3505 19.0995C12.9902 20.1084 12.5646 20.8911 12.1569 21.3747L12.1568 21.3747ZM14.0722 21.5652C14.3987 21.0109 14.6876 20.3821 14.9419 19.6682C15.3153 18.6221 15.615 17.4074 15.8329 16.0819H20.7572C19.3843 18.7183 16.9799 20.7233 14.0724 21.5651L14.0722 21.5652ZM16.0571 14.3865C16.1677 13.308 16.229 12.1758 16.229 11.0004C16.229 9.82501 16.1677 8.69072 16.0571 7.61294H21.4666C21.8103 8.67968 22 9.81731 22 11.0004C22 12.1835 21.8103 13.3198 21.4666 14.3865H16.0571Z" fill="#10084D"/>
</svg>
