<svg width="25" height="22" viewBox="0 0 25 22" fill="none" xmlns="http://www.w3.org/2000/svg">
<path d="M12.9366 4.94945C12.9366 7.67627 10.841 9.8989 8.27709 9.8989C5.68841 9.8989 3.5929 7.67623 3.5929 4.94945C3.59272 2.22279 5.68837 0 8.25244 0C10.8411 0 12.9366 2.22267 12.9366 4.94945Z" fill="#10084D"/>
<path d="M21.5635 4.28975C21.5635 6.30885 20.1043 7.91935 18.3291 7.91935C16.5539 7.91935 15.0947 6.28489 15.0947 4.28975C15.0947 2.29465 16.5539 0.660156 18.3291 0.660156C20.1287 0.660156 21.5635 2.27066 21.5635 4.28975Z" fill="#10084D"/>
<path d="M23.5892 14.9994C21.8019 15.628 20.0401 15.8607 18.457 15.8375H18.3804H18.3039C17.9209 15.8375 17.5124 15.8375 17.1038 15.7909L16.8995 15.1623V15.1158C16.44 13.9286 15.8783 12.5784 14.9845 11.3911C14.6782 10.9721 14.2185 10.46 13.6567 9.99424C14.3717 8.76043 15.4186 7.52667 16.593 8.03882C17.0015 8.22507 17.6399 8.41132 18.3548 8.43455C19.0952 8.41132 19.7081 8.22507 20.1167 8.03882C21.1125 7.59647 22.1337 8.6674 22.6189 9.31922C23.1806 10.0642 23.5381 10.9255 23.87 11.7636L24.3552 13.2767C24.6105 13.9983 24.253 14.7665 23.5892 14.9994L23.5892 14.9994Z" fill="#10084D"/>
<path d="M15.3564 19.9985C15.0143 20.129 14.6723 20.2378 14.3303 20.3247C13.9394 20.4335 13.5485 20.5423 13.1577 20.6292C12.9379 20.6728 12.7181 20.7162 12.4981 20.7597C12.4248 20.7814 12.3515 20.7814 12.2537 20.8033C11.9606 20.8468 11.6919 20.8902 11.3986 20.9338C11.252 20.9554 11.1055 20.9773 10.9833 20.9773C10.6902 21.0208 10.4215 21.0425 10.1527 21.0642C9.93291 21.0859 9.68854 21.0859 9.46871 21.1078H9.19998C8.90687 21.1078 8.61362 21.1295 8.34485 21.1078H8.27158H8.02721C5.90187 21.1078 3.55658 20.8033 1.16247 19.9767C0.258618 19.6722 -0.205546 18.6499 0.0875227 17.7147L0.747167 15.692C0.820443 15.4527 0.942627 15.1046 1.11354 14.7349C1.13791 14.6696 1.16245 14.6044 1.21119 14.5392C1.23556 14.4739 1.26009 14.4087 1.30883 14.3434C1.35774 14.2565 1.40648 14.1694 1.45538 14.0606C1.47975 14.0171 1.50429 13.9737 1.52866 13.9302C1.55303 13.8649 1.60194 13.7778 1.65084 13.7126C1.74849 13.5386 1.8463 13.3428 1.96848 13.1688C2.01739 13.1036 2.04176 13.0165 2.09066 12.9512C2.11503 12.9077 2.16394 12.8425 2.18831 12.7989C2.23722 12.712 2.31049 12.6249 2.38377 12.5161C2.75014 11.9941 3.1656 11.5155 3.60525 11.1676C3.65416 11.1241 3.72743 11.0807 3.77634 11.0371C3.82525 10.9936 3.89853 10.9502 3.94743 10.9283C4.06962 10.8631 4.1918 10.7979 4.31381 10.7326C4.41145 10.6891 4.50927 10.6674 4.60691 10.6238C4.72909 10.5803 4.85128 10.5803 4.97329 10.5586H5.07093H5.0953C5.19294 10.5586 5.29076 10.5586 5.3884 10.5803C5.48605 10.602 5.58386 10.6238 5.68151 10.6455C5.75478 10.6672 5.80369 10.6891 5.87697 10.7108C6.4388 10.95 7.29389 11.211 8.29555 11.2328C9.29721 11.2111 10.1522 10.95 10.7141 10.7108C10.934 10.6238 11.1538 10.5803 11.3738 10.5803C11.4714 10.5803 11.5936 10.5803 11.6914 10.602C11.7647 10.6237 11.838 10.6237 11.8869 10.6455C11.9601 10.6672 12.0334 10.6891 12.0823 10.7108C12.18 10.7543 12.2778 10.7977 12.3754 10.8413C12.4487 10.8848 12.4976 10.9065 12.5709 10.95C12.7664 11.0805 12.9862 11.2328 13.1572 11.385L13.2794 11.4938C13.6214 11.7983 13.8902 12.1245 14.11 12.3856C14.8673 13.3862 15.3559 14.5171 15.7957 15.6482L15.8446 15.8223L16.4553 17.6928C16.7242 18.6717 16.26 19.694 15.3562 19.9985L15.3564 19.9985Z" fill="#10084D"/>
</svg>
