<svg width="29" height="29" viewBox="0 0 29 29" fill="none" xmlns="http://www.w3.org/2000/svg">
<path d="M26.6353 14.985C25.82 14.9547 25.0866 15.3314 24.6168 15.9281L21.4074 14.4092C21.6095 13.8846 21.7454 13.3279 21.7672 12.7401C21.8183 11.3787 21.3472 10.1192 20.5398 9.14392L25.1869 4.49719C25.4672 4.69138 25.7776 4.82736 26.1019 4.86377C26.2765 4.88333 26.4795 4.91929 26.8036 4.88985C27.9578 4.78601 28.9522 3.78176 28.9983 2.54853C29.0488 1.19521 27.9884 0.0518523 26.6344 0.00173587C25.2804 -0.0488357 24.1381 1.01183 24.0875 2.36555C24.0682 2.88588 24.2377 3.38509 24.5134 3.80334L19.8601 8.45703C18.9817 7.71777 17.8639 7.25096 16.6306 7.20487C14.4962 7.12531 12.6086 8.31969 11.6882 10.1025L4.86211 7.25545C4.94011 6.83424 4.91943 6.38068 4.74096 5.91565C4.48091 5.23865 3.91922 4.70192 3.22695 4.48638C1.59803 3.97865 0.0606633 5.15729 0.00174165 6.73219C-0.0443357 7.96525 0.931598 9.10924 2.01566 9.23042C2.19031 9.24997 2.39327 9.28593 2.71737 9.25649C3.44428 9.19108 4.10778 8.7683 4.5108 8.15651L11.3253 10.9988C11.1961 11.4263 11.1127 11.8747 11.0952 12.3416C11.0455 13.6685 11.5431 14.9461 12.3415 15.9315L3.8042 24.5123C3.44097 24.272 3.0148 24.1183 2.54843 24.1007C1.19444 24.0502 0.0521469 25.1108 0.00156868 26.4645C-0.0445087 27.6976 0.931426 28.8416 2.01549 28.9628C2.19014 28.9823 2.3931 29.0183 2.7172 28.9888C3.87141 28.885 4.86577 27.8808 4.91186 26.6475C4.93186 26.109 4.77115 25.608 4.49109 25.1917L13.0117 16.6294C13.7276 17.2538 14.5829 17.6718 15.4725 17.7714C15.7377 17.8011 16.0389 17.8458 16.4336 17.8496V24.1645C15.3664 24.3992 14.5444 25.3236 14.502 26.4645C14.4559 27.6976 15.4323 28.8416 16.5159 28.9627C16.6905 28.9823 16.8935 29.0183 17.2176 28.9888C18.3718 28.885 19.3662 27.8807 19.4122 26.6475C19.4583 25.4149 18.5797 24.3666 17.3999 24.1493L17.4001 17.7527C18.8768 17.4924 20.1883 16.5713 20.9804 15.2772L24.1796 16.791C24.1304 16.9701 24.0951 17.1553 24.0877 17.349C24.0416 18.5821 25.0175 19.7261 26.1018 19.8473C26.2765 19.8668 26.4794 19.9028 26.8035 19.8733C27.9577 19.7695 28.9521 18.7652 28.9982 17.532C29.0492 16.1787 27.9892 15.0358 26.6352 14.9852L26.6353 14.985Z" fill="#10084D"/>
</svg>
