<svg width="62" height="37" viewBox="0 0 62 37" fill="none" xmlns="http://www.w3.org/2000/svg">
<path d="M62 36.9256C41.3329 36.9256 20.6671 36.9256 0 36.9256C0 24.6166 0 12.3089 0 0C20.6671 0 41.3329 0 62 0C62 12.3089 62 24.6166 62 36.9256ZM2.39767 20.9178C6.68278 22.1291 11.0889 22.5408 15.4276 23.3192C16.2435 21.7861 17.5671 21.0488 19.1589 20.7095C21.0975 20.2953 23.046 20.4226 24.9896 20.6421C27.053 20.8742 29.1126 21.1374 31.1684 21.4193C33.0933 21.6838 34.5379 20.9715 35.3824 19.2524C36.0648 17.864 36.5887 16.3994 37.1064 15.152C33.5948 12.3613 30.2078 9.67051 26.8085 6.9697C26.0974 7.78057 25.1917 8.41679 24.1039 8.79228C23.6748 8.94073 23.2531 9.11912 22.8427 9.31373C18.5114 11.3771 14.0093 11.8324 9.3736 10.6398C7.67702 10.2032 6.03533 9.55324 4.30632 8.98065C2.52616 12.6957 1.93859 16.6776 2.39767 20.9178ZM16.1537 23.4353C17.4548 23.7247 18.6748 23.9617 19.8762 24.2711C24.3359 25.42 28.772 26.665 33.2505 27.7378C37.7352 28.8119 42.2872 29.0265 46.863 28.3104C50.8475 27.6867 54.6411 26.438 58.3224 24.8162C59.4476 24.321 59.6734 23.8681 59.1507 22.7217C58.9137 22.2015 58.4871 21.705 58.0218 21.3694C57.514 21.0027 56.8853 20.7307 56.2703 20.601C53.8976 20.0995 51.5249 19.5394 49.121 19.2462C45.2662 18.7747 41.651 17.7118 38.3577 15.6285C38.1868 15.52 38.0034 15.4314 37.7589 15.2979C37.5543 15.8381 37.3921 16.347 37.1713 16.8286C36.6199 18.0299 36.1421 19.2836 35.446 20.3976C34.6277 21.7062 33.2991 22.2976 31.7535 22.1566C30.0594 22.0007 28.3753 21.7374 26.6862 21.5191C24.3135 21.2122 21.937 20.9266 19.5506 21.347C18.1921 21.5827 16.9471 22.0543 16.1537 23.4353ZM59.3616 25.0433C59.0859 25.158 58.8788 25.2479 58.6692 25.3289C56.8915 26.0213 55.1363 26.7823 53.3312 27.3923C48.0406 29.1799 42.6203 29.8174 37.0578 29.0926C33.6709 28.651 30.3925 27.7453 27.0966 26.8945C23.0198 25.8442 18.9393 24.7938 14.8226 23.9218C11.4756 23.2132 8.07123 22.7766 4.69553 22.199C3.93332 22.068 3.18608 21.8522 2.38145 21.6638C2.11449 24.4769 2.13819 27.1815 2.61598 29.8685C6.90732 29.8685 11.1525 29.8685 15.4576 29.8685C15.4576 28.6161 15.4576 27.4172 15.4576 26.1036C17.3138 26.539 19.1015 26.9058 20.8579 27.3836C24.321 28.3267 27.7403 29.4382 31.2245 30.2865C37.3073 31.766 43.4087 31.6337 49.4852 30.1255C52.8148 29.2984 56.1069 28.3803 59.1595 26.7586C59.545 26.554 59.7508 26.3244 59.6323 25.8903C59.5574 25.6184 59.4601 25.3502 59.3616 25.0433ZM23.1009 8.47666C24.4208 8.1386 25.4761 7.46246 26.3569 6.41457C25.435 5.72471 24.5418 5.05481 23.6548 4.39115C22.3836 5.12342 22.184 6.54805 23.1009 8.47666Z" fill="white"/>
<path d="M2.39751 20.9182C1.93844 16.6768 2.526 12.6948 4.30492 8.98104C6.03393 9.55363 7.67562 10.2036 9.3722 10.6402C14.0079 11.8328 18.51 11.3775 22.8413 9.31412C23.2517 9.11826 23.6734 8.94112 24.1025 8.79267C25.1903 8.41718 26.096 7.78096 26.8071 6.97009C30.2065 9.6709 33.5921 12.3617 37.105 15.1523C36.5873 16.3998 36.0634 17.8656 35.381 19.2528C34.5365 20.9719 33.0931 21.6842 31.167 21.4197C29.1099 21.1378 27.0503 20.8746 24.9882 20.6425C23.0446 20.4242 21.0948 20.2957 19.1575 20.7099C17.5657 21.0505 16.2421 21.7865 15.4262 23.3196C11.0887 22.5412 6.68262 22.1295 2.39751 20.9182ZM30.683 13.7327C31.2281 13.7202 31.6698 13.2761 31.671 12.7397C31.671 12.2208 31.1982 11.7654 30.6605 11.7679C30.1104 11.7704 29.685 12.2108 29.6937 12.7659C29.7025 13.331 30.1266 13.7464 30.683 13.7327ZM34.5914 14.475C34.0574 14.4263 33.5871 14.8355 33.546 15.3844C33.5048 15.9333 33.9003 16.4061 34.4379 16.4485C34.9619 16.4909 35.4596 16.0643 35.4995 15.5391C35.5382 15.0114 35.1228 14.5236 34.5914 14.475ZM27.1613 11.0244C27.7065 11.0319 28.1593 10.6103 28.1805 10.0738C28.2017 9.5474 27.7601 9.09581 27.2125 9.08084C26.6586 9.06587 26.2108 9.48253 26.2008 10.0227C26.1908 10.5604 26.6274 11.0169 27.1613 11.0244Z" fill="#10084D"/>
<path d="M16.1548 23.4357C16.9482 22.0548 18.1932 21.5832 19.5504 21.345C21.9369 20.9258 24.3133 21.2115 26.6861 21.5171C28.3739 21.7354 30.0593 21.9999 31.7533 22.1546C33.299 22.2968 34.6275 21.7042 35.4459 20.3956C36.1432 19.2816 36.6198 18.0279 37.1712 16.8266C37.392 16.345 37.5541 15.8348 37.7587 15.2959C38.0032 15.4306 38.1866 15.5192 38.3575 15.6265C41.6509 17.7098 45.2673 18.7726 49.1208 19.2442C51.5235 19.5373 53.8962 20.0975 56.2702 20.599C56.8852 20.7287 57.5139 21.0019 58.0216 21.3674C58.4869 21.703 58.9136 22.1995 59.1506 22.7197C59.6733 23.8661 59.4488 24.3177 58.3223 24.8142C54.6422 26.4347 50.8486 27.6847 46.8629 28.3084C42.2871 29.0245 37.735 28.8112 33.2503 27.7358C28.7731 26.663 24.3358 25.418 19.876 24.2691C18.676 23.9622 17.4559 23.7252 16.1548 23.4357Z" fill="#10084D"/>
<path d="M59.3608 25.0437C59.4593 25.3506 59.5566 25.6188 59.6315 25.892C59.75 26.3261 59.5441 26.5569 59.1587 26.7603C56.1061 28.382 52.814 29.3014 49.4844 30.1272C43.4067 31.6354 37.3065 31.7677 31.2237 30.2881C27.7395 29.4399 24.3189 28.3283 20.8571 27.3852C19.1007 26.9075 17.313 26.5407 15.4568 26.1053C15.4568 27.4202 15.4568 28.6178 15.4568 29.8702C11.1517 29.8702 6.90651 29.8702 2.61516 29.8702C2.13737 27.1832 2.11367 24.4774 2.38063 21.6655C3.18526 21.8539 3.93251 22.0697 4.69472 22.2007C8.07041 22.7783 11.4748 23.2137 14.8218 23.9235C18.9385 24.7955 23.019 25.8458 27.0958 26.8962C30.3917 27.7458 33.67 28.6527 37.057 29.0943C42.6195 29.8191 48.0398 29.1816 53.3304 27.394C55.1355 26.784 56.8907 26.0242 58.6684 25.3306C58.8767 25.2483 59.0838 25.1585 59.3608 25.0437Z" fill="#10084D"/>
<path d="M23.1012 8.47675C22.1843 6.54689 22.3839 5.12226 23.6563 4.39124C24.5433 5.0549 25.4365 5.72355 26.3584 6.41466C25.4764 7.46254 24.421 8.13993 23.1012 8.47675Z" fill="#10084D"/>
<path d="M30.6834 13.7327C30.127 13.7452 29.7028 13.3311 29.6941 12.7659C29.6854 12.2096 30.1108 11.7704 30.6609 11.768C31.1986 11.7655 31.6714 12.2208 31.6714 12.7397C31.6701 13.2762 31.2285 13.7203 30.6834 13.7327Z" fill="white"/>
<path d="M34.5922 14.4744C35.1248 14.523 35.5403 15.0108 35.5003 15.5397C35.4604 16.0649 34.9627 16.4916 34.4387 16.4491C33.9011 16.4055 33.5056 15.9327 33.5468 15.385C33.5879 14.8349 34.0582 14.4257 34.5922 14.4744Z" fill="white"/>
<path d="M27.1613 11.0241C26.6274 11.0166 26.1907 10.56 26.2007 10.0211C26.2107 9.48094 26.6573 9.06428 27.2124 9.07925C27.7613 9.09422 28.2017 9.54705 28.1805 10.0722C28.158 10.6099 27.7064 11.0316 27.1613 11.0241Z" fill="white"/>
</svg>
