<svg width="55" height="21" viewBox="0 0 55 21" fill="none" xmlns="http://www.w3.org/2000/svg">
<path d="M54.124 14.072C50.6205 14.612 47.143 15.332 43.6265 15.632C39.798 15.95 35.9305 15.98 32.0825 15.944C22.5535 15.86 13.0245 15.674 3.502 15.524C3.2875 15.518 3.0665 15.518 2.826 15.512C0.0179956 10.676 -0.203004 5.77399 2.176 0.661987C9.885 3.25399 17.529 5.97799 25.979 6.07399C25.147 7.80199 24.367 9.40398 23.5675 11.06C24.1525 11.306 24.7115 11.534 25.316 11.786C26.5575 9.22999 27.7795 6.71599 29.0015 4.20199C29.4565 3.25999 29.918 2.32399 30.373 1.38199C30.6395 0.823988 31.01 0.727988 31.5365 1.12399C36.9575 5.13199 43.1325 7.21399 50.0745 7.39399C52.5835 7.45999 54.1955 9.10399 54.163 11.42C54.1565 12.236 54.1435 13.046 54.124 14.072Z" fill="#10084D"/>
<path d="M3.177 20.264C3.19 19.652 3.1965 19.106 3.2095 18.494C3.437 18.5 3.6515 18.5 3.8595 18.506C14.903 18.668 25.94 18.866 36.9835 18.98C42.658 19.04 48.235 18.278 53.734 17C53.825 16.976 53.9225 16.964 54.033 16.946C54.0395 17.06 54.046 17.156 54.046 17.246C54.0395 17.69 54.033 18.128 54.02 18.734C51.4005 19.196 48.7875 19.856 46.129 20.084C41.9235 20.45 37.692 20.7141 33.4735 20.6961C23.613 20.6601 13.746 20.432 3.8855 20.276C3.671 20.27 3.4565 20.27 3.177 20.264Z" fill="#10084D"/>
<path d="M3.2225 19.07C3.2355 18.458 3.242 17.912 3.255 17.3C3.4825 17.306 3.697 17.306 3.905 17.312C14.9485 17.474 25.9855 17.672 37.029 17.786C42.7035 17.846 48.2805 17.084 53.7795 15.806C53.8705 15.782 53.968 15.77 54.0785 15.752C54.085 15.866 54.0915 15.962 54.0915 16.052C54.085 16.496 54.0785 16.934 54.0655 17.54C51.446 18.002 48.833 18.662 46.1745 18.89C41.969 19.256 37.7375 19.52 33.519 19.502C23.6585 19.466 13.7915 19.238 3.931 19.082C3.71 19.076 3.4955 19.076 3.2225 19.07Z" fill="#10084D"/>
</svg>
