<svg width="57" height="26" viewBox="0 0 57 26" fill="none" xmlns="http://www.w3.org/2000/svg">
<path d="M43.7275 10.2463C46.8109 11.2273 49.7541 12.1383 52.6973 13.1194C54.8696 13.8902 56.2711 16.2728 56.2011 18.5853C56.2011 19.3562 55.9208 19.5664 55.22 19.5664C53.4681 19.5664 51.7162 19.5664 49.9643 19.5664C33.7767 19.5664 17.5891 19.5664 1.33145 19.5664C0.700761 19.5664 0.0700762 19.7766 0 18.6554C0 13.68 0.0700758 8.70459 0.770837 3.79926C0.840913 3.30873 0.560609 2.53789 1.40152 2.39774C2.10228 2.25758 2.17236 2.95835 2.45267 3.3788C5.81632 8.42429 14.1554 8.56444 17.7293 3.72918C18.43 2.81819 18.9206 1.76705 18.9906 0.645832C19.0607 -0.125005 19.341 -0.125004 19.8316 0.225377C21.8638 1.55682 24.1062 2.60797 26.3486 3.58903C26.9092 3.86934 27.1195 4.14964 27.0494 4.71025C26.9793 5.69131 26.9793 6.67238 27.0494 7.65345C27.0494 8.42428 27.3998 8.9849 28.1706 8.9849C29.0115 9.05497 29.432 8.49436 29.5721 7.65345C29.5721 7.44322 29.5721 7.30307 29.5721 7.09284C29.6422 4.92048 29.6422 4.92048 31.6043 5.69132C32.4453 6.0417 33.5665 6.11177 33.9869 6.74246C34.4074 7.23299 33.9869 8.35421 33.9869 9.19512C33.9869 9.75573 33.9169 10.3163 34.057 10.877C34.1972 11.5777 34.6176 12.0682 35.4585 11.9982C36.1593 11.9281 36.5798 11.5076 36.5798 10.8069C36.5798 10.6667 36.5798 10.5266 36.5798 10.3864C36.6498 7.65345 36.6498 7.72352 39.2426 8.49436C40.5741 8.91482 41.8355 9.12505 41.1347 11.0872C40.8544 11.858 41.0646 12.8391 41.1347 13.7501C41.2048 14.591 41.6953 15.0815 42.4661 15.0815C43.1669 15.0815 43.6574 14.5209 43.6574 13.7501C43.7275 12.769 43.7275 11.5777 43.7275 10.2463Z" fill="#10084D"/>
<path d="M28.2407 21.5984C37.0703 21.5984 45.8999 21.5984 54.7295 21.5984C55.7807 21.5984 56.2011 21.8086 56.131 22.9999C56.061 25.6628 56.131 25.6628 53.3981 25.6628C36.2995 25.6628 19.2009 25.6628 2.17241 25.7329C0.840962 25.7329 0.490582 25.3124 0.35043 24.1211C0.0701252 21.5984 4.89652e-05 21.5984 2.45271 21.5984C11.0721 21.5984 19.6914 21.5984 28.2407 21.5984Z" fill="#10084D"/>
</svg>
