<svg width="54" height="19" viewBox="0 0 54 19" fill="none" xmlns="http://www.w3.org/2000/svg">
<path d="M53.9933 11.4554C54 10.9658 53.8736 10.7541 53.614 10.7276C52.9752 10.6614 52.3429 10.5424 51.6974 10.549C49.5213 10.5754 47.3519 10.7475 45.1757 10.6681C44.9694 9.43081 44.8031 8.17371 44.4969 6.98939C44.4504 6.81075 44.3971 6.63211 44.3505 6.45347C44.1775 5.54041 43.8714 4.72661 43.6584 3.84664C43.8048 3.29748 43.8581 2.75494 43.5786 2.27195C43.3989 1.74926 43.1394 1.39198 42.8 1.22657C42.3408 0.736965 41.8151 0.670803 41.296 0.617872C40.9167 0.578174 40.5307 0.611255 40.1514 0.611255C40.0648 0.51201 39.965 0.492162 39.8652 0.512011C39.4659 0.425999 39.06 0.247358 38.674 0.617872C38.654 0.60464 38.6341 0.60464 38.6141 0.617872C38.5875 0.498779 38.5675 0.386302 38.5409 0.267208C38.135 -0.129771 37.6957 0.00255306 37.2698 0.115031C36.824 0.227508 36.3781 0.17458 35.9389 0.267208C35.7459 0.306906 35.5396 0.194428 35.3865 0.498778C34.9739 0.33337 34.5547 0.412766 34.1421 0.392917C33.2969 0.359836 32.4518 0.379684 31.6066 0.379684C31.4668 0.379684 31.3271 0.373069 31.194 0.492163C31.0942 0.531861 30.9944 0.564941 30.8945 0.604639C30.3954 0.637721 29.9096 0.816363 29.4371 1.09425C28.978 1.23319 28.5387 1.48461 28.1062 1.78234C27.3276 2.16609 26.5822 2.70201 25.8635 3.35703C25.8635 3.35703 25.8635 3.35703 25.8635 3.35041C25.6372 3.44966 25.4243 3.58198 25.2513 3.85987C25.2047 3.89957 25.1514 3.93265 25.1049 3.97235C24.7522 4.11129 24.446 4.43549 24.1199 4.70014C23.1816 5.47425 22.25 6.28144 21.3183 7.06878C20.9722 7.34667 20.6195 7.62456 20.2735 7.90906C19.8875 8.14063 19.5148 8.4119 19.1488 8.74271C18.8227 8.9809 18.5033 9.21909 18.1772 9.45728C17.2655 9.88072 16.4137 10.5159 15.5752 11.2503C15.4221 11.3429 15.2624 11.4289 15.1094 11.5216C11.5956 11.5216 8.08188 11.4686 4.56815 11.5414C3.1773 11.5745 1.77979 11.6473 0.4089 12.17C0.262495 12.2229 0.109434 12.256 0.00295769 12.4743C0.00295769 14.1879 -0.00369711 15.9016 0.00295769 17.6152C0.00295769 18.2239 0.149363 18.4422 0.482103 18.2901C0.701712 18.1908 0.868081 18.3364 1.04776 18.4489C1.14093 18.5282 1.2341 18.5283 1.32061 18.4555C1.69993 18.6143 2.07926 18.7069 2.45192 18.3695C2.5584 18.2768 2.66488 18.2305 2.78466 18.2504C2.85121 18.3298 2.9111 18.4753 2.98431 18.4819C3.56993 18.5481 4.16221 18.6804 4.74783 18.4356C4.86762 18.3165 4.98075 18.2041 5.14046 18.3099C5.83256 18.7598 6.53132 18.5812 7.22341 18.3231C7.36317 18.2702 7.46964 18.343 7.59608 18.3893C7.98206 18.5349 8.37469 18.7069 8.74071 18.2967C8.86049 18.1644 8.96697 18.2504 9.07345 18.3298C9.3596 18.5282 9.63911 18.5349 9.91861 18.2967C10.0584 18.1776 10.1848 18.2173 10.3179 18.3099C10.6174 18.5084 10.9168 18.601 11.2163 18.257C11.3427 18.1048 11.4825 18.1842 11.6156 18.2901C11.8485 18.4753 12.0814 18.5613 12.301 18.2239C12.3077 18.2107 12.321 18.1908 12.3276 18.1974C12.7402 18.515 13.1661 18.0717 13.5787 18.2901C13.6453 18.3231 13.7252 18.4422 13.7717 18.4092C14.1511 18.1511 14.557 18.4555 14.943 18.257C14.9629 18.2437 14.9962 18.2107 15.0095 18.2239C15.4687 18.5944 15.9545 18.2504 16.427 18.3628C16.7731 18.4489 17.1191 18.5613 17.4518 18.3099C17.5317 18.2504 17.6049 18.2371 17.6848 18.2901C18.317 18.6937 18.9492 18.7069 19.588 18.3628C19.7078 18.2967 19.8076 18.3827 19.9208 18.4621C20.2202 18.6672 20.5197 18.7731 20.8258 18.4687C20.8591 18.4356 20.9057 18.3761 20.919 18.3959C21.3649 18.912 21.8706 18.2834 22.3298 18.601C22.4762 18.7003 22.6426 18.7532 22.7757 18.6606C23.0485 18.4753 23.3014 18.2305 23.5743 18.6407C23.907 18.0783 24.3396 19.0973 24.679 18.4422C24.6989 18.3959 24.8054 18.4092 24.8453 18.4555C25.1182 18.7731 25.3844 18.8789 25.6772 18.4952C25.777 18.3628 25.8968 18.515 26.0033 18.601C26.2229 18.7797 26.4491 18.8458 26.6687 18.5944C26.8285 18.4092 26.9615 18.4687 27.1213 18.6275C27.3475 18.8525 27.5804 18.8921 27.8067 18.6143C27.8267 18.5878 27.8466 18.5415 27.8666 18.5481C28.2859 18.7731 28.7184 18.4886 29.1377 18.6473C29.2242 18.6804 29.3373 18.8392 29.3972 18.7863C29.8231 18.4092 30.2224 18.7929 30.635 18.826C30.808 18.8392 30.9877 18.8326 31.1408 18.6606C31.2339 18.5613 31.3471 18.515 31.4402 18.6143C31.6532 18.8326 31.8462 18.8723 32.0591 18.6076C32.139 18.5084 32.2388 18.5944 32.3253 18.6738C32.3985 18.74 32.485 18.8591 32.5449 18.8392C33.064 18.6275 33.603 18.9054 34.1155 18.6672C34.2086 18.6209 34.2818 18.5944 34.3816 18.6672C34.934 19.0774 35.493 19.1105 36.052 18.6804C36.1452 18.6143 36.225 18.6143 36.3182 18.6804C36.9704 19.1502 37.6225 19.0443 38.2814 18.7334C38.3878 18.687 38.481 18.6341 38.5875 18.6937C39.3062 19.1039 40.0249 19.0509 40.7303 18.6209C40.8302 18.5613 40.91 18.5878 40.9965 18.6672C41.1962 18.8657 41.4158 18.8988 41.6354 18.8061C42.1345 18.7863 42.6469 19.0112 43.1194 18.515C43.2858 18.343 43.4189 18.6473 43.5719 18.6937C43.6252 18.7466 43.6851 18.74 43.7383 18.7466C43.8115 18.7466 43.878 18.7532 43.9313 18.7466C44.457 18.8128 44.9761 18.7995 45.4685 18.4092C45.7214 18.2107 45.8811 18.6275 46.1007 18.5547C46.3936 18.5746 46.6864 18.6275 46.9393 18.3099C46.9592 18.2834 46.9925 18.2504 46.9991 18.2636C47.465 18.8061 47.9508 18.0056 48.4299 18.343C48.6096 18.4753 48.8425 18.3959 49.0355 18.2107C49.1753 18.0386 49.3017 17.9592 49.4747 18.1313C49.7742 18.4224 50.0271 18.0386 50.2866 17.8666C50.4197 18.0519 50.5528 18.0783 50.7325 17.9923C51.012 17.86 51.3048 17.8203 51.591 17.7938C51.7107 17.7806 51.8172 17.774 51.9037 17.6152C52.15 17.6747 52.3962 17.8402 52.6225 17.4763C52.709 17.3373 52.8221 17.463 52.9153 17.5093C53.0484 17.5755 53.1815 17.6681 53.3145 17.5226C53.8203 17.2182 54 16.8014 54 15.9347C54 15.6965 54 15.4583 53.9933 15.2201C53.9867 13.963 53.9734 12.7125 53.9933 11.4554ZM11.2895 12.1303C11.2895 12.1237 11.2895 12.1104 11.2895 12.1038C11.4292 12.117 11.5623 12.1237 11.7021 12.1303C11.5623 12.1303 11.4292 12.1303 11.2895 12.1303ZM36.2516 10.7607C34.4349 10.8335 32.6181 10.979 30.8014 10.979C30.4553 10.979 30.1026 10.9923 29.7965 11.3562C29.7765 11.4157 29.7699 11.4686 29.7632 11.5083C29.111 11.4223 28.4522 11.3959 27.8001 11.3892C27.1945 11.3032 26.5889 11.2371 25.9833 11.3297C25.3844 11.4223 24.8054 11.0253 24.2131 11.1378C23.7539 11.2437 23.2948 11.2172 22.8356 11.3231C22.6958 11.3562 22.5627 11.3165 22.4363 11.2569C22.4895 11.2371 22.5428 11.2172 22.5893 11.1908C22.6359 11.2371 22.6892 11.2834 22.7424 11.3165C22.8622 11.3363 22.982 11.2966 23.0951 11.2305C23.135 11.1444 23.1683 11.0518 23.2082 10.9658C23.5144 10.8666 23.8205 10.7673 24.1199 10.6681C24.812 10.6945 25.4908 10.5159 26.1563 10.1983C27.2544 9.84764 28.2792 9.13969 29.2907 8.3722C30.0627 7.87598 30.8014 7.26066 31.5334 6.59903C31.6465 6.60564 31.733 6.5064 31.8196 6.3873C32.0724 6.16235 32.3253 5.93739 32.5782 5.71244C32.6048 5.68597 32.6314 5.66612 32.6514 5.63966C32.9442 5.4544 33.2237 5.2096 33.4966 4.93171C34.568 4.11791 35.6328 3.2644 36.7774 2.76818C37.4295 2.5763 38.0817 2.37781 38.7339 2.18594C39.2929 2.18594 39.8519 2.17932 40.4109 2.17932C40.6971 2.25872 40.9632 2.4109 41.1762 2.74833C41.1695 2.77479 41.1629 2.80126 41.1562 2.82772C41.1096 3.12546 41.2361 3.31071 41.3093 3.52244C41.9082 5.17652 42.4872 6.84383 42.8865 8.67655C43.0063 9.22571 43.1127 9.78809 43.1793 10.3637C42.8399 10.4828 42.4939 10.4828 42.1411 10.5027C40.1846 10.6019 38.2215 10.6813 36.2516 10.7607ZM43.8514 14.1218C43.8514 14.1152 43.8514 14.1086 43.8514 14.1019C43.8514 14.1086 43.8514 14.1086 43.8514 14.1218C43.8514 14.1152 43.8514 14.1152 43.8514 14.1218Z" fill="#10084D"/>
</svg>
