<svg width="59" height="26" viewBox="0 0 59 26" fill="none" xmlns="http://www.w3.org/2000/svg">
<path d="M58.16 17.4408C58.088 17.3112 58.0232 17.2608 57.9008 17.34C57.7784 17.4264 57.6416 17.4912 57.512 17.556C57.404 17.6136 57.296 17.5992 57.2528 17.4408C57.2024 17.2752 57.2816 17.1888 57.3824 17.124C57.4904 17.0592 57.62 17.0304 57.7208 16.908C57.6056 16.7208 57.4976 16.7064 57.3392 16.7928C55.9064 17.5488 54.4232 17.9232 52.8824 17.8944C51.4496 17.8656 50.0456 17.5632 48.6416 17.232C46.1288 16.6344 43.6016 16.2096 41.0528 16.0152C39.5192 15.9 37.9928 15.6192 36.5168 15.0144C35.444 14.568 34.3568 14.1792 33.2552 13.8552C32.4416 13.6176 31.6208 13.416 30.8288 13.056C30.1952 12.768 29.6984 12.2712 29.396 11.472C29.3744 11.4072 29.3672 11.3136 29.2808 11.3136C29.2232 11.436 29.1152 11.5584 29.144 11.7024C29.2016 12.0264 29.0792 12.12 28.856 12.1128C28.9424 12.3504 29.0072 12.5664 29.1512 12.7248C29.2664 12.4008 29.3528 12.372 29.5328 12.5952C29.6552 12.7392 29.792 12.8544 29.9432 12.9552C30.152 13.0992 30.1592 13.1712 30.0296 13.4304C29.7776 13.4448 29.6048 13.236 29.4032 13.0776C29.3888 13.5096 29.2952 13.6176 28.9712 13.56C25.4504 12.984 21.9656 12.1416 18.488 11.2128C17.5592 10.968 16.6376 10.7088 15.7088 10.464C15.6656 10.4424 15.6296 10.4208 15.5864 10.4136C13.7576 9.87363 11.9288 9.34803 10.1072 8.80083C7.88961 8.13123 5.67921 7.44723 3.46161 6.75603C3.27441 6.69843 3.20241 6.74163 3.17361 7.00803C3.00801 8.50563 2.82801 10.0032 2.64801 11.5008C2.59041 11.9976 2.59041 11.9976 2.20881 12.0264C1.95681 12.0552 1.66161 12.0912 1.50321 12.3288C1.33041 12.588 1.10721 12.804 0.963206 13.0776C0.560006 13.8552 0.524006 14.748 0.660806 15.6552C0.740006 16.1808 0.833606 16.7136 1.07841 17.16C1.28001 17.88 1.62561 18.4776 2.00721 19.0392C2.14401 19.2408 2.27361 19.464 2.47521 19.572C3.01521 20.3064 3.72081 20.6232 4.43361 20.9184C5.71521 21.4512 7.03281 21.588 8.36481 21.6312C9.38721 21.6672 10.4096 21.6888 11.4248 21.7176C11.7632 21.8112 12.1088 21.7464 12.4472 21.7752C13.5848 21.876 14.7224 21.9696 15.86 22.1064C17.4368 22.2864 19.0064 22.5312 20.576 22.74C21.512 22.8624 22.448 22.992 23.384 23.0568C23.6 23.0496 23.8016 23.1576 24.0176 23.1144C24.4208 23.136 24.824 23.1504 25.2272 23.172C26.5304 23.2584 27.8336 23.3304 29.1368 23.4384C31.7216 23.6544 34.3064 23.8344 36.8984 23.8776C38.1944 23.8992 39.4904 23.9064 40.7936 23.9136C40.844 23.9208 40.8872 23.9208 40.9376 23.9208C41.2544 23.9208 41.5784 23.9208 41.8952 23.9136C42.5432 23.9136 43.1912 23.9208 43.8392 23.9208C44.6384 23.928 45.4376 23.928 46.2368 23.928C47.4752 23.9568 48.7136 23.9856 49.952 23.9568C52.2416 23.8992 54.4952 23.532 56.7056 22.7184C57.332 22.488 57.728 22.0488 58.0088 21.3216C58.232 20.7384 58.3904 20.1336 58.5128 19.5072C58.5128 19.1904 58.5128 18.8736 58.5128 18.564C58.4336 18.1752 58.3472 17.7792 58.16 17.4408ZM0.862406 14.5536C0.826406 14.4096 0.840806 14.2656 0.833606 14.0496C0.848006 13.9272 0.862406 13.7472 0.876806 13.56C0.891206 13.416 0.963206 13.3584 1.06401 13.3728C1.16481 13.3872 1.21521 13.4664 1.21521 13.5888C1.20801 13.9056 1.19361 14.2152 1.17921 14.532C1.17201 14.64 1.12161 14.712 1.03521 14.7264C0.948806 14.7336 0.891206 14.6688 0.862406 14.5536ZM1.39521 16.5552C1.28001 16.6272 1.20801 16.5336 1.16481 16.4112C1.05681 16.1376 0.992006 15.8496 0.963206 15.5472C0.948806 15.396 0.977606 15.2664 1.05681 15.2664C1.22241 15.2592 1.26561 15.3384 1.29441 15.4536C1.35921 15.7128 1.41681 15.9792 1.48161 16.2384C1.51761 16.368 1.51041 16.4904 1.39521 16.5552ZM2.12961 18.1896C2.06481 18.2328 1.99281 18.2112 1.94241 18.1464C1.76241 17.8944 1.62561 17.5992 1.51041 17.2896C1.48161 17.2104 1.50321 17.1168 1.55361 17.0448C1.60401 16.9872 1.66881 16.9512 1.71201 17.0088C1.94241 17.268 2.06481 17.6352 2.20881 17.916C2.22321 18.0744 2.19441 18.1464 2.12961 18.1896ZM3.08721 19.6152C3.02241 19.6944 2.94321 19.68 2.88561 19.6152C2.69121 19.4064 2.52561 19.1544 2.38161 18.8808C2.29521 18.7152 2.38161 18.5136 2.52561 18.5136C2.54001 18.5208 2.56161 18.5136 2.58321 18.5352C2.80641 18.7656 2.97921 19.0536 3.14481 19.356C3.18801 19.4352 3.15201 19.5432 3.08721 19.6152ZM31.4624 13.9056C31.4336 14.0352 31.3544 14.0856 31.2176 14.064C31.0232 13.9776 30.7856 13.884 30.5552 13.776C30.4616 13.7328 30.4112 13.6248 30.4472 13.4952C30.4832 13.3584 30.5624 13.2936 30.6776 13.3368C30.8936 13.4304 31.1168 13.5168 31.3328 13.6176C31.4408 13.6608 31.4984 13.7616 31.4624 13.9056ZM32.852 14.3736C32.8232 14.5104 32.7368 14.5392 32.6504 14.5392C32.4056 14.46 32.1752 14.3952 31.9448 14.3088C31.8296 14.2728 31.7936 14.1576 31.8224 14.0136C31.8512 13.884 31.9232 13.8264 32.0312 13.8552C32.2616 13.9272 32.492 13.9992 32.7224 14.0712C32.8448 14.1144 32.8808 14.2296 32.852 14.3736ZM34.256 14.7768C34.2344 14.8992 34.1696 14.9496 34.0544 14.9496C33.824 14.8776 33.5792 14.8056 33.3344 14.7264C33.2336 14.6904 33.1904 14.5896 33.2192 14.4528C33.248 14.3232 33.32 14.2584 33.4208 14.2872C33.6512 14.352 33.8816 14.4168 34.112 14.496C34.2344 14.5248 34.2848 14.6256 34.256 14.7768ZM35.6384 15.288C35.6096 15.4104 35.5376 15.4536 35.4008 15.432C35.2064 15.36 34.9616 15.2736 34.724 15.1728C34.6448 15.1368 34.5944 15.0432 34.616 14.9136C34.6448 14.7912 34.7096 14.6976 34.8104 14.7336C35.0552 14.8128 35.2928 14.9064 35.5376 15.0072C35.6384 15.0432 35.6672 15.1584 35.6384 15.288ZM37.0208 15.8064C36.9992 15.9288 36.9344 15.9792 36.776 15.9648C36.5888 15.8928 36.3368 15.7992 36.092 15.6912C36.0056 15.6552 35.9696 15.5472 35.9984 15.4248C36.0272 15.3096 36.092 15.2232 36.1784 15.2592C36.4304 15.3456 36.6752 15.4392 36.9272 15.54C37.0208 15.576 37.0424 15.6912 37.0208 15.8064ZM38.4176 16.2384C38.4032 16.3824 38.324 16.4256 38.216 16.4328C37.9928 16.3608 37.7552 16.2888 37.5176 16.2168C37.4168 16.1808 37.3664 16.08 37.388 15.9504C37.4096 15.7992 37.496 15.7416 37.604 15.7704C37.8344 15.8352 38.0648 15.9 38.2952 15.972C38.3888 16.0008 38.432 16.1016 38.4176 16.2384ZM39.8432 16.512C39.8288 16.6848 39.728 16.728 39.6128 16.7064C39.3968 16.6776 39.188 16.6344 38.972 16.5984C38.8568 16.5768 38.7704 16.4976 38.7848 16.3248C38.7992 16.152 38.8928 16.1088 39.0152 16.1304C39.2312 16.1664 39.44 16.2096 39.656 16.2456C39.7784 16.2672 39.8576 16.3464 39.8432 16.512ZM40.9952 16.872C40.952 16.8648 40.9088 16.8648 40.8584 16.8576V16.8648C40.7 16.8432 40.5488 16.8288 40.3904 16.8072C40.2824 16.7928 40.2032 16.7208 40.2104 16.5696C40.2176 16.404 40.304 16.332 40.4264 16.3392C40.628 16.3608 40.8296 16.3824 41.0312 16.404C41.1536 16.4184 41.2832 16.4472 41.2688 16.6632C41.2544 16.8792 41.1248 16.8864 40.9952 16.872ZM42.5 17.0016C42.3992 17.0016 42.2912 16.98 42.1904 16.9728V16.98C42.0608 16.9656 41.9384 16.9584 41.8088 16.944C41.708 16.9296 41.6432 16.8504 41.6432 16.7136C41.6504 16.5624 41.7152 16.4832 41.8376 16.4904C42.068 16.5048 42.2984 16.5192 42.5288 16.5408C42.6368 16.5552 42.7088 16.6272 42.7016 16.7928C42.6944 16.9512 42.608 17.0088 42.5 17.0016ZM43.9328 17.1456C43.7168 17.1312 43.5008 17.1096 43.2848 17.0808C43.1768 17.0664 43.0688 17.0088 43.076 16.836C43.0832 16.6488 43.184 16.5984 43.3136 16.6128C43.364 16.62 43.4144 16.62 43.4864 16.62C43.6376 16.6416 43.796 16.656 43.9616 16.6776C44.0768 16.692 44.1488 16.7784 44.1416 16.9296C44.1272 17.0808 44.048 17.1528 43.9328 17.1456ZM45.56 17.16C45.5456 17.3112 45.4664 17.3832 45.3512 17.3688C45.128 17.34 44.9048 17.304 44.6888 17.2536C44.5736 17.232 44.48 17.1528 44.5088 16.98C44.5304 16.8144 44.6312 16.7712 44.7464 16.7856C44.9624 16.8216 45.1712 16.8648 45.3872 16.9008C45.5024 16.9224 45.5744 17.0088 45.56 17.16ZM46.9784 17.484C46.9568 17.6352 46.856 17.6712 46.7192 17.6496C46.5392 17.6136 46.3232 17.5632 46.1144 17.52C45.992 17.4912 45.9128 17.4192 45.9416 17.2464C45.9632 17.0808 46.0568 17.0304 46.1792 17.0592C46.3952 17.1096 46.604 17.1528 46.82 17.2032C46.9352 17.2248 47 17.3184 46.9784 17.484ZM48.188 17.9736C47.9576 17.9232 47.7344 17.8728 47.504 17.8152C47.3888 17.7864 47.3312 17.6928 47.3528 17.5416C47.3744 17.3904 47.4608 17.34 47.5688 17.3544C47.792 17.4048 48.0224 17.4552 48.2456 17.5128C48.3464 17.5416 48.404 17.6352 48.3896 17.7648C48.3824 17.9304 48.3032 17.9952 48.188 17.9736ZM49.808 18.1176C49.7864 18.276 49.7072 18.3264 49.592 18.3048C49.3688 18.2544 49.1528 18.204 48.9296 18.1536C48.8216 18.1248 48.7424 18.0456 48.764 17.8944C48.7856 17.7288 48.872 17.6712 48.9944 17.6928C49.2176 17.7432 49.4336 17.7936 49.6568 17.8512C49.772 17.8728 49.8296 17.9664 49.808 18.1176ZM51.2264 18.3768C51.2048 18.6 51.0752 18.5856 50.9168 18.5712C50.7584 18.5424 50.564 18.4992 50.3624 18.4632C50.24 18.4416 50.168 18.3552 50.1896 18.1896C50.2112 18.0168 50.312 17.9808 50.4272 18.0024C50.6216 18.0384 50.8088 18.0672 51.0032 18.1032C51.1256 18.1248 51.248 18.1536 51.2264 18.3768ZM52.4576 18.7296C52.3568 18.7296 52.2488 18.7152 52.148 18.7152C52.148 18.7152 52.148 18.7152 52.148 18.708C52.0256 18.7008 51.896 18.6936 51.7736 18.6792C51.6728 18.6648 51.608 18.5856 51.608 18.4416C51.6152 18.2904 51.68 18.204 51.7952 18.2112C52.0256 18.2256 52.256 18.24 52.4864 18.2616C52.5944 18.276 52.6664 18.348 52.6592 18.5064C52.652 18.672 52.5656 18.7296 52.4576 18.7296ZM53.9192 18.6936C53.6888 18.7152 53.4584 18.7296 53.2352 18.744C53.1272 18.7512 53.048 18.672 53.048 18.5136C53.048 18.3552 53.12 18.2832 53.228 18.276C53.3432 18.2688 53.4656 18.276 53.5808 18.276C53.5808 18.2688 53.5808 18.2688 53.5808 18.2616C53.6816 18.2544 53.7896 18.2328 53.8904 18.2328C53.9984 18.2328 54.0776 18.2904 54.092 18.4488C54.1064 18.6 54.0272 18.6792 53.9192 18.6936ZM55.3664 18.4344C55.1432 18.492 54.9128 18.5424 54.6896 18.5928C54.5816 18.5928 54.4952 18.5496 54.4808 18.384C54.4664 18.2256 54.5312 18.1464 54.6392 18.1248C54.8552 18.0744 55.0784 18.024 55.2944 17.9808C55.4024 17.9592 55.4888 18.0096 55.5176 18.1608C55.5392 18.312 55.4744 18.4056 55.3664 18.4344ZM56.8136 17.8944C56.5688 18.0168 56.324 18.1176 56.108 18.2112C55.9784 18.2112 55.9064 18.1608 55.8848 18.0456C55.856 17.9088 55.892 17.808 55.9928 17.7648C56.216 17.664 56.4464 17.5704 56.6768 17.484C56.7776 17.4408 56.8568 17.5128 56.8928 17.628C56.9288 17.736 56.9 17.8512 56.8136 17.8944Z" fill="#10084D"/>
<path d="M29.252 9.26877C29.3528 9.96717 29.4536 10.6584 29.7272 11.2848C29.9576 11.8176 30.26 12.2568 30.6992 12.4944C30.9728 12.6384 31.2608 12.7536 31.5488 12.8472C31.6424 12.8832 31.736 12.912 31.8224 12.948C31.9088 12.9696 31.9952 12.9984 32.0816 13.02C32.1896 13.056 32.2976 13.092 32.4056 13.1208C33.4568 13.4304 34.508 13.704 35.5304 14.1432C37.5896 15.0288 39.692 15.4968 41.852 15.6264C43.2128 15.7128 44.5736 15.9216 45.9272 16.1736C47.7344 16.512 49.5272 17.016 51.3416 17.2896C52.904 17.5272 54.452 17.4768 55.9784 16.9008C56.324 16.7712 56.6696 16.6488 57.044 16.4184C56.936 16.3608 56.8712 16.3248 56.7992 16.296C56.396 16.1232 55.9712 16.0296 55.5536 15.9576C52.8968 15.5184 50.2472 15.0576 47.612 14.4168C44.7176 13.7112 41.9024 12.7176 39.3392 10.6944C37.9136 9.57117 36.5168 8.41197 35.264 6.96477C33.9824 5.48157 32.8304 3.83277 31.6424 2.21997C31.232 1.66557 30.8576 1.06077 30.3968 0.578369C30.3104 0.578369 30.2168 0.578369 30.1304 0.578369C30.008 0.671969 29.9072 0.801569 29.8064 0.931169C28.9352 2.07597 28.5104 3.41517 28.6832 5.06397C28.8272 6.48957 29.0504 7.87917 29.252 9.26877Z" fill="#10084D"/>
<path d="M49.952 24.4392C48.5264 24.468 47.1008 24.4104 45.6824 24.4104C45.668 24.4032 45.6536 24.396 45.6392 24.396C45.6176 24.396 45.596 24.396 45.5672 24.396C45.2936 24.36 45.02 24.3744 44.7392 24.3744C41.9096 24.36 39.08 24.4248 36.2504 24.3312C34.6808 24.2808 33.1184 24.216 31.556 24.108C31.0664 24.072 31.0664 24.0648 31.0736 24.7128C31.0808 25.044 31.16 25.3104 31.412 25.4328C31.412 25.4472 31.412 25.4688 31.412 25.4832C34.3568 25.4832 37.3016 25.4832 40.2464 25.4832C40.2464 25.4616 40.2392 25.4472 40.2392 25.4256C40.3112 25.3176 40.2824 25.1808 40.2824 25.0584C40.2824 24.9 40.2968 24.7992 40.448 24.8064C40.5848 24.8136 40.6784 24.8352 40.664 25.0656C40.6568 25.2096 40.6496 25.3608 40.7288 25.4832C41.1536 25.4832 41.5784 25.4832 41.996 25.4832C42.0176 25.4112 42.0536 25.3392 42.0392 25.2528C42.0464 25.1736 42.0536 25.0944 42.0536 25.0224C42.0392 24.7992 42.1472 24.8136 42.2696 24.8064C42.4064 24.7992 42.4568 24.864 42.4496 25.044C42.4424 25.1736 42.4136 25.3176 42.5 25.4328C43.2992 25.4328 44.0984 25.4184 44.8904 25.4328C45.6896 25.4544 46.4888 25.3824 47.2808 25.4256C47.6768 25.4472 48.0728 25.4328 48.4688 25.4328C49.4048 25.4328 50.348 25.44 51.284 25.44C51.7736 25.4544 52.2488 25.368 52.7312 25.2816C52.9832 25.2384 53.0984 25.1088 53.0552 24.7776C53.0192 24.4896 53.1848 24.4896 53.3216 24.4752C53.5088 24.4536 53.4152 24.648 53.4224 24.7416C53.444 25.0512 53.4656 25.0872 53.6888 25.0224C53.8256 24.9792 53.9624 24.936 54.0992 24.8928C54.5024 24.756 54.5096 24.756 54.5456 24.2088C54.5672 23.9424 54.7328 23.9784 54.848 23.9496C54.9848 23.9208 54.92 24.0936 54.9272 24.1872C54.9416 24.4968 54.9776 24.5472 55.1936 24.4392C55.6328 24.2304 56.0504 23.9784 56.432 23.6328C56.5832 23.496 56.7488 23.3736 56.8784 23.1504C56.828 23.1648 56.8064 23.1648 56.7848 23.172C54.56 24.0288 52.2704 24.3816 49.952 24.4392Z" fill="#10084D"/>
<path d="M3.5408 6.288C6.428 7.1664 9.308 8.052 12.1952 8.9304C13.1528 9.2184 14.1176 9.4848 15.0824 9.7584C15.1328 9.78 15.1832 9.8016 15.2336 9.816C17.3144 10.4136 19.4024 10.9824 21.5048 11.5008C23.8736 12.084 26.2496 12.6096 28.64 13.02C28.7048 13.0344 28.784 13.0992 28.856 12.9912C28.712 12.7248 28.568 12.4584 28.5176 12.1416C28.4816 11.9184 28.3808 11.8464 28.2224 11.8248C27.1496 11.6592 26.0768 11.436 25.0112 11.2056C22.8584 10.7376 20.7056 10.212 18.5672 9.6288C17.0768 9.2184 15.5936 8.808 14.1032 8.3976C14.0384 8.3688 13.9736 8.34 13.9088 8.3184C11.6624 7.6416 9.416 6.9648 7.1696 6.288C6.1544 5.9784 5.1392 5.6616 4.1168 5.352C3.7568 5.244 3.4688 5.4168 3.3536 5.7984C3.2456 6.1368 3.2744 6.2088 3.5408 6.288Z" fill="#10084D"/>
<path d="M16.688 22.6535C15.1688 22.4591 13.6496 22.2863 12.1232 22.2287C11.936 22.2143 11.756 22.1927 11.5688 22.1855C10.2656 22.1423 8.96241 22.1063 7.65921 22.0559C6.79521 22.0199 5.93841 21.8831 5.08881 21.6311C4.50561 21.4583 3.94401 21.2063 3.38241 20.9255C3.16641 20.7671 2.95041 20.6231 2.74161 20.4503C2.00721 19.8383 1.45281 19.0103 1.01361 18.0383C0.675208 17.2823 0.430407 16.4759 0.286407 15.6191C0.286407 15.9719 0.286407 16.3319 0.286407 16.6847C0.351207 17.0879 0.322407 17.5127 0.401607 17.9159C0.531207 18.5423 0.725607 19.1399 0.941607 19.7303C1.33761 20.8391 1.79121 21.9191 2.15841 23.0495C2.27361 23.4095 2.33841 23.8055 2.55441 24.1007C2.90001 24.5831 3.31041 24.9215 3.77841 25.1591C4.25361 25.4039 4.75761 25.4183 5.26161 25.4831C5.85921 25.4831 6.45681 25.4831 7.05441 25.4831C7.14081 25.4903 7.23441 25.4903 7.32081 25.4903C9.63921 25.4903 11.9576 25.4975 14.276 25.4903C15.0248 25.4903 15.7664 25.4831 16.5152 25.4759C16.5152 25.4615 16.5152 25.4543 16.5152 25.4399C16.7456 25.3319 16.8608 25.1159 16.8608 24.7919C16.8608 24.1655 16.8608 23.5319 16.8608 22.9055C16.868 22.7255 16.8104 22.6679 16.688 22.6535Z" fill="#10084D"/>
<path d="M28.8992 24.0576C28.8992 23.9136 28.8416 23.8776 28.748 23.8704C27.6464 23.7768 26.5376 23.6904 25.4288 23.6616C24.0536 23.5896 22.6784 23.4888 21.3032 23.2944C20.3096 23.1576 19.316 23.028 18.3224 22.8768C18.1136 22.848 18.0272 22.8912 18.0416 23.2008C18.0632 23.6616 18.056 24.1224 18.0416 24.5904C18.0344 24.9936 18.128 25.3032 18.4232 25.4688C18.5024 25.476 18.5888 25.4832 18.668 25.4832C20.2664 25.4832 21.8648 25.4832 23.456 25.4832C25.1408 25.4832 26.8256 25.476 28.5176 25.4688C28.5176 25.4544 28.5176 25.44 28.5176 25.4256C28.748 25.368 28.8632 25.1592 28.8848 24.8712C28.9064 24.612 28.892 24.3312 28.8992 24.0576Z" fill="#10084D"/>
</svg>
