<svg width="48" height="36" viewBox="0 0 48 36" fill="none" xmlns="http://www.w3.org/2000/svg">
<path d="M3.49016 35.3867C3.40033 35.2878 3.33808 35.1488 3.31787 35.0344L3.13924 31.7887L3.13931 31.7887L3.13875 31.7809C3.07878 30.9333 3.0188 30.0706 2.9588 29.2074L2.95872 29.2064C2.89875 28.3437 2.83875 27.4807 2.77875 26.6327L2.77895 26.6327L2.77756 26.6187C2.71833 26.0207 2.67378 25.4066 2.62869 24.7846L2.62844 24.7811C2.58369 24.1637 2.53837 23.5385 2.47788 22.9273C2.35813 21.5371 2.23846 20.1479 2.1188 18.6986C2.05917 17.6752 1.99959 16.6526 1.94001 15.5706C1.94004 15.5095 1.93942 15.3849 1.91708 15.2609C1.90481 15.1928 1.88214 15.1008 1.83489 15.008C1.80238 14.9442 1.7514 14.8671 1.6737 14.7999C1.12271 14.0724 0.796682 13.2371 0.516979 12.2991C0.676097 11.5831 0.679924 10.9247 0.679999 10.3189C0.795103 9.87825 0.896627 9.43903 0.996316 9.00776L0.997155 9.00413C1.10244 8.54865 1.20573 8.10196 1.32342 7.65646L1.32357 7.6565L1.32644 7.64441C1.68842 6.12192 1.98981 4.60089 2.28905 3.09055C2.31656 2.97027 2.34427 2.85058 2.37192 2.73117C2.52202 2.08283 2.67028 1.44249 2.77429 0.759992C2.78984 0.657987 2.82556 0.603794 2.85448 0.573823C2.88556 0.541615 2.92764 0.518155 2.97912 0.50692C3.03246 0.495277 3.08679 0.499012 3.12986 0.512976C3.17295 0.526946 3.18885 0.545259 3.19185 0.549497L3.21571 0.583224L3.24479 0.612575C3.59651 0.967625 3.94968 1.35373 4.31101 1.74888L4.31463 1.75283C4.66878 2.14013 5.03088 2.53611 5.39445 2.90369C5.88091 3.45532 6.36627 3.94527 6.84053 4.42401L6.84479 4.42831C7.55629 5.14654 8.26972 5.9266 8.92984 6.65355L8.92975 6.65363L8.93768 6.66198C10.271 8.06397 11.5529 9.4662 12.8831 10.9211C12.9854 11.0331 13.088 11.1453 13.191 11.2579C13.4139 11.5017 13.6409 11.756 13.8721 12.015C14.3673 12.57 14.8819 13.1466 15.4177 13.688C16.1372 14.4746 16.8563 15.246 17.5736 16.0153L17.5743 16.016C18.2946 16.7885 19.0129 17.559 19.731 18.3443L19.7329 18.3463L20.9929 19.7091L22.2529 21.0719C22.5167 21.3572 22.7842 21.6528 23.0557 21.9527C23.6327 22.5901 24.2278 23.2476 24.8448 23.8704C25.5523 24.5846 26.4556 24.8508 27.3089 25.0357C28.0409 25.2104 28.7242 25.135 29.3546 24.99C29.6689 24.9177 29.9778 24.8261 30.2727 24.7373C30.299 24.7294 30.3252 24.7215 30.3513 24.7136C30.6221 24.6319 30.8811 24.5538 31.1423 24.4878C31.8811 24.3014 32.6164 24.054 33.3301 23.8138L33.3395 23.8107L33.3395 23.8109L33.3523 23.8062C33.8062 23.6396 34.2175 23.7878 34.9202 24.0457C37.6209 25.1361 40.2613 26.1659 42.9608 27.1953C44.8748 27.9343 46.2123 29.2295 46.9991 31.1014L47.0021 31.1086L47.0053 31.1156C47.334 31.8345 47.5 32.6112 47.5 33.4515V33.4551V33.4586V33.4622V33.4657V33.4693V33.4728V33.4763V33.4799V33.4834V33.487V33.4905V33.494V33.4976V33.5011V33.5046V33.5081V33.5117V33.5152V33.5187V33.5222V33.5258V33.5293V33.5328V33.5363V33.5398V33.5434V33.5469V33.5504V33.5539V33.5574V33.5609V33.5644V33.5679V33.5714V33.5749V33.5784V33.5819V33.5854V33.5889V33.5924V33.5959V33.5994V33.6029V33.6064V33.6099V33.6134V33.6169V33.6204V33.6239V33.6274V33.6308V33.6343V33.6378V33.6413V33.6448V33.6483V33.6517V33.6552V33.6587V33.6622V33.6656V33.6691V33.6726V33.6761V33.6795V33.683V33.6865V33.6899V33.6934V33.6969V33.7003V33.7038V33.7073V33.7107V33.7142V33.7176V33.7211V33.7246V33.728V33.7315V33.7349V33.7384V33.7418V33.7453V33.7487V33.7522V33.7556V33.7591V33.7625V33.766V33.7694V33.7729V33.7763V33.7798V33.7832V33.7866V33.7901V33.7935V33.797V33.8004V33.8038V33.8073V33.8107V33.8141V33.8176V33.821V33.8244V33.8279V33.8313V33.8347V33.8382V33.8416V33.845V33.8484V33.8519V33.8553V33.8587V33.8621V33.8656V33.869V33.8724V33.8758V33.8792V33.8827V33.8861V33.8895V33.8929V33.8963V33.8997V33.9032V33.9066V33.91V33.9134V33.9168V33.9202V33.9236V33.927V33.9305V33.9339V33.9373V33.9407V33.9441V33.9475V33.9509V33.9543V33.9577V33.9611V33.9645V33.9679V33.9713V33.9747V33.9781V33.9815V33.9849V33.9883V33.9917V33.9951V33.9985V34.0019V34.0053V34.0087V34.0121V34.0155V34.0189V34.0223V34.0257V34.0291V34.0325V34.0359V34.0392V34.0426V34.046V34.0494V34.0528V34.0562V34.0596V34.063V34.0664V34.0698V34.0731V34.0765V34.0799V34.0833V34.0867V34.0901V34.0935V34.0968V34.1002V34.1036V34.107V34.1104V34.1138V34.1171V34.1205V34.1239V34.1273V34.1307V34.134V34.1374V34.1408V34.1442V34.1476V34.1509V34.1543V34.1577V34.1611V34.1645V34.1678V34.1712V34.1746V34.178V34.1813V34.1847V34.1881V34.1915V34.1949V34.1982V34.2016V34.205V34.2084V34.2117V34.2151V34.2185V34.2219V34.2252V34.2286V34.232V34.2353V34.2387V34.2421V34.2455V34.2488V34.2522V34.2556V34.259V34.2623V34.2657V34.2691V34.2724V34.2758V34.2792V34.2826V34.2859V34.2893V34.2927V34.2961V34.2994V34.3028V34.3062V34.3095V34.3129V34.3163V34.3196V34.323V34.3264V34.3298V34.3331V34.3365V34.3399V34.3433V34.3466V34.35V34.3534V34.3567V34.3601V34.3635V34.3669V34.3702V34.3736V34.377V34.3803V34.3837V34.3871V34.3905V34.3938V34.3972V34.4006V34.4039V34.4073V34.4107V34.4141V34.4174V34.4208V34.4242V34.4276V34.4309V34.4343V34.4377V34.4411V34.4444V34.4478V34.4512V34.4546V34.4579V34.4613V34.4647V34.4681V34.4714V34.4748V34.4782V34.4816V34.4849V34.4883V34.4917V34.4951V34.4984V34.5018V34.5052V34.5086V34.512V34.5153V34.5187V34.5221V34.5255V34.5289V34.5322V34.5356V34.539V34.5424V34.5458V34.5492V34.5525V34.5559V34.5593V34.5627V34.5661V34.5695V34.5728V34.5762V34.5796V34.583V34.5864V34.5898V34.5932V34.5965V34.5999V34.6033V34.6067V34.6101V34.6135V34.6169V34.6203V34.6237V34.6271V34.6305V34.6339V34.6372V34.6406V34.644V34.6474V34.6508V34.6542V34.6576V34.661V34.6644V34.6678V34.6712V34.6746V34.678V34.6814V34.6848V34.6882V34.6916V34.695V34.6984V34.7018V34.7052V34.7086V34.712V34.7154V34.7188V34.7223V34.7257V34.7291V34.7325V34.7359V34.7393V34.7427V34.7461V34.7495V34.753V34.7564V34.7598V34.7632V34.7666V34.77V34.7734V34.7769V34.7803V34.7837V34.7871V34.7905V34.794V34.7974V34.8008V34.8042V34.8077V34.8111V34.8145V34.8179V34.8214V34.8248V34.8282V34.8317V34.8351V34.8385V34.842V34.8454V34.8488V34.8523V34.8557V34.8591V34.8626V34.866V34.8694V34.8729V34.8763V34.8798V34.8832V34.8867V34.8901V34.8935V34.897V34.9004V34.9039V34.9073V34.9108V34.9142V34.9177V34.9211V34.9246V34.9281V34.9315V34.935V34.9384V34.9419V34.9453V34.9488V34.9523V34.9557V34.9592V34.9627V34.9661V34.9696V34.9731V34.9765V34.98V34.9835V34.9869V34.9904V34.9939V34.9974V35.0008V35.0043V35.0078V35.0113V35.0147V35.0182V35.0217V35.0252V35.0287V35.0322V35.0357V35.0391V35.0426V35.0461V35.0496V35.0531V35.0566V35.0601V35.0636V35.0671V35.0706V35.0741V35.0776V35.0811V35.0846V35.0881V35.0916V35.0951V35.0986V35.1021V35.1056V35.1091V35.1127V35.1162V35.1197V35.1232V35.1267V35.1302V35.1338V35.1373V35.1408V35.1443V35.1479V35.1514V35.1549V35.1584V35.162V35.1655V35.169V35.1726V35.1761V35.1796V35.1832V35.1867V35.1903V35.1938V35.1973V35.2009V35.2044V35.208C47.5 35.2991 47.4696 35.3509 47.4423 35.3785C47.4153 35.4058 47.3662 35.4348 47.28 35.4348H47.2361H47.1921H47.1482H47.1042H47.0603H47.0164H46.9724H46.9285H46.8845H46.8406H46.7967H46.7528H46.7088H46.6649H46.621H46.577H46.5331H46.4892H46.4453H46.4014H46.3574H46.3135H46.2696H46.2257H46.1818H46.1379H46.094H46.0501H46.0061H45.9622H45.9183H45.8744H45.8305H45.7866H45.7427H45.6988H45.6549H45.611H45.5671H45.5232H45.4793H45.4354H45.3916H45.3477H45.3038H45.2599H45.216H45.1721H45.1282H45.0843H45.0405H44.9966H44.9527H44.9088H44.8649H44.8211H44.7772H44.7333H44.6894H44.6456H44.6017H44.5578H44.514H44.4701H44.4262H44.3823H44.3385H44.2946H44.2508H44.2069H44.163H44.1192H44.0753H44.0314H43.9876H43.9437H43.8999H43.856H43.8122H43.7683H43.7245H43.6806H43.6368H43.5929H43.5491H43.5052H43.4614H43.4175H43.3737H43.3298H43.286H43.2421H43.1983H43.1545H43.1106H43.0668H43.023H42.9791H42.9353H42.8914H42.8476H42.8038H42.7599H42.7161H42.6723H42.6284H42.5846H42.5408H42.497H42.4531H42.4093H42.3655H42.3217H42.2778H42.234H42.1902H42.1464H42.1025H42.0587H42.0149H41.9711H41.9273H41.8835H41.8396H41.7958H41.752H41.7082H41.6644H41.6206H41.5768H41.5329H41.4891H41.4453H41.4015H41.3577H41.3139H41.2701H41.2263H41.1825H41.1387H41.0949H41.0511H41.0072H40.9634H40.9196H40.8758H40.832H40.7882H40.7444H40.7006H40.6568H40.613H40.5692H40.5254H40.4816H40.4379H40.3941H40.3503H40.3065H40.2627H40.2189H40.1751H40.1313H40.0875H40.0437H39.9999H39.9561H39.9123H39.8685H39.8247H39.781H39.7372H39.6934H39.6496H39.6058H39.562H39.5182H39.4744H39.4307H39.3869H39.3431H39.2993H39.2555H39.2117H39.168H39.1242H39.0804H39.0366H38.9928H38.949H38.9053H38.8615H38.8177H38.7739H38.7301H38.6864H38.6426H38.5988H38.555H38.5113H38.4675H38.4237H38.3799H38.3361H38.2924H38.2486H38.2048H38.161H38.1173H38.0735H38.0297H37.9859H37.9422H37.8984H37.8546H37.8108H37.7671H37.7233H37.6795H37.6357H37.592H37.5482H37.5044H37.4607H37.4169H37.3731H37.3293H37.2856H37.2418H37.198H37.1543H37.1105H37.0667H37.0229H36.9792H36.9354H36.8916H36.8479H36.8041H36.7603H36.7165H36.6728H36.629H36.5852H36.5415H36.4977H36.4539H36.4102H36.3664H36.3226H36.2789H36.2351H36.1913H36.1475H36.1038H36.06H36.0162H35.9725H35.9287H35.8849H35.8412H35.7974H35.7536H35.7098H35.6661H35.6223H35.5785H35.5348H35.491H35.4472H35.4035H35.3597H35.3159H35.2721H35.2284H35.1846H35.1408H35.0971H35.0533H35.0095H34.9657H34.922H34.8782H34.8344H34.7907H34.7469H34.7031H34.6593H34.6156H34.5718H34.528H34.4843H34.4405H34.3967H34.3529H34.3092H34.2654H34.2216H34.1778H34.1341H34.0903H34.0465H34.0027H33.959H33.9152H33.8714H33.8276H33.7839H33.7401H33.6963H33.6525H33.6087H33.565H33.5212H33.4774H33.4336H33.3899H33.3461H33.3023H33.2585H33.2147H33.171H33.1272H33.0834H33.0396H32.9958H32.952H32.9083H32.8645H32.8207H32.7769H32.7331H32.6893H32.6456H32.6018H32.558H32.5142H32.4704H32.4266H32.3828H32.339H32.2953H32.2515H32.2077H32.1639H32.1201H32.0763H32.0325H31.9887H31.9449H31.9011H31.8573H31.8135H31.7697H31.726H31.6822H31.6384H31.5946H31.5508H31.507H31.4632H31.4194H31.3756H31.3318H31.288H31.2442H31.2004H31.1566H31.1128H31.0689H31.0251H30.9813H30.9375H30.8937H30.8499H30.8061H30.7623H30.7185H30.6747H30.6309H30.5871H30.5433H30.4994H30.4556H30.4118H30.368H30.3242H30.2804H30.2365H30.1927H30.1489H30.1051H30.0613H30.0175H29.9736H29.9298H29.886H29.8422H29.7983H29.7545H29.7107H29.6669H29.623H29.5792H29.5354H29.4916H29.4477H29.4039H29.3601H29.3162H29.2724H29.2286H29.1847H29.1409H29.0971H29.0532H29.0094H28.9655H28.9217H28.8779H28.834H28.7902H28.7463H28.7025H28.6586H28.6148H28.5709H28.5271H28.4832H28.4394H28.3955H28.3517H28.3078H28.264H28.2201H28.1763H28.1324H28.0886H28.0447H28.0008H27.957H27.9131H27.8693H27.8254H27.7815H27.7377H27.6938H27.6499H27.6061H27.5622H27.5183H27.4744H27.4306H27.3867H27.3428H27.2989H27.2551H27.2112H27.1673H27.1234H27.0795H27.0357H26.9918H26.9479H26.904H26.8601H26.8162H26.7723H26.7285H26.6846H26.6407H26.5968H26.5529H26.509H26.4651H26.4212H26.3773H26.3334H26.2895H26.2456H26.2017H26.1578H26.1139H26.07H26.026H25.9821H25.9382H25.8943H25.8504H25.8065H25.7626H25.7186H25.6747H25.6308H25.5869H25.543H25.499H25.4551H25.4112H25.3672H25.3233H25.2794H25.2355H25.1915H25.1476H25.1036H25.0597H25.0158H24.9718H24.9279H24.8839H24.84C23.8581 35.4348 22.8866 34.9623 22.0341 34.2739L22.0342 34.2738L22.0267 34.268C21.4658 33.8324 20.943 33.3376 20.4081 32.8312C20.2234 32.6564 20.0372 32.4802 19.8476 32.3046C18.5853 31.0306 17.2641 29.7576 16.0072 28.5492C15.2586 27.8238 14.525 27.1134 13.7915 26.4032L13.7878 26.3996L13.7814 26.3934C13.0485 25.6838 12.3157 24.9743 11.568 24.2497L11.5681 24.2496L11.5596 24.2417C11.2041 23.9128 10.8629 23.5833 10.5173 23.2497L10.5155 23.2479C10.1741 22.9182 9.82832 22.5844 9.46716 22.25C9.29789 22.0806 9.12061 21.9491 8.94748 21.8207C8.90528 21.7894 8.86333 21.7583 8.82181 21.7268L8.41361 21.4178L8.11432 21.8332C7.58129 22.573 7.3 23.3397 7.3 24.2453V24.2663V24.2872V24.3081V24.3291V24.35V24.3709V24.3919V24.4128V24.4338V24.4547V24.4756V24.4966V24.5175V24.5385V24.5594V24.5803V24.6013V24.6222V24.6431V24.6641V24.685V24.706V24.7269V24.7478V24.7688V24.7897V24.8107V24.8316V24.8525V24.8735V24.8944V24.9154V24.9363V24.9572V24.9782V24.9991V25.0201V25.041V25.0619V25.0829V25.1038V25.1248V25.1457V25.1666V25.1876V25.2085V25.2295V25.2504V25.2713V25.2923V25.3132V25.3342V25.3551V25.3761V25.397V25.4179V25.4389V25.4598V25.4808V25.5017V25.5227V25.5436V25.5645V25.5855V25.6064V25.6274V25.6483V25.6693V25.6902V25.7112V25.7321V25.753V25.774V25.7949V25.8159V25.8368V25.8578V25.8787V25.8997V25.9206V25.9416V25.9625V25.9835V26.0044V26.0253V26.0463V26.0672V26.0882V26.1091V26.1301V26.151V26.172V26.1929V26.2139V26.2348V26.2558V26.2767V26.2977V26.3186V26.3396V26.3605V26.3815V26.4025V26.4234V26.4444V26.4653V26.4863V26.5072V26.5282V26.5491V26.5701V26.591V26.612V26.6329V26.6539V26.6749V26.6958V26.7168V26.7377V26.7587V26.7796V26.8006V26.8216V26.8425V26.8635V26.8844V26.9054V26.9264V26.9473V26.9683V26.9892V27.0102V27.0312V27.0521V27.0731V27.0941V27.115V27.136V27.157V27.1779V27.1989V27.2198V27.2408V27.2618V27.2827V27.3037V27.3247V27.3456V27.3666V27.3876V27.4086V27.4295V27.4505V27.4715V27.4924V27.5134V27.5344V27.5553V27.5763V27.5973V27.6183V27.6392V27.6602V27.6812V27.7022V27.7231V27.7441V27.7651V27.7861V27.807V27.828V27.849V27.87V27.891V27.9119V27.9329V27.9539V27.9749V27.9959V28.0168V28.0378V28.0588V28.0798V28.1008V28.1218V28.1427V28.1637V28.1847V28.2057V28.2267V28.2477V28.2687V28.2896V28.3106V28.3316V28.3526V28.3736V28.3946V28.4156V28.4366V28.4576V28.4786V28.4996V28.5206V28.5416V28.5625V28.5835V28.6045V28.6255V28.6465V28.6675V28.6885V28.7095V28.7305V28.7515V28.7725V28.7935V28.8145V28.8355V28.8565V28.8776V28.8986V28.9196V28.9406V28.9616V28.9826V29.0036V29.0246V29.0456V29.0666V29.0876V29.1086V29.1296V29.1507V29.1717V29.1927V29.2137V29.2347V29.2557V29.2767V29.2978V29.3188V29.3398V29.3608V29.3818V29.4029V29.4239V29.4449V29.4659V29.4869V29.508V29.529V29.55V29.571V29.5921V29.6131V29.6341V29.6551V29.6762V29.6972V29.7182V29.7393V29.7603V29.7813V29.8024V29.8234V29.8444V29.8655V29.8865V29.9075V29.9286V29.9496V29.9707V29.9917V30.0127V30.0338V30.0548V30.0759V30.0969V30.1179V30.139V30.16V30.1811V30.2021V30.2232V30.2442V30.2653V30.2863V30.3074V30.3284V30.3495V30.3705V30.3916V30.4126V30.4337V30.4548V30.4758V30.4969V30.5179V30.539V30.56V30.5811V30.6022V30.6232V30.6443V30.6654V30.6864V30.7075V30.7286V30.7496V30.7707V30.7918V30.8128V30.8339V30.855V30.8761V30.8971V30.9182V30.9393V30.9604V30.9814V31.0025V31.0236V31.0447V31.0658V31.0868V31.1079V31.129V31.1501V31.1712V31.1923V31.2133V31.2344V31.2555V31.2766V31.2977V31.3188V31.3399V31.361V31.3821V31.4032V31.4243V31.4454V31.4665V31.4876V31.5087V31.5298V31.5509V31.572V31.5931V31.6142V31.6353V31.6564V31.6775V31.6986V31.7197V31.7408V31.7619V31.783V31.8042V31.8253V31.8464V31.8675V31.8886V31.9097V31.9309V31.952V31.9731V31.9942V32.0153V32.0365V32.0576V32.0787V32.0998V32.121V32.1421V32.1632V32.1844V32.2055V32.2266V32.2478V32.2689V32.29V32.3112V32.3323V32.3534V32.3746V32.3957V32.4169V32.438V32.4592V32.4803V32.5015V32.5226V32.5438V32.5649V32.5861V32.6072V32.6284V32.6495V32.6707V32.6918V32.713V32.7341V32.7553V32.7765V32.7976V32.8188V32.84V32.8611V32.8823V32.9035V32.9246V32.9458V32.967V32.9881V33.0093V33.0305V33.0517V33.0728V33.094V33.1152V33.1364V33.1575V33.1787V33.1999V33.2211V33.2423V33.2635V33.2847V33.3058V33.327V33.3482V33.3694V33.3906V33.4118V33.433V33.4542V33.4754V33.4966V33.5178V33.539V33.5602V33.5814V33.6026V33.6238V33.645V33.6662V33.6875V33.7087V33.7299V33.7511V33.7723V33.7935V33.8147V33.836V33.8572V33.8784V33.8996V33.9209V33.9421V33.9633V33.9845V34.0058V34.027V34.0482V34.0695V34.0907V34.1119V34.1332V34.1544V34.1756V34.1969V34.2181V34.2394V34.2606V34.2819V34.3031V34.3244V34.3456V34.3669V34.3881V34.4094V34.4306V34.4519V34.4731V34.4944V34.5156V34.5369V34.5582V34.5794V34.6007V34.622V34.6432V34.6645V34.6858V34.707V34.7283V34.7496V34.7709V34.7921V34.8134V34.8347V34.856V34.8773V34.8986V34.9198V34.9411V34.9624V34.9837V35.005V35.0263C7.3 35.3628 7.23789 35.4284 7.23479 35.4315C7.23305 35.4333 7.17145 35.4954 6.84 35.4954C6.52112 35.4954 6.19198 35.4889 5.85722 35.4823C5.16533 35.4688 4.44941 35.4547 3.75036 35.4962L3.73729 35.497L3.72427 35.4985C3.65425 35.5063 3.57786 35.4833 3.49016 35.3867Z" fill="#10084D" stroke="black"/>
</svg>
