<svg width="55" height="18" viewBox="0 0 55 18" fill="none" xmlns="http://www.w3.org/2000/svg">
<path d="M14.046 16.4456C14.0324 16.7992 14.012 17.1324 13.9984 17.5132C10.2176 17.5132 6.464 17.5132 2.724 17.5132C2.6968 17.452 2.656 17.4112 2.6628 17.3704C2.8192 16.126 2.3908 15.1944 1.7108 14.2492C0.0651992 11.9576 -0.166001 9.23081 0.377999 6.40881C0.724799 4.61361 1.2756 2.87281 1.6904 1.09121C1.8604 0.370412 2.1936 0.452011 2.6356 0.649211C5.0564 1.71681 7.4704 2.82521 9.9116 3.83161C14.5016 5.72201 19.0916 7.64641 23.8788 8.74121C26.2044 9.27161 28.5776 9.50961 30.9372 9.84281C31.1208 9.87001 31.3996 9.65921 31.522 9.46201C32.8412 7.28601 33.7048 4.89241 33.902 2.15201C34.9628 1.87321 35.9692 1.91401 36.9076 2.52601C37.0844 2.64161 37.234 2.96801 37.268 3.21961C37.5808 5.45681 37.302 7.62601 36.6016 9.73401C39.1992 9.99241 41.348 9.05401 42.2592 6.48361C42.3204 6.31361 42.6264 6.10961 42.7624 6.15041C46.5228 7.32001 50.2968 8.47601 53.8532 10.3732C54.8528 10.9036 55.1724 12.2976 54.5536 13.3516C54.472 13.4876 54.3156 13.5692 54.1728 13.6372C47.2436 17.0644 40.0356 18.4924 32.5352 17.8124C27.408 17.35 22.274 16.8808 17.1468 16.4456C16.154 16.3776 15.134 16.4456 14.046 16.4456Z" fill="#10084D"/>
</svg>
