<svg width="61" height="18" viewBox="0 0 61 18" fill="none" xmlns="http://www.w3.org/2000/svg">
<path d="M60.6766 16.3128C60.573 14.6774 59.3372 14.6034 58.2716 14.3074C57.354 12.968 56.022 12.0948 54.8972 10.9922C52.4404 8.56502 49.5618 6.74462 46.513 5.24982C42.4578 3.25922 38.2694 1.78663 33.8516 1.06883C33.378 0.950425 32.9044 0.839424 32.4308 0.721024C31.8684 0.639624 31.306 0.558226 30.7436 0.476826C30.6844 0.469426 30.6326 0.462024 30.5734 0.454624C30.011 0.373224 29.456 0.291825 28.8936 0.210425C28.3386 0.158625 27.7762 0.106826 27.2212 0.0550259C26.5404 -0.122574 26.2666 0.121624 26.1408 0.906024C25.8374 2.88922 25.5784 4.88722 25.0308 6.81862C23.9874 9.56402 22.5888 12.0948 21.02 14.5294H21.057C14.4192 14.5442 7.78885 14.559 1.15104 14.5812C0.166845 14.8772 -0.284555 15.4692 0.189045 16.5792C0.388845 17.1564 0.840245 17.3266 1.35085 17.4006C1.78745 17.3858 2.21664 17.3488 2.65324 17.3488C21.2346 17.3488 39.8234 17.3488 58.4048 17.3488C58.76 17.3488 59.1152 17.371 59.4704 17.3858C59.537 17.3562 59.5963 17.334 59.6628 17.3044C60.1586 17.1564 60.3954 16.705 60.6766 16.3128ZM20.9164 14.6108C20.9682 14.5886 21.02 14.559 21.0718 14.522C21.02 14.559 20.9682 14.5886 20.9164 14.6108Z" fill="#10084D"/>
</svg>
