<svg width="43" height="35" viewBox="0 0 43 35" fill="none" xmlns="http://www.w3.org/2000/svg">
<path d="M3.04201 3.53207C5.49001 3.53207 7.93201 3.53207 10.38 3.53207C10.554 3.53207 10.728 3.52007 10.896 3.55007C11.304 3.62207 11.556 3.87407 11.568 4.29407C11.586 4.74407 11.334 5.01407 10.896 5.09807C10.71 5.13407 10.512 5.12207 10.32 5.12207C7.89601 5.12207 5.46601 5.12207 3.04201 5.12807C2.82001 5.12807 2.59801 5.15807 2.35801 5.17007C2.35801 8.23007 2.35801 11.2301 2.35801 14.3261C2.65201 14.3261 2.89801 14.3201 3.14401 14.3261C8.50801 14.5121 12.522 16.9361 15 21.7001C15.738 23.1161 16.122 24.7241 16.632 26.2541C16.782 26.7041 16.986 27.0101 17.412 27.2381C18.762 27.9701 20.082 28.7621 21.432 29.5121C21.672 29.6441 21.972 29.7221 22.242 29.7221C24.054 29.7401 25.86 29.7341 27.672 29.7341C28.656 29.7341 28.476 29.7641 28.494 28.9481C28.536 27.0881 29.766 25.5761 31.566 25.1861C31.92 25.1081 32.292 25.1201 32.658 25.0721C34.092 24.8621 34.95 23.5121 34.59 22.2161C33.156 22.0121 31.752 21.9101 30.39 21.5981C24.084 20.1521 19.428 14.4161 19.272 7.94807C19.218 5.84807 19.254 3.75407 19.248 1.65407C19.242 0.688066 19.062 0.508066 18.096 0.508066C13.266 0.508066 8.43001 0.508066 3.60001 0.508066C3.40801 0.508066 3.17401 0.448066 3.03001 0.532066C2.77801 0.688066 2.41201 0.916066 2.38801 1.14407C2.31001 1.91807 2.35801 2.70407 2.35801 3.53807C2.62201 3.53207 2.83201 3.53207 3.04201 3.53207Z" fill="#10084D"/>
<path d="M41.694 28.2462C39.3 29.2002 36.912 30.1602 34.512 31.1022C34.218 31.2162 33.882 31.2882 33.564 31.2882C29.676 31.3002 25.788 31.3062 21.9 31.2822C21.558 31.2822 21.174 31.1682 20.874 31.0002C19.374 30.1722 17.898 29.3022 16.404 28.4742C16.134 28.3242 15.792 28.2282 15.486 28.2282C10.848 28.2102 6.21 28.2162 1.572 28.2222C1.332 28.2222 1.092 28.2462 0.822004 28.2642C0.822004 30.0822 0.810003 31.8342 0.828003 33.5802C0.834003 34.1322 1.194 34.3482 1.71 34.3482C5.712 34.3482 9.714 34.3542 13.722 34.3482C14.364 34.3482 14.622 34.0722 14.634 33.4242C14.646 32.9082 14.634 32.3922 14.634 31.7622C14.928 31.8942 15.12 31.9722 15.306 32.0682C16.65 32.7342 17.982 33.4242 19.338 34.0662C19.686 34.2342 20.1 34.3422 20.49 34.3422C25.266 34.3602 30.036 34.3242 34.812 34.3662C37.014 34.3842 38.82 33.5502 40.38 32.0982C41.526 31.0242 42.15 29.6682 42.306 28.0242C42.048 28.1142 41.874 28.1802 41.694 28.2462Z" fill="#10084D"/>
<path d="M14.478 24.6219C13.986 22.9179 13.224 21.3519 12.054 20.0139C9.46201 17.0619 6.15601 15.7539 2.25601 15.9159C2.06401 15.9219 1.77001 16.1679 1.71001 16.3599C1.28401 17.7519 0.810006 19.1379 0.540006 20.5659C0.156006 22.558 0.240006 24.58 0.636006 26.596C5.48401 26.596 10.26 26.596 15.09 26.596C14.874 25.9 14.664 25.264 14.478 24.6219Z" fill="#10084D"/>
<path d="M30.12 29.7281C31.026 29.7281 31.95 29.7641 32.862 29.7161C33.408 29.6861 33.972 29.6021 34.476 29.4101C36.882 28.4801 39.258 27.4901 41.664 26.5661C42.186 26.3681 42.216 26.1401 42.054 25.6721C41.208 23.2841 38.862 21.8141 36.216 22.1081C36.216 22.4021 36.228 22.7021 36.216 23.0081C36.12 24.9761 34.542 26.5661 32.58 26.6741C30.762 26.7701 29.898 27.8081 30.12 29.7281Z" fill="#10084D"/>
</svg>
