<svg width="32" height="32" viewBox="0 0 32 32" fill="none" xmlns="http://www.w3.org/2000/svg">
<g clip-path="url(#clip0_1150_4340)">
<path fill-rule="evenodd" clip-rule="evenodd" d="M28.6693 26.0333C30.7013 24.56 32 22.3827 32 19.9613C32 15.5267 27.684 11.9307 22.3613 11.9307C17.0387 11.9307 12.7227 15.5267 12.7227 19.9613C12.7227 24.3973 17.0387 27.9933 22.3613 27.9933C23.4613 27.9933 24.5227 27.8373 25.508 27.5533L25.7907 27.5107C25.976 27.5107 26.144 27.568 26.3027 27.6587L28.4133 28.8773L28.5987 28.9373C28.776 28.9373 28.92 28.7933 28.92 28.616L28.868 28.3813L28.4333 26.7613L28.4 26.556C28.4 26.34 28.5067 26.1493 28.6693 26.0333ZM11.5667 3.06267C5.17867 3.06267 0 7.37733 0 12.7013C0 15.6053 1.55733 18.22 3.996 19.9867C4.192 20.1253 4.32 20.3547 4.32 20.6147L4.28 20.86L3.75867 22.804L3.696 23.0853C3.696 23.2987 3.86933 23.472 4.08133 23.472L4.30533 23.4L6.83733 21.9373C7.02667 21.828 7.228 21.76 7.45067 21.76L7.79067 21.8107C8.972 22.1507 10.2467 22.34 11.5667 22.34L12.2013 22.324C11.9507 21.572 11.8133 20.78 11.8133 19.9627C11.8133 15.108 16.536 11.172 22.3613 11.172L22.9893 11.188C22.1187 6.584 17.336 3.06267 11.5667 3.06267ZM19.148 18.6773C18.4387 18.6773 17.864 18.1013 17.864 17.392C17.864 16.6813 18.4387 16.1067 19.148 16.1067C19.8587 16.1067 20.4333 16.6813 20.4333 17.392C20.4333 18.1013 19.8587 18.6773 19.148 18.6773ZM25.5747 18.6773C24.864 18.6773 24.2893 18.1013 24.2893 17.392C24.2893 16.6813 24.864 16.1067 25.5747 16.1067C26.284 16.1067 26.8587 16.6813 26.8587 17.392C26.8587 18.1013 26.284 18.6773 25.5747 18.6773ZM7.71067 11.1587C6.85867 11.1587 6.16933 10.468 6.16933 9.61733C6.16933 8.76533 6.85867 8.07467 7.71067 8.07467C8.56267 8.07467 9.25333 8.76533 9.25333 9.61733C9.25333 10.468 8.56267 11.1587 7.71067 11.1587ZM15.4213 11.1587C14.5693 11.1587 13.88 10.468 13.88 9.61733C13.88 8.76533 14.5693 8.07467 15.4213 8.07467C16.2733 8.07467 16.964 8.76533 16.964 9.61733C16.964 10.468 16.2733 11.1587 15.4213 11.1587Z" fill="#00AD13"/>
</g>
<defs>
<clipPath id="clip0_1150_4340">
<rect width="32" height="32" fill="white"/>
</clipPath>
</defs>
</svg>
