<svg width="32" height="32" viewBox="0 0 32 32" fill="none" xmlns="http://www.w3.org/2000/svg">
<path d="M0.076004 32L2.32534 23.7827C0.937337 21.3773 0.208004 18.6507 0.209337 15.8547C0.213337 7.11333 7.32667 0 16.0667 0C20.308 0.00133333 24.2893 1.65333 27.284 4.65067C30.2773 7.648 31.9253 11.632 31.924 15.8693C31.92 24.612 24.8067 31.7253 16.0667 31.7253C13.4133 31.724 10.7987 31.0587 8.48267 29.7947L0.076004 32ZM8.872 26.924C11.1067 28.2507 13.24 29.0453 16.0613 29.0467C23.3253 29.0467 29.2427 23.1347 29.2467 15.8667C29.2493 8.584 23.36 2.68 16.072 2.67733C8.80267 2.67733 2.88934 8.58933 2.88667 15.856C2.88534 18.8227 3.75467 21.044 5.21467 23.368L3.88267 28.232L8.872 26.924ZM24.0547 19.6387C23.956 19.4733 23.692 19.3747 23.2947 19.176C22.8987 18.9773 20.9507 18.0187 20.5867 17.8867C20.224 17.7547 19.96 17.688 19.6947 18.0853C19.4307 18.4813 18.6707 19.3747 18.44 19.6387C18.2093 19.9027 17.9773 19.936 17.5813 19.7373C17.1853 19.5387 15.908 19.1213 14.3947 17.7707C13.2173 16.72 12.4213 15.4227 12.1907 15.0253C11.96 14.6293 12.1667 14.4147 12.364 14.2173C12.5427 14.04 12.76 13.7547 12.9587 13.5227C13.16 13.2933 13.2253 13.128 13.3587 12.8627C13.4907 12.5987 13.4253 12.3667 13.3253 12.168C13.2253 11.9707 12.4333 10.02 12.104 9.22667C11.7813 8.45467 11.4547 8.55867 11.212 8.54667L10.452 8.53333C10.188 8.53333 9.75867 8.632 9.396 9.02933C9.03334 9.42667 8.00934 10.384 8.00934 12.3347C8.00934 14.2853 9.42934 16.1693 9.62667 16.4333C9.82534 16.6973 12.42 20.7 16.3947 22.416C17.34 22.824 18.0787 23.068 18.6533 23.2507C19.6027 23.552 20.4667 23.5093 21.1493 23.408C21.9107 23.2947 23.4933 22.4493 23.824 21.524C24.1547 20.5973 24.1547 19.804 24.0547 19.6387Z" fill="#00D54D"/>
</svg>
