<svg width="96" height="53" viewBox="0 0 96 53" fill="none" xmlns="http://www.w3.org/2000/svg">
<path d="M39.7435 12.9858C39.1433 13.3253 38.543 13.6647 37.9127 14.0041L37.1504 15.9335" stroke="#10084D" stroke-width="2" stroke-linecap="round" stroke-linejoin="round"/>
<path d="M35.3969 20.4414L29.2441 36.1445" stroke="#10084D" stroke-width="2" stroke-linecap="round" stroke-linejoin="round" stroke-dasharray="8.08 8.08"/>
<path d="M28.3798 38.3838L27.6055 40.3489C28.5188 41.0824 29.3792 41.8783 30.1806 42.7309H32.2815" stroke="#10084D" stroke-width="2" stroke-linecap="round" stroke-linejoin="round"/>
<path d="M36.2793 42.7308H79.3483C83.058 42.7308 87.1217 41.6232 89.997 40.6406" stroke="#10084D" stroke-width="2" stroke-linecap="round" stroke-linejoin="round" stroke-dasharray="6.66 6.66"/>
<path d="M91.8711 39.9558C93.0716 39.4913 93.81 39.1579 93.81 39.1579C94.008 38.4895 94.1387 37.8033 94.2001 37.1094" stroke="#10084D" stroke-width="2" stroke-linecap="round" stroke-linejoin="round"/>
<path d="M92.6936 33.1671C90.6286 31.5593 87.2071 32.0118 87.2071 32.0118C68.9711 32.0118 55.4711 22.0373 47.2715 13.5159" stroke="#10084D" stroke-width="2" stroke-linecap="round" stroke-linejoin="round" stroke-dasharray="7.4 7.4"/>
<path d="M45.7888 11.9021C45.3086 11.3721 44.8464 10.8481 44.4082 10.3359L42.6074 11.39" stroke="#10084D" stroke-width="2" stroke-linecap="round" stroke-linejoin="round"/>
<path d="M29.8571 8.50781C29.7241 9.1906 29.6319 9.88059 29.581 10.5742C29.4069 10.6814 29.2268 10.7707 29.0527 10.86L31.0336 11.5627" stroke="#10084D" stroke-width="2" stroke-linecap="round" stroke-linejoin="round"/>
<path d="M35.9316 13.3074L37.9125 14.0041C38.5128 13.6647 39.1491 13.3253 39.7433 12.9858" stroke="#10084D" stroke-width="2" stroke-linecap="round" stroke-linejoin="round"/>
<path d="M42.5586 11.39L44.3594 10.336C43.8852 9.78815 43.435 9.25221 43.0148 8.73413" stroke="#10084D" stroke-width="2" stroke-linecap="round" stroke-linejoin="round"/>
<path d="M40.4695 5.39355C38.8248 3.10686 37.9844 1.64196 37.9844 1.64196C33.4344 0.254466 31.3335 3.51776 30.373 6.48331" stroke="#10084D" stroke-width="2" stroke-linecap="round" stroke-linejoin="round" stroke-dasharray="7.04 7.04"/>
<path d="M25.9082 39.0984C26.5085 39.4676 27.0427 39.8785 27.607 40.3251L28.3813 38.3838" stroke="#10084D" stroke-width="2" stroke-linecap="round" stroke-linejoin="round"/>
<path d="M30.1211 33.8996L36.2738 18.1965" stroke="#10084D" stroke-width="2" stroke-linecap="round" stroke-linejoin="round" stroke-dasharray="8.08 8.08"/>
<path d="M37.1506 15.9337L37.913 13.9924C37.3127 14.3319 36.7125 14.6653 36.0762 14.9988" stroke="#10084D" stroke-width="2" stroke-linecap="round" stroke-linejoin="round"/>
<path d="M32.4804 16.9163C28.1765 19.1434 23.9986 21.0847 21.1774 21.8886C17.984 22.7938 14.4544 22.3233 11.291 21.3944" stroke="#10084D" stroke-width="2" stroke-linecap="round" stroke-linejoin="round" stroke-dasharray="6.79 6.79"/>
<path d="M9.35782 20.7571C8.67952 20.507 8.02524 20.245 7.41297 19.9771C7.14199 20.6193 6.91144 21.2776 6.72266 21.9481" stroke="#10084D" stroke-width="2" stroke-linecap="round" stroke-linejoin="round"/>
<path d="M5.99601 25.7771C5.81136 27.7231 5.83147 29.6829 6.05604 31.6248" stroke="#10084D" stroke-width="2" stroke-linecap="round" stroke-linejoin="round" stroke-dasharray="6.55 6.55"/>
<path d="M6.32617 33.5483C6.54827 34.8167 6.77037 35.5849 6.77037 35.5849H8.8713" stroke="#10084D" stroke-width="2" stroke-linecap="round" stroke-linejoin="round"/>
<path d="M12.4082 35.585C16.556 35.6862 20.5538 36.1804 24.4135 38.1873" stroke="#10084D" stroke-width="2" stroke-linecap="round" stroke-linejoin="round" stroke-dasharray="5.89 5.89"/>
<path d="M36.0757 15.0107C36.676 14.6773 37.3062 14.3438 37.9125 14.0043L35.9316 13.3076" stroke="#10084D" stroke-width="2" stroke-linecap="round" stroke-linejoin="round"/>
<path d="M31.0347 11.5628L29.0538 10.8601C28.4367 11.1888 27.792 11.4638 27.127 11.6819" stroke="#10084D" stroke-width="2" stroke-linecap="round" stroke-linejoin="round"/>
<path d="M21.8499 12.2179C19.194 11.8904 16.6308 11.04 14.3105 9.7168" stroke="#10084D" stroke-width="2" stroke-linecap="round" stroke-linejoin="round" stroke-dasharray="8.89 8.89"/>
<path d="M12.0478 8.32925C11.4682 7.93921 10.9092 7.51981 10.373 7.07275V9.15697" stroke="#10084D" stroke-width="2" stroke-linecap="round" stroke-linejoin="round"/>
<path d="M10.3717 12.3606V15.3381C9.9529 15.7886 9.56201 16.2639 9.20117 16.7613" stroke="#10084D" stroke-width="2" stroke-linecap="round" stroke-linejoin="round" stroke-dasharray="5.38 5.38"/>
<path d="M8.33247 18.1072C7.98671 18.7105 7.67996 19.3351 7.41406 19.977C8.01433 20.245 8.68062 20.507 9.35892 20.7571" stroke="#10084D" stroke-width="2" stroke-linecap="round" stroke-linejoin="round"/>
<path d="M13.2656 21.8886C15.8629 22.5318 18.5798 22.5318 21.1771 21.8886C24.3945 20.9775 29.3647 18.5836 34.2809 15.9753" stroke="#10084D" stroke-width="2" stroke-linecap="round" stroke-linejoin="round" stroke-dasharray="6.79 6.79"/>
<path d="M32.2813 42.7308H30.1804C29.379 41.8783 28.5185 41.0824 27.6052 40.3489L27.4792 40.6704L26.8789 42.3081" stroke="#10084D" stroke-width="2" stroke-linecap="round" stroke-linejoin="round"/>
<path d="M25.9854 44.7615L24.6348 48.4714" stroke="#10084D" stroke-width="2" stroke-linecap="round" stroke-linejoin="round" stroke-dasharray="4.41 4.41"/>
<path d="M24.179 49.7039L23.4707 51.663H25.5716" stroke="#10084D" stroke-width="2" stroke-linecap="round" stroke-linejoin="round"/>
<path d="M29.8398 51.6632H76.6605C86.2648 51.6632 90.0825 48.8227 92.4655 43.1357" stroke="#10084D" stroke-width="2" stroke-linecap="round" stroke-linejoin="round" stroke-dasharray="7.11 7.11"/>
<path d="M93.2097 41.1526C93.4258 40.5154 93.6299 39.8485 93.81 39.1577C93.81 39.1577 93.0776 39.4912 91.8711 39.9557" stroke="#10084D" stroke-width="2" stroke-linecap="round" stroke-linejoin="round"/>
<path d="M88.0889 41.248C85.26 42.1461 82.3179 42.6453 79.349 42.7308H34.2871" stroke="#10084D" stroke-width="2" stroke-linecap="round" stroke-linejoin="round" stroke-dasharray="6.66 6.66"/>
<path d="M26.8865 42.284L27.4868 40.6464L27.6128 40.3249C27.0486 39.8782 26.4843 39.4673 25.9141 39.0981" stroke="#10084D" stroke-width="2" stroke-linecap="round" stroke-linejoin="round"/>
<path d="M22.0717 37.1628C17.2155 35.3465 12.1133 35.5847 6.7709 35.5847C-4.03388 43.3261 1.36851 51.663 7.6833 51.663H19.2144" stroke="#10084D" stroke-width="2" stroke-linecap="round" stroke-linejoin="round" stroke-dasharray="7.18 7.18"/>
<path d="M21.3691 51.663H23.4701L24.1844 49.7039" stroke="#10084D" stroke-width="2" stroke-linecap="round" stroke-linejoin="round"/>
<path d="M25.0859 47.2326L26.4365 43.5227" stroke="#10084D" stroke-width="2" stroke-linecap="round" stroke-linejoin="round" stroke-dasharray="4.41 4.41"/>
<path d="M47.7454 14.0103L41.1484 22.3769" stroke="#10084D" stroke-width="2" stroke-linecap="round" stroke-linejoin="round" stroke-dasharray="6 6"/>
<path d="M53.1473 19.9651L47.877 26.6525" stroke="#10084D" stroke-width="2" stroke-linecap="round" stroke-linejoin="round" stroke-dasharray="6 6"/>
<path d="M59.7499 24.1335L55.9922 28.8975" stroke="#10084D" stroke-width="2" stroke-linecap="round" stroke-linejoin="round" stroke-dasharray="6 6"/>
<path d="M66.3533 28.302L64.3965 30.7852" stroke="#10084D" stroke-width="2" stroke-linecap="round" stroke-linejoin="round" stroke-dasharray="6 6"/>
</svg>
