<svg width="97" height="53" viewBox="0 0 97 53" fill="none" xmlns="http://www.w3.org/2000/svg">
<path d="M40.7435 12.9858C40.1433 13.3253 39.543 13.6647 38.9127 14.0041L38.1504 15.9335" stroke="#10084D" stroke-width="2" stroke-linecap="round" stroke-linejoin="round" stroke-dasharray="6 6"/>
<path d="M36.3988 20.4414L30.2461 36.1445" stroke="#10084D" stroke-width="2" stroke-linecap="round" stroke-linejoin="round" stroke-dasharray="6 6"/>
<path d="M29.3798 38.3838L28.6055 40.3489C29.5188 41.0824 30.3792 41.8783 31.1806 42.7309H33.2815" stroke="#10084D" stroke-width="2" stroke-linecap="round" stroke-linejoin="round" stroke-dasharray="6 6"/>
<path d="M37.2812 42.7308H80.3503C84.0599 42.7308 88.1237 41.6232 90.999 40.6406" stroke="#10084D" stroke-width="2" stroke-linecap="round" stroke-linejoin="round" stroke-dasharray="6 6"/>
<path d="M92.8711 39.9558C94.0716 39.4913 94.81 39.1579 94.81 39.1579C95.008 38.4895 95.1387 37.8033 95.2001 37.1094" stroke="#10084D" stroke-width="2" stroke-linecap="round" stroke-linejoin="round" stroke-dasharray="6 6"/>
<path d="M93.6916 33.1671C91.6267 31.5593 88.2052 32.0118 88.2052 32.0118C69.9691 32.0118 56.4692 22.0373 48.2695 13.5159" stroke="#10084D" stroke-width="2" stroke-linecap="round" stroke-linejoin="round" stroke-dasharray="6 6"/>
<path d="M46.7869 11.9021C46.3067 11.3721 45.8445 10.8481 45.4063 10.3359L43.6055 11.39" stroke="#10084D" stroke-width="2" stroke-linecap="round" stroke-linejoin="round" stroke-dasharray="6 6"/>
<path d="M30.8571 8.50781C30.7241 9.1906 30.6319 9.88059 30.581 10.5742C30.4069 10.6814 30.2268 10.7707 30.0527 10.86L32.0336 11.5627" stroke="#10084D" stroke-width="2" stroke-linecap="round" stroke-linejoin="round" stroke-dasharray="6 6"/>
<path d="M36.9316 13.3074L38.9125 14.0041C39.5128 13.6647 40.1491 13.3253 40.7433 12.9858" stroke="#10084D" stroke-width="2" stroke-linecap="round" stroke-linejoin="round" stroke-dasharray="6 6"/>
<path d="M43.5586 11.39L45.3594 10.336C44.8852 9.78815 44.435 9.25221 44.0148 8.73413" stroke="#10084D" stroke-width="2" stroke-linecap="round" stroke-linejoin="round" stroke-dasharray="6 6"/>
<path d="M41.4695 5.39355C39.8248 3.10686 38.9844 1.64196 38.9844 1.64196C34.4344 0.254466 32.3335 3.51776 31.373 6.48331" stroke="#10084D" stroke-width="2" stroke-linecap="round" stroke-linejoin="round" stroke-dasharray="6 6"/>
<path d="M26.9062 39.0984C27.5065 39.4676 28.0408 39.8785 28.605 40.3251L29.3793 38.3838" stroke="#10084D" stroke-width="2" stroke-linecap="round" stroke-linejoin="round" stroke-dasharray="6 6"/>
<path d="M31.1211 33.8996L37.2738 18.1965" stroke="#10084D" stroke-width="2" stroke-linecap="round" stroke-linejoin="round" stroke-dasharray="6 6"/>
<path d="M38.1506 15.9337L38.913 13.9924C38.3127 14.3319 37.7125 14.6653 37.0762 14.9988" stroke="#10084D" stroke-width="2" stroke-linecap="round" stroke-linejoin="round" stroke-dasharray="6 6"/>
<path d="M33.4804 16.9163C29.1765 19.1434 24.9986 21.0847 22.1774 21.8886C18.984 22.7938 15.4544 22.3233 12.291 21.3944" stroke="#10084D" stroke-width="2" stroke-linecap="round" stroke-linejoin="round" stroke-dasharray="6 6"/>
<path d="M10.3578 20.7571C9.67952 20.507 9.02524 20.245 8.41297 19.9771C8.14199 20.6193 7.91144 21.2776 7.72266 21.9481" stroke="#10084D" stroke-width="2" stroke-linecap="round" stroke-linejoin="round" stroke-dasharray="6 6"/>
<path d="M6.99601 25.7771C6.81136 27.7231 6.83147 29.6829 7.05604 31.6248" stroke="#10084D" stroke-width="2" stroke-linecap="round" stroke-linejoin="round" stroke-dasharray="6 6"/>
<path d="M7.32812 33.5483C7.55022 34.8167 7.77232 35.5849 7.77232 35.5849H9.87325" stroke="#10084D" stroke-width="2" stroke-linecap="round" stroke-linejoin="round" stroke-dasharray="6 6"/>
<path d="M13.4062 35.585C17.5541 35.6862 21.5518 36.1804 25.4116 38.1873" stroke="#10084D" stroke-width="2" stroke-linecap="round" stroke-linejoin="round" stroke-dasharray="6 6"/>
<path d="M37.0757 15.0107C37.676 14.6773 38.3062 14.3438 38.9125 14.0043L36.9316 13.3076" stroke="#10084D" stroke-width="2" stroke-linecap="round" stroke-linejoin="round" stroke-dasharray="6 6"/>
<path d="M32.0327 11.5628L30.0518 10.8601C29.4347 11.1888 28.79 11.4638 28.125 11.6819" stroke="#10084D" stroke-width="2" stroke-linecap="round" stroke-linejoin="round" stroke-dasharray="6 6"/>
<path d="M22.8499 12.2179C20.194 11.8904 17.6308 11.04 15.3105 9.7168" stroke="#10084D" stroke-width="2" stroke-linecap="round" stroke-linejoin="round" stroke-dasharray="6 6"/>
<path d="M13.0478 8.32925C12.4682 7.93921 11.9092 7.51981 11.373 7.07275V9.15697" stroke="#10084D" stroke-width="2" stroke-linecap="round" stroke-linejoin="round" stroke-dasharray="6 6"/>
<path d="M11.3736 12.3606V15.3381C10.9549 15.7886 10.564 16.2639 10.2031 16.7613" stroke="#10084D" stroke-width="2" stroke-linecap="round" stroke-linejoin="round" stroke-dasharray="6 6"/>
<path d="M9.33247 18.1072C8.98671 18.7105 8.67996 19.3351 8.41406 19.977C9.01433 20.245 9.68062 20.507 10.3589 20.7571" stroke="#10084D" stroke-width="2" stroke-linecap="round" stroke-linejoin="round" stroke-dasharray="6 6"/>
<path d="M14.2656 21.8886C16.8629 22.5318 19.5798 22.5318 22.1771 21.8886C25.3945 20.9775 30.3647 18.5836 35.2809 15.9753" stroke="#10084D" stroke-width="2" stroke-linecap="round" stroke-linejoin="round" stroke-dasharray="6 6"/>
<path d="M33.2813 42.7308H31.1804C30.379 41.8783 29.5185 41.0824 28.6052 40.3489L28.4792 40.6704L27.8789 42.3081" stroke="#10084D" stroke-width="2" stroke-linecap="round" stroke-linejoin="round" stroke-dasharray="6 6"/>
<path d="M26.9854 44.7615L25.6348 48.4714" stroke="#10084D" stroke-width="2" stroke-linecap="round" stroke-linejoin="round" stroke-dasharray="6 6"/>
<path d="M25.179 49.7039L24.4707 51.663H26.5716" stroke="#10084D" stroke-width="2" stroke-linecap="round" stroke-linejoin="round" stroke-dasharray="6 6"/>
<path d="M30.8398 51.6632H77.6605C87.2648 51.6632 91.0825 48.8227 93.4655 43.1357" stroke="#10084D" stroke-width="2" stroke-linecap="round" stroke-linejoin="round" stroke-dasharray="6 6"/>
<path d="M94.2097 41.1526C94.4258 40.5154 94.6299 39.8485 94.81 39.1577C94.81 39.1577 94.0776 39.4912 92.8711 39.9557" stroke="#10084D" stroke-width="2" stroke-linecap="round" stroke-linejoin="round" stroke-dasharray="6 6"/>
<path d="M89.0889 41.248C86.26 42.1461 83.3179 42.6453 80.349 42.7308H35.2871" stroke="#10084D" stroke-width="2" stroke-linecap="round" stroke-linejoin="round" stroke-dasharray="6 6"/>
<path d="M27.8865 42.284L28.4868 40.6464L28.6128 40.3249C28.0486 39.8782 27.4843 39.4673 26.9141 39.0981" stroke="#10084D" stroke-width="2" stroke-linecap="round" stroke-linejoin="round" stroke-dasharray="6 6"/>
<path d="M23.0717 37.163C18.2155 35.3468 13.1133 35.585 7.7709 35.585C-3.03388 43.3264 2.36851 51.6633 8.6833 51.6633H20.2144" stroke="#10084D" stroke-width="2" stroke-linecap="round" stroke-linejoin="round" stroke-dasharray="6 6"/>
<path d="M22.3691 51.663H24.4701L25.1844 49.7039" stroke="#10084D" stroke-width="2" stroke-linecap="round" stroke-linejoin="round" stroke-dasharray="6 6"/>
<path d="M26.0859 47.2326L27.4365 43.5227" stroke="#10084D" stroke-width="2" stroke-linecap="round" stroke-linejoin="round" stroke-dasharray="6 6"/>
<path d="M48.7454 14.0103L42.1484 22.3769" stroke="#10084D" stroke-width="2" stroke-linecap="round" stroke-linejoin="round" stroke-dasharray="6 6"/>
<path d="M54.1473 19.9651L48.877 26.6525" stroke="#10084D" stroke-width="2" stroke-linecap="round" stroke-linejoin="round" stroke-dasharray="6 6"/>
<path d="M60.7499 24.1335L56.9922 28.8975" stroke="#10084D" stroke-width="2" stroke-linecap="round" stroke-linejoin="round" stroke-dasharray="6 6"/>
<path d="M67.3533 28.302L65.3965 30.7852" stroke="#10084D" stroke-width="2" stroke-linecap="round" stroke-linejoin="round" stroke-dasharray="6 6"/>
</svg>
