<svg width="194" height="82" viewBox="0 0 194 82" fill="none" xmlns="http://www.w3.org/2000/svg">
<path d="M50.732 77.8375C53.861 77.8375 56.3976 75.289 56.3976 72.1452C56.3976 69.0014 53.861 66.4529 50.732 66.4529C47.603 66.4529 45.0664 69.0014 45.0664 72.1452C45.0664 75.289 47.603 77.8375 50.732 77.8375Z" fill="white"/>
<path d="M50.7305 68.9829C51.353 68.9829 51.9615 69.1684 52.4792 69.5159C52.9968 69.8634 53.4002 70.3573 53.6384 70.9351C53.8767 71.513 53.939 72.1488 53.8176 72.7623C53.6961 73.3757 53.3963 73.9392 52.9561 74.3815C52.5159 74.8237 51.9551 75.1249 51.3446 75.247C50.734 75.369 50.1011 75.3063 49.526 75.067C48.9508 74.8276 48.4593 74.4223 48.1134 73.9022C47.7676 73.3822 47.583 72.7708 47.583 72.1453C47.583 71.3066 47.9146 70.5022 48.5049 69.9092C49.0951 69.3161 49.8957 68.9829 50.7305 68.9829ZM50.7305 63.9231C49.1119 63.9231 47.5297 64.4053 46.1839 65.3088C44.8381 66.2123 43.7893 67.4964 43.1699 68.9988C42.5505 70.5012 42.3883 72.1545 42.7041 73.7494C43.0199 75.3444 43.7993 76.8094 44.9438 77.9593C46.0883 79.1092 47.5465 79.8923 49.134 80.2095C50.7214 80.5268 52.3668 80.364 53.8622 79.7417C55.3576 79.1193 56.6357 78.0655 57.5349 76.7133C58.4341 75.3612 58.9141 73.7715 58.9141 72.1453C58.9141 69.9646 58.0519 67.8733 56.5172 66.3313C54.9824 64.7894 52.9009 63.9231 50.7305 63.9231Z" fill="#4F27F0"/>
<path d="M70.2457 77.8375C73.3747 77.8375 75.9112 75.289 75.9112 72.1452C75.9112 69.0014 73.3747 66.4529 70.2457 66.4529C67.1166 66.4529 64.5801 69.0014 64.5801 72.1452C64.5801 75.289 67.1166 77.8375 70.2457 77.8375Z" fill="white"/>
<path d="M70.2461 68.9829C70.8686 68.9829 71.4772 69.1684 71.9948 69.5159C72.5124 69.8634 72.9158 70.3573 73.1541 70.9351C73.3923 71.513 73.4546 72.1488 73.3332 72.7623C73.2117 73.3757 72.912 73.9392 72.4718 74.3815C72.0316 74.8237 71.4707 75.1249 70.8602 75.247C70.2496 75.369 69.6167 75.3063 69.0416 75.067C68.4664 74.8276 67.9749 74.4223 67.629 73.9022C67.2832 73.3822 67.0986 72.7708 67.0986 72.1453C67.0986 71.3066 67.4302 70.5022 68.0205 69.9092C68.6108 69.3161 69.4113 68.9829 70.2461 68.9829ZM70.2461 63.9231C68.6276 63.9231 67.0453 64.4053 65.6996 65.3088C64.3538 66.2123 63.3049 67.4964 62.6855 68.9988C62.0661 70.5012 61.904 72.1545 62.2197 73.7494C62.5355 75.3444 63.3149 76.8094 64.4594 77.9593C65.6039 79.1092 67.0621 79.8923 68.6496 80.2095C70.2371 80.5268 71.8825 80.364 73.3778 79.7417C74.8732 79.1193 76.1513 78.0655 77.0505 76.7133C77.9498 75.3612 78.4297 73.7715 78.4297 72.1453C78.4297 69.9646 77.5675 67.8733 76.0328 66.3313C74.4981 64.7894 72.4165 63.9231 70.2461 63.9231Z" fill="#4F27F0"/>
<path d="M147.675 77.8375C150.804 77.8375 153.341 75.289 153.341 72.1452C153.341 69.0014 150.804 66.4529 147.675 66.4529C144.546 66.4529 142.01 69.0014 142.01 72.1452C142.01 75.289 144.546 77.8375 147.675 77.8375Z" fill="white"/>
<path d="M147.676 68.9829C148.298 68.9829 148.907 69.1684 149.424 69.5159C149.942 69.8634 150.346 70.3573 150.584 70.9351C150.822 71.513 150.884 72.1488 150.763 72.7623C150.641 73.3757 150.342 73.9392 149.901 74.3815C149.461 74.8237 148.9 75.1249 148.29 75.247C147.679 75.369 147.046 75.3063 146.471 75.067C145.896 74.8276 145.405 74.4223 145.059 73.9022C144.713 73.3822 144.528 72.7708 144.528 72.1453C144.528 71.3066 144.86 70.5022 145.45 69.9092C146.04 69.3161 146.841 68.9829 147.676 68.9829ZM147.676 63.9231C146.057 63.9231 144.475 64.4053 143.129 65.3088C141.783 66.2123 140.735 67.4964 140.115 68.9988C139.496 70.5012 139.334 72.1545 139.649 73.7494C139.965 75.3444 140.745 76.8094 141.889 77.9593C143.034 79.1092 144.492 79.8923 146.079 80.2095C147.667 80.5268 149.312 80.364 150.808 79.7417C152.303 79.1193 153.581 78.0655 154.48 76.7133C155.379 75.3612 155.859 73.7715 155.859 72.1453C155.859 69.9646 154.997 67.8733 153.462 66.3313C151.928 64.7894 149.846 63.9231 147.676 63.9231Z" fill="#4F27F0"/>
<path d="M115.57 77.8375C118.699 77.8375 121.235 75.289 121.235 72.1452C121.235 69.0014 118.699 66.4529 115.57 66.4529C112.441 66.4529 109.904 69.0014 109.904 72.1452C109.904 75.289 112.441 77.8375 115.57 77.8375Z" fill="white"/>
<path d="M115.57 68.9829C116.193 68.9829 116.801 69.1684 117.319 69.5159C117.837 69.8634 118.24 70.3573 118.478 70.9351C118.717 71.513 118.779 72.1488 118.657 72.7623C118.536 73.3757 118.236 73.9392 117.796 74.3815C117.356 74.8237 116.795 75.1249 116.184 75.247C115.574 75.369 114.941 75.3063 114.366 75.067C113.791 74.8276 113.299 74.4223 112.953 73.9022C112.607 73.3822 112.423 72.7708 112.423 72.1453C112.423 71.3066 112.754 70.5022 113.345 69.9092C113.935 69.3161 114.736 68.9829 115.57 68.9829ZM115.57 63.9231C113.952 63.9231 112.37 64.4053 111.024 65.3088C109.678 66.2123 108.629 67.4964 108.01 68.9988C107.39 70.5012 107.228 72.1545 107.544 73.7494C107.86 75.3444 108.639 76.8094 109.784 77.9593C110.928 79.1092 112.386 79.8923 113.974 80.2095C115.561 80.5268 117.207 80.364 118.702 79.7417C120.197 79.1193 121.476 78.0655 122.375 76.7133C123.274 75.3612 123.754 73.7715 123.754 72.1453C123.754 69.9646 122.892 67.8733 121.357 66.3313C119.822 64.7894 117.741 63.9231 115.57 63.9231Z" fill="#4F27F0"/>
<path d="M166.56 77.8375C169.689 77.8375 172.226 75.289 172.226 72.1452C172.226 69.0014 169.689 66.4529 166.56 66.4529C163.431 66.4529 160.895 69.0014 160.895 72.1452C160.895 75.289 163.431 77.8375 166.56 77.8375Z" fill="white"/>
<path d="M166.561 68.9829C167.183 68.9829 167.792 69.1684 168.309 69.5159C168.827 69.8634 169.23 70.3573 169.469 70.9351C169.707 71.513 169.769 72.1488 169.648 72.7623C169.526 73.3757 169.226 73.9392 168.786 74.3815C168.346 74.8237 167.785 75.1249 167.175 75.247C166.564 75.369 165.931 75.3063 165.356 75.067C164.781 74.8276 164.289 74.4223 163.943 73.9022C163.598 73.3822 163.413 72.7708 163.413 72.1453C163.413 71.3066 163.745 70.5022 164.335 69.9092C164.925 69.3161 165.726 68.9829 166.561 68.9829ZM166.561 63.9231C164.942 63.9231 163.36 64.4053 162.014 65.3088C160.668 66.2123 159.619 67.4964 159 68.9988C158.381 70.5012 158.218 72.1545 158.534 73.7494C158.85 75.3444 159.629 76.8094 160.774 77.9593C161.918 79.1092 163.377 79.8923 164.964 80.2095C166.552 80.5268 168.197 80.364 169.692 79.7417C171.188 79.1193 172.466 78.0655 173.365 76.7133C174.264 75.3612 174.744 73.7715 174.744 72.1453C174.744 69.9646 173.882 67.8733 172.347 66.3313C170.813 64.7894 168.731 63.9231 166.561 63.9231Z" fill="#4F27F0"/>
<path d="M133.766 7H38.2335C37 7 36 8.00906 36 9.25379V65.7462C36 66.9909 37 68 38.2335 68H133.766C135 68 136 66.9909 136 65.7462V9.25379C136 8.00906 135 7 133.766 7Z" fill="white" stroke="#4F27F0" stroke-width="2" stroke-linecap="round" stroke-linejoin="round"/>
<path d="M88.367 14.0008C94.9865 14.0707 100.969 17.8296 104.827 23.1639C108.632 28.4243 110.087 35.1524 108.134 41.3295C106.264 47.2429 100.898 50.9061 95.2306 53.5174C89.3095 56.2455 82.6962 58.4711 76.7545 55.7873C70.4405 52.9353 66.0282 46.7391 65.1227 39.9178C64.2666 33.4684 68.0191 27.6821 72.3786 22.8214C76.6427 18.067 81.9509 13.9331 88.367 14.0008Z" fill="#E2DBFF"/>
<path d="M176.495 67.7179H141.519C140.982 67.7179 140.466 67.5033 140.086 67.1214C139.706 66.7394 139.492 66.2214 139.492 65.6813V25.4809C139.492 24.9408 139.706 24.4228 140.086 24.0408C140.466 23.6589 140.982 23.4443 141.519 23.4443H164.887C165.209 23.4434 165.528 23.5205 165.815 23.6691C166.102 23.8177 166.349 24.0335 166.536 24.2982L178.144 40.6414C178.389 40.9867 178.521 41.4001 178.522 41.8242V65.6813C178.522 66.2214 178.308 66.7394 177.928 67.1214C177.548 67.5033 177.032 67.7179 176.495 67.7179Z" fill="#FFB8C9" stroke="#4F27F0" stroke-width="2" stroke-linecap="round" stroke-linejoin="round"/>
<path d="M76.0053 67.7178H44.895C44.5562 67.7194 44.2238 67.6252 43.9358 67.446C43.6477 67.2669 43.4156 67.0099 43.2659 66.7046C43.1163 66.3992 43.0551 66.0577 43.0893 65.7191C43.1236 65.3804 43.2519 65.0583 43.4597 64.7894L46.9661 60.204C47.1361 59.9842 47.3537 59.8062 47.6024 59.6835C47.8511 59.5608 48.1243 59.4965 48.4014 59.4956H72.4989C72.7761 59.4956 73.0496 59.5594 73.2984 59.6822C73.5473 59.805 73.7648 59.9835 73.9342 60.204L77.4468 64.7894C77.6524 65.0594 77.7787 65.3818 77.8114 65.7201C77.8442 66.0584 77.782 66.3992 77.632 66.7038C77.482 67.0085 77.2502 67.265 76.9627 67.4442C76.6752 67.6234 76.3436 67.7181 76.0053 67.7178Z" fill="#E2DBFF" stroke="#4F27F0" stroke-width="2" stroke-linecap="round" stroke-linejoin="round"/>
<path d="M172.32 67.7178H141.209C140.871 67.7194 140.538 67.6252 140.25 67.446C139.962 67.2669 139.73 67.0099 139.58 66.7046C139.431 66.3992 139.37 66.0577 139.404 65.7191C139.438 65.3804 139.566 65.0583 139.774 64.7894L143.281 60.204C143.451 59.9842 143.668 59.8062 143.917 59.6835C144.166 59.5608 144.439 59.4965 144.716 59.4956H168.813C169.091 59.4956 169.364 59.5594 169.613 59.6822C169.862 59.805 170.079 59.9835 170.249 60.204L173.761 64.7894C173.967 65.0594 174.093 65.3818 174.126 65.7201C174.159 66.0584 174.096 66.3992 173.946 66.7038C173.796 67.0085 173.565 67.265 173.277 67.4442C172.99 67.6234 172.658 67.7181 172.32 67.7178Z" fill="#E2DBFF" stroke="#4F27F0" stroke-width="2" stroke-linecap="round" stroke-linejoin="round"/>
<path d="M125.108 67.7178H106.588C106.25 67.7194 105.917 67.6252 105.629 67.446C105.341 67.2669 105.109 67.0099 104.959 66.7046C104.81 66.3992 104.748 66.0577 104.783 65.7191C104.817 65.3804 104.945 65.0583 105.153 64.7894L108.659 60.204C108.829 59.9842 109.047 59.8062 109.296 59.6835C109.544 59.5608 109.818 59.4965 110.095 59.4956H121.602C121.879 59.4956 122.153 59.5594 122.402 59.6822C122.65 59.805 122.868 59.9835 123.037 60.204L126.55 64.7894C126.756 65.0594 126.882 65.3818 126.915 65.7201C126.947 66.0584 126.885 66.3992 126.735 66.7038C126.585 67.0085 126.353 67.265 126.066 67.4442C125.778 67.6234 125.447 67.7181 125.108 67.7178Z" fill="#E2DBFF" stroke="#4F27F0" stroke-width="2" stroke-linecap="round" stroke-linejoin="round"/>
<path d="M175.374 44.6198H147.676V26.3032H164.408L175.374 41.742V44.6198Z" fill="white" stroke="#4F27F0" stroke-width="2" stroke-linecap="round" stroke-linejoin="round"/>
<path d="M54.1047 68.7172L53.5948 68.401C54.3083 67.1138 54.6154 65.6392 54.4756 64.1726C54.3359 62.706 53.7557 61.3168 52.8122 60.1891C51.8686 59.0613 50.6062 58.2483 49.1923 57.8579C47.7783 57.4675 46.2797 57.5181 44.895 58.003C45.0029 57.3465 45.0598 56.6824 45.065 56.017C45.0674 52.8766 43.9348 49.8421 41.8777 47.4777C39.8206 45.1133 36.979 43.5799 33.8811 43.1624C30.7832 42.7449 27.6397 43.4719 25.0352 45.2081C22.4307 46.9443 20.5423 49.5716 19.721 52.6016C18.1742 51.2929 16.2983 50.438 14.2994 50.1309C12.3006 49.8238 10.2561 50.0763 8.39082 50.8608C6.5255 51.6452 4.91154 52.9311 3.72637 54.5772C2.5412 56.2233 1.83068 58.1659 1.67294 60.1914H1.62891C1.62891 60.3748 1.62891 60.5456 1.62891 60.729C1.62891 60.9124 1.62891 60.9377 1.62891 61.0452C1.63068 61.515 1.66435 61.9841 1.72965 62.4493C3.08309 79.4314 19.5699 80.3358 19.5699 80.3358H78.2149C63.5159 80.3675 54.1047 68.7172 54.1047 68.7172Z" fill="white" stroke="#4F27F0" stroke-width="2" stroke-linecap="round" stroke-linejoin="round"/>
<path d="M33.0664 60.9693C33.7433 59.3537 34.956 58.0232 36.4985 57.204C38.041 56.3848 39.8182 56.1273 41.5282 56.4752C43.2382 56.8232 44.7756 57.7551 45.8793 59.1127C46.983 60.4704 47.585 62.17 47.5829 63.923" stroke="#4F27F0" stroke-width="2" stroke-linecap="round" stroke-linejoin="round"/>
<path d="M34.9941 51.2734C36.3298 51.2734 37.6107 51.8065 38.5552 52.7554C39.4996 53.7043 40.0302 54.9913 40.0302 56.3333" stroke="#4F27F0" stroke-width="2" stroke-linecap="round" stroke-linejoin="round"/>
<path d="M14.2188 57.5984C14.2188 56.2565 14.7493 54.9695 15.6938 54.0206C16.6382 53.0717 17.9192 52.5386 19.2548 52.5386" stroke="#4F27F0" stroke-width="2" stroke-linecap="round" stroke-linejoin="round"/>
<path d="M147.676 48.8892H152.422" stroke="#4F27F0" stroke-width="2" stroke-linecap="round" stroke-linejoin="round"/>
<path d="M177.893 58.2308C176.807 58.2308 175.767 57.7976 174.999 57.0266C174.232 56.2557 173.801 55.21 173.801 54.1197C173.801 53.0293 174.232 51.9836 174.999 51.2127C175.767 50.4417 176.807 50.0085 177.893 50.0085" fill="#FFD372"/>
<path d="M177.893 58.2308C176.807 58.2308 175.767 57.7976 174.999 57.0266C174.232 56.2557 173.801 55.21 173.801 54.1197C173.801 53.0293 174.232 51.9836 174.999 51.2127C175.767 50.4417 176.807 50.0085 177.893 50.0085" stroke="#4F27F0" stroke-width="2" stroke-linecap="round" stroke-linejoin="round"/>
<path d="M162.155 26.6069L156.955 31.8312" stroke="#4F27F0" stroke-width="2" stroke-linecap="round" stroke-linejoin="round"/>
<path d="M161.525 31.0342L153.971 38.6239" stroke="#4F27F0" stroke-width="2" stroke-linecap="round" stroke-linejoin="round"/>
<path d="M164.043 39.8889L161.525 42.4188" stroke="#4F27F0" stroke-width="2" stroke-linecap="round" stroke-linejoin="round"/>
<path d="M96.0566 80.3674H126.928" stroke="#4F27F0" stroke-width="2" stroke-linecap="round" stroke-linejoin="round"/>
<path d="M136.975 80.3674H155.86" stroke="#4F27F0" stroke-width="2" stroke-linecap="round" stroke-linejoin="round"/>
<path d="M159.637 80.3674H183.558" stroke="#4F27F0" stroke-width="2" stroke-linecap="round" stroke-linejoin="round"/>
<path d="M187.965 80.3674H192.371" stroke="#4F27F0" stroke-width="2" stroke-linecap="round" stroke-linejoin="round"/>
<g clip-path="url(#clip0_1731_10738)">
<path d="M59.3951 33.8421L84.2217 50.4399C84.2217 50.4399 86.9256 52.3926 95.283 52.3926H114.21C114.21 52.3926 115.439 50.684 114.21 48.9754H95.0372C95.0372 48.9754 89.1378 48.9754 85.2049 46.2904C81.272 43.6055 60.8699 29.9368 60.8699 29.9368C60.2206 30.3311 59.7228 30.9297 59.4555 31.6374C59.1883 32.345 59.167 33.1211 59.3951 33.8421Z" fill="white" stroke="#4F27F0" stroke-width="0.939111" stroke-linecap="round" stroke-linejoin="round"/>
<path d="M109.173 40.5542C94.4242 32.4994 93.441 27.6178 91.4745 22.9801C89.5081 18.3425 87.5416 16.6339 85.5752 17.6103C83.6087 18.5866 85.5752 23.2242 85.5752 23.2242C87.5416 27.6178 93.5098 37.098 109.173 40.5542Z" fill="#FFD372" stroke="#4F27F0" stroke-width="0.939111" stroke-linecap="round" stroke-linejoin="round"/>
<path d="M109.294 40.6765C93.631 37.2203 87.6628 27.74 85.6963 23.3465C83.7299 18.953 81.2718 19.1971 77.0931 20.1734C72.9143 21.1497 70.4562 17.2444 70.4562 17.2444C70.3514 17.2802 70.2457 17.3192 70.1391 17.3615L70.0359 17.403L69.827 17.4933L69.7065 17.547L69.5173 17.6374L69.3944 17.6984L69.2149 17.7936L69.092 17.8595L68.9126 17.9644L68.797 18.0328L68.6127 18.1499L68.5094 18.2158L68.3005 18.3574L68.2243 18.4087L67.9441 18.6161H67.9293L67.6835 18.8187L67.6049 18.8846L67.4156 19.0433L67.3222 19.1238L67.1501 19.2752L67.0567 19.363L66.8896 19.5193L66.7986 19.6071L66.6339 19.7731L66.5479 19.8561L66.3734 20.0392L66.3045 20.1124C66.2341 20.1889 66.1653 20.2645 66.0981 20.3394L66.0661 20.3736L65.8203 20.6518C72.6685 23.3465 77.5847 26.5196 79.797 31.6454C82.0092 36.7712 88.4002 43.8496 97.4951 44.3378C106.59 44.826 110.26 47.9991 110.39 48.9754H114.21C114.21 44.826 111.506 41.1647 109.294 40.6765Z" fill="#FFB8C9" stroke="#4F27F0" stroke-width="0.939111" stroke-linecap="round" stroke-linejoin="round"/>
<path d="M97.496 44.3376C88.4011 43.8494 82.0101 36.771 79.7978 31.6452C77.5855 26.5194 72.6694 23.3463 65.8138 20.6614C62.52 24.5252 60.873 29.9366 60.873 29.9366C60.873 29.9366 81.2751 43.6053 85.208 46.2903C89.141 48.9752 95.0404 48.9752 95.0404 48.9752H110.394C110.261 47.9989 106.591 44.8258 97.496 44.3376Z" fill="#4F27F0" stroke="#4F27F0" stroke-width="0.939111" stroke-linecap="round" stroke-linejoin="round"/>
<path d="M84.0986 26.0313C84.5738 26.0313 84.9589 25.6489 84.9589 25.1771C84.9589 24.7052 84.5738 24.3228 84.0986 24.3228C83.6235 24.3228 83.2383 24.7052 83.2383 25.1771C83.2383 25.6489 83.6235 26.0313 84.0986 26.0313Z" stroke="#4F27F0" stroke-width="0.939111" stroke-linecap="round" stroke-linejoin="round"/>
<path d="M86.5576 30.669C87.0327 30.669 87.4179 30.2866 87.4179 29.8147C87.4179 29.3429 87.0327 28.9604 86.5576 28.9604C86.0824 28.9604 85.6973 29.3429 85.6973 29.8147C85.6973 30.2866 86.0824 30.669 86.5576 30.669Z" stroke="#4F27F0" stroke-width="0.939111" stroke-linecap="round" stroke-linejoin="round"/>
<path d="M89.5068 34.5743C89.982 34.5743 90.3671 34.1918 90.3671 33.72C90.3671 33.2482 89.982 32.8657 89.5068 32.8657C89.0317 32.8657 88.6465 33.2482 88.6465 33.72C88.6465 34.1918 89.0317 34.5743 89.5068 34.5743Z" stroke="#4F27F0" stroke-width="0.939111" stroke-linecap="round" stroke-linejoin="round"/>
<path d="M93.4404 37.2591C93.9156 37.2591 94.3007 36.8766 94.3007 36.4048C94.3007 35.933 93.9156 35.5505 93.4404 35.5505C92.9653 35.5505 92.5801 35.933 92.5801 36.4048C92.5801 36.8766 92.9653 37.2591 93.4404 37.2591Z" stroke="#4F27F0" stroke-width="0.939111" stroke-linecap="round" stroke-linejoin="round"/>
<path d="M97.6181 39.7C98.0933 39.7 98.4785 39.3176 98.4785 38.8458C98.4785 38.3739 98.0933 37.9915 97.6181 37.9915C97.143 37.9915 96.7578 38.3739 96.7578 38.8458C96.7578 39.3176 97.143 39.7 97.6181 39.7Z" stroke="#4F27F0" stroke-width="0.939111" stroke-linecap="round" stroke-linejoin="round"/>
<path d="M85.082 25.055L91.473 21.2717" stroke="#4F27F0" stroke-width="0.939111" stroke-linecap="round" stroke-linejoin="round"/>
<path d="M87.2949 29.0824L93.1943 25.177" stroke="#4F27F0" stroke-width="0.939111" stroke-linecap="round" stroke-linejoin="round"/>
<path d="M90.2637 33.022L95.1823 28.8384" stroke="#4F27F0" stroke-width="0.939111" stroke-linecap="round" stroke-linejoin="round"/>
<path d="M98.1115 32.0115L94.2031 35.7118" stroke="#4F27F0" stroke-width="0.939111" stroke-linecap="round" stroke-linejoin="round"/>
<path d="M101.305 34.6963L98.3555 37.8694" stroke="#4F27F0" stroke-width="0.939111" stroke-linecap="round" stroke-linejoin="round"/>
<path d="M67.9297 18.626H67.9446H67.9297Z" stroke="#4F27F0" stroke-width="0.939111" stroke-linecap="round" stroke-linejoin="round"/>
<path d="M67.5938 18.8943L67.6724 18.8284L67.5938 18.8943Z" stroke="#4F27F0" stroke-width="0.939111" stroke-linecap="round" stroke-linejoin="round"/>
<path d="M68.7988 18.0327L68.9144 17.9644L68.7988 18.0327Z" stroke="#4F27F0" stroke-width="0.939111" stroke-linecap="round" stroke-linejoin="round"/>
<path d="M68.5098 18.2207L68.613 18.1548L68.5098 18.2207Z" stroke="#4F27F0" stroke-width="0.939111" stroke-linecap="round" stroke-linejoin="round"/>
<path d="M67.3105 19.1335L67.404 19.053L67.3105 19.1335Z" stroke="#4F27F0" stroke-width="0.939111" stroke-linecap="round" stroke-linejoin="round"/>
<path d="M68.2246 18.4084L68.3008 18.3572L68.2246 18.4084Z" stroke="#4F27F0" stroke-width="0.939111" stroke-linecap="round" stroke-linejoin="round"/>
<path d="M66.0547 20.3829L66.0863 20.3491L66.0547 20.3829Z" stroke="#4F27F0" stroke-width="0.939111" stroke-linecap="round" stroke-linejoin="round"/>
<path d="M66.293 20.1218L66.3618 20.0486L66.293 20.1218Z" stroke="#4F27F0" stroke-width="0.939111" stroke-linecap="round" stroke-linejoin="round"/>
<path d="M67.0449 19.3728L67.1383 19.2849L67.0449 19.3728Z" stroke="#4F27F0" stroke-width="0.939111" stroke-linecap="round" stroke-linejoin="round"/>
<path d="M66.5371 19.8657L66.6231 19.7827L66.5371 19.8657Z" stroke="#4F27F0" stroke-width="0.939111" stroke-linecap="round" stroke-linejoin="round"/>
<path d="M66.7871 19.6167L66.8781 19.5288L66.7871 19.6167Z" stroke="#4F27F0" stroke-width="0.939111" stroke-linecap="round" stroke-linejoin="round"/>
<path d="M69.0938 17.8594L69.2167 17.7935L69.0938 17.8594Z" stroke="#4F27F0" stroke-width="0.939111" stroke-linecap="round" stroke-linejoin="round"/>
<path d="M70.0371 17.4028L70.1403 17.3613L70.0371 17.4028Z" stroke="#4F27F0" stroke-width="0.939111" stroke-linecap="round" stroke-linejoin="round"/>
<path d="M69.3945 17.6982L69.5174 17.6372L69.3945 17.6982Z" stroke="#4F27F0" stroke-width="0.939111" stroke-linecap="round" stroke-linejoin="round"/>
<path d="M69.7188 17.5469L69.8392 17.4932L69.7188 17.5469Z" stroke="#4F27F0" stroke-width="0.939111" stroke-linecap="round" stroke-linejoin="round"/>
<path d="M67.1387 19.2849L67.3107 19.1335L67.1387 19.2849Z" stroke="#4F27F0" stroke-width="0.939111" stroke-linecap="round" stroke-linejoin="round"/>
<path d="M66.623 19.7827L66.7877 19.6167L66.623 19.7827Z" stroke="#4F27F0" stroke-width="0.939111" stroke-linecap="round" stroke-linejoin="round"/>
<path d="M70.1406 17.3615C70.2455 17.3209 70.3512 17.2818 70.4577 17.2444C70.3528 17.2818 70.2471 17.3209 70.1406 17.3615Z" stroke="#4F27F0" stroke-width="0.939111" stroke-linecap="round" stroke-linejoin="round"/>
<path d="M65.8145 20.6613L66.0603 20.3831L65.8145 20.6613Z" stroke="#4F27F0" stroke-width="0.939111" stroke-linecap="round" stroke-linejoin="round"/>
<path d="M68.9141 17.9763L69.0935 17.8713L68.9141 17.9763Z" stroke="#4F27F0" stroke-width="0.939111" stroke-linecap="round" stroke-linejoin="round"/>
<path d="M66.0859 20.3491C66.1515 20.2726 66.2203 20.1969 66.2924 20.1221C66.222 20.1986 66.1531 20.2742 66.0859 20.3491Z" stroke="#4F27F0" stroke-width="0.939111" stroke-linecap="round" stroke-linejoin="round"/>
<path d="M66.3613 20.0488L66.5359 19.8657L66.3613 20.0488Z" stroke="#4F27F0" stroke-width="0.939111" stroke-linecap="round" stroke-linejoin="round"/>
<path d="M66.8789 19.5288L67.0461 19.3726L66.8789 19.5288Z" stroke="#4F27F0" stroke-width="0.939111" stroke-linecap="round" stroke-linejoin="round"/>
<path d="M69.2285 17.7934L69.408 17.6982L69.2285 17.7934Z" stroke="#4F27F0" stroke-width="0.939111" stroke-linecap="round" stroke-linejoin="round"/>
<path d="M67.9453 18.6159L68.2255 18.4084L67.9453 18.6159Z" stroke="#4F27F0" stroke-width="0.939111" stroke-linecap="round" stroke-linejoin="round"/>
<path d="M68.3008 18.3574L68.5097 18.2158L68.3008 18.3574Z" stroke="#4F27F0" stroke-width="0.939111" stroke-linecap="round" stroke-linejoin="round"/>
<path d="M69.8281 17.4885L70.0371 17.3982L69.8281 17.4885Z" stroke="#4F27F0" stroke-width="0.939111" stroke-linecap="round" stroke-linejoin="round"/>
<path d="M68.6133 18.1496L68.7976 18.0325L68.6133 18.1496Z" stroke="#4F27F0" stroke-width="0.939111" stroke-linecap="round" stroke-linejoin="round"/>
<path d="M69.5176 17.6372L69.7068 17.5469L69.5176 17.6372Z" stroke="#4F27F0" stroke-width="0.939111" stroke-linecap="round" stroke-linejoin="round"/>
<path d="M67.6719 18.8286L67.9177 18.626L67.6719 18.8286Z" stroke="#4F27F0" stroke-width="0.939111" stroke-linecap="round" stroke-linejoin="round"/>
<path d="M67.4043 19.0529L67.5936 18.8943L67.4043 19.0529Z" stroke="#4F27F0" stroke-width="0.939111" stroke-linecap="round" stroke-linejoin="round"/>
</g>
<rect x="53" y="13" width="68" height="44" fill="white"/>
<ellipse cx="86.5" cy="35.5" rx="27.5" ry="21.5" fill="#E2DBFF"/>
<path d="M85.6161 25.8635C85.6161 25.8635 93.6453 37.9967 112.51 38.4001C112.51 38.4001 114.788 38.8215 115.115 41.7126C114.562 43.9206 107.767 45.3805 100.938 45.0779C94.1079 44.7753 80.0517 44.4661 80.0517 44.4661C80.0517 44.4661 76.9347 44.3397 75.7285 43.2841L81.0939 27.8066L84.8671 26.1795L85.6161 25.8635Z" fill="#4329E2"/>
<path d="M102.548 45.1965C102.01 45.1965 101.473 45.1844 100.935 45.1602C94.1843 44.8616 80.1901 44.5523 80.0502 44.5483C79.9104 44.5443 76.8942 44.4138 75.684 43.3502L75.6504 43.3206L75.6652 43.2776L81.044 27.7719L84.8333 26.1327L85.6401 25.7952L85.6697 25.8422C85.6899 25.8718 87.7244 28.9028 92.0301 31.9445C96.0051 34.7508 102.788 38.1408 112.504 38.3479C112.534 38.3479 114.91 38.6034 115.24 41.5147V41.5268V41.5389C114.733 43.5721 108.894 45.1965 102.548 45.1965ZM75.805 43.2789C77.0032 44.2794 80.0207 44.4125 80.0516 44.4138C80.1861 44.4138 94.187 44.7272 100.939 45.0257C107.806 45.3309 114.548 43.6595 115.108 41.5174C114.788 38.7298 112.595 38.4918 112.502 38.4824C102.747 38.274 95.9419 34.8692 91.9521 32.0507C87.9181 29.1999 85.8674 26.3559 85.5931 25.9619L84.8898 26.2564L81.1448 27.87L75.805 43.2789Z" fill="black"/>
<path d="M81.509 27.9485C81.509 27.9485 79.1853 26.1251 75.5762 26.2771C75.5762 26.2771 77.3619 25.6881 77.2786 22.048C78.5762 20.031 81.3611 20.1654 81.3611 20.1654L85.6318 26.1803L81.509 27.9485Z" fill="#04007F"/>
<path d="M81.4921 27.9973C81.4769 27.9978 81.462 27.9925 81.4505 27.9825C81.4276 27.965 79.0999 26.1779 75.562 26.3258C75.5457 26.327 75.5296 26.322 75.5169 26.3117C75.5042 26.3015 75.4958 26.2868 75.4935 26.2707C75.4903 26.2547 75.4931 26.2381 75.5012 26.224C75.5094 26.2099 75.5224 26.1993 75.5378 26.194C75.5553 26.194 77.2752 25.5714 77.1945 22.0255C77.1946 22.0122 77.1983 21.9991 77.2052 21.9878C78.5083 19.9587 81.32 20.073 81.3483 20.0743C81.3583 20.075 81.3681 20.078 81.3769 20.0828C81.3857 20.0877 81.3934 20.0944 81.3994 20.1025L85.6701 26.1187C85.6757 26.1269 85.6794 26.1362 85.681 26.1459C85.6826 26.1557 85.6821 26.1657 85.6795 26.1752C85.6767 26.1849 85.6718 26.1938 85.665 26.2012C85.6583 26.2087 85.6499 26.2145 85.6405 26.2182L81.519 27.9865C81.511 27.9921 81.5018 27.9958 81.4921 27.9973ZM75.9789 26.1819C79.112 26.1819 81.2232 27.645 81.5002 27.8534L85.5101 26.1335L81.3079 20.2168C81 20.2168 78.519 20.2168 77.329 22.051C77.3868 24.8507 76.3594 25.8592 75.8498 26.186L75.9789 26.1819Z" fill="black"/>
<path d="M69.1037 32.6197C66.2798 32.6197 64.0597 32.2055 63.4425 31.5627C63.2583 31.3718 63.4533 31.1001 63.8768 30.5502C64.5411 29.6869 65.6532 28.2427 65.516 25.8437C65.516 25.8343 65.4488 25.0557 65.7648 24.7115C65.8111 24.6593 65.8684 24.618 65.9326 24.5906C65.9968 24.5632 66.0662 24.5503 66.1359 24.5528C66.3591 24.5528 66.6402 24.6658 66.9737 24.8876L67.088 24.9643C68.3318 25.798 70.4121 27.1911 72.655 27.1911C73.6561 27.1929 74.6364 26.9062 75.4789 26.3655C75.778 26.2914 76.0851 26.2548 76.3933 26.2565C78.4359 26.2565 80.777 27.6685 81.2584 27.9737C80.5686 28.3946 76.1687 31.0665 74.153 31.9486C73.1929 32.3601 71.2552 32.6197 69.1037 32.6197Z" fill="#A194FF"/>
<path d="M66.1343 24.6339C66.3441 24.6339 66.613 24.7428 66.9412 24.9579L67.0555 25.0346C68.3047 25.871 70.3957 27.2721 72.6588 27.2721C73.6671 27.2724 74.6545 26.984 75.5042 26.4411C75.7946 26.3702 76.0927 26.3354 76.3917 26.3376C78.3079 26.3376 80.4957 27.5962 81.129 27.9862C80.2066 28.5483 76.0609 31.0561 74.1259 31.9006C73.1779 32.3148 71.2563 32.5729 69.1075 32.5729C66.3455 32.5729 64.0904 32.1561 63.4947 31.5375C63.3495 31.3869 63.5458 31.1166 63.9344 30.6124C64.6068 29.741 65.7255 28.2847 65.5857 25.8508C65.5682 25.641 65.5736 25.044 65.8183 24.775C65.8589 24.7306 65.9086 24.6955 65.9641 24.6722C66.0197 24.649 66.0796 24.6382 66.1397 24.6406L66.1343 24.6339ZM66.1397 24.5061C65.3329 24.5061 65.4526 25.8683 65.4526 25.8683C65.6691 29.6671 62.778 30.9902 63.3979 31.6357C64.0944 32.3605 66.609 32.7114 69.1075 32.7114C71.1326 32.7114 73.1415 32.4802 74.1797 32.0297C76.3876 31.0655 81.3832 27.9956 81.3832 27.9956C81.3832 27.9956 78.7167 26.2098 76.3917 26.2098C76.0743 26.2074 75.758 26.2458 75.4504 26.3241C74.6185 26.8612 73.649 27.1461 72.6588 27.1444C70.3728 27.1444 68.2737 25.6948 67.0111 24.8584C66.6386 24.6096 66.3535 24.5115 66.1357 24.5115L66.1397 24.5061Z" fill="black"/>
<path d="M81.3889 27.8083L75.7288 43.6385C74.5059 42.791 73.2397 42.0078 71.9354 41.292C69.562 39.9674 62.5723 40.7985 62.5723 40.7985C62.5723 40.7985 62.7619 36.5492 62.6704 34.4501C62.5723 32.1803 63.2782 31.6034 63.2782 31.6034C63.2782 31.6034 68.3722 33.4292 72.8097 32.2458C77.2472 31.0625 81.3889 27.8083 81.3889 27.8083Z" fill="#2A66FF"/>
<path d="M115.115 42.0083C115.115 42.0083 115.52 48.9754 107.756 50.3631C100.375 51.6823 70.6895 50.6469 64.3829 50.4089C63.1319 50.3726 61.9205 49.9617 60.9055 49.2296C59.0807 47.8849 57.5438 45.221 62.347 40.5442C62.347 40.5442 70.231 40.0951 71.7101 41.0377C73.1893 41.9803 75.5412 44.4075 79.8267 44.5662C83.7115 44.7087 102.763 44.897 106.296 44.9306C106.701 44.935 107.107 44.9008 107.506 44.8284C109.237 44.5097 114.101 43.9043 115.115 42.0083Z" fill="#FFEDBF"/>
<path d="M108.016 51.0244H63.7871C63.7292 51.0244 59.0954 50.8294 58.8789 45.8688V45.8433V45.8177C59.0093 44.3224 60.3433 42.8177 61.3222 41.7191C61.7256 41.274 62.0941 40.8531 62.1976 40.6312C62.4235 40.1525 62.3818 36.9145 62.2111 34.0624V34.0341V34.0059C62.2191 33.8956 62.441 31.3058 63.8099 30.1063C64.8991 29.1475 65.2407 26.4124 65.1398 25.5061C65.078 24.948 65.3079 24.4653 65.7557 24.2165C65.9788 24.096 66.2322 24.0432 66.4849 24.0644C66.7375 24.0857 66.9785 24.1801 67.1784 24.3362L67.1945 24.3496C67.2228 24.3752 70.0574 26.8145 72.9256 26.8145C73.048 26.8145 73.169 26.8145 73.2914 26.801C74.4747 26.7109 75.5021 26.173 76.3439 25.2022C76.4461 24.9225 76.8602 23.6961 76.7984 22.4778C76.7782 22.0744 76.9449 21.4585 77.8593 20.848C78.958 20.1152 80.9387 19.5733 81.5142 19.8476C81.7186 19.9444 81.8558 20.1582 82.4044 21.0484C83.9212 23.5065 87.9486 30.0337 95.2799 33.7598C104.3 38.3439 107.389 38.4878 112.073 38.3506C113.073 38.321 113.928 38.6639 114.544 39.3403C115.386 40.2641 115.766 41.7944 115.565 43.4322C115.368 45.0109 113.571 49.7953 108.057 51.0204L108.016 51.0244ZM59.6817 45.8608C59.8794 50.0387 63.6365 50.2135 63.7965 50.2189H107.927C112.952 49.08 114.588 44.7581 114.765 43.3287C114.899 42.2422 114.755 40.7657 113.95 39.8795C113.49 39.3753 112.866 39.1305 112.097 39.1534C107.424 39.2879 104.092 39.1386 94.9155 34.4752C87.3852 30.6469 83.2691 23.9785 81.72 21.4679C81.4887 21.0941 81.252 20.7095 81.1431 20.5724C80.7222 20.532 78.9983 20.9354 78.0758 21.6871C77.8526 21.8673 77.5917 22.1443 77.6065 22.4334C77.6859 23.9919 77.0982 25.4926 77.0687 25.5558L77.0444 25.6177L77.0014 25.6674C76.005 26.844 74.7759 27.4935 73.3465 27.6011C71.94 27.706 70.3882 27.2918 68.7261 26.3667C67.9992 25.9637 67.3121 25.4928 66.6741 24.9601C66.5999 24.9033 66.5109 24.8689 66.4177 24.861C66.3246 24.8532 66.2311 24.8722 66.1484 24.9158C65.9883 25.0058 65.9171 25.1766 65.9426 25.4119C66.0542 26.4191 65.7436 29.4743 64.3438 30.706C63.2855 31.6379 63.0434 33.784 63.0179 34.0449C63.0824 35.1207 63.35 40.0772 62.9278 40.9741C62.7745 41.3022 62.3993 41.7231 61.9247 42.2556C61.0264 43.2628 59.8 44.6384 59.6817 45.8608Z" fill="#3B2D91"/>
<path d="M104.991 45.5924C102.862 45.5924 100.941 45.4929 100.912 45.4915C100.805 45.486 100.705 45.4382 100.633 45.3586C100.562 45.2791 100.524 45.1743 100.53 45.0673C100.535 44.9603 100.583 44.8599 100.663 44.7881C100.742 44.7164 100.847 44.6792 100.954 44.6847C100.997 44.6847 105.277 44.9079 108.094 44.6847C110.847 44.4682 114.97 42.0383 115.012 42.0141C115.057 41.986 115.108 41.9673 115.161 41.959C115.214 41.9507 115.268 41.953 115.32 41.9658C115.372 41.9786 115.421 42.0017 115.464 42.0336C115.507 42.0655 115.543 42.1057 115.57 42.1517C115.598 42.1978 115.615 42.2489 115.623 42.3019C115.63 42.355 115.627 42.409 115.613 42.4607C115.6 42.5125 115.576 42.5611 115.543 42.6035C115.51 42.646 115.47 42.6815 115.423 42.708C115.248 42.8129 111.096 45.2629 108.162 45.4902C107.195 45.5722 106.067 45.5924 104.991 45.5924Z" fill="#3B2D91"/>
<path d="M97.5223 45.5835L79.1618 45.254H79.1322C76.7696 44.7629 74.5674 43.6886 72.726 42.129C71.2146 40.8408 64.8999 41.0142 62.5937 41.1877C62.4867 41.1959 62.3809 41.1613 62.2994 41.0914C62.218 41.0215 62.1676 40.9222 62.1594 40.8152C62.1512 40.7082 62.1858 40.6023 62.2557 40.5209C62.3255 40.4394 62.4249 40.3891 62.5319 40.3809C63.414 40.3136 71.2119 39.7744 73.2491 41.5118C74.9783 42.9588 77.0325 43.9652 79.2357 44.4445L97.5236 44.7726C97.6306 44.7737 97.7328 44.8172 97.8077 44.8937C97.8826 44.9701 97.9241 45.0731 97.923 45.1801C97.9219 45.2871 97.8784 45.3893 97.802 45.4642C97.7256 45.5391 97.6225 45.5805 97.5155 45.5795L97.5223 45.5835Z" fill="#3B2D91"/>
<path d="M75.7144 44.0273C75.6661 44.0272 75.6183 44.0186 75.5732 44.0017C75.5234 43.9832 75.4778 43.955 75.4389 43.9188C75.4 43.8826 75.3687 43.839 75.3467 43.7907C75.3247 43.7423 75.3125 43.6901 75.3108 43.637C75.309 43.5839 75.3178 43.531 75.3365 43.4813L77.527 37.6641C77.568 37.5688 77.6441 37.4929 77.7396 37.4522C77.8351 37.4115 77.9426 37.4092 78.0397 37.4457C78.1368 37.4823 78.2162 37.5549 78.2612 37.6484C78.3062 37.7419 78.3134 37.8492 78.2814 37.9479L76.0922 43.7664C76.0632 43.8431 76.0115 43.9092 75.944 43.9558C75.8765 44.0024 75.7964 44.0274 75.7144 44.0273Z" fill="#3B2D91"/>
<path d="M78.9643 35.1874C78.9185 35.1877 78.8729 35.18 78.8298 35.1645C78.7292 35.1289 78.6467 35.0548 78.6006 34.9586C78.5545 34.8623 78.5484 34.7516 78.5837 34.6509L80.9087 28.039C80.3278 27.6356 78.5662 26.6284 75.7262 26.7145C75.6733 26.7161 75.6205 26.7072 75.5709 26.6884C75.5214 26.6696 75.476 26.6412 75.4374 26.6049C75.3989 26.5685 75.3678 26.525 75.3461 26.4766C75.3243 26.4283 75.3123 26.3761 75.3107 26.3232C75.3091 26.2702 75.318 26.2174 75.3368 26.1679C75.3556 26.1183 75.384 26.0729 75.4203 26.0344C75.4567 25.9958 75.5002 25.9647 75.5486 25.943C75.5969 25.9212 75.6491 25.9092 75.702 25.9076C79.56 25.792 81.5703 27.5213 81.6537 27.5899L81.8581 27.7701L79.3448 34.9185C79.317 34.9972 79.2655 35.0653 79.1973 35.1134C79.1291 35.1616 79.0477 35.1875 78.9643 35.1874Z" fill="#3B2D91"/>
<path d="M70.4625 33.1351C68.5382 33.1351 66.2939 32.6725 63.2011 31.8617C63.1477 31.8504 63.0972 31.8285 63.0525 31.7971C63.0078 31.7658 62.97 31.7257 62.9413 31.6793C62.9125 31.6329 62.8935 31.5811 62.8854 31.5271C62.8772 31.4732 62.8801 31.4181 62.8939 31.3653C62.9076 31.3125 62.9319 31.263 62.9654 31.2199C62.9988 31.1767 63.0406 31.1408 63.0883 31.1143C63.136 31.0878 63.1886 31.0712 63.2429 31.0657C63.2972 31.0601 63.3521 31.0655 63.4042 31.0818C70.8646 33.0289 72.9206 32.6456 76.5997 30.2077C80.7683 27.447 85.4505 25.9356 85.4962 25.9208C85.5982 25.8882 85.709 25.8974 85.8042 25.9465C85.8994 25.9955 85.9712 26.0804 86.0039 26.1824C86.0365 26.2844 86.0273 26.3951 85.9782 26.4903C85.9292 26.5855 85.8443 26.6573 85.7423 26.69C85.6966 26.7048 81.1152 28.1826 77.0448 30.8814C74.6674 32.452 72.7996 33.1351 70.4625 33.1351Z" fill="#3B2D91"/>
<path d="M83.6827 32.7444C83.6065 32.7445 83.5318 32.7229 83.4674 32.6822C83.4029 32.6415 83.3513 32.5834 83.3185 32.5146C83.2857 32.4457 83.2731 32.3691 83.2821 32.2934C83.2911 32.2177 83.3214 32.1461 83.3694 32.0869L86.7513 27.9183C86.7847 27.8772 86.8259 27.843 86.8724 27.8178C86.919 27.7925 86.9701 27.7767 87.0228 27.7712C87.0755 27.7657 87.1288 27.7707 87.1796 27.7858C87.2303 27.8008 87.2777 27.8258 87.3188 27.8592C87.3599 27.8925 87.3941 27.9337 87.4194 27.9803C87.4446 28.0268 87.4604 28.0779 87.4659 28.1306C87.4714 28.1833 87.4665 28.2366 87.4514 28.2874C87.4363 28.3382 87.4113 28.3855 87.378 28.4266L83.996 32.5952C83.9582 32.6418 83.9105 32.6794 83.8563 32.7052C83.8021 32.7311 83.7428 32.7445 83.6827 32.7444Z" fill="#FFEDBF"/>
<path d="M88.3223 35.3416C88.2794 35.3413 88.2367 35.3345 88.1959 35.3214C88.0945 35.2876 88.0106 35.215 87.9627 35.1194C87.9148 35.0239 87.9068 34.9132 87.9404 34.8118L89.3886 30.42C89.4223 30.3184 89.495 30.2343 89.5907 30.1862C89.6864 30.1382 89.7973 30.1301 89.8989 30.1638C90.0006 30.1975 90.0847 30.2702 90.1327 30.3659C90.1808 30.4616 90.1888 30.5725 90.1551 30.6741L88.7055 35.0646C88.6789 35.1452 88.6276 35.2154 88.5588 35.2651C88.4899 35.3149 88.4072 35.3416 88.3223 35.3416Z" fill="#FFEDBF"/>
<path d="M92.1257 37.2155C92.061 37.2157 91.9972 37.2004 91.9397 37.1709C91.8822 37.1413 91.8326 37.0983 91.7952 37.0456C91.7577 36.9929 91.7335 36.9319 91.7246 36.8679C91.7156 36.8038 91.7222 36.7386 91.7438 36.6776L92.9137 33.2284C92.9483 33.1272 93.0217 33.0438 93.1177 32.9966C93.2138 32.9494 93.3247 32.9424 93.426 32.977C93.5273 33.0116 93.6107 33.085 93.6578 33.1811C93.705 33.2771 93.712 33.388 93.6774 33.4893L92.5103 36.9425C92.4829 37.0226 92.431 37.0921 92.362 37.141C92.293 37.19 92.2103 37.2161 92.1257 37.2155Z" fill="#FFEDBF"/>
<path d="M96.1549 38.7563H96.1186C96.0658 38.7517 96.0144 38.7368 95.9674 38.7123C95.9204 38.6879 95.8786 38.6544 95.8445 38.6138C95.8104 38.5733 95.7847 38.5263 95.7687 38.4758C95.7528 38.4253 95.7469 38.3721 95.7515 38.3193L96.0554 34.7612C96.0599 34.7082 96.0748 34.6566 96.0993 34.6094C96.1237 34.5622 96.1572 34.5203 96.1978 34.486C96.2385 34.4517 96.2855 34.4258 96.3361 34.4097C96.3868 34.3936 96.4402 34.3876 96.4931 34.3921C96.5461 34.3966 96.5977 34.4115 96.6449 34.4359C96.6921 34.4603 96.7341 34.4938 96.7683 34.5345C96.8026 34.5751 96.8285 34.6221 96.8447 34.6728C96.8608 34.7235 96.8667 34.7768 96.8622 34.8298L96.5583 38.3878C96.5496 38.4887 96.5032 38.5825 96.4285 38.6507C96.3538 38.719 96.2561 38.7567 96.1549 38.7563Z" fill="#FFEDBF"/>
<path d="M100.933 39.5724C100.826 39.5724 100.723 39.5299 100.647 39.4543C100.572 39.3786 100.529 39.276 100.529 39.169V36.7862C100.529 36.6792 100.572 36.5766 100.647 36.501C100.723 36.4253 100.826 36.3828 100.933 36.3828C101.04 36.3828 101.142 36.4253 101.218 36.501C101.294 36.5766 101.336 36.6792 101.336 36.7862V39.169C101.336 39.276 101.294 39.3786 101.218 39.4543C101.142 39.5299 101.04 39.5724 100.933 39.5724Z" fill="#FFEDBF"/>
<path d="M71.7888 45.5054C72.1706 45.5054 72.48 45.1959 72.48 44.8142C72.48 44.4325 72.1706 44.123 71.7888 44.123C71.4071 44.123 71.0977 44.4325 71.0977 44.8142C71.0977 45.1959 71.4071 45.5054 71.7888 45.5054Z" fill="#3B2D91"/>
<path d="M71.7858 45.5832C71.6358 45.5832 71.4891 45.5388 71.3644 45.4554C71.2397 45.3721 71.1425 45.2536 71.0851 45.1151C71.0277 44.9765 71.0127 44.824 71.0419 44.6769C71.0712 44.5297 71.1434 44.3946 71.2495 44.2885C71.3555 44.1825 71.4907 44.1102 71.6378 44.081C71.7849 44.0517 71.9374 44.0667 72.076 44.1241C72.2146 44.1815 72.333 44.2787 72.4163 44.4035C72.4997 44.5282 72.5442 44.6748 72.5442 44.8248C72.5438 45.0259 72.4638 45.2186 72.3216 45.3607C72.1795 45.5029 71.9868 45.5829 71.7858 45.5832ZM71.7858 44.2009C71.6624 44.2009 71.5417 44.2375 71.4391 44.306C71.3365 44.3746 71.2565 44.472 71.2093 44.586C71.1621 44.7001 71.1497 44.8255 71.1738 44.9465C71.1979 45.0676 71.2573 45.1788 71.3446 45.266C71.4318 45.3533 71.543 45.4127 71.664 45.4368C71.7851 45.4608 71.9105 45.4485 72.0245 45.4013C72.1385 45.354 72.236 45.2741 72.3045 45.1715C72.3731 45.0689 72.4097 44.9482 72.4097 44.8248C72.4097 44.6593 72.344 44.5006 72.2269 44.3836C72.1099 44.2666 71.9512 44.2009 71.7858 44.2009Z" fill="#3B2D91"/>
<path d="M67.6443 45.5054C68.026 45.5054 68.3355 45.1959 68.3355 44.8142C68.3355 44.4325 68.026 44.123 67.6443 44.123C67.2626 44.123 66.9531 44.4325 66.9531 44.8142C66.9531 45.1959 67.2626 45.5054 67.6443 45.5054Z" fill="#3B2D91"/>
<path d="M67.6432 45.5832C67.4932 45.5832 67.3465 45.5388 67.2218 45.4554C67.0971 45.3721 66.9999 45.2536 66.9425 45.1151C66.8851 44.9765 66.8701 44.824 66.8993 44.6769C66.9286 44.5297 67.0008 44.3946 67.1069 44.2885C67.213 44.1825 67.3481 44.1102 67.4952 44.081C67.6423 44.0517 67.7948 44.0667 67.9334 44.1241C68.072 44.1815 68.1904 44.2787 68.2738 44.4035C68.3571 44.5282 68.4016 44.6748 68.4016 44.8248C68.4012 45.0259 68.3212 45.2186 68.1791 45.3607C68.0369 45.5029 67.8442 45.5829 67.6432 45.5832ZM67.6432 44.2009C67.5198 44.2009 67.3991 44.2375 67.2965 44.306C67.1939 44.3746 67.114 44.472 67.0667 44.586C67.0195 44.7001 67.0071 44.8255 67.0312 44.9465C67.0553 45.0676 67.1147 45.1788 67.202 45.266C67.2892 45.3533 67.4004 45.4127 67.5215 45.4368C67.6425 45.4608 67.7679 45.4485 67.8819 45.4013C67.996 45.354 68.0934 45.2741 68.162 45.1715C68.2305 45.0689 68.2671 44.9482 68.2671 44.8248C68.2671 44.6593 68.2014 44.5006 68.0844 44.3836C67.9674 44.2666 67.8087 44.2009 67.6432 44.2009Z" fill="#3B2D91"/>
<path d="M63.363 45.5054C63.7448 45.5054 64.0542 45.1959 64.0542 44.8142C64.0542 44.4325 63.7448 44.123 63.363 44.123C62.9813 44.123 62.6719 44.4325 62.6719 44.8142C62.6719 45.1959 62.9813 45.5054 63.363 45.5054Z" fill="#3B2D91"/>
<path d="M63.3652 45.5832C63.2152 45.5835 63.0684 45.5392 62.9435 45.456C62.8186 45.3729 62.7212 45.2545 62.6636 45.116C62.606 44.9774 62.5908 44.8249 62.6199 44.6777C62.649 44.5305 62.7211 44.3952 62.8271 44.289C62.9331 44.1828 63.0683 44.1105 63.2154 44.0811C63.3626 44.0517 63.5151 44.0666 63.6538 44.124C63.7925 44.1814 63.911 44.2786 63.9944 44.4033C64.0778 44.5281 64.1223 44.6748 64.1223 44.8248C64.1219 45.0256 64.0421 45.2181 63.9002 45.3602C63.7584 45.5023 63.566 45.5825 63.3652 45.5832ZM63.3652 44.2009C63.2418 44.2006 63.121 44.237 63.0182 44.3054C62.9154 44.3738 62.8353 44.4711 62.7878 44.5851C62.7404 44.6991 62.7278 44.8246 62.7518 44.9457C62.7757 45.0668 62.835 45.1781 62.9222 45.2655C63.0094 45.3529 63.1206 45.4125 63.2417 45.4367C63.3627 45.4608 63.4883 45.4486 63.6023 45.4014C63.7164 45.3542 63.814 45.2742 63.8826 45.1716C63.9512 45.069 63.9878 44.9483 63.9878 44.8248C63.9875 44.6597 63.9218 44.5014 63.8052 44.3845C63.6885 44.2676 63.5304 44.2016 63.3652 44.2009Z" fill="#3B2D91"/>
<path d="M99.9633 40.7839H93.9619C93.4576 40.7839 93.0488 41.1927 93.0488 41.697V52.1157C93.0488 52.62 93.4576 53.0288 93.9619 53.0288H99.9633C100.468 53.0288 100.876 52.62 100.876 52.1157V41.697C100.876 41.1927 100.468 40.7839 99.9633 40.7839Z" fill="white"/>
<path d="M99.9498 41.1103C100.103 41.1103 100.249 41.1709 100.357 41.2788C100.465 41.3867 100.526 41.5331 100.527 41.6859V52.1059C100.526 52.2588 100.465 52.4053 100.357 52.5135C100.249 52.6216 100.103 52.6825 99.9498 52.6828H93.9484C93.7956 52.6825 93.649 52.6216 93.5409 52.5135C93.4328 52.4053 93.3719 52.2588 93.3716 52.1059V41.6859C93.3719 41.5331 93.4329 41.3867 93.541 41.2788C93.6492 41.1709 93.7957 41.1103 93.9484 41.1103H99.9498ZM99.9498 40.438H93.9484C93.7845 40.4378 93.622 40.47 93.4705 40.5326C93.3189 40.5952 93.1812 40.6871 93.0652 40.803C92.9492 40.9189 92.8571 41.0565 92.7943 41.208C92.7315 41.3595 92.6992 41.5219 92.6992 41.6859V52.1059C92.6992 52.4372 92.8308 52.755 93.0651 52.9893C93.2994 53.2235 93.6171 53.3552 93.9484 53.3552H99.9498C100.281 53.3552 100.599 53.2235 100.833 52.9893C101.067 52.755 101.199 52.4372 101.199 52.1059V41.6859C101.199 41.5219 101.167 41.3595 101.104 41.208C101.041 41.0565 100.949 40.9189 100.833 40.803C100.717 40.6871 100.579 40.5952 100.428 40.5326C100.276 40.47 100.114 40.4378 99.9498 40.438Z" fill="#3B2D91"/>
<path d="M96.9424 42.7034C96.8721 42.7044 96.803 42.6846 96.744 42.6463C96.685 42.6081 96.6387 42.5532 96.6109 42.4886C96.5831 42.424 96.5752 42.3526 96.588 42.2834C96.6009 42.2143 96.634 42.1506 96.6832 42.1003C96.7323 42.05 96.7953 42.0154 96.8641 42.001C96.933 41.9865 97.0045 41.9929 97.0698 42.0191C97.135 42.0454 97.1909 42.0905 97.2305 42.1486C97.2701 42.2068 97.2915 42.2754 97.292 42.3457C97.2928 42.4394 97.2564 42.5295 97.1909 42.5965C97.1254 42.6636 97.0361 42.7019 96.9424 42.7034Z" fill="white"/>
<path d="M96.9348 42.3547C96.9395 42.3547 96.9439 42.3566 96.9472 42.3598C96.9505 42.3631 96.9523 42.3676 96.9523 42.3722C96.9525 42.3746 96.9522 42.377 96.9514 42.3793C96.9506 42.3816 96.9493 42.3837 96.9477 42.3854C96.946 42.3872 96.944 42.3886 96.9418 42.3896C96.9396 42.3905 96.9372 42.391 96.9348 42.391C96.9298 42.391 96.925 42.389 96.9215 42.3855C96.918 42.382 96.916 42.3772 96.916 42.3722C96.916 42.3698 96.9165 42.3674 96.9174 42.3652C96.9184 42.363 96.9198 42.361 96.9216 42.3593C96.9233 42.3577 96.9254 42.3564 96.9277 42.3557C96.93 42.3549 96.9324 42.3545 96.9348 42.3547ZM96.9348 41.6824C96.7977 41.6813 96.6634 41.721 96.549 41.7965C96.4345 41.872 96.3451 41.9798 96.2921 42.1062C96.239 42.2327 96.2248 42.372 96.2512 42.5066C96.2776 42.6411 96.3434 42.7647 96.4402 42.8618C96.5371 42.9588 96.6606 43.0249 96.7951 43.0515C96.9296 43.0782 97.069 43.0642 97.1955 43.0115C97.322 42.9587 97.43 42.8695 97.5057 42.7552C97.5814 42.6409 97.6214 42.5066 97.6206 42.3695C97.6203 42.1867 97.5475 42.0114 97.4182 41.8821C97.2889 41.7528 97.1136 41.68 96.9308 41.6797L96.9348 41.6824Z" fill="#3B2D91"/>
<path d="M97.2797 42.6829H96.6517L96.6652 42.6398C96.0802 42.426 95.8785 41.4296 95.6311 40.2019C95.5464 39.7837 95.4603 39.352 95.3555 38.9486C95.104 37.9805 95.6526 37.6241 95.9001 37.5152C96.5549 37.2288 97.6293 37.5152 97.9897 38.0759C98.4294 38.7577 97.7396 41.3556 97.4236 42.4408L97.2784 42.3991L97.2797 42.6829ZM96.4917 38.0719C96.3817 38.0692 96.2722 38.0893 96.1703 38.1311C96.0897 38.1674 95.8732 38.2655 96.0076 38.7792C96.1166 39.2001 96.2053 39.6425 96.2914 40.0688C96.3989 40.5999 96.6383 41.7859 96.8561 41.9823C97.3268 40.3014 97.585 38.7133 97.4249 38.4403C97.3106 38.2615 96.8709 38.0719 96.4917 38.0719Z" fill="#3B2D91"/>
<path d="M94.3135 44.7313L94.6322 44.4718C94.6483 44.4584 94.7868 44.3575 94.7855 44.3521H94.7424C94.7061 44.3212 94.7021 44.3239 94.729 44.3588C94.7531 44.4369 94.794 44.5088 94.8488 44.5694C94.9037 44.6301 94.9711 44.678 95.0463 44.7098C95.0979 44.7235 95.1527 44.7163 95.199 44.6899C95.2453 44.6635 95.2793 44.6199 95.2938 44.5686C95.326 44.4731 95.6488 44.6493 95.6972 44.6668C95.8831 44.7322 96.0853 44.7346 96.2727 44.6735C96.461 44.6197 96.6317 44.5216 96.8187 44.4651C96.9437 44.4274 96.9652 44.453 97.0567 44.5283C97.1265 44.5903 97.2091 44.6362 97.2987 44.6627C97.4765 44.6978 97.6597 44.6955 97.8366 44.656C98.0471 44.6248 98.2619 44.6376 98.4672 44.6937C98.8962 44.8137 99.3505 44.809 99.777 44.6802C100.024 44.6036 99.9195 44.2136 99.6707 44.2916C99.4347 44.3647 99.1866 44.3907 98.9406 44.3683C98.6958 44.3467 98.4659 44.2513 98.2225 44.2257C98.0131 44.223 97.8038 44.2392 97.5972 44.2741C97.5047 44.2911 97.4091 44.2739 97.3283 44.2257C97.2615 44.1608 97.1859 44.1055 97.1037 44.0617C96.6707 43.8976 96.2862 44.4234 95.8572 44.2943C95.6582 44.2351 95.4982 44.1181 95.2803 44.1518C95.1951 44.1616 95.1146 44.1959 95.0485 44.2506C94.9824 44.3052 94.9335 44.3779 94.9078 44.4597L95.1566 44.3252C95.1566 44.3252 95.0853 44.1652 95.0625 44.1316C95.034 44.084 94.995 44.0437 94.9483 44.0139C94.9016 43.984 94.8486 43.9654 94.7935 43.9595C94.7288 43.9601 94.6649 43.9735 94.6053 43.9989C94.5458 44.0243 94.4919 44.0611 94.4466 44.1074C94.3121 44.219 94.1683 44.3333 94.0298 44.4476C93.8281 44.6103 94.1145 44.894 94.3148 44.7327L94.3135 44.7313Z" fill="#3B2D91"/>
<path d="M96.3479 46.2899C96.4944 46.5844 96.7513 46.8574 97.1103 46.7176C97.2784 46.6517 97.4129 46.5239 97.5796 46.4553C97.7469 46.3875 97.9263 46.355 98.1067 46.3599L97.9319 46.259C98.0422 46.4137 98.1713 46.7068 98.3945 46.6893C98.503 46.6662 98.5989 46.6033 98.6634 46.5132C98.7186 46.4567 98.7791 46.3706 98.8625 46.4016L98.7414 46.1044C98.6985 46.1742 98.6814 46.2568 98.6932 46.338C98.705 46.4191 98.7449 46.4935 98.806 46.5481C99.0023 46.7162 99.2887 46.4325 99.0911 46.263C99.0911 46.263 99.0911 46.3047 99.0911 46.3088C99.1063 46.2821 99.1153 46.2523 99.1174 46.2217C99.1195 46.191 99.1146 46.1603 99.103 46.1318C99.0915 46.1033 99.0737 46.0778 99.0509 46.0572C99.0281 46.0366 99.0009 46.0215 98.9714 46.0129C98.9085 45.992 98.8419 45.9848 98.7761 45.9917C98.7102 45.9987 98.6466 46.0197 98.5895 46.0533C98.5343 46.0843 98.4836 46.1228 98.4389 46.1676C98.4053 46.1985 98.3528 46.2886 98.3044 46.302H98.4106L98.3878 46.2926L98.4765 46.3451C98.4182 46.2792 98.366 46.208 98.3205 46.1326C98.2452 46.025 98.1861 45.9632 98.0516 45.9605C97.8421 45.959 97.6345 45.9997 97.4411 46.0802C97.3477 46.1171 97.2578 46.1621 97.1722 46.2146C97.1037 46.2721 97.0259 46.3176 96.9422 46.3491C96.8078 46.376 96.7351 46.1783 96.6894 46.0869C96.5738 45.8543 96.2268 46.0587 96.3411 46.2913L96.3479 46.2899Z" fill="#3B2D91"/>
<path d="M96.5669 47.7264L96.9044 47.955C96.9581 48.004 97.0228 48.0395 97.0929 48.0584C97.1631 48.0774 97.2368 48.0792 97.3078 48.0639C97.4324 48.0074 97.5441 47.9259 97.6359 47.8246L97.9587 47.5435L97.6212 47.3472C97.6108 47.3832 97.608 47.4209 97.6131 47.4581C97.6181 47.4952 97.6308 47.5308 97.6505 47.5627C97.6701 47.5946 97.6962 47.6221 97.727 47.6433C97.7578 47.6645 97.7928 47.6791 97.8296 47.6861C97.8703 47.6937 97.9122 47.693 97.9526 47.6839C97.9931 47.6749 98.0313 47.6578 98.0649 47.6336C98.1173 47.5987 98.1429 47.5543 98.1994 47.5516C98.3273 47.5655 98.4544 47.5866 98.5799 47.6148C98.6536 47.6231 98.7281 47.6146 98.798 47.5899C98.8679 47.5652 98.9313 47.525 98.9833 47.4723C99.1595 47.2827 98.8758 46.9976 98.6969 47.1872C98.6256 47.2638 98.428 47.1751 98.3379 47.1603C98.2492 47.1418 98.1576 47.1418 98.0689 47.1603C98.0215 47.1728 97.9762 47.1923 97.9345 47.2181L97.8686 47.2706C97.804 47.3136 97.8417 47.3351 97.9802 47.3351L98.0084 47.4373V47.4521C98.02 47.4091 98.0172 47.3635 98.0004 47.3222C97.9837 47.281 97.9539 47.2463 97.9156 47.2235C97.8767 47.2023 97.832 47.194 97.788 47.1998C97.7441 47.2056 97.7031 47.2252 97.6709 47.2558L97.4235 47.4709C97.3451 47.5308 97.2706 47.5954 97.2003 47.6646C97.1855 47.674 97.1922 47.678 97.2204 47.6793L97.1761 47.6511L97.0416 47.5597L96.7727 47.3768C96.5575 47.2302 96.3558 47.5798 96.5696 47.7251L96.5669 47.7264Z" fill="#3B2D91"/>
<path d="M98.9314 48.8854C98.9101 49.0181 98.8442 49.1395 98.7445 49.2296L99.0807 49.3184L98.9543 48.7146C98.9401 48.6631 98.9061 48.6194 98.8598 48.5929C98.8134 48.5664 98.7584 48.5594 98.7069 48.5734C98.5997 48.614 98.5031 48.6783 98.4245 48.7617C98.3901 48.7957 98.3537 48.8275 98.3156 48.8572C98.3546 48.8276 98.3559 48.8841 98.3398 48.8383C98.3317 48.8168 98.2793 48.7805 98.2604 48.7657C98.2127 48.7255 98.1563 48.6969 98.0956 48.6822C98.0349 48.6675 97.9717 48.6671 97.9108 48.681C97.7952 48.7106 97.6997 48.8155 97.5881 48.841C97.5356 48.8518 97.4805 48.8168 97.4294 48.8047C97.3569 48.7879 97.2814 48.7879 97.2089 48.8047C97.0853 48.85 96.9689 48.913 96.8633 48.9916C96.7127 49.0737 96.5217 49.0454 96.3577 49.04L95.7969 49.0226L95.9919 49.1705L95.8776 48.6514C95.8688 48.6221 95.8536 48.5951 95.8329 48.5724C95.8123 48.5498 95.7869 48.532 95.7585 48.5205C95.7301 48.509 95.6994 48.5041 95.6688 48.506C95.6383 48.508 95.6085 48.5168 95.5818 48.5318C95.2727 48.6813 94.9287 48.7441 94.5867 48.7133C94.3272 48.6931 94.3285 49.0965 94.5867 49.1167C95.0006 49.1482 95.4153 49.0664 95.7862 48.88L95.489 48.759L95.602 49.2781C95.6145 49.3202 95.6402 49.3573 95.6753 49.3839C95.7103 49.4105 95.7529 49.4252 95.7969 49.426L96.3577 49.4435C96.5301 49.4603 96.704 49.4521 96.874 49.4193C97.0233 49.3803 97.1228 49.2606 97.2613 49.2122C97.3998 49.1638 97.5208 49.2686 97.6567 49.2404C97.7925 49.2122 97.8651 49.1248 97.978 49.0858C98.0305 49.0683 98.0022 49.0777 98.0547 49.1248C98.101 49.1704 98.1558 49.2065 98.2161 49.231C98.2735 49.2509 98.3349 49.2567 98.3951 49.2478C98.4553 49.2389 98.5124 49.2156 98.5616 49.1799C98.645 49.1234 98.7176 48.997 98.8144 48.9647L98.5657 48.8303L98.6921 49.434C98.7021 49.4676 98.7206 49.498 98.7458 49.5224C98.771 49.5468 98.802 49.5642 98.8359 49.5732C98.8698 49.5821 98.9054 49.5821 98.9393 49.5733C98.9733 49.5645 99.0043 49.5471 99.0296 49.5228C99.2023 49.3555 99.3104 49.1327 99.3348 48.8935C99.3348 48.84 99.3136 48.7887 99.2758 48.7509C99.2379 48.713 99.1866 48.6918 99.1331 48.6918C99.0796 48.6918 99.0283 48.713 98.9905 48.7509C98.9527 48.7887 98.9314 48.84 98.9314 48.8935V48.8854Z" fill="#3B2D91"/>
<path d="M94.7922 51.4654C94.8195 51.3469 94.8601 51.2319 94.9132 51.1225C94.9456 51.0721 94.9752 51.0201 95.0019 50.9665C95.0503 50.9248 95.0476 50.906 94.9939 50.9127C94.9441 50.8979 94.9387 50.906 94.9764 50.9356C95.0149 51.0083 95.0732 51.0686 95.1446 51.1095C95.216 51.1505 95.2976 51.1703 95.3798 51.1669C95.5297 51.1484 95.6705 51.0846 95.7832 50.984C95.7993 50.9665 95.8356 50.9746 95.7926 50.9638C95.7496 50.9531 95.802 51.0257 95.8168 51.0472C95.8603 51.1276 95.9329 51.1883 96.0199 51.2166C96.1106 51.233 96.2042 51.2221 96.2887 51.1852C96.3732 51.1483 96.4448 51.0872 96.4945 51.0095C96.5362 50.9934 96.5308 50.984 96.4811 50.9813C96.4354 50.9557 96.4246 50.9678 96.4502 51.0176C96.4594 51.0592 96.4778 51.0982 96.5039 51.1319C96.5557 51.2053 96.6283 51.2615 96.7124 51.2933C96.7982 51.3229 96.8892 51.3349 96.9798 51.3284C97.0704 51.3219 97.1587 51.2972 97.2395 51.2556C97.2973 51.2301 97.6321 51.0337 97.6738 51.1386C97.6837 51.1722 97.702 51.2026 97.7271 51.227C97.7521 51.2514 97.783 51.269 97.8169 51.2779C97.8507 51.2868 97.8862 51.2868 97.9201 51.278C97.9539 51.2691 97.9849 51.2517 98.01 51.2274L98.2399 50.9759L97.9952 51.0068L98.1297 51.1077C98.1684 51.1297 98.2133 51.1385 98.2575 51.1327C98.3017 51.1268 98.3427 51.1067 98.3744 51.0754L98.6635 50.746L98.326 50.6572C98.3713 50.8211 98.4796 50.9603 98.6272 51.0445C98.6995 51.0788 98.7808 51.089 98.8593 51.0735C98.9378 51.058 99.0091 51.0176 99.0629 50.9584H98.7778C98.8323 51.0082 98.8971 51.0452 98.9676 51.0668C99.0381 51.0884 99.1125 51.0941 99.1855 51.0834C99.2585 51.0728 99.3282 51.046 99.3895 51.0051C99.4509 50.9641 99.5024 50.9101 99.5403 50.8468C99.5674 50.8006 99.575 50.7456 99.5615 50.6938C99.548 50.6419 99.5145 50.5976 99.4683 50.5705C99.4221 50.5434 99.3671 50.5357 99.3153 50.5492C99.2634 50.5627 99.2191 50.5962 99.192 50.6424C99.1862 50.6543 99.1778 50.6647 99.1674 50.673C99.1571 50.6812 99.145 50.687 99.1321 50.69C99.1192 50.6929 99.1059 50.693 99.0929 50.6901C99.08 50.6872 99.0679 50.6815 99.0575 50.6734C99.0194 50.6362 98.9682 50.6155 98.915 50.6155C98.8617 50.6155 98.8106 50.6362 98.7724 50.6734C98.7819 50.6626 98.7926 50.6881 98.7603 50.6492C98.7392 50.6184 98.7225 50.5849 98.7106 50.5496C98.7006 50.5161 98.682 50.4856 98.6569 50.4613C98.6317 50.4369 98.6006 50.4194 98.5667 50.4105C98.5328 50.4016 98.4972 50.4016 98.4633 50.4104C98.4294 50.4192 98.3983 50.4366 98.3731 50.4609L98.084 50.7903L98.3274 50.7594L98.1929 50.6586C98.1543 50.6361 98.1093 50.627 98.065 50.6329C98.0207 50.6387 97.9796 50.6591 97.9481 50.6908L97.7182 50.9423L98.0557 51.031C98.0185 50.9328 97.9508 50.849 97.8624 50.7921C97.774 50.7353 97.6698 50.7082 97.5649 50.715C97.4436 50.7237 97.3254 50.7576 97.218 50.8145C97.1277 50.8774 97.0233 50.9171 96.9141 50.9302C96.7957 50.9221 96.8374 50.8656 96.7917 50.7688C96.7694 50.7189 96.734 50.6759 96.6892 50.6445C96.6445 50.613 96.5921 50.5942 96.5376 50.59C96.4326 50.5861 96.3299 50.6205 96.2485 50.6868C96.2086 50.7128 96.1732 50.745 96.1436 50.7823C96.0934 50.811 96.0934 50.8258 96.1436 50.8267L96.1086 50.7554C96.0613 50.6718 95.9832 50.6101 95.8909 50.5834C95.7987 50.5568 95.6997 50.5673 95.6151 50.6128C95.5389 50.6524 95.4657 50.6973 95.3959 50.7473C95.3677 50.7648 95.326 50.7621 95.3583 50.7756C95.3341 50.7661 95.2978 50.7043 95.283 50.6855C94.8486 50.1637 94.4856 51.0163 94.3995 51.3578C94.3363 51.6093 94.7249 51.7168 94.7881 51.4654H94.7922Z" fill="#3B2D91"/>
<defs>
<clipPath id="clip0_1731_10738">
<rect width="56" height="35.6364" fill="white" transform="translate(59 17)"/>
</clipPath>
</defs>
</svg>
