<svg width="125" height="120" viewBox="0 0 125 120" fill="none" xmlns="http://www.w3.org/2000/svg">
<path d="M58.5063 43.7129C58.5063 43.7129 72.0768 64.2197 103.961 64.9015C103.961 64.9015 107.811 65.6136 108.363 70.5C107.429 74.2318 95.945 76.6992 84.4018 76.1879C72.8586 75.6765 49.1018 75.1538 49.1018 75.1538C49.1018 75.1538 43.8336 74.9402 41.7949 73.1561L50.8631 46.997L57.2404 44.247L58.5063 43.7129Z" fill="#4329E2"/>
<path d="M87.1215 76.3886C86.2124 76.3886 85.3033 76.3681 84.3942 76.3272C72.9851 75.8227 49.3329 75.2999 49.0965 75.2931C48.8602 75.2863 43.7624 75.0658 41.717 73.2681L41.6602 73.2181L41.6852 73.1454L50.7761 46.9386L57.1806 44.1681L58.5442 43.5977L58.5942 43.6772C58.6283 43.7272 62.067 48.8499 69.3442 53.9908C76.0624 58.734 87.526 64.4636 103.949 64.8136C103.999 64.8136 108.015 65.2454 108.571 70.1658V70.1863V70.2068C107.715 73.6431 97.8465 76.3886 87.1215 76.3886ZM41.9215 73.1477C43.9465 74.8386 49.0465 75.0636 49.0988 75.0658C49.3261 75.0658 72.9897 75.5954 84.401 76.0999C96.0079 76.6158 107.403 73.7908 108.349 70.1704C107.808 65.459 104.101 65.0567 103.944 65.0408C87.4579 64.6886 75.9556 58.934 69.2124 54.1704C62.3942 49.3522 58.9283 44.5454 58.4647 43.8795L57.2761 44.3772L50.9465 47.1045L41.9215 73.1477Z" fill="black"/>
<path d="M51.5644 47.2368C51.5644 47.2368 47.6371 44.155 41.5371 44.4118C41.5371 44.4118 44.5553 43.4163 44.4144 37.2641C46.6076 33.855 51.3144 34.0822 51.3144 34.0822L58.5326 44.2482L51.5644 47.2368Z" fill="#04007F"/>
<path d="M51.5372 47.3193C51.5114 47.3202 51.4863 47.3113 51.4668 47.2943C51.4282 47.2648 47.4941 44.2443 41.5145 44.4943C41.487 44.4963 41.4597 44.4878 41.4382 44.4705C41.4167 44.4533 41.4026 44.4285 41.3986 44.4011C41.3933 44.3741 41.398 44.3461 41.4118 44.3223C41.4256 44.2985 41.4475 44.2804 41.4736 44.2716C41.5032 44.2716 44.41 43.2193 44.2736 37.2261C44.2737 37.2037 44.28 37.1816 44.2918 37.1625C46.4941 33.7329 51.2463 33.9261 51.2941 33.9284C51.311 33.9297 51.3276 33.9346 51.3425 33.9428C51.3574 33.9511 51.3703 33.9624 51.3804 33.9761L58.5986 44.1443C58.608 44.1582 58.6142 44.1738 58.617 44.1903C58.6197 44.2068 58.6189 44.2237 58.6145 44.2398C58.6098 44.2561 58.6014 44.2712 58.59 44.2838C58.5786 44.2964 58.5644 44.3062 58.5486 44.3125L51.5827 47.3012C51.5691 47.3106 51.5536 47.3168 51.5372 47.3193ZM42.2191 44.2511C47.5145 44.2511 51.0827 46.7239 51.5509 47.0762L58.3281 44.1693L51.2259 34.1693C50.7054 34.1693 46.5123 34.1693 44.5009 37.2693C44.5986 42.0011 42.8623 43.7057 42.0009 44.258L42.2191 44.2511Z" fill="black"/>
<path d="M30.5957 55.1317C25.823 55.1317 22.0707 54.4317 21.0275 53.3453C20.7162 53.0226 21.0457 52.5635 21.7616 51.634C22.8844 50.1749 24.7639 47.734 24.5321 43.6794C24.5321 43.6635 24.4185 42.3476 24.9525 41.7658C25.0309 41.6776 25.1277 41.6078 25.2362 41.5615C25.3446 41.5151 25.462 41.4933 25.5798 41.4976C25.9571 41.4976 26.4321 41.6885 26.9957 42.0635L27.1889 42.1931C29.2912 43.6021 32.8071 45.9567 36.598 45.9567C38.2899 45.9597 39.9469 45.4752 41.3707 44.5612C41.8762 44.436 42.3954 44.3742 42.9162 44.3772C46.3684 44.3772 50.3253 46.7635 51.1389 47.2794C49.973 47.9908 42.5366 52.5067 39.1298 53.9976C37.5071 54.6931 34.2321 55.1317 30.5957 55.1317Z" fill="#A194FF"/>
<path d="M25.5812 41.6349C25.9357 41.6349 26.3903 41.8189 26.9448 42.1826L27.138 42.3121C29.2494 43.7258 32.7835 46.0939 36.6085 46.0939C38.3127 46.0944 39.9814 45.607 41.4176 44.6894C41.9084 44.5695 42.4123 44.5108 42.9176 44.5144C46.1562 44.5144 49.8539 46.6417 50.9244 47.3008C49.3653 48.2508 42.3585 52.4894 39.088 53.9167C37.4857 54.6167 34.238 55.053 30.6062 55.053C25.938 55.053 22.1266 54.3485 21.1198 53.303C20.8744 53.0485 21.2062 52.5917 21.863 51.7394C22.9994 50.2667 24.8903 47.8053 24.6539 43.6917C24.6244 43.3371 24.6335 42.328 25.0471 41.8735C25.1156 41.7983 25.1997 41.739 25.2935 41.6998C25.3874 41.6605 25.4886 41.6422 25.5903 41.6462L25.5812 41.6349ZM25.5903 41.4189C24.2266 41.4189 24.4289 43.7212 24.4289 43.7212C24.7948 50.1417 19.9085 52.378 20.9562 53.4689C22.1335 54.6939 26.3835 55.2871 30.6062 55.2871C34.0289 55.2871 37.4244 54.8962 39.1789 54.1349C42.9107 52.5053 51.3539 47.3167 51.3539 47.3167C51.3539 47.3167 46.8471 44.2985 42.9176 44.2985C42.3812 44.2944 41.8465 44.3593 41.3266 44.4917C39.9207 45.3995 38.282 45.881 36.6085 45.878C32.7448 45.878 29.1971 43.428 27.063 42.0144C26.4335 41.5939 25.9516 41.428 25.5835 41.428L25.5903 41.4189Z" fill="black"/>
<path d="M51.3633 47L41.7969 73.7551C39.7301 72.3228 37.59 70.9991 35.3856 69.7892C31.3742 67.5506 19.5605 68.9551 19.5605 68.9551C19.5605 68.9551 19.881 61.7733 19.7265 58.2256C19.5605 54.3892 20.7537 53.4142 20.7537 53.4142C20.7537 53.4142 29.3633 56.5 36.8633 54.5C44.3633 52.5 51.3633 47 51.3633 47Z" fill="#2A66FF"/>
<path d="M108.362 71C108.362 71 109.047 82.7754 95.9247 85.1209C83.4497 87.3504 33.277 85.6004 22.618 85.1981C20.5036 85.1368 18.4562 84.4425 16.7407 83.205C13.6566 80.9323 11.0589 76.43 19.1771 68.5255C19.1771 68.5255 32.502 67.7664 35.002 69.3595C37.502 70.9527 41.477 75.055 48.7202 75.3232C55.2861 75.5641 87.4861 75.8823 93.4565 75.9391C94.1423 75.9466 94.8272 75.8887 95.502 75.7664C98.427 75.2277 106.649 74.2045 108.362 71Z" fill="#FFEDBF"/>
<path d="M96.3643 86.2385H21.6119C21.5141 86.2385 13.6823 85.9089 13.3164 77.5248V77.4817V77.4385C13.5369 74.9112 15.7914 72.368 17.446 70.5112C18.1278 69.7589 18.7505 69.0476 18.9255 68.6726C19.3073 67.8635 19.2369 62.3908 18.9482 57.5703V57.5226V57.4748C18.9619 57.2885 19.3369 52.9112 21.6505 50.8839C23.4914 49.2635 24.0687 44.6407 23.8982 43.1089C23.7937 42.1657 24.1823 41.3498 24.9392 40.9294C25.3162 40.7257 25.7445 40.6364 26.1716 40.6723C26.5986 40.7082 27.0059 40.8679 27.3437 41.1317L27.371 41.1544C27.4187 41.1976 32.2096 45.3203 37.0574 45.3203C37.2642 45.3203 37.4687 45.3203 37.6755 45.2976C39.6755 45.1453 41.4119 44.2362 42.8346 42.5953C43.0074 42.1226 43.7074 40.0498 43.6028 37.9907C43.5687 37.3089 43.8505 36.268 45.396 35.2362C47.2528 33.9976 50.6006 33.0817 51.5733 33.5453C51.9187 33.7089 52.1506 34.0703 53.0778 35.5748C55.6415 39.7294 62.4483 50.7612 74.8392 57.0589C90.0847 64.8067 95.3052 65.0498 103.221 64.818C104.912 64.768 106.357 65.3476 107.398 66.4908C108.821 68.0521 109.464 70.6385 109.123 73.4067C108.792 76.0748 105.753 84.1612 96.4347 86.2317L96.3643 86.2385ZM14.6732 77.5112C15.0073 84.5726 21.3573 84.868 21.6278 84.8771H96.2143C104.707 82.9521 107.473 75.6476 107.771 73.2317C107.998 71.3953 107.755 68.8998 106.394 67.4021C105.617 66.5498 104.562 66.1362 103.262 66.1748C95.3643 66.4021 89.7324 66.1498 74.2233 58.268C61.496 51.7976 54.5392 40.5271 51.921 36.2839C51.5301 35.6521 51.1301 35.0021 50.946 34.7703C50.2347 34.7021 47.321 35.3839 45.7619 36.6544C45.3846 36.9589 44.9437 37.4271 44.9687 37.9157C45.1028 40.5498 44.1096 43.0862 44.0596 43.193L44.0187 43.2976L43.946 43.3817C42.2619 45.3703 40.1846 46.468 37.7687 46.6498C35.3914 46.8271 32.7687 46.1271 29.9596 44.5635C28.731 43.8824 27.5698 43.0865 26.4914 42.1862C26.3659 42.0901 26.2156 42.032 26.0581 42.0187C25.9006 42.0054 25.7426 42.0375 25.6028 42.1112C25.3323 42.2635 25.2119 42.5521 25.2551 42.9498C25.4437 44.6521 24.9187 49.8157 22.5528 51.8976C20.7641 53.4726 20.3551 57.0998 20.3119 57.5408C20.421 59.3589 20.8732 67.7362 20.1596 69.2521C19.9005 69.8067 19.2664 70.518 18.4641 71.418C16.946 73.1203 14.8732 75.4453 14.6732 77.5112Z" fill="#3B2D91"/>
<path d="M91.2516 77.0574C87.6539 77.0574 84.4062 76.8892 84.3584 76.887C84.1776 76.8776 84.0079 76.7968 83.8866 76.6624C83.7654 76.5279 83.7025 76.3507 83.7118 76.1699C83.7212 75.9891 83.802 75.8194 83.9365 75.6981C84.0709 75.5769 84.2481 75.514 84.4289 75.5233C84.5016 75.5233 91.7357 75.9006 96.4971 75.5233C101.149 75.1574 108.118 71.0506 108.188 71.0097C108.265 70.9622 108.351 70.9305 108.44 70.9164C108.53 70.9024 108.621 70.9063 108.709 70.928C108.797 70.9496 108.88 70.9886 108.952 71.0425C109.025 71.0965 109.086 71.1644 109.132 71.2422C109.179 71.3201 109.209 71.4064 109.221 71.4961C109.234 71.5857 109.228 71.677 109.205 71.7645C109.182 71.852 109.141 71.934 109.086 72.0058C109.031 72.0776 108.962 72.1376 108.883 72.1824C108.588 72.3597 101.57 76.5006 96.6107 76.8847C94.9766 77.0233 93.0698 77.0574 91.2516 77.0574Z" fill="#3B2D91"/>
<path d="M78.6296 77.0425L47.5978 76.4857H47.5478C43.5547 75.6556 39.8326 73.8399 36.7205 71.2039C34.1659 69.0266 23.4932 69.3198 19.5955 69.613C19.4146 69.6269 19.2357 69.5683 19.098 69.4503C18.9604 69.3322 18.8752 69.1643 18.8614 68.9835C18.8475 68.8026 18.9061 68.6237 19.0241 68.486C19.1422 68.3484 19.3101 68.2632 19.4909 68.2494C20.9818 68.1357 34.1614 67.2244 37.6046 70.1607C40.5271 72.6065 43.999 74.3073 47.7228 75.1175L78.6319 75.6721C78.8127 75.6739 78.9854 75.7475 79.112 75.8766C79.2386 76.0057 79.3087 76.1799 79.3069 76.3607C79.3051 76.5415 79.2315 76.7142 79.1024 76.8408C78.9732 76.9674 78.7991 77.0375 78.6183 77.0357L78.6296 77.0425Z" fill="#3B2D91"/>
<path d="M41.7704 74.4124C41.6889 74.4124 41.6081 74.3978 41.5318 74.3693C41.4476 74.3379 41.3705 74.2903 41.3048 74.2291C41.2392 74.1679 41.1862 74.0943 41.1491 74.0126C41.1119 73.9309 41.0912 73.8426 41.0883 73.7529C41.0853 73.6631 41.1001 73.5737 41.1318 73.4897L44.834 63.6579C44.9033 63.4967 45.0319 63.3684 45.1933 63.2997C45.3547 63.2309 45.5364 63.227 45.7006 63.2888C45.8647 63.3505 45.9988 63.4732 46.0749 63.6312C46.151 63.7893 46.1632 63.9706 46.109 64.1374L42.409 73.9715C42.36 74.1012 42.2727 74.2129 42.1586 74.2917C42.0445 74.3705 41.909 74.4126 41.7704 74.4124V74.4124Z" fill="#3B2D91"/>
<path d="M47.2651 59.4718C47.1877 59.4723 47.1108 59.4592 47.0379 59.4332C46.8678 59.3729 46.7285 59.2477 46.6505 59.085C46.5726 58.9223 46.5623 58.7353 46.622 58.565L50.5515 47.39C49.5697 46.7082 46.5924 45.0059 41.7924 45.1513C41.7029 45.154 41.6137 45.139 41.5299 45.1073C41.4462 45.0755 41.3695 45.0275 41.3043 44.9661C41.2391 44.9047 41.1866 44.831 41.1499 44.7493C41.1131 44.6676 41.0928 44.5795 41.0902 44.49C41.0875 44.4004 41.1024 44.3112 41.1342 44.2275C41.166 44.1437 41.214 44.0671 41.2754 44.0019C41.3368 43.9367 41.4105 43.8842 41.4921 43.8474C41.5738 43.8107 41.662 43.7904 41.7515 43.7877C48.272 43.5922 51.6697 46.515 51.8106 46.6309L52.156 46.9354L47.9083 59.0173C47.8613 59.1502 47.7742 59.2654 47.659 59.3468C47.5438 59.4282 47.4062 59.4719 47.2651 59.4718Z" fill="#3B2D91"/>
<path d="M32.8941 56.003C29.6419 56.003 25.8487 55.2212 20.6214 53.8507C20.5311 53.8317 20.4457 53.7946 20.3702 53.7416C20.2947 53.6886 20.2307 53.6208 20.1822 53.5424C20.1336 53.464 20.1015 53.3765 20.0877 53.2853C20.0739 53.1941 20.0788 53.101 20.1021 53.0118C20.1253 52.9225 20.1664 52.8389 20.2229 52.7659C20.2794 52.693 20.3501 52.6323 20.4308 52.5875C20.5114 52.5427 20.6003 52.5148 20.692 52.5053C20.7838 52.4958 20.8765 52.5051 20.9646 52.5325C33.5737 55.8234 37.0487 55.1757 43.2669 51.0553C50.3123 46.3893 58.226 43.8348 58.3033 43.8098C58.4756 43.7546 58.6629 43.7702 58.8238 43.8531C58.9847 43.936 59.1061 44.0795 59.1612 44.2518C59.2164 44.4242 59.2008 44.6115 59.1179 44.7724C59.035 44.9333 58.8916 45.0546 58.7192 45.1098C58.6419 45.1348 50.8987 47.6325 44.0191 52.1939C40.001 54.8484 36.8441 56.003 32.8941 56.003Z" fill="#3B2D91"/>
<path d="M55.2405 55.3427C55.1116 55.3427 54.9854 55.3062 54.8765 55.2375C54.7675 55.1687 54.6803 55.0705 54.6249 54.9542C54.5695 54.8379 54.5481 54.7083 54.5634 54.5803C54.5786 54.4524 54.6298 54.3314 54.7109 54.2314L60.4268 47.1859C60.4832 47.1164 60.5528 47.0586 60.6315 47.016C60.7102 46.9733 60.7966 46.9466 60.8857 46.9373C60.9747 46.928 61.0647 46.9363 61.1506 46.9618C61.2364 46.9873 61.3164 47.0295 61.3859 47.0859C61.4555 47.1423 61.5132 47.2119 61.5559 47.2906C61.5985 47.3693 61.6253 47.4557 61.6345 47.5447C61.6438 47.6338 61.6355 47.7238 61.61 47.8097C61.5845 47.8955 61.5423 47.9755 61.4859 48.045L55.77 55.0905C55.7061 55.1693 55.6254 55.2328 55.5338 55.2764C55.4421 55.3201 55.3419 55.3427 55.2405 55.3427V55.3427Z" fill="#FFEDBF"/>
<path d="M63.0824 59.7321C63.0099 59.7317 62.9378 59.7202 62.8688 59.698C62.6974 59.6409 62.5556 59.5182 62.4746 59.3567C62.3937 59.1952 62.3801 59.0081 62.437 58.8366L64.8847 51.4139C64.9416 51.2421 65.0645 51.1 65.2263 51.0188C65.388 50.9376 65.5754 50.924 65.7472 50.981C65.919 51.0379 66.0611 51.1608 66.1423 51.3226C66.2235 51.4843 66.2371 51.6717 66.1801 51.8435L63.7301 59.2639C63.6852 59.4002 63.5984 59.5188 63.4821 59.6029C63.3658 59.6869 63.2259 59.7321 63.0824 59.7321Z" fill="#FFEDBF"/>
<path d="M69.5087 62.8995C69.3994 62.8999 69.2916 62.874 69.1944 62.8241C69.0971 62.7741 69.0134 62.7015 68.9501 62.6124C68.8868 62.5233 68.8459 62.4202 68.8308 62.312C68.8157 62.2037 68.8268 62.0934 68.8632 61.9904L70.8405 56.1608C70.899 55.9896 71.023 55.8487 71.1854 55.769C71.3478 55.6893 71.5352 55.6774 71.7064 55.7358C71.8776 55.7943 72.0185 55.9184 72.0982 56.0808C72.1779 56.2432 72.1899 56.4306 72.1314 56.6017L70.1587 62.4381C70.1124 62.5735 70.0248 62.6909 69.9081 62.7737C69.7915 62.8565 69.6517 62.9005 69.5087 62.8995Z" fill="#FFEDBF"/>
<path d="M76.3172 65.5036H76.2559C76.1666 65.4958 76.0797 65.4706 76.0003 65.4293C75.9208 65.388 75.8502 65.3314 75.7926 65.2628C75.7349 65.1942 75.6914 65.115 75.6644 65.0295C75.6375 64.9441 75.6276 64.8542 75.6354 64.7649L76.149 58.7513C76.1566 58.6618 76.1818 58.5746 76.2231 58.4948C76.2644 58.415 76.321 58.3441 76.3897 58.2862C76.4584 58.2282 76.5378 58.1844 76.6235 58.1572C76.7091 58.1299 76.7993 58.1198 76.8888 58.1275C76.9783 58.1351 77.0655 58.1602 77.1453 58.2015C77.2251 58.2428 77.296 58.2994 77.3539 58.3681C77.4119 58.4368 77.4557 58.5163 77.4829 58.6019C77.5102 58.6875 77.5203 58.7777 77.5127 58.8672L76.999 64.8808C76.9842 65.0512 76.9059 65.2099 76.7796 65.3252C76.6533 65.4406 76.4883 65.5042 76.3172 65.5036V65.5036Z" fill="#FFEDBF"/>
<path d="M84.3928 66.8831C84.2119 66.8831 84.0385 66.8113 83.9106 66.6834C83.7828 66.5555 83.7109 66.3821 83.7109 66.2013V62.174C83.7109 61.9932 83.7828 61.8198 83.9106 61.6919C84.0385 61.564 84.2119 61.4922 84.3928 61.4922C84.5736 61.4922 84.747 61.564 84.8749 61.6919C85.0027 61.8198 85.0746 61.9932 85.0746 62.174V66.2013C85.0746 66.3821 85.0027 66.5555 84.8749 66.6834C84.747 66.8113 84.5736 66.8831 84.3928 66.8831Z" fill="#FFEDBF"/>
<path d="M35.1369 76.9106C35.7821 76.9106 36.3051 76.3876 36.3051 75.7424C36.3051 75.0972 35.7821 74.5742 35.1369 74.5742C34.4918 74.5742 33.9688 75.0972 33.9688 75.7424C33.9688 76.3876 34.4918 76.9106 35.1369 76.9106Z" fill="#3B2D91"/>
<path d="M35.1295 77.0422C34.876 77.0422 34.6281 76.967 34.4173 76.8261C34.2065 76.6853 34.0422 76.4851 33.9452 76.2509C33.8482 76.0166 33.8228 75.7589 33.8723 75.5103C33.9217 75.2616 34.0438 75.0332 34.2231 74.854C34.4024 74.6747 34.6308 74.5526 34.8794 74.5031C35.1281 74.4537 35.3858 74.4791 35.62 74.5761C35.8542 74.6731 36.0544 74.8374 36.1953 75.0482C36.3361 75.259 36.4113 75.5068 36.4113 75.7603C36.4107 76.1001 36.2755 76.4258 36.0352 76.6661C35.7949 76.9063 35.4693 77.0416 35.1295 77.0422V77.0422ZM35.1295 74.7058C34.9209 74.7058 34.717 74.7676 34.5436 74.8835C34.3702 74.9994 34.235 75.1641 34.1552 75.3568C34.0754 75.5495 34.0545 75.7615 34.0952 75.9661C34.1359 76.1706 34.2363 76.3585 34.3838 76.506C34.5313 76.6535 34.7192 76.7539 34.9237 76.7946C35.1283 76.8353 35.3403 76.8144 35.533 76.7346C35.7257 76.6548 35.8904 76.5196 36.0063 76.3462C36.1222 76.1728 36.184 75.9689 36.184 75.7603C36.184 75.4807 36.0729 75.2124 35.8752 75.0147C35.6774 74.8169 35.4092 74.7058 35.1295 74.7058V74.7058Z" fill="#3B2D91"/>
<path d="M28.133 76.9106C28.7782 76.9106 29.3012 76.3876 29.3012 75.7424C29.3012 75.0972 28.7782 74.5742 28.133 74.5742C27.4879 74.5742 26.9648 75.0972 26.9648 75.7424C26.9648 76.3876 27.4879 76.9106 28.133 76.9106Z" fill="#3B2D91"/>
<path d="M28.1275 77.0422C27.874 77.0422 27.6262 76.967 27.4154 76.8261C27.2046 76.6853 27.0403 76.4851 26.9433 76.2509C26.8463 76.0166 26.8209 75.7589 26.8703 75.5103C26.9198 75.2616 27.0419 75.0332 27.2211 74.854C27.4004 74.6747 27.6288 74.5526 27.8775 74.5031C28.1261 74.4537 28.3838 74.4791 28.6181 74.5761C28.8523 74.6731 29.0525 74.8374 29.1933 75.0482C29.3342 75.259 29.4093 75.5068 29.4093 75.7603C29.4087 76.1001 29.2735 76.4258 29.0332 76.6661C28.793 76.9063 28.4673 77.0416 28.1275 77.0422V77.0422ZM28.1275 74.7058C27.919 74.7058 27.7151 74.7676 27.5416 74.8835C27.3682 74.9994 27.2331 75.1641 27.1533 75.3568C27.0734 75.5495 27.0525 75.7615 27.0932 75.9661C27.1339 76.1706 27.2344 76.3585 27.3818 76.506C27.5293 76.6535 27.7172 76.7539 27.9218 76.7946C28.1264 76.8353 28.3384 76.8144 28.5311 76.7346C28.7238 76.6548 28.8885 76.5196 29.0043 76.3462C29.1202 76.1728 29.1821 75.9689 29.1821 75.7603C29.1821 75.4807 29.071 75.2124 28.8732 75.0147C28.6754 74.8169 28.4072 74.7058 28.1275 74.7058V74.7058Z" fill="#3B2D91"/>
<path d="M20.8947 76.9106C21.5399 76.9106 22.0629 76.3876 22.0629 75.7424C22.0629 75.0972 21.5399 74.5742 20.8947 74.5742C20.2496 74.5742 19.7266 75.0972 19.7266 75.7424C19.7266 76.3876 20.2496 76.9106 20.8947 76.9106Z" fill="#3B2D91"/>
<path d="M20.8974 77.0421C20.6438 77.0426 20.3957 76.9678 20.1846 76.8272C19.9735 76.6866 19.8089 76.4866 19.7115 76.2524C19.6141 76.0182 19.5884 75.7604 19.6376 75.5116C19.6868 75.2629 19.8087 75.0342 19.9879 74.8548C20.1671 74.6753 20.3955 74.553 20.6442 74.5033C20.8929 74.4537 21.1508 74.4789 21.3851 74.5759C21.6195 74.6728 21.8198 74.8371 21.9607 75.048C22.1017 75.2588 22.1769 75.5067 22.1769 75.7603C22.1763 76.0997 22.0414 76.425 21.8016 76.6652C21.5619 76.9054 21.2368 77.0409 20.8974 77.0421V77.0421ZM20.8974 74.7058C20.6887 74.7053 20.4846 74.7668 20.3109 74.8824C20.1372 74.998 20.0016 75.1625 19.9215 75.3552C19.8413 75.5478 19.8201 75.7599 19.8605 75.9647C19.901 76.1694 20.0012 76.3575 20.1486 76.5052C20.296 76.6529 20.4839 76.7535 20.6885 76.7944C20.8932 76.8353 21.1053 76.8145 21.2981 76.7348C21.491 76.6551 21.6558 76.5199 21.7718 76.3464C21.8877 76.173 21.9496 75.969 21.9496 75.7603C21.9491 75.4812 21.8381 75.2137 21.6409 75.0161C21.4438 74.8185 21.1765 74.707 20.8974 74.7058V74.7058Z" fill="#3B2D91"/>
<path d="M82.7528 68.9307H72.6096C71.7573 68.9307 71.0664 69.6216 71.0664 70.4738V88.083C71.0664 88.9352 71.7573 89.6261 72.6096 89.6261H82.7528C83.6051 89.6261 84.296 88.9352 84.296 88.083V70.4738C84.296 69.6216 83.6051 68.9307 82.7528 68.9307Z" fill="white"/>
<path d="M82.735 69.4821C82.9932 69.4821 83.2409 69.5845 83.4237 69.7668C83.6064 69.9492 83.7094 70.1966 83.71 70.4548V88.0662C83.7094 88.3246 83.6065 88.5722 83.4238 88.7549C83.2411 88.9377 82.9934 89.0406 82.735 89.0412H72.5918C72.3334 89.0406 72.0858 88.9377 71.9031 88.7549C71.7203 88.5722 71.6174 88.3246 71.6168 88.0662V70.4548C71.6174 70.1966 71.7204 69.9492 71.9032 69.7668C72.086 69.5845 72.3336 69.4821 72.5918 69.4821H82.735ZM82.735 68.3457H72.5918C72.3147 68.3454 72.0402 68.3997 71.784 68.5056C71.5279 68.6115 71.2951 68.7668 71.099 68.9626C70.9029 69.1585 70.7474 69.3911 70.6412 69.6472C70.5351 69.9032 70.4805 70.1776 70.4805 70.4548V88.0662C70.4805 88.6261 70.7029 89.1632 71.0989 89.5591C71.4948 89.9551 72.0319 90.1775 72.5918 90.1775H82.735C83.295 90.1775 83.832 89.9551 84.228 89.5591C84.6239 89.1632 84.8464 88.6261 84.8464 88.0662V70.4548C84.8464 70.1776 84.7918 69.9032 84.6856 69.6472C84.5795 69.3911 84.4239 69.1585 84.2278 68.9626C84.0318 68.7668 83.799 68.6115 83.5428 68.5056C83.2867 68.3997 83.0122 68.3454 82.735 68.3457Z" fill="#3B2D91"/>
<path d="M77.652 72.1745C77.5332 72.1763 77.4165 72.1428 77.3167 72.0782C77.217 72.0135 77.1387 71.9207 77.0917 71.8115C77.0448 71.7023 77.0314 71.5817 77.0531 71.4648C77.0748 71.348 77.1308 71.2402 77.2139 71.1552C77.297 71.0702 77.4034 71.0118 77.5198 70.9874C77.6361 70.963 77.757 70.9737 77.8673 71.0181C77.9775 71.0625 78.0721 71.1387 78.139 71.237C78.2059 71.3352 78.2421 71.4511 78.243 71.57C78.2442 71.7283 78.1828 71.8808 78.0721 71.994C77.9614 72.1072 77.8104 72.1721 77.652 72.1745V72.1745Z" fill="white"/>
<path d="M77.6343 71.5852C77.6421 71.5852 77.6496 71.5884 77.6552 71.5939C77.6607 71.5994 77.6638 71.607 77.6638 71.6148C77.6641 71.6189 77.6636 71.6229 77.6623 71.6268C77.6609 71.6306 77.6588 71.6342 77.656 71.6372C77.6532 71.6402 77.6499 71.6425 77.6461 71.6442C77.6424 71.6458 77.6384 71.6466 77.6343 71.6466C77.6258 71.6466 77.6177 71.6433 77.6118 71.6373C77.6058 71.6313 77.6025 71.6232 77.6025 71.6148C77.6024 71.6107 77.6033 71.6067 77.6049 71.6029C77.6065 71.5992 77.6089 71.5958 77.6119 71.5931C77.6149 71.5903 77.6184 71.5882 77.6223 71.5868C77.6261 71.5855 77.6302 71.5849 77.6343 71.5852V71.5852ZM77.6343 70.4489C77.4026 70.4471 77.1756 70.5142 76.9821 70.6418C76.7887 70.7694 76.6375 70.9516 76.5479 71.1653C76.4583 71.379 76.4343 71.6145 76.4789 71.8419C76.5235 72.0692 76.6347 72.2782 76.7984 72.4422C76.9621 72.6063 77.1708 72.7179 77.3981 72.7629C77.6254 72.808 77.861 72.7844 78.0749 72.6952C78.2887 72.606 78.4712 72.4552 78.5992 72.262C78.7271 72.0688 78.7947 71.842 78.7934 71.6102C78.7928 71.3012 78.6697 71.005 78.4512 70.7865C78.2327 70.568 77.9365 70.4449 77.6275 70.4443L77.6343 70.4489Z" fill="#3B2D91"/>
<path d="M78.2206 72.1402H77.1592L77.1819 72.0675C76.1933 71.7061 75.8524 70.022 75.4342 67.947C75.291 67.2402 75.1456 66.5107 74.9683 65.8289C74.5433 64.1925 75.4706 63.5902 75.8887 63.4061C76.9956 62.922 78.8115 63.4061 79.4206 64.3539C80.1637 65.5061 78.9978 69.897 78.4637 71.7311L78.2183 71.6607L78.2206 72.1402ZM76.8887 64.347C76.7027 64.3425 76.5178 64.3765 76.3456 64.447C76.2092 64.5084 75.8433 64.6743 76.0706 65.5425C76.2547 66.2539 76.4047 67.0016 76.5501 67.722C76.7319 68.6198 77.1365 70.6243 77.5046 70.9561C78.3001 68.1152 78.7365 65.4311 78.466 64.9698C78.2728 64.6675 77.5296 64.347 76.8887 64.347V64.347Z" fill="#3B2D91"/>
<path d="M73.2052 75.6024L73.7439 75.1638C73.7711 75.141 74.0052 74.9706 74.003 74.9615H73.9302C73.8689 74.9092 73.862 74.9138 73.9075 74.9729C73.9483 75.1048 74.0174 75.2263 74.1101 75.3288C74.2027 75.4313 74.3166 75.5122 74.4439 75.566C74.5309 75.5891 74.6236 75.577 74.7018 75.5324C74.7801 75.4877 74.8376 75.4141 74.862 75.3274C74.9166 75.166 75.462 75.4638 75.5439 75.4933C75.8581 75.6039 76.1999 75.6078 76.5166 75.5047C76.8348 75.4138 77.1234 75.2479 77.4393 75.1524C77.6507 75.0888 77.687 75.1319 77.8416 75.2592C77.9596 75.3641 78.0993 75.4417 78.2507 75.4865C78.5512 75.5457 78.8608 75.5418 79.1598 75.4751C79.5156 75.4223 79.8786 75.444 80.2257 75.5388C80.9507 75.7416 81.7186 75.7337 82.4393 75.516C82.8575 75.3865 82.6802 74.7274 82.2598 74.8592C81.8608 74.9827 81.4416 75.0267 81.0257 74.9888C80.612 74.9524 80.2234 74.791 79.812 74.7479C79.458 74.7433 79.1043 74.7706 78.7552 74.8297C78.5988 74.8583 78.4373 74.8293 78.3007 74.7479C78.1878 74.6381 78.06 74.5447 77.9211 74.4706C77.1893 74.1933 76.5393 75.0819 75.8143 74.8638C75.478 74.7638 75.2075 74.566 74.8393 74.6229C74.6953 74.6395 74.5592 74.6975 74.4475 74.7899C74.3358 74.8822 74.2532 75.005 74.2098 75.1433L74.6302 74.916C74.6302 74.916 74.5098 74.6456 74.4711 74.5888C74.4231 74.5084 74.357 74.4403 74.2781 74.3898C74.1992 74.3393 74.1097 74.3078 74.0166 74.2979C73.9072 74.2989 73.7991 74.3216 73.6985 74.3645C73.5979 74.4074 73.5067 74.4697 73.4302 74.5479C73.203 74.7365 72.9598 74.9297 72.7257 75.1229C72.3848 75.3979 72.8689 75.8774 73.2075 75.6047L73.2052 75.6024Z" fill="#3B2D91"/>
<path d="M76.6436 78.2366C76.8914 78.7343 77.3255 79.1957 77.9323 78.9593C78.2164 78.8479 78.4436 78.632 78.7255 78.5161C79.0081 78.4015 79.3115 78.3466 79.6164 78.3548L79.3209 78.1843C79.5073 78.4457 79.7255 78.9411 80.1027 78.9116C80.286 78.8724 80.4481 78.7663 80.5573 78.6138C80.6505 78.5184 80.7527 78.3729 80.8936 78.4252L80.6891 77.9229C80.6165 78.0409 80.5876 78.1806 80.6076 78.3177C80.6275 78.4548 80.695 78.5805 80.7982 78.6729C81.13 78.957 81.6141 78.4775 81.28 78.1911C81.28 78.1911 81.28 78.2616 81.28 78.2684C81.3058 78.2233 81.321 78.173 81.3245 78.1212C81.328 78.0694 81.3197 78.0174 81.3003 77.9693C81.2808 77.9211 81.2506 77.8781 81.2121 77.8433C81.1736 77.8085 81.1276 77.7829 81.0777 77.7684C80.9715 77.733 80.859 77.7208 80.7476 77.7326C80.6363 77.7443 80.5288 77.7798 80.4323 77.8366C80.339 77.8891 80.2534 77.9541 80.1777 78.0298C80.1209 78.082 80.0323 78.2343 79.9505 78.257H80.13L80.0914 78.2411L80.2414 78.3298C80.1427 78.2183 80.0545 78.0982 79.9777 77.9707C79.8505 77.7888 79.7505 77.6843 79.5232 77.6798C79.1691 77.6772 78.8182 77.7459 78.4914 77.882C78.3336 77.9445 78.1815 78.0205 78.0368 78.1093C77.9211 78.2065 77.7896 78.2833 77.6482 78.3366C77.4209 78.382 77.2982 78.0479 77.2209 77.8934C77.0254 77.5002 76.4391 77.8457 76.6323 78.2388L76.6436 78.2366Z" fill="#3B2D91"/>
<path d="M77.0127 80.6643L77.5831 81.0507C77.6739 81.1335 77.7831 81.1934 77.9017 81.2255C78.0203 81.2575 78.1449 81.2607 78.265 81.2348C78.4755 81.1392 78.6642 81.0015 78.8195 80.8302L79.365 80.3553L78.7945 80.0234C78.777 80.0842 78.7723 80.1481 78.7808 80.2108C78.7893 80.2735 78.8109 80.3337 78.844 80.3877C78.8772 80.4416 78.9213 80.488 78.9734 80.5239C79.0255 80.5598 79.0846 80.5844 79.1468 80.5962C79.2156 80.609 79.2864 80.6078 79.3547 80.5926C79.4231 80.5773 79.4876 80.5484 79.5445 80.5075C79.6331 80.4484 79.6763 80.3734 79.7718 80.3689C79.988 80.3923 80.2028 80.428 80.415 80.4757C80.5394 80.4898 80.6655 80.4754 80.7836 80.4337C80.9017 80.392 81.0088 80.324 81.0968 80.2348C81.3945 79.9143 80.915 79.4325 80.6127 79.753C80.4922 79.8825 80.1581 79.7325 80.0059 79.7075C79.856 79.6762 79.7012 79.6762 79.5513 79.7075C79.4712 79.7287 79.3946 79.7616 79.3241 79.8053L79.2127 79.8939C79.1036 79.9666 79.1672 80.003 79.4013 80.003L79.4491 80.1757V80.2007C79.4686 80.128 79.4638 80.0509 79.4355 79.9812C79.4072 79.9115 79.3569 79.8529 79.2922 79.8143C79.2264 79.7785 79.1509 79.7645 79.0765 79.7743C79.0022 79.7841 78.9329 79.8172 78.8786 79.8689L78.4604 80.2325C78.328 80.3337 78.202 80.443 78.0831 80.5598C78.0581 80.5757 78.0695 80.5825 78.1172 80.5848L78.0422 80.5371L77.815 80.3825L77.3604 80.0734C76.9968 79.8257 76.6559 80.4166 77.0172 80.6621L77.0127 80.6643Z" fill="#3B2D91"/>
<path d="M81.0111 82.6234C80.9751 82.8476 80.8637 83.0528 80.6952 83.2052L81.2634 83.3552L81.0498 82.3347C81.0259 82.2477 80.9684 82.1737 80.89 82.1289C80.8116 82.0842 80.7187 82.0724 80.6316 82.0961C80.4504 82.1646 80.2872 82.2734 80.1543 82.4143C80.0962 82.4717 80.0348 82.5256 79.9702 82.5756C80.0361 82.5256 80.0384 82.6211 80.0111 82.5438C79.9975 82.5074 79.9089 82.4461 79.8771 82.4211C79.7964 82.3531 79.701 82.3048 79.5984 82.28C79.4959 82.2551 79.389 82.2544 79.2861 82.2779C79.0907 82.3279 78.9293 82.5052 78.7407 82.5483C78.6521 82.5665 78.5589 82.5074 78.4725 82.487C78.3499 82.4586 78.2224 82.4586 78.0998 82.487C77.8909 82.5636 77.6941 82.67 77.5157 82.8029C77.2611 82.9415 76.9384 82.8938 76.6611 82.8847L75.7134 82.8552L76.043 83.1052L75.8498 82.2279C75.8349 82.1783 75.8091 82.1326 75.7743 82.0943C75.7394 82.056 75.6964 82.0261 75.6484 82.0067C75.6004 81.9872 75.5486 81.9789 75.4969 81.9821C75.4452 81.9854 75.3949 82.0003 75.3498 82.0256C74.8273 82.2784 74.246 82.3845 73.668 82.3324C73.2293 82.2984 73.2316 82.9802 73.668 83.0143C74.3675 83.0675 75.0683 82.9292 75.6952 82.6143L75.193 82.4097L75.3839 83.287C75.4051 83.3583 75.4485 83.4209 75.5078 83.4659C75.567 83.5108 75.6391 83.5357 75.7134 83.537L76.6611 83.5665C76.9525 83.595 77.2465 83.5812 77.5339 83.5256C77.7861 83.4597 77.9543 83.2574 78.1884 83.1756C78.4225 83.0938 78.6271 83.2711 78.8566 83.2233C79.0861 83.1756 79.2089 83.0279 79.3998 82.962C79.4884 82.9324 79.4407 82.9483 79.5293 83.0279C79.6076 83.1051 79.7002 83.1661 79.8021 83.2074C79.8992 83.2411 80.003 83.2508 80.1047 83.2358C80.2064 83.2208 80.3029 83.1814 80.3861 83.1211C80.5271 83.0256 80.6498 82.812 80.8134 82.7574L80.393 82.5302L80.6066 83.5506C80.6236 83.6074 80.6548 83.6588 80.6974 83.7C80.74 83.7411 80.7924 83.7707 80.8497 83.7857C80.907 83.8008 80.9672 83.8009 81.0245 83.786C81.0818 83.7711 81.1344 83.7417 81.1771 83.7006C81.4689 83.4179 81.6516 83.0412 81.693 82.637C81.693 82.5466 81.657 82.4599 81.5931 82.3959C81.5292 82.332 81.4425 82.2961 81.3521 82.2961C81.2616 82.2961 81.1749 82.332 81.111 82.3959C81.0471 82.4599 81.0111 82.5466 81.0111 82.637V82.6234Z" fill="#3B2D91"/>
<path d="M74.0152 86.9837C74.0615 86.7834 74.1301 86.589 74.2197 86.4041C74.2745 86.319 74.3245 86.231 74.3697 86.1405C74.4515 86.07 74.447 86.0382 74.3561 86.0496C74.272 86.0246 74.2629 86.0382 74.3265 86.0882C74.3917 86.2111 74.4903 86.313 74.6109 86.3822C74.7316 86.4514 74.8694 86.485 75.0084 86.4791C75.2618 86.4479 75.4997 86.34 75.6902 86.17C75.7174 86.1405 75.7788 86.1541 75.7061 86.1359C75.6334 86.1177 75.722 86.2405 75.747 86.2768C75.8204 86.4128 75.9433 86.5153 76.0902 86.5632C76.2435 86.5909 76.4017 86.5725 76.5445 86.5101C76.6874 86.4478 76.8085 86.3445 76.8924 86.2132C76.9629 86.1859 76.9538 86.17 76.8697 86.1655C76.7924 86.1223 76.7743 86.1427 76.8174 86.2268C76.8331 86.2972 76.8641 86.3632 76.9084 86.42C76.9959 86.5441 77.1186 86.6391 77.2606 86.6927C77.4057 86.7429 77.5595 86.7631 77.7126 86.7521C77.8657 86.7412 78.015 86.6993 78.1515 86.6291C78.2493 86.5859 78.8152 86.2541 78.8856 86.4314C78.9022 86.4881 78.9332 86.5396 78.9756 86.5808C79.0179 86.6221 79.0702 86.6517 79.1274 86.6668C79.1845 86.6818 79.2446 86.6819 79.3018 86.667C79.359 86.652 79.4113 86.6225 79.4538 86.5814L79.8424 86.1564L79.4288 86.2087L79.6561 86.3791C79.7215 86.4164 79.7974 86.4312 79.8721 86.4213C79.9467 86.4115 80.0161 86.3775 80.0697 86.3246L80.5583 85.7678L79.9879 85.6178C80.0644 85.8947 80.2474 86.13 80.497 86.2723C80.6191 86.3303 80.7566 86.3475 80.8892 86.3213C81.0218 86.2951 81.1425 86.2269 81.2333 86.1268H80.7515C80.8435 86.2109 80.9531 86.2735 81.0723 86.31C81.1914 86.3466 81.3172 86.3562 81.4406 86.3381C81.5639 86.3201 81.6817 86.2748 81.7854 86.2056C81.8891 86.1365 81.9761 86.0451 82.0402 85.9382C82.086 85.8601 82.0989 85.7671 82.0761 85.6795C82.0533 85.5919 81.9966 85.517 81.9186 85.4712C81.8405 85.4254 81.7475 85.4124 81.6599 85.4352C81.5723 85.458 81.4973 85.5147 81.4515 85.5927C81.4417 85.6128 81.4275 85.6305 81.41 85.6444C81.3925 85.6583 81.3721 85.6681 81.3504 85.6731C81.3286 85.6781 81.3059 85.6782 81.2841 85.6733C81.2623 85.6685 81.2419 85.6588 81.2243 85.645C81.1598 85.5823 81.0733 85.5472 80.9833 85.5472C80.8934 85.5472 80.8069 85.5823 80.7424 85.645C80.7583 85.6268 80.7765 85.67 80.722 85.6041C80.6863 85.5522 80.658 85.4956 80.6379 85.4359C80.6209 85.3792 80.5896 85.3278 80.5471 85.2866C80.5045 85.2454 80.452 85.2159 80.3948 85.2008C80.3375 85.1857 80.2773 85.1857 80.22 85.2006C80.1627 85.2155 80.1101 85.2449 80.0674 85.2859L79.5788 85.8427L79.9902 85.7905L79.7629 85.62C79.6976 85.582 79.6216 85.5668 79.5468 85.5766C79.4719 85.5865 79.4024 85.621 79.3493 85.6746L78.9606 86.0996L79.5311 86.2496C79.4682 86.0835 79.3537 85.9419 79.2043 85.8458C79.055 85.7497 78.8788 85.704 78.7015 85.7155C78.4965 85.7301 78.2968 85.7874 78.1152 85.8837C77.9625 85.9899 77.7862 86.057 77.6015 86.0791C77.4015 86.0655 77.472 85.97 77.3947 85.8064C77.3569 85.722 77.2971 85.6494 77.2215 85.5962C77.1459 85.543 77.0573 85.5112 76.9652 85.5041C76.7878 85.4976 76.6142 85.5558 76.4765 85.6678C76.4091 85.7116 76.3493 85.7661 76.2993 85.8291C76.2144 85.8776 76.2144 85.9026 76.2993 85.9041L76.2402 85.7837C76.1603 85.6424 76.0282 85.5381 75.8723 85.493C75.7164 85.448 75.549 85.4658 75.4061 85.5427C75.2773 85.6096 75.1535 85.6855 75.0356 85.77C74.9879 85.7996 74.9174 85.795 74.972 85.8178C74.9311 85.8018 74.8697 85.6973 74.8447 85.6655C74.1106 84.7837 73.497 86.2246 73.3515 86.8018C73.2447 87.2268 73.9015 87.4087 74.0084 86.9837H74.0152Z" fill="#3B2D91"/>
</svg>
