<svg width="114" height="70" viewBox="0 0 114 70" fill="none" xmlns="http://www.w3.org/2000/svg">
<path d="M39.9977 50.3911L39.9944 50.3884C39.9187 50.3249 39.8653 50.2401 39.841 50.1462C39.8167 50.0525 39.8224 49.9537 39.8573 49.8632C39.8573 49.8629 39.8574 49.8627 39.8575 49.8625L49.8462 24.3587C51.8682 23.2462 53.7889 22.148 55.4789 21.17C55.5719 21.1188 55.6801 21.1004 55.7855 21.1182C55.8917 21.1361 55.9877 21.1894 56.0579 21.2683C63.9236 30.2322 78.3832 42.506 98.6734 42.506H98.7935H98.8218L98.85 42.5028C99.2041 42.4625 101.226 42.2848 102.909 42.9836C103.735 43.3268 104.446 43.8674 104.859 44.7133C105.273 45.5611 105.424 46.7905 104.978 48.5824C104.96 48.6492 104.928 48.7114 104.882 48.7642C104.836 48.8174 104.777 48.8595 104.712 48.887L104.707 48.889C102.973 49.6329 96.4901 52.2308 90.882 52.2308H42.1318C42.0672 52.2298 42.0037 52.2161 41.9448 52.1906C41.8852 52.1648 41.8316 52.1276 41.7872 52.0812C41.2201 51.488 40.6228 50.9239 39.9977 50.3911Z" fill="#7040FF" stroke="black"/>
<path d="M41.1142 9.25992C40.9401 9.36711 40.76 9.45643 40.5859 9.54575L49.0317 12.5232C49.1633 12.568 49.303 12.5848 49.4415 12.5725C49.5801 12.5602 49.7146 12.519 49.8361 12.4517C51.6369 11.4513 53.3656 10.4688 54.9143 9.57553C55.0359 9.5049 55.1405 9.40891 55.221 9.2942C55.3015 9.17949 55.3559 9.04881 55.3804 8.91118C55.405 8.77356 55.3991 8.63229 55.3632 8.49715C55.3272 8.362 55.2621 8.23622 55.1724 8.12849C53.1723 5.76082 51.3468 3.25326 49.71 0.625297C49.6443 0.517365 49.5572 0.423742 49.454 0.350059C49.3509 0.276376 49.2338 0.224155 49.1097 0.196543C41.7144 -1.68521 41.1142 9.25992 41.1142 9.25992Z" fill="#10084D"/>
<mask id="path-3-inside-1_2093_11992" fill="white">
<path d="M29.2828 49.2591C29.4626 49.3766 29.6665 49.4527 29.8798 49.4817C30.093 49.5108 30.3101 49.492 30.5151 49.4269C30.7201 49.3618 30.9077 49.2519 31.0643 49.1054C31.2209 48.9589 31.3423 48.7794 31.4198 48.5802L40.5738 25.2072C40.6125 25.117 40.6218 25.0172 40.6004 24.9215C40.5791 24.8259 40.5282 24.7392 40.4548 24.6737C40.3815 24.6081 40.2893 24.5669 40.1912 24.5558C40.0931 24.5447 39.9939 24.5642 39.9075 24.6117C34.241 27.7083 28.0703 30.8048 24.3007 31.8707C20.2249 33.026 15.5848 31.9362 11.8812 30.513C11.6999 30.4438 11.5063 30.412 11.3122 30.4195C11.118 30.427 10.9276 30.4737 10.7523 30.5567C10.577 30.6398 10.4206 30.7574 10.2927 30.9025C10.1648 31.0475 10.068 31.2169 10.0083 31.4003C8.3276 36.6406 9.13795 42.1192 9.62416 44.4177C9.68953 44.7425 9.86654 45.0346 10.1249 45.2442C10.3833 45.4538 10.707 45.5679 11.0408 45.567C17.4817 45.5849 23.5623 45.4182 29.2828 49.2591Z"/>
</mask>
<path d="M29.2828 49.2591C29.4626 49.3766 29.6665 49.4527 29.8798 49.4817C30.093 49.5108 30.3101 49.492 30.5151 49.4269C30.7201 49.3618 30.9077 49.2519 31.0643 49.1054C31.2209 48.9589 31.3423 48.7794 31.4198 48.5802L40.5738 25.2072C40.6125 25.117 40.6218 25.0172 40.6004 24.9215C40.5791 24.8259 40.5282 24.7392 40.4548 24.6737C40.3815 24.6081 40.2893 24.5669 40.1912 24.5558C40.0931 24.5447 39.9939 24.5642 39.9075 24.6117C34.241 27.7083 28.0703 30.8048 24.3007 31.8707C20.2249 33.026 15.5848 31.9362 11.8812 30.513C11.6999 30.4438 11.5063 30.412 11.3122 30.4195C11.118 30.427 10.9276 30.4737 10.7523 30.5567C10.577 30.6398 10.4206 30.7574 10.2927 30.9025C10.1648 31.0475 10.068 31.2169 10.0083 31.4003C8.3276 36.6406 9.13795 42.1192 9.62416 44.4177C9.68953 44.7425 9.86654 45.0346 10.1249 45.2442C10.3833 45.4538 10.707 45.5679 11.0408 45.567C17.4817 45.5849 23.5623 45.4182 29.2828 49.2591Z" fill="#2576BC"/>
<path d="M29.2828 49.2591L28.7254 50.0894L28.7356 50.096L29.2828 49.2591ZM31.4198 48.5802L30.4887 48.2155L30.4878 48.2178L31.4198 48.5802ZM40.5738 25.2072L39.6546 24.8134L39.6484 24.8279L39.6427 24.8425L40.5738 25.2072ZM39.9075 24.6117L40.3871 25.4892L40.3893 25.488L39.9075 24.6117ZM24.3007 31.8707L24.0286 30.9085L24.028 30.9086L24.3007 31.8707ZM11.8812 30.513L12.2399 29.5796L12.2379 29.5788L11.8812 30.513ZM10.0083 31.4003L9.05741 31.0909L9.05612 31.0949L10.0083 31.4003ZM9.62416 44.4177L10.6045 44.2204L10.6025 44.2108L9.62416 44.4177ZM11.0408 45.567L11.0436 44.567L11.0381 44.567L11.0408 45.567ZM28.7356 50.096C29.0399 50.2951 29.3848 50.4235 29.7448 50.4726L30.0147 48.4909C29.9483 48.4818 29.8852 48.4582 29.8301 48.4222L28.7356 50.096ZM29.7448 50.4726C30.1048 50.5216 30.4714 50.49 30.8178 50.38L30.2123 48.4739C30.1487 48.4941 30.0812 48.4999 30.0147 48.4909L29.7448 50.4726ZM30.8178 50.38C31.1642 50.27 31.482 50.0841 31.7476 49.8356L30.381 48.3753C30.3335 48.4198 30.2759 48.4537 30.2123 48.4739L30.8178 50.38ZM31.7476 49.8356C32.0133 49.587 32.2199 49.2819 32.3518 48.9427L30.4878 48.2178C30.4648 48.277 30.4285 48.3309 30.381 48.3753L31.7476 49.8356ZM32.3509 48.9449L41.505 25.5719L39.6427 24.8425L30.4887 48.2155L32.3509 48.9449ZM41.493 25.601C41.6141 25.3183 41.6435 25.0045 41.5764 24.7038L39.6244 25.1393C39.6 25.0298 39.6108 24.9158 39.6546 24.8134L41.493 25.601ZM41.5764 24.7038C41.5094 24.4034 41.3498 24.1323 41.1212 23.928L39.7885 25.4193C39.7066 25.3461 39.6488 25.2484 39.6244 25.1393L41.5764 24.7038ZM41.1212 23.928C40.8928 23.7239 40.6069 23.5964 40.3037 23.5621L40.0787 25.5494C39.9717 25.5373 39.8701 25.4923 39.7885 25.4193L41.1212 23.928ZM40.3037 23.5621C40.0005 23.5278 39.6937 23.5881 39.4258 23.7354L40.3893 25.488C40.2942 25.5403 40.1857 25.5615 40.0787 25.5494L40.3037 23.5621ZM39.428 23.7342C33.745 26.8398 27.6718 29.8783 24.0286 30.9085L24.5728 32.833C28.4688 31.7313 34.7371 28.5767 40.3871 25.4892L39.428 23.7342ZM24.028 30.9086C20.2722 31.9732 15.8875 30.9813 12.2399 29.5796L11.5225 31.4465C15.2821 32.8912 20.1775 34.0788 24.5734 32.8328L24.028 30.9086ZM12.2379 29.5788C11.9305 29.4614 11.6023 29.4075 11.2734 29.4202L11.3509 31.4187C11.4102 31.4164 11.4693 31.4262 11.5244 31.4472L12.2379 29.5788ZM11.2734 29.4202C10.9446 29.433 10.6216 29.5121 10.3241 29.653L11.1804 31.4605C11.2335 31.4353 11.2915 31.421 11.3509 31.4187L11.2734 29.4202ZM10.3241 29.653C10.0266 29.794 9.76061 29.9939 9.54266 30.2411L11.0427 31.5639C11.0806 31.5209 11.1273 31.4856 11.1804 31.4605L10.3241 29.653ZM9.54266 30.2411C9.32475 30.4882 9.15946 30.7773 9.05741 31.0909L10.9593 31.7097C10.9766 31.6566 11.0048 31.6069 11.0427 31.5639L9.54266 30.2411ZM9.05612 31.0949C7.29546 36.5844 8.14765 42.2696 8.64581 44.6247L10.6025 44.2108C10.1282 41.9687 9.35974 36.6969 10.9606 31.7057L9.05612 31.0949ZM8.64383 44.6151C8.75531 45.1689 9.05689 45.6654 9.4949 46.0208L10.755 44.4676C10.6762 44.4037 10.6237 44.316 10.6045 44.2204L8.64383 44.6151ZM9.4949 46.0208C9.93277 46.376 10.4802 46.5685 11.0435 46.567L11.0381 44.567C10.9339 44.5673 10.8338 44.5316 10.755 44.4676L9.4949 46.0208ZM11.038 46.567C17.5475 46.5851 23.3007 46.447 28.7254 50.0893L29.8403 48.4289C23.824 44.3893 17.4158 44.5847 11.0436 44.567L11.038 46.567Z" fill="black" mask="url(#path-3-inside-1_2093_11992)"/>
<path d="M24.1717 23.0705L24.1714 23.0706C20.1336 24.2151 15.3962 23.0764 11.6372 21.5695C11.5767 21.5449 11.5221 21.5083 11.4768 21.4623C11.4313 21.4162 11.396 21.3614 11.3729 21.3017C11.3499 21.242 11.3395 21.1784 11.3422 21.1147C11.345 21.051 11.3609 20.9884 11.389 20.9308L11.3897 20.9294C11.9727 19.7271 12.7186 18.6093 13.6068 17.6071C13.8432 17.3411 13.9757 16.9987 13.9789 16.6426L13.979 16.6426V16.638V10.6837C13.9792 10.6 14.0025 10.5177 14.0466 10.4457C14.0908 10.3734 14.1543 10.3139 14.2308 10.2742C14.3073 10.2345 14.3936 10.2161 14.4803 10.2213C14.5669 10.2266 14.6501 10.2551 14.7209 10.3035C16.2772 11.373 18.8669 12.9254 21.9268 13.7954C24.9904 14.6665 28.5607 14.8624 32.031 13.1628L32.0311 13.1627C32.0895 13.1341 32.1532 13.1172 32.2186 13.1131C32.2832 13.1091 32.348 13.1177 32.4092 13.1384C32.4098 13.1386 32.4105 13.1388 32.4112 13.139L38.8412 15.4181L38.8437 15.419C38.9304 15.4492 39.0058 15.5035 39.0612 15.5747C39.1165 15.6458 39.1496 15.7309 39.1569 15.8197C39.1641 15.9083 39.1454 15.9974 39.1025 16.0762C39.0597 16.155 38.9944 16.2204 38.914 16.264C33.4499 19.2218 27.7113 22.0698 24.1717 23.0705Z" fill="#7040FF" stroke="black"/>
<path d="M39.7223 61.5676V61.5677H39.7279H88.4814C93.222 61.5677 98.4949 59.8014 101.226 58.7434C101.308 58.7143 101.398 58.7082 101.484 58.7258C101.571 58.7437 101.652 58.7854 101.716 58.8456C101.781 58.9059 101.826 58.9822 101.849 59.0659C101.871 59.1476 101.87 59.2335 101.847 59.3148C100.682 62.7737 99.2597 65.279 96.8825 66.9394C94.4965 68.606 91.0695 69.4762 85.7743 69.4762H16.8278C13.8904 69.4762 11.1905 67.558 10.4341 64.7838C9.68802 62.047 10.7922 58.2663 15.923 54.4917C16.0084 54.4293 16.1125 54.3962 16.2195 54.3979L16.2195 54.3979H16.2275C16.6679 54.3979 17.1057 54.3967 17.5409 54.3955C24.3683 54.3766 30.5731 54.3594 36.4251 59.0514C37.2146 59.69 37.9626 60.3776 38.6646 61.1099C38.8015 61.2527 38.9656 61.3667 39.1473 61.4453C39.3289 61.5238 39.5244 61.5654 39.7223 61.5676Z" fill="#FFFCB1" stroke="black"/>
<path d="M59.0801 6.35986C60.2711 6.98236 61.3269 7.83159 62.1869 8.85904C63.047 9.88648 63.6946 11.072 64.0926 12.3478C64.4906 13.6236 64.6313 14.9648 64.5066 16.2945C64.3819 17.6243 63.9944 18.9167 63.366 20.0979" stroke="#2576BC" stroke-width="2" stroke-linecap="round" stroke-linejoin="round"/>
<path d="M67.1849 19.9133L63.0851 21.1697L61.8125 17.1025" stroke="#2576BC" stroke-width="2" stroke-linecap="round" stroke-linejoin="round"/>
<path d="M111.766 48.8303C112.812 50.6926 113.071 52.8908 112.484 54.9419C111.898 56.993 110.515 58.7294 108.639 59.7695" stroke="#2576BC" stroke-width="2" stroke-linecap="round" stroke-linejoin="round"/>
<path d="M110.596 61.4191L107.33 60.502L108.254 57.2566" stroke="#2576BC" stroke-width="2" stroke-linecap="round" stroke-linejoin="round"/>
<path d="M5.37454 20.2585C4.50973 20.8739 3.77555 21.6523 3.21399 22.5492C2.65243 23.4461 2.27447 24.4439 2.10167 25.4857C1.92887 26.5275 1.96462 27.5929 2.20689 28.621C2.44917 29.6491 2.89322 30.6198 3.51368 31.4776" stroke="#2576BC" stroke-width="2" stroke-linecap="round" stroke-linejoin="round"/>
<path d="M1.03516 32.1447L4.38461 32.6926L4.93686 29.3638" stroke="#2576BC" stroke-width="2" stroke-linecap="round" stroke-linejoin="round"/>
<path d="M5.37518 47.0557C4.84127 47.4355 4.38805 47.9161 4.04144 48.4698C3.69484 49.0235 3.46163 49.6395 3.35515 50.2827C3.24868 50.9259 3.27104 51.5836 3.42092 52.2182C3.5708 52.8528 3.84526 53.4519 4.22866 53.9812" stroke="#2576BC" stroke-width="2" stroke-linecap="round" stroke-linejoin="round"/>
<path d="M2.69727 54.3923L4.76817 54.7317L5.10431 52.6772" stroke="#2576BC" stroke-width="2" stroke-linecap="round" stroke-linejoin="round"/>
</svg>
