<svg width="96" height="53" viewBox="0 0 96 53" fill="none" xmlns="http://www.w3.org/2000/svg">
<path d="M38.3691 14.0101L28.0625 40.3487C28.9758 41.0822 29.8363 41.8781 30.6377 42.7307H79.8054C86.4623 42.7307 94.2658 39.1577 94.2658 39.1577C96.6668 30.8208 87.6628 32.0118 87.6628 32.0118C67.0918 32.0118 52.5413 19.3159 44.8339 10.3359C42.9431 11.4376 40.7221 12.7179 38.3691 14.0042V14.0101Z" fill="#7040FF" stroke="#10084D" stroke-width="2" stroke-linecap="round" stroke-linejoin="round"/>
<path d="M30.038 10.5743C29.8639 10.6815 29.6838 10.7709 29.5098 10.8602L38.3697 14.0044C40.7228 12.7062 42.9438 11.4378 44.8346 10.3362C42.4586 7.62352 40.3199 4.71493 38.4417 1.64198C30.6383 -0.739987 30.038 10.5743 30.038 10.5743Z" fill="#10084D" stroke="#10084D" stroke-width="2" stroke-linecap="round" stroke-linejoin="round"/>
<path d="M28.0629 40.3487L38.3695 14.0339C32.4089 17.327 25.6499 20.7808 21.6341 21.9182C17.0421 23.2224 11.7357 21.6741 7.86996 20.0067C4.82662 27.2479 7.22771 35.5848 7.22771 35.5848C14.641 35.5848 21.586 35.1262 28.0629 40.3487Z" fill="#2576BC" stroke="#10084D" stroke-width="2" stroke-linecap="round" stroke-linejoin="round"/>
<path d="M21.6333 21.8886C25.649 20.7512 32.438 17.2973 38.3687 14.0043L29.5087 10.8601C20.6368 15.5823 10.8285 7.07275 10.8285 7.07275V15.3382C9.57291 16.6984 8.57087 18.2691 7.86914 19.9771C11.7348 21.6444 17.0412 23.1927 21.6333 21.8886Z" fill="#7040FF" stroke="#10084D" stroke-width="2" stroke-linecap="round" stroke-linejoin="round"/>
<path d="M79.806 42.7307H30.6383C29.8369 41.8782 28.9764 41.0823 28.0631 40.3488C21.5863 35.1501 14.6412 35.5849 7.22793 35.5849C-3.57685 43.3262 1.82555 51.6631 8.14034 51.6631H77.0988C88.744 51.6631 91.8654 47.4947 94.2664 39.1578C94.2664 39.1578 86.463 42.7307 79.806 42.7307Z" fill="#FEFCD3"/>
<path d="M30.6383 42.7307L29.9096 43.4156C30.0986 43.6167 30.3623 43.7307 30.6383 43.7307V42.7307ZM28.0631 40.3488L28.6893 39.5691L28.6891 39.5689L28.0631 40.3488ZM7.22793 35.5849V34.5849C7.01901 34.5849 6.81534 34.6503 6.64551 34.772L7.22793 35.5849ZM94.2664 39.1578L95.2274 39.4346C95.3355 39.0591 95.215 38.655 94.9189 38.4C94.6229 38.1451 94.2054 38.0859 93.8501 38.2486L94.2664 39.1578ZM79.806 41.7307H30.6383V43.7307H79.806V41.7307ZM31.3669 42.0458C30.5336 41.1593 29.6389 40.3317 28.6893 39.5691L27.4369 41.1285C28.314 41.8328 29.1402 42.5971 29.9096 43.4156L31.3669 42.0458ZM28.6891 39.5689C21.8861 34.1086 14.5433 34.5849 7.22793 34.5849V36.5849C14.7391 36.5849 21.2864 36.1917 27.4372 41.1286L28.6891 39.5689ZM6.64551 34.772C1.05805 38.7753 -0.636432 43.1717 0.296155 46.7774C1.20968 50.3094 4.56843 52.6631 8.14034 52.6631V50.6631C5.39747 50.6631 2.89762 48.8484 2.23244 46.2766C1.58632 43.7785 2.59303 40.1358 7.81035 36.3977L6.64551 34.772ZM8.14034 52.6631H77.0988V50.6631H8.14034V52.6631ZM77.0988 52.6631C83.0183 52.6631 86.9871 51.608 89.7841 49.3094C92.5686 47.021 94.0169 43.6376 95.2274 39.4346L93.3055 38.881C92.1149 43.0149 90.8019 45.8842 88.5142 47.7642C86.239 49.634 82.8245 50.6631 77.0988 50.6631V52.6631ZM94.2664 39.1578C93.8501 38.2486 93.8502 38.2485 93.8503 38.2485C93.8503 38.2485 93.8504 38.2485 93.8503 38.2485C93.8503 38.2485 93.8501 38.2486 93.8498 38.2487C93.8493 38.249 93.8482 38.2494 93.8467 38.2501C93.8438 38.2515 93.8389 38.2537 93.8322 38.2567C93.8188 38.2627 93.7982 38.272 93.7704 38.2844C93.715 38.3091 93.6314 38.3459 93.5219 38.3932C93.3027 38.4877 92.98 38.6239 92.571 38.7879C91.7525 39.116 90.5916 39.5541 89.227 39.9921C86.4801 40.8738 82.9808 41.7307 79.806 41.7307V43.7307C83.2882 43.7307 87.0192 42.8012 89.8382 41.8964C91.2565 41.4412 92.4625 40.9861 93.3152 40.6443C93.7418 40.4733 94.0807 40.3303 94.3144 40.2295C94.4312 40.179 94.5218 40.1391 94.5839 40.1115C94.6149 40.0977 94.6389 40.0869 94.6554 40.0794C94.6637 40.0757 94.6702 40.0727 94.6747 40.0707C94.677 40.0696 94.6788 40.0688 94.6801 40.0682C94.6808 40.0679 94.6814 40.0676 94.6818 40.0675C94.682 40.0674 94.6822 40.0672 94.6824 40.0672C94.6825 40.0671 94.6827 40.067 94.2664 39.1578Z" fill="#10084D"/>
<path d="M47.4035 13.8137L40.8066 22.1804" stroke="#10084D" stroke-width="2" stroke-linecap="round" stroke-linejoin="round"/>
<path d="M53.405 19.1731L48.1348 25.8605" stroke="#10084D" stroke-width="2" stroke-linecap="round" stroke-linejoin="round"/>
<path d="M59.4085 23.937L56.4492 27.6886" stroke="#10084D" stroke-width="2" stroke-linecap="round" stroke-linejoin="round"/>
<path d="M66.6111 27.51L64.6543 29.9932" stroke="#10084D" stroke-width="2" stroke-linecap="round" stroke-linejoin="round"/>
</svg>
