<svg width="144" height="56" viewBox="0 0 144 56" fill="none" xmlns="http://www.w3.org/2000/svg">
<path d="M99.2584 1.15992H28.9494C28.7327 1.1607 28.5182 1.20384 28.3182 1.28686C28.1182 1.36988 27.9367 1.49116 27.7839 1.64378C27.6312 1.7964 27.5103 1.97735 27.4281 2.17634C27.3458 2.37532 27.3039 2.58843 27.3047 2.80348V44.0591C27.3031 44.2747 27.3445 44.4884 27.4264 44.6881C27.5082 44.8878 27.629 45.0694 27.7818 45.2227C27.9346 45.3759 28.1164 45.4977 28.3168 45.5811C28.5172 45.6645 28.7322 45.7078 28.9494 45.7086H99.2704C99.7088 45.7055 100.128 45.5301 100.436 45.2209C100.745 44.9118 100.917 44.494 100.915 44.0591V2.80348C100.916 2.58743 100.874 2.37335 100.791 2.17359C100.708 1.97383 100.586 1.79234 100.432 1.63956C100.278 1.48679 100.095 1.36574 99.8933 1.28343C99.692 1.20111 99.4762 1.15914 99.2584 1.15992Z" fill="white" stroke="#10084D" stroke-width="2" stroke-linecap="round" stroke-linejoin="round"/>
<ellipse cx="64" cy="21.5" rx="22" ry="15.5" fill="#E2DBFF"/>
<path d="M38.1335 52.8903C38.9645 52.8903 39.7769 52.6459 40.4679 52.1878C41.1589 51.7298 41.6975 51.0788 42.0155 50.3171C42.3335 49.5554 42.4167 48.7173 42.2546 47.9087C42.0925 47.1001 41.6923 46.3573 41.1046 45.7744C40.517 45.1914 39.7683 44.7944 38.9532 44.6336C38.1381 44.4727 37.2933 44.5553 36.5255 44.8708C35.7577 45.1863 35.1015 45.7205 34.6398 46.406C34.1781 47.0915 33.9316 47.8975 33.9316 48.7219C33.9316 49.8274 34.3743 50.8877 35.1623 51.6694C35.9503 52.4512 37.0191 52.8903 38.1335 52.8903Z" fill="white"/>
<path d="M38.1333 46.4233C38.7084 46.4281 39.2613 46.6439 39.6855 47.029C40.1098 47.4141 40.3755 47.9413 40.4314 48.5091C40.4873 49.0769 40.3294 49.6451 39.9882 50.1044C39.6471 50.5637 39.1467 50.8815 38.5835 50.9966C38.1342 51.0874 37.6676 51.0418 37.2448 50.8656C36.749 50.6601 36.3401 50.2907 36.0874 49.8202C35.8347 49.3498 35.7538 48.807 35.8583 48.2841C35.9629 47.7612 36.2465 47.2902 36.6611 46.9511C37.0758 46.6119 37.5959 46.4254 38.1333 46.4233ZM38.1333 42.7312C36.9406 42.7337 35.7754 43.087 34.7849 43.7462C33.7945 44.4055 33.0234 45.3412 32.5688 46.4352C32.2268 47.254 32.0716 48.1377 32.1144 49.023C32.1571 49.9083 32.3969 50.7732 32.8163 51.5558C33.2357 52.3384 33.8244 53.0192 34.5402 53.5495C35.256 54.0798 36.0812 54.4465 36.9567 54.6232C38.1255 54.8554 39.3375 54.7373 40.4383 54.2837C41.7274 53.7494 42.7907 52.7895 43.448 51.5664C44.1053 50.3434 44.3162 48.9326 44.0449 47.573C43.7736 46.2134 43.0368 44.9886 41.9595 44.1062C40.8821 43.2238 39.5304 42.738 38.1333 42.7312Z" fill="#10084D"/>
<path d="M52.4979 52.8902C53.3304 52.8973 54.1464 52.6588 54.8421 52.2051C55.5378 51.7514 56.0819 51.1029 56.4055 50.3419C56.729 49.5808 56.8174 48.7416 56.6594 47.9307C56.5013 47.1197 56.104 46.3736 55.5178 45.7871C54.9316 45.2005 54.183 44.8 53.367 44.6362C52.5509 44.4725 51.7042 44.5529 50.9343 44.8673C50.1644 45.1817 49.506 45.716 49.0427 46.4022C48.5794 47.0885 48.3321 47.8958 48.332 48.7218C48.332 49.8211 48.7697 50.876 49.5499 51.6567C50.3302 52.4374 51.3897 52.8808 52.4979 52.8902Z" fill="white"/>
<path d="M52.498 46.4233C52.9575 46.4253 53.4061 46.5621 53.7874 46.8165C54.1687 47.0709 54.4656 47.4314 54.6408 47.8529C54.816 48.2743 54.8616 48.7377 54.7719 49.1848C54.6822 49.6319 54.4612 50.0427 54.1367 50.3654C53.8093 50.6904 53.391 50.9103 52.9361 50.9966C52.4869 51.0882 52.0202 51.0425 51.5976 50.8656C51.1022 50.6603 50.6935 50.2915 50.4407 49.8216C50.1879 49.3517 50.1065 48.8096 50.2103 48.287C50.3141 47.7644 50.5968 47.2935 51.0103 46.9539C51.4239 46.6142 51.9431 46.4268 52.4799 46.4233H52.498ZM52.498 42.7312C51.3053 42.7337 50.1401 43.087 49.1497 43.7462C48.1593 44.4055 47.388 45.3412 46.9335 46.4352C46.4756 47.5332 46.3556 48.7412 46.5884 49.9068C46.8213 51.0725 47.3967 52.1437 48.2421 52.9856C48.8705 53.6137 49.632 54.0949 50.4714 54.3944C51.3108 54.6938 52.2069 54.8039 53.0946 54.7167C53.9822 54.6294 54.8391 54.347 55.603 53.8899C56.3668 53.4329 57.0183 52.8127 57.5102 52.0745C58.2841 50.9184 58.632 49.5328 58.4953 48.1517C58.3586 46.7705 57.7456 45.4785 56.7598 44.4939C56.2019 43.9355 55.5381 43.4923 54.8066 43.1897C54.0751 42.8872 53.2905 42.7314 52.498 42.7312Z" fill="#10084D"/>
<path d="M109.499 52.8903C110.33 52.8903 111.142 52.6459 111.833 52.1878C112.524 51.7298 113.063 51.0788 113.381 50.3171C113.699 49.5554 113.782 48.7173 113.62 47.9087C113.458 47.1001 113.058 46.3573 112.47 45.7744C111.882 45.1914 111.134 44.7944 110.318 44.6336C109.503 44.4727 108.659 44.5553 107.891 44.8708C107.123 45.1863 106.467 45.7205 106.005 46.406C105.543 47.0915 105.297 47.8975 105.297 48.7219C105.297 49.8274 105.74 50.8877 106.528 51.6694C107.316 52.4512 108.384 52.8903 109.499 52.8903Z" fill="white"/>
<path d="M109.499 46.4233C109.958 46.4224 110.407 46.5581 110.788 46.8129C111.169 47.0676 111.464 47.4297 111.636 47.8524C111.811 48.2735 111.857 48.7365 111.769 49.1834C111.68 49.6304 111.46 50.0415 111.138 50.3654C110.81 50.6895 110.392 50.9093 109.937 50.9966C109.488 51.0878 109.021 51.0421 108.598 50.8656C108.175 50.6895 107.813 50.3932 107.559 50.0139C107.305 49.6346 107.17 49.1892 107.17 48.7338C107.17 48.123 107.414 47.5371 107.848 47.1042C108.282 46.6712 108.871 46.4264 109.487 46.4233H109.499ZM109.499 42.7312C108.305 42.7298 107.138 43.0814 106.147 43.7412C105.156 44.401 104.386 45.3389 103.934 46.4352C103.591 47.2539 103.435 48.1378 103.477 49.0235C103.52 49.9091 103.759 50.7745 104.179 51.5574C104.598 52.3403 105.188 53.0212 105.904 53.5513C106.62 54.0814 107.446 54.4475 108.322 54.6232C109.198 54.7939 110.101 54.7699 110.967 54.5529C111.832 54.3358 112.639 53.9311 113.327 53.3679C114.016 52.8047 114.571 52.0969 114.951 51.2956C115.331 50.4943 115.527 49.6194 115.525 48.7338C115.532 47.9478 115.381 47.1683 115.082 46.4403C114.784 45.7123 114.342 45.0502 113.784 44.4922C113.226 43.9341 112.563 43.4913 111.831 43.189C111.1 42.8868 110.315 42.7312 109.523 42.7312H109.499Z" fill="#10084D"/>
<path d="M85.8659 52.8903C86.697 52.8903 87.5094 52.6459 88.2004 52.1878C88.8914 51.7298 89.4299 51.0788 89.7479 50.3171C90.0659 49.5554 90.1492 48.7173 89.9871 47.9087C89.825 47.1001 89.4248 46.3573 88.8371 45.7744C88.2495 45.1914 87.5008 44.7944 86.6857 44.6336C85.8706 44.4727 85.0258 44.5553 84.258 44.8708C83.4902 45.1863 82.834 45.7205 82.3723 46.406C81.9106 47.0915 81.6641 47.8975 81.6641 48.7219C81.6641 49.8274 82.1068 50.8877 82.8948 51.6694C83.6828 52.4512 84.7515 52.8903 85.8659 52.8903Z" fill="white"/>
<path d="M85.8671 46.4233C86.3264 46.4224 86.7755 46.5581 87.1564 46.8129C87.5373 47.0676 87.8325 47.4297 88.0041 47.8524C88.1825 48.2737 88.2285 48.7386 88.1361 49.1863C88.0453 49.6264 87.8263 50.0303 87.5062 50.3479C87.186 50.6655 86.7789 50.8828 86.3353 50.9728C85.886 51.064 85.4194 51.0183 84.9967 50.8418C84.5009 50.6363 84.0919 50.2669 83.8392 49.7964C83.5865 49.3259 83.5056 48.7832 83.6102 48.2603C83.7147 47.7374 83.9984 47.2664 84.413 46.9272C84.8277 46.5881 85.3477 46.4016 85.8851 46.3994L85.8671 46.4233ZM85.8671 42.7312C84.6735 42.7298 83.5066 43.0814 82.5155 43.7412C81.5243 44.401 80.7539 45.3389 80.3027 46.4352C79.8425 47.5324 79.7205 48.7404 79.9524 49.9064C80.1843 51.0723 80.7595 52.1439 81.6052 52.9856C82.2336 53.6137 82.9952 54.0949 83.8345 54.3944C84.6739 54.6938 85.57 54.8039 86.4577 54.7167C87.3453 54.6294 88.2022 54.347 88.9661 53.8899C89.7299 53.4329 90.3814 52.8127 90.8733 52.0745C91.6472 50.9184 91.9952 49.5328 91.8585 48.1517C91.7218 46.7705 91.1088 45.4785 90.123 44.4939C89.5658 43.9362 88.9029 43.4934 88.1725 43.1909C87.4421 42.8884 86.6586 42.7321 85.8671 42.7312Z" fill="#10084D"/>
<path d="M123.402 52.8902C124.235 52.8961 125.05 52.6567 125.745 52.2022C126.44 51.7478 126.983 51.0989 127.306 50.3377C127.628 49.5766 127.716 48.7375 127.557 47.927C127.398 47.1164 127.001 46.3709 126.414 45.785C125.828 45.199 125.079 44.799 124.263 44.6358C123.447 44.4725 122.601 44.5533 121.831 44.8679C121.062 45.1825 120.404 45.7167 119.941 46.4029C119.478 47.089 119.23 47.8961 119.23 48.7218C119.23 49.8222 119.669 50.878 120.451 51.6589C121.232 52.4397 122.293 52.8824 123.402 52.8902Z" fill="white"/>
<path d="M123.401 46.4233C123.858 46.4241 124.305 46.5587 124.686 46.8104C125.067 47.0687 125.365 47.4305 125.544 47.8525C125.718 48.2751 125.762 48.7391 125.67 49.1864C125.587 49.6377 125.367 50.0531 125.04 50.3774C124.712 50.7015 124.294 50.9212 123.839 51.0086C123.39 51.0997 122.923 51.0541 122.501 50.8776C122.077 50.703 121.715 50.4064 121.462 50.026C121.234 49.6791 121.104 49.2776 121.086 48.8638C121.068 48.4499 121.162 48.0388 121.359 47.6735C121.556 47.3082 121.849 47.0022 122.206 46.7875C122.563 46.5728 122.972 46.4573 123.389 46.4531L123.401 46.4233ZM123.401 42.7312C122.208 42.7298 121.041 43.0815 120.049 43.7412C119.058 44.401 118.288 45.3389 117.837 46.4352C117.494 47.2539 117.338 48.1378 117.38 49.0235C117.422 49.9092 117.662 50.7745 118.081 51.5574C118.501 52.3403 119.09 53.0213 119.806 53.5514C120.523 54.0815 121.349 54.4475 122.225 54.6232C123.046 54.7689 123.888 54.7446 124.699 54.552C125.51 54.3593 126.272 54.0024 126.938 53.5036C127.603 53.0049 128.157 52.375 128.566 51.6537C128.974 50.9323 129.228 50.1349 129.311 49.3117C129.394 48.4885 129.304 47.6571 129.048 46.8698C128.792 46.0825 128.374 45.3562 127.821 44.7366C127.269 44.117 126.593 43.6175 125.836 43.2693C125.08 42.9211 124.259 42.7319 123.425 42.7134L123.401 42.7312Z" fill="#10084D"/>
<path d="M130.713 45.5003H104.967C104.771 45.5003 104.576 45.4617 104.394 45.3868C104.212 45.3119 104.047 45.2022 103.908 45.0639C103.769 44.9256 103.659 44.7614 103.585 44.5808C103.51 44.4002 103.472 44.2068 103.473 44.0115V14.6538C103.473 14.2606 103.63 13.8834 103.91 13.6054C104.191 13.3273 104.571 13.1711 104.967 13.1711H122.171C122.407 13.1675 122.64 13.2228 122.849 13.3318C123.062 13.4393 123.246 13.5967 123.383 13.7904L131.925 25.7002C132.107 25.9546 132.205 26.258 132.207 26.5696V43.9877C132.208 44.183 132.17 44.3764 132.095 44.557C132.021 44.7376 131.911 44.9017 131.772 45.0401C131.633 45.1784 131.468 45.2881 131.286 45.363C131.104 45.4379 130.91 45.4765 130.713 45.4765V45.5003Z" fill="#7040FF" stroke="#10084D" stroke-width="2" stroke-linecap="round" stroke-linejoin="round"/>
<path d="M56.7411 45.5003H33.8409C33.597 45.499 33.3581 45.4311 33.1506 45.3038C32.9392 45.1718 32.7688 44.9843 32.6584 44.7619C32.5469 44.5389 32.501 44.2891 32.5263 44.0414C32.5501 43.7934 32.6461 43.5575 32.8025 43.3625L35.3836 40.0159C35.5064 39.8533 35.6671 39.7226 35.8518 39.6348C36.0383 39.543 36.2439 39.4961 36.4521 39.4978H54.1599C54.3683 39.4938 54.5745 39.5408 54.7602 39.6348C54.9441 39.7237 55.1045 39.8543 55.2284 40.0159L57.8155 43.3625C57.9647 43.5605 58.0561 43.7953 58.0796 44.0414C58.0971 44.2253 58.0759 44.4108 58.0173 44.5861C57.9587 44.7614 57.8641 44.9228 57.7394 45.06C57.6146 45.1971 57.4626 45.3071 57.2928 45.3829C57.123 45.4587 56.9392 45.4987 56.753 45.5003H56.7411Z" fill="#E2DBFF" stroke="#10084D" stroke-width="2" stroke-linecap="round" stroke-linejoin="round"/>
<path d="M127.639 45.5002H104.739C104.489 45.5006 104.244 45.4326 104.03 45.3037C103.82 45.1701 103.65 44.9829 103.538 44.7618C103.429 44.5382 103.385 44.2884 103.412 44.0412C103.437 43.7945 103.53 43.5594 103.682 43.3624L106.264 40.0157C106.389 39.8557 106.549 39.7255 106.732 39.6346C106.918 39.5435 107.124 39.4966 107.332 39.4976H125.07C125.278 39.4929 125.485 39.5399 125.67 39.6346C125.855 39.722 126.016 39.8528 126.138 40.0157L128.725 43.3624C128.877 43.5598 128.97 43.7947 128.996 44.0412C129.023 44.2853 128.981 44.5322 128.875 44.7541C128.769 44.976 128.603 45.1643 128.395 45.2977C128.169 45.4379 127.906 45.5083 127.639 45.5002Z" fill="#E2DBFF" stroke="#10084D" stroke-width="2" stroke-linecap="round" stroke-linejoin="round"/>
<path d="M92.8846 45.5002H79.2526C79.0027 45.5006 78.7576 45.4326 78.5442 45.3037C78.3342 45.1701 78.1642 44.9829 78.052 44.7618C77.9423 44.5382 77.8985 44.2884 77.9259 44.0412C77.9506 43.7945 78.0442 43.5594 78.1961 43.3624L80.7772 40.0157C80.9028 39.8557 81.0627 39.7255 81.2454 39.6346C81.4321 39.5435 81.6376 39.4966 81.8457 39.4976H90.3155C90.5239 39.4929 90.7303 39.5399 90.9157 39.6346C91.1021 39.7199 91.2633 39.8511 91.3839 40.0157L93.9711 43.3624C94.1221 43.5598 94.2156 43.7947 94.2412 44.0412C94.2687 44.2853 94.2271 44.5322 94.1211 44.7541C94.015 44.976 93.8488 45.1643 93.641 45.2977C93.4145 45.4379 93.1514 45.5083 92.8846 45.5002Z" fill="#E2DBFF" stroke="#10084D" stroke-width="2" stroke-linecap="round" stroke-linejoin="round"/>
<path d="M129.89 28.6299H109.48V15.2551H121.798L129.872 26.5278L129.89 28.6299Z" fill="white" stroke="#10084D" stroke-width="2" stroke-linecap="round" stroke-linejoin="round"/>
<path d="M40.6192 46.2327L40.2411 46.0004C40.774 45.0644 41.0066 43.9894 40.9079 42.9189C40.8093 41.8484 40.3841 40.8331 39.6891 40.0084C38.994 39.1836 38.0621 38.5887 37.0175 38.3027C35.9729 38.0168 34.8653 38.0535 33.8423 38.4079C33.9212 37.9275 33.9613 37.4417 33.9623 36.9549C33.9703 34.6668 33.1402 32.4536 31.6264 30.7273C30.1126 29.0009 28.0181 27.8789 25.7327 27.57C23.4506 27.2625 21.134 27.7942 19.2198 29.0647C17.3009 30.3348 15.9106 32.2513 15.3061 34.4598C14.4552 33.7469 13.4649 33.2161 12.3975 32.9009C11.33 32.5857 10.2084 32.4928 9.10304 32.6282C7.99767 32.7635 6.93243 33.1241 5.97422 33.6873C5.01601 34.2505 4.18552 35.0041 3.53491 35.9009C2.66217 37.1057 2.13898 38.5247 2.02223 40.0038H1.99219V40.5993C1.99227 40.942 2.01634 41.2842 2.06422 41.6236C3.06066 54.0217 15.198 54.6827 15.198 54.6827H58.3631C47.5583 54.7363 40.6192 46.2327 40.6192 46.2327Z" fill="white" stroke="#10084D" stroke-width="2" stroke-linecap="round" stroke-linejoin="round"/>
<path d="M25.1328 40.5695C25.5267 39.4371 26.2945 38.4698 27.3118 37.8243C27.7819 37.5298 28.3062 37.3308 28.8543 37.2388C29.4025 37.1468 29.9636 37.1637 30.5051 37.2884C31.635 37.5727 32.62 38.2594 33.2724 39.2177C33.9866 40.2515 34.3637 41.4779 34.3529 42.7311" stroke="#10084D" stroke-width="2" stroke-linecap="round" stroke-linejoin="round"/>
<path d="M26.5488 33.4893C27.5348 33.4924 28.4792 33.8836 29.1748 34.5769C29.8703 35.2703 30.2601 36.2091 30.2585 37.1873" stroke="#10084D" stroke-width="2" stroke-linecap="round" stroke-linejoin="round"/>
<path d="M11.2598 38.1101C11.2592 37.1305 11.6498 36.1905 12.3462 35.4959C12.6887 35.1528 13.0963 34.8803 13.5455 34.6943C13.9947 34.5083 14.4766 34.4124 14.9633 34.4121" stroke="#10084D" stroke-width="2" stroke-linecap="round" stroke-linejoin="round"/>
<path d="M109.5 31.7502H112.988" stroke="#10084D" stroke-width="2" stroke-linecap="round" stroke-linejoin="round"/>
<path d="M131.739 38.5747C131.344 38.5738 130.953 38.4955 130.588 38.3443C130.224 38.193 129.893 37.9718 129.614 37.6934C129.049 37.1289 128.732 36.3658 128.732 35.5704C128.732 34.7751 129.049 34.0119 129.614 33.4475C129.893 33.169 130.224 32.9478 130.588 32.7966C130.953 32.6453 131.344 32.567 131.739 32.5662" fill="#7040FF"/>
<path d="M131.739 38.5747C131.344 38.5738 130.953 38.4955 130.588 38.3443C130.224 38.193 129.893 37.9718 129.614 37.6934C129.049 37.1289 128.732 36.3658 128.732 35.5704C128.732 34.7751 129.049 34.0119 129.614 33.4475C129.893 33.169 130.224 32.9478 130.588 32.7966C130.953 32.6453 131.344 32.567 131.739 32.5662" stroke="#10084D" stroke-width="2" stroke-linecap="round" stroke-linejoin="round"/>
<path d="M120.154 15.4756L116.33 19.2927" stroke="#10084D" stroke-width="2" stroke-linecap="round" stroke-linejoin="round"/>
<path d="M119.691 18.709L114.133 24.253" stroke="#10084D" stroke-width="2" stroke-linecap="round" stroke-linejoin="round"/>
<path d="M121.546 25.176L119.691 27.022" stroke="#10084D" stroke-width="2" stroke-linecap="round" stroke-linejoin="round"/>
<path d="M71.502 54.7363H94.222" stroke="#10084D" stroke-width="2" stroke-linecap="round" stroke-linejoin="round"/>
<path d="M101.625 54.7363H115.521" stroke="#10084D" stroke-width="2" stroke-linecap="round" stroke-linejoin="round"/>
<path d="M118.305 54.7363H135.91" stroke="#10084D" stroke-width="2" stroke-linecap="round" stroke-linejoin="round"/>
<path d="M139.158 54.7363H142.4" stroke="#10084D" stroke-width="2" stroke-linecap="round" stroke-linejoin="round"/>
<path d="M61.9638 15.023L58.2422 24.5508C58.5728 24.8182 58.8837 25.1088 59.1726 25.4202H76.9404C79.3414 25.4202 82.1627 24.128 82.1627 24.128C83.0331 21.1148 79.7617 21.5495 79.7617 21.5495C72.3244 21.5495 67.072 16.9583 64.2808 13.7129C63.6025 14.1119 62.7981 14.5704 61.9458 15.0408L61.9638 15.023Z" fill="#7040FF" stroke="#10084D" stroke-width="2" stroke-linecap="round" stroke-linejoin="round"/>
<path d="M58.9616 13.7843L58.7695 13.8855L61.969 15.0229C62.8213 14.5525 63.6257 14.0939 64.304 13.695C63.4474 12.7156 62.6763 11.6657 61.999 10.5567C59.1597 9.69325 58.9616 13.7843 58.9616 13.7843Z" fill="#10084D" stroke="#10084D" stroke-width="2" stroke-linecap="round" stroke-linejoin="round"/>
<path d="M58.2295 24.533L61.9511 15.0051C60.0294 16.1375 58.0058 17.0904 55.9065 17.8516C54.2438 18.322 52.3049 17.7682 50.9303 17.1608C49.8318 19.7929 50.7022 22.8001 50.7022 22.8001C53.3794 22.818 55.8885 22.6751 58.2295 24.533Z" fill="#E2DBFF" stroke="#10084D" stroke-width="2" stroke-linecap="round" stroke-linejoin="round"/>
<path d="M55.9079 17.8693C58.0072 17.1081 60.0308 16.1552 61.9525 15.0229L58.7531 13.8855C55.5477 15.5946 52.0001 12.5159 52.0001 12.5159V15.4933C51.5476 15.9845 51.1859 16.5509 50.9316 17.1667C52.3603 17.786 54.2451 18.3398 55.9079 17.8693Z" fill="#7040FF" stroke="#10084D" stroke-width="2" stroke-linecap="round" stroke-linejoin="round"/>
<path d="M76.9292 25.4024H59.1612C58.8724 25.091 58.5615 24.8004 58.2309 24.533C55.8898 22.6513 53.3807 22.818 50.7035 22.818C46.7958 25.6168 48.7467 28.63 51.0337 28.63H75.9507C80.1526 28.63 81.287 27.1234 82.1514 24.1102C82.1514 24.1102 79.3302 25.4024 76.9292 25.4024Z" fill="#FFEEC1" stroke="#10084D" stroke-width="2" stroke-linecap="round" stroke-linejoin="round"/>
<path d="M65.2189 14.9514L62.8359 17.9765" stroke="#10084D" stroke-width="2" stroke-linecap="round" stroke-linejoin="round"/>
<path d="M67.3834 16.8928L65.4805 19.3105" stroke="#10084D" stroke-width="2" stroke-linecap="round" stroke-linejoin="round"/>
<path d="M69.5568 18.6138L68.4883 19.9655" stroke="#10084D" stroke-width="2" stroke-linecap="round" stroke-linejoin="round"/>
<path d="M72.1555 19.9001L71.4531 20.7993" stroke="#10084D" stroke-width="2" stroke-linecap="round" stroke-linejoin="round"/>
</svg>
