<svg width="126" height="120" viewBox="0 0 126 120" fill="none" xmlns="http://www.w3.org/2000/svg">
<path d="M64.9419 45.9395C64.9419 45.9395 78.5146 66.444 110.396 67.1281C110.396 67.1281 114.356 67.4917 114.908 72.3781C113.971 76.1099 102.378 78.9258 90.8373 78.4144C79.2964 77.9031 55.535 77.3803 55.535 77.3803C55.535 77.3803 50.2691 77.1667 48.2305 75.3826L57.2964 49.2213L63.6759 46.4713L64.9419 45.9395Z" fill="#4329E2"/>
<path d="M52.6738 33.2732C52.6738 33.2732 48.7465 30.1891 42.6465 30.446C42.6465 30.446 45.6647 29.4528 45.526 23.2982C47.7169 19.8892 52.4238 20.1164 52.4238 20.1164L59.642 30.2823L52.6738 33.2732Z" fill="#04007F"/>
<path d="M52.6775 33.3912C52.6519 33.3909 52.6271 33.3821 52.607 33.3662C52.5684 33.3367 48.6388 30.3117 42.6548 30.564C42.6272 30.566 42.6 30.5575 42.5785 30.5402C42.557 30.5229 42.5428 30.4981 42.5388 30.4708C42.5341 30.4441 42.5391 30.4166 42.5528 30.3933C42.5666 30.37 42.5882 30.3523 42.6138 30.3435C42.6434 30.3322 45.5502 29.289 45.4161 23.2981C45.4143 23.2757 45.4199 23.2533 45.432 23.2344C47.6343 19.8072 52.3888 20.0003 52.4343 20.0026C52.4514 20.0034 52.4681 20.0081 52.4831 20.0164C52.498 20.0247 52.5109 20.0363 52.5207 20.0503L59.7388 30.2162C59.7481 30.2305 59.7543 30.2466 59.7571 30.2634C59.7598 30.2803 59.759 30.2975 59.7547 30.314C59.7499 30.3299 59.7417 30.3446 59.7307 30.3571C59.7197 30.3697 59.7062 30.3797 59.6911 30.3867L52.7229 33.3821C52.7084 33.3876 52.693 33.3906 52.6775 33.3912ZM43.3593 30.3231C48.6525 30.3231 52.2229 32.7958 52.6888 33.1458L59.4661 30.239C56.6925 26.3337 55.1374 24.1442 52.3638 20.239C51.8411 20.239 47.6502 20.239 45.6388 23.339C45.7366 28.0731 44.0002 29.7776 43.1388 30.3276L43.3593 30.3231Z" fill="black"/>
<path d="M46.8832 42.8213C46.8832 42.8213 40.5878 46.6417 36.856 48.2758C32.9582 49.9781 18.6173 51.1985 16.4855 48.9781C15.4378 47.8894 20.3241 45.6508 19.9582 39.2303C19.9582 39.2303 19.6241 35.5258 22.5991 37.5144C25.5741 39.5031 31.315 43.5053 36.856 40.0008C41.0378 38.9076 46.8832 42.8213 46.8832 42.8213Z" fill="#A194FF"/>
<path d="M47.2655 50.8389L38.1973 77.0002C36.1304 75.568 33.9904 74.2442 31.7859 73.0343C27.7746 70.7957 15.9609 72.2002 15.9609 72.2002C15.9609 72.2002 16.2814 65.0184 16.1268 61.4707C15.9609 57.6343 17.1564 56.6525 17.1564 56.6525C17.1564 56.6525 24.5269 59.4275 32.6769 57.2457C42.4019 54.6434 47.2655 50.8389 47.2655 50.8389Z" fill="#2A66FF"/>
<path d="M110.169 86.5904C110.169 86.5904 111.126 99.045 98.0006 101.39C85.5256 103.62 35.3552 101.87 24.6961 101.468C22.5817 101.406 20.5344 100.712 18.8188 99.4745C15.7347 97.2018 13.137 92.6995 21.2552 84.795C21.2552 84.795 34.5779 84.0359 37.0802 85.6291C39.5824 87.2223 43.5552 91.3245 50.7983 91.5927C57.362 91.8336 89.5619 92.1518 95.5347 92.2086C96.2204 92.2161 96.9053 92.1583 97.5801 92.0359C100.507 91.4973 108.457 89.7859 110.169 86.5904Z" fill="#FFEDBF"/>
<path d="M37.188 85.4376C37.577 85.6868 37.9942 85.9925 38.4618 86.3351C38.5542 86.4029 38.6485 86.472 38.7451 86.5425L21.2266 84.5694C21.2315 84.5691 21.2373 84.5688 21.2441 84.5684C21.262 84.5675 21.2867 84.5661 21.3178 84.5645C22.596 84.4961 34.7068 83.8798 37.1791 85.4319C37.1795 85.4322 37.1798 85.4324 37.1802 85.4326C37.1828 85.4343 37.1854 85.4359 37.188 85.4376ZM37.188 85.4376L36.9506 85.8109L21.2266 84.6535L21.2314 84.6583L21.3265 84.7534L21.566 84.9929C23.5852 84.8993 34.7407 84.4123 36.9425 85.8057C36.9448 85.8072 36.9471 85.8086 36.9493 85.8101L37.188 85.4376Z" fill="#FFC900" stroke="#E3E301" stroke-width="2"/>
<path d="M87.8256 84.7461H87.3711V91.037H87.8256V84.7461Z" fill="#662D91"/>
<path d="M89.2226 85.2479L87.5908 82.4229L85.959 85.2479H89.2226Z" fill="#662D91"/>
<path d="M56.7221 84.7461H56.2676V91.037H56.7221V84.7461Z" fill="#662D91"/>
<path d="M58.1425 85.2479L56.5107 82.4229L54.8789 85.2479H58.1425Z" fill="#662D91"/>
<path d="M27.9311 79.9004H27.4766V84.614H27.9311V79.9004Z" fill="#662D91"/>
<path d="M29.3437 80.3533L27.7119 77.5283L26.0801 80.3533H29.3437Z" fill="#662D91"/>
<path d="M44.5379 72.1553H39.8242V72.6098H44.5379V72.1553Z" fill="#662D91"/>
<path d="M44.0547 73.9873L46.8797 72.3554L44.0547 70.7236V73.9873Z" fill="#662D91"/>
<path d="M49.4011 57.9541H44.6875V58.4086H49.4011V57.9541Z" fill="#662D91"/>
<path d="M48.918 59.7783L51.743 58.1465L48.918 56.5146V59.7783Z" fill="#662D91"/>
<path d="M58.1772 36.9277H57.7227V41.6414H58.1772V36.9277Z" fill="#662D91"/>
<path d="M56.3105 41.1768L57.9424 44.0018L59.5742 41.1768H56.3105Z" fill="#662D91"/>
<path d="M41.5913 45.9395H41.1367V49.7122H41.5913V45.9395Z" fill="#662D91"/>
<path d="M39.7441 49.1982L41.376 52.0232L43.0078 49.1982H39.7441Z" fill="#662D91"/>
<path d="M48.4545 36.5928H48V40.3655H48.4545V36.5928Z" fill="#662D91"/>
<path d="M46.5898 39.8975L48.2217 42.7225L49.8535 39.8975H46.5898Z" fill="#662D91"/>
<path d="M23.4448 49.6143H22.9902V53.387H23.4448V49.6143Z" fill="#662D91"/>
<path d="M21.5938 52.918L23.2256 55.7452L24.8574 52.918H21.5938Z" fill="#662D91"/>
</svg>
