<svg width="128" height="120" viewBox="0 0 128 120" fill="none" xmlns="http://www.w3.org/2000/svg">
<path d="M96.9581 86.2049H96.3263C96.1455 86.2049 95.9721 86.133 95.8442 86.0052C95.7163 85.8773 95.6445 85.7039 95.6445 85.5231C95.6445 85.3422 95.7163 85.1688 95.8442 85.0409C95.9721 84.9131 96.1455 84.8412 96.3263 84.8412H96.8195C97.4044 84.7098 97.9818 84.5467 98.549 84.3526C98.6338 84.3236 98.7234 84.3117 98.8128 84.3174C98.9022 84.3231 98.9896 84.3463 99.07 84.3858C99.1504 84.4252 99.2223 84.4801 99.2815 84.5474C99.3406 84.6146 99.386 84.6928 99.415 84.7776C99.4439 84.8624 99.4559 84.952 99.4502 85.0414C99.4445 85.1308 99.4213 85.2182 99.3818 85.2986C99.3423 85.379 99.2874 85.4508 99.2202 85.51C99.1529 85.5692 99.0747 85.6146 98.9899 85.6435C98.3512 85.8611 97.701 86.0432 97.0422 86.189L96.9581 86.2049ZM91.9968 86.2049H89.4968C89.3159 86.2049 89.1425 86.133 89.0147 86.0052C88.8868 85.8773 88.815 85.7039 88.815 85.5231C88.815 85.3422 88.8868 85.1688 89.0147 85.0409C89.1425 84.9131 89.3159 84.8412 89.4968 84.8412H91.9968C92.1776 84.8412 92.351 84.9131 92.4789 85.0409C92.6068 85.1688 92.6786 85.3422 92.6786 85.5231C92.6786 85.7039 92.6068 85.8773 92.4789 86.0052C92.351 86.133 92.1776 86.2049 91.9968 86.2049V86.2049ZM85.1604 86.2049H82.6604C82.4796 86.2049 82.3062 86.133 82.1783 86.0052C82.0504 85.8773 81.9786 85.7039 81.9786 85.5231C81.9786 85.3422 82.0504 85.1688 82.1783 85.0409C82.3062 84.9131 82.4796 84.8412 82.6604 84.8412H85.1604C85.3412 84.8412 85.5147 84.9131 85.6425 85.0409C85.7704 85.1688 85.8422 85.3422 85.8422 85.5231C85.8422 85.7039 85.7704 85.8773 85.6425 86.0052C85.5147 86.133 85.3412 86.2049 85.1604 86.2049ZM78.3241 86.2049H75.8241C75.6432 86.2049 75.4698 86.133 75.3419 86.0052C75.2141 85.8773 75.1422 85.7039 75.1422 85.5231C75.1422 85.3422 75.2141 85.1688 75.3419 85.0409C75.4698 84.9131 75.6432 84.8412 75.8241 84.8412H78.3241C78.5049 84.8412 78.6783 84.9131 78.8062 85.0409C78.934 85.1688 79.0059 85.3422 79.0059 85.5231C79.0059 85.7039 78.934 85.8773 78.8062 86.0052C78.6783 86.133 78.5049 86.2049 78.3241 86.2049ZM71.4877 86.2049H68.9877C68.8069 86.2049 68.6334 86.133 68.5056 86.0052C68.3777 85.8773 68.3059 85.7039 68.3059 85.5231C68.3059 85.3422 68.3777 85.1688 68.5056 85.0409C68.6334 84.9131 68.8069 84.8412 68.9877 84.8412H71.4877C71.6685 84.8412 71.842 84.9131 71.9698 85.0409C72.0977 85.1688 72.1695 85.3422 72.1695 85.5231C72.1695 85.7039 72.0977 85.8773 71.9698 86.0052C71.842 86.133 71.6685 86.2049 71.4877 86.2049ZM64.6536 86.2049H62.1536C61.9728 86.2049 61.7994 86.133 61.6715 86.0052C61.5436 85.8773 61.4718 85.7039 61.4718 85.5231C61.4718 85.3422 61.5436 85.1688 61.6715 85.0409C61.7994 84.9131 61.9728 84.8412 62.1536 84.8412H64.6536C64.8344 84.8412 65.0079 84.9131 65.1357 85.0409C65.2636 85.1688 65.3354 85.3422 65.3354 85.5231C65.3354 85.7039 65.2636 85.8773 65.1357 86.0052C65.0079 86.133 64.8344 86.2049 64.6536 86.2049ZM57.8173 86.2049H55.3173C55.1364 86.2049 54.963 86.133 54.8351 86.0052C54.7073 85.8773 54.6354 85.7039 54.6354 85.5231C54.6354 85.3422 54.7073 85.1688 54.8351 85.0409C54.963 84.9131 55.1364 84.8412 55.3173 84.8412H57.8173C57.9981 84.8412 58.1715 84.9131 58.2994 85.0409C58.4272 85.1688 58.4991 85.3422 58.4991 85.5231C58.4991 85.7039 58.4272 85.8773 58.2994 86.0052C58.1715 86.133 57.9981 86.2049 57.8173 86.2049ZM50.9809 86.2049H48.4809C48.3001 86.2049 48.1266 86.133 47.9988 86.0052C47.8709 85.8773 47.7991 85.7039 47.7991 85.5231C47.7991 85.3422 47.8709 85.1688 47.9988 85.0409C48.1266 84.9131 48.3001 84.8412 48.4809 84.8412H50.9809C51.1617 84.8412 51.3352 84.9131 51.463 85.0409C51.5909 85.1688 51.6627 85.3422 51.6627 85.5231C51.6627 85.7039 51.5909 85.8773 51.463 86.0052C51.3352 86.133 51.1617 86.2049 50.9809 86.2049V86.2049ZM44.1445 86.2049H41.6445C41.4637 86.2049 41.2903 86.133 41.1624 86.0052C41.0346 85.8773 40.9627 85.7039 40.9627 85.5231C40.9627 85.3422 41.0346 85.1688 41.1624 85.0409C41.2903 84.9131 41.4637 84.8412 41.6445 84.8412H44.1445C44.3254 84.8412 44.4988 84.9131 44.6267 85.0409C44.7545 85.1688 44.8264 85.3422 44.8264 85.5231C44.8264 85.7039 44.7545 85.8773 44.6267 86.0052C44.4988 86.133 44.3254 86.2049 44.1445 86.2049ZM37.3082 86.2049H34.8082C34.6274 86.2049 34.4539 86.133 34.3261 86.0052C34.1982 85.8773 34.1264 85.7039 34.1264 85.5231C34.1264 85.3422 34.1982 85.1688 34.3261 85.0409C34.4539 84.9131 34.6274 84.8412 34.8082 84.8412H37.3082C37.489 84.8412 37.6624 84.9131 37.7903 85.0409C37.9182 85.1688 37.99 85.3422 37.99 85.5231C37.99 85.7039 37.9182 85.8773 37.7903 86.0052C37.6624 86.133 37.489 86.2049 37.3082 86.2049ZM30.4718 86.2049H27.9559C27.7751 86.2049 27.6017 86.133 27.4738 86.0052C27.3459 85.8773 27.2741 85.7039 27.2741 85.5231C27.2741 85.3422 27.3459 85.1688 27.4738 85.0409C27.6017 84.9131 27.7751 84.8412 27.9559 84.8412H30.4559C30.6367 84.8412 30.8102 84.9131 30.938 85.0409C31.0659 85.1688 31.1377 85.3422 31.1377 85.5231C31.1377 85.7039 31.0659 85.8773 30.938 86.0052C30.8102 86.133 30.6367 86.2049 30.4559 86.2049H30.4718ZM23.6377 86.2049H22.2059C21.8002 86.1856 21.3966 86.1339 20.9991 86.0503C20.8265 86.0102 20.6762 85.9044 20.5803 85.7554C20.4843 85.6064 20.4501 85.4258 20.485 85.2521C20.5199 85.0783 20.6211 84.9249 20.7671 84.8245C20.9131 84.724 21.0925 84.6844 21.2673 84.714C21.5842 84.7798 21.9055 84.8223 22.2287 84.8412H23.6377C23.8186 84.8412 23.992 84.9131 24.1199 85.0409C24.2477 85.1688 24.3196 85.3422 24.3196 85.5231C24.3196 85.7039 24.2477 85.8773 24.1199 86.0052C23.992 86.133 23.8186 86.2049 23.6377 86.2049ZM17.2582 84.2344C17.0918 84.2372 16.9301 84.179 16.8037 84.0708C16.1094 83.4735 15.5255 82.7588 15.0787 81.9594C15.0337 81.8813 15.0047 81.7951 14.9933 81.7057C14.9819 81.6163 14.9884 81.5256 15.0123 81.4387C15.0362 81.3518 15.077 81.2705 15.1325 81.1995C15.188 81.1286 15.257 81.0693 15.3356 81.0251C15.4141 80.981 15.5006 80.9528 15.5901 80.9423C15.6796 80.9318 15.7703 80.9391 15.8569 80.9639C15.9436 80.9886 16.0244 81.0303 16.0949 81.0865C16.1653 81.1427 16.2239 81.2123 16.2673 81.2912C16.6364 81.9527 17.1196 82.5436 17.6946 83.0367C17.8004 83.1281 17.8755 83.2498 17.9098 83.3854C17.9441 83.521 17.9359 83.6638 17.8863 83.7946C17.8367 83.9253 17.7481 84.0376 17.6325 84.1163C17.5169 84.195 17.3798 84.2362 17.24 84.2344H17.2582ZM102.619 83.7503C102.474 83.7507 102.332 83.7044 102.215 83.6184C102.097 83.5323 102.011 83.4109 101.967 83.2719C101.924 83.133 101.926 82.9838 101.973 82.8462C102.021 82.7086 102.111 82.5898 102.231 82.5071C102.889 82.0543 103.508 81.548 104.083 80.9935C104.214 80.8744 104.387 80.8111 104.564 80.8171C104.741 80.8231 104.909 80.8979 105.032 81.0256C105.155 81.1533 105.224 81.3239 105.223 81.5012C105.222 81.6785 105.153 81.8486 105.029 81.9753C104.402 82.5823 103.725 83.1358 103.006 83.6299C102.892 83.7086 102.756 83.7507 102.617 83.7503H102.619ZM107.222 78.7708C107.102 78.7705 106.984 78.7386 106.88 78.6782C106.777 78.6179 106.691 78.5312 106.631 78.427C106.572 78.3227 106.541 78.2047 106.541 78.0846C106.542 77.9646 106.575 77.847 106.635 77.7435C107.042 77.0535 107.394 76.3331 107.69 75.589C107.723 75.5057 107.772 75.4297 107.834 75.3654C107.897 75.3011 107.971 75.2497 108.053 75.2141C108.135 75.1786 108.224 75.1596 108.313 75.1582C108.403 75.1568 108.492 75.173 108.575 75.206C108.658 75.239 108.734 75.288 108.799 75.3504C108.863 75.4127 108.914 75.4871 108.95 75.5693C108.986 75.6515 109.005 75.7399 109.006 75.8295C109.007 75.919 108.991 76.008 108.958 76.0912C108.641 76.9007 108.261 77.6842 107.822 78.4344C107.76 78.539 107.672 78.6253 107.566 78.6844C107.46 78.7435 107.341 78.7733 107.219 78.7708H107.222ZM14.59 78.1594C14.4164 78.1598 14.2492 78.0939 14.1225 77.9752C13.9959 77.8565 13.9192 77.694 13.9082 77.5208V77.4503V77.4117C14.0068 76.4919 14.2955 75.6026 14.7559 74.8003C14.8443 74.6488 14.9877 74.5372 15.1563 74.4887C15.3249 74.4401 15.5057 74.4585 15.6611 74.5398C15.8165 74.6212 15.9346 74.7593 15.9908 74.9255C16.0469 75.0917 16.0369 75.2732 15.9627 75.4321C15.5988 76.0687 15.3669 76.7721 15.2809 77.5003C15.2752 77.6741 15.2033 77.8391 15.0799 77.9616C14.9566 78.0841 14.7911 78.1549 14.6173 78.1594H14.59ZM17.9241 72.323C17.7922 72.3237 17.663 72.286 17.5521 72.2147C17.4411 72.1433 17.3533 72.0413 17.2992 71.921C17.245 71.8007 17.227 71.6674 17.2471 71.537C17.2673 71.4067 17.3248 71.285 17.4127 71.1867C17.6264 70.9412 17.8377 70.7049 18.04 70.4799C18.4173 70.0549 18.7764 69.6526 19.0491 69.3162C19.1633 69.1758 19.3287 69.0865 19.5087 69.0679C19.6888 69.0494 19.8689 69.1031 20.0093 69.2174C20.1498 69.3316 20.2391 69.4969 20.2576 69.677C20.2762 69.8571 20.2224 70.0371 20.1082 70.1776C19.815 70.5367 19.4468 70.9503 19.0582 71.3867C18.8582 71.614 18.6514 71.8412 18.4377 72.0867C18.3734 72.1593 18.2943 72.2173 18.2057 72.2569C18.1171 72.2965 18.0211 72.3167 17.9241 72.3162V72.323ZM109.119 72.3026C108.942 72.3027 108.772 72.2336 108.644 72.1102C108.517 71.9867 108.443 71.8185 108.438 71.6412C108.419 70.8667 108.296 70.0982 108.069 69.3571C108.016 69.1844 108.032 68.9974 108.116 68.8371C108.2 68.6769 108.345 68.5565 108.517 68.5026C108.69 68.4486 108.877 68.4655 109.037 68.5495C109.197 68.6334 109.318 68.7776 109.372 68.9503C109.634 69.8101 109.779 70.7016 109.801 71.6003C109.804 71.6899 109.789 71.7791 109.757 71.8628C109.726 71.9466 109.678 72.0233 109.616 72.0885C109.555 72.1537 109.481 72.2062 109.399 72.2429C109.318 72.2797 109.229 72.2999 109.14 72.3026H109.119ZM106.088 66.5685C105.99 66.5686 105.894 66.5469 105.806 66.5049C105.192 66.2363 104.525 66.1141 103.856 66.148H103.663C103.573 66.1506 103.484 66.1354 103.4 66.1035C103.317 66.0716 103.24 66.0235 103.175 65.962C103.11 65.9005 103.057 65.8267 103.021 65.745C102.984 65.6632 102.964 65.5751 102.962 65.4855C102.959 65.396 102.974 65.3068 103.006 65.2231C103.038 65.1395 103.086 65.0629 103.148 64.9978C103.209 64.9327 103.283 64.8803 103.365 64.8437C103.446 64.8071 103.535 64.7869 103.624 64.7844H103.804H104.031C104.834 64.7722 105.63 64.9334 106.365 65.2571C106.507 65.3217 106.622 65.433 106.692 65.5723C106.762 65.7116 106.782 65.8707 106.748 66.0229C106.715 66.1752 106.631 66.3114 106.509 66.409C106.388 66.5067 106.237 66.5597 106.081 66.5594L106.088 66.5685ZM20.4559 66.298C20.2751 66.298 20.1017 66.2262 19.9738 66.0983C19.8459 65.9705 19.7741 65.797 19.7741 65.6162C19.7741 65.3685 19.7741 65.1162 19.7741 64.8594C19.7741 64.3299 19.7741 63.748 19.7537 63.1299C19.75 62.949 19.8184 62.7742 19.9437 62.6437C20.069 62.5133 20.241 62.438 20.4218 62.4344C20.6027 62.4308 20.7775 62.4991 20.9079 62.6245C21.0384 62.7498 21.1137 62.9217 21.1173 63.1026C21.1309 63.7299 21.1377 64.3208 21.1377 64.8594C21.1377 65.123 21.1377 65.3821 21.1377 65.6321C21.1336 65.8102 21.0599 65.9795 20.9325 66.104C20.8051 66.2284 20.634 66.2981 20.4559 66.298V66.298ZM99.3195 66.1708H99.2968C98.4059 66.1412 97.574 66.0889 96.7536 66.0071C96.664 65.9983 96.5771 65.972 96.4978 65.9296C96.4184 65.8872 96.3482 65.8296 96.2911 65.76C96.234 65.6905 96.1912 65.6104 96.1651 65.5243C96.1389 65.4382 96.13 65.3478 96.1388 65.2583C96.1476 65.1687 96.174 65.0818 96.2164 65.0024C96.2588 64.9231 96.3164 64.8529 96.3859 64.7958C96.4555 64.7387 96.5356 64.6959 96.6217 64.6697C96.7077 64.6436 96.7981 64.6347 96.8877 64.6435C97.6786 64.7208 98.4786 64.773 99.3399 64.8003C99.5208 64.803 99.6931 64.8775 99.8191 65.0072C99.945 65.137 100.014 65.3115 100.012 65.4924C100.009 65.6732 99.9344 65.8455 99.8046 65.9715C99.6748 66.0974 99.5003 66.1667 99.3195 66.1639V66.1708ZM92.5559 65.3049C92.5038 65.3054 92.4518 65.2993 92.4013 65.2867C91.6081 65.1049 90.7786 64.8867 89.94 64.6367C89.7698 64.5825 89.6277 64.4637 89.5442 64.3059C89.4607 64.1481 89.4425 63.9638 89.4934 63.7927C89.5443 63.6215 89.6602 63.4772 89.8164 63.3906C89.9726 63.3041 90.1565 63.2823 90.3286 63.3299C91.14 63.5708 91.94 63.7844 92.7081 63.9594C92.8705 63.9977 93.0133 64.0941 93.1093 64.2306C93.2054 64.367 93.248 64.5339 93.2293 64.6997C93.2105 64.8655 93.1316 65.0187 93.0075 65.1302C92.8834 65.2417 92.7227 65.3039 92.5559 65.3049ZM86.04 63.2594C85.9569 63.2584 85.8746 63.243 85.7968 63.2139C85.0468 62.9276 84.2581 62.6094 83.4536 62.2708C83.3683 62.2381 83.2903 62.1887 83.2245 62.1253C83.1586 62.062 83.1062 61.986 83.0703 61.902C83.0343 61.818 83.0157 61.7277 83.0153 61.6363C83.015 61.5449 83.0331 61.4544 83.0684 61.3702C83.1038 61.2859 83.1557 61.2096 83.2211 61.1458C83.2865 61.082 83.3641 61.032 83.4492 60.9988C83.5343 60.9656 83.6252 60.9498 83.7166 60.9524C83.8079 60.955 83.8978 60.9759 83.9809 61.0139C84.7718 61.3458 85.5468 61.6571 86.2854 61.9389C86.4356 61.9951 86.5613 62.1024 86.6402 62.242C86.7192 62.3816 86.7464 62.5445 86.7171 62.7022C86.6877 62.8599 86.6038 63.0022 86.48 63.1041C86.3561 63.206 86.2003 63.261 86.04 63.2594V63.2594ZM79.7627 60.5639C79.663 60.5636 79.5646 60.5419 79.4741 60.5003C78.7422 60.1571 77.9786 59.7912 77.2013 59.4117C77.1153 59.376 77.0375 59.3232 76.9727 59.2564C76.9079 59.1895 76.8574 59.1101 76.8245 59.023C76.7915 58.936 76.7768 58.8431 76.7811 58.7501C76.7854 58.657 76.8087 58.5659 76.8496 58.4823C76.8905 58.3986 76.9481 58.3242 77.0188 58.2637C77.0896 58.2032 77.172 58.1578 77.2609 58.1303C77.3499 58.1028 77.4435 58.0938 77.5361 58.1039C77.6286 58.114 77.7181 58.1429 77.7991 58.1889C78.5672 58.5639 79.3241 58.9253 80.0491 59.2662C80.1888 59.3325 80.3018 59.4444 80.3695 59.5834C80.4373 59.7224 80.4557 59.8804 80.4219 60.0313C80.3881 60.1822 80.304 60.3171 80.1833 60.4139C80.0627 60.5107 79.9128 60.5636 79.7581 60.5639H79.7627ZM20.2923 59.4503C20.1172 59.4505 19.9488 59.3834 19.8218 59.2628C19.6949 59.1422 19.6192 58.9774 19.6105 58.8026C19.5718 58.0298 19.5423 57.5389 19.5423 57.5276V57.4321C19.5423 57.4117 19.5877 56.8958 19.7264 56.1435C19.7429 56.0554 19.7767 55.9715 19.8257 55.8965C19.8747 55.8215 19.938 55.7569 20.0119 55.7063C20.0859 55.6558 20.1691 55.6203 20.2568 55.6019C20.3445 55.5835 20.4349 55.5826 20.523 55.5992C20.611 55.6157 20.6949 55.6495 20.7699 55.6985C20.8449 55.7475 20.9096 55.8108 20.9601 55.8847C21.0107 55.9587 21.0461 56.0419 21.0645 56.1296C21.0829 56.2173 21.0839 56.3077 21.0673 56.3958C20.9491 57.0276 20.9082 57.4776 20.9037 57.5321C20.9037 57.6253 20.9196 57.7139 20.9218 57.7935C20.9355 58.0208 20.9514 58.3389 20.9718 58.7321C20.9764 58.8217 20.9633 58.9113 20.9332 58.9958C20.9031 59.0802 20.8567 59.158 20.7965 59.2245C20.7363 59.291 20.6636 59.3449 20.5826 59.3833C20.5015 59.4217 20.4137 59.4437 20.3241 59.448L20.2923 59.4503ZM73.6513 57.5117C73.5353 57.5105 73.4214 57.4808 73.3195 57.4253C72.5854 57.0162 71.8491 56.5776 71.1332 56.1253C71.0537 56.0794 70.9843 56.0179 70.9292 55.9445C70.874 55.8711 70.8343 55.7874 70.8123 55.6983C70.7903 55.6092 70.7865 55.5165 70.8012 55.4259C70.8159 55.3353 70.8487 55.2486 70.8977 55.171C70.9466 55.0934 71.0108 55.0265 71.0863 54.9742C71.1618 54.922 71.247 54.8856 71.3369 54.8671C71.4268 54.8486 71.5195 54.8484 71.6095 54.8667C71.6994 54.8849 71.7848 54.921 71.8604 54.973C72.5559 55.4117 73.2718 55.8367 73.9832 56.2321C74.1161 56.3051 74.221 56.4203 74.2811 56.5596C74.3412 56.6988 74.3532 56.8542 74.3151 57.001C74.2771 57.1478 74.1911 57.2778 74.0709 57.3703C73.9507 57.4628 73.803 57.5125 73.6513 57.5117V57.5117ZM67.9559 53.7639C67.8063 53.7636 67.6609 53.7141 67.5422 53.623C66.8786 53.1117 66.2127 52.5753 65.5672 52.0321C65.4379 51.9128 65.3597 51.7481 65.349 51.5724C65.3382 51.3968 65.3958 51.2238 65.5097 51.0896C65.6236 50.9555 65.785 50.8706 65.9601 50.8526C66.1351 50.8347 66.3104 50.8852 66.4491 50.9935C67.0786 51.5298 67.7263 52.0526 68.3718 52.5503C68.4849 52.6371 68.5679 52.7571 68.6092 52.8935C68.6506 53.0299 68.6481 53.1758 68.6022 53.3108C68.5563 53.4457 68.4693 53.5629 68.3533 53.6458C68.2374 53.7287 68.0984 53.7732 67.9559 53.773V53.7639ZM21.9105 52.9321C21.7861 52.9319 21.6641 52.8977 21.5578 52.8331C21.4515 52.7686 21.3648 52.6762 21.3072 52.5659C21.2497 52.4557 21.2233 52.3318 21.2311 52.2076C21.2389 52.0835 21.2805 51.9639 21.3514 51.8617C21.6064 51.4857 21.9072 51.1429 22.2468 50.8412C22.523 50.5884 22.7618 50.2976 22.9559 49.9776C23.0027 49.8993 23.0647 49.8313 23.1382 49.7774C23.2117 49.7236 23.2953 49.685 23.384 49.664C23.4726 49.643 23.5646 49.64 23.6545 49.6551C23.7444 49.6703 23.8303 49.7033 23.9072 49.7522C23.9841 49.8011 24.0504 49.865 24.1022 49.94C24.154 50.015 24.1902 50.0996 24.2087 50.1888C24.2272 50.2781 24.2277 50.3701 24.21 50.4595C24.1924 50.5489 24.157 50.6339 24.1059 50.7094C23.842 51.1367 23.5183 51.5239 23.1446 51.8594C22.8871 52.0887 22.6582 52.3481 22.4627 52.6321C22.4015 52.7228 22.3194 52.7973 22.2232 52.8495C22.1271 52.9018 22.0198 52.9301 21.9105 52.9321V52.9321ZM62.8195 49.2457C62.7296 49.246 62.6406 49.2284 62.5575 49.1941C62.4744 49.1598 62.399 49.1093 62.3354 49.0457C61.7468 48.4548 61.1582 47.8367 60.5854 47.2094C60.5146 47.1455 60.458 47.0674 60.4192 46.9802C60.3804 46.893 60.3604 46.7987 60.3604 46.7033C60.3604 46.6079 60.3804 46.5135 60.4191 46.4263C60.4579 46.3392 60.5145 46.2611 60.5853 46.1971C60.6561 46.1332 60.7395 46.0848 60.8302 46.0552C60.9209 46.0255 61.0168 46.0152 61.1117 46.0249C61.2066 46.0346 61.2984 46.0642 61.3812 46.1116C61.464 46.159 61.5359 46.2233 61.5923 46.3003C62.1513 46.9117 62.7286 47.5162 63.3013 48.0935C63.3958 48.1889 63.46 48.3102 63.4858 48.442C63.5116 48.5738 63.4979 48.7103 63.4464 48.8343C63.395 48.9583 63.308 49.0644 63.1965 49.1393C63.085 49.2141 62.9538 49.2543 62.8195 49.2548V49.2457ZM24.9514 46.973C24.911 46.9726 24.8707 46.9688 24.8309 46.9617C24.6532 46.9301 24.4953 46.8293 24.3918 46.6815C24.2883 46.5336 24.2476 46.3508 24.2786 46.173C24.4198 45.3849 24.5004 44.5871 24.5196 43.7867C24.5196 43.6058 24.5914 43.4324 24.7193 43.3045C24.8471 43.1767 25.0205 43.1048 25.2014 43.1048V43.1048C25.3822 43.1048 25.5556 43.1767 25.6835 43.3045C25.8114 43.4324 25.8832 43.6058 25.8832 43.7867C25.8628 44.6595 25.7755 45.5295 25.6218 46.3889C25.5965 46.5487 25.5151 46.6943 25.3923 46.7997C25.2695 46.905 25.1132 46.9632 24.9514 46.9639V46.973ZM35.7923 46.4753C35.7511 46.4749 35.7101 46.4711 35.6695 46.4639C34.8063 46.303 33.9596 46.0634 33.14 45.748C33.0563 45.7162 32.9797 45.6683 32.9145 45.6069C32.8493 45.5455 32.7968 45.4718 32.7601 45.3901C32.7234 45.3085 32.7031 45.2204 32.7005 45.1309C32.6978 45.0413 32.7128 44.9522 32.7446 44.8685C32.7763 44.7848 32.8243 44.7081 32.8857 44.6429C32.9471 44.5778 33.0207 44.5253 33.1024 44.4886C33.1841 44.4519 33.2722 44.4316 33.3617 44.4289C33.4512 44.4262 33.5404 44.4412 33.6241 44.473C34.3653 44.7552 35.1306 44.9697 35.9105 45.1139C36 45.1218 36.0871 45.1473 36.1668 45.1889C36.2465 45.2304 36.3172 45.2873 36.3749 45.3562C36.4327 45.4251 36.4762 45.5047 36.5032 45.5905C36.5302 45.6762 36.54 45.7664 36.532 45.856C36.5241 45.9455 36.4987 46.0326 36.4571 46.1123C36.4155 46.192 36.3587 46.2627 36.2898 46.3205C36.2209 46.3782 36.1413 46.4218 36.0555 46.4487C35.9698 46.4757 35.8795 46.4855 35.79 46.4776L35.7923 46.4753ZM40.0764 46.298C39.9128 46.2984 39.7546 46.2399 39.6305 46.1333C39.5065 46.0267 39.4249 45.879 39.4006 45.7173C39.3764 45.5555 39.4111 45.3904 39.4984 45.2521C39.5857 45.1138 39.7199 45.0116 39.8764 44.9639C40.6082 44.7403 41.299 44.3995 41.9218 43.9548C41.9943 43.898 42.0776 43.8564 42.1667 43.8326C42.2557 43.8088 42.3486 43.8033 42.4399 43.8164C42.5311 43.8296 42.6187 43.8611 42.6974 43.909C42.7761 43.957 42.8443 44.0204 42.8978 44.0954C42.9513 44.1705 42.989 44.2556 43.0087 44.3456C43.0284 44.4356 43.0296 44.5287 43.0123 44.6192C42.9951 44.7098 42.9596 44.7958 42.9081 44.8723C42.8566 44.9487 42.7901 45.0139 42.7127 45.0639C41.9724 45.594 41.1512 46.0008 40.2809 46.2685C40.2142 46.2859 40.1452 46.2928 40.0764 46.2889V46.298ZM58.2877 44.1367C58.1845 44.1369 58.0826 44.1137 57.9897 44.0688C57.8968 44.0239 57.8153 43.9585 57.7513 43.8776C57.2377 43.223 56.7218 42.5435 56.2218 41.8571C56.1668 41.7849 56.1268 41.7024 56.1041 41.6145C56.0815 41.5266 56.0766 41.4351 56.0897 41.3453C56.1029 41.2555 56.1338 41.1692 56.1808 41.0915C56.2277 41.0138 56.2897 40.9463 56.3631 40.8929C56.4365 40.8395 56.5198 40.8012 56.6082 40.7804C56.6965 40.7596 56.7881 40.7567 56.8776 40.7718C56.9671 40.7869 57.0527 40.8197 57.1294 40.8683C57.2061 40.9169 57.2722 40.9803 57.3241 41.0548C57.815 41.7367 58.3195 42.3912 58.8241 43.0321C58.9358 43.1741 58.9865 43.3546 58.9652 43.534C58.9439 43.7134 58.8523 43.877 58.7104 43.9889C58.589 44.0811 58.4402 44.1299 58.2877 44.1276V44.1367ZM29.5468 43.798C29.4144 43.7979 29.2849 43.7592 29.1741 43.6867C28.4486 43.2185 27.7526 42.7062 27.09 42.1526L27.015 42.0912L26.6786 41.8298C26.4196 41.5912 26.3355 41.4048 26.4514 41.0798L26.765 40.1707L27.9559 41.1139C28.5749 41.6311 29.2254 42.1093 29.9036 42.5457C30.0275 42.6257 30.1221 42.7437 30.1732 42.882C30.2243 43.0202 30.2293 43.1713 30.1873 43.3127C30.1453 43.454 30.0587 43.5779 29.9403 43.6658C29.822 43.7537 29.6783 43.8009 29.5309 43.8003L29.5468 43.798ZM44.59 41.6867C44.4879 41.6867 44.3871 41.6638 44.295 41.6197C44.2029 41.5755 44.1219 41.5113 44.058 41.4316C43.9941 41.352 43.9489 41.2591 43.9257 41.1596C43.9025 41.0602 43.902 40.9568 43.9241 40.8571C44.1 40.0863 44.1975 39.2998 44.215 38.5094C44.215 38.3285 44.2868 38.1551 44.4147 38.0273C44.5426 37.8994 44.716 37.8276 44.8968 37.8276H44.9082C45.087 37.8305 45.2575 37.9037 45.383 38.0312C45.5084 38.1588 45.5787 38.3305 45.5786 38.5094C45.5595 39.3915 45.4514 40.2694 45.2559 41.1298C45.2266 41.2867 45.1433 41.4283 45.0204 41.5301C44.8975 41.6318 44.7427 41.6872 44.5832 41.6867H44.59ZM54.34 38.548C54.2255 38.5482 54.1128 38.5196 54.0124 38.4648C53.9119 38.4099 53.8268 38.3307 53.765 38.2344C53.2764 37.473 52.8559 36.7912 52.5173 36.2435L52.4264 36.0957C52.3314 35.9417 52.3015 35.7563 52.3433 35.5803C52.3851 35.4043 52.4951 35.252 52.6491 35.1571C52.8031 35.0622 52.9885 35.0323 53.1645 35.0741C53.3406 35.1158 53.4928 35.2258 53.5877 35.3798L53.6786 35.5276C54.0127 36.0707 54.4309 36.7457 54.9127 37.498C54.9788 37.6009 55.0159 37.7197 55.0202 37.842C55.0246 37.9642 54.996 38.0853 54.9374 38.1927C54.8789 38.3 54.7925 38.3897 54.6874 38.4522C54.5823 38.5147 54.4623 38.5478 54.34 38.548V38.548ZM47.2309 35.948C47.0778 35.9481 46.9292 35.8967 46.8089 35.8021C46.6886 35.7075 46.6036 35.5751 46.5677 35.4263C46.5317 35.2775 46.5469 35.121 46.6107 34.9819C46.6745 34.8428 46.7833 34.7292 46.9195 34.6594C47.7103 34.2653 48.5377 33.9494 49.39 33.7162C49.4775 33.6881 49.5699 33.678 49.6614 33.6865C49.753 33.695 49.8419 33.722 49.9227 33.7657C50.0036 33.8095 50.0748 33.8692 50.132 33.9411C50.1892 34.0131 50.2313 34.0959 50.2557 34.1846C50.2801 34.2732 50.2863 34.3659 50.2739 34.457C50.2616 34.5481 50.2309 34.6358 50.1838 34.7148C50.1367 34.7937 50.0741 34.8623 49.9998 34.9165C49.9255 34.9706 49.841 35.0092 49.7514 35.0298C48.9877 35.2389 48.2463 35.5221 47.5377 35.8753C47.4405 35.9242 47.3329 35.9492 47.2241 35.948H47.2309Z" fill="#671DFF"/>
<path d="M107.929 72.9731C107.777 72.9733 107.63 72.9229 107.51 72.8297C107.39 72.7366 107.304 72.606 107.267 72.4588C107.23 72.3116 107.243 72.1562 107.304 72.0171C107.365 71.8781 107.47 71.7634 107.604 71.6913C108.325 71.3026 108.765 71.0413 108.77 71.039C108.847 70.9915 108.933 70.9598 109.022 70.9457C109.112 70.9317 109.203 70.9356 109.291 70.9573C109.379 70.9789 109.462 71.0179 109.534 71.0718C109.607 71.1258 109.668 71.1937 109.714 71.2715C109.761 71.3494 109.791 71.4357 109.803 71.5254C109.816 71.615 109.81 71.7063 109.787 71.7938C109.764 71.8813 109.723 71.9634 109.668 72.0351C109.613 72.1069 109.544 72.1669 109.465 72.2117C109.447 72.2117 109 72.489 108.252 72.8935C108.153 72.9471 108.042 72.9745 107.929 72.9731V72.9731Z" fill="#671DFF"/>
<path d="M91.8106 77.0584H91.6447C91.4639 77.0584 91.2905 76.9866 91.1626 76.8587C91.0347 76.7308 90.9629 76.5574 90.9629 76.3766C90.9629 76.1958 91.0347 76.0223 91.1626 75.8945C91.2905 75.7666 91.4639 75.6948 91.6447 75.6948H91.8106C92.8947 75.6948 93.9061 75.6789 94.8174 75.6471C94.9983 75.641 95.1741 75.7071 95.3062 75.8307C95.4383 75.9543 95.516 76.1253 95.522 76.3061C95.528 76.487 95.462 76.6628 95.3384 76.7949C95.2148 76.927 95.0437 77.0047 94.8629 77.0107C93.9424 77.047 92.9152 77.0584 91.8106 77.0584ZM100.099 76.3016C99.9339 76.303 99.7737 76.2443 99.6484 76.1364C99.5232 76.0284 99.4414 75.8787 99.4183 75.7149C99.3953 75.5512 99.4325 75.3847 99.523 75.2464C99.6136 75.108 99.7513 75.0073 99.9106 74.963C100.909 74.6694 101.892 74.3227 102.854 73.9243C102.938 73.8853 103.028 73.8636 103.121 73.8607C103.213 73.8578 103.305 73.8737 103.391 73.9074C103.477 73.9411 103.555 73.992 103.621 74.0569C103.687 74.1218 103.739 74.1994 103.774 74.285C103.809 74.3706 103.826 74.4624 103.824 74.5548C103.822 74.6472 103.802 74.7382 103.764 74.8225C103.726 74.9067 103.671 74.9823 103.603 75.0448C103.535 75.1072 103.455 75.1552 103.367 75.1857C102.361 75.6027 101.333 75.9661 100.288 76.2743C100.229 76.2916 100.168 76.3008 100.106 76.3016H100.099Z" fill="#671DFF"/>
<path d="M86.3436 76.926H86.3186C85.4641 76.8919 84.955 76.8646 84.955 76.8646C84.7742 76.855 84.6046 76.7739 84.4835 76.6392C84.3625 76.5045 84.2999 76.3272 84.3096 76.1464C84.3192 75.9656 84.4003 75.796 84.535 75.675C84.6697 75.5539 84.8469 75.4913 85.0277 75.501C85.0277 75.501 85.5414 75.5282 86.38 75.5601C86.5608 75.5637 86.7328 75.639 86.8581 75.7694C86.9834 75.8998 87.0518 76.0747 87.0482 76.2555C87.0446 76.4363 86.9693 76.6083 86.8388 76.7336C86.7084 76.8589 86.5336 76.9273 86.3527 76.9237L86.3436 76.926Z" fill="#671DFF"/>
<path d="M79.2175 77.0704H79.2061L77.8425 77.0454C77.7527 77.044 77.6642 77.0248 77.5819 76.989C77.4996 76.9532 77.4251 76.9015 77.3628 76.8369C77.3005 76.7723 77.2516 76.696 77.2189 76.6125C77.1861 76.5289 77.1702 76.4397 77.172 76.35C77.1738 76.2604 77.1932 76.1721 77.2291 76.0901C77.265 76.008 77.3167 75.9338 77.3813 75.8718C77.4459 75.8097 77.5221 75.761 77.6055 75.7284C77.6889 75.6958 77.7779 75.68 77.8675 75.6818L79.2311 75.7068C79.4119 75.7083 79.5848 75.7816 79.7116 75.9105C79.8384 76.0394 79.9088 76.2135 79.9073 76.3943C79.9057 76.5751 79.8325 76.7479 79.7035 76.8747C79.5746 77.0016 79.4006 77.0719 79.2197 77.0704H79.2175Z" fill="#671DFF"/>
<path d="M73.1102 76.9375H73.0989L70.2466 76.8875C70.0658 76.8842 69.8937 76.8092 69.7681 76.679C69.6426 76.5487 69.5739 76.374 69.5773 76.1932C69.5806 76.0123 69.6556 75.8402 69.7858 75.7147C69.916 75.5892 70.0908 75.5205 70.2716 75.5239L73.1239 75.5739C73.3047 75.5757 73.4774 75.6492 73.604 75.7784C73.7306 75.9075 73.8007 76.0817 73.7989 76.2625C73.797 76.4433 73.7235 76.616 73.5943 76.7426C73.4652 76.8692 73.2911 76.9393 73.1102 76.9375V76.9375ZM65.5079 76.8011H65.4943L62.6443 76.7511C62.5548 76.7504 62.4663 76.732 62.3838 76.6971C62.3014 76.6621 62.2266 76.6112 62.1639 76.5474C62.1011 76.4836 62.0515 76.408 62.0179 76.325C61.9843 76.242 61.9674 76.1532 61.9682 76.0636C61.9689 75.9741 61.9873 75.8856 62.0223 75.8031C62.0572 75.7207 62.1081 75.646 62.1719 75.5832C62.2357 75.5204 62.3113 75.4708 62.3943 75.4372C62.4773 75.4036 62.5661 75.3867 62.6557 75.3875V75.3875L65.5079 75.4398C65.6888 75.4413 65.8616 75.5146 65.9884 75.6435C66.1152 75.7724 66.1856 75.9464 66.1841 76.1273C66.1826 76.3081 66.1093 76.4809 65.9804 76.6077C65.8514 76.7345 65.6774 76.8049 65.4966 76.8034L65.5079 76.8011ZM57.9034 76.667H57.892L55.0398 76.6148C54.8589 76.6115 54.6868 76.5364 54.5613 76.4062C54.4358 76.276 54.3671 76.1013 54.3705 75.9204C54.3738 75.7396 54.4488 75.5675 54.579 75.442C54.7092 75.3165 54.8839 75.2478 55.0648 75.2511L57.9148 75.3034C58.0956 75.3049 58.2684 75.3782 58.3952 75.5071C58.522 75.636 58.5924 75.8101 58.5909 75.9909C58.5894 76.1717 58.5161 76.3446 58.3872 76.4714C58.2583 76.5982 58.0842 76.6685 57.9034 76.667V76.667ZM50.2989 76.5307L48.1557 76.4852C48.142 76.4852 47.8352 76.4307 47.3125 76.3034C47.1368 76.2603 46.9854 76.1492 46.8916 75.9945C46.7979 75.8397 46.7694 75.6541 46.8125 75.4784C46.8556 75.3027 46.9667 75.1513 47.1214 75.0575C47.2762 74.9638 47.4618 74.9353 47.6375 74.9784C47.9943 75.067 48.2375 75.1125 48.333 75.1307L50.3239 75.167C50.5047 75.1688 50.6774 75.2424 50.804 75.3716C50.9306 75.5007 51.0007 75.6748 50.9989 75.8557C50.9971 76.0365 50.9235 76.2092 50.7943 76.3358C50.6652 76.4624 50.4911 76.5325 50.3102 76.5307H50.2989ZM42.992 74.7239C42.8915 74.7229 42.7923 74.7004 42.7011 74.6579C41.8162 74.2428 40.9564 73.7761 40.1261 73.2602C39.9724 73.1647 39.863 73.012 39.8218 72.8358C39.7807 72.6595 39.8113 72.4741 39.9068 72.3204C40.0024 72.1667 40.155 72.0573 40.3313 72.0162C40.5075 71.975 40.6929 72.0056 40.8466 72.1011C41.6319 72.5898 42.4454 73.0315 43.283 73.4239C43.424 73.4895 43.5383 73.6013 43.607 73.7408C43.6757 73.8803 43.6947 74.0392 43.6607 74.1909C43.6267 74.3427 43.5419 74.4783 43.4203 74.5752C43.2987 74.6722 43.1476 74.7246 42.992 74.7239V74.7239ZM36.5761 70.6738C36.4857 70.6741 36.396 70.6563 36.3125 70.6216C35.4729 70.2949 34.6004 70.0602 33.7102 69.9216C33.5386 69.8846 33.3879 69.7828 33.2894 69.6375C33.191 69.4921 33.1524 69.3144 33.1816 69.1413C33.2109 68.9682 33.3059 68.8131 33.4467 68.7082C33.5875 68.6034 33.7633 68.5569 33.9375 68.5784C34.9285 68.734 35.8994 68.9977 36.833 69.3648C36.9773 69.4262 37.096 69.5356 37.169 69.6744C37.2421 69.8131 37.2651 69.9729 37.2342 70.1266C37.2032 70.2804 37.1202 70.4188 36.999 70.5185C36.8779 70.6182 36.7262 70.673 36.5693 70.6738H36.5761ZM29.0966 69.4784H29.067C28.183 69.4398 27.233 69.4216 26.2443 69.4193C26.0635 69.4193 25.8901 69.3475 25.7622 69.2196C25.6343 69.0917 25.5625 68.9183 25.5625 68.7375C25.5625 68.5567 25.6343 68.3832 25.7622 68.2554C25.8901 68.1275 26.0635 68.0557 26.2443 68.0557V68.0557C27.2534 68.0557 28.2239 68.0784 29.1261 68.117C29.307 68.1209 29.4788 68.1965 29.6039 68.3272C29.729 68.4578 29.7971 68.6328 29.7932 68.8136C29.7893 68.9944 29.7137 69.1663 29.583 69.2914C29.4524 69.4165 29.2774 69.4846 29.0966 69.4807V69.4784Z" fill="#671DFF"/>
<path d="M20.1389 69.6537C19.9581 69.6604 19.782 69.5949 19.6495 69.4717C19.5169 69.3485 19.4387 69.1777 19.4321 68.9969C19.4255 68.8161 19.4909 68.64 19.6141 68.5075C19.7373 68.3749 19.9081 68.2967 20.0889 68.2901C20.1094 68.2901 20.6162 68.2514 21.4662 68.206C21.647 68.1966 21.8241 68.2595 21.9586 68.3808C22.0931 68.502 22.1739 68.6718 22.1832 68.8526C22.1926 69.0334 22.1297 69.2106 22.0084 69.345C21.8872 69.4795 21.7175 69.5603 21.5366 69.5696C20.7048 69.6128 20.198 69.6492 20.1912 69.6515L20.1389 69.6537Z" fill="#671DFF"/>
<path d="M45.6368 65.7488C45.5267 65.7488 45.4183 65.7221 45.3207 65.671C45.2232 65.62 45.1395 65.5461 45.0767 65.4556C45.0139 65.3652 44.974 65.2609 44.9604 65.1516C44.9467 65.0424 44.9597 64.9315 44.9982 64.8283L45.4391 63.6579C45.5083 63.4967 45.637 63.3684 45.7984 63.2997C45.9598 63.2309 46.1414 63.227 46.3056 63.2888C46.4698 63.3505 46.6039 63.4732 46.6799 63.6312C46.756 63.7893 46.7683 63.9706 46.7141 64.1374L46.2732 65.3079C46.2243 65.4372 46.1373 65.5487 46.0237 65.6274C45.91 65.7061 45.7751 65.7485 45.6368 65.7488Z" fill="#671DFF"/>
<path d="M43.7563 70.7769C43.6786 70.7756 43.6018 70.761 43.529 70.7337C43.3601 70.67 43.2233 70.5418 43.1487 70.3774C43.0742 70.2129 43.0679 70.0256 43.1313 69.8565L44.0699 67.3565C44.1335 67.1871 44.2618 67.0499 44.4265 66.9751C44.5913 66.9003 44.779 66.894 44.9483 66.9576C45.1177 67.0212 45.2549 67.1495 45.3297 67.3142C45.4045 67.4789 45.4108 67.6666 45.3472 67.836L44.4063 70.336C44.3566 70.4676 44.2675 70.5805 44.1512 70.6595C44.0348 70.7384 43.8969 70.7794 43.7563 70.7769V70.7769Z" fill="#671DFF"/>
<path d="M42.3742 74.4382C42.2919 74.4385 42.2103 74.4239 42.1333 74.395C42.0494 74.3635 41.9725 74.3157 41.907 74.2544C41.8416 74.1931 41.7889 74.1195 41.752 74.0378C41.715 73.9561 41.6946 73.8679 41.6917 73.7783C41.6889 73.6887 41.7038 73.5994 41.7355 73.5155L42.1765 72.3473C42.2049 72.2596 42.2508 72.1786 42.3115 72.1092C42.3721 72.0398 42.4462 71.9834 42.5293 71.9434C42.6123 71.9035 42.7026 71.8807 42.7947 71.8766C42.8868 71.8726 42.9787 71.8872 43.065 71.9196C43.1513 71.9521 43.2301 72.0017 43.2966 72.0654C43.3632 72.1292 43.4161 72.2058 43.4523 72.2906C43.4884 72.3754 43.5069 72.4666 43.5068 72.5588C43.5067 72.651 43.4878 72.7422 43.4515 72.8269L43.0128 73.9973C42.9638 74.127 42.8765 74.2387 42.7624 74.3175C42.6483 74.3963 42.5128 74.4384 42.3742 74.4382V74.4382Z" fill="#671DFF"/>
<path d="M47.8632 59.4801C47.7857 59.4806 47.7088 59.4675 47.6359 59.4415C47.4658 59.3812 47.3265 59.256 47.2486 59.0933C47.1706 58.9306 47.1603 58.7436 47.22 58.5733L47.6745 57.2869C47.7348 57.1163 47.8604 56.9767 48.0236 56.8987C48.1869 56.8207 48.3744 56.8107 48.545 56.871C48.7156 56.9313 48.8552 57.0569 48.9332 57.2201C49.0112 57.3833 49.0212 57.5709 48.9609 57.7415L48.5064 59.0278C48.459 59.1604 48.3717 59.275 48.2565 59.356C48.1414 59.437 48.004 59.4803 47.8632 59.4801V59.4801Z" fill="#671DFF"/>
<path d="M49.3808 55.1592C49.3033 55.1596 49.2264 55.1466 49.1535 55.1205C48.9834 55.0603 48.8441 54.9351 48.7661 54.7724C48.6882 54.6096 48.6779 54.4226 48.7376 54.2523L49.8012 51.2273C49.8615 51.0568 49.9871 50.9171 50.1503 50.8391C50.3135 50.7611 50.5011 50.7512 50.6717 50.8114C50.8422 50.8717 50.9819 50.9973 51.0599 51.1605C51.1379 51.3238 51.1478 51.5113 51.0876 51.6819L50.0239 54.7069C49.9765 54.8395 49.8893 54.9541 49.7741 55.0351C49.6589 55.1161 49.5215 55.1594 49.3808 55.1592Z" fill="#671DFF"/>
<path d="M51.4978 49.1044C51.4205 49.1038 51.3437 49.0908 51.2705 49.0658C51.1861 49.036 51.1083 48.9898 51.0416 48.9299C50.975 48.8701 50.9208 48.7976 50.8822 48.7168C50.8436 48.6359 50.8212 48.5483 50.8165 48.4588C50.8118 48.3693 50.8247 48.2798 50.8546 48.1954L51.141 47.3794C50.9774 47.2658 50.7569 47.1226 50.4819 46.9635C50.4043 46.9188 50.3363 46.8592 50.2817 46.7881C50.2272 46.717 50.1871 46.6359 50.1639 46.5494C50.1407 46.4629 50.1348 46.3726 50.1464 46.2838C50.1581 46.195 50.1871 46.1093 50.2319 46.0317C50.2767 45.9541 50.3363 45.8861 50.4074 45.8315C50.4784 45.777 50.5595 45.7369 50.646 45.7137C50.7326 45.6905 50.8228 45.6846 50.9116 45.6962C51.0005 45.7079 51.0861 45.7369 51.1637 45.7817C51.6008 46.0235 52.0146 46.305 52.4001 46.6226L52.7478 46.9272L52.1433 48.6476C52.0965 48.7814 52.0092 48.8973 51.8935 48.9792C51.7778 49.061 51.6395 49.1048 51.4978 49.1044Z" fill="#671DFF"/>
<path d="M48.5794 46.0563C48.502 46.0562 48.4252 46.0431 48.3521 46.0177C47.6065 45.7607 46.8421 45.5616 46.0658 45.4223C45.8876 45.3903 45.7295 45.2889 45.6262 45.1404C45.5228 44.9918 45.4827 44.8083 45.5146 44.6302C45.5466 44.4521 45.648 44.294 45.7965 44.1906C45.945 44.0873 46.1286 44.0471 46.3067 44.0791C47.1554 44.2314 47.9912 44.4487 48.8067 44.7291C48.9602 44.7813 49.0901 44.8866 49.1731 45.026C49.256 45.1654 49.2865 45.3298 49.2591 45.4896C49.2318 45.6495 49.1483 45.7944 49.0237 45.8983C48.8991 46.0021 48.7416 46.0582 48.5794 46.0563V46.0563Z" fill="#671DFF"/>
<path d="M43.7372 45.1607H43.7099C43.2781 45.1448 42.8349 45.1425 42.394 45.1607C42.3044 45.1634 42.2153 45.1484 42.1315 45.1166C42.0478 45.0849 41.9711 45.0369 41.9059 44.9755C41.8407 44.9141 41.7882 44.8404 41.7514 44.7587C41.7147 44.677 41.6944 44.5889 41.6917 44.4994C41.689 44.4098 41.704 44.3206 41.7358 44.2369C41.7676 44.1531 41.8155 44.0765 41.8769 44.0112C41.9384 43.946 42.012 43.8936 42.0937 43.8568C42.1754 43.8201 42.2635 43.7998 42.3531 43.7971C42.8258 43.7834 43.3008 43.7971 43.7644 43.7971C43.9453 43.8007 44.1172 43.876 44.2426 44.0064C44.3679 44.1368 44.4362 44.3117 44.4326 44.4925C44.429 44.6734 44.3537 44.8453 44.2233 44.9707C44.0928 45.096 43.918 45.1643 43.7372 45.1607Z" fill="#671DFF"/>
<path d="M58.1223 45.4734C57.9613 45.4737 57.8054 45.4169 57.6822 45.3132C57.559 45.2095 57.4765 45.0656 57.4493 44.9069C57.422 44.7482 57.4519 44.585 57.5335 44.4462C57.615 44.3073 57.7431 44.2019 57.895 44.1484C58.5155 43.9212 58.8677 43.8143 58.8814 43.8098C59.0538 43.7546 59.241 43.7702 59.4019 43.8531C59.5628 43.936 59.6842 44.0795 59.7393 44.2518C59.7945 44.4242 59.7789 44.6115 59.696 44.7724C59.6131 44.9333 59.4697 45.0546 59.2973 45.1098C59.2973 45.1098 58.9473 45.2212 58.3518 45.4325C58.2782 45.4592 58.2006 45.4731 58.1223 45.4734V45.4734Z" fill="#671DFF"/>
<path d="M33.586 56.0201C33.4051 56.0201 33.2317 55.9483 33.1039 55.8204C32.976 55.6925 32.9042 55.5191 32.9042 55.3383C32.9042 55.1574 32.976 54.984 33.1039 54.8561C33.2317 54.7283 33.4051 54.6564 33.586 54.6564C34.2553 54.6543 34.924 54.6118 35.5882 54.5292C35.6778 54.5178 35.7687 54.5242 35.8557 54.548C35.9428 54.5718 36.0243 54.6125 36.0957 54.6678C36.167 54.7231 36.2267 54.7919 36.2715 54.8703C36.3162 54.9487 36.3451 55.0351 36.3564 55.1246C36.3678 55.2142 36.3614 55.3051 36.3376 55.3921C36.3138 55.4792 36.2731 55.5607 36.2178 55.632C36.1625 55.7034 36.0937 55.7631 36.0153 55.8079C35.9369 55.8526 35.8505 55.8815 35.761 55.8928C35.041 55.9837 34.3162 56.03 33.5905 56.0314L33.586 56.0201ZM28.961 55.5951C28.9228 55.5947 28.8848 55.5909 28.8473 55.5837C28.1905 55.4746 27.5087 55.3564 26.7655 55.1928C26.6045 55.1414 26.4682 55.032 26.3833 54.8858C26.2984 54.7396 26.2708 54.5671 26.3059 54.4017C26.341 54.2363 26.4363 54.0898 26.5733 53.9908C26.7103 53.8917 26.8793 53.8471 27.0473 53.8655C27.7633 54.0155 28.4451 54.1428 29.0769 54.2496C29.2577 54.2644 29.4253 54.3504 29.5427 54.4887C29.6601 54.627 29.7178 54.8063 29.703 54.9871C29.6883 55.168 29.6023 55.3355 29.464 55.4529C29.3256 55.5704 29.1464 55.628 28.9655 55.6133L28.961 55.5951ZM40.1291 54.6246C39.9723 54.6252 39.82 54.5717 39.698 54.473C39.576 54.3744 39.4917 54.2367 39.4594 54.0832C39.4271 53.9297 39.4487 53.7697 39.5206 53.6303C39.5925 53.4909 39.7103 53.3805 39.8541 53.3178C40.4405 53.0587 41.0337 52.761 41.6723 52.4087C41.8302 52.3204 42.0168 52.2985 42.1909 52.3477C42.365 52.3969 42.5124 52.5133 42.6007 52.6712C42.689 52.8291 42.711 53.0157 42.6618 53.1898C42.6125 53.3639 42.4962 53.5113 42.3382 53.5996C41.6678 53.9746 41.0382 54.2814 40.411 54.5678C40.3224 54.6075 40.2261 54.6269 40.1291 54.6246V54.6246ZM45.945 51.2155C45.7958 51.2162 45.6504 51.1678 45.5313 51.0778C45.4122 50.9879 45.3259 50.8613 45.2857 50.7176C45.2454 50.5739 45.2534 50.4209 45.3085 50.2822C45.3636 50.1435 45.4626 50.0266 45.5905 49.9496C46.1814 49.5928 46.7973 49.2337 47.4223 48.886C47.5006 48.8402 47.5873 48.8104 47.6773 48.7985C47.7672 48.7866 47.8587 48.7928 47.9462 48.8167C48.0338 48.8406 48.1157 48.8817 48.1871 48.9377C48.2586 48.9936 48.3181 49.0633 48.3623 49.1426C48.4064 49.2218 48.4344 49.3091 48.4444 49.3993C48.4544 49.4895 48.4462 49.5808 48.4205 49.6678C48.3948 49.7548 48.3519 49.8358 48.2945 49.9061C48.237 49.9763 48.1661 50.0344 48.086 50.0769C47.4769 50.4178 46.8746 50.7587 46.2996 51.1155C46.194 51.1848 46.0713 51.2233 45.945 51.2269V51.2155ZM51.8973 48.0474C51.7418 48.0481 51.5907 47.9957 51.4691 47.8987C51.3474 47.8018 51.2626 47.6662 51.2286 47.5144C51.1947 47.3627 51.2136 47.2039 51.2823 47.0643C51.351 46.9248 51.4654 46.813 51.6064 46.7474C52.2359 46.4519 52.8859 46.1587 53.5314 45.8792C53.6135 45.8434 53.7018 45.8241 53.7913 45.8224C53.8809 45.8207 53.9699 45.8367 54.0532 45.8694C54.1366 45.9021 54.2127 45.9509 54.2772 46.013C54.3417 46.0752 54.3933 46.1494 54.4291 46.2315C54.4649 46.3135 54.4842 46.4019 54.4859 46.4914C54.4876 46.5809 54.4716 46.6699 54.4389 46.7533C54.4062 46.8366 54.3574 46.9127 54.2953 46.9772C54.2331 47.0417 54.1589 47.0934 54.0768 47.1292C53.4405 47.4042 52.8041 47.6928 52.1859 47.9815C52.0969 48.029 51.9982 48.0554 51.8973 48.0587V48.0474Z" fill="#671DFF"/>
<path d="M22.3667 54.123C22.3099 54.1232 22.2533 54.1155 22.1986 54.1003L21.2054 53.848C21.1151 53.829 21.0296 53.7919 20.9541 53.7389C20.8786 53.6859 20.8147 53.6181 20.7661 53.5397C20.7176 53.4613 20.6855 53.3738 20.6717 53.2826C20.6579 53.1914 20.6628 53.0983 20.6861 53.0091C20.7093 52.9198 20.7504 52.8362 20.8069 52.7633C20.8634 52.6903 20.9341 52.6296 21.0147 52.5848C21.0954 52.54 21.1843 52.5121 21.276 52.5026C21.3678 52.4932 21.4605 52.5024 21.5486 52.5298L22.5349 52.7844C22.6965 52.8249 22.8377 52.9231 22.9318 53.0606C23.0259 53.198 23.0664 53.3652 23.0457 53.5305C23.025 53.6958 22.9445 53.8478 22.8194 53.9578C22.6943 54.0678 22.5333 54.1282 22.3667 54.1276V54.123Z" fill="#671DFF"/>
<path d="M61.1604 48.7364C61.0315 48.7365 60.9054 48.7 60.7964 48.6312C60.6875 48.5624 60.6002 48.4642 60.5448 48.3479C60.4894 48.2316 60.4681 48.102 60.4833 47.9741C60.4985 47.8461 60.5497 47.7251 60.6308 47.6251L60.9877 47.1819C61.1016 47.0412 61.2667 46.9514 61.4468 46.9325C61.6269 46.9135 61.8071 46.9668 61.9479 47.0808C62.0886 47.1947 62.1783 47.3599 62.1973 47.5399C62.2163 47.72 62.1629 47.9002 62.049 48.041L61.6899 48.4842C61.626 48.563 61.5453 48.6265 61.4537 48.6702C61.3621 48.7138 61.2619 48.7364 61.1604 48.7364V48.7364Z" fill="#671DFF"/>
<path d="M58.3791 52.144C58.2503 52.144 58.1241 52.1075 58.0152 52.0388C57.9062 51.97 57.819 51.8718 57.7636 51.7555C57.7082 51.6392 57.6868 51.5096 57.702 51.3816C57.7173 51.2537 57.7684 51.1327 57.8496 51.0327L58.4041 50.3509C58.4605 50.2812 58.5301 50.2233 58.6089 50.1805C58.6877 50.1377 58.7741 50.1108 58.8633 50.1014C58.9525 50.092 59.0426 50.1003 59.1286 50.1257C59.2145 50.1512 59.2947 50.1933 59.3644 50.2497C59.434 50.3061 59.4919 50.3757 59.5347 50.4545C59.5775 50.5333 59.6044 50.6197 59.6138 50.7089C59.6232 50.798 59.6149 50.8882 59.5895 50.9742C59.564 51.0601 59.5219 51.1403 59.4655 51.2099L58.9087 51.8918C58.8447 51.9706 58.764 52.0341 58.6724 52.0777C58.5808 52.1214 58.4806 52.144 58.3791 52.144V52.144Z" fill="#671DFF"/>
<path d="M55.8108 55.3046C55.6819 55.3046 55.5557 55.2681 55.4468 55.1993C55.3379 55.1306 55.2506 55.0323 55.1952 54.916C55.1398 54.7997 55.1185 54.6701 55.1337 54.5422C55.1489 54.4143 55.2001 54.2933 55.2812 54.1932L55.638 53.7523C55.6945 53.6828 55.764 53.625 55.8427 53.5824C55.9215 53.5397 56.0078 53.513 56.0969 53.5037C56.1859 53.4944 56.276 53.5027 56.3618 53.5282C56.4476 53.5537 56.5276 53.5959 56.5971 53.6523C56.6667 53.7087 56.7244 53.7783 56.7671 53.857C56.8097 53.9357 56.8365 54.0221 56.8458 54.1111C56.8551 54.2002 56.8467 54.2902 56.8212 54.3761C56.7957 54.4619 56.7535 54.5419 56.6971 54.6114L56.3403 55.0523C56.2764 55.1311 56.1957 55.1947 56.1041 55.2383C56.0125 55.2819 55.9123 55.3046 55.8108 55.3046V55.3046Z" fill="#671DFF"/>
<path d="M65.9536 52.8503C65.881 52.8504 65.8089 52.8389 65.74 52.8162C65.6549 52.7882 65.5762 52.7437 65.5083 52.6852C65.4404 52.6267 65.3847 52.5555 65.3444 52.4755C65.3041 52.3955 65.28 52.3083 65.2733 52.219C65.2667 52.1297 65.2778 52.0399 65.3059 51.9548L65.4831 51.4139C65.5401 51.2421 65.663 51.1 65.8247 51.0188C65.9865 50.9376 66.1738 50.924 66.3456 50.981C66.5174 51.0379 66.6595 51.1608 66.7407 51.3226C66.8219 51.4843 66.8355 51.6717 66.7786 51.8435L66.6013 52.3821C66.5563 52.5184 66.4695 52.637 66.3532 52.7211C66.2369 52.8051 66.0971 52.8503 65.9536 52.8503V52.8503Z" fill="#671DFF"/>
<path d="M64.8052 56.3425C64.7326 56.3423 64.6605 56.3308 64.5915 56.3084C64.5064 56.2804 64.4277 56.2359 64.3599 56.1774C64.292 56.1189 64.2363 56.0477 64.196 55.9677C64.1557 55.8877 64.1315 55.8005 64.1249 55.7112C64.1183 55.6219 64.1293 55.5321 64.1574 55.447L64.3552 54.847C64.4183 54.6839 64.5417 54.5512 64.6998 54.4765C64.858 54.4017 65.0389 54.3907 65.205 54.4456C65.3711 54.5004 65.5098 54.6171 65.5923 54.7713C65.6748 54.9256 65.6949 55.1057 65.6483 55.2743L65.4529 55.8743C65.4079 56.0106 65.3211 56.1292 65.2048 56.2133C65.0885 56.2973 64.9487 56.3425 64.8052 56.3425Z" fill="#671DFF"/>
<path d="M63.6743 59.7288C63.6017 59.7286 63.5297 59.7171 63.4607 59.6947C63.3756 59.6667 63.2969 59.6222 63.229 59.5637C63.1611 59.5052 63.1054 59.434 63.0651 59.354C63.0248 59.274 63.0007 59.1868 62.9941 59.0975C62.9874 59.0082 62.9985 58.9184 63.0266 58.8334L63.2061 58.2925C63.2307 58.2034 63.2731 58.1202 63.3308 58.0481C63.3885 57.9759 63.4603 57.9162 63.5418 57.8726C63.6232 57.829 63.7127 57.8025 63.8048 57.7945C63.8968 57.7866 63.9895 57.7974 64.0773 57.8264C64.165 57.8554 64.2459 57.9019 64.3151 57.9631C64.3843 58.0244 64.4404 58.099 64.4799 58.1826C64.5193 58.2661 64.5414 58.3568 64.5447 58.4492C64.5481 58.5415 64.5326 58.6335 64.4993 58.7197L64.322 59.2606C64.2771 59.3969 64.1903 59.5155 64.074 59.5996C63.9577 59.6836 63.8178 59.7289 63.6743 59.7288V59.7288Z" fill="#671DFF"/>
<path d="M71.605 58.3631C71.5278 58.3643 71.4508 58.352 71.3778 58.3267C71.2928 58.298 71.2143 58.2529 71.1468 58.1938C71.0793 58.1347 71.0241 58.0629 70.9844 57.9824C70.9448 57.902 70.9213 57.8145 70.9155 57.725C70.9097 57.6355 70.9216 57.5457 70.9505 57.4608L71.4005 56.1608C71.459 55.9896 71.583 55.8487 71.7454 55.769C71.9078 55.6893 72.0952 55.6774 72.2664 55.7358C72.4376 55.7943 72.5785 55.9184 72.6582 56.0808C72.7379 56.2432 72.7499 56.4306 72.6914 56.6017L72.2505 57.8926C72.2061 58.029 72.1197 58.1478 72.0039 58.2323C71.888 58.3167 71.7484 58.3625 71.605 58.3631Z" fill="#671DFF"/>
<path d="M70.0809 62.8787C69.9716 62.8791 69.8638 62.8533 69.7666 62.8033C69.6694 62.7534 69.5856 62.6808 69.5224 62.5916C69.4591 62.5025 69.4182 62.3995 69.403 62.2912C69.3879 62.183 69.399 62.0727 69.4355 61.9696L69.8741 60.6856C69.9017 60.5992 69.9461 60.5193 70.0049 60.4503C70.0637 60.3814 70.1357 60.3248 70.2166 60.284C70.2975 60.2432 70.3857 60.2189 70.4761 60.2126C70.5665 60.2063 70.6573 60.218 70.7431 60.2472C70.8289 60.2763 70.908 60.3223 70.9758 60.3824C71.0436 60.4425 71.0988 60.5155 71.1381 60.5971C71.1774 60.6788 71.2 60.7674 71.2046 60.8579C71.2093 60.9484 71.1958 61.039 71.165 61.1242L70.7264 62.4151C70.6808 62.5501 70.594 62.6675 70.4782 62.7507C70.3624 62.8338 70.2235 62.8786 70.0809 62.8787V62.8787Z" fill="#671DFF"/>
<path d="M77.3228 60.8448H77.2637C77.1744 60.8371 77.0876 60.8119 77.0081 60.7706C76.9286 60.7292 76.858 60.6727 76.8004 60.6041C76.7428 60.5355 76.6992 60.4562 76.6722 60.3708C76.6453 60.2853 76.6354 60.1954 76.6432 60.1062L76.7591 58.7425C76.7667 58.653 76.7919 58.5658 76.8332 58.486C76.8745 58.4062 76.9311 58.3353 76.9998 58.2774C77.0685 58.2195 77.1479 58.1756 77.2336 58.1484C77.3192 58.1212 77.4094 58.1111 77.4989 58.1187C77.5884 58.1263 77.6756 58.1515 77.7554 58.1927C77.8352 58.234 77.9061 58.2907 77.964 58.3594C78.022 58.428 78.0658 58.5075 78.093 58.5931C78.1203 58.6787 78.1304 58.7689 78.1227 58.8584L78.0068 60.2221C77.992 60.3929 77.9133 60.5518 77.7866 60.6672C77.6598 60.7826 77.4942 60.846 77.3228 60.8448V60.8448Z" fill="#671DFF"/>
<path d="M76.9165 65.4795H76.8574C76.7682 65.4718 76.6813 65.4465 76.6018 65.4052C76.5223 65.3639 76.4517 65.3073 76.3941 65.2388C76.3365 65.1702 76.293 65.0909 76.266 65.0054C76.239 64.92 76.2292 64.8301 76.237 64.7409L76.3529 63.3772C76.3685 63.1964 76.4554 63.0292 76.5944 62.9124C76.7333 62.7956 76.913 62.7388 77.0938 62.7545C77.2746 62.7702 77.4418 62.857 77.5586 62.996C77.6754 63.1349 77.7322 63.3146 77.7165 63.4954L77.5983 64.859C77.583 65.029 77.5044 65.1871 77.3782 65.302C77.2519 65.4168 77.0872 65.4802 76.9165 65.4795V65.4795Z" fill="#671DFF"/>
<path d="M84.9904 64.2195C84.8096 64.2195 84.6362 64.1476 84.5083 64.0198C84.3804 63.8919 84.3086 63.7185 84.3086 63.5376V62.174C84.3086 61.9932 84.3804 61.8198 84.5083 61.6919C84.6362 61.564 84.8096 61.4922 84.9904 61.4922C85.1712 61.4922 85.3447 61.564 85.4725 61.6919C85.6004 61.8198 85.6722 61.9932 85.6722 62.174V63.5376C85.6722 63.7185 85.6004 63.8919 85.4725 64.0198C85.3447 64.1476 85.1712 64.2195 84.9904 64.2195Z" fill="#671DFF"/>
<path d="M84.9904 66.9226C84.8096 66.9226 84.6362 66.8508 84.5083 66.7229C84.3804 66.595 84.3086 66.4216 84.3086 66.2408V64.8771C84.3086 64.6963 84.3804 64.5229 84.5083 64.395C84.6362 64.2671 84.8096 64.1953 84.9904 64.1953C85.1712 64.1953 85.3447 64.2671 85.4725 64.395C85.6004 64.5229 85.6722 64.6963 85.6722 64.8771V66.2408C85.6722 66.4216 85.6004 66.595 85.4725 66.7229C85.3447 66.8508 85.1712 66.9226 84.9904 66.9226Z" fill="#671DFF"/>
<path d="M33.2685 76.6512C33.7705 76.6512 34.1776 76.2442 34.1776 75.7421C34.1776 75.24 33.7705 74.833 33.2685 74.833C32.7664 74.833 32.3594 75.24 32.3594 75.7421C32.3594 76.2442 32.7664 76.6512 33.2685 76.6512Z" fill="#671DFF"/>
<path d="M27.8446 76.6512C28.3467 76.6512 28.7537 76.2442 28.7537 75.7421C28.7537 75.24 28.3467 74.833 27.8446 74.833C27.3426 74.833 26.9355 75.24 26.9355 75.7421C26.9355 76.2442 27.3426 76.6512 27.8446 76.6512Z" fill="#671DFF"/>
<path d="M22.2138 76.6512C22.7159 76.6512 23.1229 76.2442 23.1229 75.7421C23.1229 75.24 22.7159 74.833 22.2138 74.833C21.7117 74.833 21.3047 75.24 21.3047 75.7421C21.3047 76.2442 21.7117 76.6512 22.2138 76.6512Z" fill="#671DFF"/>
</svg>
