<svg width="168" height="30" viewBox="0 0 168 30" fill="none" xmlns="http://www.w3.org/2000/svg">
<path d="M53.2975 17.1165H48.4333V8.74062C48.4234 8.61028 48.4387 8.47911 48.4781 8.35566C48.5175 8.23221 48.5802 8.11925 48.6621 8.02412C48.8407 7.85045 49.0498 7.71877 49.2767 7.63721C49.8269 7.45632 50.3918 7.33394 50.9635 7.27179C51.6143 7.18594 52.2693 7.14287 52.9249 7.14282C54.8863 7.14282 56.3573 7.59422 57.3315 8.47552C57.815 8.92228 58.1984 9.48471 58.4523 10.1195C58.7063 10.7543 58.8238 11.4444 58.796 12.1368C58.8176 13.0534 58.59 13.9562 58.1422 14.7306C57.6653 15.4954 57.0045 16.1005 56.2331 16.4789C55.3089 16.9243 54.3068 17.142 53.2975 17.1165V17.1165ZM48.4333 16.0418H51.2642V22.2969C51.0856 22.3615 50.9017 22.4071 50.715 22.433C50.462 22.4769 50.2062 22.4985 49.9501 22.4975C49.5394 22.5337 49.1296 22.4177 48.7863 22.1679C48.6583 22.0199 48.5606 21.8436 48.4997 21.6508C48.4388 21.458 48.4162 21.2533 48.4333 21.0501V16.0418ZM51.2446 14.6948H53.0949C53.8388 14.7354 54.5749 14.5118 55.1936 14.0571C55.4538 13.8365 55.6608 13.5495 55.7965 13.221C55.9321 12.8924 55.9922 12.5325 55.9716 12.1727C55.9925 11.8169 55.9323 11.461 55.7965 11.1371C55.6607 10.8131 55.4535 10.5313 55.1936 10.3169C54.507 9.84363 53.7015 9.62042 52.8922 9.67924C52.598 9.67924 52.3038 9.67924 52.0226 9.71507C51.7415 9.75089 51.48 9.77955 51.2446 9.82971V14.6948ZM52.9183 16.3356L55.3243 15.5761C55.697 16.1134 56.0827 16.6508 56.475 17.2025L57.6126 18.786C57.9787 19.3019 58.3056 19.7748 58.5933 20.219C58.881 20.6632 59.1098 20.9928 59.2471 21.2723C59.1576 21.644 58.9583 21.9728 58.6804 22.2074C58.4025 22.442 58.0615 22.5692 57.7107 22.5691C57.339 22.5927 56.9714 22.4736 56.6711 22.2324C56.3979 21.9771 56.162 21.6775 55.9716 21.3439L52.9183 16.3356Z" fill="white"/>
<path d="M64.785 17.3244H62.0195V9.15627C62.0092 8.93649 62.0405 8.71677 62.1114 8.51087C62.1823 8.30496 62.2912 8.11732 62.4314 7.95971C62.5795 7.80906 62.7534 7.6922 62.9431 7.61594C63.1328 7.53967 63.3344 7.50552 63.5363 7.51548C63.7843 7.5158 64.0317 7.54219 64.2751 7.5943C64.4474 7.62213 64.6178 7.66282 64.785 7.7161V17.3244ZM62.0195 12.531H64.785V22.1895C64.6178 22.2427 64.4474 22.2834 64.2751 22.3113C64.0317 22.3634 63.7843 22.3898 63.5363 22.3901C63.3332 22.4011 63.1303 22.366 62.9402 22.2871C62.7501 22.2082 62.5768 22.0871 62.4314 21.9315C62.2929 21.7756 62.1849 21.5903 62.1141 21.387C62.0432 21.1837 62.0111 20.9667 62.0195 20.7493V12.531ZM63.5363 10.0089V7.51548H70.9242C71.0168 7.6665 71.0854 7.83367 71.1269 8.00986C71.1917 8.24191 71.2226 8.48373 71.2184 8.72636C71.2368 9.07679 71.1445 9.42347 70.9569 9.70798C70.865 9.8236 70.7498 9.91421 70.6204 9.97266C70.4911 10.0311 70.3511 10.0558 70.2116 10.0447L63.5363 10.0089ZM63.5363 16.006V13.5341H70.2573C70.3472 13.6877 70.4176 13.8541 70.4665 14.0285C70.5357 14.2474 70.571 14.4775 70.5711 14.7092C70.5943 15.0525 70.4986 15.3927 70.3031 15.6621C70.2083 15.7709 70.0933 15.856 69.9658 15.9117C69.8383 15.9673 69.7013 15.9922 69.5643 15.9845L63.5363 16.006ZM63.5363 22.3901V19.9182H71.0353C71.1112 20.0743 71.1746 20.2373 71.2249 20.4054C71.2953 20.6363 71.3306 20.8784 71.3296 21.1219C71.3527 21.4652 71.257 21.8054 71.0615 22.0748C70.9667 22.1836 70.8517 22.2687 70.7242 22.3244C70.5967 22.38 70.4598 22.4049 70.3227 22.3972L63.5363 22.3901Z" fill="white"/>
<path d="M78.195 20.2119C78.8768 20.2686 79.5556 20.0662 80.1172 19.6387C80.3198 19.4714 80.4843 19.255 80.5977 19.0064C80.7112 18.7577 80.7705 18.4837 80.771 18.2057C80.778 17.9739 80.7383 17.7433 80.6547 17.5303C80.571 17.3172 80.4456 17.1271 80.2872 16.9733C79.8621 16.5912 79.3637 16.3193 78.8292 16.178L77.3778 15.6836C76.6996 15.4417 76.0431 15.1323 75.4164 14.7593C74.8832 14.4457 74.4328 13.9867 74.1088 13.4266C73.6932 12.587 73.5546 11.6159 73.7166 10.6773C73.8786 9.73874 74.3312 8.89019 74.9979 8.27494C76.0777 7.45095 77.3783 7.04731 78.6919 7.12853C79.4407 7.11725 80.1878 7.21116 80.9148 7.40796C81.4705 7.54854 81.9951 7.80919 82.4578 8.17463C82.7405 8.38686 82.9358 8.71222 83.0019 9.08072C83.0679 9.44921 82.9993 9.83138 82.8108 10.145C82.6778 10.3766 82.4991 10.5725 82.2878 10.7182C81.8579 10.3972 81.3831 10.1552 80.8821 10.0017C80.247 9.78749 79.5852 9.68352 78.9207 9.69361C78.297 9.65356 77.6762 9.81552 77.1359 10.1593C76.9363 10.2856 76.7708 10.4674 76.656 10.6863C76.5411 10.9053 76.4812 11.1535 76.4821 11.4061C76.4777 11.6023 76.515 11.7971 76.591 11.9749C76.6671 12.1527 76.7797 12.3087 76.9201 12.4307C77.3088 12.7613 77.7531 13.0047 78.2277 13.1472L79.5353 13.5627C80.6388 13.8799 81.661 14.4707 82.5231 15.2895C82.8861 15.6703 83.1698 16.1324 83.3549 16.6443C83.5399 17.1563 83.622 17.7059 83.5954 18.2558C83.611 18.8795 83.4931 19.4985 83.2513 20.0634C83.0095 20.6282 82.6504 21.1232 82.2028 21.5087C81.0471 22.4166 79.64 22.8572 78.2212 22.7555C77.4077 22.7707 76.5961 22.6646 75.8087 22.4402C75.2037 22.2807 74.6373 21.9801 74.148 21.5589C73.9635 21.4135 73.812 21.2235 73.7055 21.0035C73.5989 20.7836 73.54 20.5396 73.5334 20.2907C73.5273 19.948 73.6394 19.6154 73.8473 19.3592C74.0283 19.1187 74.2504 18.9191 74.5011 18.7717C74.9563 19.179 75.46 19.5165 75.9983 19.7748C76.6916 20.0984 77.4422 20.2477 78.195 20.2119Z" fill="white"/>
<path d="M99.3768 14.9241C99.4235 16.4163 99.1196 17.8967 98.4941 19.2231C97.9428 20.3376 97.1066 21.2515 96.0882 21.8527C95.012 22.4368 93.8273 22.7408 92.6263 22.7408C91.4254 22.7408 90.2406 22.4368 89.1645 21.8527C88.146 21.2515 87.3099 20.3376 86.7585 19.2231C86.133 17.8967 85.8291 16.4163 85.8758 14.9241C85.8282 13.4293 86.1393 11.9469 86.7781 10.6251C87.3413 9.51062 88.1857 8.59766 89.2102 7.99553C90.2735 7.4112 91.4466 7.10693 92.6361 7.10693C93.8256 7.10693 94.9987 7.4112 96.062 7.99553C97.0819 8.61174 97.9158 9.5405 98.4615 10.6681C99.0961 11.9766 99.4114 13.4427 99.3768 14.9241ZM96.5001 14.9241C96.5872 13.523 96.2112 12.1343 95.4409 11.012C95.0923 10.5703 94.6574 10.2205 94.1684 9.98849C93.6794 9.75651 93.1489 9.64839 92.6165 9.67215C92.0913 9.65236 91.5687 9.76254 91.0876 9.99451C90.6066 10.2265 90.1794 10.5742 89.8379 11.012C89.1452 12.1862 88.7767 13.5546 88.7767 14.9528C88.7767 16.351 89.1452 17.7194 89.8379 18.8935C90.1965 19.3181 90.6314 19.6568 91.1152 19.8885C91.599 20.1201 92.1212 20.2397 92.6492 20.2397C93.1771 20.2397 93.6994 20.1201 94.1832 19.8885C94.667 19.6568 95.1018 19.3181 95.4605 18.8935C96.2318 17.7507 96.6009 16.3413 96.5001 14.9241Z" fill="white"/>
<path d="M105.138 16.1781H102.327V7.51557L102.869 7.39375C103.117 7.3447 103.369 7.32073 103.621 7.32211C104.027 7.28278 104.434 7.39104 104.778 7.6302C104.914 7.77567 105.017 7.95358 105.079 8.14999C105.142 8.34639 105.162 8.55596 105.138 8.76228V16.1781ZM107.949 22.7269C106.901 22.7523 105.862 22.5069 104.916 22.0104C104.094 21.5881 103.41 20.9006 102.954 20.04C102.502 19.1263 102.277 18.0985 102.301 17.0594V15.2968H105.112V16.9376C105.086 17.3769 105.143 17.8173 105.279 18.2314C105.415 18.6456 105.628 19.0246 105.903 19.345C106.456 19.8893 107.173 20.1904 107.917 20.1904C108.66 20.1904 109.377 19.8893 109.93 19.345C110.209 19.0266 110.425 18.6482 110.563 18.2338C110.701 17.8194 110.76 17.378 110.735 16.9376V15.2968H113.565V17.1167C113.592 18.1562 113.366 19.1847 112.912 20.0974C112.462 20.9503 111.791 21.6365 110.983 22.0677C110.032 22.5437 108.994 22.7694 107.949 22.7269V22.7269ZM113.592 16.1996H110.761V7.51557L111.316 7.39375C111.567 7.34532 111.821 7.32135 112.075 7.32211C112.479 7.28596 112.882 7.39404 113.225 7.6302C113.363 7.77433 113.468 7.95185 113.532 8.14848C113.595 8.3451 113.616 8.55534 113.592 8.76228V16.1996Z" fill="white"/>
<path d="M122.071 17.1165H117.207V8.74062C117.197 8.60965 117.212 8.47778 117.253 8.35409C117.293 8.2304 117.358 8.11783 117.442 8.02412C117.62 7.8489 117.829 7.71703 118.057 7.63721C118.607 7.45632 119.172 7.33394 119.744 7.27179C120.394 7.18573 121.049 7.14267 121.705 7.14282C123.666 7.14282 125.137 7.59422 126.112 8.47552C126.595 8.92228 126.979 9.48471 127.232 10.1195C127.486 10.7543 127.604 11.4444 127.576 12.1368C127.591 13.0575 127.352 13.9615 126.89 14.7306C126.418 15.4974 125.758 16.1033 124.987 16.4789C124.068 16.9197 123.074 17.1372 122.071 17.1165V17.1165ZM117.207 16.0418H120.038V22.2969C119.859 22.3615 119.675 22.4071 119.489 22.433C119.233 22.4769 118.975 22.4985 118.717 22.4975C118.308 22.5338 117.901 22.4176 117.56 22.1679C117.431 22.0205 117.332 21.8445 117.27 21.6517C117.208 21.4589 117.184 21.2538 117.2 21.0501L117.207 16.0418ZM120.018 14.6948H121.875C122.619 14.7354 123.355 14.5118 123.974 14.0571C124.234 13.8365 124.441 13.5495 124.577 13.221C124.712 12.8924 124.772 12.5325 124.752 12.1727C124.773 11.8169 124.712 11.461 124.577 11.1371C124.441 10.8131 124.234 10.5313 123.974 10.3169C123.287 9.84363 122.482 9.62042 121.672 9.67924C121.372 9.67924 121.084 9.67924 120.803 9.71507C120.522 9.75089 120.26 9.77955 120.018 9.82971V14.6948ZM121.692 16.3356L124.104 15.5761C124.477 16.1134 124.863 16.6508 125.255 17.2025L126.393 18.786C126.759 19.3019 127.086 19.7748 127.373 20.219C127.661 20.6632 127.89 20.9928 128.027 21.2723C127.936 21.6543 127.729 21.9906 127.439 22.2252C127.15 22.4415 126.808 22.5571 126.458 22.5571C126.108 22.5571 125.766 22.4415 125.477 22.2252C125.202 21.9703 124.964 21.6707 124.771 21.3367L121.692 16.3356Z" fill="white"/>
<path d="M140.906 9.39992C140.91 9.69184 140.83 9.97776 140.677 10.2167C140.533 10.442 140.345 10.6302 140.128 10.7684C139.715 10.4714 139.277 10.2172 138.82 10.009C138.243 9.76836 137.627 9.65396 137.009 9.67219C136.242 9.65616 135.485 9.86124 134.813 10.2669C134.167 10.6821 133.653 11.3049 133.342 12.051C132.974 12.9514 132.795 13.9308 132.819 14.917C132.723 16.3459 133.149 17.758 134.002 18.8434C134.413 19.2925 134.905 19.6429 135.446 19.8723C135.988 20.1017 136.567 20.2052 137.147 20.1761C137.761 20.1919 138.373 20.0826 138.951 19.8537C139.412 19.6734 139.851 19.4329 140.259 19.1372C140.464 19.2839 140.636 19.4799 140.762 19.7104C140.9 19.9664 140.973 20.2585 140.971 20.5559C140.974 20.8235 140.908 21.0866 140.782 21.3154C140.619 21.58 140.393 21.7906 140.128 21.9244C139.715 22.1645 139.276 22.3451 138.82 22.4618C136.967 22.9298 135.024 22.721 133.289 21.8671C132.24 21.3068 131.371 20.4096 130.798 19.2948C130.196 17.9451 129.883 16.4625 129.883 14.96C129.883 13.4575 130.196 11.9749 130.798 10.6251C131.369 9.50939 132.22 8.5967 133.25 7.99558C134.29 7.39852 135.449 7.09326 136.624 7.10711C137.381 7.08946 138.137 7.19572 138.866 7.42237C139.405 7.58016 139.907 7.86367 140.337 8.25352C140.505 8.38443 140.644 8.55578 140.743 8.75448C140.841 8.95318 140.897 9.17395 140.906 9.39992V9.39992Z" fill="white"/>
<path d="M146.574 17.3244H143.809V9.15627C143.798 8.93649 143.83 8.71677 143.9 8.51086C143.971 8.30496 144.08 8.11732 144.22 7.95971C144.369 7.80906 144.542 7.6922 144.732 7.61594C144.922 7.53967 145.124 7.50552 145.325 7.51548C145.573 7.5161 145.821 7.5425 146.064 7.5943C146.236 7.62297 146.407 7.66365 146.574 7.7161V17.3244ZM143.809 12.531H146.574V22.1895C146.407 22.2419 146.236 22.2826 146.064 22.3113C145.821 22.3631 145.573 22.3895 145.325 22.3901C145.122 22.4011 144.919 22.366 144.729 22.2871C144.539 22.2082 144.366 22.0871 144.22 21.9315C144.082 21.7756 143.974 21.5903 143.903 21.387C143.832 21.1837 143.8 20.9667 143.809 20.7493V12.531ZM145.325 10.0089V7.51548H152.726C152.816 7.66806 152.885 7.83475 152.929 8.00986C152.992 8.2423 153.02 8.48411 153.014 8.72636C153.034 9.07594 152.944 9.42254 152.759 9.70798C152.667 9.8236 152.552 9.91421 152.423 9.97266C152.293 10.0311 152.153 10.0558 152.014 10.0447L145.325 10.0089ZM145.325 16.006V13.5341H152.073C152.162 13.6877 152.233 13.8541 152.282 14.0285C152.349 14.2479 152.382 14.4779 152.38 14.7092C152.39 14.8858 152.368 15.063 152.316 15.2303C152.263 15.3976 152.18 15.5517 152.073 15.6836C151.979 15.7926 151.865 15.8779 151.739 15.9336C151.612 15.9893 151.476 16.014 151.34 16.006H145.325ZM145.325 22.3901V19.9182H152.824C152.9 20.0743 152.964 20.2373 153.014 20.4054C153.082 20.6368 153.115 20.8788 153.112 21.1219C153.139 21.4656 153.043 21.8072 152.844 22.0748C152.751 22.1838 152.637 22.2692 152.51 22.3249C152.384 22.3806 152.248 22.4053 152.112 22.3972L145.325 22.3901Z" fill="white"/>
<path d="M167.11 19.2231C166.527 20.3569 165.639 21.2654 164.567 21.824C163.363 22.4243 162.051 22.7183 160.729 22.6838C160.241 22.6838 159.659 22.6551 158.983 22.5978C158.353 22.5484 157.732 22.4112 157.133 22.1894C156.83 22.1213 156.557 21.9425 156.359 21.6822C156.16 21.4218 156.048 21.0954 156.041 20.7564V8.74062C156.033 8.6098 156.049 8.47845 156.09 8.35504C156.13 8.23163 156.194 8.1189 156.277 8.02412C156.454 7.84669 156.663 7.71238 156.891 7.63004C157.476 7.44324 158.076 7.32083 158.683 7.26463C159.336 7.20014 159.938 7.16432 160.507 7.16432C161.854 7.13646 163.192 7.42472 164.429 8.00979C165.514 8.54841 166.425 9.43222 167.045 10.5462C167.722 11.8535 168.051 13.3432 167.993 14.8452C168.05 16.3637 167.746 17.8725 167.11 19.2231ZM164.534 11.9291C164.164 11.2042 163.603 10.6177 162.926 10.2453C162.206 9.86823 161.416 9.67937 160.618 9.69357C160.291 9.69357 159.964 9.69358 159.689 9.7294C159.415 9.76523 159.121 9.79389 158.853 9.84404V19.9826C159.148 20.0499 159.447 20.0954 159.748 20.1187C160.075 20.1187 160.402 20.1545 160.729 20.1545C161.329 20.1966 161.93 20.0997 162.493 19.8701C163.056 19.6404 163.569 19.2833 163.998 18.8218C164.836 17.7201 165.251 16.3045 165.155 14.8739C165.189 13.8519 164.982 12.8377 164.554 11.9291H164.534Z" fill="white"/>
<path d="M17.4668 24.7368H35.7099C36.0574 24.7368 36.3906 24.8887 36.6363 25.1592C36.882 25.4296 37.02 25.7963 37.02 26.1788V28.9473H18.7769C18.4294 28.9473 18.0962 28.7954 17.8505 28.525C17.6048 28.2546 17.4668 27.8878 17.4668 27.5054V24.7368Z" fill="#5A36C7"/>
<path d="M7.56055 20.5262H25.8036C26.1511 20.5262 26.4843 20.6782 26.73 20.9486C26.9757 21.219 27.1137 21.5858 27.1137 21.9682V24.7368H8.87064C8.52318 24.7368 8.18995 24.5849 7.94426 24.3144C7.69857 24.044 7.56055 23.6772 7.56055 23.2948V20.5262Z" fill="#7040FF"/>
<path d="M17.4668 15H35.7099C36.0574 15 36.3906 15.1519 36.6363 15.4223C36.882 15.6928 37.02 16.0595 37.02 16.442V19.2105H18.7769C18.4294 19.2105 18.0962 19.0586 17.8505 18.7882C17.6048 18.5178 17.4668 18.151 17.4668 17.7686V15Z" fill="#2576BC"/>
<path d="M7.56055 10.8038H25.8036C26.1511 10.8038 26.4843 10.9558 26.73 11.2262C26.9757 11.4966 27.1137 11.8634 27.1137 12.2458V15H8.87064C8.52318 15 8.18996 14.848 7.94426 14.5776C7.69857 14.3072 7.56055 13.9404 7.56055 13.558V10.7894V10.8038Z" fill="#51A4E4"/>
<path d="M17.4668 5.26318H35.7099C36.0574 5.26318 36.3906 5.4151 36.6363 5.68552C36.882 5.95594 37.02 6.32271 37.02 6.70515V9.47371H18.7769C18.4294 9.47371 18.0962 9.32179 17.8505 9.05137C17.6048 8.78095 17.4668 8.41418 17.4668 8.03175V5.26318Z" fill="#65CED6"/>
<path d="M7.56055 1.05261H25.8036C26.1511 1.05261 26.4843 1.20453 26.73 1.47495C26.9757 1.74537 27.1137 2.11214 27.1137 2.49457V5.26314H8.87064C8.52318 5.26314 8.18996 5.11122 7.94426 4.8408C7.69857 4.57038 7.56055 4.20361 7.56055 3.82118V1.05261Z" fill="#8CE2E9"/>
</svg>
