<svg width="181" height="32" viewBox="0 0 181 32" fill="none" xmlns="http://www.w3.org/2000/svg">
<path d="M57.4224 17.9145H52.1818V8.9802C52.1711 8.84117 52.1875 8.70125 52.23 8.56957C52.2725 8.43789 52.3401 8.3174 52.4283 8.21593C52.6207 8.03068 52.846 7.89022 53.0904 7.80323C53.6833 7.61028 54.2918 7.47974 54.9078 7.41344C55.609 7.32187 56.3146 7.27593 57.0209 7.27588C59.1341 7.27588 60.7189 7.75737 61.7685 8.69742C62.2894 9.17397 62.7026 9.7739 62.9761 10.451C63.2497 11.1281 63.3763 11.8643 63.3463 12.6028C63.3696 13.5805 63.1245 14.5435 62.6419 15.3695C62.1282 16.1852 61.4163 16.8307 60.5851 17.2343C59.5895 17.7095 58.5098 17.9417 57.4224 17.9145ZM52.1818 16.7681H55.2318V23.4402C55.0393 23.5091 54.8412 23.5578 54.6401 23.5854C54.3675 23.6323 54.0919 23.6553 53.8159 23.6542C53.3735 23.6928 52.9319 23.569 52.5621 23.3026C52.4242 23.1447 52.3189 22.9567 52.2533 22.7511C52.1877 22.5454 52.1633 22.327 52.1818 22.1104V16.7681ZM55.2106 15.3313H57.2041C58.0056 15.3747 58.7986 15.1361 59.4651 14.6511C59.7456 14.4158 59.9686 14.1096 60.1147 13.7592C60.2608 13.4088 60.3256 13.0249 60.3034 12.6411C60.3259 12.2616 60.2611 11.882 60.1147 11.5364C59.9684 11.1909 59.7452 10.8902 59.4651 10.6616C58.7255 10.1567 57.8576 9.91865 56.9857 9.98139C56.6687 9.98139 56.3517 9.98139 56.0489 10.0196C55.746 10.0578 55.4642 10.0884 55.2106 10.1419V15.3313ZM57.0139 17.0815L59.606 16.2713C60.0075 16.8445 60.4231 17.4177 60.8457 18.0062L62.0714 19.6953C62.4658 20.2455 62.818 20.75 63.128 21.2238C63.4379 21.6977 63.6844 22.0492 63.8323 22.3473C63.7359 22.7438 63.5212 23.0945 63.2218 23.3448C62.9224 23.595 62.555 23.7307 62.177 23.7306C61.7766 23.7557 61.3806 23.6287 61.0571 23.3714C60.7627 23.0991 60.5085 22.7795 60.3034 22.4237L57.0139 17.0815Z" fill="white"/>
<path d="M69.798 18.136H66.8184V9.42336C66.8074 9.18893 66.8412 8.95456 66.9175 8.73493C66.9939 8.5153 67.1112 8.31515 67.2622 8.14703C67.4218 7.98634 67.6092 7.86169 67.8135 7.78034C68.0179 7.69899 68.2352 7.66257 68.4526 7.67319C68.7198 7.67353 68.9864 7.70168 69.2486 7.75726C69.4342 7.78694 69.6178 7.83035 69.798 7.88718V18.136ZM66.8184 13.0231H69.798V23.3254C69.6178 23.3823 69.4342 23.4257 69.2486 23.4554C68.9864 23.5109 68.7198 23.5391 68.4526 23.5394C68.2339 23.5511 68.0152 23.5137 67.8104 23.4296C67.6056 23.3454 67.419 23.2163 67.2622 23.0503C67.113 22.884 66.9967 22.6863 66.9204 22.4695C66.8441 22.2526 66.8094 22.0212 66.8184 21.7893V13.0231ZM68.4526 10.3328V7.67319H76.4122C76.512 7.83427 76.5859 8.01258 76.6306 8.20053C76.7004 8.44804 76.7337 8.70599 76.7292 8.9648C76.749 9.33858 76.6495 9.70838 76.4474 10.0119C76.3484 10.1352 76.2243 10.2318 76.085 10.2942C75.9456 10.3565 75.7948 10.3828 75.6445 10.3711L68.4526 10.3328ZM68.4526 16.7298V14.0931H75.6937C75.7906 14.2569 75.8664 14.4343 75.9192 14.6204C75.9936 14.8539 76.0317 15.0993 76.0319 15.3465C76.0568 15.7126 75.9537 16.0756 75.7431 16.3629C75.641 16.479 75.517 16.5698 75.3797 16.6291C75.2423 16.6885 75.0948 16.715 74.9471 16.7069L68.4526 16.7298ZM68.4526 23.5394V20.9027H76.532C76.6137 21.0692 76.682 21.2431 76.7362 21.4224C76.812 21.6688 76.8501 21.9269 76.8489 22.1867C76.8739 22.5528 76.7708 22.9158 76.5601 23.2031C76.4581 23.3192 76.3341 23.41 76.1968 23.4693C76.0594 23.5287 75.9118 23.5552 75.7642 23.5471L68.4526 23.5394Z" fill="white"/>
<path d="M84.2452 21.216C84.9798 21.2765 85.7111 21.0606 86.3161 20.6046C86.5344 20.4262 86.7116 20.1953 86.8338 19.9301C86.9561 19.6649 87.02 19.3726 87.0205 19.0761C87.0281 18.8288 86.9853 18.5828 86.8952 18.3556C86.8051 18.1284 86.6699 17.9255 86.4993 17.7615C86.0413 17.3539 85.5043 17.0639 84.9285 16.9132L83.3647 16.3858C82.6341 16.1278 81.9268 15.7978 81.2516 15.3999C80.6771 15.0654 80.1919 14.5758 79.8428 13.9784C79.395 13.0828 79.2458 12.047 79.4203 11.0458C79.5948 10.0447 80.0824 9.13954 80.8007 8.48327C81.964 7.60435 83.3653 7.17381 84.7805 7.26044C85.5873 7.2484 86.3922 7.34857 87.1755 7.5585C87.7742 7.70845 88.3393 7.98647 88.8378 8.37628C89.1424 8.60266 89.3529 8.94971 89.424 9.34277C89.4951 9.73583 89.4212 10.1435 89.2182 10.478C89.0749 10.725 88.8823 10.934 88.6547 11.0894C88.1915 10.7471 87.68 10.4889 87.1402 10.3252C86.456 10.0967 85.7429 9.98577 85.0271 9.99652C84.355 9.9538 83.6863 10.1266 83.1041 10.4933C82.8891 10.628 82.7107 10.8219 82.5871 11.0554C82.4634 11.2889 82.3987 11.5538 82.3997 11.8231C82.395 12.0325 82.4352 12.2402 82.5171 12.4299C82.599 12.6195 82.7204 12.7859 82.8716 12.916C83.2904 13.2687 83.7691 13.5284 84.2804 13.6803L85.6892 14.1236C86.8781 14.4619 87.9794 15.0921 88.9083 15.9655C89.2993 16.3716 89.605 16.8646 89.8043 17.4106C90.0037 17.9567 90.0921 18.543 90.0635 19.1295C90.0802 19.7948 89.9533 20.4551 89.6928 21.0576C89.4322 21.6601 89.0454 22.1881 88.5631 22.5993C87.318 23.5677 85.802 24.0377 84.2734 23.9292C83.3969 23.9454 82.5225 23.8323 81.6742 23.5929C81.0225 23.4227 80.4122 23.1021 79.885 22.6528C79.6862 22.4978 79.5231 22.2951 79.4082 22.0604C79.2934 21.8258 79.23 21.5656 79.2229 21.3001C79.2163 20.9345 79.3371 20.5797 79.561 20.3065C79.7561 20.05 79.9953 19.8371 80.2654 19.6798C80.7558 20.1143 81.2985 20.4743 81.8785 20.7498C82.6254 21.095 83.4341 21.2543 84.2452 21.216Z" fill="white"/>
<path d="M107.066 15.5756C107.117 17.1673 106.789 18.7464 106.115 20.1613C105.521 21.35 104.621 22.3248 103.523 22.9661C102.364 23.5892 101.087 23.9134 99.7936 23.9134C98.4997 23.9134 97.2233 23.5892 96.0638 22.9661C94.9666 22.3248 94.0657 21.35 93.4717 20.1613C92.7978 18.7464 92.4704 17.1673 92.5207 15.5756C92.4694 13.9811 92.8046 12.3999 93.4928 10.99C94.0996 9.80123 95.0094 8.82741 96.1131 8.18514C97.2587 7.56186 98.5226 7.2373 99.8041 7.2373C101.086 7.2373 102.35 7.56186 103.495 8.18514C104.594 8.84244 105.492 9.83311 106.08 11.0359C106.764 12.4316 107.104 13.9955 107.066 15.5756ZM103.967 15.5756C104.061 14.0811 103.656 12.5998 102.826 11.4027C102.45 10.9316 101.982 10.5584 101.455 10.311C100.928 10.0635 100.357 9.94819 99.783 9.97353C99.2171 9.95243 98.6541 10.07 98.1358 10.3174C97.6176 10.5648 97.1573 10.9358 96.7893 11.4027C96.043 12.6551 95.646 14.1148 95.646 15.6062C95.646 17.0976 96.043 18.5573 96.7893 19.8097C97.1758 20.2626 97.6443 20.6239 98.1655 20.871C98.6868 21.1181 99.2494 21.2456 99.8182 21.2456C100.387 21.2456 100.95 21.1181 101.471 20.871C101.992 20.6239 102.461 20.2626 102.847 19.8097C103.678 18.5906 104.076 17.0873 103.967 15.5756Z" fill="white"/>
<path d="M113.274 16.9133H110.245V7.67328L110.829 7.54334C111.097 7.49102 111.368 7.46545 111.64 7.46692C112.077 7.42497 112.515 7.54045 112.886 7.79555C113.032 7.95072 113.143 8.14049 113.211 8.34999C113.278 8.55949 113.299 8.78303 113.274 9.0031V16.9133ZM116.303 23.8987C115.173 23.9258 114.053 23.664 113.034 23.1345C112.149 22.684 111.412 21.9506 110.921 21.0327C110.434 20.0581 110.191 18.9618 110.217 17.8533V15.9732H113.246V17.7234C113.218 18.192 113.279 18.6618 113.426 19.1035C113.572 19.5453 113.801 19.9496 114.098 20.2914C114.694 20.872 115.466 21.1931 116.267 21.1931C117.068 21.1931 117.841 20.872 118.437 20.2914C118.737 19.9517 118.969 19.5481 119.118 19.106C119.268 18.664 119.331 18.1932 119.303 17.7234V15.9732H122.353V17.9145C122.382 19.0232 122.139 20.1204 121.649 21.0939C121.165 22.0036 120.441 22.7356 119.571 23.1956C118.547 23.7033 117.428 23.944 116.303 23.8987ZM122.381 16.9362H119.331V7.67328L119.93 7.54334C120.2 7.49168 120.473 7.46611 120.747 7.46692C121.182 7.42836 121.617 7.54365 121.987 7.79555C122.135 7.94929 122.248 8.13865 122.317 8.34838C122.385 8.55812 122.407 8.78237 122.381 9.0031V16.9362Z" fill="white"/>
<path d="M131.515 17.9145H126.274V8.9802C126.263 8.84049 126.28 8.69983 126.324 8.56789C126.367 8.43596 126.437 8.31588 126.528 8.21593C126.719 8.02903 126.945 7.88837 127.19 7.80323C127.783 7.61028 128.391 7.47974 129.007 7.41344C129.708 7.32165 130.414 7.27571 131.12 7.27588C133.233 7.27588 134.818 7.75737 135.868 8.69742C136.389 9.17397 136.802 9.7739 137.075 10.451C137.349 11.1281 137.476 11.8643 137.446 12.6028C137.462 13.5848 137.204 14.5491 136.706 15.3695C136.198 16.1874 135.487 16.8337 134.656 17.2343C133.667 17.7045 132.595 17.9366 131.515 17.9145ZM126.274 16.7681H129.324V23.4402C129.132 23.5091 128.934 23.5578 128.732 23.5854C128.458 23.6323 128.18 23.6553 127.901 23.6542C127.461 23.6929 127.022 23.569 126.654 23.3026C126.515 23.1454 126.409 22.9576 126.342 22.752C126.275 22.5463 126.25 22.3276 126.267 22.1104L126.274 16.7681ZM129.303 15.3313H131.303C132.105 15.3747 132.898 15.1361 133.565 14.6511C133.845 14.4158 134.068 14.1096 134.214 13.7592C134.36 13.4088 134.425 13.0249 134.403 12.6411C134.425 12.2616 134.36 11.882 134.214 11.5364C134.068 11.1909 133.845 10.8902 133.565 10.6616C132.825 10.1567 131.957 9.91865 131.085 9.98139C130.761 9.98139 130.451 9.98139 130.148 10.0196C129.845 10.0578 129.564 10.0884 129.303 10.1419V15.3313ZM131.106 17.0815L133.705 16.2713C134.107 16.8445 134.523 17.4177 134.945 18.0062L136.171 19.6953C136.565 20.2455 136.917 20.75 137.227 21.2238C137.537 21.6976 137.784 22.0492 137.932 22.3473C137.834 22.7548 137.61 23.1135 137.298 23.3638C136.986 23.5944 136.618 23.7178 136.241 23.7178C135.864 23.7178 135.496 23.5944 135.185 23.3638C134.888 23.0919 134.631 22.7722 134.424 22.4161L131.106 17.0815Z" fill="white"/>
<path d="M151.81 9.68351C151.814 9.99489 151.728 10.2999 151.563 10.5548C151.408 10.795 151.206 10.9958 150.972 11.1433C150.526 10.8264 150.054 10.5552 149.563 10.3331C148.94 10.0765 148.277 9.95449 147.612 9.97394C146.785 9.95684 145.969 10.1756 145.245 10.6083C144.549 11.0511 143.996 11.7155 143.66 12.5113C143.264 13.4717 143.071 14.5164 143.096 15.5684C142.994 17.0926 143.452 18.5988 144.371 19.7566C144.814 20.2356 145.344 20.6093 145.928 20.854C146.511 21.0988 147.135 21.2091 147.76 21.1781C148.422 21.195 149.081 21.0783 149.704 20.8342C150.2 20.6419 150.673 20.3853 151.112 20.0699C151.334 20.2264 151.519 20.4355 151.655 20.6814C151.804 20.9544 151.881 21.266 151.88 21.5832C151.883 21.8686 151.812 22.1493 151.676 22.3933C151.5 22.6756 151.257 22.9003 150.972 23.043C150.527 23.2991 150.053 23.4917 149.563 23.6162C147.566 24.1154 145.473 23.8927 143.604 22.9818C142.473 22.3842 141.537 21.4272 140.92 20.2381C140.271 18.7984 139.934 17.2169 139.934 15.6143C139.934 14.0116 140.271 12.4301 140.92 10.9904C141.535 9.80029 142.451 8.82674 143.561 8.18555C144.682 7.54869 145.931 7.22308 147.196 7.23785C148.012 7.21902 148.827 7.33237 149.612 7.57413C150.193 7.74243 150.734 8.04484 151.197 8.46069C151.378 8.60033 151.528 8.7831 151.634 8.99505C151.74 9.20699 151.8 9.44248 151.81 9.68351Z" fill="white"/>
<path d="M157.915 18.136H154.936V9.42336C154.925 9.18893 154.958 8.95456 155.035 8.73493C155.111 8.5153 155.228 8.31515 155.379 8.14703C155.539 7.98634 155.726 7.86169 155.931 7.78034C156.135 7.69899 156.352 7.66257 156.57 7.67319C156.837 7.67385 157.104 7.702 157.366 7.75726C157.551 7.78784 157.735 7.83124 157.915 7.88718V18.136ZM154.936 13.0231H157.915V23.3254C157.735 23.3814 157.551 23.4248 157.366 23.4554C157.104 23.5106 156.837 23.5388 156.57 23.5394C156.351 23.5511 156.132 23.5137 155.928 23.4296C155.723 23.3454 155.536 23.2163 155.379 23.0503C155.23 22.884 155.114 22.6863 155.038 22.4695C154.961 22.2526 154.927 22.0212 154.936 21.7893V13.0231ZM156.57 10.3328V7.67319H164.544C164.641 7.83594 164.714 8.01374 164.762 8.20053C164.829 8.44846 164.86 8.7064 164.853 8.9648C164.875 9.33768 164.778 9.70738 164.579 10.0119C164.48 10.1352 164.356 10.2318 164.216 10.2942C164.077 10.3565 163.926 10.3828 163.776 10.3711L156.57 10.3328ZM156.57 16.7298V14.0931H163.839C163.936 14.2569 164.012 14.4343 164.065 14.6204C164.137 14.8544 164.172 15.0998 164.17 15.3465C164.181 15.5349 164.158 15.7238 164.101 15.9023C164.044 16.0808 163.955 16.2451 163.839 16.3859C163.739 16.5021 163.616 16.5931 163.48 16.6526C163.343 16.712 163.197 16.7383 163.05 16.7298H156.57ZM156.57 23.5394V20.9027H164.649C164.731 21.0692 164.799 21.2431 164.853 21.4224C164.927 21.6692 164.962 21.9274 164.959 22.1867C164.988 22.5533 164.884 22.9176 164.67 23.2031C164.57 23.3194 164.447 23.4104 164.311 23.4699C164.175 23.5293 164.028 23.5556 163.881 23.5471L156.57 23.5394Z" fill="white"/>
<path d="M180.041 20.1615C179.413 21.3709 178.456 22.34 177.301 22.9358C176.004 23.5762 174.591 23.8897 173.166 23.8529C172.64 23.8529 172.013 23.8224 171.285 23.7612C170.607 23.7086 169.937 23.5622 169.292 23.3256C168.965 23.253 168.671 23.0622 168.457 22.7845C168.244 22.5069 168.123 22.1587 168.116 21.797V8.98023C168.106 8.84069 168.124 8.70058 168.168 8.56894C168.212 8.43731 168.28 8.31706 168.369 8.21596C168.56 8.0267 168.786 7.88344 169.031 7.79561C169.661 7.59636 170.308 7.46579 170.961 7.40584C171.666 7.33705 172.314 7.29884 172.927 7.29884C174.379 7.26912 175.82 7.5766 177.153 8.20067C178.321 8.7752 179.303 9.71794 179.971 10.9062C180.7 12.3006 181.054 13.8896 180.992 15.4918C181.054 17.1115 180.726 18.7209 180.041 20.1615ZM177.266 12.3812C176.867 11.6081 176.263 10.9825 175.533 10.5852C174.757 10.183 173.906 9.98156 173.046 9.99671C172.694 9.99671 172.342 9.99672 172.046 10.0349C171.75 10.0731 171.433 10.1037 171.145 10.1572V20.9716C171.463 21.0435 171.785 21.092 172.11 21.1168C172.462 21.1168 172.814 21.1551 173.166 21.1551C173.812 21.2 174.46 21.0966 175.067 20.8516C175.674 20.6067 176.226 20.2257 176.688 19.7335C177.591 18.5583 178.038 17.0484 177.935 15.5224C177.971 14.4323 177.748 13.3504 177.287 12.3812H177.266Z" fill="white"/>
<path d="M16.1172 27.5366H35.7344C36.108 27.5366 36.4664 27.6977 36.7306 27.9843C36.9948 28.271 37.1432 28.6598 37.1432 29.0652V32H27.3346H17.526C17.1523 32 16.794 31.8389 16.5298 31.5523C16.2656 31.2656 16.1172 30.8768 16.1172 30.4714V27.5366Z" fill="#5A36C7"/>
<path d="M0 23.0732H19.6172C19.9909 23.0732 20.3492 23.2343 20.6134 23.5209C20.8776 23.8076 21.026 24.1964 21.026 24.6018V27.5366H1.40878C1.03515 27.5366 0.676817 27.3755 0.41262 27.0889C0.148423 26.8022 0 26.4134 0 26.008V23.0732Z" fill="#7040FF"/>
<path d="M15.918 16.3247H35.5352C35.9088 16.3247 36.2672 16.4857 36.5313 16.7724C36.7955 17.0591 36.944 17.4479 36.944 17.8532V20.788H17.3267C16.9531 20.788 16.5948 20.627 16.3306 20.3403C16.0664 20.0537 15.918 19.6649 15.918 19.2595V16.3247Z" fill="#2576BC"/>
<path d="M0 11.9381H19.6172C19.9909 11.9381 20.3492 12.0992 20.6134 12.3858C20.8776 12.6725 21.026 13.0613 21.026 13.4667V16.3862H1.40878C1.03515 16.3862 0.676817 16.2251 0.41262 15.9385C0.148423 15.6518 0 15.263 0 14.8576V11.9229V11.9381Z" fill="#51A4E4"/>
<path d="M15.918 4.47119H35.5352C35.9088 4.47119 36.2672 4.63223 36.5313 4.91889C36.7955 5.20555 36.944 5.59434 36.944 5.99973V8.93453H17.3267C16.9531 8.93453 16.5948 8.77349 16.3306 8.48683C16.0664 8.20017 15.918 7.81138 15.918 7.40599V4.47119Z" fill="#65CED6"/>
<path d="M0 0H19.6172C19.9909 0 20.3492 0.161041 20.6134 0.447698C20.8776 0.734355 21.026 1.12315 21.026 1.52854V4.46333H1.40878C1.03515 4.46333 0.676817 4.30229 0.41262 4.01564C0.148423 3.72898 0 3.34019 0 2.93479V0Z" fill="#8CE2E9"/>
</svg>
