<svg width="168" height="31" viewBox="0 0 168 31" fill="none" xmlns="http://www.w3.org/2000/svg">
<path d="M53.2956 16.5903H48.4313V8.21439C48.4214 8.08405 48.4367 7.95288 48.4761 7.82943C48.5156 7.70598 48.5783 7.59302 48.6602 7.49789C48.8387 7.32422 49.0479 7.19254 49.2747 7.11098C49.825 6.93009 50.3899 6.80771 50.9615 6.74556C51.6124 6.65971 52.2674 6.61664 52.9229 6.61659C54.8843 6.61659 56.3554 7.06799 57.3295 7.94929C57.813 8.39605 58.1965 8.95848 58.4504 9.59326C58.7043 10.228 58.8219 10.9182 58.794 11.6106C58.8157 12.5271 58.5881 13.43 58.1402 14.2044C57.6634 14.9691 57.0026 15.5742 56.2311 15.9526C55.307 16.3981 54.3049 16.6158 53.2956 16.5903ZM48.4313 15.5156H51.2623V21.7706C51.0836 21.8353 50.8997 21.8809 50.7131 21.9068C50.4601 21.9507 50.2043 21.9723 49.9481 21.9712C49.5375 22.0075 49.1276 21.8914 48.7844 21.6417C48.6563 21.4936 48.5586 21.3173 48.4977 21.1246C48.4368 20.9318 48.4142 20.727 48.4313 20.5239V15.5156ZM51.2427 14.1685H53.0929C53.8369 14.2092 54.573 13.9855 55.1916 13.5308C55.4519 13.3103 55.6589 13.0232 55.7945 12.6947C55.9301 12.3662 55.9903 12.0063 55.9696 11.6464C55.9905 11.2907 55.9304 10.9348 55.7945 10.6108C55.6587 10.2869 55.4515 10.005 55.1916 9.7907C54.5051 9.3174 53.6995 9.09419 52.8902 9.15301C52.596 9.15301 52.3018 9.15301 52.0207 9.18884C51.7395 9.22466 51.478 9.25332 51.2427 9.30348V14.1685ZM52.9164 15.8093L55.3224 15.0498C55.695 15.5872 56.0808 16.1246 56.473 16.6763L57.6106 18.2598C57.9768 18.7756 58.3037 19.2485 58.5913 19.6928C58.879 20.137 59.1078 20.4666 59.2451 20.746C59.1556 21.1178 58.9564 21.4466 58.6784 21.6812C58.4005 21.9158 58.0595 22.043 57.7087 22.0429C57.337 22.0665 56.9694 21.9474 56.6692 21.7061C56.396 21.4509 56.1601 21.1512 55.9696 20.8177L52.9164 15.8093Z" fill="#10084D"/>
<path d="M64.7831 16.7981H62.0175V8.62995C62.0073 8.41017 62.0386 8.19045 62.1095 7.98454C62.1803 7.77864 62.2893 7.591 62.4294 7.43339C62.5775 7.28274 62.7514 7.16588 62.9411 7.08961C63.1308 7.01335 63.3325 6.9792 63.5343 6.98916C63.7823 6.98948 64.0297 7.01587 64.2731 7.06798C64.4454 7.09581 64.6158 7.1365 64.7831 7.18978V16.7981ZM62.0175 12.0047H64.7831V21.6631C64.6158 21.7164 64.4454 21.7571 64.2731 21.7849C64.0297 21.8371 63.7823 21.8634 63.5343 21.8638C63.3313 21.8747 63.1283 21.8397 62.9382 21.7608C62.7481 21.6819 62.5749 21.5608 62.4294 21.4052C62.2909 21.2493 62.183 21.064 62.1121 20.8607C62.0413 20.6574 62.0091 20.4404 62.0175 20.223V12.0047ZM63.5343 9.48259V6.98916H70.9222C71.0149 7.14017 71.0834 7.30734 71.1249 7.48354C71.1897 7.71559 71.2206 7.95741 71.2164 8.20004C71.2349 8.55047 71.1425 8.89715 70.9549 9.18166C70.863 9.29728 70.7478 9.38789 70.6185 9.44634C70.4891 9.50478 70.3492 9.52946 70.2096 9.51842L63.5343 9.48259ZM63.5343 15.4797V13.0078H70.2554C70.3452 13.1614 70.4156 13.3277 70.4646 13.5022C70.5337 13.7211 70.5691 13.9512 70.5692 14.1828C70.5924 14.5261 70.4967 14.8664 70.3011 15.1358C70.2064 15.2446 70.0913 15.3297 69.9638 15.3853C69.8363 15.441 69.6994 15.4658 69.5623 15.4582L63.5343 15.4797ZM63.5343 21.8638V19.3918H71.0334C71.1092 19.548 71.1727 19.711 71.223 19.879C71.2933 20.11 71.3287 20.3521 71.3276 20.5955C71.3508 20.9388 71.2551 21.2791 71.0595 21.5485C70.9648 21.6573 70.8497 21.7424 70.7222 21.798C70.5947 21.8537 70.4578 21.8785 70.3207 21.8709L63.5343 21.8638Z" fill="#10084D"/>
<path d="M78.1931 19.6857C78.8749 19.7424 79.5537 19.5399 80.1152 19.1124C80.3179 18.9452 80.4823 18.7288 80.5958 18.4801C80.7092 18.2315 80.7685 17.9574 80.769 17.6794C80.7761 17.4477 80.7364 17.217 80.6527 17.004C80.5691 16.791 80.4436 16.6008 80.2852 16.4471C79.8601 16.0649 79.3617 15.7931 78.8272 15.6517L77.3758 15.1573C76.6977 14.9155 76.0411 14.6061 75.4144 14.2331C74.8812 13.9195 74.4308 13.4605 74.1068 12.9004C73.6912 12.0607 73.5527 11.0897 73.7147 10.1511C73.8767 9.21251 74.3292 8.36396 74.996 7.74871C76.0757 6.92472 77.3763 6.52108 78.69 6.6023C79.4388 6.59102 80.1858 6.68493 80.9129 6.88173C81.4686 7.02231 81.9931 7.28296 82.4558 7.6484C82.7385 7.86063 82.9339 8.186 82.9999 8.55449C83.0659 8.92298 82.9973 9.30515 82.8089 9.61878C82.6759 9.85036 82.4972 10.0462 82.2858 10.192C81.8559 9.87102 81.3811 9.62901 80.8802 9.47548C80.245 9.26126 79.5832 9.15729 78.9188 9.16738C78.295 9.12733 77.6743 9.28929 77.1339 9.6331C76.9344 9.75936 76.7688 9.94116 76.654 10.1601C76.5392 10.379 76.4792 10.6273 76.4801 10.8798C76.4758 11.0761 76.5131 11.2708 76.5891 11.4486C76.6651 11.6264 76.7777 11.7825 76.9182 11.9044C77.3069 12.2351 77.7512 12.4785 78.2257 12.6209L79.5333 13.0365C80.6368 13.3537 81.6591 13.9445 82.5212 14.7633C82.8842 15.144 83.1679 15.6062 83.3529 16.1181C83.538 16.63 83.62 17.1797 83.5934 17.7296C83.609 18.3533 83.4912 18.9723 83.2494 19.5372C83.0075 20.102 82.6485 20.597 82.2008 20.9825C81.0452 21.8904 79.6381 22.3309 78.2192 22.2292C77.4057 22.2444 76.5941 22.1384 75.8067 21.914C75.2018 21.7544 74.6354 21.4538 74.1461 21.0327C73.9615 20.8873 73.8101 20.6973 73.7035 20.4773C73.5969 20.2574 73.538 20.0134 73.5315 19.7645C73.5254 19.4217 73.6374 19.0891 73.8453 18.833C74.0264 18.5925 74.2484 18.3929 74.4991 18.2455C74.9543 18.6528 75.458 18.9903 75.9963 19.2486C76.6896 19.5722 77.4402 19.7215 78.1931 19.6857Z" fill="#10084D"/>
<path d="M99.3767 14.3979C99.4235 15.8901 99.1196 17.3704 98.4941 18.6969C97.9427 19.8113 97.1066 20.7252 96.0881 21.3265C95.012 21.9106 93.8272 22.2145 92.6263 22.2145C91.4254 22.2145 90.2406 21.9106 89.1644 21.3265C88.146 20.7252 87.3099 19.8113 86.7585 18.6969C86.133 17.3704 85.8291 15.8901 85.8758 14.3979C85.8282 12.903 86.1393 11.4207 86.7781 10.0989C87.3413 8.98437 88.1857 8.07141 89.2102 7.46929C90.2735 6.88496 91.4466 6.58069 92.6361 6.58069C93.8256 6.58069 94.9987 6.88496 96.062 7.46929C97.0819 8.0855 97.9157 9.01425 98.4614 10.1418C99.0961 11.4504 99.4114 12.9165 99.3767 14.3979ZM96.5 14.3979C96.5872 12.9968 96.2112 11.6081 95.4409 10.4858C95.0923 10.0441 94.6574 9.69422 94.1683 9.46225C93.6793 9.23027 93.1489 9.12214 92.6165 9.1459C92.0912 9.12612 91.5687 9.2363 91.0876 9.46826C90.6066 9.70022 90.1794 10.048 89.8379 10.4858C89.1452 11.6599 88.7766 13.0283 88.7766 14.4265C88.7766 15.8247 89.1452 17.1931 89.8379 18.3673C90.1965 18.7919 90.6314 19.1306 91.1152 19.3622C91.599 19.5939 92.1212 19.7135 92.6492 19.7135C93.1771 19.7135 93.6994 19.5939 94.1832 19.3622C94.6669 19.1306 95.1018 18.7919 95.4605 18.3673C96.2317 17.2244 96.6008 15.815 96.5 14.3979Z" fill="#10084D"/>
<path d="M105.136 15.6518H102.325V6.98925L102.867 6.86743C103.115 6.81838 103.367 6.7944 103.619 6.79579C104.025 6.75646 104.432 6.86472 104.776 7.10388C104.912 7.24935 105.015 7.42726 105.077 7.62366C105.14 7.82007 105.16 8.02964 105.136 8.23595V15.6518ZM107.947 22.2006C106.899 22.226 105.86 21.9805 104.914 21.4841C104.092 21.0618 103.408 20.3743 102.952 19.5137C102.5 18.6 102.275 17.5722 102.299 16.5331V14.7705H105.11V16.4113C105.084 16.8505 105.141 17.291 105.277 17.7051C105.413 18.1193 105.626 18.4983 105.901 18.8187C106.454 19.363 107.171 19.6641 107.915 19.6641C108.658 19.6641 109.375 19.363 109.928 18.8187C110.207 18.5003 110.423 18.1219 110.561 17.7075C110.699 17.2931 110.758 16.8517 110.733 16.4113V14.7705H113.564V16.5904C113.59 17.6298 113.364 18.6584 112.91 19.571C112.461 20.424 111.789 21.1101 110.981 21.5414C110.031 22.0174 108.992 22.2431 107.947 22.2006ZM113.59 15.6733H110.759V6.98925L111.314 6.86743C111.565 6.819 111.819 6.79503 112.073 6.79579C112.477 6.75963 112.88 6.86771 113.224 7.10388C113.361 7.24801 113.466 7.42553 113.53 7.62216C113.593 7.81878 113.614 8.02902 113.59 8.23595V15.6733Z" fill="#10084D"/>
<path d="M122.067 16.5903H117.203V8.21439C117.193 8.08342 117.208 7.95155 117.249 7.82786C117.29 7.70417 117.354 7.5916 117.438 7.49789C117.616 7.32267 117.825 7.1908 118.053 7.11098C118.603 6.93009 119.168 6.80771 119.74 6.74556C120.39 6.6595 121.045 6.61644 121.701 6.61659C123.662 6.61659 125.133 7.06799 126.108 7.94929C126.591 8.39605 126.975 8.95848 127.229 9.59326C127.482 10.228 127.6 10.9182 127.572 11.6106C127.587 12.5312 127.348 13.4353 126.886 14.2044C126.414 14.9712 125.754 15.577 124.983 15.9526C124.065 16.3935 123.07 16.611 122.067 16.5903ZM117.203 15.5156H120.034V21.7706C119.855 21.8353 119.671 21.8809 119.485 21.9068C119.229 21.9507 118.972 21.9723 118.713 21.9712C118.305 22.0076 117.897 21.8914 117.556 21.6417C117.427 21.4942 117.328 21.3182 117.266 21.1254C117.204 20.9327 117.18 20.7276 117.196 20.5239L117.203 15.5156ZM120.014 14.1685H121.871C122.615 14.2092 123.351 13.9855 123.97 13.5308C124.23 13.3103 124.437 13.0232 124.573 12.6947C124.708 12.3662 124.768 12.0063 124.748 11.6464C124.769 11.2907 124.708 10.9348 124.573 10.6108C124.437 10.2869 124.23 10.0051 123.97 9.7907C123.283 9.3174 122.478 9.09419 121.668 9.15301C121.368 9.15301 121.08 9.15301 120.799 9.18884C120.518 9.22466 120.256 9.25332 120.014 9.30348V14.1685ZM121.688 15.8093L124.1 15.0498C124.473 15.5872 124.859 16.1246 125.251 16.6763L126.389 18.2598C126.755 18.7757 127.082 19.2485 127.369 19.6928C127.657 20.137 127.886 20.4666 128.023 20.746C127.932 21.1281 127.725 21.4644 127.435 21.699C127.146 21.9152 126.804 22.0309 126.454 22.0309C126.104 22.0309 125.762 21.9152 125.473 21.699C125.198 21.4441 124.96 21.1444 124.767 20.8105L121.688 15.8093Z" fill="#10084D"/>
<path d="M140.906 8.87364C140.91 9.16556 140.83 9.45149 140.677 9.69046C140.533 9.91568 140.345 10.1039 140.128 10.2422C139.715 9.94514 139.277 9.69089 138.82 9.48268C138.243 9.24208 137.627 9.12768 137.009 9.14592C136.242 9.12988 135.485 9.33496 134.813 9.74062C134.167 10.1558 133.653 10.7787 133.342 11.5247C132.974 12.4251 132.795 13.4045 132.819 14.3907C132.723 15.8196 133.149 17.2317 134.002 18.3172C134.413 18.7662 134.905 19.1166 135.446 19.346C135.988 19.5754 136.567 19.6789 137.147 19.6499C137.761 19.6656 138.373 19.5563 138.951 19.3274C139.412 19.1472 139.851 18.9066 140.259 18.6109C140.464 18.7577 140.636 18.9537 140.762 19.1841C140.9 19.4401 140.973 19.7323 140.971 20.0296C140.974 20.2972 140.908 20.5603 140.782 20.7891C140.619 21.0537 140.393 21.2644 140.128 21.3981C139.715 21.6382 139.276 21.8188 138.82 21.9355C136.967 22.4036 135.024 22.1947 133.289 21.3408C132.24 20.7805 131.371 19.8833 130.798 18.7686C130.196 17.4188 129.883 15.9362 129.883 14.4337C129.883 12.9312 130.196 11.4486 130.798 10.0989C131.369 8.98312 132.22 8.07042 133.25 7.4693C134.29 6.87224 135.449 6.56699 136.624 6.58084C137.381 6.56318 138.137 6.66944 138.866 6.8961C139.405 7.05388 139.907 7.33739 140.337 7.72725C140.506 7.85816 140.644 8.02951 140.743 8.22821C140.841 8.4269 140.897 8.64768 140.906 8.87364Z" fill="#10084D"/>
<path d="M146.572 16.7981H143.807V8.62995C143.796 8.41017 143.828 8.19045 143.899 7.98454C143.969 7.77864 144.078 7.591 144.218 7.43339C144.367 7.28274 144.541 7.16588 144.73 7.08961C144.92 7.01335 145.122 6.9792 145.323 6.98916C145.571 6.98978 145.819 7.01617 146.062 7.06798C146.234 7.09665 146.405 7.13733 146.572 7.18978V16.7981ZM143.807 12.0047H146.572V21.6631C146.405 21.7156 146.234 21.7563 146.062 21.7849C145.819 21.8367 145.571 21.8631 145.323 21.8638C145.12 21.8747 144.917 21.8397 144.727 21.7608C144.537 21.6819 144.364 21.5608 144.218 21.4052C144.08 21.2493 143.972 21.064 143.901 20.8607C143.83 20.6574 143.798 20.4404 143.807 20.223V12.0047ZM145.323 9.48259V6.98916H152.724C152.814 7.14174 152.883 7.30843 152.927 7.48354C152.99 7.71598 153.018 7.95779 153.012 8.20004C153.032 8.54962 152.942 8.89622 152.757 9.18166C152.665 9.29728 152.55 9.38789 152.421 9.44634C152.291 9.50478 152.151 9.52946 152.012 9.51842L145.323 9.48259ZM145.323 15.4797V13.0078H152.071C152.16 13.1614 152.231 13.3277 152.28 13.5022C152.347 13.7215 152.38 13.9516 152.378 14.1828C152.388 14.3595 152.366 14.5366 152.314 14.704C152.261 14.8713 152.178 15.0254 152.071 15.1573C151.977 15.2663 151.864 15.3516 151.737 15.4073C151.611 15.463 151.474 15.4877 151.338 15.4797H145.323ZM145.323 21.8638V19.3918H152.822C152.898 19.548 152.962 19.711 153.012 19.879C153.08 20.1104 153.113 20.3525 153.11 20.5955C153.137 20.9392 153.041 21.2808 152.842 21.5485C152.749 21.6575 152.635 21.7428 152.508 21.7985C152.382 21.8542 152.246 21.8789 152.11 21.8709L145.323 21.8638Z" fill="#10084D"/>
<path d="M167.11 18.6968C166.527 19.8306 165.639 20.7391 164.567 21.2977C163.363 21.8981 162.051 22.192 160.729 22.1575C160.241 22.1575 159.659 22.1289 158.983 22.0715C158.353 22.0222 157.732 21.885 157.133 21.6631C156.83 21.5951 156.557 21.4162 156.359 21.1559C156.16 20.8956 156.048 20.5692 156.041 20.2301V8.21438C156.033 8.08356 156.049 7.95221 156.09 7.82879C156.13 7.70538 156.194 7.59265 156.277 7.49788C156.454 7.32044 156.663 7.18614 156.891 7.1038C157.476 6.91699 158.076 6.79459 158.683 6.73838C159.336 6.6739 159.938 6.63807 160.507 6.63807C161.854 6.61021 163.192 6.89848 164.429 7.48354C165.514 8.02216 166.425 8.90598 167.045 10.02C167.722 11.3272 168.051 12.8169 167.993 14.319C168.05 15.8375 167.746 17.3462 167.11 18.6968ZM164.534 11.4028C164.164 10.678 163.603 10.0915 162.926 9.71904C162.206 9.34198 161.416 9.15312 160.618 9.16733C160.291 9.16733 159.964 9.16733 159.689 9.20316C159.415 9.23898 159.121 9.26764 158.853 9.3178V19.4563C159.148 19.5237 159.447 19.5691 159.748 19.5925C160.075 19.5925 160.402 19.6283 160.729 19.6283C161.329 19.6704 161.93 19.5734 162.493 19.3438C163.056 19.1142 163.569 18.757 163.998 18.2956C164.836 17.1938 165.251 15.7783 165.155 14.3476C165.189 13.3257 164.982 12.3114 164.554 11.4028H164.534Z" fill="#10084D"/>
<rect x="30.2617" y="30" width="0.260868" height="0.263157" fill="#C4C4C4"/>
<path d="M17.4805 24.2105H35.7348C36.0825 24.2105 36.4159 24.3625 36.6617 24.6329C36.9076 24.9033 37.0457 25.2701 37.0457 25.6525V28.4211H18.7914C18.4437 28.4211 18.1103 28.2691 17.8644 27.9987C17.6186 27.7283 17.4805 27.3615 17.4805 26.9791V24.2105Z" fill="#5A36C7"/>
<path d="M7.56641 20H25.8207C26.1684 20 26.5018 20.1519 26.7477 20.4223C26.9935 20.6928 27.1316 21.0595 27.1316 21.442V24.2105H8.87731C8.52964 24.2105 8.1962 24.0586 7.95036 23.7882C7.70452 23.5178 7.56641 23.151 7.56641 22.7686V20Z" fill="#7040FF"/>
<path d="M17.4805 14.4737H35.7348C36.0825 14.4737 36.4159 14.6256 36.6617 14.896C36.9076 15.1665 37.0457 15.5332 37.0457 15.9157V18.6842H18.7914C18.4437 18.6842 18.1103 18.5323 17.8644 18.2619C17.6186 17.9915 17.4805 17.6247 17.4805 17.2423V14.4737Z" fill="#2576BC"/>
<path d="M7.56641 10.2776H25.8207C26.1684 10.2776 26.5018 10.4295 26.7477 10.6999C26.9935 10.9704 27.1316 11.3371 27.1316 11.7195V14.4737H8.87731C8.52964 14.4737 8.1962 14.3218 7.95036 14.0514C7.70452 13.7809 7.56641 13.4142 7.56641 13.0317V10.2632V10.2776Z" fill="#51A4E4"/>
<path d="M17.4805 4.73685H35.7348C36.0825 4.73685 36.4159 4.88877 36.6617 5.15919C36.9076 5.42961 37.0457 5.79638 37.0457 6.17881V8.94737H18.7914C18.4437 8.94737 18.1103 8.79545 17.8644 8.52503C17.6186 8.25461 17.4805 7.88784 17.4805 7.50541V4.73685Z" fill="#65CED6"/>
<path d="M7.56641 0.526321H25.8207C26.1684 0.526321 26.5018 0.678241 26.7477 0.948661C26.9935 1.21908 27.1316 1.58585 27.1316 1.96828V4.73685H8.87731C8.52964 4.73685 8.1962 4.58493 7.95036 4.31451C7.70452 4.04409 7.56641 3.67732 7.56641 3.29489V0.526321Z" fill="#8CE2E9"/>
</svg>
