<svg width="182" height="32" viewBox="0 0 182 32" fill="none" xmlns="http://www.w3.org/2000/svg">
<path d="M57.4224 18.2578H52.1818V9.32346C52.1711 9.18443 52.1875 9.04451 52.23 8.91283C52.2725 8.78115 52.3401 8.66066 52.4283 8.55919C52.6207 8.37394 52.846 8.23348 53.0904 8.14649C53.6833 7.95354 54.2918 7.823 54.9078 7.7567C55.609 7.66513 56.3146 7.6192 57.0209 7.61914C59.1341 7.61914 60.7189 8.10063 61.7685 9.04068C62.2894 9.51723 62.7026 10.1172 62.9761 10.7942C63.2497 11.4713 63.3763 12.2075 63.3463 12.9461C63.3696 13.9237 63.1245 14.8868 62.6419 15.7128C62.1282 16.5285 61.4163 17.174 60.5851 17.5776C59.5895 18.0527 58.5098 18.2849 57.4224 18.2578V18.2578ZM52.1818 17.1114H55.2318V23.7834C55.0393 23.8524 54.8412 23.901 54.6401 23.9287C54.3675 23.9755 54.0919 23.9985 53.8159 23.9974C53.3735 24.0361 52.9319 23.9123 52.5621 23.6459C52.4242 23.488 52.3189 23.2999 52.2533 23.0943C52.1877 22.8887 52.1633 22.6703 52.1818 22.4536V17.1114ZM55.2106 15.6745H57.2041C58.0056 15.7179 58.7986 15.4793 59.4651 14.9943C59.7456 14.7591 59.9686 14.4529 60.1147 14.1025C60.2608 13.7521 60.3256 13.3682 60.3034 12.9843C60.3259 12.6048 60.2611 12.2252 60.1147 11.8797C59.9684 11.5341 59.7452 11.2335 59.4651 11.0049C58.7255 10.5 57.8576 10.2619 56.9857 10.3247C56.6687 10.3247 56.3517 10.3247 56.0489 10.3629C55.746 10.4011 55.4642 10.4317 55.2106 10.4852V15.6745ZM57.0139 17.4247L59.606 16.6146C60.0075 17.1878 60.4231 17.761 60.8457 18.3495L62.0714 20.0385C62.4658 20.5888 62.818 21.0932 63.128 21.5671C63.4379 22.0409 63.6844 22.3925 63.8323 22.6905C63.7359 23.0871 63.5212 23.4378 63.2218 23.688C62.9224 23.9383 62.555 24.0739 62.177 24.0739C61.7766 24.099 61.3806 23.972 61.0571 23.7147C60.7627 23.4423 60.5085 23.1227 60.3034 22.767L57.0139 17.4247Z" fill="white"/>
<path d="M69.798 18.4793H66.8184V9.76662C66.8074 9.53219 66.8412 9.29782 66.9175 9.07819C66.9939 8.85856 67.1112 8.65841 67.2622 8.49029C67.4218 8.3296 67.6092 8.20495 67.8135 8.1236C68.0179 8.04225 68.2352 8.00583 68.4526 8.01645C68.7198 8.01679 68.9864 8.04494 69.2486 8.10052C69.4342 8.1302 69.6178 8.17361 69.798 8.23045V18.4793ZM66.8184 13.3663H69.798V23.6687C69.6178 23.7255 69.4342 23.7689 69.2486 23.7986C68.9864 23.8542 68.7198 23.8824 68.4526 23.8827C68.2339 23.8944 68.0152 23.857 67.8104 23.7728C67.6056 23.6887 67.419 23.5596 67.2622 23.3936C67.113 23.2272 66.9967 23.0296 66.9204 22.8127C66.8441 22.5959 66.8094 22.3644 66.8184 22.1325V13.3663ZM68.4526 10.6761V8.01645H76.4122C76.512 8.17753 76.5859 8.35585 76.6306 8.54379C76.7004 8.7913 76.7337 9.04925 76.7292 9.30806C76.749 9.68184 76.6495 10.0516 76.4474 10.3551C76.3484 10.4784 76.2243 10.5751 76.085 10.6374C75.9456 10.6998 75.7948 10.7261 75.6444 10.7143L68.4526 10.6761ZM68.4526 17.073V14.4363H75.6937C75.7906 14.6002 75.8664 14.7776 75.9192 14.9637C75.9936 15.1972 76.0317 15.4426 76.0319 15.6897C76.0568 16.0559 75.9537 16.4188 75.7431 16.7062C75.641 16.8222 75.517 16.913 75.3797 16.9724C75.2423 17.0317 75.0948 17.0582 74.9471 17.0501L68.4526 17.073ZM68.4526 23.8827V21.246H76.532C76.6137 21.4125 76.682 21.5864 76.7362 21.7657C76.812 22.012 76.8501 22.2702 76.8489 22.5299C76.8739 22.8961 76.7708 23.2591 76.5601 23.5464C76.4581 23.6624 76.3341 23.7532 76.1968 23.8126C76.0594 23.8719 75.9118 23.8985 75.7642 23.8903L68.4526 23.8827Z" fill="white"/>
<path d="M84.2452 21.5598C84.9798 21.6202 85.7111 21.4043 86.3161 20.9483C86.5344 20.77 86.7116 20.5391 86.8338 20.2739C86.9561 20.0087 87.02 19.7163 87.0205 19.4198C87.0281 19.1726 86.9853 18.9266 86.8952 18.6994C86.8051 18.4721 86.6699 18.2693 86.4993 18.1053C86.0413 17.6977 85.5043 17.4077 84.9285 17.2569L83.3647 16.7296C82.6341 16.4716 81.9268 16.1416 81.2516 15.7437C80.6771 15.4092 80.1919 14.9196 79.8428 14.3221C79.395 13.4265 79.2458 12.3907 79.4203 11.3896C79.5948 10.3884 80.0824 9.48329 80.8007 8.82702C81.964 7.9481 83.3653 7.51756 84.7805 7.60419C85.5873 7.59215 86.3922 7.69232 87.1755 7.90225C87.7742 8.0522 88.3393 8.33022 88.8378 8.72002C89.1424 8.94641 89.3529 9.29346 89.424 9.68652C89.4951 10.0796 89.4212 10.4872 89.2182 10.8218C89.0749 11.0688 88.8823 11.2777 88.6547 11.4332C88.1915 11.0908 87.68 10.8327 87.1402 10.6689C86.456 10.4404 85.7429 10.3295 85.0271 10.3403C84.355 10.2976 83.6863 10.4703 83.1041 10.837C82.8891 10.9717 82.7107 11.1656 82.5871 11.3992C82.4634 11.6327 82.3987 11.8975 82.3997 12.1669C82.395 12.3763 82.4352 12.584 82.5171 12.7736C82.599 12.9633 82.7204 13.1297 82.8716 13.2598C83.2904 13.6125 83.7691 13.8722 84.2804 14.0241L85.6892 14.4673C86.8781 14.8056 87.9794 15.4358 88.9083 16.3092C89.2993 16.7154 89.605 17.2083 89.8043 17.7544C90.0037 18.3004 90.0921 18.8868 90.0635 19.4733C90.0802 20.1386 89.9533 20.7989 89.6928 21.4014C89.4322 22.0039 89.0454 22.5319 88.5631 22.9431C87.318 23.9114 85.802 24.3814 84.2734 24.2729C83.3969 24.2891 82.5225 24.176 81.6742 23.9366C81.0225 23.7665 80.4122 23.4458 79.885 22.9966C79.6862 22.8415 79.5231 22.6388 79.4082 22.4042C79.2934 22.1696 79.23 21.9094 79.2229 21.6438C79.2163 21.2783 79.3371 20.9235 79.561 20.6503C79.7561 20.3937 79.9953 20.1808 80.2654 20.0236C80.7558 20.458 81.2985 20.818 81.8785 21.0936C82.6254 21.4387 83.4341 21.598 84.2452 21.5598Z" fill="white"/>
<path d="M107.068 15.9194C107.119 17.5111 106.791 19.0901 106.117 20.505C105.523 21.6938 104.622 22.6686 103.525 23.3099C102.366 23.933 101.089 24.2571 99.7955 24.2571C98.5016 24.2571 97.2252 23.933 96.0658 23.3099C94.9686 22.6686 94.0677 21.6938 93.4736 20.505C92.7998 19.0901 92.4723 17.5111 92.5227 15.9194C92.4714 14.3249 92.8066 12.7437 93.4948 11.3338C94.1016 10.145 95.0113 9.17116 96.1151 8.52889C97.2607 7.90561 98.5245 7.58105 99.8061 7.58105C101.088 7.58105 102.351 7.90561 103.497 8.52889C104.596 9.18619 105.494 10.1769 106.082 11.3796C106.766 12.7754 107.106 14.3392 107.068 15.9194ZM103.969 15.9194C104.063 14.4249 103.658 12.9436 102.828 11.7465C102.452 11.2753 101.984 10.9022 101.457 10.6547C100.93 10.4073 100.359 10.2919 99.785 10.3173C99.2191 10.2962 98.6561 10.4137 98.1378 10.6611C97.6195 10.9086 97.1593 11.2795 96.7913 11.7465C96.045 12.9989 95.648 14.4586 95.648 15.9499C95.648 17.4413 96.045 18.901 96.7913 20.1534C97.1777 20.6063 97.6463 20.9676 98.1675 21.2147C98.6887 21.4618 99.2514 21.5894 99.8202 21.5894C100.389 21.5894 100.952 21.4618 101.473 21.2147C101.994 20.9676 102.463 20.6063 102.849 20.1534C103.68 18.9344 104.078 17.431 103.969 15.9194Z" fill="white"/>
<path d="M113.274 17.2566H110.245V8.01654L110.829 7.8866C111.097 7.83429 111.368 7.80871 111.64 7.81018C112.077 7.76823 112.515 7.88372 112.886 8.13881C113.032 8.29399 113.143 8.48375 113.211 8.69325C113.278 8.90275 113.299 9.1263 113.274 9.34636V17.2566ZM116.303 24.242C115.173 24.2691 114.053 24.0073 113.034 23.4777C112.149 23.0272 111.412 22.2939 110.921 21.376C110.434 20.4013 110.191 19.305 110.217 18.1966V16.3165H113.246V18.0667C113.218 18.5353 113.279 19.005 113.426 19.4468C113.572 19.8886 113.801 20.2929 114.098 20.6346C114.694 21.2152 115.466 21.5364 116.267 21.5364C117.068 21.5364 117.841 21.2152 118.437 20.6346C118.737 20.295 118.969 19.8913 119.118 19.4493C119.268 19.0073 119.331 18.5365 119.303 18.0667V16.3165H122.353V18.2578C122.382 19.3665 122.139 20.4636 121.649 21.4371C121.165 22.3469 120.441 23.0788 119.571 23.5389C118.547 24.0465 117.428 24.2873 116.303 24.242V24.242ZM122.381 17.2795H119.331V8.01654L119.93 7.8866C120.2 7.83494 120.473 7.80937 120.747 7.81018C121.182 7.77162 121.617 7.88691 121.987 8.13881C122.135 8.29255 122.248 8.48191 122.317 8.69164C122.385 8.90138 122.407 9.12563 122.381 9.34636V17.2795Z" fill="white"/>
<path d="M131.517 18.2578H126.276V9.32346C126.265 9.18376 126.282 9.04309 126.326 8.91116C126.369 8.77922 126.439 8.65915 126.53 8.55919C126.721 8.3723 126.947 8.23163 127.192 8.14649C127.785 7.95354 128.393 7.823 129.009 7.7567C129.71 7.66491 130.416 7.61898 131.122 7.61914C133.235 7.61914 134.82 8.10063 135.87 9.04068C136.391 9.51723 136.804 10.1172 137.077 10.7942C137.351 11.4713 137.478 12.2075 137.448 12.9461C137.464 13.9281 137.206 14.8924 136.708 15.7128C136.2 16.5307 135.489 17.1769 134.658 17.5776C133.669 18.0478 132.597 18.2798 131.517 18.2578V18.2578ZM126.276 17.1114H129.326V23.7834C129.134 23.8524 128.935 23.901 128.734 23.9287C128.459 23.9755 128.182 23.9985 127.903 23.9974C127.463 24.0362 127.024 23.9123 126.656 23.6459C126.517 23.4886 126.411 23.3009 126.344 23.0952C126.277 22.8896 126.252 22.6708 126.269 22.4536L126.276 17.1114ZM129.305 15.6745H131.305C132.107 15.7179 132.9 15.4793 133.566 14.9943C133.847 14.7591 134.07 14.4529 134.216 14.1025C134.362 13.7521 134.427 13.3682 134.405 12.9843C134.427 12.6048 134.362 12.2252 134.216 11.8797C134.07 11.5341 133.847 11.2335 133.566 11.0049C132.827 10.5 131.959 10.2619 131.087 10.3247C130.763 10.3247 130.453 10.3247 130.15 10.3629C129.847 10.4011 129.566 10.4317 129.305 10.4852V15.6745ZM131.108 17.4247L133.707 16.6146C134.109 17.1878 134.524 17.761 134.947 18.3495L136.173 20.0385C136.567 20.5888 136.919 21.0932 137.229 21.5671C137.539 22.0409 137.786 22.3925 137.934 22.6905C137.836 23.098 137.612 23.4568 137.3 23.707C136.988 23.9377 136.62 24.0611 136.243 24.0611C135.866 24.0611 135.498 23.9377 135.187 23.707C134.89 23.4351 134.633 23.1155 134.426 22.7593L131.108 17.4247Z" fill="white"/>
<path d="M151.81 10.0268C151.814 10.3382 151.728 10.6431 151.563 10.898C151.408 11.1383 151.206 11.3391 150.972 11.4865C150.526 11.1697 150.054 10.8985 149.563 10.6764C148.94 10.4198 148.277 10.2977 147.612 10.3172C146.785 10.3001 145.969 10.5188 145.245 10.9515C144.549 11.3944 143.996 12.0588 143.66 12.8546C143.264 13.815 143.071 14.8597 143.096 15.9117C142.994 17.4358 143.452 18.9421 144.371 20.0999C144.814 20.5788 145.344 20.9526 145.928 21.1973C146.511 21.442 147.135 21.5524 147.76 21.5214C148.422 21.5382 149.081 21.4216 149.704 21.1775C150.2 20.9852 150.673 20.7286 151.112 20.4132C151.334 20.5697 151.519 20.7788 151.655 21.0246C151.804 21.2977 151.881 21.6093 151.88 21.9265C151.883 22.2119 151.812 22.4925 151.676 22.7366C151.5 23.0189 151.257 23.2435 150.972 23.3862C150.527 23.6423 150.053 23.835 149.563 23.9594C147.566 24.4587 145.473 24.2359 143.604 23.3251C142.473 22.7275 141.537 21.7704 140.92 20.5813C140.271 19.1417 139.934 17.5602 139.934 15.9575C139.934 14.3549 140.271 12.7734 140.92 11.3337C141.535 10.1435 142.451 9.17001 143.561 8.52881C144.682 7.89195 145.931 7.56634 147.196 7.58111C148.012 7.56229 148.827 7.67563 149.612 7.9174C150.193 8.0857 150.734 8.38811 151.197 8.80395C151.378 8.94359 151.528 9.12636 151.634 9.33831C151.74 9.55025 151.8 9.78574 151.81 10.0268V10.0268Z" fill="white"/>
<path d="M157.917 18.4793H154.938V9.76662C154.927 9.53219 154.96 9.29782 155.037 9.07819C155.113 8.85856 155.23 8.65841 155.381 8.49029C155.541 8.3296 155.728 8.20495 155.933 8.1236C156.137 8.04225 156.354 8.00583 156.572 8.01645C156.839 8.01711 157.105 8.04526 157.368 8.10052C157.553 8.1311 157.737 8.1745 157.917 8.23045V18.4793ZM154.938 13.3663H157.917V23.6687C157.737 23.7246 157.553 23.768 157.368 23.7986C157.105 23.8539 156.839 23.882 156.572 23.8827C156.353 23.8944 156.134 23.857 155.93 23.7728C155.725 23.6887 155.538 23.5596 155.381 23.3936C155.232 23.2272 155.116 23.0296 155.04 22.8127C154.963 22.5959 154.929 22.3644 154.938 22.1325V13.3663ZM156.572 10.6761V8.01645H164.545C164.642 8.1792 164.716 8.35701 164.764 8.54379C164.831 8.79172 164.862 9.04966 164.855 9.30806C164.877 9.68094 164.78 10.0506 164.581 10.3551C164.482 10.4784 164.358 10.5751 164.218 10.6374C164.079 10.6998 163.928 10.7261 163.778 10.7143L156.572 10.6761ZM156.572 17.073V14.4363H163.841C163.938 14.6002 164.014 14.7776 164.066 14.9637C164.139 15.1976 164.174 15.443 164.172 15.6897C164.183 15.8781 164.16 16.0671 164.103 16.2456C164.046 16.424 163.957 16.5884 163.841 16.7291C163.741 16.8454 163.618 16.9364 163.482 16.9958C163.345 17.0552 163.199 17.0816 163.052 17.073H156.572ZM156.572 23.8827V21.246H164.651C164.733 21.4125 164.801 21.5864 164.855 21.7657C164.929 22.0125 164.964 22.2706 164.961 22.5299C164.99 22.8965 164.886 23.2609 164.672 23.5464C164.572 23.6627 164.449 23.7537 164.313 23.8131C164.177 23.8725 164.03 23.8989 163.883 23.8903L156.572 23.8827Z" fill="white"/>
<path d="M180.043 20.5048C179.415 21.7141 178.458 22.6832 177.303 23.2791C176.006 23.9195 174.592 24.233 173.168 24.1962C172.642 24.1962 172.015 24.1656 171.287 24.1045C170.609 24.0518 169.939 23.9054 169.294 23.6688C168.967 23.5962 168.673 23.4055 168.459 23.1278C168.246 22.8501 168.125 22.502 168.118 22.1403V9.32349C168.108 9.18395 168.126 9.04384 168.17 8.9122C168.213 8.78057 168.282 8.66032 168.371 8.55922C168.562 8.36996 168.788 8.2267 169.033 8.13887C169.663 7.93962 170.31 7.80905 170.963 7.7491C171.668 7.68032 172.316 7.6421 172.929 7.6421C174.381 7.61238 175.822 7.91987 177.155 8.54394C178.323 9.11846 179.305 10.0612 179.972 11.2495C180.702 12.6439 181.056 14.2329 180.994 15.8351C181.056 17.4548 180.728 19.0641 180.043 20.5048ZM177.268 12.7245C176.868 11.9513 176.265 11.3258 175.535 10.9285C174.759 10.5263 173.908 10.3248 173.048 10.34C172.696 10.34 172.344 10.34 172.048 10.3782C171.752 10.4164 171.435 10.447 171.146 10.5005V21.3149C171.465 21.3867 171.787 21.4352 172.112 21.4601C172.464 21.4601 172.816 21.4983 173.168 21.4983C173.814 21.5432 174.462 21.4398 175.069 21.1949C175.676 20.95 176.228 20.569 176.69 20.0768C177.593 18.9016 178.04 17.3917 177.937 15.8656C177.973 14.7756 177.75 13.6937 177.289 12.7245H177.268Z" fill="white"/>
<path d="M18.8203 26.3862H38.4751C38.8494 26.3862 39.2084 26.5483 39.4731 26.8367C39.7378 27.1252 39.8866 27.5164 39.8866 27.9243V30.8775H20.2318C19.8574 30.8775 19.4984 30.7154 19.2337 30.427C18.969 30.1385 18.8203 29.7473 18.8203 29.3394V26.3862Z" fill="#5A36C7"/>
<path d="M8.14648 21.895H27.8012C28.1756 21.895 28.5346 22.0571 28.7993 22.3455C29.064 22.634 29.2127 23.0252 29.2127 23.4331V26.3862H9.55796C9.18361 26.3862 8.8246 26.2242 8.55989 25.9358C8.29519 25.6473 8.14648 25.2561 8.14648 24.8482V21.895Z" fill="#7040FF"/>
<path d="M18.8203 16H38.4751C38.8494 16 39.2084 16.162 39.4731 16.4505C39.7378 16.7389 39.8866 17.1302 39.8866 17.5381V20.4912H20.2318C19.8574 20.4912 19.4984 20.3292 19.2337 20.0407C18.969 19.7523 18.8203 19.3611 18.8203 18.9531V16Z" fill="#2576BC"/>
<path d="M8.14648 11.5242H27.8012C28.1756 11.5242 28.5346 11.6862 28.7993 11.9747C29.064 12.2631 29.2127 12.6543 29.2127 13.0623V16H9.55796C9.18361 16 8.8246 15.838 8.55989 15.5495C8.29519 15.2611 8.14648 14.8698 8.14648 14.4619V11.5088V11.5242Z" fill="#51A4E4"/>
<path d="M18.8203 5.61426H38.4751C38.8494 5.61426 39.2084 5.77631 39.4731 6.06475C39.7378 6.3532 39.8866 6.74442 39.8866 7.15235V10.1055H20.2318C19.8574 10.1055 19.4984 9.94344 19.2337 9.65499C18.969 9.36654 18.8203 8.97532 18.8203 8.56739V5.61426Z" fill="#65CED6"/>
<path d="M8.14648 1.12305H27.8012C28.1756 1.12305 28.5346 1.28509 28.7993 1.57354C29.064 1.86199 29.2127 2.25321 29.2127 2.66114V5.61428H9.55796C9.18361 5.61428 8.8246 5.45223 8.55989 5.16378C8.29519 4.87533 8.14648 4.48411 8.14648 4.07618V1.12305Z" fill="#8CE2E9"/>
</svg>
