<svg width="168" height="30" viewBox="0 0 168 30" fill="none" xmlns="http://www.w3.org/2000/svg">
<path d="M53.2975 16.7949H48.4333V8.41897C48.4234 8.28862 48.4387 8.15746 48.4781 8.03401C48.5175 7.91056 48.5802 7.79759 48.6621 7.70246C48.8407 7.52879 49.0498 7.39711 49.2767 7.31556C49.8269 7.13467 50.3918 7.01229 50.9635 6.95013C51.6143 6.86428 52.2693 6.82122 52.9249 6.82117C54.8863 6.82117 56.3573 7.27256 57.3315 8.15386C57.815 8.60063 58.1984 9.16306 58.4523 9.79783C58.7063 10.4326 58.8238 11.1228 58.796 11.8152C58.8176 12.7317 58.59 13.6346 58.1422 14.4089C57.6653 15.1737 57.0045 15.7788 56.2331 16.1572C55.3089 16.6026 54.3068 16.8203 53.2975 16.7949ZM48.4333 15.7201H51.2642V21.9752C51.0856 22.0399 50.9017 22.0854 50.715 22.1113C50.462 22.1553 50.2062 22.1768 49.9501 22.1758C49.5394 22.2121 49.1296 22.096 48.7863 21.8462C48.6583 21.6982 48.5606 21.5219 48.4997 21.3291C48.4388 21.1364 48.4162 20.9316 48.4333 20.7285V15.7201ZM51.2446 14.3731H53.0949C53.8388 14.4138 54.5749 14.1901 55.1936 13.7354C55.4538 13.5149 55.6608 13.2278 55.7965 12.8993C55.9321 12.5708 55.9922 12.2109 55.9716 11.851C55.9925 11.4953 55.9323 11.1394 55.7965 10.8154C55.6607 10.4915 55.4535 10.2096 55.1936 9.99527C54.507 9.52198 53.7015 9.29877 52.8922 9.35758C52.598 9.35758 52.3038 9.35759 52.0226 9.39341C51.7415 9.42924 51.48 9.4579 51.2446 9.50805V14.3731ZM52.9183 16.0139L55.3243 15.2544C55.697 15.7918 56.0827 16.3292 56.475 16.8809L57.6126 18.4643C57.9787 18.9802 58.3056 19.4531 58.5933 19.8974C58.881 20.3416 59.1098 20.6712 59.2471 20.9506C59.1576 21.3223 58.9583 21.6512 58.6804 21.8858C58.4025 22.1204 58.0615 22.2475 57.7107 22.2475C57.339 22.271 56.9714 22.152 56.6711 21.9107C56.3979 21.6554 56.162 21.3558 55.9716 21.0223L52.9183 16.0139Z" fill="white"/>
<path d="M64.785 17.0026H62.0195V8.83449C62.0092 8.61471 62.0405 8.39499 62.1114 8.18909C62.1823 7.98318 62.2912 7.79554 62.4314 7.63793C62.5795 7.48728 62.7534 7.37042 62.9431 7.29416C63.1328 7.21789 63.3344 7.18375 63.5363 7.19371C63.7843 7.19402 64.0317 7.22042 64.2751 7.27252C64.4474 7.30035 64.6178 7.34105 64.785 7.39433V17.0026ZM62.0195 12.2092H64.785V21.8677C64.6178 21.921 64.4474 21.9617 64.2751 21.9895C64.0317 22.0416 63.7843 22.068 63.5363 22.0683C63.3332 22.0793 63.1303 22.0442 62.9402 21.9653C62.7501 21.8864 62.5768 21.7654 62.4314 21.6097C62.2929 21.4538 62.1849 21.2685 62.1141 21.0652C62.0432 20.8619 62.0111 20.6449 62.0195 20.4275V12.2092ZM63.5363 9.68713V7.19371H70.9242C71.0168 7.34472 71.0854 7.51189 71.1269 7.68808C71.1917 7.92013 71.2226 8.16196 71.2184 8.40459C71.2368 8.75501 71.1445 9.10169 70.9569 9.3862C70.865 9.50183 70.7498 9.59243 70.6204 9.65088C70.4911 9.70933 70.3511 9.73401 70.2116 9.72296L63.5363 9.68713ZM63.5363 15.6843V13.2123H70.2573C70.3472 13.366 70.4176 13.5323 70.4665 13.7067C70.5357 13.9257 70.571 14.1557 70.5711 14.3874C70.5943 14.7307 70.4986 15.0709 70.3031 15.3403C70.2083 15.4491 70.0933 15.5342 69.9658 15.5899C69.8383 15.6455 69.7013 15.6704 69.5643 15.6628L63.5363 15.6843ZM63.5363 22.0683V19.5964H71.0353C71.1112 19.7525 71.1746 19.9155 71.2249 20.0836C71.2953 20.3146 71.3306 20.5566 71.3296 20.8001C71.3527 21.1434 71.257 21.4836 71.0615 21.753C70.9667 21.8618 70.8517 21.9469 70.7242 22.0026C70.5967 22.0582 70.4598 22.0831 70.3227 22.0755L63.5363 22.0683Z" fill="white"/>
<path d="M78.195 19.8901C78.8768 19.9468 79.5556 19.7444 80.1172 19.3169C80.3198 19.1497 80.4843 18.9332 80.5977 18.6846C80.7112 18.436 80.7705 18.1619 80.771 17.8839C80.778 17.6521 80.7383 17.4215 80.6547 17.2085C80.571 16.9955 80.4456 16.8053 80.2872 16.6515C79.8621 16.2694 79.3637 15.9975 78.8292 15.8562L77.3778 15.3618C76.6996 15.1199 76.0431 14.8105 75.4164 14.4375C74.8832 14.1239 74.4328 13.6649 74.1088 13.1048C73.6932 12.2652 73.5546 11.2941 73.7166 10.3555C73.8786 9.41696 74.3312 8.56841 74.9979 7.95316C76.0777 7.12917 77.3783 6.72553 78.6919 6.80675C79.4407 6.79547 80.1878 6.88938 80.9148 7.08619C81.4705 7.22677 81.9951 7.48741 82.4578 7.85285C82.7405 8.06508 82.9358 8.39045 83.0019 8.75894C83.0679 9.12744 82.9993 9.50961 82.8108 9.82323C82.6778 10.0548 82.4991 10.2507 82.2878 10.3964C81.8579 10.0755 81.3831 9.83346 80.8821 9.67993C80.247 9.46571 79.5852 9.36175 78.9207 9.37183C78.297 9.33178 77.6762 9.49375 77.1359 9.83756C76.9363 9.96381 76.7708 10.1456 76.656 10.3645C76.5411 10.5835 76.4812 10.8318 76.4821 11.0843C76.4777 11.2806 76.515 11.4753 76.591 11.6531C76.6671 11.8309 76.7797 11.9869 76.9201 12.1089C77.3088 12.4395 77.7531 12.683 78.2277 12.8254L79.5353 13.2409C80.6388 13.5581 81.661 14.1489 82.5231 14.9677C82.8861 15.3485 83.1698 15.8106 83.3549 16.3226C83.5399 16.8345 83.622 17.3842 83.5954 17.934C83.611 18.5577 83.4931 19.1768 83.2513 19.7416C83.0095 20.3065 82.6504 20.8014 82.2028 21.187C81.0471 22.0948 79.64 22.5354 78.2212 22.4337C77.4077 22.4489 76.5961 22.3428 75.8087 22.1184C75.2037 21.9589 74.6373 21.6583 74.148 21.2371C73.9635 21.0918 73.812 20.9017 73.7055 20.6818C73.5989 20.4618 73.54 20.2179 73.5334 19.9689C73.5273 19.6262 73.6394 19.2936 73.8473 19.0375C74.0283 18.7969 74.2504 18.5974 74.5011 18.4499C74.9563 18.8572 75.46 19.1947 75.9983 19.453C76.6916 19.7766 77.4422 19.926 78.195 19.8901Z" fill="white"/>
<path d="M99.3768 14.6023C99.4235 16.0946 99.1196 17.5749 98.4941 18.9014C97.9428 20.0158 97.1066 20.9297 96.0882 21.5309C95.012 22.1151 93.8273 22.419 92.6263 22.419C91.4254 22.419 90.2406 22.1151 89.1645 21.5309C88.146 20.9297 87.3099 20.0158 86.7585 18.9014C86.133 17.5749 85.8291 16.0946 85.8758 14.6023C85.8282 13.1075 86.1393 11.6251 86.7781 10.3033C87.3413 9.18884 88.1857 8.27588 89.2102 7.67376C90.2735 7.08943 91.4466 6.78516 92.6361 6.78516C93.8256 6.78516 94.9987 7.08943 96.062 7.67376C97.0819 8.28997 97.9158 9.21872 98.4615 10.3463C99.0961 11.6548 99.4114 13.1209 99.3768 14.6023ZM96.5001 14.6023C96.5872 13.2012 96.2112 11.8125 95.4409 10.6902C95.0923 10.2485 94.6574 9.89869 94.1684 9.66672C93.6794 9.43474 93.1489 9.32661 92.6165 9.35037C92.0913 9.33058 91.5687 9.44077 91.0876 9.67273C90.6066 9.90469 90.1794 10.2525 89.8379 10.6902C89.1452 11.8644 88.7767 13.2328 88.7767 14.631C88.7767 16.0292 89.1452 17.3976 89.8379 18.5718C90.1965 18.9963 90.6314 19.3351 91.1152 19.5667C91.599 19.7984 92.1212 19.918 92.6492 19.918C93.1771 19.918 93.6994 19.7984 94.1832 19.5667C94.667 19.3351 95.1018 18.9963 95.4605 18.5718C96.2318 17.4289 96.6009 16.0195 96.5001 14.6023Z" fill="white"/>
<path d="M105.138 15.8563H102.327V7.19379L102.869 7.07198C103.117 7.02293 103.369 6.99895 103.621 7.00033C104.027 6.961 104.434 7.06927 104.778 7.30842C104.914 7.45389 105.017 7.6318 105.079 7.82821C105.142 8.02461 105.162 8.23419 105.138 8.4405V15.8563ZM107.949 22.4051C106.901 22.4305 105.862 22.1851 104.916 21.6886C104.094 21.2663 103.41 20.5788 102.954 19.7183C102.502 18.8045 102.277 17.7767 102.301 16.7376V14.975H105.112V16.6158C105.086 17.0551 105.143 17.4955 105.279 17.9097C105.415 18.3238 105.628 18.7029 105.903 19.0232C106.456 19.5676 107.173 19.8686 107.917 19.8686C108.66 19.8686 109.377 19.5676 109.93 19.0232C110.209 18.7048 110.425 18.3264 110.563 17.912C110.701 17.4976 110.76 17.0562 110.735 16.6158V14.975H113.565V16.7949C113.592 17.8344 113.366 18.8629 112.912 19.7756C112.462 20.6285 111.791 21.3147 110.983 21.746C110.032 22.2219 108.994 22.4476 107.949 22.4051ZM113.592 15.8778H110.761V7.19379L111.316 7.07198C111.567 7.02354 111.821 6.99957 112.075 7.00033C112.479 6.96418 112.882 7.07226 113.225 7.30842C113.363 7.45255 113.468 7.63007 113.532 7.8267C113.595 8.02333 113.616 8.23356 113.592 8.4405V15.8778Z" fill="white"/>
<path d="M122.071 16.7949H117.207V8.41897C117.197 8.28799 117.212 8.15612 117.253 8.03243C117.293 7.90874 117.358 7.79617 117.442 7.70246C117.62 7.52725 117.829 7.39537 118.057 7.31556C118.607 7.13467 119.172 7.01229 119.744 6.95013C120.394 6.86407 121.049 6.82101 121.705 6.82117C123.666 6.82117 125.137 7.27256 126.112 8.15386C126.595 8.60063 126.979 9.16306 127.232 9.79783C127.486 10.4326 127.604 11.1228 127.576 11.8152C127.591 12.7358 127.352 13.6398 126.89 14.4089C126.418 15.1758 125.758 15.7816 124.987 16.1572C124.068 16.598 123.074 16.8156 122.071 16.7949ZM117.207 15.7201H120.038V21.9752C119.859 22.0398 119.675 22.0854 119.489 22.1113C119.233 22.1553 118.975 22.1768 118.717 22.1758C118.308 22.2121 117.901 22.096 117.56 21.8462C117.431 21.6988 117.332 21.5228 117.27 21.33C117.208 21.1372 117.184 20.9321 117.2 20.7285L117.207 15.7201ZM120.018 14.3731H121.875C122.619 14.4138 123.355 14.1901 123.974 13.7354C124.234 13.5149 124.441 13.2278 124.577 12.8993C124.712 12.5708 124.772 12.2109 124.752 11.851C124.773 11.4953 124.712 11.1394 124.577 10.8154C124.441 10.4915 124.234 10.2096 123.974 9.99527C123.287 9.52197 122.482 9.29877 121.672 9.35758C121.372 9.35758 121.084 9.35758 120.803 9.39341C120.522 9.42924 120.26 9.4579 120.018 9.50805V14.3731ZM121.692 16.0139L124.104 15.2544C124.477 15.7918 124.863 16.3292 125.255 16.8809L126.393 18.4643C126.759 18.9802 127.086 19.4531 127.373 19.8973C127.661 20.3416 127.89 20.6712 128.027 20.9506C127.936 21.3326 127.729 21.669 127.439 21.9036C127.15 22.1198 126.808 22.2355 126.458 22.2355C126.108 22.2355 125.766 22.1198 125.477 21.9036C125.202 21.6486 124.964 21.349 124.771 21.0151L121.692 16.0139Z" fill="white"/>
<path d="M140.906 9.07814C140.91 9.37006 140.83 9.65598 140.677 9.89495C140.533 10.1202 140.345 10.3084 140.128 10.4467C139.715 10.1496 139.277 9.89538 138.82 9.68717C138.243 9.44658 137.627 9.33218 137.009 9.35042C136.242 9.33438 135.485 9.53946 134.813 9.94511C134.167 10.3603 133.653 10.9832 133.342 11.7292C132.974 12.6296 132.795 13.609 132.819 14.5952C132.723 16.0241 133.149 17.4362 134.002 18.5217C134.413 18.9707 134.905 19.3211 135.446 19.5505C135.988 19.7799 136.567 19.8834 137.147 19.8544C137.761 19.8701 138.373 19.7608 138.951 19.5319C139.412 19.3517 139.851 19.1111 140.259 18.8154C140.464 18.9621 140.636 19.1582 140.762 19.3886C140.9 19.6446 140.973 19.9367 140.971 20.2341C140.974 20.5017 140.908 20.7648 140.782 20.9936C140.619 21.2582 140.393 21.4689 140.128 21.6026C139.715 21.8427 139.276 22.0233 138.82 22.14C136.967 22.6081 135.024 22.3992 133.289 21.5453C132.24 20.985 131.371 20.0878 130.798 18.973C130.196 17.6233 129.883 16.1407 129.883 14.6382C129.883 13.1357 130.196 11.6531 130.798 10.3034C131.369 9.18762 132.22 8.27492 133.25 7.6738C134.29 7.07674 135.449 6.77149 136.624 6.78533C137.381 6.76768 138.137 6.87394 138.866 7.1006C139.405 7.25838 139.907 7.54189 140.337 7.93174C140.505 8.06265 140.644 8.23401 140.743 8.4327C140.841 8.6314 140.897 8.85217 140.906 9.07814Z" fill="white"/>
<path d="M146.574 17.0026H143.809V8.83449C143.798 8.61471 143.83 8.39499 143.9 8.18909C143.971 7.98318 144.08 7.79554 144.22 7.63793C144.369 7.48728 144.542 7.37042 144.732 7.29416C144.922 7.21789 145.124 7.18375 145.325 7.19371C145.573 7.19433 145.821 7.22072 146.064 7.27252C146.236 7.30119 146.407 7.34188 146.574 7.39433V17.0026ZM143.809 12.2092H146.574V21.8677C146.407 21.9201 146.236 21.9608 146.064 21.9895C145.821 22.0413 145.573 22.0677 145.325 22.0683C145.122 22.0793 144.919 22.0442 144.729 21.9653C144.539 21.8864 144.366 21.7654 144.22 21.6097C144.082 21.4538 143.974 21.2685 143.903 21.0652C143.832 20.8619 143.8 20.6449 143.809 20.4275V12.2092ZM145.325 9.68713V7.19371H152.726C152.816 7.34628 152.885 7.51298 152.929 7.68808C152.992 7.92052 153.02 8.16234 153.014 8.40459C153.034 8.75416 152.944 9.10076 152.759 9.3862C152.667 9.50183 152.552 9.59243 152.423 9.65088C152.293 9.70933 152.153 9.73401 152.014 9.72296L145.325 9.68713ZM145.325 15.6843V13.2123H152.073C152.162 13.366 152.233 13.5323 152.282 13.7067C152.349 13.9261 152.382 14.1561 152.38 14.3874C152.39 14.564 152.368 14.7412 152.316 14.9085C152.263 15.0758 152.18 15.2299 152.073 15.3618C151.979 15.4708 151.865 15.5562 151.739 15.6119C151.612 15.6676 151.476 15.6923 151.34 15.6843H145.325ZM145.325 22.0683V19.5964H152.824C152.9 19.7525 152.964 19.9155 153.014 20.0836C153.082 20.315 153.115 20.557 153.112 20.8001C153.139 21.1438 153.043 21.4854 152.844 21.753C152.751 21.862 152.637 21.9474 152.51 22.0031C152.384 22.0588 152.248 22.0835 152.112 22.0755L145.325 22.0683Z" fill="white"/>
<path d="M167.11 18.9013C166.527 20.0351 165.639 20.9436 164.567 21.5022C163.363 22.1026 162.051 22.3965 160.729 22.362C160.241 22.362 159.659 22.3333 158.983 22.276C158.353 22.2267 157.732 22.0894 157.133 21.8676C156.83 21.7995 156.557 21.6207 156.359 21.3604C156.16 21.1001 156.048 20.7737 156.041 20.4346V8.41885C156.033 8.28802 156.049 8.15667 156.09 8.03326C156.13 7.90985 156.194 7.79712 156.277 7.70234C156.454 7.52491 156.663 7.3906 156.891 7.30826C157.476 7.12146 158.076 6.99905 158.683 6.94285C159.336 6.87837 159.938 6.84254 160.507 6.84254C161.854 6.81468 163.192 7.10294 164.429 7.68801C165.514 8.22663 166.425 9.11044 167.045 10.2244C167.722 11.5317 168.051 13.0214 167.993 14.5235C168.05 16.042 167.746 17.5507 167.11 18.9013ZM164.534 11.6073C164.164 10.8825 163.603 10.296 162.926 9.92351C162.206 9.54645 161.416 9.35759 160.618 9.3718C160.291 9.3718 159.964 9.3718 159.689 9.40762C159.415 9.44345 159.121 9.47211 158.853 9.52227V19.6608C159.148 19.7281 159.447 19.7736 159.748 19.7969C160.075 19.7969 160.402 19.8327 160.729 19.8327C161.329 19.8748 161.93 19.7779 162.493 19.5483C163.056 19.3187 163.569 18.9615 163.998 18.5C164.836 17.3983 165.251 15.9827 165.155 14.5521C165.189 13.5302 164.982 12.5159 164.554 11.6073H164.534Z" fill="white"/>
<path d="M14.959 25.8157H33.1672C33.514 25.8157 33.8466 25.9666 34.0918 26.2354C34.3371 26.5041 34.4748 26.8686 34.4748 27.2487V30H25.3707H16.2666C15.9198 30 15.5872 29.8491 15.342 29.5803C15.0967 29.3116 14.959 28.9471 14.959 28.567V25.8157Z" fill="#5A36C7"/>
<path d="M0 21.6312H18.2083C18.555 21.6312 18.8876 21.7822 19.1329 22.0509C19.3781 22.3197 19.5158 22.6842 19.5158 23.0642V25.8156H1.30759C0.960798 25.8156 0.628206 25.6646 0.382984 25.3959C0.137763 25.1271 0 24.7626 0 24.3826V21.6312Z" fill="#7040FF"/>
<path d="M14.7754 15.3044H32.9836C33.3304 15.3044 33.663 15.4554 33.9083 15.7242C34.1535 15.9929 34.2912 16.3574 34.2912 16.7374V19.4888H16.083C15.7362 19.4888 15.4036 19.3378 15.1584 19.0691C14.9132 18.8004 14.7754 18.4359 14.7754 18.0558V15.3044Z" fill="#2576BC"/>
<path d="M0 11.1918H18.2083C18.555 11.1918 18.8876 11.3428 19.1329 11.6115C19.3781 11.8803 19.5158 12.2448 19.5158 12.6248V15.3619H1.30759C0.960798 15.3619 0.628206 15.2109 0.382984 14.9421C0.137763 14.6734 0 14.3089 0 13.9289V11.1775V11.1918Z" fill="#51A4E4"/>
<path d="M14.7754 4.19153H32.9836C33.3304 4.19153 33.663 4.3425 33.9083 4.61125C34.1535 4.87999 34.2912 5.24448 34.2912 5.62454V8.37591H16.083C15.7362 8.37591 15.4036 8.22493 15.1584 7.95619C14.9132 7.68745 14.7754 7.32296 14.7754 6.9429V4.19153Z" fill="#65CED6"/>
<path d="M0 0H18.2083C18.555 0 18.8876 0.150976 19.1329 0.419717C19.3781 0.688457 19.5158 1.05295 19.5158 1.43301V4.18438H1.30759C0.960798 4.18438 0.628206 4.0334 0.382984 3.76466C0.137763 3.49592 0 3.13143 0 2.75137V0Z" fill="#8CE2E9"/>
</svg>
