<svg width="168" height="30" viewBox="0 0 168 30" fill="none" xmlns="http://www.w3.org/2000/svg">
<path d="M53.2956 16.7948H48.4313V8.4189C48.4214 8.28856 48.4367 8.15739 48.4761 8.03394C48.5156 7.91049 48.5783 7.79753 48.6602 7.7024C48.8387 7.52873 49.0479 7.39705 49.2747 7.31549C49.825 7.1346 50.3899 7.01223 50.9615 6.95007C51.6124 6.86422 52.2674 6.82116 52.9229 6.82111C54.8843 6.82111 56.3553 7.2725 57.3295 8.1538C57.813 8.60056 58.1965 9.163 58.4504 9.79777C58.7043 10.4325 58.8219 11.1227 58.794 11.8151C58.8157 12.7316 58.5881 13.6345 58.1402 14.4089C57.6634 15.1736 57.0026 15.7788 56.2311 16.1571C55.307 16.6026 54.3049 16.8203 53.2956 16.7948ZM48.4313 15.7201H51.2623V21.9751C51.0836 22.0398 50.8997 22.0854 50.7131 22.1113C50.4601 22.1552 50.2043 22.1768 49.9481 22.1758C49.5375 22.212 49.1276 22.0959 48.7844 21.8462C48.6563 21.6981 48.5586 21.5218 48.4977 21.3291C48.4368 21.1363 48.4142 20.9315 48.4313 20.7284V15.7201ZM51.2427 14.373H53.0929C53.8369 14.4137 54.573 14.19 55.1916 13.7354C55.4519 13.5148 55.6589 13.2277 55.7945 12.8992C55.9301 12.5707 55.9903 12.2108 55.9696 11.851C55.9905 11.4952 55.9304 11.1393 55.7945 10.8154C55.6587 10.4914 55.4515 10.2096 55.1916 9.99521C54.5051 9.52191 53.6995 9.29871 52.8902 9.35752C52.596 9.35752 52.3018 9.35752 52.0207 9.39335C51.7395 9.42917 51.478 9.45784 51.2427 9.50799V14.373ZM52.9164 16.0138L55.3224 15.2543C55.695 15.7917 56.0808 16.3291 56.473 16.8808L57.6106 18.4643C57.9768 18.9802 58.3037 19.4531 58.5913 19.8973C58.879 20.3415 59.1078 20.6711 59.2451 20.9505C59.1556 21.3223 58.9564 21.6511 58.6784 21.8857C58.4005 22.1203 58.0595 22.2475 57.7087 22.2474C57.337 22.271 56.9694 22.1519 56.6692 21.9107C56.396 21.6554 56.1601 21.3557 55.9696 21.0222L52.9164 16.0138Z" fill="#10084D"/>
<path d="M64.7831 17.0026H62.0175V8.83443C62.0073 8.61465 62.0386 8.39493 62.1095 8.18903C62.1803 7.98312 62.2893 7.79548 62.4294 7.63787C62.5775 7.48722 62.7514 7.37036 62.9411 7.2941C63.1308 7.21783 63.3325 7.18369 63.5343 7.19365C63.7823 7.19396 64.0297 7.22035 64.2731 7.27246C64.4454 7.30029 64.6158 7.34099 64.7831 7.39427V17.0026ZM62.0175 12.2092H64.7831V21.8676C64.6158 21.9209 64.4454 21.9616 64.2731 21.9894C64.0297 22.0415 63.7823 22.0679 63.5343 22.0682C63.3313 22.0792 63.1283 22.0442 62.9382 21.9653C62.7481 21.8864 62.5749 21.7653 62.4294 21.6097C62.2909 21.4538 62.183 21.2685 62.1121 21.0652C62.0413 20.8619 62.0091 20.6449 62.0175 20.4275V12.2092ZM63.5343 9.68707V7.19365H70.9222C71.0149 7.34466 71.0834 7.51183 71.1249 7.68802C71.1897 7.92007 71.2206 8.1619 71.2164 8.40453C71.2349 8.75495 71.1425 9.10163 70.9549 9.38614C70.863 9.50177 70.7478 9.59237 70.6185 9.65082C70.4891 9.70927 70.3492 9.73395 70.2096 9.7229L63.5343 9.68707ZM63.5343 15.6842V13.2123H70.2554C70.3452 13.3659 70.4156 13.5322 70.4646 13.7067C70.5337 13.9256 70.5691 14.1556 70.5692 14.3873C70.5924 14.7306 70.4967 15.0709 70.3011 15.3403C70.2064 15.4491 70.0913 15.5342 69.9638 15.5898C69.8363 15.6455 69.6994 15.6703 69.5623 15.6627L63.5343 15.6842ZM63.5343 22.0682V19.5963H71.0334C71.1092 19.7525 71.1727 19.9155 71.223 20.0835C71.2933 20.3145 71.3287 20.5565 71.3276 20.8C71.3508 21.1433 71.2551 21.4836 71.0595 21.753C70.9648 21.8618 70.8497 21.9469 70.7222 22.0025C70.5948 22.0582 70.4578 22.083 70.3207 22.0754L63.5343 22.0682Z" fill="#10084D"/>
<path d="M78.1931 19.8902C78.8749 19.9469 79.5537 19.7444 80.1152 19.3169C80.3178 19.1497 80.4823 18.9333 80.5958 18.6846C80.7092 18.436 80.7685 18.1619 80.769 17.8839C80.7761 17.6522 80.7363 17.4215 80.6527 17.2085C80.5691 16.9955 80.4436 16.8053 80.2852 16.6516C79.8601 16.2694 79.3617 15.9976 78.8272 15.8562L77.3758 15.3618C76.6977 15.12 76.0411 14.8106 75.4144 14.4376C74.8812 14.124 74.4308 13.665 74.1068 13.1049C73.6912 12.2652 73.5527 11.2942 73.7147 10.3556C73.8767 9.41701 74.3292 8.56846 74.996 7.95321C76.0757 7.12921 77.3763 6.72558 78.69 6.8068C79.4388 6.79552 80.1858 6.88943 80.9129 7.08623C81.4686 7.22681 81.9931 7.48745 82.4558 7.8529C82.7385 8.06513 82.9339 8.39049 82.9999 8.75899C83.0659 9.12748 82.9973 9.50965 82.8089 9.82328C82.6759 10.0549 82.4971 10.2507 82.2858 10.3965C81.8559 10.0755 81.3811 9.83351 80.8802 9.67998C80.245 9.46576 79.5832 9.36179 78.9188 9.37188C78.295 9.33183 77.6743 9.49379 77.1339 9.8376C76.9344 9.96386 76.7688 10.1457 76.654 10.3646C76.5392 10.5835 76.4792 10.8318 76.4801 11.0843C76.4758 11.2806 76.5131 11.4753 76.5891 11.6531C76.6651 11.8309 76.7777 11.987 76.9181 12.1089C77.3068 12.4395 77.7512 12.683 78.2257 12.8254L79.5333 13.241C80.6368 13.5582 81.6591 14.149 82.5212 14.9678C82.8842 15.3485 83.1679 15.8107 83.3529 16.3226C83.5379 16.8345 83.62 17.3842 83.5934 17.9341C83.609 18.5578 83.4912 19.1768 83.2493 19.7417C83.0075 20.3065 82.6485 20.8015 82.2008 21.187C81.0452 22.0949 79.6381 22.5354 78.2192 22.4337C77.4057 22.4489 76.5941 22.3429 75.8067 22.1185C75.2018 21.9589 74.6354 21.6583 74.1461 21.2372C73.9615 21.0918 73.8101 20.9018 73.7035 20.6818C73.5969 20.4618 73.538 20.2179 73.5315 19.969C73.5254 19.6262 73.6374 19.2936 73.8453 19.0375C74.0264 18.797 74.2484 18.5974 74.4991 18.45C74.9543 18.8573 75.458 19.1947 75.9963 19.4531C76.6896 19.7767 77.4402 19.926 78.1931 19.8902Z" fill="#10084D"/>
<path d="M99.3768 14.6024C99.4235 16.0946 99.1196 17.5749 98.4941 18.9014C97.9428 20.0158 97.1066 20.9297 96.0882 21.531C95.012 22.1151 93.8273 22.419 92.6263 22.419C91.4254 22.419 90.2406 22.1151 89.1645 21.531C88.146 20.9297 87.3099 20.0158 86.7585 18.9014C86.133 17.5749 85.8291 16.0946 85.8758 14.6024C85.8282 13.1075 86.1393 11.6252 86.7781 10.3034C87.3413 9.18887 88.1857 8.27591 89.2102 7.67379C90.2735 7.08946 91.4466 6.78519 92.6361 6.78519C93.8256 6.78519 94.9987 7.08946 96.062 7.67379C97.0819 8.29 97.9158 9.21875 98.4615 10.3463C99.0961 11.6549 99.4114 13.121 99.3768 14.6024ZM96.5001 14.6024C96.5872 13.2013 96.2112 11.8126 95.4409 10.6903C95.0923 10.2486 94.6574 9.89872 94.1684 9.66675C93.6794 9.43477 93.1489 9.32664 92.6165 9.3504C92.0913 9.33061 91.5687 9.4408 91.0876 9.67276C90.6066 9.90472 90.1794 10.2525 89.8379 10.6903C89.1452 11.8644 88.7767 13.2328 88.7767 14.631C88.7767 16.0292 89.1452 17.3976 89.8379 18.5718C90.1965 18.9964 90.6314 19.3351 91.1152 19.5667C91.599 19.7984 92.1212 19.918 92.6492 19.918C93.1771 19.918 93.6994 19.7984 94.1832 19.5667C94.667 19.3351 95.1018 18.9964 95.4605 18.5718C96.2318 17.4289 96.6009 16.0195 96.5001 14.6024Z" fill="#10084D"/>
<path d="M105.136 15.8563H102.325V7.19374L102.867 7.07193C103.115 7.02288 103.367 6.9989 103.619 7.00029C104.025 6.96096 104.432 7.06922 104.776 7.30838C104.912 7.45385 105.015 7.63176 105.077 7.82816C105.14 8.02457 105.16 8.23414 105.136 8.44045V15.8563ZM107.947 22.4051C106.899 22.4305 105.86 22.185 104.914 21.6886C104.092 21.2663 103.408 20.5788 102.952 19.7182C102.5 18.8045 102.275 17.7767 102.299 16.7376V14.975H105.11V16.6158C105.084 17.055 105.141 17.4955 105.277 17.9096C105.413 18.3238 105.626 18.7028 105.901 19.0232C106.454 19.5675 107.171 19.8686 107.915 19.8686C108.658 19.8686 109.375 19.5675 109.928 19.0232C110.207 18.7048 110.423 18.3264 110.561 17.912C110.699 17.4976 110.758 17.0562 110.733 16.6158V14.975H113.563V16.7949C113.59 17.8343 113.364 18.8629 112.91 19.7755C112.461 20.6285 111.789 21.3146 110.981 21.7459C110.031 22.2219 108.992 22.4476 107.947 22.4051ZM113.59 15.8778H110.759V7.19374L111.314 7.07193C111.565 7.0235 111.819 6.99953 112.073 7.00029C112.477 6.96413 112.88 7.07221 113.224 7.30838C113.361 7.4525 113.466 7.63003 113.53 7.82665C113.593 8.02328 113.614 8.23352 113.59 8.44045V15.8778Z" fill="#10084D"/>
<path d="M122.071 16.7948H117.207V8.41891C117.197 8.28793 117.212 8.15606 117.253 8.03237C117.293 7.90868 117.358 7.79611 117.442 7.7024C117.62 7.52719 117.829 7.39531 118.057 7.3155C118.607 7.1346 119.172 7.01223 119.744 6.95007C120.394 6.86401 121.049 6.82095 121.705 6.82111C123.666 6.82111 125.137 7.2725 126.112 8.1538C126.595 8.60056 126.979 9.163 127.232 9.79777C127.486 10.4325 127.604 11.1227 127.576 11.8151C127.591 12.7358 127.352 13.6398 126.89 14.4089C126.418 15.1757 125.758 15.7815 124.987 16.1571C124.068 16.598 123.074 16.8155 122.071 16.7948ZM117.207 15.7201H120.038V21.9751C119.859 22.0398 119.675 22.0854 119.489 22.1113C119.233 22.1552 118.975 22.1768 118.717 22.1758C118.308 22.2121 117.901 22.0959 117.56 21.8462C117.431 21.6988 117.332 21.5227 117.27 21.33C117.208 21.1372 117.184 20.9321 117.2 20.7284L117.207 15.7201ZM120.018 14.373H121.875C122.619 14.4137 123.355 14.1901 123.974 13.7354C124.234 13.5148 124.441 13.2277 124.577 12.8992C124.712 12.5707 124.772 12.2108 124.752 11.851C124.773 11.4952 124.712 11.1393 124.577 10.8154C124.441 10.4914 124.234 10.2096 123.974 9.99521C123.287 9.52191 122.482 9.29871 121.672 9.35752C121.372 9.35752 121.084 9.35752 120.803 9.39335C120.522 9.42918 120.26 9.45784 120.018 9.50799V14.373ZM121.692 16.0138L124.104 15.2544C124.477 15.7917 124.863 16.3291 125.255 16.8808L126.393 18.4643C126.759 18.9802 127.086 19.4531 127.373 19.8973C127.661 20.3415 127.89 20.6711 128.027 20.9505C127.936 21.3326 127.729 21.6689 127.439 21.9035C127.15 22.1198 126.808 22.2354 126.458 22.2354C126.108 22.2354 125.766 22.1198 125.477 21.9035C125.202 21.6486 124.964 21.349 124.771 21.015L121.692 16.0138Z" fill="#10084D"/>
<path d="M140.906 9.07814C140.91 9.37006 140.83 9.65598 140.677 9.89496C140.533 10.1202 140.345 10.3084 140.128 10.4467C139.715 10.1496 139.277 9.89538 138.82 9.68717C138.243 9.44658 137.627 9.33218 137.009 9.35042C136.242 9.33438 135.485 9.53946 134.813 9.94512C134.167 10.3603 133.653 10.9832 133.342 11.7292C132.974 12.6296 132.795 13.609 132.819 14.5952C132.723 16.0241 133.149 17.4362 134.002 18.5217C134.413 18.9707 134.905 19.3211 135.446 19.5505C135.988 19.7799 136.567 19.8834 137.147 19.8544C137.761 19.8701 138.373 19.7608 138.951 19.5319C139.412 19.3517 139.851 19.1111 140.259 18.8154C140.464 18.9621 140.636 19.1582 140.762 19.3886C140.9 19.6446 140.973 19.9368 140.971 20.2341C140.974 20.5017 140.908 20.7648 140.782 20.9936C140.619 21.2582 140.393 21.4689 140.128 21.6026C139.715 21.8427 139.276 22.0233 138.82 22.14C136.967 22.6081 135.024 22.3992 133.289 21.5453C132.24 20.985 131.371 20.0878 130.798 18.973C130.196 17.6233 129.883 16.1407 129.883 14.6382C129.883 13.1357 130.196 11.6531 130.798 10.3034C131.369 9.18762 132.22 8.27492 133.25 7.6738C134.29 7.07674 135.449 6.77149 136.624 6.78533C137.381 6.76768 138.137 6.87394 138.866 7.1006C139.405 7.25838 139.907 7.54189 140.337 7.93174C140.505 8.06265 140.644 8.23401 140.743 8.4327C140.841 8.6314 140.897 8.85217 140.906 9.07814Z" fill="#10084D"/>
<path d="M146.576 17.0026H143.81V8.83443C143.8 8.61465 143.832 8.39493 143.902 8.18903C143.973 7.98312 144.082 7.79548 144.222 7.63787C144.37 7.48722 144.544 7.37036 144.734 7.2941C144.924 7.21783 145.125 7.18369 145.327 7.19365C145.575 7.19427 145.823 7.22066 146.066 7.27246C146.238 7.30113 146.409 7.34181 146.576 7.39427V17.0026ZM143.81 12.2092H146.576V21.8676C146.409 21.9201 146.238 21.9608 146.066 21.9894C145.823 22.0412 145.575 22.0676 145.327 22.0682C145.124 22.0792 144.921 22.0442 144.731 21.9653C144.541 21.8864 144.368 21.7653 144.222 21.6097C144.084 21.4538 143.976 21.2685 143.905 21.0652C143.834 20.8619 143.802 20.6449 143.81 20.4275V12.2092ZM145.327 9.68707V7.19365H152.728C152.818 7.34622 152.887 7.51292 152.931 7.68802C152.994 7.92046 153.022 8.16228 153.016 8.40453C153.036 8.7541 152.946 9.1007 152.761 9.38614C152.669 9.50177 152.554 9.59237 152.425 9.65082C152.295 9.70927 152.155 9.73395 152.016 9.7229L145.327 9.68707ZM145.327 15.6842V13.2123H152.075C152.164 13.3659 152.235 13.5322 152.284 13.7067C152.351 13.926 152.384 14.1561 152.382 14.3873C152.392 14.564 152.37 14.7411 152.318 14.9084C152.265 15.0757 152.182 15.2299 152.075 15.3618C151.981 15.4708 151.867 15.5561 151.741 15.6118C151.614 15.6675 151.478 15.6922 151.342 15.6842H145.327ZM145.327 22.0682V19.5963H152.826C152.902 19.7525 152.966 19.9155 153.016 20.0835C153.084 20.3149 153.117 20.5569 153.114 20.8C153.141 21.1437 153.044 21.4853 152.846 21.753C152.753 21.862 152.639 21.9473 152.512 22.003C152.386 22.0587 152.25 22.0834 152.114 22.0754L145.327 22.0682Z" fill="#10084D"/>
<path d="M167.11 18.9013C166.527 20.0351 165.639 20.9436 164.567 21.5022C163.363 22.1026 162.051 22.3965 160.729 22.362C160.241 22.362 159.659 22.3334 158.983 22.276C158.353 22.2267 157.732 22.0894 157.133 21.8676C156.83 21.7996 156.557 21.6207 156.359 21.3604C156.16 21.1001 156.048 20.7737 156.041 20.4346V8.41886C156.033 8.28804 156.049 8.15669 156.09 8.03328C156.13 7.90987 156.194 7.79714 156.277 7.70236C156.454 7.52493 156.663 7.39062 156.891 7.30828C157.476 7.12148 158.076 6.99907 158.683 6.94287C159.336 6.87838 159.938 6.84256 160.507 6.84256C161.854 6.8147 163.192 7.10296 164.429 7.68803C165.514 8.22665 166.425 9.11046 167.045 10.2245C167.722 11.5317 168.051 13.0214 167.993 14.5235C168.05 16.042 167.746 17.5507 167.11 18.9013ZM164.534 11.6073C164.164 10.8825 163.603 10.296 162.926 9.92352C162.206 9.54646 161.416 9.35761 160.618 9.37181C160.291 9.37181 159.964 9.37181 159.689 9.40764C159.415 9.44347 159.121 9.47213 158.853 9.52228V19.6608C159.148 19.7281 159.447 19.7736 159.748 19.7969C160.075 19.7969 160.402 19.8328 160.729 19.8328C161.329 19.8749 161.93 19.7779 162.493 19.5483C163.056 19.3187 163.569 18.9615 163.998 18.5001C164.836 17.3983 165.251 15.9828 165.155 14.5521C165.189 13.5302 164.982 12.5159 164.554 11.6073H164.534Z" fill="#10084D"/>
<path d="M14.957 25.8156H33.1653C33.5121 25.8156 33.8447 25.9666 34.0899 26.2353C34.3351 26.5041 34.4729 26.8686 34.4729 27.2486V30H16.2646C15.9178 30 15.5852 29.849 15.34 29.5803C15.0948 29.3115 14.957 28.9471 14.957 28.567V25.8156Z" fill="#5A36C7"/>
<path d="M0 21.6312H18.2083C18.555 21.6312 18.8876 21.7822 19.1329 22.0509C19.3781 22.3197 19.5158 22.6841 19.5158 23.0642V25.8156H1.30759C0.960798 25.8156 0.628206 25.6646 0.382984 25.3959C0.137763 25.1271 0 24.7626 0 24.3826V21.6312Z" fill="#7040FF"/>
<path d="M14.7773 15.3045H32.9856C33.3324 15.3045 33.665 15.4555 33.9102 15.7242C34.1554 15.993 34.2932 16.3575 34.2932 16.7375V19.4889H16.0849C15.7381 19.4889 15.4055 19.3379 15.1603 19.0692C14.9151 18.8004 14.7773 18.4359 14.7773 18.0559V15.3045Z" fill="#2576BC"/>
<path d="M0 11.1918H18.2083C18.555 11.1918 18.8876 11.3428 19.1329 11.6115C19.3781 11.8802 19.5158 12.2447 19.5158 12.6248V15.3618H1.30759C0.960798 15.3618 0.628206 15.2108 0.382984 14.9421C0.137763 14.6734 0 14.3089 0 13.9288V11.1774V11.1918Z" fill="#51A4E4"/>
<path d="M14.7773 4.19154H32.9856C33.3324 4.19154 33.665 4.34252 33.9102 4.61126C34.1554 4.88 34.2932 5.24449 34.2932 5.62455V8.37592H16.0849C15.7381 8.37592 15.4055 8.22494 15.1603 7.9562C14.9151 7.68746 14.7773 7.32297 14.7773 6.94291V4.19154Z" fill="#65CED6"/>
<path d="M0 0H18.2083C18.555 0 18.8876 0.150976 19.1329 0.419717C19.3781 0.688458 19.5158 1.05295 19.5158 1.43301V4.18438H1.30759C0.960798 4.18438 0.628206 4.0334 0.382984 3.76466C0.137763 3.49592 0 3.13143 0 2.75137V0Z" fill="#8CE2E9"/>
</svg>
