<svg width="418" height="263" viewBox="0 0 418 263" fill="none" xmlns="http://www.w3.org/2000/svg">
<g clip-path="url(#clip0_1770_10805)">
<path d="M352.211 56.0649H416.395C416.395 56.0649 411.581 44.0511 398.745 46.4538C398.745 46.4538 397.942 34.4399 382.698 34.4399C367.455 34.4399 365.85 50.1301 365.85 50.1301C365.85 50.1301 352.211 52.8612 352.211 56.0649Z" fill="white" stroke="#7040FF" stroke-width="2" stroke-linecap="round" stroke-linejoin="round"/>
<path d="M93.6595 43.5866C93.8951 42.7295 93.9362 41.8307 93.7797 40.9558C93.6233 40.0808 93.2732 39.2517 92.7552 38.5289C92.2371 37.8061 91.5641 37.2078 90.7851 36.7776C90.006 36.3473 89.1407 36.096 88.252 36.0419C87.9918 32.8194 86.5211 29.8142 84.1347 27.6287C81.7483 25.4431 78.6227 24.2388 75.3843 24.257C72.1458 24.2753 69.034 25.5148 66.6725 27.727C64.311 29.9393 62.8743 32.9608 62.6505 36.186C61.4832 34.9911 59.9858 34.1703 58.3494 33.8284C56.7129 33.4865 55.0115 33.6388 53.4622 34.2661C51.9128 34.8934 50.5857 35.9671 49.6502 37.3504C48.7146 38.7337 48.2129 40.3637 48.209 42.0328C48.2112 42.4566 48.2461 42.8797 48.3134 43.2982C47.8801 43.2982 47.4469 43.2342 47.0056 43.2342C42.8922 43.2333 38.9448 44.8539 36.0221 47.7434L25.207 51.2594H109.914C109.914 51.2594 101.474 41.5202 93.6595 43.5866Z" fill="white" stroke="#7040FF" stroke-width="2" stroke-linecap="round" stroke-linejoin="round"/>
<path d="M23.2656 237.875H365.849V84.0973L149.797 20.0232L23.2656 84.0973V237.875Z" fill="#51A4E4"/>
<path d="M377.884 87.5012L149.685 19.823L16.0449 87.5012" stroke="#10084D" stroke-width="4" stroke-linecap="round" stroke-linejoin="round"/>
<path d="M259.144 112.931H50.5449V141.764H259.144V112.931Z" fill="white" stroke="#10084D" stroke-width="2" stroke-linecap="round" stroke-linejoin="round"/>
<path d="M332.956 181.81H84.2422V216.25H332.956V181.81Z" fill="white" stroke="#10084D" stroke-width="2" stroke-linecap="round" stroke-linejoin="round"/>
<path d="M389.116 237.875H365.85V175.403L389.116 189.019V237.875Z" stroke="#10084D" stroke-width="2" stroke-linecap="round" stroke-linejoin="round"/>
<path d="M50.5449 127.011H259.144" stroke="#10084D" stroke-width="2" stroke-linecap="round" stroke-linejoin="round"/>
<path d="M84.2422 199.431H332.956" stroke="#10084D" stroke-width="2" stroke-linecap="round" stroke-linejoin="round"/>
<path d="M77.5098 112.931V141.428" stroke="#10084D" stroke-width="2" stroke-linecap="round" stroke-linejoin="round"/>
<path d="M108.799 181.81V216.25" stroke="#10084D" stroke-width="2" stroke-linecap="round" stroke-linejoin="round"/>
<path d="M139.6 181.81V216.25" stroke="#10084D" stroke-width="2" stroke-linecap="round" stroke-linejoin="round"/>
<path d="M160.461 181.81V216.25" stroke="#10084D" stroke-width="2" stroke-linecap="round" stroke-linejoin="round"/>
<path d="M192.553 181.81V216.25" stroke="#10084D" stroke-width="2" stroke-linecap="round" stroke-linejoin="round"/>
<path d="M223.842 181.81V216.25" stroke="#10084D" stroke-width="2" stroke-linecap="round" stroke-linejoin="round"/>
<path d="M233.469 181.81V216.25" stroke="#10084D" stroke-width="2" stroke-linecap="round" stroke-linejoin="round"/>
<path d="M270.375 181.81V216.25" stroke="#10084D" stroke-width="2" stroke-linecap="round" stroke-linejoin="round"/>
<path d="M309.688 181.81V216.25" stroke="#10084D" stroke-width="2" stroke-linecap="round" stroke-linejoin="round"/>
<path d="M112.322 113.267V141.764" stroke="#10084D" stroke-width="2" stroke-linecap="round" stroke-linejoin="round"/>
<path d="M133.984 113.267V141.764" stroke="#10084D" stroke-width="2" stroke-linecap="round" stroke-linejoin="round"/>
<path d="M165.273 113.267V141.764" stroke="#10084D" stroke-width="2" stroke-linecap="round" stroke-linejoin="round"/>
<path d="M60.5 198C63.0196 198 65.4359 199.032 67.2175 200.869C68.9991 202.706 70 205.198 70 207.796V238H51V207.796C51 205.198 52.0009 202.706 53.7825 200.869C55.5641 199.032 57.9804 198 60.5 198Z" fill="white"/>
<path d="M48.9399 241.479C48.9381 239.753 48.522 238.052 47.7264 236.519C46.9307 234.986 45.7786 233.666 44.3667 232.669C44.7346 231.366 44.9235 230.018 44.9284 228.664C44.9262 225.871 44.1326 223.135 42.6391 220.772C41.1456 218.41 39.0132 216.517 36.4881 215.313C36.8421 214.394 36.9793 213.406 36.8889 212.426C36.7986 211.445 36.4831 210.499 35.9671 209.66C35.4511 208.821 34.7483 208.112 33.9134 207.588C33.0785 207.064 32.1338 206.739 31.1528 206.639C30.6567 202.734 28.7002 199.16 25.6755 196.634C22.6509 194.109 18.7816 192.818 14.8436 193.02C10.9055 193.223 7.18977 194.904 4.44127 197.727C1.69277 200.55 0.114691 204.305 0.0234375 208.241V252.292H38.534C41.3336 252.186 43.9828 251 45.9238 248.983C47.8648 246.966 48.946 244.276 48.9399 241.479Z" fill="white"/>
<path d="M146.018 238.067C145.947 236.526 145.292 235.069 144.185 233.993C143.078 232.916 141.602 232.3 140.057 232.269C139.047 232.257 138.05 232.503 137.161 232.982C137.161 232.877 137.161 232.773 137.161 232.669C137.162 232.196 137.069 231.726 136.888 231.289C136.707 230.851 136.441 230.453 136.106 230.118C135.77 229.783 135.372 229.518 134.933 229.337C134.495 229.156 134.025 229.064 133.55 229.065C133.37 229.067 133.19 229.086 133.013 229.121C134.042 227.423 134.365 225.39 133.912 223.457C133.459 221.525 132.267 219.845 130.591 218.778C128.914 217.711 126.886 217.341 124.94 217.747C122.994 218.154 121.284 219.304 120.176 220.952C119.13 219.766 117.703 218.983 116.14 218.736C114.577 218.488 112.977 218.793 111.615 219.598C110.79 217.193 109.221 215.112 107.135 213.653C105.049 212.195 102.554 211.434 100.008 211.482C97.4616 211.529 94.996 212.381 92.9658 213.916C90.9356 215.451 89.4455 217.589 88.7097 220.023C88.0387 222.221 88.0247 224.568 88.6696 226.774C87.7616 226.962 86.9141 227.371 86.203 227.965C85.4918 228.559 84.939 229.319 84.5939 230.178C83.3663 229.342 81.8861 228.957 80.4059 229.089C78.7856 229.264 77.2888 230.036 76.2074 231.253C75.126 232.47 74.5377 234.046 74.5571 235.673V238.996C74.5561 239.691 74.6923 240.379 74.958 241.021C75.2238 241.662 75.6138 242.246 76.1057 242.737C76.5976 243.228 77.1818 243.617 77.8247 243.882C78.4676 244.148 79.1566 244.284 79.8523 244.283H140.402C141.964 244.179 143.425 243.473 144.473 242.312C145.522 241.152 146.076 239.629 146.018 238.067Z" fill="white"/>
<path d="M417.999 222.658C417.682 214.776 414.351 207.316 408.691 201.813C403.031 196.309 395.474 193.18 387.573 193.071C379.673 192.961 372.031 195.878 366.22 201.222C360.409 206.567 356.871 213.931 356.334 221.801C354.124 219.843 351.484 218.432 348.627 217.681C345.77 216.93 342.776 216.86 339.887 217.476C336.998 218.093 334.295 219.379 331.995 221.23C329.695 223.082 327.864 225.448 326.649 228.136C325.371 227.284 323.891 226.782 322.358 226.681C320.824 226.58 319.291 226.883 317.912 227.559C316.394 223.374 313.759 219.683 310.292 216.883C306.825 214.084 302.658 212.284 298.241 211.677C293.824 211.07 289.325 211.679 285.229 213.439C281.134 215.199 277.598 218.042 275.003 221.662C272.409 225.282 270.854 229.541 270.508 233.979C270.161 238.416 271.036 242.864 273.037 246.842C275.038 250.819 278.09 254.175 281.863 256.547C285.636 258.92 289.986 260.217 294.444 260.301H417.999V222.658Z" fill="white"/>
<path d="M48.9401 241.479C48.9384 239.753 48.5223 238.052 47.7266 236.519C46.9309 234.986 45.7789 233.666 44.367 232.669C44.7349 231.366 44.9238 230.018 44.9286 228.664C44.9265 225.871 44.1328 223.135 42.6394 220.772C41.1459 218.41 39.0135 216.517 36.4884 215.313C36.8424 214.394 36.9795 213.406 36.8892 212.426C36.7988 211.445 36.4834 210.499 35.9674 209.66C35.4513 208.821 34.7486 208.112 33.9137 207.588C33.0787 207.064 32.1341 206.739 31.153 206.639C30.6674 202.875 28.8252 199.417 25.9709 196.911C23.1166 194.405 19.4456 193.023 15.6445 193.023" stroke="#7040FF" stroke-width="2" stroke-linecap="round" stroke-linejoin="round"/>
<path d="M146.018 238.067C145.947 236.526 145.292 235.069 144.185 233.993C143.078 232.916 141.602 232.3 140.057 232.269C139.047 232.257 138.05 232.503 137.161 232.982C137.161 232.877 137.161 232.773 137.161 232.669C137.162 232.196 137.069 231.726 136.888 231.289C136.707 230.851 136.441 230.453 136.106 230.118C135.77 229.783 135.372 229.518 134.933 229.337C134.495 229.156 134.025 229.064 133.55 229.065C133.37 229.067 133.19 229.086 133.013 229.121C134.042 227.423 134.365 225.39 133.912 223.457C133.459 221.525 132.267 219.845 130.591 218.778C128.914 217.711 126.886 217.341 124.94 217.747C122.994 218.154 121.284 219.304 120.176 220.952C119.13 219.766 117.703 218.983 116.14 218.736C114.577 218.488 112.977 218.793 111.615 219.598C110.79 217.193 109.221 215.112 107.135 213.653C105.049 212.195 102.554 211.434 100.008 211.482C97.4616 211.529 94.996 212.381 92.9658 213.916C90.9356 215.451 89.4455 217.589 88.7097 220.023C88.0387 222.221 88.0247 224.568 88.6696 226.774C87.7616 226.962 86.9141 227.371 86.203 227.965C85.4918 228.559 84.939 229.319 84.5939 230.178C83.3663 229.342 81.8861 228.957 80.4059 229.089C78.7856 229.264 77.2888 230.036 76.2074 231.253C75.126 232.47 74.5377 234.046 74.5571 235.673V238.996" stroke="#7040FF" stroke-width="2" stroke-linecap="round" stroke-linejoin="round"/>
<path d="M271.884 244.339C270.761 241.32 270.246 238.11 270.37 234.893C270.493 231.675 271.252 228.514 272.604 225.591C273.955 222.667 275.872 220.039 278.244 217.857C280.616 215.676 283.396 213.983 286.426 212.878C289.455 211.773 292.673 211.276 295.895 211.416C299.118 211.556 302.28 212.33 305.202 213.695C308.123 215.059 310.746 216.986 312.919 219.365C315.092 221.745 316.772 224.529 317.864 227.559C319.243 226.883 320.776 226.58 322.31 226.681C323.843 226.782 325.323 227.284 326.601 228.136C327.816 225.448 329.647 223.082 331.947 221.23C334.246 219.379 336.95 218.093 339.839 217.476C342.728 216.86 345.722 216.93 348.579 217.681C351.436 218.432 354.076 219.843 356.286 221.8C356.805 213.994 360.279 206.677 366.004 201.333C371.728 195.989 379.273 193.018 387.111 193.023C387.111 193.023 401.367 192.559 409.286 202.402" stroke="#7040FF" stroke-width="2" stroke-linecap="round" stroke-linejoin="round"/>
<path d="M303.135 197.933C303.012 197.942 302.888 197.923 302.774 197.877L294.807 181.161C295.112 180.704 295.544 180.345 296.05 180.128C296.449 179.925 296.887 179.81 297.334 179.792C297.458 179.783 297.582 179.805 297.695 179.856L305.678 196.571C305.37 197.033 304.932 197.393 304.418 197.604C304.018 197.802 303.581 197.914 303.135 197.933Z" fill="white"/>
<path d="M297.174 180.609L304.731 196.443C304.539 196.624 304.316 196.77 304.073 196.876C303.836 196.995 303.582 197.076 303.319 197.116L295.754 181.282C295.955 181.108 296.179 180.963 296.42 180.849C296.658 180.732 296.912 180.651 297.174 180.609ZM297.358 179.007C296.799 179.028 296.252 179.17 295.754 179.423C294.558 179.984 293.828 180.929 294.109 181.522L302.132 198.293C302.246 198.459 302.404 198.589 302.588 198.669C302.773 198.75 302.976 198.778 303.175 198.75C303.733 198.728 304.28 198.589 304.78 198.341C305.967 197.773 306.705 196.836 306.384 196.243L298.361 179.471C298.247 179.305 298.089 179.174 297.905 179.092C297.721 179.01 297.518 178.981 297.318 179.007H297.358Z" fill="#10084D"/>
<mask id="mask0_1770_10805" style="mask-type:alpha" maskUnits="userSpaceOnUse" x="160" y="1" width="186" height="186">
<path d="M253.127 186.616C304.305 186.616 345.793 145.199 345.793 94.1087C345.793 43.0186 304.305 1.60181 253.127 1.60181C201.949 1.60181 160.461 43.0186 160.461 94.1087C160.461 145.199 201.949 186.616 253.127 186.616Z" fill="white"/>
</mask>
<g mask="url(#mask0_1770_10805)">
<rect x="160.838" width="191.767" height="191.513" fill="white"/>
<path d="M328.143 82.4954H324.934V107.324H328.143V82.4954Z" fill="white" stroke="#10084D" stroke-width="2" stroke-linecap="round" stroke-linejoin="round"/>
<path d="M320.119 77.6899L355.42 150.398H397.943L344.188 77.6899H320.119Z" fill="white" stroke="#10084D" stroke-width="2" stroke-linecap="round" stroke-linejoin="round"/>
<path d="M190.949 77.6899L184.819 82.2072L92.2656 150.398H166.88L227.855 77.6899H190.949Z" fill="white" stroke="#10084D" stroke-width="2" stroke-linecap="round" stroke-linejoin="round"/>
<path d="M207.099 95.8308H171.854C171.854 95.8308 163.67 97.3606 165.275 102.743C166.88 108.125 173.298 104.12 173.298 109.727C173.298 115.333 196.966 114.532 196.966 114.532L209.353 99.3148L207.099 95.8308Z" fill="#7040FF"/>
<path d="M191.887 90.5688V96.9122" stroke="#10084D" stroke-width="2" stroke-linecap="round" stroke-linejoin="round"/>
<path d="M205.791 96.2793V82.4953L194.558 90.4165H181.32V83.056C181.322 82.3868 181.482 81.7274 181.787 81.1316C182.092 80.5359 182.535 80.0207 183.077 79.628L201.378 66.4768H215.819V84.0972L205.791 96.2793Z" fill="white" stroke="#10084D" stroke-width="2" stroke-linecap="round" stroke-linejoin="round"/>
<path d="M211.808 70.4814L194.559 82.4473" stroke="#10084D" stroke-width="2" stroke-linecap="round" stroke-linejoin="round"/>
<path d="M191.357 82.4473H184.818" stroke="#10084D" stroke-width="2" stroke-linecap="round" stroke-linejoin="round"/>
<path d="M194.158 84.8982V87.5012" stroke="#10084D" stroke-width="2" stroke-linecap="round" stroke-linejoin="round"/>
<path d="M233.117 133.546C233.117 133.546 220.769 124.48 220.633 119.001L209.016 123.687C209.016 123.687 211.792 135.917 226.578 140.787L233.117 133.546Z" fill="white" stroke="#10084D" stroke-width="2" stroke-linecap="round" stroke-linejoin="round"/>
<path d="M233.118 133.546L234.987 134.844C235.175 134.969 235.334 135.132 235.454 135.323C235.574 135.513 235.653 135.727 235.685 135.95C235.716 136.173 235.701 136.4 235.639 136.617C235.577 136.833 235.469 137.034 235.324 137.207L228.521 145.616L223.659 146.121C223.484 146.15 223.305 146.121 223.149 146.039C222.992 145.956 222.868 145.823 222.795 145.663C222.721 145.502 222.703 145.321 222.744 145.149C222.784 144.977 222.88 144.823 223.017 144.711L225.424 142.437L226.579 140.787L233.118 133.546Z" fill="white" stroke="#10084D" stroke-width="2" stroke-linecap="round" stroke-linejoin="round"/>
<path d="M253.127 2.40288C274.381 2.40814 294.975 9.76977 311.402 23.2336C327.829 36.6973 339.071 55.4303 343.214 76.2409C347.356 97.0515 344.143 118.652 334.121 137.363C324.099 156.074 307.889 170.737 288.251 178.854C268.614 186.971 246.765 188.04 226.427 181.879C206.089 175.719 188.52 162.709 176.712 145.066C164.905 127.424 159.591 106.241 161.675 85.1253C163.758 64.01 173.111 44.2691 188.14 29.2659C196.653 20.7188 206.781 13.9432 217.936 9.33203C229.092 4.72081 241.053 2.36561 253.127 2.40288ZM253.127 0.801025C234.64 0.801025 216.569 6.27344 201.198 16.5262C185.828 26.779 173.847 41.3517 166.773 58.4015C159.699 75.4513 157.848 94.2124 161.454 112.312C165.061 130.412 173.963 147.038 187.034 160.088C200.106 173.137 216.761 182.024 234.892 185.624C253.023 189.224 271.816 187.376 288.895 180.314C305.974 173.252 320.572 161.292 330.843 145.948C341.113 130.604 346.595 112.563 346.595 94.1089C346.595 69.3621 336.747 45.6289 319.219 28.1303C301.69 10.6317 277.916 0.801025 253.127 0.801025Z" fill="#10084D"/>
<path d="M304.876 124.144H291.237C289.748 124.144 288.319 124.734 287.266 125.786C286.213 126.837 285.621 128.263 285.621 129.75C285.621 131.237 286.213 132.663 287.266 133.714C288.319 134.766 289.748 135.356 291.237 135.356H304.876C306.366 135.356 307.794 134.766 308.848 133.714C309.901 132.663 310.492 131.237 310.492 129.75C310.492 128.263 309.901 126.837 308.848 125.786C307.794 124.734 306.366 124.144 304.876 124.144Z" fill="#2576BC"/>
<path d="M316.309 104.12C315.298 104.12 314.329 104.521 313.614 105.235C312.9 105.948 312.498 106.916 312.498 107.925V113.131C312.498 114.14 312.9 115.107 313.614 115.821C314.329 116.534 315.298 116.935 316.309 116.935C317.32 116.935 318.289 116.534 319.004 115.821C319.718 115.107 320.12 114.14 320.12 113.131V107.925C320.12 106.916 319.718 105.948 319.004 105.235C318.289 104.521 317.32 104.12 316.309 104.12Z" fill="#2576BC"/>
<path d="M243.299 91.3057C242.288 91.3057 241.319 91.7065 240.604 92.4199C239.89 93.1334 239.488 94.1011 239.488 95.1101V100.316C239.488 101.325 239.89 102.293 240.604 103.006C241.319 103.72 242.288 104.12 243.299 104.12C244.31 104.12 245.279 103.72 245.994 103.006C246.709 102.293 247.11 101.325 247.11 100.316V95.1101C247.11 94.1011 246.709 93.1334 245.994 92.4199C245.279 91.7065 244.31 91.3057 243.299 91.3057Z" fill="#2576BC"/>
<path d="M237.482 116.134H223.843C222.353 116.134 220.925 116.725 219.871 117.776C218.818 118.828 218.227 120.254 218.227 121.741C218.227 123.228 218.818 124.654 219.871 125.705C220.925 126.757 222.353 127.347 223.843 127.347H237.482C238.971 127.347 240.4 126.757 241.453 125.705C242.506 124.654 243.098 123.228 243.098 121.741C243.098 120.254 242.506 118.828 241.453 117.776C240.4 116.725 238.971 116.134 237.482 116.134Z" fill="#2576BC"/>
<path d="M305.253 127.347C305.253 127.347 295.248 131.352 285.621 131.352C275.993 131.352 283.751 112.93 283.751 112.93L294.446 108.926L305.253 127.347Z" fill="white" stroke="#10084D" stroke-width="2" stroke-linecap="round" stroke-linejoin="round"/>
<path d="M251.121 77.6899L247.109 150.398H296.852L279.202 77.6899H251.121Z" fill="white" stroke="#10084D" stroke-width="2" stroke-linecap="round" stroke-linejoin="round"/>
<path d="M305.228 80.397C305.228 80.397 307.282 85.6991 306.48 85.6991C305.677 85.6991 299.259 87.5012 299.259 87.5012L297.654 82.2471L305.228 80.397Z" fill="white" stroke="#10084D" stroke-width="2" stroke-linecap="round" stroke-linejoin="round"/>
<path d="M292.937 69.0397C292.937 69.0397 291.236 62.4721 296.853 61.6712C302.469 60.8703 303.921 60.7101 305.999 58.3874C308.077 56.0648 318.964 55.3199 317.713 64.074C316.108 75.2869 320.817 78.2904 305.229 80.3969L292.937 69.0397Z" fill="#10084D"/>
<path d="M203.248 97.1042C203.248 97.1042 191.751 100.917 186.937 100.917C186.937 100.917 178.449 99.3148 176.676 100.917C176.676 100.917 175.705 101.718 180.519 102.519C180.519 102.519 176.507 104.12 177.31 105.722C178.112 107.324 181.578 108.75 185.862 107.236C185.862 107.236 202.983 107.324 208.6 104.12L203.248 97.1042Z" fill="white" stroke="#10084D" stroke-width="2" stroke-linecap="round" stroke-linejoin="round"/>
<path d="M226.2 71.9231L228.856 77.2893L223.039 82.4953L219.012 77.2092L226.2 71.9231Z" stroke="#10084D" stroke-width="2" stroke-linecap="round" stroke-linejoin="round"/>
<path d="M210.38 62.6486C210.38 56.8659 208.599 44.8521 218.226 44.8521C227.854 44.8521 226.249 52.8613 226.249 52.8613C226.249 52.8613 233.47 54.4632 233.47 63.2733C233.47 72.0835 226.201 71.9233 226.201 71.9233L210.38 62.6486Z" fill="#10084D"/>
<path d="M217.826 77.2892C222.922 77.2892 227.053 73.1655 227.053 68.0786C227.053 62.9917 222.922 58.8679 217.826 58.8679C212.73 58.8679 208.6 62.9917 208.6 68.0786C208.6 73.1655 212.73 77.2892 217.826 77.2892Z" fill="white" stroke="#10084D" stroke-width="2" stroke-linecap="round" stroke-linejoin="round"/>
<path d="M299.661 82.4955C304.313 82.4955 308.085 78.7303 308.085 74.0857C308.085 69.4412 304.313 65.676 299.661 65.676C295.008 65.676 291.236 69.4412 291.236 74.0857C291.236 78.7303 295.008 82.4955 299.661 82.4955Z" fill="white" stroke="#10084D" stroke-width="2" stroke-linecap="round" stroke-linejoin="round"/>
<path d="M299.26 75.6875C299.26 76.1123 299.091 76.5197 298.79 76.8202C298.489 77.1206 298.081 77.2893 297.655 77.2893C297.23 77.2893 296.822 77.1206 296.521 76.8202C296.22 76.5197 296.051 76.1123 296.051 75.6875" stroke="#10084D" stroke-width="2" stroke-linecap="round" stroke-linejoin="round"/>
<path d="M216.621 70.8821C216.621 71.3069 216.452 71.7143 216.151 72.0147C215.85 72.3151 215.442 72.4839 215.017 72.4839C214.591 72.4839 214.183 72.3151 213.882 72.0147C213.581 71.7143 213.412 71.3069 213.412 70.8821" stroke="#10084D" stroke-width="2" stroke-linecap="round" stroke-linejoin="round"/>
<path d="M202.982 95.3101C202.982 95.3101 214.439 84.0972 216.333 82.4953C219.983 79.1833 224.727 77.3299 229.659 77.2893C236.679 77.2893 243.098 89.7037 243.098 112.13C243.098 117.736 224.741 121.741 224.741 121.741L214.215 108.125L218.627 106.523C218.627 106.523 216.622 102.518 219.028 100.116L209.401 106.051L202.982 95.3101Z" fill="#5A36C7" stroke="#10084D" stroke-width="2" stroke-linecap="round" stroke-linejoin="round"/>
<path d="M218.227 100.116C222.238 97.7128 223.939 92.7471 223.939 92.7471" stroke="#10084D" stroke-width="2" stroke-linecap="round" stroke-linejoin="round"/>
<path d="M217.826 106.499L221.084 107.973" stroke="#10084D" stroke-width="2" stroke-linecap="round" stroke-linejoin="round"/>
<path d="M306.481 85.699C306.481 85.699 314.504 90.5046 314.504 106.523C314.504 122.542 305.253 127.347 305.253 127.347L292.697 111.617C292.697 111.617 292.842 93.3078 299.26 87.5011C303.272 84.8981 306.481 85.699 306.481 85.699Z" fill="#51A4E4" stroke="#10084D" stroke-width="2" stroke-linecap="round" stroke-linejoin="round"/>
<path d="M252.727 56.0647H273.811L270.377 42.449" stroke="#10084D" stroke-width="2" stroke-linecap="round" stroke-linejoin="round"/>
<path d="M252.902 52.9811L254.154 38.4443" stroke="#10084D" stroke-width="2" stroke-linecap="round" stroke-linejoin="round"/>
<path d="M303.6 51.1791L296.051 40.8071" stroke="#10084D" stroke-width="2" stroke-linecap="round" stroke-linejoin="round"/>
<path d="M306.664 53.582H316.308" stroke="#10084D" stroke-width="2" stroke-linecap="round" stroke-linejoin="round"/>
<path d="M246.307 36.8425L235.075 52.0601H229.988" stroke="#10084D" stroke-width="2" stroke-linecap="round" stroke-linejoin="round"/>
<path d="M237.483 37.6436L227.053 43.6585" stroke="#10084D" stroke-width="2" stroke-linecap="round" stroke-linejoin="round"/>
<path d="M184.698 48.0237L178.111 51.2594" stroke="#10084D" stroke-width="2" stroke-linecap="round" stroke-linejoin="round"/>
<path d="M205.79 37.6436L187.658 46.5659" stroke="#10084D" stroke-width="2" stroke-linecap="round" stroke-linejoin="round"/>
<path d="M285.188 102.35H264.761C264.761 102.35 251.427 101.718 254.082 108.125C256.738 114.532 259.145 113.731 257.54 116.134C255.936 118.537 255.936 125.745 264.761 124.143C273.586 122.542 289.857 121.596 289.857 121.596L285.188 102.35Z" fill="#7040FF"/>
<path d="M213.413 108.125C213.413 108.125 190.948 111.329 198.169 145.769H209.505C209.505 145.769 205.574 123.343 223.947 121.741L213.413 108.125Z" fill="white" stroke="#10084D" stroke-width="2" stroke-linecap="round" stroke-linejoin="round"/>
<path d="M209.505 145.768L210.082 149.372C210.107 149.57 210.09 149.77 210.033 149.961C209.975 150.151 209.878 150.328 209.748 150.479C209.618 150.63 209.458 150.752 209.278 150.837C209.098 150.922 208.902 150.969 208.703 150.974L193.459 151.295C193.33 151.299 193.204 151.263 193.096 151.192C192.989 151.121 192.907 151.019 192.861 150.899C192.815 150.779 192.808 150.647 192.84 150.523C192.873 150.399 192.943 150.288 193.042 150.205L198.168 145.768H209.505Z" fill="white" stroke="#10084D" stroke-width="2" stroke-linecap="round" stroke-linejoin="round"/>
<path d="M280.004 115.069C289.632 115.069 303.271 106.523 306.665 100.116C310.058 93.7082 307.282 90.5045 305.253 90.0399C303.223 89.5754 299.259 91.3054 296.05 97.8169C292.841 104.328 280.004 108.926 280.004 108.926C280.004 108.926 272.783 105.722 268.772 108.926C268.772 108.926 267.97 110.528 269.574 110.528C271.179 110.528 273.586 109.727 274.388 110.528C274.388 110.528 268.371 112.57 268.571 113.547C268.772 114.524 271.179 113.731 271.179 113.731C271.179 113.731 269.574 116.134 272.783 116.134C275.993 116.134 279.202 116.414 280.004 115.069Z" fill="white" stroke="#10084D" stroke-width="2" stroke-linecap="round" stroke-linejoin="round"/>
<path d="M279.369 70.938C279.319 70.8043 279.229 70.689 279.111 70.6075C278.994 70.526 278.854 70.482 278.711 70.4814H267.864C267.679 70.4814 267.501 70.5549 267.37 70.6855C267.24 70.8162 267.166 70.9934 267.166 71.1782V95.4143C267.166 95.5991 267.24 95.7763 267.37 95.907C267.501 96.0377 267.679 96.1111 267.864 96.1111H271.667V99.1145C271.667 99.2994 271.74 99.4766 271.871 99.6073C272.002 99.7379 272.18 99.8113 272.365 99.8113H284.119C284.304 99.8113 284.481 99.7379 284.612 99.6073C284.743 99.4766 284.817 99.2994 284.817 99.1145V85.8272C284.829 85.7448 284.829 85.6612 284.817 85.5789L279.369 70.938Z" fill="white" stroke="#10084D" stroke-width="2" stroke-linecap="round" stroke-linejoin="round"/>
<path d="M275.191 65.676C274.308 65.676 273.586 66.0364 273.586 66.477V72.0834C273.586 72.5239 274.308 72.8844 275.191 72.8844C276.073 72.8844 276.795 72.5239 276.795 72.0834V66.477C276.795 66.0364 276.073 65.676 275.191 65.676Z" fill="#2576BC"/>
<path d="M271.668 96.1111V88.1018" stroke="#10084D" stroke-width="2" stroke-linecap="round" stroke-linejoin="round"/>
<path d="M282.732 85.9233H273.586" stroke="#10084D" stroke-width="2" stroke-linecap="round" stroke-linejoin="round"/>
<path d="M271.668 85.6431L269.574 73.6853" stroke="#10084D" stroke-width="2" stroke-linecap="round" stroke-linejoin="round"/>
<path d="M278.158 99.8113V105.322" stroke="#10084D" stroke-width="2" stroke-linecap="round" stroke-linejoin="round"/>
<path d="M205.39 61.6711C204.507 61.6711 203.785 62.0316 203.785 62.4721V68.0786C203.785 68.5191 204.507 68.8795 205.39 68.8795C206.272 68.8795 206.994 68.5191 206.994 68.0786V62.4721C206.994 62.0316 206.272 61.6711 205.39 61.6711Z" fill="#2576BC"/>
<path d="M255.133 150.574H251.121V175.403H255.133V150.574Z" fill="white" stroke="#10084D" stroke-width="2" stroke-linecap="round" stroke-linejoin="round"/>
<path d="M292.039 150.574H288.027V175.403H292.039V150.574Z" fill="white" stroke="#10084D" stroke-width="2" stroke-linecap="round" stroke-linejoin="round"/>
</g>
<path d="M253.127 2.40288C274.381 2.40814 294.975 9.76977 311.402 23.2336C327.829 36.6973 339.071 55.4303 343.214 76.2409C347.356 97.0515 344.143 118.652 334.121 137.363C324.099 156.074 307.889 170.737 288.252 178.854C268.614 186.971 246.765 188.04 226.427 181.879C206.089 175.719 188.52 162.709 176.712 145.066C164.905 127.424 159.591 106.241 161.675 85.1253C163.758 64.01 173.111 44.2691 188.14 29.2659C196.653 20.7188 206.781 13.9432 217.936 9.33203C229.092 4.72081 241.053 2.36561 253.127 2.40288ZM253.127 0.801025C234.64 0.801025 216.569 6.27344 201.198 16.5262C185.828 26.779 173.847 41.3517 166.773 58.4015C159.699 75.4513 157.848 94.2124 161.454 112.312C165.061 130.412 173.963 147.038 187.034 160.088C200.106 173.137 216.761 182.024 234.892 185.624C253.023 189.224 271.816 187.376 288.895 180.314C305.975 173.252 320.572 161.292 330.843 145.948C341.113 130.604 346.595 112.563 346.595 94.1089C346.595 69.3621 336.747 45.6289 319.219 28.1303C301.69 10.6317 277.916 0.801025 253.127 0.801025Z" fill="#10084D"/>
<path d="M301.473 191.421C297.061 193.52 294.341 197.028 295.392 199.206L325.077 261.278C326.128 263.481 330.549 263.569 334.961 261.47C339.374 259.372 342.094 255.864 341.043 253.685L311.398 191.606C310.307 189.419 305.878 189.339 301.473 191.421Z" fill="#712FC6"/>
<path d="M253.127 186.616C304.305 186.616 345.793 145.199 345.793 94.109C345.793 43.0188 304.305 1.60205 253.127 1.60205C201.949 1.60205 160.461 43.0188 160.461 94.109C160.461 145.199 201.949 186.616 253.127 186.616Z" stroke="#712FC6" stroke-width="5" stroke-linecap="round" stroke-linejoin="round"/>
<path d="M331.264 68.4473C333.294 74.6079 334.582 80.9882 335.099 87.4532" stroke="#2576BC" stroke-width="2" stroke-linecap="round" stroke-linejoin="round"/>
<path d="M253.127 12.0139C268.783 12.0124 284.114 16.4709 297.319 24.8655C310.525 33.2601 321.056 45.2423 327.677 59.4047" stroke="#2576BC" stroke-width="2" stroke-linecap="round" stroke-linejoin="round"/>
</g>
<defs>
<clipPath id="clip0_1770_10805">
<rect width="418" height="263" fill="white"/>
</clipPath>
</defs>
</svg>
