<svg width="391" height="335" viewBox="0 0 391 335" fill="none" xmlns="http://www.w3.org/2000/svg">
<ellipse cx="195.501" cy="168" rx="195.233" ry="168" fill="#E2DBFF"/>
<g clip-path="url(#clip0_2355_14661)">
<path d="M93.3462 39.7615H13.8351C11.5035 39.7615 9.61328 41.6525 9.61328 43.9853V107.61C9.61328 109.943 11.5035 111.834 13.8351 111.834H93.3462C95.6778 111.834 97.568 109.943 97.568 107.61V43.9853C97.568 41.6525 95.6778 39.7615 93.3462 39.7615Z" fill="#7040FF"/>
<path d="M29.7168 33.0571L34.7428 43.1138" stroke="#7040FF" stroke-width="2" stroke-linecap="round" stroke-linejoin="round"/>
<path d="M8.77539 83.3404L15.4767 81.6643" stroke="white" stroke-width="2" stroke-linecap="round" stroke-linejoin="round"/>
<path d="M23.0156 104.309L25.5286 101.007" stroke="white" stroke-width="2" stroke-linecap="round" stroke-linejoin="round"/>
<path d="M88.396 105.197L83.3281 100.101" stroke="white" stroke-width="2" stroke-linecap="round" stroke-linejoin="round"/>
<path d="M77.6058 68.5738C76.9754 63.8969 75.0589 59.4871 72.0701 55.8362C69.0813 52.1852 65.1377 49.4365 60.6789 47.8965C56.2201 46.3566 51.4214 46.0859 46.8179 47.1147C42.2143 48.1435 37.9868 50.4313 34.6068 53.7231C31.2268 57.0148 28.8271 61.1811 27.6752 65.7574C26.5234 70.3337 26.6646 75.1402 28.0832 79.6409C29.5019 84.1416 32.1421 88.1597 35.7095 91.2471C39.277 94.3345 43.6316 96.3698 48.2876 97.1263C48.7731 97.2003 49.2285 97.4081 49.6028 97.7263C49.977 98.0445 50.2554 98.4606 50.4068 98.9281C51.0015 100.864 52.6099 103.831 56.6139 103.294C61.1038 102.683 61.6399 99.3974 61.5729 97.428C61.5537 96.9574 61.677 96.4921 61.9266 96.0928C62.1762 95.6936 62.5405 95.379 62.9717 95.1904C67.9442 92.9138 72.0521 89.0964 74.6876 84.3028C77.3231 79.5093 78.3464 73.9943 77.6058 68.5738Z" fill="white" stroke="#7040FF" stroke-width="2" stroke-linecap="round" stroke-linejoin="round"/>
<path d="M64.0436 104.728L50.9844 108.189" stroke="#10084D" stroke-width="2" stroke-linecap="round" stroke-linejoin="round"/>
<path d="M64.3795 108.063L51.3203 111.516" stroke="#10084D" stroke-width="2" stroke-linecap="round" stroke-linejoin="round"/>
<path d="M64.7135 111.39L51.6543 114.843" stroke="#10084D" stroke-width="2" stroke-linecap="round" stroke-linejoin="round"/>
<path d="M55.7344 117.206L61.531 115.672" stroke="#10084D" stroke-width="2" stroke-linecap="round" stroke-linejoin="round"/>
<path d="M51.6056 95.7352L44.9043 72.6468C44.9043 72.6468 48.1209 80.6334 50.0056 80.382C51.8904 80.1306 51.6224 71.7417 49.8465 72.0015C48.0707 72.2613 51.1365 80.2563 52.8705 80.0216C54.6044 79.787 56.5394 71.1047 54.1102 71.4316C51.681 71.7584 55.3919 79.678 56.129 79.5775C56.8662 79.4769 59.3708 70.7192 59.3708 70.7192L59.5048 94.6708" stroke="#10084D" stroke-width="2" stroke-linecap="round" stroke-linejoin="round"/>
<path d="M107.619 71.6077H326.626C331.858 71.6077 336.876 73.687 340.575 77.3883C344.275 81.0895 346.353 86.1095 346.353 91.3439V180.932C346.353 186.166 344.275 191.186 340.575 194.887C336.876 198.589 331.858 200.668 326.626 200.668H266.566C261.334 200.667 256.317 198.587 252.618 194.886L233.604 175.862C229.905 172.16 224.888 170.08 219.656 170.079H59.6626C54.4307 170.079 49.413 172.158 45.7135 175.86C42.014 179.561 39.9356 184.581 39.9356 189.815V245.445C39.9322 248.042 40.4416 250.615 41.4342 253.014C42.4268 255.414 43.8832 257.594 45.7199 259.429C47.5566 261.264 49.7374 262.719 52.1372 263.709C54.537 264.699 57.1087 265.205 59.7045 265.198H88.3526C102.593 265.198 106.781 253.466 106.781 245.085C106.781 236.704 102.593 224.134 86.6772 224.134C70.7616 224.134 66.5733 239.219 66.5733 245.085C66.5733 254.035 72.4369 270.579 103.38 274.626C106.356 275.004 109.379 274.692 112.215 273.716C115.052 272.739 117.626 271.124 119.74 268.995L134.927 253.801C138.625 250.099 143.642 248.019 148.874 248.018H346.353" stroke="#10084D" stroke-width="2" stroke-linecap="round" stroke-linejoin="round" stroke-dasharray="11 11"/>
<path d="M218.19 89.2067C232.532 89.2067 244.158 77.5752 244.158 63.227C244.158 48.8788 232.532 37.2473 218.19 37.2473C203.849 37.2473 192.223 48.8788 192.223 63.227C192.223 77.5752 203.849 89.2067 218.19 89.2067Z" fill="#7040FF"/>
<path d="M211.49 47.304C211.49 47.304 213.166 52.3323 218.192 53.1703C223.218 54.0084 229.919 54.8464 230.757 63.227C231.594 71.6075 231.594 74.9598 239.971 79.15C248.348 83.3403 247.51 99.2633 247.51 99.2633L215.679 115.186C215.679 115.186 208.977 112.672 208.977 107.644C208.977 102.616 209.815 100.101 204.789 96.7492C199.763 93.397 193.899 95.9111 192.224 86.6925C190.549 77.4739 190.549 79.9881 185.523 74.9598C180.497 69.9314 185.523 53.6648 185.523 53.6648L211.49 47.304Z" fill="white" stroke="#10084D" stroke-width="2" stroke-linecap="round" stroke-linejoin="round"/>
<path d="M231.594 83.3403C231.594 83.3403 229.081 87.5306 211.49 91.7209" stroke="#7040FF" stroke-width="2" stroke-linecap="round" stroke-linejoin="round"/>
<path d="M222.38 61.551C222.38 61.551 222.38 69.0935 219.029 72.4457" stroke="#7040FF" stroke-width="2" stroke-linecap="round" stroke-linejoin="round"/>
<path d="M217.128 66.9983C217.128 66.9983 214.004 73.2837 213.166 74.1218" stroke="#7040FF" stroke-width="2" stroke-linecap="round" stroke-linejoin="round"/>
<path d="M206.12 70.5601C205.626 71.6076 194.736 76.636 194.736 76.636" stroke="#7040FF" stroke-width="2" stroke-linecap="round" stroke-linejoin="round"/>
<path d="M172.957 64.0652C172.957 64.0652 175.47 76.636 170.444 85.0166C170.444 85.0166 157.041 87.5307 153.691 86.6927L151.178 69.9316C151.178 69.9316 168.769 68.2555 172.957 64.0652Z" fill="white" stroke="#10084D" stroke-width="2" stroke-linecap="round" stroke-linejoin="round"/>
<path d="M231.594 45.4854C231.594 45.4854 246.931 47.019 251.405 45.4854C251.405 45.4854 254.211 55.6845 253.373 60.7128L240.247 64.065C239.67 57.0375 236.601 50.4477 231.594 45.4854Z" fill="white" stroke="#10084D" stroke-width="2" stroke-linecap="round" stroke-linejoin="round"/>
<path d="M354.135 149.547H291.662C289.946 149.547 288.555 150.939 288.555 152.656V174.093C288.555 175.81 289.946 177.202 291.662 177.202H354.135C355.852 177.202 357.243 175.81 357.243 174.093V152.656C357.243 150.939 355.852 149.547 354.135 149.547Z" fill="white" stroke="#10084D" stroke-width="2" stroke-linecap="round" stroke-linejoin="round"/>
<path d="M354.135 104.292H334.383C332.667 104.292 331.275 105.684 331.275 107.401V122.134C331.275 123.851 332.667 125.243 334.383 125.243H354.135C355.852 125.243 357.243 123.851 357.243 122.134V107.401C357.243 105.684 355.852 104.292 354.135 104.292Z" fill="white" stroke="#10084D" stroke-width="2" stroke-linecap="round" stroke-linejoin="round"/>
<path d="M354.135 131.109H334.383C332.667 131.109 331.275 132.501 331.275 134.219V139.733C331.275 141.45 332.667 142.842 334.383 142.842H354.135C355.852 142.842 357.243 141.45 357.243 139.733V134.219C357.243 132.501 355.852 131.109 354.135 131.109Z" fill="white" stroke="#10084D" stroke-width="2" stroke-linecap="round" stroke-linejoin="round"/>
<path d="M294.418 157.751H326.249" stroke="#10084D" stroke-width="2" stroke-linecap="round" stroke-linejoin="round"/>
<path d="M335.465 116.863H353.056" stroke="#7040FF" stroke-width="2" stroke-linecap="round" stroke-linejoin="round"/>
<path d="M335.465 120.215H348.03" stroke="#7040FF" stroke-width="2" stroke-linecap="round" stroke-linejoin="round"/>
<path d="M294.418 162.117H326.249" stroke="#10084D" stroke-width="2" stroke-linecap="round" stroke-linejoin="round"/>
<path d="M294.418 166.484H314.522" stroke="#10084D" stroke-width="2" stroke-linecap="round" stroke-linejoin="round"/>
<path d="M350.542 167.984H340.49C339.102 167.984 337.977 169.11 337.977 170.498C337.977 171.887 339.102 173.012 340.49 173.012H350.542C351.929 173.012 353.055 171.887 353.055 170.498C353.055 169.11 351.929 167.984 350.542 167.984Z" fill="#7040FF"/>
<path d="M337.14 112.672C338.528 112.672 339.653 111.546 339.653 110.158C339.653 108.769 338.528 107.644 337.14 107.644C335.752 107.644 334.627 108.769 334.627 110.158C334.627 111.546 335.752 112.672 337.14 112.672Z" fill="#7040FF"/>
<path d="M323.142 105.13H291.663C290.409 105.13 289.393 106.147 289.393 107.401V140.571C289.393 141.826 290.409 142.842 291.663 142.842H323.142C324.396 142.842 325.412 141.826 325.412 140.571V107.401C325.412 106.147 324.396 105.13 323.142 105.13Z" fill="#51A4E4"/>
<path d="M323.145 105.468H323.142H291.662V105.468L291.659 105.468C291.149 105.471 290.66 105.675 290.298 106.037C289.937 106.398 289.733 106.887 289.73 107.398H289.73V107.401L289.73 140.571L289.73 140.574C289.733 141.085 289.937 141.574 290.298 141.936L290.652 141.582L290.298 141.936C290.66 142.297 291.149 142.501 291.659 142.504H291.662L323.142 142.504L323.145 142.504C323.656 142.501 324.145 142.297 324.506 141.936C324.867 141.574 325.071 141.085 325.074 140.574V140.571L325.074 107.401L325.074 107.398C325.071 106.887 324.867 106.398 324.506 106.037L324.156 106.387L324.506 106.037C324.145 105.675 323.656 105.471 323.145 105.468ZM291.662 104.792H323.142C323.833 104.792 324.497 105.067 324.986 105.556C325.475 106.045 325.75 106.709 325.75 107.401V140.571C325.75 141.263 325.475 141.927 324.986 142.416C324.497 142.905 323.833 143.18 323.142 143.18H291.662C290.971 143.18 290.308 142.905 289.819 142.416C289.33 141.927 289.055 141.263 289.055 140.571V107.401C289.055 106.709 289.33 106.045 289.819 105.556C290.308 105.067 290.971 104.792 291.662 104.792Z" fill="#E2DBFF" stroke="#10084D"/>
<path d="M295.256 142.842V138.652C295.257 138.52 295.226 138.389 295.166 138.271C295.106 138.153 295.019 138.051 294.913 137.973C294.768 137.872 294.595 137.817 294.419 137.814C294.33 137.816 294.243 137.83 294.159 137.856L289.393 139.415V124.48C291.671 123.232 301.882 117.617 304.881 115.84C306.355 117.34 311.029 121.472 317.84 121.472C320.443 121.452 323.012 120.881 325.379 119.796V140.655C325.379 141.244 325.145 141.809 324.728 142.225C324.312 142.642 323.748 142.876 323.159 142.876L295.256 142.842Z" fill="white"/>
<path d="M305.093 116.502L304.329 115.768C304.571 115.627 304.781 115.502 304.955 115.398C305.111 115.562 305.331 115.786 305.613 116.049C306.217 116.614 307.104 117.366 308.243 118.118C310.518 119.62 313.817 121.134 317.873 121.134V121.134L317.88 121.134C320.614 121.093 323.301 120.446 325.75 119.244V140.621V140.623C325.751 140.959 325.685 141.292 325.557 141.603C325.429 141.913 325.24 142.196 325.003 142.433C324.765 142.671 324.483 142.859 324.173 142.987C323.862 143.116 323.529 143.181 323.193 143.18H323.192H294.918V138.652V137.962L294.263 138.177L289.055 139.881V124.282L289.423 124.08C289.823 123.859 290.398 123.543 291.093 123.16C292.485 122.394 294.36 121.359 296.296 120.285C299.327 118.605 302.527 116.817 304.247 115.816V116.599C300.745 118.623 292.682 123.063 289.99 124.536L289.73 124.679V124.975V138.258V138.947L290.385 138.733L294.054 137.535L294.054 137.535L294.06 137.533C294.174 137.494 294.294 137.475 294.414 137.476L294.418 137.476C294.665 137.476 294.905 137.554 295.105 137.699L295.106 137.7C295.257 137.809 295.38 137.952 295.464 138.117C295.549 138.283 295.593 138.466 295.594 138.652C295.594 138.652 295.594 138.652 295.594 138.652L295.594 142.004V142.504H296.094H323.192C323.439 142.504 323.684 142.455 323.912 142.361C324.141 142.266 324.348 142.127 324.523 141.953C324.698 141.778 324.836 141.57 324.931 141.342C325.026 141.113 325.074 140.869 325.074 140.621V121.019V120.287L324.392 120.554C322.315 121.365 320.106 121.791 317.876 121.81C313.1 121.709 308.537 119.814 305.093 116.502Z" fill="#E2DBFF" stroke="#10084D"/>
<path d="M301.957 117.483C301.957 117.483 311.825 130.431 326.249 122.746" stroke="#10084D" stroke-width="2" stroke-linecap="round" stroke-linejoin="round"/>
<path d="M94.4304 153.278L93.9914 153.212C89.4172 152.52 85.1482 155.669 84.4564 160.245L82.9746 170.048C82.2828 174.624 85.4301 178.895 90.0044 179.587L90.4434 179.654C95.0177 180.346 99.2867 177.197 99.9784 172.621L101.46 162.818C102.152 158.241 99.0047 153.97 94.4304 153.278Z" stroke="#10084D" stroke-width="2" stroke-linecap="round" stroke-linejoin="round"/>
<path d="M124.238 144.644C113.432 143.018 104.226 144.711 103.656 148.44C103.648 148.56 103.648 148.681 103.656 148.801L97.9602 186.471C97.9205 186.586 97.8924 186.704 97.8765 186.823C97.3153 190.553 105.608 194.902 116.414 196.536C127.22 198.171 136.426 196.469 136.987 192.74C136.999 192.62 136.999 192.499 136.987 192.38L142.675 154.709C142.711 154.594 142.739 154.476 142.758 154.357C143.336 150.628 135.035 146.278 124.238 144.644Z" fill="white" stroke="#10084D" stroke-width="2" stroke-linecap="round" stroke-linejoin="round"/>
<path d="M123.218 151.981C127.859 152.684 131.991 153.691 134.917 154.745C136.383 155.273 137.522 155.805 138.267 156.302C138.641 156.551 138.891 156.776 139.036 156.966C139.18 157.156 139.188 157.266 139.18 157.315C139.173 157.365 139.133 157.467 138.939 157.606C138.744 157.745 138.439 157.885 138.008 158.013C137.15 158.267 135.905 158.438 134.347 158.509C131.241 158.651 126.997 158.39 122.355 157.688C117.714 156.986 113.582 155.979 110.657 154.925C109.19 154.396 108.051 153.865 107.306 153.367C106.933 153.118 106.683 152.894 106.537 152.703C106.393 152.513 106.385 152.404 106.393 152.354C106.401 152.305 106.44 152.202 106.634 152.064C106.829 151.925 107.134 151.784 107.565 151.657C108.423 151.402 109.668 151.231 111.226 151.16C114.332 151.019 118.577 151.279 123.218 151.981Z" fill="#10084D" stroke="#10084D"/>
<path d="M134.885 166.274L132.238 183.806" stroke="#10084D" stroke-width="2" stroke-linecap="round" stroke-linejoin="round"/>
<path d="M131.677 187.536L131.082 191.466" stroke="#10084D" stroke-width="2" stroke-linecap="round" stroke-linejoin="round"/>
<path d="M126.183 114.491C122.045 117.541 120.998 123.5 124.215 127.514C127.146 131.168 124.34 138.199 122.355 139.825" stroke="#7040FF" stroke-width="2" stroke-linecap="round" stroke-linejoin="round"/>
<path d="M130.772 118.664C130.109 119.139 129.549 119.742 129.123 120.437C128.697 121.133 128.415 121.906 128.293 122.713C128.171 123.519 128.212 124.341 128.414 125.132C128.615 125.922 128.972 126.664 129.465 127.313C131.409 129.743 129.549 134.411 128.226 135.492" stroke="#7040FF" stroke-width="2" stroke-linecap="round" stroke-linejoin="round"/>
<path d="M142.849 154.391C143.413 150.661 135.115 146.313 124.315 144.679C113.516 143.045 104.303 144.743 103.74 148.473C103.176 152.203 111.474 156.551 122.274 158.185C133.073 159.819 142.286 158.121 142.849 154.391Z" stroke="#10084D" stroke-width="2" stroke-linecap="round" stroke-linejoin="round"/>
<path d="M170.025 266.036C181.359 266.036 190.547 256.844 190.547 245.504C190.547 234.164 181.359 224.972 170.025 224.972C158.69 224.972 149.502 234.164 149.502 245.504C149.502 256.844 158.69 266.036 170.025 266.036Z" fill="#51A4E4"/>
<path d="M215.259 217.429H158.298C154.366 217.429 151.178 220.618 151.178 224.553C151.178 228.487 154.366 231.676 158.298 231.676H215.259C219.191 231.676 222.379 228.487 222.379 224.553C222.379 220.618 219.191 217.429 215.259 217.429Z" fill="white" stroke="#10084D" stroke-width="2" stroke-linecap="round" stroke-linejoin="round"/>
<path d="M229.499 238.38H172.538C168.606 238.38 165.418 241.57 165.418 245.504C165.418 249.438 168.606 252.627 172.538 252.627H229.499C233.432 252.627 236.619 249.438 236.619 245.504C236.619 241.57 233.432 238.38 229.499 238.38Z" fill="white" stroke="#10084D" stroke-width="2" stroke-linecap="round" stroke-linejoin="round"/>
<path d="M190.967 260.17H144.896C140.963 260.17 137.775 263.359 137.775 267.293C137.775 271.228 140.963 274.417 144.896 274.417H190.967C194.899 274.417 198.087 271.228 198.087 267.293C198.087 263.359 194.899 260.17 190.967 260.17Z" fill="white" stroke="#10084D" stroke-width="2" stroke-linecap="round" stroke-linejoin="round"/>
<path d="M228.242 285.312H211.489C209.176 285.312 207.301 287.188 207.301 289.502C207.301 291.816 209.176 293.692 211.489 293.692H228.242C230.556 293.692 232.431 291.816 232.431 289.502C232.431 287.188 230.556 285.312 228.242 285.312Z" fill="#7040FF"/>
<path d="M159.998 224.552H193.061" stroke="#E2DBFF" stroke-width="2" stroke-linecap="round" stroke-linejoin="round"/>
<path d="M173.4 243.828H219.866" stroke="#E2DBFF" stroke-width="2" stroke-linecap="round" stroke-linejoin="round"/>
<path d="M173.4 248.018H202.275" stroke="#E2DBFF" stroke-width="2" stroke-linecap="round" stroke-linejoin="round"/>
<path d="M368.099 233.352H284.4C282.068 233.352 280.178 235.243 280.178 237.576V288.63C280.178 290.963 282.068 292.854 284.4 292.854H368.099C370.431 292.854 372.321 290.963 372.321 288.63V237.576C372.321 235.243 370.431 233.352 368.099 233.352Z" fill="#7040FF"/>
<path d="M340.323 231.374L332.6 232.212C330.281 234.556 327.231 236.034 323.955 236.402C320.68 236.769 317.378 236.003 314.598 234.232L306.875 235.07L310.469 295.98L350.291 291.513L340.323 231.374Z" fill="white" stroke="#10084D" stroke-width="2" stroke-linecap="round" stroke-linejoin="round"/>
<path d="M340.322 231.374L360.594 239.596L357.511 255.267L344.201 254.831L340.322 231.374Z" fill="white" stroke="#10084D" stroke-width="2" stroke-linecap="round" stroke-linejoin="round"/>
<path d="M306.875 235.129L288.916 247.633L295.391 262.232L308.274 258.863L306.875 235.129Z" fill="white" stroke="#10084D" stroke-width="2" stroke-linecap="round" stroke-linejoin="round"/>
<path d="M337.139 231.735C335.723 233.919 333.841 235.761 331.628 237.13C329.415 238.498 326.926 239.359 324.34 239.649C321.755 239.939 319.137 239.652 316.676 238.808C314.215 237.964 311.971 236.584 310.107 234.768" stroke="#10084D" stroke-width="2" stroke-linecap="round" stroke-linejoin="round"/>
<path d="M336.611 277.492L343.086 282.663L353.649 269.414" stroke="#10084D" stroke-width="4" stroke-linecap="round" stroke-linejoin="round"/>
<path d="M335.547 275.196L342.902 281.063L353.473 267.821" stroke="#51A4E4" stroke-width="4" stroke-linecap="round" stroke-linejoin="round"/>
<path d="M88.3539 43.9517L82.4902 49.818" stroke="white" stroke-width="2" stroke-linecap="round" stroke-linejoin="round"/>
</g>
<defs>
<clipPath id="clip0_2355_14661">
<rect width="364.384" height="264.658" fill="white" transform="translate(7.9375 32.219)"/>
</clipPath>
</defs>
</svg>
