<svg width="426" height="345" viewBox="0 0 426 345" fill="none" xmlns="http://www.w3.org/2000/svg">
<g clip-path="url(#clip0_1770_11345)">
<path d="M425.047 218.865C404.782 203.792 393.42 195.341 373.155 180.267C371.344 178.91 369.091 178.278 366.838 178.495C364.585 178.712 362.494 179.762 360.975 181.44L353.57 189.483" stroke="#5D34D0" stroke-width="2" stroke-linecap="round" stroke-linejoin="round"/>
<path d="M403.652 258.273H259.651C256.782 258.273 254.457 260.599 254.457 263.468V339.806C254.457 342.674 256.782 345 259.651 345H403.652C406.521 345 408.846 342.674 408.846 339.806V263.468C408.846 260.599 406.521 258.273 403.652 258.273Z" fill="white"/>
<path d="M281.617 323.08C296.389 323.08 298.295 321.174 308.778 313.55C319.261 305.925 324.98 305.525 326.886 315.732C328.792 325.939 341.181 333.097 356.429 319.03C371.678 304.963 378.349 295.442 385.973 304.972C393.597 314.503 397.409 318.563 408.845 312.244V258.273H326.886L281.617 323.08Z" fill="#5D34D0" stroke="black" stroke-width="2" stroke-linecap="round" stroke-linejoin="round"/>
<path d="M311.867 259.465L271.85 299.492L291.387 319.03L351.789 258.636L311.867 259.465Z" fill="#5D34D0" stroke="black" stroke-width="2" stroke-linecap="round" stroke-linejoin="round"/>
<path d="M403.652 260.18C404.524 260.182 405.358 260.529 405.974 261.145C406.59 261.761 406.938 262.596 406.94 263.468V339.806C406.938 340.677 406.59 341.512 405.974 342.128C405.358 342.744 404.524 343.091 403.652 343.094H259.651C258.78 343.091 257.945 342.744 257.329 342.128C256.713 341.512 256.366 340.677 256.363 339.806V263.468C256.366 262.596 256.713 261.761 257.329 261.145C257.945 260.529 258.78 260.182 259.651 260.18H403.652V260.18ZM403.652 258.273H259.651C258.969 258.273 258.294 258.408 257.663 258.669C257.033 258.93 256.461 259.312 255.978 259.795C255.496 260.277 255.113 260.85 254.852 261.48C254.591 262.11 254.457 262.785 254.457 263.468V339.806C254.457 341.184 255.004 342.505 255.978 343.479C256.952 344.453 258.273 345 259.651 345H403.652C405.03 345 406.351 344.453 407.325 343.479C408.299 342.505 408.846 341.184 408.846 339.806V263.468C408.846 262.785 408.712 262.11 408.451 261.48C408.19 260.85 407.807 260.277 407.325 259.795C406.843 259.312 406.27 258.93 405.64 258.669C405.01 258.408 404.334 258.273 403.652 258.273Z" fill="black"/>
<path d="M281.618 323.08C289.25 323.08 295.436 316.893 295.436 309.261C295.436 301.629 289.25 295.442 281.618 295.442C273.986 295.442 267.799 301.629 267.799 309.261C267.799 316.893 273.986 323.08 281.618 323.08Z" fill="#5D34D0" stroke="black" stroke-width="2" stroke-linecap="round" stroke-linejoin="round"/>
<path d="M323.16 301.637L342.697 282.099" stroke="black" stroke-width="2" stroke-linecap="round" stroke-linejoin="round"/>
<path d="M346.033 278.764L355.478 269.319" stroke="black" stroke-width="2" stroke-linecap="round" stroke-linejoin="round"/>
<path d="M383.115 290.677L409.59 264.201" stroke="black" stroke-width="2" stroke-linecap="round" stroke-linejoin="round"/>
<path d="M376.443 297.348L380.151 293.641" stroke="black" stroke-width="2" stroke-linecap="round" stroke-linejoin="round"/>
<path d="M328.793 303.066C328.793 303.066 332.3 304.019 332.929 309.261" stroke="black" stroke-width="2" stroke-linecap="round" stroke-linejoin="round"/>
<path d="M332.605 300.207C333.408 300.485 334.108 300.997 334.618 301.676C335.127 302.355 335.422 303.171 335.465 304.019" stroke="black" stroke-width="2" stroke-linecap="round" stroke-linejoin="round"/>
<path d="M345.947 285.912C346.214 286.004 346.447 286.174 346.617 286.4C346.787 286.626 346.886 286.897 346.9 287.179" stroke="black" stroke-width="2" stroke-linecap="round" stroke-linejoin="round"/>
<path d="M392.455 301.637C392.455 301.637 396.2 308.784 402.052 309.261" stroke="black" stroke-width="2" stroke-linecap="round" stroke-linejoin="round"/>
<path d="M277.986 300.636C279.114 300.137 280.33 299.87 281.562 299.848C282.795 299.827 284.019 300.053 285.163 300.512" stroke="black" stroke-width="2" stroke-linecap="round" stroke-linejoin="round"/>
<path d="M274.252 314.617C272.884 312.852 272.179 310.663 272.26 308.432" stroke="black" stroke-width="2" stroke-linecap="round" stroke-linejoin="round"/>
<path d="M282.923 318.439C281.237 318.601 279.537 318.315 277.996 317.61" stroke="black" stroke-width="2" stroke-linecap="round" stroke-linejoin="round"/>
<path d="M290.94 310.548C290.776 311.776 290.375 312.961 289.758 314.036" stroke="black" stroke-width="2" stroke-linecap="round" stroke-linejoin="round"/>
<path d="M288.289 302.59C289.637 303.96 290.534 305.709 290.862 307.603" stroke="black" stroke-width="2" stroke-linecap="round" stroke-linejoin="round"/>
<path d="M284 306.878C284.619 307.516 284.962 308.372 284.953 309.261" stroke="black" stroke-width="2" stroke-linecap="round" stroke-linejoin="round"/>
<path d="M278.283 308.889C278.361 308.129 278.697 307.419 279.236 306.878" stroke="black" stroke-width="2" stroke-linecap="round" stroke-linejoin="round"/>
<path d="M284.001 311.644C283.369 312.274 282.512 312.629 281.619 312.629C280.726 312.629 279.869 312.274 279.236 311.644" stroke="black" stroke-width="2" stroke-linecap="round" stroke-linejoin="round"/>
<path d="M138.712 16.2017H39.5026C36.634 16.2017 34.3086 18.5271 34.3086 21.3957V101.546C34.3086 104.415 36.634 106.74 39.5026 106.74H138.712C141.58 106.74 143.906 104.415 143.906 101.546V21.3957C143.906 18.5271 141.58 16.2017 138.712 16.2017Z" fill="white"/>
<path d="M142.277 54.0998L130.531 39.0382C130.292 38.72 129.996 38.4631 129.665 38.2844C129.333 38.1056 128.972 38.0091 128.605 38.001C128.238 37.993 127.874 38.0735 127.537 38.2375C127.199 38.4015 126.896 38.6452 126.646 38.9527L106.831 62.6426C106.298 63.2788 106 64.1268 106.001 65.0087V103.684C105.979 104.537 106.253 105.365 106.763 105.987C107.274 106.609 107.979 106.973 108.724 107H140.268C140.637 106.988 141.001 106.893 141.339 106.719C141.676 106.546 141.98 106.298 142.234 105.99C142.487 105.682 142.685 105.32 142.817 104.924C142.948 104.529 143.01 104.107 142.999 103.684V56.3899C143.01 55.5512 142.753 54.7368 142.277 54.0998Z" fill="#5D34D0" stroke="black" stroke-width="2" stroke-linecap="round" stroke-linejoin="round"/>
<path d="M142.953 87.6796C142.152 86.8791 114.257 64.3969 105.518 57.3635C104.754 56.7445 103.821 56.3691 102.84 56.2858C101.86 56.2026 100.877 56.4153 100.019 56.8965L92.2523 61.2137C91.3376 61.7203 90.286 61.924 89.2484 61.7956C88.2107 61.6672 87.2405 61.2132 86.4769 60.499L71.8576 46.861C70.9663 46.0332 69.8017 45.5622 68.5856 45.5376C67.3694 45.513 66.1867 45.9366 65.2627 46.7276L36.0336 71.8497C35.4929 72.3146 35.0587 72.8907 34.761 73.5388C34.4633 74.1868 34.309 74.8915 34.3086 75.6047V102.375C34.3086 103.025 34.4365 103.668 34.6851 104.268C34.9336 104.868 35.298 105.414 35.7573 105.873C36.2166 106.332 36.7618 106.697 37.3619 106.945C37.962 107.194 38.6052 107.322 39.2547 107.322H138.188C139.469 107.323 140.7 106.826 141.623 105.938C142.545 105.049 143.087 103.837 143.134 102.557C143.372 96.9622 143.591 88.3182 142.953 87.6796Z" fill="#5D34D0" stroke="black" stroke-width="2" stroke-linecap="round" stroke-linejoin="round"/>
<path d="M138.712 18.1077C139.583 18.1103 140.418 18.4574 141.034 19.0735C141.65 19.6896 141.997 20.5245 142 21.3957V101.546C141.997 102.418 141.65 103.252 141.034 103.868C140.418 104.485 139.583 104.832 138.712 104.834H39.5025C38.6313 104.832 37.7965 104.485 37.1805 103.868C36.5644 103.252 36.2171 102.418 36.2146 101.546V21.3957C36.2171 20.5245 36.5644 19.6896 37.1805 19.0735C37.7965 18.4574 38.6313 18.1103 39.5025 18.1077H138.712ZM138.712 16.2017H39.5025C38.125 16.2017 36.804 16.7489 35.8299 17.723C34.8559 18.697 34.3086 20.0182 34.3086 21.3957V101.546C34.3086 102.924 34.8559 104.245 35.8299 105.219C36.804 106.193 38.125 106.74 39.5025 106.74H138.712C140.09 106.74 141.411 106.193 142.385 105.219C143.359 104.245 143.906 102.924 143.906 101.546V21.3957C143.906 20.0182 143.359 18.697 142.385 17.723C141.411 16.7489 140.09 16.2017 138.712 16.2017V16.2017Z" fill="black"/>
<path d="M40.6173 69.8577C41.2844 71.6971 44.1816 70.1437 45.1918 69.5909C49.3565 67.2941 52.816 63.8727 56.5708 61.0135C57.6715 59.9668 59.0461 59.253 60.5354 58.955C61.1499 58.9099 61.766 59.0167 62.3295 59.266C62.8929 59.5153 63.3863 59.8995 63.7662 60.3845C64.662 61.3375 65.777 62.2906 67.1589 61.7092C68.1977 61.2708 68.8363 60.2225 69.8655 59.8032C71.3523 59.1456 72.7245 59.8032 73.9348 60.5847C74.5747 61.058 75.2994 61.4041 76.0696 61.6044C76.6085 61.7154 77.1603 61.7507 77.7089 61.7092C79.5482 61.5472 80.6442 60.1176 81.1779 58.4689C81.4196 57.6958 81.5854 56.901 81.6734 56.0958L71.8573 46.9371C70.966 46.1094 69.8014 45.6384 68.5853 45.6138C67.3692 45.5892 66.1864 46.0127 65.2624 46.8037L41.0843 67.5895C40.6467 68.259 40.4798 69.0698 40.6173 69.8577V69.8577Z" fill="white" stroke="black" stroke-width="2" stroke-linecap="round" stroke-linejoin="round"/>
<path d="M58.4381 68.6188C58.3426 68.6414 58.2424 68.6333 58.1517 68.5957C58.061 68.558 57.9846 68.4928 57.9331 68.4092C57.5539 68.7069 57.1912 69.0251 56.8466 69.3622C56.0453 70.1462 55.309 70.994 54.6451 71.8973C54.0573 72.6693 53.5616 73.5073 53.168 74.3942C52.827 75.0402 52.7129 75.7819 52.8439 76.5005C53.6158 78.9212 56.3987 75.9096 57.0849 74.947C57.0086 75.0423 57.1516 74.8326 57.1802 74.785C57.2088 74.7373 57.3135 74.5562 57.3707 74.4419C57.5327 74.1464 57.6758 73.8415 57.8092 73.546C58.1471 72.7976 58.4337 72.027 58.6669 71.2397C58.9225 70.5475 59.0484 69.8141 59.0385 69.0763C59.0004 68.6188 58.9051 68.4949 58.4381 68.6188Z" fill="#BD5F85" stroke="black" stroke-width="2" stroke-linecap="round" stroke-linejoin="round"/>
<path d="M95.6357 70.1628C95.5291 70.0976 95.4524 69.9931 95.4221 69.8719C95.3918 69.7507 95.4104 69.6224 95.4738 69.5147C95.4944 69.474 95.5236 69.4382 95.5595 69.4099C95.2618 69.2214 94.9416 69.0709 94.6065 68.962L94.3969 68.9048H94.273H93.9203H93.806C93.7583 68.9048 93.6153 68.9906 93.7392 68.9048L93.6058 68.9715L93.52 69.0573C93.5182 69.0827 93.5182 69.1081 93.52 69.1335L93.4438 69.2669V69.3527C93.4161 69.4499 93.3937 69.5485 93.3771 69.6482C93.3726 69.667 93.3726 69.6866 93.3771 69.7054C93.3771 69.7625 93.3771 69.8293 93.3771 69.8864C93.3771 69.9436 93.3771 70.1247 93.3771 70.2391C93.3717 70.277 93.3717 70.3155 93.3771 70.3534C93.3724 70.4105 93.3724 70.4679 93.3771 70.525C93.4726 71.0387 93.6565 71.5321 93.9203 71.9831C94.165 72.462 94.5121 72.881 94.9371 73.2104C95.3621 73.5399 95.8544 73.7717 96.3791 73.8892C96.5514 73.9293 96.7268 73.9547 96.9033 73.9654H97.1416C97.1416 73.9654 97.3797 73.9654 97.3035 73.9654L97.5131 73.9178H97.5894L97.7324 73.832L97.7895 73.7748V73.7176C97.8185 73.6753 97.844 73.6307 97.8657 73.5842C97.8732 73.5659 97.8732 73.5454 97.8657 73.5271C97.8689 73.4667 97.8689 73.4063 97.8657 73.346V73.2506C97.8705 73.1936 97.8705 73.1362 97.8657 73.0791C97.8657 73.0791 97.8657 72.9647 97.8657 72.9552V72.7741C97.7148 72.1989 97.4359 71.6653 97.0498 71.2131C96.6636 70.7609 96.1802 70.4019 95.6357 70.1628Z" fill="#BD5F85" stroke="black" stroke-width="2" stroke-linecap="round" stroke-linejoin="round"/>
<path d="M59.5633 71.6018C59.1375 73.245 58.3891 74.7871 57.3617 76.1383C56.6208 77.1545 55.5865 77.9195 54.3978 78.3303C53.8768 78.4442 53.3319 78.3534 52.8759 78.0767C52.42 77.7999 52.088 77.3584 51.9486 76.8435C51.7272 75.9544 51.8286 75.0155 52.2346 74.1941C52.6766 73.1403 53.2566 72.1501 53.9595 71.2492C54.6586 70.3249 55.4162 69.4463 56.2277 68.6188C58.1337 66.7127 59.8015 68.0946 59.9254 68.7141C60.0357 69.6918 59.9116 70.6817 59.5633 71.6018V71.6018ZM97.97 74.7755C97.2221 75.0659 96.3925 75.0659 95.6446 74.7755C95.0032 74.5476 94.4171 74.1871 93.9244 73.7174C93.4318 73.2478 93.0437 72.6795 92.7855 72.0497C92.3376 71.0967 91.9754 69.6481 92.6235 68.6569C93.4526 67.3798 95.1109 67.9993 96.1593 68.6569C96.4737 68.8475 98.8658 71.6876 98.8658 73.2506C98.8744 73.5632 98.795 73.8719 98.6366 74.1415C98.4782 74.4112 98.2473 74.6308 97.97 74.7755V74.7755Z" fill="white" stroke="black" stroke-width="2" stroke-linecap="round" stroke-linejoin="round"/>
<path d="M91.7288 63.1008C92.3815 63.4105 93.1271 63.4615 93.8159 63.2438C94.4246 62.9301 95.0631 62.6779 95.7219 62.4909C96.3266 62.4556 96.9304 62.5753 97.4758 62.8389C98.0212 63.1024 98.4902 63.501 98.8383 63.9967C99.6579 64.9497 100.497 65.9028 101.402 66.77C102.432 67.8252 103.61 68.7242 104.9 69.4385C105.373 69.7689 105.93 69.9586 106.507 69.9856C107.084 70.0126 107.657 69.8758 108.159 69.591C108.566 69.2421 109.011 68.9385 109.484 68.6856C110.047 68.4069 110.642 68.1988 111.256 68.0661C112.495 67.7993 113.906 67.4276 114.458 66.1601C114.651 65.6888 114.694 65.1699 114.582 64.6733L105.548 57.3921C104.783 56.7731 103.85 56.3978 102.87 56.3145C101.89 56.2313 100.907 56.444 100.049 56.9251L93.0154 60.8326C92.577 61.1757 90.7472 62.6243 91.7288 63.1008Z" fill="white" stroke="black" stroke-width="2" stroke-linecap="round" stroke-linejoin="round"/>
<path d="M71.4764 69.5718C72.529 69.5718 73.3824 68.5051 73.3824 67.1892C73.3824 65.8734 72.529 64.8066 71.4764 64.8066C70.4237 64.8066 69.5703 65.8734 69.5703 67.1892C69.5703 68.5051 70.4237 69.5718 71.4764 69.5718Z" fill="white" stroke="black" stroke-width="2" stroke-linecap="round" stroke-linejoin="round"/>
<path d="M113.13 56.6484C113.334 57.035 113.815 57.0157 114.141 56.9867C115.481 56.7254 116.729 56.0105 117.735 54.9279C118.876 53.8259 119.894 52.5597 121.043 51.4674C121.858 50.6941 123.089 49.4568 124.238 49.6985C124.707 49.8729 125.183 50.0181 125.664 50.1335C126.316 50.1477 126.953 49.9027 127.473 49.4375C128.386 48.7512 129.625 47.9683 130.733 48.4709C131.127 48.6673 131.495 48.9311 131.825 49.2539C132.326 49.7165 132.873 50.1029 133.455 50.4041C134.27 50.7908 135.395 51.1194 136.136 50.4041C136.694 49.7002 137.003 48.7698 137 47.804C137 47.6106 137 47.427 137 47.2433L130.839 39.0561C130.604 38.7324 130.314 38.4711 129.989 38.2893C129.663 38.1075 129.308 38.0093 128.948 38.001C128.588 37.9928 128.231 38.0748 127.9 38.2416C127.568 38.4085 127.27 38.6564 127.025 38.9691L113 56.3681C113.028 56.4707 113.072 56.5659 113.13 56.6484V56.6484Z" fill="white" stroke="black" stroke-width="2" stroke-linecap="round" stroke-linejoin="round"/>
<path d="M369.343 8.57739H236.778C234.436 8.57739 232.537 10.4762 232.537 12.8184V97.7342C232.537 100.076 234.436 101.975 236.778 101.975H369.343C371.685 101.975 373.584 100.076 373.584 97.7342V12.8184C373.584 10.4762 371.685 8.57739 369.343 8.57739Z" fill="white"/>
<path d="M369.343 9.53034C370.214 9.53286 371.049 9.88005 371.665 10.4961C372.281 11.1122 372.628 11.9471 372.631 12.8183V97.7341C372.628 98.6053 372.281 99.4402 371.665 100.056C371.049 100.672 370.214 101.02 369.343 101.022H236.778C235.907 101.02 235.072 100.672 234.456 100.056C233.84 99.4402 233.493 98.6053 233.49 97.7341V12.8183C233.493 11.9471 233.84 11.1122 234.456 10.4961C235.072 9.88005 235.907 9.53286 236.778 9.53034H369.343ZM369.343 7.62427H236.778C235.4 7.62427 234.079 8.17148 233.105 9.14556C232.131 10.1196 231.584 11.4408 231.584 12.8183V97.7341C231.584 99.1116 232.131 100.433 233.105 101.407C234.079 102.381 235.4 102.928 236.778 102.928H369.343C370.721 102.928 372.042 102.381 373.016 101.407C373.99 100.433 374.537 99.1116 374.537 97.7341V12.8183C374.537 11.4408 373.99 10.1196 373.016 9.14556C372.042 8.17148 370.721 7.62427 369.343 7.62427V7.62427Z" fill="black"/>
<path d="M336.893 29.0676C310.208 29.0676 312.114 42.4102 265.416 42.4102C261.878 42.4102 258.484 43.8159 255.982 46.3181C253.48 48.8203 252.074 52.214 252.074 55.7527C252.074 59.2914 253.48 62.6851 255.982 65.1873C258.484 67.6895 261.878 69.0952 265.416 69.0952C295.913 69.0952 298.772 73.8604 312.114 73.8604C325.457 73.8604 355 70.0483 355 47.1754C355 42.3729 353.093 37.7671 349.697 34.3712C346.301 30.9754 341.695 29.0676 336.893 29.0676Z" fill="#51A4E4" stroke="black" stroke-width="2" stroke-linecap="round" stroke-linejoin="round"/>
<path d="M276.07 46.2224V65.0259" stroke="white" stroke-width="2" stroke-linecap="round" stroke-linejoin="round"/>
<path d="M268.447 48.1284V63.1197" stroke="white" stroke-width="2" stroke-linecap="round" stroke-linejoin="round"/>
<path d="M260.822 49.0815V62.1668" stroke="white" stroke-width="2" stroke-linecap="round" stroke-linejoin="round"/>
<path d="M286.383 66.2363C299.725 66.2363 294.96 44.3164 311.161 38.5981" stroke="white" stroke-width="2" stroke-linecap="round" stroke-linejoin="round"/>
<path d="M322.596 34.7859L300.963 67.1892" stroke="white" stroke-width="2" stroke-linecap="round" stroke-linejoin="round"/>
<path d="M333.081 33.3564L309.256 69.0477" stroke="white" stroke-width="2" stroke-linecap="round" stroke-linejoin="round"/>
<path d="M341.658 34.7859L318.785 69.0476" stroke="white" stroke-width="2" stroke-linecap="round" stroke-linejoin="round"/>
<path d="M347.367 40.5042L329.555 67.1892" stroke="white" stroke-width="2" stroke-linecap="round" stroke-linejoin="round"/>
<path d="M350.54 50.0344L342.611 61.9093" stroke="white" stroke-width="2" stroke-linecap="round" stroke-linejoin="round"/>
<path d="M315.078 38.5981L349.959 44.3164" stroke="white" stroke-width="2" stroke-linecap="round" stroke-linejoin="round"/>
<path d="M310.209 45.5837L343.193 50.9875" stroke="white" stroke-width="2" stroke-linecap="round" stroke-linejoin="round"/>
<path d="M304.49 52.4268L348.053 59.565" stroke="white" stroke-width="2" stroke-linecap="round" stroke-linejoin="round"/>
<path d="M302.584 59.8889L333.081 64.8924" stroke="white" stroke-width="2" stroke-linecap="round" stroke-linejoin="round"/>
<path d="M138.713 214.434H29.0201C26.1516 214.434 23.8262 216.759 23.8262 219.628V301.684C23.8262 304.553 26.1516 306.878 29.0201 306.878H138.713C141.581 306.878 143.907 304.553 143.907 301.684V219.628C143.907 216.759 141.581 214.434 138.713 214.434Z" fill="white"/>
<path d="M24 227L143 288.212V305H24V227Z" fill="#5D34D0"/>
<path d="M109.598 271.616C112.904 284.005 101.973 299.635 83.866 299.635C65.7586 299.635 59.0874 274.475 50.5103 270.663C41.9331 266.851 25.7317 258.273 33.3559 247.79C40.9801 237.307 57.1814 244.149 57.1814 244.149L109.598 271.616Z" fill="#51A4E4"/>
<path d="M138.713 216.34C139.584 216.342 140.419 216.689 141.035 217.305C141.651 217.922 141.998 218.756 142.001 219.628V301.684C141.998 302.556 141.651 303.39 141.035 304.006C140.419 304.623 139.584 304.97 138.713 304.972H29.0201C28.1488 304.97 27.3141 304.623 26.698 304.006C26.082 303.39 25.7347 302.556 25.7322 301.684V219.628C25.7347 218.756 26.082 217.922 26.698 217.305C27.3141 216.689 28.1488 216.342 29.0201 216.34H138.713V216.34ZM138.713 214.434H29.0201C27.6426 214.434 26.3215 214.981 25.3475 215.955C24.3734 216.929 23.8262 218.25 23.8262 219.628V301.684C23.8262 303.062 24.3734 304.383 25.3475 305.357C26.3215 306.331 27.6426 306.878 29.0201 306.878H138.713C140.09 306.878 141.411 306.331 142.385 305.357C143.359 304.383 143.907 303.062 143.907 301.684V219.628C143.907 218.25 143.359 216.929 142.385 215.955C141.411 214.981 140.09 214.434 138.713 214.434V214.434Z" fill="black"/>
<path d="M80.0535 267.918C78.8215 267.897 77.6228 267.515 76.6063 266.818C75.5897 266.122 74.8001 265.142 74.3354 264.001C72.8296 260.38 72.3055 252.565 73.1346 246.179C73.1346 246.093 73.1917 246.084 73.2203 246.084C76.2319 248.61 83.2557 254.9 85.1522 259.427C85.4895 260.227 85.6633 261.088 85.6633 261.957C85.6633 262.826 85.4895 263.686 85.1522 264.487C84.8558 265.19 84.4188 265.825 83.8682 266.352C83.3175 266.88 82.6648 267.29 81.95 267.556C81.3392 267.777 80.6936 267.887 80.044 267.88L80.0535 267.918Z" fill="white"/>
<path d="M73.8599 247.904C79.2159 252.612 83.0566 257.006 84.2193 259.827C84.5073 260.51 84.6558 261.244 84.6558 261.986C84.6558 262.727 84.5073 263.461 84.2193 264.144C83.9668 264.726 83.6008 265.252 83.1426 265.69C82.6844 266.129 82.1431 266.472 81.5508 266.698C81.0561 266.879 80.5333 266.969 80.0069 266.965C78.9633 266.944 77.9489 266.618 77.0886 266.027C76.2283 265.436 75.5598 264.606 75.1656 263.639C73.8409 260.437 73.3167 253.785 73.8599 247.904V247.904ZM73.1738 245.131C72.9142 245.133 72.6645 245.231 72.474 245.408C72.2835 245.584 72.1659 245.825 72.1444 246.084C71.3344 252.307 71.7538 260.38 73.4025 264.392C73.9414 265.707 74.8544 266.835 76.0284 267.637C77.2024 268.438 78.5857 268.877 80.0069 268.9C80.7612 268.902 81.5099 268.769 82.2179 268.509C83.0974 268.161 83.8972 267.638 84.5691 266.972C85.241 266.306 85.7709 265.511 86.1272 264.635C86.4834 263.758 86.6585 262.819 86.6418 261.873C86.6251 260.927 86.417 259.994 86.03 259.131C84.0668 254.366 76.9859 248.028 73.9172 245.417C73.7235 245.251 73.4766 245.16 73.2214 245.16L73.1738 245.131Z" fill="black"/>
<path d="M43.7436 249.067C42.8187 249.046 41.9197 248.757 41.1564 248.234C40.3932 247.711 39.7987 246.977 39.4455 246.122C38.3019 243.349 37.8825 237.383 38.4925 232.456C40.7702 234.447 46.1166 239.251 47.5366 242.729C47.793 243.332 47.9251 243.98 47.9251 244.635C47.9251 245.29 47.793 245.939 47.5366 246.542C47.3136 247.066 46.9867 247.54 46.5756 247.935C46.1645 248.329 45.6776 248.637 45.1445 248.838C44.6945 248.996 44.2204 249.073 43.7436 249.067Z" fill="white"/>
<path d="M39.2656 234.438C43.0776 237.878 45.8224 241.042 46.6705 243.091C46.8737 243.576 46.9784 244.096 46.9784 244.621C46.9784 245.146 46.8737 245.666 46.6705 246.151C46.4918 246.562 46.2304 246.933 45.9025 247.24C45.5746 247.546 45.1873 247.782 44.7645 247.933C44.4223 248.056 44.0609 248.118 43.6971 248.114C42.962 248.093 42.2487 247.859 41.6433 247.441C41.038 247.024 40.5664 246.44 40.2854 245.76C39.3323 243.454 38.913 238.774 39.218 234.438H39.2656ZM38.3412 231.407C38.1404 231.406 37.9464 231.48 37.7967 231.613C37.647 231.747 37.5524 231.932 37.5311 232.132C36.8926 237.011 37.2262 243.358 38.4841 246.494C38.9103 247.521 39.6268 248.402 40.546 249.028C41.4651 249.655 42.547 249.999 43.6591 250.02C44.2477 250.022 44.8319 249.919 45.384 249.715C46.071 249.44 46.6952 249.028 47.2188 248.506C47.7425 247.983 48.1547 247.359 48.4308 246.672C48.7069 245.986 48.8411 245.25 48.8252 244.51C48.8093 243.77 48.6437 243.041 48.3383 242.367C46.804 238.65 41.2479 233.656 38.8081 231.617C38.6575 231.485 38.4651 231.411 38.265 231.407H38.3412Z" fill="black"/>
<path d="M99.3814 255.357C98.4172 255.337 97.4798 255.036 96.6842 254.491C95.8885 253.945 95.2692 253.18 94.9021 252.288C93.7109 249.429 93.2915 243.196 93.9491 238.088C96.3221 240.137 101.869 245.131 103.365 248.752C103.627 249.379 103.762 250.051 103.762 250.73C103.762 251.409 103.627 252.081 103.365 252.707C103.042 253.491 102.494 254.161 101.79 254.633C101.086 255.105 100.258 255.357 99.41 255.357H99.3814Z" fill="white"/>
<path d="M94.6923 240.051C98.714 243.644 101.573 246.97 102.459 249.115C102.676 249.622 102.788 250.169 102.788 250.721C102.788 251.273 102.676 251.819 102.459 252.327C102.286 252.756 102.028 253.147 101.701 253.474C101.373 253.802 100.983 254.06 100.553 254.233C100.194 254.367 99.8126 254.435 99.4287 254.433C98.6534 254.415 97.9002 254.171 97.2618 253.731C96.6233 253.291 96.1277 252.673 95.836 251.955C94.8829 249.534 94.4064 244.607 94.74 240.08L94.6923 240.051ZM93.8822 237.078C93.674 237.079 93.4738 237.158 93.3205 237.299C93.1673 237.44 93.072 237.633 93.0531 237.84C92.3955 242.882 92.729 249.439 94.0728 252.679C94.5103 253.746 95.2508 254.661 96.2026 255.311C97.1545 255.962 98.2761 256.319 99.4287 256.339C100.038 256.339 100.641 256.23 101.211 256.015C101.92 255.725 102.564 255.296 103.104 254.752C103.645 254.208 104.07 253.562 104.355 252.851C104.641 252.139 104.78 251.378 104.766 250.612C104.751 249.846 104.583 249.09 104.27 248.39C102.679 244.578 96.9318 239.394 94.4445 237.278C94.2907 237.138 94.0904 237.06 93.8822 237.059V237.078Z" fill="black"/>
<path d="M56.9812 230.931C55.8642 230.91 54.778 230.562 53.8566 229.93C52.9353 229.298 52.2191 228.41 51.7967 227.376C50.4243 224.06 49.9478 216.893 50.7102 211.06C53.4168 213.338 59.8593 219.104 61.5842 223.278C61.8909 224.002 62.049 224.779 62.049 225.565C62.049 226.351 61.8909 227.129 61.5842 227.853C61.3205 228.485 60.9311 229.056 60.4396 229.533C59.9481 230.01 59.3648 230.382 58.7252 230.626C58.1824 230.828 57.6079 230.931 57.0288 230.931H56.9812Z" fill="white"/>
<path d="M51.463 212.957C56.2281 217.179 59.6589 221.115 60.7073 223.64C60.962 224.243 61.0934 224.891 61.0934 225.546C61.0934 226.201 60.962 226.849 60.7073 227.452C60.4895 227.969 60.1683 228.436 59.7635 228.825C59.3588 229.213 58.8789 229.515 58.3533 229.711C57.918 229.876 57.4562 229.96 56.9906 229.959C56.0634 229.937 55.1629 229.644 54.3994 229.118C53.636 228.591 53.0427 227.854 52.6924 226.995C51.5107 224.136 51.0246 218.227 51.4725 212.938L51.463 212.957ZM50.7196 210.078C50.484 210.077 50.2562 210.163 50.0802 210.319C49.9042 210.476 49.7925 210.692 49.7666 210.927C49.0232 216.645 49.4045 224.069 50.9198 227.729C51.4138 228.937 52.2513 229.974 53.3287 230.711C54.4061 231.447 55.6759 231.852 56.981 231.874C57.6705 231.872 58.3542 231.75 59.0014 231.512C59.8011 231.188 60.5273 230.706 61.1369 230.095C61.7465 229.485 62.227 228.757 62.5498 227.957C62.8726 227.157 63.031 226.3 63.0157 225.437C63.0004 224.574 62.8118 223.723 62.4609 222.935C60.6597 218.589 54.1601 212.747 51.3486 210.355C51.169 210.205 50.9438 210.121 50.7101 210.116L50.7196 210.078Z" fill="black"/>
<path d="M420.806 151.533C421.677 151.536 422.512 151.883 423.128 152.499C423.744 153.115 424.091 153.95 424.094 154.821V234.972C424.091 235.843 423.744 236.678 423.128 237.294C422.512 237.91 421.677 238.257 420.806 238.26H357.811C356.94 238.257 356.105 237.91 355.489 237.294C354.873 236.678 354.526 235.843 354.523 234.972V154.821C354.526 153.95 354.873 153.115 355.489 152.499C356.105 151.883 356.94 151.536 357.811 151.533H420.806ZM420.806 149.627H357.811C356.434 149.627 355.113 150.174 354.139 151.148C353.164 152.122 352.617 153.443 352.617 154.821V234.972C352.617 236.349 353.164 237.67 354.139 238.644C355.113 239.618 356.434 240.166 357.811 240.166H420.806C422.183 240.166 423.504 239.618 424.478 238.644C425.452 237.67 426 236.349 426 234.972V154.821C426 153.443 425.452 152.122 424.478 151.148C423.504 150.174 422.183 149.627 420.806 149.627V149.627Z" fill="black"/>
<path d="M334.081 85.7734H90.9654C88.0969 85.7734 85.7715 88.0989 85.7715 90.9675V242.596C85.7715 245.465 88.0969 247.79 90.9654 247.79H334.081C336.949 247.79 339.275 245.465 339.275 242.596V90.9675C339.275 88.0989 336.949 85.7734 334.081 85.7734Z" fill="white"/>
<path d="M334.081 87.6795C334.952 87.682 335.787 88.0292 336.403 88.6453C337.019 89.2614 337.366 90.0963 337.369 90.9675V242.596C337.366 243.467 337.019 244.302 336.403 244.918C335.787 245.534 334.952 245.881 334.081 245.884H90.9654C90.0942 245.881 89.2594 245.534 88.6433 244.918C88.0273 244.302 87.68 243.467 87.6775 242.596V90.9675C87.68 90.0963 88.0273 89.2614 88.6433 88.6453C89.2594 88.0292 90.0942 87.682 90.9654 87.6795H334.081ZM334.081 85.7734H90.9654C89.5879 85.7734 88.2669 86.3207 87.2928 87.2947C86.3187 88.2688 85.7715 89.59 85.7715 90.9675V242.596C85.7715 243.973 86.3187 245.295 87.2928 246.269C88.2669 247.243 89.5879 247.79 90.9654 247.79H334.081C335.458 247.79 336.779 247.243 337.754 246.269C338.728 245.295 339.275 243.973 339.275 242.596V90.9675C339.275 89.59 338.728 88.2688 337.754 87.2947C336.779 86.3207 335.458 85.7734 334.081 85.7734V85.7734Z" fill="black"/>
<path d="M231.193 101.546C231.92 99.1404 232.514 96.6971 232.976 94.2268" stroke="black" stroke-width="2" stroke-linecap="round" stroke-linejoin="round"/>
<path d="M222.443 120.264C224.862 116.541 226.947 112.612 228.676 108.522" stroke="black" stroke-width="2" stroke-linecap="round" stroke-linejoin="round"/>
<path d="M213.895 131.205C214.6 130.442 215.286 129.67 215.963 128.889" stroke="black" stroke-width="2" stroke-linecap="round" stroke-linejoin="round"/>
<path d="M148.355 154.774C158.665 156.342 169.191 155.677 179.221 152.822C189.251 149.968 198.551 144.991 206.49 138.229" stroke="white" stroke-width="2" stroke-linecap="round" stroke-linejoin="round"/>
<path d="M137.721 152.734C138.75 152.991 139.779 153.22 140.818 153.43" stroke="black" stroke-width="2" stroke-linecap="round" stroke-linejoin="round"/>
<path d="M115.516 142.498C120.449 145.948 125.808 148.744 131.46 150.818" stroke="black" stroke-width="2" stroke-linecap="round" stroke-linejoin="round"/>
<path d="M95.168 121.731C98.7298 126.961 102.887 131.758 107.557 136.027" stroke="black" stroke-width="2" stroke-linecap="round" stroke-linejoin="round"/>
<path d="M177.614 108.484C176.692 106.661 175.695 104.879 174.621 103.138" stroke="black" stroke-width="2" stroke-linecap="round" stroke-linejoin="round"/>
<path d="M186.048 140.249C185.831 134.594 184.922 128.986 183.342 123.552" stroke="black" stroke-width="2" stroke-linecap="round" stroke-linejoin="round"/>
<path d="M185.666 151C184.322 162.102 180.667 172.799 174.936 182.402" stroke="black" stroke-width="2" stroke-linecap="round" stroke-linejoin="round"/>
<path d="M143.211 211.946C154.575 206.225 164.35 197.785 171.668 187.377" stroke="black" stroke-width="2" stroke-linecap="round" stroke-linejoin="round"/>
<path d="M119.736 218.637C121.185 218.475 122.595 218.274 124.063 218.027" stroke="black" stroke-width="2" stroke-linecap="round" stroke-linejoin="round"/>
<path d="M96.2539 217.826C98.8398 218.278 101.438 218.611 104.05 218.827" stroke="black" stroke-width="2" stroke-linecap="round" stroke-linejoin="round"/>
<path d="M219.309 159.539C219.309 159.539 209.417 148.674 189.527 149.627" stroke="white" stroke-width="2" stroke-linecap="round" stroke-linejoin="round"/>
<path d="M228.725 184.889L237.855 175.921" stroke="white" stroke-width="2" stroke-linecap="round" stroke-linejoin="round"/>
<path d="M222.053 178.218L231.183 169.25" stroke="white" stroke-width="2" stroke-linecap="round" stroke-linejoin="round"/>
<path d="M216.336 171.547L225.466 162.579" stroke="white" stroke-width="2" stroke-linecap="round" stroke-linejoin="round"/>
<path d="M208.664 167.735L220.701 155.907" stroke="white" stroke-width="2" stroke-linecap="round" stroke-linejoin="round"/>
<path d="M147.242 174.854C147.242 174.854 168.685 179.171 177.262 187.749C185.84 196.326 179.721 204.227 233.29 218.865C245.127 222.392 279.683 224.241 286.126 218.865" stroke="white" stroke-width="2" stroke-linecap="round" stroke-linejoin="round"/>
<path d="M283.046 203.95C283.046 203.95 267.245 208.992 264.662 218.865" stroke="black" stroke-width="2" stroke-linecap="round" stroke-linejoin="round"/>
<path d="M145.392 180.41L137.234 191.561" stroke="black" stroke-width="2" stroke-linecap="round" stroke-linejoin="round"/>
<path d="M152.483 141.107L145.393 150.809" stroke="black" stroke-width="2" stroke-linecap="round" stroke-linejoin="round"/>
<path d="M155.342 144.919L148.252 154.621" stroke="black" stroke-width="2" stroke-linecap="round" stroke-linejoin="round"/>
<path d="M159.153 148.826L154.922 154.621" stroke="black" stroke-width="2" stroke-linecap="round" stroke-linejoin="round"/>
<path d="M162.966 152.391L160.641 155.574" stroke="black" stroke-width="2" stroke-linecap="round" stroke-linejoin="round"/>
<path d="M147.718 186.243L141.047 195.373" stroke="black" stroke-width="2" stroke-linecap="round" stroke-linejoin="round"/>
<path d="M149.996 191.561L145.812 197.279" stroke="black" stroke-width="2" stroke-linecap="round" stroke-linejoin="round"/>
<path d="M152.482 196.574L150.576 199.185" stroke="black" stroke-width="2" stroke-linecap="round" stroke-linejoin="round"/>
<path d="M168.683 201.339L166.777 203.95" stroke="black" stroke-width="2" stroke-linecap="round" stroke-linejoin="round"/>
<path d="M173.449 204.551L172.496 205.856" stroke="black" stroke-width="2" stroke-linecap="round" stroke-linejoin="round"/>
<path d="M282.094 237.307C301.042 237.307 316.403 221.946 316.403 202.997C316.403 184.049 301.042 168.688 282.094 168.688C263.146 168.688 247.785 184.049 247.785 202.997C247.785 221.946 263.146 237.307 282.094 237.307Z" stroke="black" stroke-width="2" stroke-linecap="round" stroke-linejoin="round"/>
<path d="M143.047 173.981C125.893 193.041 140.188 198.76 147.812 201.619C155.437 204.478 243.114 228.304 272.658 228.304C294.997 228.304 293.91 212.512 292.042 204.802C291.772 203.654 291.143 202.623 290.247 201.857C289.351 201.09 288.234 200.63 287.058 200.542C239.693 197.302 210.712 133 210.712 133C191.651 133 189.745 146.343 189.745 146.343H184.027C184.027 146.343 165.92 146.343 157.343 134.906C157.343 134.906 147.812 137.765 146.859 150.155V154.92C148.537 160.133 148.197 165.785 145.906 170.759L143.047 173.981Z" fill="#5D34D0"/>
<path d="M189.745 146.343C189.745 146.343 191.651 133 210.712 133C210.712 133 239.693 197.302 287.058 200.542C288.234 200.63 289.351 201.09 290.247 201.857C291.143 202.623 291.772 203.654 292.042 204.802C293.948 212.512 294.997 228.304 272.658 228.304C243.114 228.304 155.437 204.478 147.812 201.619C140.188 198.76 125.893 193.041 143.047 173.981" stroke="#10084D" stroke-width="2" stroke-linecap="round" stroke-linejoin="round"/>
<path d="M184.027 146.342C184.027 146.342 165.92 146.342 157.343 134.905C157.343 134.905 147.812 137.764 146.859 150.154" stroke="#10084D" stroke-width="2" stroke-linecap="round" stroke-linejoin="round"/>
<path d="M230.725 184.463L239.855 175.495" stroke="#10084D" stroke-width="2" stroke-linecap="round" stroke-linejoin="round"/>
<path d="M224.055 177.792L233.185 168.824" stroke="#10084D" stroke-width="2" stroke-linecap="round" stroke-linejoin="round"/>
<path d="M218.336 171.121L227.466 162.153" stroke="#10084D" stroke-width="2" stroke-linecap="round" stroke-linejoin="round"/>
<path d="M210.664 167.309L222.701 155.481" stroke="#10084D" stroke-width="2" stroke-linecap="round" stroke-linejoin="round"/>
<path d="M154.483 140.681L147.393 150.383" stroke="#10084D" stroke-width="2" stroke-linecap="round" stroke-linejoin="round"/>
<path d="M157.342 144.493L150.252 154.195" stroke="#10084D" stroke-width="2" stroke-linecap="round" stroke-linejoin="round"/>
<path d="M161.153 148.4L156.922 154.195" stroke="#10084D" stroke-width="2" stroke-linecap="round" stroke-linejoin="round"/>
<path d="M164.966 151.965L162.641 155.148" stroke="#10084D" stroke-width="2" stroke-linecap="round" stroke-linejoin="round"/>
<path d="M251.349 220.87L181.849 193.87C180.349 191.37 179.799 190.765 178.849 189.37C172.111 179.481 158.322 178.264 147.849 174.37C128.993 178.353 132.35 198.87 144.849 200.37L149.349 201.87L166.349 206.87L245.849 226.87C284.35 231.87 288.35 225.37 292.349 216.87C292.349 216.87 260.753 224.366 251.349 220.87Z" fill="#FEFCD3" stroke="#10084D" stroke-width="2" stroke-linecap="round" stroke-linejoin="round"/>
<path d="M147.392 179.984L139.234 191.135" stroke="#10084D" stroke-width="2" stroke-linecap="round" stroke-linejoin="round"/>
<path d="M151.996 191.135L147.812 196.853" stroke="#10084D" stroke-width="2" stroke-linecap="round" stroke-linejoin="round"/>
<path d="M154.484 196.147L152.578 198.759" stroke="#10084D" stroke-width="2" stroke-linecap="round" stroke-linejoin="round"/>
<path d="M149.718 185.817L143.047 194.947" stroke="#10084D" stroke-width="2" stroke-linecap="round" stroke-linejoin="round"/>
<path d="M170.685 200.913L168.779 203.524" stroke="#10084D" stroke-width="2" stroke-linecap="round" stroke-linejoin="round"/>
<path d="M175.449 204.125L174.496 205.431" stroke="#10084D" stroke-width="2" stroke-linecap="round" stroke-linejoin="round"/>
<path d="M174.501 183.574L183.001 169.074L187.501 150.574C181.016 152.652 169.161 158.235 165.001 158.574C160.243 158.965 150.471 157.958 147.001 155.574C149.054 165.416 144.501 174.574 144.501 174.574C151.774 176.008 164.501 179.074 174.501 183.574Z" fill="#51A4E4" stroke="#10084D" stroke-width="2" stroke-linecap="round" stroke-linejoin="round"/>
<path d="M188.413 149.898C187.948 150.076 187.466 150.224 187 150.371L209 151.574C216 151.074 215 151.249 220 150.074C215 143.574 212.5 137.074 211 133.074C191 132.074 188.413 149.898 188.413 149.898Z" fill="#5D34D0" stroke="#10084D" stroke-width="2" stroke-linecap="round" stroke-linejoin="round"/>
<path d="M369.771 220.152C379.302 220.152 375.49 197.279 393.597 197.279C411.704 197.279 420.701 162.779 411.438 159.539C402.174 156.298 392.644 193.467 395.503 198.232C398.362 202.997 398.477 154.754 380.312 159.339C362.147 163.923 392.644 194.42 398.362 198.232C404.08 202.044 405.033 212.528 400.268 217.293C395.503 222.058 397.409 227.776 401.221 229.682" stroke="#5D34D0" stroke-width="2" stroke-linecap="round" stroke-linejoin="round"/>
</g>
<defs>
<clipPath id="clip0_1770_11345">
<rect width="426" height="345" fill="white"/>
</clipPath>
</defs>
</svg>
