<svg width="365" height="314" viewBox="0 0 365 314" fill="none" xmlns="http://www.w3.org/2000/svg">
<ellipse cx="149.5" cy="91" rx="101.5" ry="74" fill="#7040FF" fill-opacity="0.34"/>
<g clip-path="url(#clip0_1790_10884)">
<path d="M356.306 0.835205H8.69555C4.35481 0.835205 0.835938 4.35351 0.835938 8.69356V233.488C0.835938 237.828 4.35481 241.346 8.69555 241.346H356.306C360.647 241.346 364.165 237.828 364.165 233.488V8.69356C364.165 4.35351 360.647 0.835205 356.306 0.835205Z" stroke="#10084D" stroke-width="2" stroke-linecap="round" stroke-linejoin="round"/>
<path d="M352.471 305.649H14.1992L86.8651 262.223H277.3L352.471 305.649Z" stroke="#10084D" stroke-width="2" stroke-linecap="round" stroke-linejoin="round"/>
<path d="M352.471 305.649H14.1992V313.165H352.471V305.649Z" stroke="#10084D" stroke-width="2" stroke-linecap="round" stroke-linejoin="round"/>
<path d="M350.675 20.8777H297.47C295.556 20.8777 294.004 22.4293 294.004 24.3434V98.4173C294.004 100.331 295.556 101.883 297.47 101.883H350.675C352.589 101.883 354.141 100.331 354.141 98.4173V24.3434C354.141 22.4293 352.589 20.8777 350.675 20.8777Z" stroke="#10084D" stroke-width="2" stroke-linecap="round" stroke-linejoin="round"/>
<path d="M350.675 118.585H297.47C295.556 118.585 294.004 120.137 294.004 122.051V206.981C294.004 208.895 295.556 210.447 297.47 210.447H350.675C352.589 210.447 354.141 208.895 354.141 206.981V122.051C354.141 120.137 352.589 118.585 350.675 118.585Z" fill="#5D34D0"/>
<path d="M345.664 42.5903H302.482C300.568 42.5903 299.016 44.142 299.016 46.056V70.8587C299.016 72.7727 300.568 74.3244 302.482 74.3244H345.664C347.578 74.3244 349.13 72.7727 349.13 70.8587V46.056C349.13 44.142 347.578 42.5903 345.664 42.5903Z" fill="#5D34D0"/>
<path d="M345.664 82.6755H302.482C300.568 82.6755 299.016 84.2272 299.016 86.1412V90.9013C299.016 92.8154 300.568 94.367 302.482 94.367H345.664C347.578 94.367 349.13 92.8154 349.13 90.9013V86.1412C349.13 84.2272 347.578 82.6755 345.664 82.6755Z" stroke="#2576BC" stroke-width="2" stroke-linecap="round" stroke-linejoin="round"/>
<path d="M25.0566 241.22V180.508C25.0566 179.589 25.4218 178.708 26.0719 178.058C26.7219 177.408 27.6036 177.042 28.5229 177.042H184.462C185.382 177.042 186.263 177.408 186.913 178.058C187.563 178.708 187.928 179.589 187.928 180.508V241.22" stroke="#10084D" stroke-width="2" stroke-linecap="round" stroke-linejoin="round"/>
<path d="M34.2441 241.221V208.067C34.2441 207.148 34.6093 206.266 35.2594 205.616C35.9094 204.966 36.7911 204.601 37.7104 204.601H175.274C176.194 204.601 177.075 204.966 177.725 205.616C178.376 206.266 178.741 207.148 178.741 208.067V241.221" stroke="#10084D" stroke-width="2" stroke-linecap="round" stroke-linejoin="round"/>
<path d="M304.028 35.9096C305.874 35.9096 307.369 34.4141 307.369 32.5692C307.369 30.7243 305.874 29.2288 304.028 29.2288C302.183 29.2288 300.688 30.7243 300.688 32.5692C300.688 34.4141 302.183 35.9096 304.028 35.9096Z" fill="#5D34D0"/>
<path d="M304.028 131.112C305.874 131.112 307.369 129.616 307.369 127.771C307.369 125.926 305.874 124.431 304.028 124.431C302.183 124.431 300.688 125.926 300.688 127.771C300.688 129.616 302.183 131.112 304.028 131.112Z" fill="#51A4E4"/>
<path d="M300.688 141.968H347.653" stroke="#10084D" stroke-width="2" stroke-linecap="round" stroke-linejoin="round"/>
<path d="M311.545 32.5691H338.273" stroke="#10084D" stroke-width="2" stroke-linecap="round" stroke-linejoin="round"/>
<path d="M35.0792 192.074C36.9244 192.074 38.4202 190.579 38.4202 188.734C38.4202 186.889 36.9244 185.394 35.0792 185.394C33.2341 185.394 31.7383 186.889 31.7383 188.734C31.7383 190.579 33.2341 192.074 35.0792 192.074Z" fill="#7040FF"/>
<path d="M177.071 192.074C178.917 192.074 180.412 190.579 180.412 188.734C180.412 186.889 178.917 185.394 177.071 185.394C175.226 185.394 173.73 186.889 173.73 188.734C173.73 190.579 175.226 192.074 177.071 192.074Z" fill="#2576BC"/>
<path d="M42.5977 188.734H69.3253" stroke="#10084D" stroke-width="2" stroke-linecap="round" stroke-linejoin="round"/>
<path d="M42.5977 211.491H123.616" stroke="#10084D" stroke-width="2" stroke-linecap="round" stroke-linejoin="round"/>
<path d="M42.5977 224.852H82.6892" stroke="#10084D" stroke-width="2" stroke-linecap="round" stroke-linejoin="round"/>
<path d="M34.2441 218.798H178.741" stroke="#10084D" stroke-width="2" stroke-linecap="round" stroke-linejoin="round"/>
<path d="M34.2441 231.324H178.741" stroke="#10084D" stroke-width="2" stroke-linecap="round" stroke-linejoin="round"/>
<path d="M300.688 147.814H347.653" stroke="#10084D" stroke-width="2" stroke-linecap="round" stroke-linejoin="round"/>
<path d="M300.688 153.66H347.653" stroke="#10084D" stroke-width="2" stroke-linecap="round" stroke-linejoin="round"/>
<path d="M300.688 159.505H347.653" stroke="#10084D" stroke-width="2" stroke-linecap="round" stroke-linejoin="round"/>
<path d="M300.688 165.351H347.653" stroke="#10084D" stroke-width="2" stroke-linecap="round" stroke-linejoin="round"/>
<path d="M300.688 171.197H333.262" stroke="#10084D" stroke-width="2" stroke-linecap="round" stroke-linejoin="round"/>
<path d="M344.12 197.085H327.415C325.57 197.085 324.074 198.581 324.074 200.426C324.074 202.27 325.57 203.766 327.415 203.766H344.12C345.965 203.766 347.461 202.27 347.461 200.426C347.461 198.581 345.965 197.085 344.12 197.085Z" fill="#51A4E4"/>
<path d="M169.137 209.403H154.938C153.784 209.403 152.85 210.338 152.85 211.491C152.85 212.644 153.784 213.578 154.938 213.578H169.137C170.29 213.578 171.225 212.644 171.225 211.491C171.225 210.338 170.29 209.403 169.137 209.403Z" fill="#5A36C7"/>
<path d="M169.971 222.765H155.772C154.618 222.765 153.684 223.699 153.684 224.852C153.684 226.005 154.618 226.94 155.772 226.94H169.971C171.124 226.94 172.059 226.005 172.059 224.852C172.059 223.699 171.124 222.765 169.971 222.765Z" fill="#5A36C7"/>
<path d="M217.07 57.0295C218.735 57.0295 220.085 55.6797 220.085 54.0147C220.085 52.3497 218.735 51 217.07 51C215.405 51 214.055 52.3497 214.055 54.0147C214.055 55.6797 215.405 57.0295 217.07 57.0295Z" stroke="#10084D" stroke-width="2" stroke-linecap="round" stroke-linejoin="round"/>
<path d="M136.519 34.5065C138.184 34.5065 139.534 33.1568 139.534 31.4918C139.534 29.8268 138.184 28.4771 136.519 28.4771C134.854 28.4771 133.504 29.8268 133.504 31.4918C133.504 33.1568 134.854 34.5065 136.519 34.5065Z" stroke="#10084D" stroke-width="2" stroke-linecap="round" stroke-linejoin="round"/>
<path d="M41.4371 79.026C43.1024 79.026 44.4523 77.6763 44.4523 76.0113C44.4523 74.3463 43.1024 72.9966 41.4371 72.9966C39.7718 72.9966 38.4219 74.3463 38.4219 76.0113C38.4219 77.6763 39.7718 79.026 41.4371 79.026Z" stroke="#10084D" stroke-width="2" stroke-linecap="round" stroke-linejoin="round"/>
<path d="M236.89 157.493C238.555 157.493 239.905 156.143 239.905 154.478C239.905 152.813 238.555 151.463 236.89 151.463C235.225 151.463 233.875 152.813 233.875 154.478C233.875 156.143 235.225 157.493 236.89 157.493Z" stroke="#10084D" stroke-width="2" stroke-linecap="round" stroke-linejoin="round"/>
<path d="M324.074 298.968H42.5977L91.9019 268.904H270.376L324.074 298.968Z" stroke="#10084D" stroke-width="2" stroke-linecap="round" stroke-linejoin="round"/>
<path d="M79.5742 276.42H283.799" stroke="#10084D" stroke-width="2" stroke-linecap="round" stroke-linejoin="round"/>
<path d="M67.2539 283.936H297.229" stroke="#10084D" stroke-width="2" stroke-linecap="round" stroke-linejoin="round"/>
<path d="M53.5547 292.287H312.137" stroke="#10084D" stroke-width="2" stroke-linecap="round" stroke-linejoin="round"/>
<path d="M235.538 298.968H131.133L134.891 292.287H230.802L235.538 298.968Z" stroke="#10084D" stroke-width="2" stroke-linecap="round" stroke-linejoin="round"/>
<path d="M235.537 298.968L214.238 268.904" stroke="#10084D" stroke-width="2" stroke-linecap="round" stroke-linejoin="round"/>
<path d="M246.513 298.968L221.197 268.904" stroke="#10084D" stroke-width="2" stroke-linecap="round" stroke-linejoin="round"/>
<path d="M257.496 298.968L228.162 268.904" stroke="#10084D" stroke-width="2" stroke-linecap="round" stroke-linejoin="round"/>
<path d="M268.472 298.968L235.121 268.904" stroke="#10084D" stroke-width="2" stroke-linecap="round" stroke-linejoin="round"/>
<path d="M279.446 298.968L242.086 268.904" stroke="#10084D" stroke-width="2" stroke-linecap="round" stroke-linejoin="round"/>
<path d="M290.421 298.968L249.043 268.904" stroke="#10084D" stroke-width="2" stroke-linecap="round" stroke-linejoin="round"/>
<path d="M301.406 298.968L256.002 268.904" stroke="#10084D" stroke-width="2" stroke-linecap="round" stroke-linejoin="round"/>
<path d="M312.38 298.968L262.967 268.904" stroke="#10084D" stroke-width="2" stroke-linecap="round" stroke-linejoin="round"/>
<path d="M54.291 298.968L99.3188 268.904" stroke="#10084D" stroke-width="2" stroke-linecap="round" stroke-linejoin="round"/>
<path d="M65.2656 298.968L106.276 268.904" stroke="#10084D" stroke-width="2" stroke-linecap="round" stroke-linejoin="round"/>
<path d="M76.25 298.968L113.243 268.904" stroke="#10084D" stroke-width="2" stroke-linecap="round" stroke-linejoin="round"/>
<path d="M87.2246 298.968L120.2 268.904" stroke="#10084D" stroke-width="2" stroke-linecap="round" stroke-linejoin="round"/>
<path d="M98.1992 298.968L127.157 268.904" stroke="#10084D" stroke-width="2" stroke-linecap="round" stroke-linejoin="round"/>
<path d="M109.174 298.968L134.122 268.904" stroke="#10084D" stroke-width="2" stroke-linecap="round" stroke-linejoin="round"/>
<path d="M120.158 298.968L141.081 268.904" stroke="#10084D" stroke-width="2" stroke-linecap="round" stroke-linejoin="round"/>
<path d="M131.133 298.968L148.038 268.904" stroke="#10084D" stroke-width="2" stroke-linecap="round" stroke-linejoin="round"/>
<path d="M144.863 292.287L154.928 268.904" stroke="#10084D" stroke-width="2" stroke-linecap="round" stroke-linejoin="round"/>
<path d="M154.41 292.287L161.518 268.904" stroke="#10084D" stroke-width="2" stroke-linecap="round" stroke-linejoin="round"/>
<path d="M163.967 292.287L168.11 268.904" stroke="#10084D" stroke-width="2" stroke-linecap="round" stroke-linejoin="round"/>
<path d="M173.514 292.287L174.7 268.904" stroke="#10084D" stroke-width="2" stroke-linecap="round" stroke-linejoin="round"/>
<path d="M183.06 292.287L181.289 268.904" stroke="#10084D" stroke-width="2" stroke-linecap="round" stroke-linejoin="round"/>
<path d="M192.606 292.287L187.879 268.904" stroke="#10084D" stroke-width="2" stroke-linecap="round" stroke-linejoin="round"/>
<path d="M202.161 292.287L194.469 268.904" stroke="#10084D" stroke-width="2" stroke-linecap="round" stroke-linejoin="round"/>
<path d="M211.708 292.287L201.059 268.904" stroke="#10084D" stroke-width="2" stroke-linecap="round" stroke-linejoin="round"/>
<path d="M221.255 292.287L207.648 268.904" stroke="#10084D" stroke-width="2" stroke-linecap="round" stroke-linejoin="round"/>
<path d="M75.8969 83.9807C58.7425 103.041 73.0378 108.76 80.662 111.619C88.2862 114.478 175.964 138.304 205.508 138.304C227.846 138.304 226.76 122.512 224.892 114.802C224.622 113.654 223.993 112.623 223.097 111.857C222.2 111.09 221.083 110.63 219.908 110.542C172.543 107.302 143.561 43 143.561 43C124.501 43 122.595 56.3425 122.595 56.3425H116.877C116.877 56.3425 98.7694 56.3425 90.1922 44.9061C90.1922 44.9061 80.662 47.7652 79.709 60.1547V64.9199C81.3871 70.1326 81.047 75.7855 78.756 80.7594L75.8969 83.9807Z" fill="#5D34D0"/>
<path d="M122.595 56.3425C122.595 56.3425 124.501 43 143.561 43C143.561 43 172.543 107.302 219.908 110.542C221.083 110.63 222.2 111.09 223.097 111.857C223.993 112.623 224.622 113.654 224.892 114.802C226.798 122.512 227.846 138.304 205.508 138.304C175.964 138.304 88.2862 114.478 80.662 111.619C73.0378 108.76 58.7425 103.041 75.8969 83.9807" stroke="#10084D" stroke-width="2" stroke-linecap="round" stroke-linejoin="round"/>
<path d="M116.877 56.3427C116.877 56.3427 98.7694 56.3427 90.1922 44.9062C90.1922 44.9062 80.662 47.7654 79.709 60.1549" stroke="#10084D" stroke-width="2" stroke-linecap="round" stroke-linejoin="round"/>
<path d="M163.576 94.4642L172.706 85.4961" stroke="#10084D" stroke-width="2" stroke-linecap="round" stroke-linejoin="round"/>
<path d="M156.904 87.7928L166.034 78.8247" stroke="#10084D" stroke-width="2" stroke-linecap="round" stroke-linejoin="round"/>
<path d="M151.186 81.1214L160.315 72.1533" stroke="#10084D" stroke-width="2" stroke-linecap="round" stroke-linejoin="round"/>
<path d="M143.514 77.3096L155.55 65.4824" stroke="#10084D" stroke-width="2" stroke-linecap="round" stroke-linejoin="round"/>
<path d="M217.897 113.525C217.897 113.525 202.096 118.566 199.514 128.44" stroke="#10084D" stroke-width="2" stroke-linecap="round" stroke-linejoin="round"/>
<path d="M87.3346 50.6816L80.2441 60.3836" stroke="#10084D" stroke-width="2" stroke-linecap="round" stroke-linejoin="round"/>
<path d="M90.194 54.4937L83.1035 64.1956" stroke="#10084D" stroke-width="2" stroke-linecap="round" stroke-linejoin="round"/>
<path d="M94.0049 58.4014L89.7734 64.1958" stroke="#10084D" stroke-width="2" stroke-linecap="round" stroke-linejoin="round"/>
<path d="M97.8176 61.9653L95.4922 65.1485" stroke="#10084D" stroke-width="2" stroke-linecap="round" stroke-linejoin="round"/>
<path d="M184.351 131.075L114.851 104.075C113.351 101.575 112.801 100.97 111.851 99.5748C105.113 89.6862 91.3242 88.469 80.8511 84.5748C61.9952 88.558 65.3516 109.075 77.8513 110.575L82.3513 112.075L99.3511 117.075L178.851 137.075C217.352 142.075 221.352 135.575 225.351 127.075C225.351 127.075 193.755 134.571 184.351 131.075Z" fill="#FEFCD3" stroke="#10084D" stroke-width="2" stroke-linecap="round" stroke-linejoin="round"/>
<path d="M107.351 93.5747L115.851 79.0747L120.351 60.575C113.866 62.6529 102.01 68.2356 97.8504 68.5747C93.0929 68.966 83.3205 67.9585 79.8503 65.5749C81.9035 75.4168 77.3507 84.5747 77.3507 84.5747C84.624 86.0086 97.3506 89.0747 107.351 93.5747Z" fill="#2576BC" stroke="#10084D" stroke-width="2" stroke-linecap="round" stroke-linejoin="round"/>
<path d="M121.265 59.8994C120.799 60.0767 120.317 60.2245 119.852 60.3723L141.852 61.5747C148.852 61.0747 147.852 61.25 152.852 60.0747C146.495 55.5864 148.773 50.2044 143.748 45.1199C122.871 41.1787 121.265 59.8994 121.265 59.8994Z" fill="#10084D" stroke="#10084D" stroke-width="2" stroke-linecap="round" stroke-linejoin="round"/>
<path d="M168 80.5715L195.287 53.9316H213.562" stroke="#10084D" stroke-width="2" stroke-linecap="round" stroke-linejoin="round"/>
<path d="M133.505 31.4919H122.714L100.488 53.7141" stroke="#10084D" stroke-width="2" stroke-linecap="round" stroke-linejoin="round"/>
<path d="M233.868 154.478H218.775L184.271 119.98" stroke="#10084D" stroke-width="2" stroke-linecap="round" stroke-linejoin="round"/>
<path d="M44.459 76.0115H60.671L94.4481 109.783" stroke="#10084D" stroke-width="2" stroke-linecap="round" stroke-linejoin="round"/>
<rect x="161.5" y="242.5" width="50" height="18" fill="#10084D" stroke="#10084D" stroke-width="3"/>
</g>
<defs>
<clipPath id="clip0_1790_10884">
<rect width="365" height="314" fill="white"/>
</clipPath>
</defs>
</svg>
