<svg width="509" height="438" viewBox="0 0 509 438" fill="none" xmlns="http://www.w3.org/2000/svg">
<ellipse cx="254.5" cy="219" rx="254.5" ry="219" fill="#7040FF" fill-opacity="0.25"/>
<path d="M121.335 51.8323H17.687C14.6476 51.8323 12.1836 54.2974 12.1836 57.3383V140.278C12.1836 143.319 14.6476 145.784 17.687 145.784H121.335C124.375 145.784 126.839 143.319 126.839 140.278V57.3383C126.839 54.2974 124.375 51.8323 121.335 51.8323Z" fill="#5A36C7"/>
<path d="M38.3906 43.0925L44.9423 56.2021" stroke="#5A36C7" stroke-width="2" stroke-linecap="round" stroke-linejoin="round"/>
<path d="M11.0918 108.64L19.8274 106.455" stroke="white" stroke-width="2" stroke-linecap="round" stroke-linejoin="round"/>
<path d="M29.6543 135.974L32.9302 131.669" stroke="white" stroke-width="2" stroke-linecap="round" stroke-linejoin="round"/>
<path d="M114.882 137.132L108.275 130.49" stroke="white" stroke-width="2" stroke-linecap="round" stroke-linejoin="round"/>
<path d="M100.818 89.3911C99.9958 83.2944 97.4975 77.546 93.6014 72.7867C89.7053 68.0274 84.5646 64.4443 78.7522 62.4368C72.9399 60.4294 66.6844 60.0766 60.6834 61.4177C54.6823 62.7588 49.1715 65.7411 44.7654 70.0321C40.3593 74.3231 37.2311 79.7542 35.7296 85.7198C34.228 91.6853 34.4122 97.9509 36.2614 103.818C38.1107 109.685 41.5524 114.923 46.2029 118.947C50.8533 122.972 56.5298 125.625 62.5992 126.611C63.2322 126.708 63.8258 126.979 64.3137 127.393C64.8016 127.808 65.1644 128.351 65.3618 128.96C66.1371 131.484 68.2336 135.351 73.4532 134.652C79.3061 133.854 80.005 129.572 79.9176 127.005C79.8926 126.391 80.0533 125.785 80.3787 125.264C80.7041 124.744 81.1789 124.334 81.7411 124.088C88.223 121.12 93.5779 116.144 97.0135 109.895C100.449 103.646 101.783 96.4571 100.818 89.3911V89.3911Z" fill="white" stroke="#5A36C7" stroke-width="2" stroke-linecap="round" stroke-linejoin="round"/>
<path d="M83.1388 136.52L66.1152 141.032" stroke="#10084D" stroke-width="2" stroke-linecap="round" stroke-linejoin="round"/>
<path d="M83.5763 140.868L66.5527 145.369" stroke="#10084D" stroke-width="2" stroke-linecap="round" stroke-linejoin="round"/>
<path d="M84.0118 145.205L66.9883 149.706" stroke="#10084D" stroke-width="2" stroke-linecap="round" stroke-linejoin="round"/>
<path d="M72.3066 152.787L79.863 150.788" stroke="#10084D" stroke-width="2" stroke-linecap="round" stroke-linejoin="round"/>
<path d="M66.9231 124.798L58.1875 94.7004C58.1875 94.7004 62.3806 105.112 64.8375 104.784C67.2944 104.456 66.945 93.5205 64.6301 93.8592C62.3151 94.1979 66.3116 104.62 68.572 104.314C70.8323 104.008 73.3547 92.6903 70.1881 93.1163C67.0214 93.5424 71.8588 103.866 72.8197 103.735C73.7806 103.604 77.0456 92.1877 77.0456 92.1877L77.2203 123.41" stroke="#10084D" stroke-width="2" stroke-linecap="round" stroke-linejoin="round"/>
<path d="M139.943 93.3457H425.434C432.254 93.3457 438.795 96.0563 443.618 100.881C448.44 105.706 451.15 112.25 451.15 119.073V235.858C451.15 242.681 448.44 249.225 443.618 254.05C438.795 258.875 432.254 261.585 425.434 261.585H347.141C340.321 261.584 333.782 258.872 328.96 254.047L304.173 229.248C299.351 224.423 292.811 221.712 285.992 221.71H77.4285C70.6083 221.71 64.0675 224.421 59.2449 229.246C54.4223 234.07 51.7129 240.614 51.7129 247.438V319.955C51.7086 323.341 52.3725 326.694 53.6665 329.822C54.9604 332.95 56.8589 335.792 59.2532 338.184C61.6474 340.577 64.4903 342.472 67.6186 343.763C70.747 345.054 74.0993 345.713 77.4831 345.705H114.828C133.391 345.705 138.851 330.41 138.851 319.486C138.851 308.561 133.391 292.174 112.644 292.174C91.8969 292.174 86.4371 311.838 86.4371 319.486C86.4371 331.153 94.0807 352.718 134.418 357.995C138.297 358.487 142.237 358.081 145.935 356.808C149.632 355.535 152.988 353.43 155.743 350.654L175.541 330.847C180.362 326.022 186.902 323.311 193.722 323.309H451.15" stroke="#10084D" stroke-width="2" stroke-linecap="round" stroke-linejoin="round" stroke-dasharray="11 11"/>
<path d="M284.081 116.287C302.776 116.287 317.932 101.125 317.932 82.4211C317.932 63.7172 302.776 48.5547 284.081 48.5547C265.386 48.5547 250.23 63.7172 250.23 82.4211C250.23 101.125 265.386 116.287 284.081 116.287Z" fill="#5A36C7"/>
<path d="M275.344 61.6643C275.344 61.6643 277.528 68.2191 284.08 69.3116C290.632 70.404 299.367 71.4965 300.459 82.4211C301.551 93.3458 301.551 97.7156 312.471 103.178C323.39 108.64 322.299 129.397 322.299 129.397L280.804 150.154C280.804 150.154 272.069 146.876 272.069 140.322C272.069 133.767 273.161 130.49 266.609 126.12C260.057 121.75 252.413 125.027 250.23 113.01C248.046 100.993 248.046 104.27 241.494 97.7156C234.942 91.1608 241.494 69.9561 241.494 69.9561L275.344 61.6643Z" fill="white" stroke="#10084D" stroke-width="2" stroke-linecap="round" stroke-linejoin="round"/>
<path d="M301.553 108.64C301.553 108.64 298.277 114.103 275.346 119.565" stroke="#7040FF" stroke-width="2" stroke-linecap="round" stroke-linejoin="round"/>
<path d="M289.54 80.2363C289.54 80.2363 289.54 90.0685 285.172 94.4384" stroke="#7040FF" stroke-width="2" stroke-linecap="round" stroke-linejoin="round"/>
<path d="M282.694 87.3372C282.694 87.3372 278.621 95.5306 277.529 96.6231" stroke="#7040FF" stroke-width="2" stroke-linecap="round" stroke-linejoin="round"/>
<path d="M268.345 91.9802C267.701 93.3458 253.506 99.9006 253.506 99.9006" stroke="#7040FF" stroke-width="2" stroke-linecap="round" stroke-linejoin="round"/>
<path d="M225.115 83.5137C225.115 83.5137 228.391 99.9006 221.84 110.825C221.84 110.825 204.368 114.103 200 113.01L196.725 91.1609C196.725 91.1609 219.656 88.976 225.115 83.5137Z" fill="white" stroke="#10084D" stroke-width="2" stroke-linecap="round" stroke-linejoin="round"/>
<path d="M301.551 59.2937C301.551 59.2937 321.545 61.2929 327.376 59.2937C327.376 59.2937 331.034 72.589 329.942 79.1438L312.831 83.5136C312.079 74.3527 308.078 65.7625 301.551 59.2937V59.2937Z" fill="white" stroke="#10084D" stroke-width="2" stroke-linecap="round" stroke-linejoin="round"/>
<path d="M461.294 194.945H379.856C377.618 194.945 375.805 196.759 375.805 198.998V226.943C375.805 229.181 377.618 230.996 379.856 230.996H461.294C463.531 230.996 465.345 229.181 465.345 226.943V198.998C465.345 196.759 463.531 194.945 461.294 194.945Z" fill="white" stroke="#10084D" stroke-width="2" stroke-linecap="round" stroke-linejoin="round"/>
<path d="M461.294 135.952H435.545C433.308 135.952 431.494 137.767 431.494 140.005V159.21C431.494 161.449 433.308 163.263 435.545 163.263H461.294C463.531 163.263 465.345 161.449 465.345 159.21V140.005C465.345 137.767 463.531 135.952 461.294 135.952Z" fill="white" stroke="#10084D" stroke-width="2" stroke-linecap="round" stroke-linejoin="round"/>
<path d="M461.294 170.911H435.545C433.308 170.911 431.494 172.725 431.494 174.964V182.152C431.494 184.391 433.308 186.205 435.545 186.205H461.294C463.531 186.205 465.345 184.391 465.345 182.152V174.964C465.345 172.725 463.531 170.911 461.294 170.911Z" fill="white" stroke="#10084D" stroke-width="2" stroke-linecap="round" stroke-linejoin="round"/>
<path d="M383.449 205.64H424.943" stroke="#10084D" stroke-width="2" stroke-linecap="round" stroke-linejoin="round"/>
<path d="M436.953 152.339H459.884" stroke="#5A36C7" stroke-width="2" stroke-linecap="round" stroke-linejoin="round"/>
<path d="M436.953 156.709H453.332" stroke="#5A36C7" stroke-width="2" stroke-linecap="round" stroke-linejoin="round"/>
<path d="M383.449 211.332H424.943" stroke="#10084D" stroke-width="2" stroke-linecap="round" stroke-linejoin="round"/>
<path d="M383.449 217.024H409.656" stroke="#10084D" stroke-width="2" stroke-linecap="round" stroke-linejoin="round"/>
<path d="M456.61 218.979H443.506C441.697 218.979 440.23 220.446 440.23 222.256C440.23 224.066 441.697 225.534 443.506 225.534H456.61C458.419 225.534 459.886 224.066 459.886 222.256C459.886 220.446 458.419 218.979 456.61 218.979Z" fill="#7040FF"/>
<path d="M439.137 146.877C440.946 146.877 442.413 145.409 442.413 143.599C442.413 141.789 440.946 140.322 439.137 140.322C437.328 140.322 435.861 141.789 435.861 143.599C435.861 145.409 437.328 146.877 439.137 146.877Z" fill="#7040FF"/>
<path d="M420.891 137.044H379.856C378.221 137.044 376.896 138.37 376.896 140.005V183.245C376.896 184.88 378.221 186.205 379.856 186.205H420.891C422.526 186.205 423.85 184.88 423.85 183.245V140.005C423.85 138.37 422.526 137.044 420.891 137.044Z" fill="#5A36C7"/>
<path d="M420.894 137.637H420.892H379.856V137.637L379.853 137.637C379.227 137.64 378.628 137.891 378.185 138.334C377.742 138.776 377.492 139.376 377.489 140.002H377.489V140.005L377.489 183.245L377.489 183.248C377.492 183.874 377.743 184.473 378.185 184.916C378.628 185.359 379.227 185.609 379.853 185.613H379.856L420.892 185.613L420.894 185.613C421.52 185.609 422.12 185.359 422.562 184.916C423.005 184.473 423.255 183.874 423.259 183.248V183.245L423.259 140.005L423.259 140.002C423.255 139.376 423.005 138.776 422.562 138.334C422.12 137.891 421.52 137.64 420.894 137.637ZM379.856 136.452H420.892C421.833 136.452 422.736 136.826 423.402 137.492C424.068 138.159 424.443 139.063 424.443 140.005V183.245C424.443 184.187 424.068 185.091 423.402 185.757C422.736 186.423 421.833 186.798 420.892 186.798H379.856C378.914 186.798 378.011 186.423 377.345 185.757C376.679 185.091 376.305 184.187 376.305 183.245V140.005C376.305 139.063 376.679 138.159 377.345 137.492C378.011 136.826 378.914 136.452 379.856 136.452Z" fill="#2576BC" stroke="#10084D"/>
<path d="M384.54 186.205V180.743C384.541 180.571 384.5 180.401 384.422 180.247C384.345 180.093 384.232 179.96 384.092 179.858C383.903 179.726 383.679 179.654 383.448 179.651C383.333 179.653 383.219 179.671 383.11 179.705L376.896 181.737V162.269C379.867 160.642 393.178 153.322 397.087 151.006C399.009 152.962 405.102 158.347 413.979 158.347C417.373 158.322 420.722 157.577 423.807 156.163V183.354C423.807 184.122 423.502 184.858 422.959 185.401C422.417 185.944 421.681 186.249 420.913 186.249L384.54 186.205Z" fill="white"/>
<path d="M396.412 151.164L397.259 151.978C401.776 156.323 407.762 158.808 414.026 158.94C416.953 158.916 419.851 158.357 422.577 157.292L423.259 157.025V157.757V183.31C423.259 183.613 423.199 183.912 423.084 184.191C422.968 184.471 422.798 184.724 422.585 184.938C422.371 185.152 422.117 185.322 421.838 185.437C421.559 185.553 421.259 185.613 420.957 185.613H385.632H385.132V185.113L385.132 180.743L385.132 180.743M396.412 151.164L384.726 178.973C385.006 179.175 385.235 179.441 385.392 179.749C385.55 180.057 385.632 180.397 385.632 180.743H385.132M396.412 151.164V152.084M396.412 151.164V152.084M385.132 180.743C385.132 180.476 385.068 180.214 384.947 179.977C384.826 179.739 384.649 179.534 384.433 179.379L384.433 179.378C384.146 179.17 383.801 179.058 383.448 179.058L383.444 179.058C383.27 179.056 383.097 179.084 382.933 179.14L382.927 179.143L382.927 179.142L378.144 180.705L377.489 180.919V180.229V162.914V162.618L377.749 162.475C381.276 160.544 391.887 154.702 396.412 152.084M385.132 180.743L396.412 152.084M383.948 186.798V180.743V180.053L383.293 180.268L376.305 182.555V161.921L376.863 161.614C377.385 161.327 378.134 160.915 379.041 160.415C380.854 159.417 383.299 158.068 385.823 156.668C390.505 154.071 395.49 151.283 397.209 150.236C397.222 150.25 397.236 150.264 397.25 150.279C397.453 150.495 397.753 150.801 398.145 151.168C398.927 151.9 400.077 152.874 401.553 153.849C404.503 155.796 408.775 157.755 414.023 157.755L414.031 157.755C417.653 157.701 421.213 156.825 424.443 155.198V183.31L424.443 183.312C424.444 183.77 424.355 184.224 424.18 184.647C424.005 185.071 423.749 185.455 423.425 185.779C423.101 186.103 422.716 186.36 422.293 186.535C421.87 186.71 421.416 186.799 420.958 186.798H420.957H383.948Z" fill="#2576BC" stroke="#10084D"/>
<path d="M393.275 153.147C393.275 153.147 406.139 170.026 424.942 160.008" stroke="#10084D" stroke-width="2" stroke-linecap="round" stroke-linejoin="round"/>
<path d="M122.75 199.809L122.178 199.723C116.215 198.821 110.65 202.925 109.748 208.891L107.816 221.669C106.915 227.635 111.017 233.203 116.98 234.105L117.553 234.191C123.515 235.094 129.08 230.989 129.982 225.023L131.914 212.245C132.816 206.279 128.713 200.712 122.75 199.809Z" stroke="#10084D" stroke-width="2" stroke-linecap="round" stroke-linejoin="round"/>
<path d="M161.608 188.554C147.522 186.435 135.521 188.641 134.779 193.503C134.768 193.659 134.768 193.816 134.779 193.973V193.973L127.353 243.079C127.301 243.228 127.265 243.381 127.244 243.538C126.512 248.399 137.323 254.069 151.409 256.199C165.495 258.33 177.496 256.112 178.227 251.25C178.243 251.094 178.243 250.937 178.227 250.781V250.781L185.642 201.674C185.688 201.524 185.725 201.371 185.751 201.216C186.504 196.354 175.683 190.684 161.608 188.554Z" fill="white" stroke="#10084D" stroke-width="2" stroke-linecap="round" stroke-linejoin="round"/>
<path d="M160.298 197.968C166.355 198.885 171.752 200.2 175.577 201.578C177.494 202.269 178.991 202.967 179.977 203.625C180.472 203.954 180.813 204.258 181.016 204.525C181.219 204.791 181.252 204.974 181.234 205.094C181.215 205.214 181.13 205.379 180.857 205.574C180.584 205.769 180.169 205.958 179.599 206.126C178.463 206.463 176.826 206.687 174.791 206.78C170.729 206.965 165.185 206.624 159.128 205.708C153.071 204.791 147.675 203.477 143.85 202.098C141.933 201.407 140.435 200.71 139.449 200.052C138.955 199.722 138.614 199.418 138.411 199.151C138.208 198.885 138.175 198.702 138.193 198.582C138.211 198.462 138.297 198.297 138.569 198.102C138.843 197.908 139.258 197.718 139.828 197.55C140.964 197.213 142.601 196.989 144.636 196.896C148.698 196.711 154.241 197.052 160.298 197.968Z" fill="#10084D" stroke="#10084D"/>
<path d="M175.486 216.75L172.035 239.605" stroke="#10084D" stroke-width="2" stroke-linecap="round" stroke-linejoin="round"/>
<path d="M171.303 244.466L170.527 249.59" stroke="#10084D" stroke-width="2" stroke-linecap="round" stroke-linejoin="round"/>
<path d="M164.141 149.247C158.747 153.224 157.382 160.991 161.575 166.224C165.397 170.987 161.739 180.153 159.151 182.272" stroke="#5A36C7" stroke-width="2" stroke-linecap="round" stroke-linejoin="round"/>
<path d="M170.124 154.688C169.26 155.306 168.529 156.092 167.974 156.999C167.419 157.905 167.051 158.914 166.892 159.965C166.733 161.016 166.787 162.088 167.049 163.118C167.312 164.148 167.778 165.115 168.42 165.962C170.953 169.13 168.529 175.215 166.804 176.624" stroke="#5A36C7" stroke-width="2" stroke-linecap="round" stroke-linejoin="round"/>
<path d="M185.866 201.26C186.601 196.398 175.784 190.729 161.705 188.599C147.627 186.469 135.618 188.684 134.884 193.546C134.149 198.408 144.965 204.076 159.044 206.206C173.122 208.336 185.131 206.122 185.866 201.26Z" stroke="#10084D" stroke-width="2" stroke-linecap="round" stroke-linejoin="round"/>
<path d="M221.294 346.797C236.069 346.797 248.047 334.814 248.047 320.032C248.047 305.25 236.069 293.267 221.294 293.267C206.519 293.267 194.541 305.25 194.541 320.032C194.541 334.814 206.519 346.797 221.294 346.797Z" fill="#5A36C7"/>
<path d="M280.259 283.435H206.006C200.88 283.435 196.725 287.592 196.725 292.721C196.725 297.849 200.88 302.006 206.006 302.006H280.259C285.385 302.006 289.541 297.849 289.541 292.721C289.541 287.592 285.385 283.435 280.259 283.435Z" fill="white" stroke="#10084D" stroke-width="2" stroke-linecap="round" stroke-linejoin="round"/>
<path d="M298.822 310.746H224.569C219.443 310.746 215.287 314.904 215.287 320.032C215.287 325.161 219.443 329.318 224.569 329.318H298.822C303.948 329.318 308.103 325.161 308.103 320.032C308.103 314.904 303.948 310.746 298.822 310.746Z" fill="white" stroke="#10084D" stroke-width="2" stroke-linecap="round" stroke-linejoin="round"/>
<path d="M248.591 339.15H188.534C183.407 339.15 179.252 343.308 179.252 348.436C179.252 353.565 183.407 357.722 188.534 357.722H248.591C253.717 357.722 257.873 353.565 257.873 348.436C257.873 343.308 253.717 339.15 248.591 339.15Z" fill="white" stroke="#10084D" stroke-width="2" stroke-linecap="round" stroke-linejoin="round"/>
<path d="M297.184 371.924H275.345C272.329 371.924 269.885 374.37 269.885 377.386C269.885 380.403 272.329 382.849 275.345 382.849H297.184C300.199 382.849 302.643 380.403 302.643 377.386C302.643 374.37 300.199 371.924 297.184 371.924Z" fill="#7040FF"/>
<path d="M208.223 292.72H251.322" stroke="#2576BC" stroke-width="2" stroke-linecap="round" stroke-linejoin="round"/>
<path d="M225.693 317.847H286.264" stroke="#2576BC" stroke-width="2" stroke-linecap="round" stroke-linejoin="round"/>
<path d="M225.693 323.309H263.333" stroke="#2576BC" stroke-width="2" stroke-linecap="round" stroke-linejoin="round"/>
<path d="M479.496 304.191H370.388C367.349 304.191 364.885 306.657 364.885 309.697V376.25C364.885 379.291 367.349 381.756 370.388 381.756H479.496C482.536 381.756 485 379.291 485 376.25V309.697C485 306.657 482.536 304.191 479.496 304.191Z" fill="#5A36C7"/>
<path d="M443.287 301.613L433.219 302.706C430.197 305.76 426.22 307.688 421.951 308.167C417.682 308.646 413.377 307.648 409.753 305.338L399.686 306.431L404.37 385.831L456.281 380.008L443.287 301.613Z" fill="white" stroke="#10084D" stroke-width="2" stroke-linecap="round" stroke-linejoin="round"/>
<path d="M443.287 301.613L469.712 312.33L465.694 332.759L448.343 332.191L443.287 301.613Z" fill="white" stroke="#10084D" stroke-width="2" stroke-linecap="round" stroke-linejoin="round"/>
<path d="M399.685 306.507L376.273 322.807L384.714 341.838L401.508 337.446L399.685 306.507Z" fill="white" stroke="#10084D" stroke-width="2" stroke-linecap="round" stroke-linejoin="round"/>
<path d="M439.138 302.083C437.293 304.93 434.839 307.332 431.954 309.116C429.069 310.9 425.825 312.021 422.454 312.399C419.084 312.778 415.671 312.403 412.463 311.303C409.255 310.203 406.33 308.405 403.9 306.037" stroke="#10084D" stroke-width="2" stroke-linecap="round" stroke-linejoin="round"/>
<path d="M438.449 361.731L446.89 368.472L460.66 351.2" stroke="#10084D" stroke-width="4" stroke-linecap="round" stroke-linejoin="round"/>
<path d="M437.062 358.738L446.65 366.385L460.43 349.124" stroke="#5A36C7" stroke-width="4" stroke-linecap="round" stroke-linejoin="round"/>
<path d="M114.827 57.2944L107.184 64.9417" stroke="white" stroke-width="2" stroke-linecap="round" stroke-linejoin="round"/>
</svg>
