<svg width="228" height="215" viewBox="0 0 228 215" fill="none" xmlns="http://www.w3.org/2000/svg">
<g filter="url(#filter0_d_2750_18279)">
<path d="M80.2969 171.764H206.068C208.464 171.764 210.761 172.802 212.455 174.649C214.149 176.495 215.1 179.001 215.1 181.613V200.522H89.3289C86.9335 200.522 84.6361 199.484 82.9423 197.637C81.2485 195.79 80.2969 193.285 80.2969 190.673V171.764Z" fill="#5A36C7"/>
<path d="M12 143.006H137.771C140.167 143.006 142.464 144.044 144.158 145.891C145.852 147.738 146.803 150.243 146.803 152.855V171.764H21.0321C18.6366 171.764 16.3393 170.727 14.6454 168.88C12.9516 167.033 12 164.528 12 161.916V143.006Z" fill="#7040FF"/>
<path d="M80.2969 105.261H206.068C208.464 105.261 210.761 106.299 212.455 108.146C214.149 109.993 215.1 112.498 215.1 115.11V134.019H89.3289C86.9335 134.019 84.6361 132.981 82.9423 131.134C81.2485 129.287 80.2969 126.782 80.2969 124.17V105.261Z" fill="#2576BC"/>
<path d="M12 76.6014H137.771C140.167 76.6014 142.464 77.6391 144.158 79.486C145.852 81.333 146.803 83.838 146.803 86.45V105.261H21.0321C18.6366 105.261 16.3393 104.223 14.6454 102.376C12.9516 100.529 12 98.0244 12 95.4123V76.5029V76.6014Z" fill="#51A4E4"/>
<path d="M80.2969 38.7581H206.068C208.464 38.7581 210.761 39.7957 212.455 41.6427C214.149 43.4896 215.1 45.9947 215.1 48.6067V67.5161H89.3289C86.9335 67.5161 84.6361 66.4785 82.9423 64.6315C81.2485 62.7845 80.2969 60.2795 80.2969 57.6675V38.7581Z" fill="#65CED6"/>
<path d="M12 10H137.771C140.167 10 142.464 11.0376 144.158 12.8846C145.852 14.7316 146.803 17.2366 146.803 19.8487V38.7581H21.0321C18.6366 38.7581 16.3393 37.7204 14.6454 35.8735C12.9516 34.0265 12 31.5214 12 28.9094V10Z" fill="#8CE2E9"/>
</g>
<defs>
<filter id="filter0_d_2750_18279" x="0" y="0" width="227.102" height="214.522" filterUnits="userSpaceOnUse" color-interpolation-filters="sRGB">
<feFlood flood-opacity="0" result="BackgroundImageFix"/>
<feColorMatrix in="SourceAlpha" type="matrix" values="0 0 0 0 0 0 0 0 0 0 0 0 0 0 0 0 0 0 127 0" result="hardAlpha"/>
<feOffset dy="2"/>
<feGaussianBlur stdDeviation="6"/>
<feComposite in2="hardAlpha" operator="out"/>
<feColorMatrix type="matrix" values="0 0 0 0 0 0 0 0 0 0 0 0 0 0 0 0 0 0 0.25 0"/>
<feBlend mode="normal" in2="BackgroundImageFix" result="effect1_dropShadow_2750_18279"/>
<feBlend mode="normal" in="SourceGraphic" in2="effect1_dropShadow_2750_18279" result="shape"/>
</filter>
</defs>
</svg>
