<svg width="144" height="56" viewBox="0 0 144 56" fill="none" xmlns="http://www.w3.org/2000/svg"><path d="M99.258 1.16H28.95a1.662 1.662 0 0 0-1.165.484 1.636 1.636 0 0 0-.48 1.16v41.255a1.626 1.626 0 0 0 .478 1.164 1.652 1.652 0 0 0 1.167.486h70.32a1.662 1.662 0 0 0 1.166-.488c.309-.31.481-.727.479-1.162V2.803a1.622 1.622 0 0 0-.483-1.163 1.65 1.65 0 0 0-1.174-.48z" fill="#fff" stroke="#10084D" stroke-width="2" stroke-linecap="round" stroke-linejoin="round"/><ellipse cx="64" cy="21.5" rx="22" ry="15.5" fill="#E2DBFF"/><path d="M38.133 52.89c.831 0 1.644-.244 2.335-.702a4.175 4.175 0 0 0 1.547-1.87 4.138 4.138 0 0 0-.91-4.544 4.233 4.233 0 0 0-4.58-.904 4.194 4.194 0 0 0-1.885 1.536 4.145 4.145 0 0 0 .522 5.263 4.219 4.219 0 0 0 2.971 1.221z" fill="#fff"/><path d="M38.133 46.423c.575.005 1.128.22 1.552.606a2.297 2.297 0 0 1 .303 3.075 2.33 2.33 0 0 1-1.404.893 2.322 2.322 0 0 1-2.496-1.176 2.295 2.295 0 0 1 .573-2.87 2.34 2.34 0 0 1 1.472-.528zm0-3.692a6.068 6.068 0 0 0-3.348 1.015 5.995 5.995 0 0 0-2.67 5.277 5.97 5.97 0 0 0 .701 2.533 6.022 6.022 0 0 0 1.724 1.994 6.08 6.08 0 0 0 2.417 1.073 6.048 6.048 0 0 0 3.481-.34 6.04 6.04 0 0 0 3.01-2.717 5.966 5.966 0 0 0 .597-3.993 6 6 0 0 0-2.086-3.467 6.086 6.086 0 0 0-3.826-1.375z" fill="#10084D"/><path d="M52.498 52.89a4.226 4.226 0 0 0 2.344-.685 4.177 4.177 0 0 0 1.564-1.863 4.139 4.139 0 0 0-.888-4.555 4.212 4.212 0 0 0-2.151-1.15 4.234 4.234 0 0 0-2.433.23 4.195 4.195 0 0 0-1.891 1.535 4.146 4.146 0 0 0 .507 5.255 4.22 4.22 0 0 0 2.948 1.233z" fill="#fff"/><path d="M52.498 46.423a2.323 2.323 0 0 1 2.143 1.43 2.293 2.293 0 0 1-.504 2.512 2.317 2.317 0 0 1-1.2.632 2.322 2.322 0 0 1-2.495-1.175 2.294 2.294 0 0 1 .568-2.868 2.34 2.34 0 0 1 1.47-.53h.018zm0-3.692a6.067 6.067 0 0 0-3.348 1.015 5.995 5.995 0 0 0-2.562 6.16 6.006 6.006 0 0 0 1.654 3.08 6.01 6.01 0 0 0 2.23 1.408 6.05 6.05 0 0 0 5.131-.504 5.982 5.982 0 0 0 1.907-1.816 5.99 5.99 0 0 0-.75-7.58 6.006 6.006 0 0 0-1.953-1.304 6.046 6.046 0 0 0-2.309-.459z" fill="#10084D"/><path d="M109.499 52.89c.831 0 1.643-.244 2.334-.702a4.176 4.176 0 0 0 1.548-1.87 4.139 4.139 0 0 0-.911-4.544 4.23 4.23 0 0 0-4.579-.904 4.196 4.196 0 0 0-1.886 1.536 4.143 4.143 0 0 0 .523 5.263 4.217 4.217 0 0 0 2.971 1.221z" fill="#fff"/><path d="M109.499 46.423c.459 0 .908.135 1.289.39.381.255.676.617.848 1.04a2.306 2.306 0 0 1-.498 2.512 2.334 2.334 0 0 1-1.201.632 2.294 2.294 0 0 1-1.339-.131 2.326 2.326 0 0 1-1.039-.852 2.3 2.3 0 0 1 .289-2.91 2.337 2.337 0 0 1 1.639-.68h.012zm0-3.692a6.036 6.036 0 0 0-3.352 1.01 5.972 5.972 0 0 0-2.213 2.694 5.966 5.966 0 0 0 1.97 7.116 6.07 6.07 0 0 0 2.418 1.072 6.09 6.09 0 0 0 2.645-.07 6.053 6.053 0 0 0 2.36-1.185 5.997 5.997 0 0 0 1.624-2.072c.38-.802.576-1.677.574-2.562a5.939 5.939 0 0 0-1.741-4.242 5.998 5.998 0 0 0-1.953-1.303 6.044 6.044 0 0 0-2.308-.458h-.024z" fill="#10084D"/><path d="M85.866 52.89c.831 0 1.643-.244 2.334-.702a4.175 4.175 0 0 0 1.548-1.87 4.138 4.138 0 0 0-.91-4.544 4.233 4.233 0 0 0-4.58-.904 4.194 4.194 0 0 0-1.886 1.536 4.145 4.145 0 0 0 .523 5.263 4.219 4.219 0 0 0 2.97 1.221z" fill="#fff"/><path d="M85.867 46.423a2.293 2.293 0 0 1 2.137 1.43c.178.42.224.886.132 1.333-.09.44-.31.844-.63 1.162-.32.318-.727.535-1.17.625a2.322 2.322 0 0 1-2.496-1.176 2.294 2.294 0 0 1 .573-2.87 2.34 2.34 0 0 1 1.472-.528l-.018.024zm0-3.692a6.036 6.036 0 0 0-3.352 1.01 5.965 5.965 0 0 0-2.212 2.694 5.964 5.964 0 0 0-.35 3.471 5.995 5.995 0 0 0 1.652 3.08 6.01 6.01 0 0 0 2.23 1.408 6.05 6.05 0 0 0 5.131-.504 5.982 5.982 0 0 0 1.907-1.816 5.99 5.99 0 0 0-.75-7.58c-.557-.558-1.22-1-1.95-1.303a6.044 6.044 0 0 0-2.306-.46z" fill="#10084D"/><path d="M123.402 52.89a4.226 4.226 0 0 0 2.343-.688 4.178 4.178 0 0 0 1.561-1.864 4.14 4.14 0 0 0-.892-4.553 4.234 4.234 0 0 0-4.583-.917 4.195 4.195 0 0 0-1.89 1.535 4.146 4.146 0 0 0-.711 2.319c0 1.1.439 2.156 1.221 2.937a4.216 4.216 0 0 0 2.951 1.231z" fill="#fff"/><path d="M123.401 46.423c.457.001.904.136 1.285.387.381.259.679.62.858 1.042.174.423.218.887.126 1.334a2.252 2.252 0 0 1-.63 1.191 2.335 2.335 0 0 1-1.201.632 2.29 2.29 0 0 1-1.338-.131 2.299 2.299 0 0 1-1.039-.852 2.298 2.298 0 0 1 .744-3.239c.357-.214.766-.33 1.183-.334l.012-.03zm0-3.692a6.042 6.042 0 0 0-3.352 1.01 5.963 5.963 0 0 0-2.212 2.694 5.966 5.966 0 0 0 .244 5.122 6.026 6.026 0 0 0 1.725 1.994 6.08 6.08 0 0 0 2.419 1.072 6.097 6.097 0 0 0 4.713-1.12 6.03 6.03 0 0 0 1.628-1.85 5.962 5.962 0 0 0-.745-6.917 6.036 6.036 0 0 0-1.985-1.467 6.087 6.087 0 0 0-2.411-.556l-.024.018z" fill="#10084D"/><path d="M130.713 45.5h-25.746a1.507 1.507 0 0 1-1.059-.436 1.466 1.466 0 0 1-.435-1.053V14.654c0-.393.157-.77.437-1.049a1.503 1.503 0 0 1 1.057-.434h17.204a1.42 1.42 0 0 1 .678.16c.213.108.397.266.534.46l8.542 11.91c.182.254.28.557.282.869v17.418a1.464 1.464 0 0 1-.435 1.052 1.496 1.496 0 0 1-1.059.437v.023z" fill="#7040FF" stroke="#10084D" stroke-width="2" stroke-linecap="round" stroke-linejoin="round"/><path d="M56.741 45.5h-22.9a1.334 1.334 0 0 1-.69-.196 1.343 1.343 0 0 1-.493-.542 1.313 1.313 0 0 1 .145-1.4l2.58-3.346a1.335 1.335 0 0 1 1.069-.518H54.16c.208-.004.415.043.6.137.184.089.345.22.468.38l2.587 3.347a1.34 1.34 0 0 1 .202 1.224 1.333 1.333 0 0 1-.724.797c-.17.076-.354.116-.54.117h-.012zm70.898 0h-22.9a1.37 1.37 0 0 1-.709-.196 1.388 1.388 0 0 1-.492-.542 1.318 1.318 0 0 1-.126-.72 1.33 1.33 0 0 1 .27-.68l2.582-3.346a1.351 1.351 0 0 1 1.068-.518h17.738a1.25 1.25 0 0 1 .6.137c.185.087.346.218.468.38l2.587 3.347a1.342 1.342 0 0 1 .15 1.392c-.106.222-.272.41-.48.544-.226.14-.489.21-.756.202zm-34.754 0H79.253c-.25 0-.495-.067-.709-.196a1.308 1.308 0 0 1-.618-1.262 1.33 1.33 0 0 1 .27-.68l2.581-3.346c.126-.16.286-.29.468-.381.187-.091.393-.138.6-.137h8.47c.209-.005.415.042.6.137a1.2 1.2 0 0 1 .469.38l2.587 3.347a1.346 1.346 0 0 1 .15 1.392c-.106.222-.272.41-.48.544-.227.14-.49.21-.756.202z" fill="#E2DBFF" stroke="#10084D" stroke-width="2" stroke-linecap="round" stroke-linejoin="round"/><path d="M129.89 28.63h-20.41V15.255h12.318l8.074 11.273.018 2.102zM40.62 46.233L40.24 46a5.252 5.252 0 0 0-.552-5.992 5.335 5.335 0 0 0-2.672-1.705 5.371 5.371 0 0 0-3.175.105 9.08 9.08 0 0 0 .12-1.453 9.395 9.395 0 0 0-2.336-6.228 9.536 9.536 0 0 0-5.893-3.157 9.49 9.49 0 0 0-6.513 1.495 9.472 9.472 0 0 0-3.914 5.395 8.102 8.102 0 0 0-2.908-1.56 8.14 8.14 0 0 0-6.424.787 8.056 8.056 0 0 0-3.952 6.317h-.03v.595c0 .343.024.685.072 1.025.997 12.398 13.134 13.059 13.134 13.059h43.165c-10.805.053-17.744-8.45-17.744-8.45z" fill="#fff" stroke="#10084D" stroke-width="2" stroke-linecap="round" stroke-linejoin="round"/><path d="M25.133 40.57a5.325 5.325 0 0 1 2.179-2.746 4.222 4.222 0 0 1 3.193-.536 4.747 4.747 0 0 1 2.767 1.93 6.088 6.088 0 0 1 1.08 3.513m-7.803-9.241c.986.002 1.93.394 2.626 1.087a3.677 3.677 0 0 1 1.084 2.61m-18.999.923c0-.98.39-1.92 1.086-2.614a3.688 3.688 0 0 1 2.617-1.084M109.5 31.75h3.488" stroke="#10084D" stroke-width="2" stroke-linecap="round" stroke-linejoin="round"/><path d="M131.739 38.575a3.025 3.025 0 0 1-2.125-.882 3 3 0 0 1-.882-2.123 3 3 0 0 1 1.856-2.773c.365-.152.756-.23 1.151-.23" fill="#7040FF"/><path d="M131.739 38.575a3.025 3.025 0 0 1-2.125-.882 3 3 0 0 1-.882-2.123 3 3 0 0 1 1.856-2.773c.365-.152.756-.23 1.151-.23m-11.585-17.091l-3.824 3.817m3.361-.584l-5.558 5.544m7.413.923l-1.855 1.846M71.502 54.736h22.72m7.403 0h13.896m2.784 0h17.605m3.248 0h3.242" stroke="#10084D" stroke-width="2" stroke-linecap="round" stroke-linejoin="round"/><path d="M61.964 15.023l-3.722 9.528c.33.267.642.558.93.87H76.94c2.401 0 5.223-1.293 5.223-1.293.87-3.013-2.401-2.579-2.401-2.579-7.438 0-12.69-4.59-15.481-7.836-.679.399-1.483.857-2.335 1.328l.018-.018z" fill="#7040FF" stroke="#10084D" stroke-width="2" stroke-linecap="round" stroke-linejoin="round"/><path d="M58.962 13.784l-.193.101 3.2 1.138c.852-.47 1.657-.93 2.335-1.328a22.887 22.887 0 0 1-2.305-3.138c-2.84-.864-3.037 3.227-3.037 3.227z" fill="#10084D" stroke="#10084D" stroke-width="2" stroke-linecap="round" stroke-linejoin="round"/><path d="M58.23 24.533l3.721-9.528a36.238 36.238 0 0 1-6.044 2.847c-1.663.47-3.602-.084-4.977-.691-1.098 2.632-.228 5.64-.228 5.64 2.677.017 5.187-.126 7.528 1.732z" fill="#E2DBFF" stroke="#10084D" stroke-width="2" stroke-linecap="round" stroke-linejoin="round"/><path d="M55.908 17.87a36.246 36.246 0 0 0 6.044-2.847l-3.199-1.137C55.548 15.595 52 12.515 52 12.515v2.977a5.657 5.657 0 0 0-1.068 1.674c1.428.619 3.313 1.173 4.976.702z" fill="#7040FF" stroke="#10084D" stroke-width="2" stroke-linecap="round" stroke-linejoin="round"/><path d="M76.93 25.402H59.16a8.917 8.917 0 0 0-.93-.869c-2.341-1.882-4.85-1.715-7.528-1.715-3.907 2.799-1.956 5.812.33 5.812H75.95c4.202 0 5.336-1.507 6.2-4.52 0 0-2.82 1.292-5.222 1.292z" fill="#FFEEC1" stroke="#10084D" stroke-width="2" stroke-linecap="round" stroke-linejoin="round"/><path d="M65.219 14.951l-2.383 3.026m4.547-1.084l-1.902 2.418m4.076-.697l-1.069 1.351m3.668-.065l-.703.9" stroke="#10084D" stroke-width="2" stroke-linecap="round" stroke-linejoin="round"/></svg>