<svg width="168" height="31" viewBox="0 0 168 31" fill="none" xmlns="http://www.w3.org/2000/svg"><path d="M53.296 16.59H48.43V8.214c-.01-.13.006-.261.045-.385a.953.953 0 0 1 .184-.331 1.72 1.72 0 0 1 .615-.387 8.259 8.259 0 0 1 1.687-.365c.65-.086 1.305-.13 1.96-.13 1.962 0 3.433.452 4.408 1.333a4.52 4.52 0 0 1 1.12 1.644 4.91 4.91 0 0 1 .344 2.018 4.958 4.958 0 0 1-.654 2.593 4.706 4.706 0 0 1-1.909 1.749 6.378 6.378 0 0 1-2.935.637zm-4.865-1.074h2.831v6.255c-.178.064-.362.11-.549.136a4.364 4.364 0 0 1-.765.064c-.41.037-.82-.08-1.164-.33a1.464 1.464 0 0 1-.286-.516 1.563 1.563 0 0 1-.067-.601v-5.008zm2.812-1.348h1.85a3.235 3.235 0 0 0 2.099-.637c.26-.22.467-.508.602-.836.136-.329.196-.689.176-1.049a2.33 2.33 0 0 0-.175-1.035 2.125 2.125 0 0 0-.603-.82 3.586 3.586 0 0 0-2.302-.638c-.294 0-.588 0-.87.036-.28.036-.542.064-.777.114v4.865zm1.673 1.641l2.406-.76c.373.538.759 1.076 1.151 1.627l1.138 1.584c.366.516.693.988.98 1.433.288.444.517.774.654 1.053-.09.372-.289.7-.567.935a1.501 1.501 0 0 1-.97.362 1.504 1.504 0 0 1-1.039-.337 3.78 3.78 0 0 1-.7-.888l-3.053-5.009zm11.867.989h-2.766V8.63c-.01-.22.022-.44.092-.645.071-.206.18-.394.32-.552.148-.15.322-.267.512-.343.19-.077.392-.11.593-.1.248 0 .496.026.74.078.171.028.342.069.51.122v9.608zm-2.766-4.793h2.766v9.658a3.535 3.535 0 0 1-.51.122c-.243.052-.49.078-.739.079a1.362 1.362 0 0 1-.596-.103 1.47 1.47 0 0 1-.509-.356 1.624 1.624 0 0 1-.317-.544 1.738 1.738 0 0 1-.095-.638v-8.218zm1.517-2.522V6.989h7.388c.093.151.161.318.203.495.065.232.096.473.091.716.019.35-.073.697-.261.982a.91.91 0 0 1-.337.264.832.832 0 0 1-.408.072l-6.676-.035zm0 5.997v-2.472h6.721c.09.153.16.32.21.494.069.22.104.45.104.68a1.46 1.46 0 0 1-.268.954.954.954 0 0 1-.337.25.88.88 0 0 1-.402.072l-6.028.022zm0 6.384v-2.472h7.5c.075.156.139.319.189.487.07.231.106.473.105.716a1.46 1.46 0 0 1-.269.954.954.954 0 0 1-.337.249.88.88 0 0 1-.401.073l-6.787-.007zm14.659-2.178a2.784 2.784 0 0 0 1.922-.574 1.77 1.77 0 0 0 .48-.632c.114-.248.174-.523.174-.8a1.707 1.707 0 0 0-.116-.676 1.578 1.578 0 0 0-.368-.557 3.535 3.535 0 0 0-1.458-.795l-1.451-.495a11.172 11.172 0 0 1-1.962-.924 3.669 3.669 0 0 1-1.307-1.333 4.498 4.498 0 0 1-.392-2.749 4.247 4.247 0 0 1 1.281-2.402c1.08-.824 2.38-1.228 3.694-1.147a8.038 8.038 0 0 1 2.223.28c.556.14 1.08.401 1.543.766.282.213.478.538.544.906.066.369-.003.751-.191 1.065a1.756 1.756 0 0 1-.523.573 4.607 4.607 0 0 0-1.406-.717 5.853 5.853 0 0 0-1.961-.308 2.963 2.963 0 0 0-1.785.466c-.2.126-.365.308-.48.527a1.54 1.54 0 0 0-.174.72c-.004.196.033.39.11.569.075.177.188.334.328.455a3.62 3.62 0 0 0 1.308.717l1.307.415a7.255 7.255 0 0 1 2.988 1.727c.363.381.647.843.832 1.355.185.512.267 1.062.24 1.612a4.327 4.327 0 0 1-.344 1.807 3.96 3.96 0 0 1-1.048 1.446c-1.156.907-2.563 1.348-3.982 1.246a8.234 8.234 0 0 1-2.412-.315 4.184 4.184 0 0 1-1.66-.881 1.584 1.584 0 0 1-.444-.556 1.741 1.741 0 0 1-.172-.712 1.44 1.44 0 0 1 .314-.932c.181-.24.403-.44.654-.587a6.43 6.43 0 0 0 1.497 1.003 4.661 4.661 0 0 0 2.197.437zm21.184-5.288a9.409 9.409 0 0 1-.883 4.299c-.551 1.114-1.387 2.028-2.406 2.63a7.246 7.246 0 0 1-3.462.887c-1.2 0-2.385-.303-3.462-.887-1.018-.602-1.854-1.516-2.406-2.63a9.41 9.41 0 0 1-.882-4.3 9.226 9.226 0 0 1 .902-4.298 6.356 6.356 0 0 1 2.432-2.63 7.102 7.102 0 0 1 3.426-.888c1.19 0 2.363.304 3.426.888 1.02.616 1.854 1.545 2.4 2.673a9.275 9.275 0 0 1 .915 4.256zm-2.877 0a6.248 6.248 0 0 0-1.06-3.912 3.582 3.582 0 0 0-1.272-1.024 3.273 3.273 0 0 0-1.552-.316 3.234 3.234 0 0 0-1.528.322c-.481.232-.909.58-1.25 1.018a7.771 7.771 0 0 0-1.061 3.94c0 1.399.368 2.767 1.06 3.941.36.425.794.764 1.278.995a3.546 3.546 0 0 0 1.534.352c.528 0 1.05-.12 1.534-.352.484-.231.919-.57 1.277-.995a6.318 6.318 0 0 0 1.04-3.97zm8.636 1.254h-2.811V6.989l.542-.122c.248-.049.5-.073.752-.071a1.73 1.73 0 0 1 1.157.308c.136.145.239.323.301.52.063.196.083.406.059.612v7.416zm2.811 6.549a6.193 6.193 0 0 1-3.033-.717 4.638 4.638 0 0 1-1.962-1.97 6.402 6.402 0 0 1-.653-2.98V14.77h2.811v1.64c-.026.44.031.88.167 1.294.136.414.349.793.624 1.114a2.87 2.87 0 0 0 2.014.845 2.87 2.87 0 0 0 2.013-.845c.279-.319.495-.697.633-1.111.138-.415.197-.856.172-1.297v-1.64h2.831v1.82a6.35 6.35 0 0 1-.654 2.98 4.698 4.698 0 0 1-1.929 1.97 6.198 6.198 0 0 1-3.034.66zm5.643-6.528h-2.831V6.99l.555-.122c.251-.048.505-.072.759-.071a1.75 1.75 0 0 1 1.151.308c.137.144.242.322.306.518.063.197.084.407.06.614v7.437zm8.477.917h-4.864V8.214a.99.99 0 0 1 .046-.386.933.933 0 0 1 .189-.33c.178-.175.387-.307.615-.387a8.25 8.25 0 0 1 1.687-.365 14.78 14.78 0 0 1 1.961-.13c1.961 0 3.432.452 4.407 1.333.483.447.867 1.01 1.121 1.644.253.635.371 1.325.343 2.018a4.894 4.894 0 0 1-.686 2.593 4.63 4.63 0 0 1-1.903 1.749 6.419 6.419 0 0 1-2.916.637zm-4.864-1.074h2.831v6.255c-.179.064-.363.11-.549.136a4.445 4.445 0 0 1-.772.064 1.698 1.698 0 0 1-1.157-.33 1.465 1.465 0 0 1-.29-.516 1.567 1.567 0 0 1-.07-.601l.007-5.008zm2.811-1.348h1.857a3.235 3.235 0 0 0 2.099-.637c.26-.22.467-.508.603-.836.135-.329.195-.689.175-1.049a2.34 2.34 0 0 0-.175-1.035 2.127 2.127 0 0 0-.603-.82 3.588 3.588 0 0 0-2.302-.638c-.3 0-.588 0-.869.036s-.543.064-.785.114v4.865zm1.674 1.641l2.412-.76c.373.538.759 1.076 1.151 1.627l1.138 1.584c.366.516.693.988.98 1.433.288.444.517.774.654 1.053a1.74 1.74 0 0 1-.588.953 1.636 1.636 0 0 1-.981.332c-.35 0-.692-.116-.981-.332a3.808 3.808 0 0 1-.706-.889l-3.079-5zm19.218-6.935a1.48 1.48 0 0 1-.229.816 1.807 1.807 0 0 1-.549.552 7.727 7.727 0 0 0-1.308-.76 4.366 4.366 0 0 0-1.811-.336 4.076 4.076 0 0 0-2.196.595 3.888 3.888 0 0 0-1.471 1.784 7.13 7.13 0 0 0-.523 2.866c-.096 1.429.33 2.84 1.183 3.926.411.45.903.8 1.444 1.029.542.23 1.121.333 1.701.304a4.576 4.576 0 0 0 1.804-.323c.461-.18.9-.42 1.308-.716a1.72 1.72 0 0 1 .712 1.419 1.55 1.55 0 0 1-.189.76 1.641 1.641 0 0 1-.654.608c-.413.24-.852.42-1.308.538a8.022 8.022 0 0 1-5.531-.595c-1.049-.56-1.918-1.458-2.491-2.572a10.66 10.66 0 0 1-.915-4.335c0-1.503.313-2.985.915-4.335.571-1.116 1.422-2.029 2.452-2.63a6.608 6.608 0 0 1 3.374-.888 6.996 6.996 0 0 1 2.242.315 3.77 3.77 0 0 1 1.471.831c.169.131.307.303.406.501.098.199.154.42.163.646zm5.666 7.924h-2.765V8.63a1.72 1.72 0 0 1 .092-.645 1.61 1.61 0 0 1 .319-.552c.149-.15.323-.267.512-.343.19-.077.392-.11.593-.1.248 0 .496.026.739.078a3.9 3.9 0 0 1 .51.122v9.608zm-2.765-4.793h2.765v9.658a3.76 3.76 0 0 1-.51.122 3.596 3.596 0 0 1-.739.079 1.361 1.361 0 0 1-.596-.103c-.19-.08-.363-.2-.509-.356a1.634 1.634 0 0 1-.317-.544 1.72 1.72 0 0 1-.094-.638v-8.218zm1.516-2.522V6.989h7.401c.09.153.159.32.203.495a2.5 2.5 0 0 1 .085.716c.02.35-.07.696-.255.982a.912.912 0 0 1-.336.264.835.835 0 0 1-.409.072l-6.689-.035zm0 5.997v-2.472h6.748c.089.153.16.32.209.494.067.22.1.45.098.68.01.178-.012.355-.064.522a1.383 1.383 0 0 1-.243.453.94.94 0 0 1-.334.25.862.862 0 0 1-.399.073h-6.015zm0 6.384v-2.472h7.499c.076.156.14.319.19.487.068.231.101.473.098.716.027.344-.069.686-.268.954a.932.932 0 0 1-.334.25.858.858 0 0 1-.398.072l-6.787-.007zm21.787-3.167c-.583 1.134-1.471 2.042-2.543 2.6a8.111 8.111 0 0 1-3.838.86c-.488 0-1.07-.028-1.746-.085a6.86 6.86 0 0 1-1.85-.409 1.348 1.348 0 0 1-.774-.507 1.58 1.58 0 0 1-.318-.926V8.214c-.008-.13.008-.262.049-.385a.944.944 0 0 1 .187-.331 1.67 1.67 0 0 1 .614-.394 8.448 8.448 0 0 1 1.792-.366c.653-.064 1.255-.1 1.824-.1a8.738 8.738 0 0 1 3.922.846c1.085.538 1.996 1.422 2.616 2.536a8.645 8.645 0 0 1 .948 4.299 9.464 9.464 0 0 1-.883 4.378zm-2.576-7.294a3.97 3.97 0 0 0-1.608-1.684 4.783 4.783 0 0 0-2.308-.552c-.327 0-.654 0-.929.036-.274.036-.568.065-.836.115v10.138c.295.068.594.113.895.137.327 0 .654.035.981.035.6.042 1.201-.055 1.764-.284a4.252 4.252 0 0 0 1.505-1.048c.838-1.102 1.253-2.518 1.157-3.948a6.424 6.424 0 0 0-.601-2.945h-.02z" fill="#10084D"/><path fill="#C4C4C4" d="M30.262 30h.261v.263h-.261z"/><path d="M17.48 24.21h18.255c.348 0 .68.152.927.423.246.27.384.637.384 1.02v2.768H18.79c-.347 0-.68-.152-.927-.422a1.518 1.518 0 0 1-.384-1.02v-2.768z" fill="#5A36C7"/><path d="M7.566 20h18.255c.347 0 .68.152.927.422.245.27.384.637.384 1.02v2.768H8.877c-.347 0-.68-.151-.927-.422a1.518 1.518 0 0 1-.384-1.02V20z" fill="#7040FF"/><path d="M17.48 14.474h18.255c.348 0 .68.152.927.422.246.27.384.637.384 1.02v2.768H18.79c-.347 0-.68-.152-.927-.422a1.518 1.518 0 0 1-.384-1.02v-2.768z" fill="#2576BC"/><path d="M7.566 10.278h18.255c.347 0 .68.152.927.422.245.27.384.637.384 1.02v2.754H8.877c-.347 0-.68-.152-.927-.423a1.519 1.519 0 0 1-.384-1.02v-2.768.015z" fill="#51A4E4"/><path d="M17.48 4.737h18.255c.348 0 .68.152.927.422.246.27.384.637.384 1.02v2.768H18.79c-.347 0-.68-.152-.927-.422a1.518 1.518 0 0 1-.384-1.02V4.737z" fill="#65CED6"/><path d="M7.566.526h18.255c.347 0 .68.152.927.423.245.27.384.637.384 1.02v2.768H8.877c-.347 0-.68-.152-.927-.422a1.518 1.518 0 0 1-.384-1.02V.526z" fill="#8CE2E9"/></svg>