<svg width="168" height="30" viewBox="0 0 168 30" fill="none" xmlns="http://www.w3.org/2000/svg"><path d="M53.297 17.116h-4.864V8.741c-.01-.13.006-.262.045-.385a.951.951 0 0 1 .184-.332 1.72 1.72 0 0 1 .615-.387 8.256 8.256 0 0 1 1.687-.365c.65-.086 1.305-.13 1.96-.13 1.962 0 3.433.452 4.407 1.334a4.51 4.51 0 0 1 1.121 1.643 4.91 4.91 0 0 1 .344 2.018 4.96 4.96 0 0 1-.654 2.594 4.707 4.707 0 0 1-1.909 1.748 6.38 6.38 0 0 1-2.935.637zm-4.864-1.074h2.831v6.255c-.178.064-.362.11-.549.136a4.373 4.373 0 0 1-.765.064c-.41.037-.82-.08-1.164-.33a1.464 1.464 0 0 1-.286-.516 1.562 1.562 0 0 1-.067-.6v-5.01zm2.812-1.347h1.85c.744.04 1.48-.183 2.099-.638.26-.22.467-.508.602-.836.136-.329.196-.688.176-1.048a2.33 2.33 0 0 0-.175-1.036 2.125 2.125 0 0 0-.603-.82 3.587 3.587 0 0 0-2.302-.638c-.294 0-.588 0-.87.036-.28.036-.542.065-.777.115v4.865zm1.673 1.64l2.406-.759c.373.537.759 1.075 1.151 1.627l1.138 1.583c.366.516.693.989.98 1.433.288.444.517.774.654 1.053-.09.372-.289.7-.567.935a1.501 1.501 0 0 1-.97.362 1.504 1.504 0 0 1-1.039-.337 3.777 3.777 0 0 1-.7-.888l-3.053-5.008zm11.867.989H62.02V9.156c-.01-.22.02-.44.091-.645.071-.206.18-.394.32-.551a1.52 1.52 0 0 1 .512-.344c.19-.076.391-.11.593-.1.248 0 .496.026.74.078.171.028.342.069.509.122v9.608zm-2.765-4.793h2.765v9.658a3.557 3.557 0 0 1-.51.122c-.243.052-.49.079-.739.08a1.36 1.36 0 0 1-.596-.104c-.19-.079-.363-.2-.509-.355a1.623 1.623 0 0 1-.317-.545 1.736 1.736 0 0 1-.094-.638v-8.218zm1.516-2.522V7.515h7.388c.093.152.161.319.203.495.065.232.096.474.091.716.019.35-.074.697-.261.982a.91.91 0 0 1-.337.265.83.83 0 0 1-.408.072l-6.676-.036zm0 5.997v-2.472h6.721c.09.154.16.32.21.494.069.22.104.45.104.681a1.46 1.46 0 0 1-.268.953.956.956 0 0 1-.337.25.88.88 0 0 1-.402.072l-6.028.022zm0 6.384v-2.472h7.5c.075.156.139.32.189.487.07.231.106.473.105.717a1.46 1.46 0 0 1-.269.953.956.956 0 0 1-.337.25.88.88 0 0 1-.401.072l-6.787-.007zm14.659-2.178a2.784 2.784 0 0 0 1.922-.573c.203-.168.367-.384.48-.633a1.94 1.94 0 0 0 .174-.8 1.71 1.71 0 0 0-.116-.676 1.58 1.58 0 0 0-.368-.557 3.535 3.535 0 0 0-1.458-.795l-1.451-.494a11.177 11.177 0 0 1-1.962-.925 3.669 3.669 0 0 1-1.307-1.332 4.498 4.498 0 0 1-.392-2.75 4.247 4.247 0 0 1 1.28-2.402c1.08-.824 2.381-1.228 3.695-1.146a8.038 8.038 0 0 1 2.223.279c.555.14 1.08.401 1.543.767.282.212.478.537.544.906a1.55 1.55 0 0 1-.191 1.064 1.756 1.756 0 0 1-.523.573 4.605 4.605 0 0 0-1.406-.716 5.853 5.853 0 0 0-1.961-.308 2.963 2.963 0 0 0-1.785.465 1.38 1.38 0 0 0-.48.527 1.54 1.54 0 0 0-.174.72 1.38 1.38 0 0 0 .109.569c.076.178.189.334.33.456.388.33.832.574 1.307.716l1.307.416a7.255 7.255 0 0 1 2.988 1.726c.363.381.647.843.832 1.355.185.512.267 1.062.24 1.612a4.327 4.327 0 0 1-.344 1.807 3.96 3.96 0 0 1-1.048 1.446c-1.156.908-2.563 1.348-3.982 1.247a8.234 8.234 0 0 1-2.412-.316 4.181 4.181 0 0 1-1.661-.881 1.584 1.584 0 0 1-.442-.556 1.743 1.743 0 0 1-.173-.712 1.44 1.44 0 0 1 .314-.932c.181-.24.403-.44.654-.587.455.407.959.745 1.497 1.003a4.66 4.66 0 0 0 2.197.437zm21.182-5.288a9.41 9.41 0 0 1-.883 4.3 6.256 6.256 0 0 1-2.406 2.629 7.246 7.246 0 0 1-3.462.888c-1.2 0-2.385-.304-3.462-.888-1.018-.602-1.854-1.515-2.406-2.63a9.41 9.41 0 0 1-.882-4.299 9.226 9.226 0 0 1 .902-4.299 6.368 6.368 0 0 1 2.432-2.63 7.102 7.102 0 0 1 3.426-.888c1.19 0 2.363.304 3.426.889 1.02.616 1.854 1.544 2.4 2.672a9.277 9.277 0 0 1 .915 4.256zm-2.877 0a6.25 6.25 0 0 0-1.06-3.912 3.583 3.583 0 0 0-1.272-1.024 3.274 3.274 0 0 0-1.552-.316 3.234 3.234 0 0 0-1.528.322c-.481.232-.909.58-1.25 1.018a7.772 7.772 0 0 0-1.061 3.94c0 1.399.368 2.767 1.06 3.941.36.425.794.764 1.278.995a3.548 3.548 0 0 0 1.534.352c.528 0 1.05-.12 1.534-.351.484-.232.919-.57 1.277-.995a6.317 6.317 0 0 0 1.04-3.97zm8.638 1.254h-2.811V7.516l.542-.122c.248-.05.5-.073.752-.072a1.73 1.73 0 0 1 1.157.308c.136.146.239.324.301.52.063.196.083.406.059.612v7.416zm2.811 6.549a6.192 6.192 0 0 1-3.033-.717 4.638 4.638 0 0 1-1.962-1.97 6.402 6.402 0 0 1-.653-2.98v-1.763h2.811v1.64c-.026.44.031.88.167 1.294.136.415.349.794.624 1.114a2.87 2.87 0 0 0 2.014.845c.743 0 1.46-.3 2.013-.845.279-.318.495-.697.633-1.111.138-.415.197-.856.172-1.296v-1.641h2.83v1.82a6.338 6.338 0 0 1-.653 2.98 4.704 4.704 0 0 1-1.929 1.97 6.2 6.2 0 0 1-3.034.66zm5.643-6.527h-2.831V7.516l.555-.122a3.88 3.88 0 0 1 .759-.072c.404-.036.807.072 1.15.308.138.144.243.322.307.518.063.197.084.407.06.614V16.2zm8.479.916h-4.864V8.741a.99.99 0 0 1 .046-.387.918.918 0 0 1 .189-.33c.178-.175.387-.307.615-.387a8.25 8.25 0 0 1 1.687-.365 14.95 14.95 0 0 1 1.961-.13c1.961 0 3.432.452 4.407 1.334a4.509 4.509 0 0 1 1.12 1.643c.254.635.372 1.325.344 2.018a4.893 4.893 0 0 1-.686 2.594 4.63 4.63 0 0 1-1.903 1.748 6.423 6.423 0 0 1-2.916.637zm-4.864-1.074h2.831v6.255c-.179.064-.363.11-.549.136a4.463 4.463 0 0 1-.772.064 1.698 1.698 0 0 1-1.157-.33 1.464 1.464 0 0 1-.29-.515 1.568 1.568 0 0 1-.07-.602l.007-5.008zm2.811-1.347h1.857a3.24 3.24 0 0 0 2.099-.638c.26-.22.467-.508.603-.836.135-.329.195-.688.175-1.048a2.34 2.34 0 0 0-.175-1.036 2.126 2.126 0 0 0-.603-.82 3.588 3.588 0 0 0-2.302-.638c-.3 0-.588 0-.869.036s-.543.065-.785.115v4.865zm1.674 1.64l2.412-.759c.373.537.759 1.075 1.151 1.627l1.138 1.583c.366.516.693.989.98 1.433.288.444.517.774.654 1.053a1.74 1.74 0 0 1-.588.953 1.635 1.635 0 0 1-.981.332 1.63 1.63 0 0 1-.981-.332 3.806 3.806 0 0 1-.706-.888l-3.079-5.001zM140.906 9.4a1.48 1.48 0 0 1-.229.817 1.805 1.805 0 0 1-.549.551 7.73 7.73 0 0 0-1.308-.759 4.366 4.366 0 0 0-1.811-.337 4.076 4.076 0 0 0-2.196.595 3.888 3.888 0 0 0-1.471 1.784 7.13 7.13 0 0 0-.523 2.866c-.096 1.429.33 2.841 1.183 3.926.411.45.903.8 1.444 1.03a3.86 3.86 0 0 0 1.701.303 4.575 4.575 0 0 0 1.804-.322c.461-.18.9-.421 1.308-.717a1.72 1.72 0 0 1 .712 1.419 1.55 1.55 0 0 1-.189.76 1.642 1.642 0 0 1-.654.608c-.413.24-.852.421-1.308.538a8.022 8.022 0 0 1-5.531-.595c-1.049-.56-1.918-1.457-2.491-2.572a10.659 10.659 0 0 1-.915-4.335c0-1.503.313-2.985.915-4.335a6.408 6.408 0 0 1 2.452-2.63 6.608 6.608 0 0 1 3.374-.888 6.997 6.997 0 0 1 2.242.315 3.77 3.77 0 0 1 1.471.832c.168.13.307.302.406.5.098.2.154.42.163.646zm5.668 7.924h-2.765V9.156a1.74 1.74 0 0 1 .091-.645c.071-.206.18-.394.32-.551a1.52 1.52 0 0 1 .512-.344c.19-.076.392-.11.593-.1.248 0 .496.027.739.078a3.9 3.9 0 0 1 .51.122v9.608zm-2.765-4.793h2.765v9.658a3.79 3.79 0 0 1-.51.122 3.589 3.589 0 0 1-.739.08 1.36 1.36 0 0 1-.596-.104c-.19-.079-.363-.2-.509-.355a1.634 1.634 0 0 1-.317-.545 1.72 1.72 0 0 1-.094-.638v-8.218zm1.516-2.522V7.515h7.401c.09.153.159.32.203.495a2.5 2.5 0 0 1 .085.716c.02.35-.07.697-.255.982a.912.912 0 0 1-.336.265.834.834 0 0 1-.409.072l-6.689-.036zm0 5.997v-2.472h6.748c.089.154.16.32.209.494.067.22.1.45.098.681.01.177-.012.354-.064.521a1.383 1.383 0 0 1-.243.454.95.95 0 0 1-.334.25.865.865 0 0 1-.399.072h-6.015zm0 6.384v-2.472h7.499c.076.156.14.32.19.487.068.232.101.474.098.717.027.344-.069.685-.268.953a.932.932 0 0 1-.334.25.857.857 0 0 1-.398.072l-6.787-.007zm21.785-3.167c-.583 1.134-1.471 2.042-2.543 2.601a8.112 8.112 0 0 1-3.838.86c-.488 0-1.07-.029-1.746-.086a6.868 6.868 0 0 1-1.85-.409 1.348 1.348 0 0 1-.774-.507 1.58 1.58 0 0 1-.318-.926V8.741a1.026 1.026 0 0 1 .049-.386.944.944 0 0 1 .187-.33 1.67 1.67 0 0 1 .614-.395 8.448 8.448 0 0 1 1.792-.365c.653-.065 1.255-.1 1.824-.1a8.738 8.738 0 0 1 3.922.845c1.085.538 1.996 1.422 2.616 2.536a8.646 8.646 0 0 1 .948 4.3 9.465 9.465 0 0 1-.883 4.377zm-2.576-7.294a3.969 3.969 0 0 0-1.608-1.684 4.783 4.783 0 0 0-2.308-.551c-.327 0-.654 0-.929.035-.274.036-.568.065-.836.115v10.139a6.3 6.3 0 0 0 .895.136c.327 0 .654.035.981.035.6.043 1.201-.054 1.764-.284a4.253 4.253 0 0 0 1.505-1.048c.838-1.102 1.253-2.517 1.157-3.948a6.423 6.423 0 0 0-.601-2.945h-.02z" fill="#fff"/><path d="M17.467 24.737H35.71c.347 0 .68.152.926.422s.384.637.384 1.02v2.768H18.777c-.348 0-.68-.152-.927-.422a1.519 1.519 0 0 1-.383-1.02v-2.768z" fill="#5A36C7"/><path d="M7.56 20.526h18.244c.347 0 .68.152.926.423.246.27.384.637.384 1.02v2.768H8.87c-.348 0-.681-.152-.927-.423a1.519 1.519 0 0 1-.383-1.02v-2.768z" fill="#7040FF"/><path d="M17.467 15H35.71c.347 0 .68.152.926.422s.384.637.384 1.02v2.768H18.777c-.348 0-.68-.151-.927-.422a1.519 1.519 0 0 1-.383-1.02V15z" fill="#2576BC"/><path d="M7.56 10.804h18.244c.347 0 .68.152.926.422s.384.637.384 1.02V15H8.87c-.348 0-.681-.152-.927-.422a1.519 1.519 0 0 1-.383-1.02v-2.769.015z" fill="#51A4E4"/><path d="M17.467 5.263H35.71c.347 0 .68.152.926.423.246.27.384.637.384 1.02v2.768H18.777c-.348 0-.68-.152-.927-.423a1.519 1.519 0 0 1-.383-1.02V5.264z" fill="#65CED6"/><path d="M7.56 1.053h18.244c.347 0 .68.152.926.422s.384.637.384 1.02v2.768H8.87c-.348 0-.681-.152-.927-.422a1.519 1.519 0 0 1-.383-1.02V1.053z" fill="#8CE2E9"/></svg>