<svg width="181" height="32" viewBox="0 0 181 32" fill="none" xmlns="http://www.w3.org/2000/svg"><path d="M57.422 18.258h-5.24V9.323c-.01-.139.005-.278.048-.41.043-.132.11-.252.198-.354a1.85 1.85 0 0 1 .662-.413 8.974 8.974 0 0 1 1.818-.39 16.326 16.326 0 0 1 2.113-.137c2.113 0 3.698.482 4.748 1.422a4.82 4.82 0 0 1 1.207 1.753c.274.677.4 1.413.37 2.152a5.248 5.248 0 0 1-.704 2.767 5.051 5.051 0 0 1-2.057 1.865 6.932 6.932 0 0 1-3.163.68zm-5.24-1.147h3.05v6.672c-.193.07-.39.118-.592.146-.273.047-.548.07-.824.068a1.862 1.862 0 0 1-1.254-.351 1.558 1.558 0 0 1-.309-.552 1.65 1.65 0 0 1-.071-.64V17.11zm3.029-1.437h1.993a3.512 3.512 0 0 0 2.261-.68c.28-.235.504-.541.65-.892.146-.35.21-.734.188-1.118a2.456 2.456 0 0 0-.188-1.104 2.267 2.267 0 0 0-.65-.875 3.892 3.892 0 0 0-2.48-.68c-.316 0-.633 0-.936.038-.303.038-.585.069-.838.122v5.19zm1.803 1.75l2.592-.81c.401.574.817 1.147 1.24 1.735l1.225 1.69c.395.55.747 1.054 1.057 1.528.31.474.556.825.704 1.123a1.873 1.873 0 0 1-.61.998c-.3.25-.667.386-1.045.386-.4.025-.796-.102-1.12-.36a4.037 4.037 0 0 1-.754-.947l-3.29-5.342zm12.784 1.056h-2.98V9.766a1.838 1.838 0 0 1 .1-.689c.076-.22.193-.42.344-.588.16-.16.347-.285.552-.366.204-.082.421-.118.639-.108.267 0 .533.029.796.085.185.03.369.073.549.13v10.248zm-2.98-5.114h2.98V23.67c-.18.056-.364.1-.55.13a3.857 3.857 0 0 1-.795.084 1.479 1.479 0 0 1-.643-.11 1.582 1.582 0 0 1-.548-.38 1.729 1.729 0 0 1-.342-.58 1.837 1.837 0 0 1-.102-.68v-8.767zm1.635-2.69v-2.66h7.96c.099.162.173.34.218.528.07.247.103.505.098.764.02.374-.08.744-.282 1.047a.979.979 0 0 1-.362.282.903.903 0 0 1-.44.077l-7.192-.038zm0 6.397v-2.637h7.24c.098.164.173.342.226.528a2.4 2.4 0 0 1 .113.726c.025.366-.078.729-.289 1.016a1.03 1.03 0 0 1-.363.266.958.958 0 0 1-.433.078l-6.494.023zm0 6.81v-2.637h8.079c.082.167.15.34.204.52.076.246.114.504.113.764a1.54 1.54 0 0 1-.289 1.016 1.029 1.029 0 0 1-.363.267.956.956 0 0 1-.433.077l-7.311-.007zm15.792-2.323a3.021 3.021 0 0 0 2.071-.612 1.89 1.89 0 0 0 .518-.674 2.05 2.05 0 0 0 .186-.854 1.807 1.807 0 0 0-.125-.72 1.683 1.683 0 0 0-.396-.595 3.82 3.82 0 0 0-1.57-.848l-1.564-.527a12.094 12.094 0 0 1-2.113-.986 3.932 3.932 0 0 1-1.41-1.422 4.755 4.755 0 0 1-.422-2.932 4.516 4.516 0 0 1 1.38-2.563 5.982 5.982 0 0 1 3.98-1.223 8.742 8.742 0 0 1 2.395.298c.6.15 1.164.428 1.663.818.304.226.515.573.586.967.071.393-.003.8-.206 1.135a1.882 1.882 0 0 1-.563.611 4.982 4.982 0 0 0-1.515-.764 6.362 6.362 0 0 0-2.113-.329 3.218 3.218 0 0 0-1.923.497 1.474 1.474 0 0 0-.517.562 1.63 1.63 0 0 0-.187.768c-.005.21.035.417.117.607s.203.356.355.486c.418.353.897.612 1.408.764l1.41.443a7.835 7.835 0 0 1 3.218 1.842c.391.406.697.9.896 1.445a4.4 4.4 0 0 1 .26 1.72 4.577 4.577 0 0 1-.371 1.927 4.226 4.226 0 0 1-1.13 1.542c-1.245.968-2.761 1.438-4.29 1.33a8.954 8.954 0 0 1-2.599-.336 4.522 4.522 0 0 1-1.789-.94 1.695 1.695 0 0 1-.477-.593 1.844 1.844 0 0 1-.185-.76c-.007-.366.114-.72.338-.994a2.41 2.41 0 0 1 .704-.626c.49.434 1.034.794 1.614 1.07a5.065 5.065 0 0 0 2.366.466zm22.821-5.64a9.942 9.942 0 0 1-.951 4.585c-.594 1.189-1.494 2.164-2.592 2.805a7.867 7.867 0 0 1-3.73.947 7.868 7.868 0 0 1-3.73-.947 6.698 6.698 0 0 1-2.591-2.805 9.952 9.952 0 0 1-.951-4.586 9.758 9.758 0 0 1 .972-4.585 6.808 6.808 0 0 1 2.62-2.805 7.713 7.713 0 0 1 3.691-.948 7.71 7.71 0 0 1 3.691.948 6.765 6.765 0 0 1 2.585 2.85 9.8 9.8 0 0 1 .986 4.54zm-3.099 0a6.615 6.615 0 0 0-1.141-4.174 3.856 3.856 0 0 0-1.371-1.091 3.557 3.557 0 0 0-1.672-.338 3.514 3.514 0 0 0-1.647.344 3.81 3.81 0 0 0-1.347 1.085 8.226 8.226 0 0 0-1.143 4.204c0 1.491.397 2.951 1.143 4.203.387.453.855.815 1.376 1.062a3.854 3.854 0 0 0 1.653.374c.569 0 1.132-.127 1.653-.374.521-.247.99-.609 1.376-1.062a6.685 6.685 0 0 0 1.12-4.234zm9.307 1.337h-3.029v-9.24l.584-.13c.268-.053.539-.078.811-.077.437-.042.875.074 1.246.329.146.155.257.345.325.554.067.21.088.433.063.653v7.91zm3.029 6.985a6.728 6.728 0 0 1-3.269-.764 4.973 4.973 0 0 1-2.113-2.102 6.771 6.771 0 0 1-.704-3.18v-1.88h3.029v1.75c-.028.47.033.939.18 1.38.146.443.375.847.672 1.189.596.58 1.368.901 2.169.901.801 0 1.574-.32 2.17-.901.3-.34.532-.744.681-1.186.15-.442.213-.913.185-1.382v-1.75h3.05v1.94a6.695 6.695 0 0 1-.704 3.18 5.04 5.04 0 0 1-2.078 2.102 6.736 6.736 0 0 1-3.268.703zm6.078-6.963h-3.05V8.017l.599-.13c.27-.052.543-.078.817-.077a1.9 1.9 0 0 1 1.24.329c.148.154.261.343.33.553.068.21.09.434.064.654v7.933zm9.138.979h-5.241V9.323c-.011-.14.006-.28.05-.412a.97.97 0 0 1 .204-.352c.191-.187.417-.327.662-.413a8.971 8.971 0 0 1 1.817-.39 16.248 16.248 0 0 1 2.113-.137c2.113 0 3.698.482 4.748 1.422a4.81 4.81 0 0 1 1.207 1.753c.274.677.401 1.413.371 2.152a5.18 5.18 0 0 1-.74 2.767 4.965 4.965 0 0 1-2.05 1.865 6.975 6.975 0 0 1-3.141.68zm-5.241-1.147h3.05v6.672a2.94 2.94 0 0 1-.592.146 4.73 4.73 0 0 1-.831.068 1.845 1.845 0 0 1-1.247-.351 1.56 1.56 0 0 1-.312-.55 1.638 1.638 0 0 1-.075-.642l.007-5.343zm3.029-1.437h2a3.51 3.51 0 0 0 2.261-.68c.281-.235.504-.541.65-.892.146-.35.211-.734.189-1.118a2.47 2.47 0 0 0-.189-1.104 2.266 2.266 0 0 0-.65-.875 3.89 3.89 0 0 0-2.479-.68c-.324 0-.634 0-.937.038-.303.038-.584.069-.845.122v5.19zm1.803 1.75l2.599-.81c.402.574.817 1.147 1.24 1.735l1.226 1.69c.394.55.746 1.054 1.056 1.528.31.474.557.825.705 1.123a1.856 1.856 0 0 1-.634 1.017 1.78 1.78 0 0 1-1.057.354 1.77 1.77 0 0 1-1.056-.354 4.028 4.028 0 0 1-.761-.948l-3.318-5.334zm20.7-7.397a1.57 1.57 0 0 1-.247.871 1.93 1.93 0 0 1-.591.588 8.443 8.443 0 0 0-1.409-.81 4.752 4.752 0 0 0-1.951-.359 4.427 4.427 0 0 0-2.367.634 4.163 4.163 0 0 0-1.585 1.904 7.561 7.561 0 0 0-.564 3.057c-.102 1.524.356 3.03 1.275 4.188.443.479.973.853 1.557 1.097a4.19 4.19 0 0 0 1.832.324c.662.017 1.321-.1 1.944-.344a6.345 6.345 0 0 0 1.408-.764 1.826 1.826 0 0 1 .768 1.514c.003.285-.068.566-.204.81a1.766 1.766 0 0 1-.704.65 5.577 5.577 0 0 1-1.409.572 8.72 8.72 0 0 1-5.959-.634c-1.131-.598-2.067-1.555-2.684-2.744a11.266 11.266 0 0 1-.986-4.623c0-1.603.337-3.185.986-4.624a6.853 6.853 0 0 1 2.641-2.805 7.178 7.178 0 0 1 3.635-.948 7.609 7.609 0 0 1 2.416.336 4.077 4.077 0 0 1 1.585.887c.181.14.331.322.437.534.106.212.166.448.176.689zm6.109 8.453h-2.979V9.766a1.824 1.824 0 0 1 .099-.689c.076-.22.193-.42.344-.588.16-.16.347-.285.552-.366.204-.082.421-.118.639-.108.267.001.533.03.796.085.185.03.369.073.549.13v10.248zm-2.979-5.114h2.979V23.67c-.18.056-.364.099-.549.13a3.913 3.913 0 0 1-.796.084 1.475 1.475 0 0 1-.642-.11 1.585 1.585 0 0 1-.549-.38 1.744 1.744 0 0 1-.342-.58 1.822 1.822 0 0 1-.101-.68v-8.767zm1.634-2.69v-2.66h7.973c.097.163.171.341.219.528.067.248.098.506.091.764.022.373-.075.743-.274 1.047a.975.975 0 0 1-.363.282.9.9 0 0 1-.44.077l-7.206-.038zm0 6.397v-2.637h7.269c.097.164.173.342.225.528.073.234.108.479.106.726.011.188-.012.377-.069.556a1.457 1.457 0 0 1-.262.483c-.1.116-.223.207-.359.267a.939.939 0 0 1-.43.077h-6.48zm0 6.81v-2.637h8.079c.082.167.15.34.204.52.074.247.109.505.106.764.029.366-.075.73-.289 1.016a.994.994 0 0 1-.359.267.937.937 0 0 1-.43.077l-7.311-.007zm23.467-3.378c-.628 1.21-1.585 2.178-2.74 2.774a8.81 8.81 0 0 1-4.135.917c-.526 0-1.153-.03-1.881-.091a7.465 7.465 0 0 1-1.993-.436 1.456 1.456 0 0 1-.835-.541 1.68 1.68 0 0 1-.341-.988V9.323a1.06 1.06 0 0 1 .253-.764 1.81 1.81 0 0 1 .662-.42c.63-.2 1.277-.33 1.93-.39a20.278 20.278 0 0 1 1.966-.107 9.495 9.495 0 0 1 4.226.902c1.168.574 2.15 1.517 2.818 2.705a9.155 9.155 0 0 1 1.021 4.586 10.005 10.005 0 0 1-.951 4.67zm-2.775-7.78a4.252 4.252 0 0 0-1.733-1.796 5.196 5.196 0 0 0-2.487-.589c-.352 0-.704 0-1 .038-.296.038-.613.069-.901.123v10.814c.318.072.64.12.965.145.352 0 .704.038 1.056.038a4.28 4.28 0 0 0 1.901-.303 4.574 4.574 0 0 0 1.621-1.118c.903-1.175 1.35-2.685 1.247-4.211a6.804 6.804 0 0 0-.648-3.141h-.021z" fill="#fff"/><path d="M18.816 26.386h19.655c.375 0 .734.162.998.45.265.29.414.68.414 1.088v2.954H20.228c-.375 0-.734-.163-.998-.451a1.611 1.611 0 0 1-.414-1.088v-2.953z" fill="#5A36C7"/><path d="M8.145 21.895h19.654c.375 0 .734.162.998.45.265.289.414.68.414 1.088v2.953H9.556c-.374 0-.733-.162-.998-.45a1.611 1.611 0 0 1-.413-1.088v-2.953z" fill="#7040FF"/><path d="M18.816 16h19.655c.375 0 .734.162.998.45.265.289.414.68.414 1.088v2.953H20.228c-.375 0-.734-.162-.998-.45a1.61 1.61 0 0 1-.414-1.088V16z" fill="#2576BC"/><path d="M8.145 11.524h19.654c.375 0 .734.162.998.45.265.29.414.68.414 1.088V16H9.556c-.374 0-.733-.162-.998-.45a1.61 1.61 0 0 1-.413-1.088v-2.953.015z" fill="#51A4E4"/><path d="M18.816 5.614h19.655c.375 0 .734.162.998.45.265.29.414.68.414 1.088v2.953H20.228c-.375 0-.734-.162-.998-.45a1.61 1.61 0 0 1-.414-1.088V5.614z" fill="#65CED6"/><path d="M8.145 1.123h19.654c.375 0 .734.162.998.45.265.289.414.68.414 1.088v2.953H9.556c-.374 0-.733-.162-.998-.45a1.61 1.61 0 0 1-.413-1.088V1.123z" fill="#8CE2E9"/></svg>