<svg width="418" height="263" viewBox="0 0 418 263" fill="none" xmlns="http://www.w3.org/2000/svg"><g clip-path="url(#a)"><path d="M23.266 237.875h342.583V84.097L149.797 20.023 23.266 84.097v153.778z" fill="#51A4E4"/><path opacity=".2" d="M23 117.383V238h343v-73.741c-61.155 15.957-180.771 64.741-216.369 0C123.308 116.385 54.242 113.061 23 117.383z" fill="#7040FF"/><path d="M352.211 56.064h64.184s-4.814-12.013-17.65-9.61c0 0-.803-12.014-16.047-12.014-15.243 0-16.848 15.69-16.848 15.69s-13.639 2.73-13.639 5.934zM93.66 43.586a5.964 5.964 0 0 0-.905-5.058 5.982 5.982 0 0 0-4.503-2.487 12.806 12.806 0 0 0-4.117-8.413 12.849 12.849 0 0 0-17.463.099 12.806 12.806 0 0 0-4.021 8.458 8.421 8.421 0 0 0-9.189-1.92 8.413 8.413 0 0 0-3.812 3.085 8.391 8.391 0 0 0-1.44 4.682c.001.424.036.847.103 1.266-.433 0-.866-.064-1.307-.064a15.62 15.62 0 0 0-10.984 4.509l-10.815 3.516h84.707s-8.44-9.74-16.255-7.673z" stroke="#51A4E4" stroke-width="2" stroke-linecap="round" stroke-linejoin="round"/><path d="M377.886 87.501L149.687 19.823 16.047 87.5" stroke="#7040FF" stroke-width="4" stroke-linecap="round" stroke-linejoin="round"/><path d="M389.116 237.875H365.85v-62.473l23.266 13.616v48.857z" fill="#51A4E4"/><path d="M332.956 181.81H84.242v34.44h248.714v-34.44z" fill="#fff" stroke="#7040FF" stroke-width="2" stroke-linecap="round" stroke-linejoin="round"/><path d="M84.242 199.43h248.714m-224.155-17.62v34.44m30.801-34.44v34.44m20.859-34.44v34.44m32.092-34.44v34.44m31.291-34.44v34.44m9.627-34.44v34.44m36.906-34.44v34.44m39.312-34.44v34.44" stroke="#7040FF" stroke-width="2" stroke-linecap="round" stroke-linejoin="round"/><path d="M299.714 107H51v34.44h248.714V107z" fill="#fff" stroke="#7040FF" stroke-width="2" stroke-linecap="round" stroke-linejoin="round"/><path d="M51 124.62h248.714M75.559 107v34.44m30.8-34.44v34.44m20.86-34.44v34.44M159.311 107v34.44M190.602 107v34.44m9.627-34.44v34.44M237.135 107v34.44M276.447 107v34.44" stroke="#7040FF" stroke-width="2" stroke-linecap="round" stroke-linejoin="round"/><path d="M60.5 198c2.52 0 4.936 1.032 6.718 2.869 1.781 1.837 2.782 4.329 2.782 6.927V238H51v-30.204c0-2.598 1-5.09 2.782-6.927C55.564 199.032 57.98 198 60.5 198zm-11.56 43.479a10.79 10.79 0 0 0-4.573-8.81c.368-1.304.556-2.651.561-4.005a14.788 14.788 0 0 0-2.289-7.892 14.821 14.821 0 0 0-6.15-5.459 6.397 6.397 0 0 0-2.576-7.725 6.418 6.418 0 0 0-2.76-.949 15.595 15.595 0 0 0-5.477-10.005 15.647 15.647 0 0 0-21.235 1.093A15.586 15.586 0 0 0 .023 208.24v44.051h38.511a10.823 10.823 0 0 0 7.39-3.308 10.788 10.788 0 0 0 3.016-7.504zm97.078-3.412a6.076 6.076 0 0 0-1.833-4.075 6.095 6.095 0 0 0-4.128-1.724 5.97 5.97 0 0 0-2.896.713v-.312a3.595 3.595 0 0 0-2.228-3.332 3.602 3.602 0 0 0-1.383-.273 3.03 3.03 0 0 0-.537.057 7.589 7.589 0 0 0 .899-5.664 7.604 7.604 0 0 0-3.321-4.679 7.626 7.626 0 0 0-5.651-1.031 7.614 7.614 0 0 0-4.764 3.204 6.799 6.799 0 0 0-8.561-1.353 12.009 12.009 0 0 0-4.48-5.945 12.046 12.046 0 0 0-14.17.262 12.015 12.015 0 0 0-4.255 6.107 11.795 11.795 0 0 0-.04 6.752 5.614 5.614 0 0 0-4.076 3.404 6.427 6.427 0 0 0-4.188-1.089 6.558 6.558 0 0 0-4.199 2.163 6.539 6.539 0 0 0-1.65 4.42v3.324a5.274 5.274 0 0 0 3.268 4.886 5.3 5.3 0 0 0 2.027.4h60.55a6.021 6.021 0 0 0 4.071-1.97 5.998 5.998 0 0 0 1.545-4.245zm271.981-15.41a30.803 30.803 0 0 0-9.308-20.845 30.915 30.915 0 0 0-42.471-.59 30.807 30.807 0 0 0-9.886 20.578 18.861 18.861 0 0 0-29.685 6.336 8.777 8.777 0 0 0-8.737-.577 24.427 24.427 0 0 0-7.62-10.676 24.508 24.508 0 0 0-25.063-3.444 24.468 24.468 0 0 0-10.226 8.223 24.403 24.403 0 0 0-1.966 25.18 24.44 24.44 0 0 0 8.826 9.705 24.506 24.506 0 0 0 12.581 3.754h123.555v-37.644z" fill="#fff"/><path d="M48.94 241.479a10.79 10.79 0 0 0-4.573-8.81c.368-1.304.557-2.651.562-4.005a14.793 14.793 0 0 0-2.29-7.892 14.828 14.828 0 0 0-6.15-5.459 6.398 6.398 0 0 0-2.575-7.725 6.418 6.418 0 0 0-2.761-.949 15.602 15.602 0 0 0-5.182-9.728 15.652 15.652 0 0 0-10.326-3.888m130.373 45.044a6.076 6.076 0 0 0-1.833-4.075 6.095 6.095 0 0 0-4.128-1.724 5.97 5.97 0 0 0-2.896.713v-.312a3.595 3.595 0 0 0-2.228-3.332 3.602 3.602 0 0 0-1.383-.273 3.03 3.03 0 0 0-.537.057 7.589 7.589 0 0 0 .899-5.664 7.604 7.604 0 0 0-3.321-4.679 7.626 7.626 0 0 0-5.651-1.031 7.614 7.614 0 0 0-4.764 3.204 6.799 6.799 0 0 0-8.561-1.353 12.009 12.009 0 0 0-4.48-5.945 12.046 12.046 0 0 0-14.17.262 12.015 12.015 0 0 0-4.255 6.107 11.795 11.795 0 0 0-.04 6.752 5.614 5.614 0 0 0-4.076 3.404 6.427 6.427 0 0 0-4.188-1.089 6.558 6.558 0 0 0-4.199 2.163 6.539 6.539 0 0 0-1.65 4.42v3.324m197.327 5.342a24.39 24.39 0 0 1 .72-18.748 24.465 24.465 0 0 1 13.822-12.712 24.516 24.516 0 0 1 18.776.816 24.442 24.442 0 0 1 12.662 13.865 8.777 8.777 0 0 1 8.737.577 18.845 18.845 0 0 1 13.238-10.66 18.861 18.861 0 0 1 16.447 4.324 30.793 30.793 0 0 1 9.718-20.467 30.9 30.9 0 0 1 21.107-8.31s14.256-.465 22.175 9.379" stroke="#7040FF" stroke-width="2" stroke-linecap="round" stroke-linejoin="round"/><path d="M303.135 197.933a.809.809 0 0 1-.361-.056l-7.967-16.716a2.84 2.84 0 0 1 1.243-1.033 3.108 3.108 0 0 1 1.284-.336.746.746 0 0 1 .361.064l7.983 16.715a2.786 2.786 0 0 1-1.26 1.033c-.4.198-.837.31-1.283.329z" fill="#fff"/><path d="M297.174 180.609l7.557 15.834a2.298 2.298 0 0 1-.658.433c-.237.119-.491.2-.754.24l-7.565-15.834a2.93 2.93 0 0 1 .666-.433c.238-.117.492-.198.754-.24zm.184-1.602a3.86 3.86 0 0 0-1.604.416c-1.196.561-1.926 1.506-1.645 2.099l8.023 16.771a1.086 1.086 0 0 0 1.043.457 3.963 3.963 0 0 0 1.605-.409c1.187-.568 1.925-1.505 1.604-2.098l-8.023-16.772a1.092 1.092 0 0 0-1.043-.464h.04z" fill="#10084D"/><mask id="b" style="mask-type:alpha" maskUnits="userSpaceOnUse" x="160" y="1" width="186" height="186"><path d="M253.127 186.616c51.178 0 92.666-41.417 92.666-92.507S304.305 1.602 253.127 1.602s-92.666 41.417-92.666 92.507 41.488 92.507 92.666 92.507z" fill="#fff"/></mask><g mask="url(#b)"><path fill="#fff" d="M160.838 0h191.767v191.513H160.838z"/><path d="M328.143 82.495h-3.209v24.829h3.209V82.495z" fill="#fff" stroke="#10084D" stroke-width="2" stroke-linecap="round" stroke-linejoin="round"/><path d="M320.119 77.69l35.301 72.708h42.523L344.188 77.69h-24.069zm-129.17 0l-6.13 4.517-92.553 68.191h74.614l60.975-72.708h-36.906z" fill="#fff" stroke="#10084D" stroke-width="2" stroke-linecap="round" stroke-linejoin="round"/><path d="M207.099 95.83h-35.245s-8.184 1.53-6.579 6.913c1.605 5.382 8.023 1.377 8.023 6.984 0 5.606 23.668 4.805 23.668 4.805l12.387-15.217-2.254-3.484z" fill="#7040FF"/><path d="M191.887 90.569v6.343" stroke="#10084D" stroke-width="2" stroke-linecap="round" stroke-linejoin="round"/><path d="M205.791 96.28V82.494l-11.233 7.921H181.32v-7.36a4.251 4.251 0 0 1 1.757-3.428l18.301-13.151h14.441v17.62L205.791 96.28z" fill="#fff" stroke="#10084D" stroke-width="2" stroke-linecap="round" stroke-linejoin="round"/><path d="M211.808 70.481l-17.249 11.966m-3.202 0h-6.539m9.34 2.451v2.603" stroke="#10084D" stroke-width="2" stroke-linecap="round" stroke-linejoin="round"/><path d="M233.117 133.546s-12.348-9.066-12.484-14.545l-11.617 4.686s2.776 12.23 17.562 17.1l6.539-7.241z" fill="#fff" stroke="#10084D" stroke-width="2" stroke-linecap="round" stroke-linejoin="round"/><path d="M233.118 133.546l1.869 1.298a1.592 1.592 0 0 1 .698 1.106c.031.223.016.45-.046.667-.062.216-.17.417-.315.59l-6.803 8.409-4.862.505a.802.802 0 0 1-.642-1.41l2.407-2.274 1.155-1.65 6.539-7.241z" fill="#fff" stroke="#10084D" stroke-width="2" stroke-linecap="round" stroke-linejoin="round"/><path d="M253.127 2.403a91.968 91.968 0 0 1 58.275 20.83 91.686 91.686 0 0 1 31.812 53.008 91.58 91.58 0 0 1-9.093 61.122 91.81 91.81 0 0 1-45.87 41.491 92.02 92.02 0 0 1-61.824 3.025 91.856 91.856 0 0 1-49.715-36.813 91.59 91.59 0 0 1-15.037-59.94 91.643 91.643 0 0 1 26.465-55.86 91.258 91.258 0 0 1 29.796-19.934 91.387 91.387 0 0 1 35.191-6.93zm0-1.602a93.584 93.584 0 0 0-51.929 15.725 93.345 93.345 0 0 0-34.425 41.875 93.166 93.166 0 0 0-5.319 53.911 93.272 93.272 0 0 0 25.58 47.776 93.521 93.521 0 0 0 47.858 25.536 93.62 93.62 0 0 0 54.003-5.31 93.44 93.44 0 0 0 41.948-34.366 93.197 93.197 0 0 0 15.752-51.84 93.23 93.23 0 0 0-27.376-65.978A93.55 93.55 0 0 0 253.127.801z" fill="#10084D"/><path d="M304.876 124.144h-13.639c-1.489 0-2.918.59-3.971 1.642a5.6 5.6 0 0 0 0 7.928 5.618 5.618 0 0 0 3.971 1.642h13.639a5.62 5.62 0 0 0 3.972-1.642 5.6 5.6 0 0 0 0-7.928 5.62 5.62 0 0 0-3.972-1.642zm11.433-20.024c-1.011 0-1.98.401-2.695 1.115a3.803 3.803 0 0 0-1.116 2.69v5.206a3.804 3.804 0 0 0 3.811 3.804 3.804 3.804 0 0 0 3.811-3.804v-5.206a3.803 3.803 0 0 0-1.116-2.69 3.813 3.813 0 0 0-2.695-1.115zm-73.01-12.814a3.804 3.804 0 0 0-3.811 3.804v5.206a3.803 3.803 0 0 0 3.811 3.804c1.011 0 1.98-.4 2.695-1.114a3.799 3.799 0 0 0 1.116-2.69V95.11a3.8 3.8 0 0 0-1.116-2.69 3.815 3.815 0 0 0-2.695-1.114zm-5.817 24.828h-13.639c-1.49 0-2.918.591-3.972 1.642a5.604 5.604 0 0 0 3.972 9.571h13.639c1.489 0 2.918-.59 3.971-1.642a5.6 5.6 0 0 0 0-7.929 5.623 5.623 0 0 0-3.971-1.642z" fill="#51A4E4"/><path d="M305.253 127.347s-10.005 4.005-19.632 4.005c-9.628 0-1.87-18.422-1.87-18.422l10.695-4.004 10.807 18.421z" fill="#fff" stroke="#10084D" stroke-width="2" stroke-linecap="round" stroke-linejoin="round"/><path d="M251.121 77.69l-4.012 72.708h49.743l-17.65-72.708h-28.081zm54.107 2.707s2.054 5.302 1.252 5.302c-.803 0-7.221 1.802-7.221 1.802l-1.605-5.254 7.574-1.85z" fill="#fff" stroke="#10084D" stroke-width="2" stroke-linecap="round" stroke-linejoin="round"/><path d="M292.937 69.04s-1.701-6.568 3.916-7.369c5.616-.8 7.068-.96 9.146-3.284 2.078-2.322 12.965-3.067 11.714 5.687-1.605 11.213 3.104 14.216-12.484 16.323L292.937 69.04z" fill="#10084D"/><path d="M203.248 97.104s-11.497 3.813-16.311 3.813c0 0-8.488-1.602-10.261 0 0 0-.971.801 3.843 1.602 0 0-4.012 1.601-3.209 3.203.802 1.602 4.268 3.028 8.552 1.514 0 0 17.121.088 22.738-3.116l-5.352-7.016z" fill="#fff" stroke="#10084D" stroke-width="2" stroke-linecap="round" stroke-linejoin="round"/><path d="M226.2 71.923l2.656 5.366-5.817 5.206-4.027-5.286 7.188-5.286z" stroke="#10084D" stroke-width="2" stroke-linecap="round" stroke-linejoin="round"/><path d="M210.38 62.649c0-5.783-1.781-17.797 7.846-17.797 9.628 0 8.023 8.01 8.023 8.01s7.221 1.601 7.221 10.411c0 8.81-7.269 8.65-7.269 8.65L210.38 62.65z" fill="#10084D"/><path d="M217.826 77.29c5.096 0 9.227-4.125 9.227-9.211 0-5.087-4.131-9.211-9.227-9.211s-9.226 4.124-9.226 9.21c0 5.087 4.13 9.211 9.226 9.211zm81.835 5.206c4.652 0 8.424-3.766 8.424-8.41 0-4.645-3.772-8.41-8.424-8.41-4.653 0-8.425 3.765-8.425 8.41 0 4.644 3.772 8.41 8.425 8.41z" fill="#fff" stroke="#10084D" stroke-width="2" stroke-linecap="round" stroke-linejoin="round"/><path d="M299.26 75.688a1.6 1.6 0 0 1-1.605 1.601 1.606 1.606 0 0 1-1.604-1.602m-79.43-4.805a1.6 1.6 0 0 1-1.604 1.602 1.606 1.606 0 0 1-1.605-1.602" stroke="#10084D" stroke-width="2" stroke-linecap="round" stroke-linejoin="round"/><path d="M202.982 95.31s11.457-11.213 13.351-12.815a20.077 20.077 0 0 1 13.326-5.206c7.02 0 13.439 12.415 13.439 34.841 0 5.606-18.357 9.611-18.357 9.611l-10.526-13.616 4.412-1.602s-2.005-4.005.401-6.407l-9.627 5.935-6.419-10.74z" fill="#FFEEC1" stroke="#10084D" stroke-width="2" stroke-linecap="round" stroke-linejoin="round"/><path d="M218.227 100.116c4.011-2.403 5.712-7.369 5.712-7.369m-6.113 13.752l3.258 1.474" stroke="#10084D" stroke-width="2" stroke-linecap="round" stroke-linejoin="round"/><path d="M306.481 85.699s8.023 4.806 8.023 20.824c0 16.019-9.251 20.824-9.251 20.824l-12.556-15.73s.145-18.31 6.563-24.116c4.012-2.603 7.221-1.802 7.221-1.802z" fill="#51A4E4" stroke="#10084D" stroke-width="2" stroke-linecap="round" stroke-linejoin="round"/><path d="M252.727 56.065h21.084l-3.434-13.616m-17.475 10.532l1.252-14.537M303.6 51.18l-7.549-10.373m10.613 12.775h9.644m-70.001-16.739L235.075 52.06h-5.087m7.495-14.416l-10.43 6.014m-42.355 4.366l-6.587 3.235m27.679-13.615l-18.132 8.922" stroke="#10084D" stroke-width="2" stroke-linecap="round" stroke-linejoin="round"/><path d="M285.188 102.35h-20.427s-13.334-.632-10.679 5.775c2.656 6.407 5.063 5.606 3.458 8.009-1.604 2.403-1.604 9.611 7.221 8.009 8.825-1.601 25.096-2.547 25.096-2.547l-4.669-19.246z" fill="#7040FF"/><path d="M213.413 108.125s-22.465 3.204-15.244 37.644h11.336s-3.931-22.426 14.442-24.028l-10.534-13.616z" fill="#fff" stroke="#10084D" stroke-width="2" stroke-linecap="round" stroke-linejoin="round"/><path d="M209.505 145.768l.577 3.604a1.43 1.43 0 0 1-.334 1.107 1.42 1.42 0 0 1-1.045.495l-15.244.321a.624.624 0 0 1-.598-.396.62.62 0 0 1 .181-.694l5.126-4.437h11.337zm70.499-30.699c9.628 0 23.267-8.546 26.661-14.953 3.393-6.408.617-9.612-1.412-10.076-2.03-.465-5.994 1.265-9.203 7.777-3.209 6.511-16.046 11.109-16.046 11.109s-7.221-3.204-11.232 0c0 0-.802 1.602.802 1.602 1.605 0 4.012-.801 4.814 0 0 0-6.017 2.042-5.817 3.019.201.977 2.608.184 2.608.184s-1.605 2.403 1.604 2.403c3.21 0 6.419.28 7.221-1.065z" fill="#fff" stroke="#10084D" stroke-width="2" stroke-linecap="round" stroke-linejoin="round"/><path d="M279.369 70.938a.7.7 0 0 0-.658-.457h-10.847a.7.7 0 0 0-.698.697v24.236a.7.7 0 0 0 .698.697h3.803v3.004a.695.695 0 0 0 .698.696h11.754a.698.698 0 0 0 .698-.697V85.828a.86.86 0 0 0 0-.248l-5.448-14.641z" fill="#fff" stroke="#10084D" stroke-width="2" stroke-linecap="round" stroke-linejoin="round"/><path d="M275.191 65.676c-.883 0-1.605.36-1.605.801v5.606c0 .44.722.801 1.605.801.882 0 1.604-.36 1.604-.8v-5.607c0-.44-.722-.801-1.604-.801z" fill="#51A4E4"/><path d="M271.668 96.111v-8.01m11.064-2.178h-9.146m-1.918-.28l-2.094-11.958m8.584 26.126v5.511" stroke="#10084D" stroke-width="2" stroke-linecap="round" stroke-linejoin="round"/><path d="M205.39 61.671c-.883 0-1.605.36-1.605.801v5.607c0 .44.722.8 1.605.8.882 0 1.604-.36 1.604-.8v-5.607c0-.44-.722-.8-1.604-.8z" fill="#51A4E4"/><path d="M255.133 150.574h-4.012v24.829h4.012v-24.829zm36.906 0h-4.012v24.829h4.012v-24.829z" fill="#fff" stroke="#10084D" stroke-width="2" stroke-linecap="round" stroke-linejoin="round"/></g><path d="M253.127 2.403a91.968 91.968 0 0 1 58.275 20.83 91.686 91.686 0 0 1 31.812 53.008 91.58 91.58 0 0 1-9.093 61.122 91.813 91.813 0 0 1-45.869 41.491 92.023 92.023 0 0 1-61.825 3.025 91.856 91.856 0 0 1-49.715-36.813 91.59 91.59 0 0 1-15.037-59.94 91.643 91.643 0 0 1 26.465-55.86 91.258 91.258 0 0 1 29.796-19.934 91.387 91.387 0 0 1 35.191-6.93zm0-1.602a93.584 93.584 0 0 0-51.929 15.725 93.345 93.345 0 0 0-34.425 41.875 93.166 93.166 0 0 0-5.319 53.911 93.272 93.272 0 0 0 25.58 47.776 93.521 93.521 0 0 0 47.858 25.536 93.62 93.62 0 0 0 54.003-5.31 93.435 93.435 0 0 0 41.948-34.366 93.197 93.197 0 0 0 15.752-51.84 93.23 93.23 0 0 0-27.376-65.978A93.55 93.55 0 0 0 253.127.801z" fill="#10084D"/><path d="M301.473 191.421c-4.412 2.099-7.132 5.607-6.081 7.785l29.685 62.072c1.051 2.203 5.472 2.291 9.884.192 4.413-2.098 7.133-5.606 6.082-7.785l-29.645-62.079c-1.091-2.187-5.52-2.267-9.925-.185z" fill="#7040FF"/><path d="M253.127 186.616c51.178 0 92.666-41.417 92.666-92.507S304.305 1.602 253.127 1.602 160.461 43.02 160.461 94.11s41.488 92.507 92.666 92.507z" stroke="#10084D" stroke-width="5" stroke-linecap="round" stroke-linejoin="round"/><path d="M331.264 68.447a81.485 81.485 0 0 1 3.835 19.006m-81.972-75.439a82.361 82.361 0 0 1 44.192 12.852 82.16 82.16 0 0 1 30.358 34.539" stroke="#51A4E4" stroke-width="2" stroke-linecap="round" stroke-linejoin="round"/></g><defs><clipPath id="a"><path fill="#fff" d="M0 0h418v263H0z"/></clipPath></defs></svg>