<svg width="388" height="314" viewBox="0 0 388 314" fill="none" xmlns="http://www.w3.org/2000/svg"><g clip-path="url(#a)"><path d="M387.132 199.199l-47.263-35.13a8.282 8.282 0 0 0-5.754-1.613 8.27 8.27 0 0 0-5.339 2.68l-6.745 7.321" stroke="#7040FF" stroke-width="2" stroke-linecap="round" stroke-linejoin="round"/><path d="M367.645 235.066H236.488a4.73 4.73 0 0 0-4.73 4.728v69.479a4.728 4.728 0 0 0 4.73 4.727h131.157a4.728 4.728 0 0 0 4.73-4.727v-69.479a4.73 4.73 0 0 0-4.73-4.728z" fill="#fff"/><path d="M256.496 294.05c13.454 0 15.19-1.735 24.738-8.674 9.548-6.939 14.757-7.304 16.493 1.986 1.736 9.29 13.02 15.804 26.908 3.001 13.888-12.802 19.964-21.468 26.908-12.794 6.944 8.674 10.416 12.369 20.832 6.618v-49.121h-74.648l-41.231 58.984z" fill="#7040FF" stroke="#10084D" stroke-width="2" stroke-linecap="round" stroke-linejoin="round"/><path d="M284.047 236.151L247.6 272.582l17.794 17.781 55.014-54.967-36.361.755z" fill="#7040FF" stroke="#10084D" stroke-width="2" stroke-linecap="round" stroke-linejoin="round"/><path d="M367.645 236.801a3 3 0 0 1 2.994 2.993v69.479a3.004 3.004 0 0 1-2.994 2.992H236.488a3.004 3.004 0 0 1-2.994-2.992v-69.479a3 3 0 0 1 2.994-2.993h131.157zm0-1.735H236.488a4.744 4.744 0 0 0-3.345 1.385 4.731 4.731 0 0 0-1.385 3.343v69.479c0 1.254.498 2.456 1.385 3.342a4.733 4.733 0 0 0 3.345 1.385h131.157a4.733 4.733 0 0 0 3.345-1.385 4.723 4.723 0 0 0 1.385-3.342v-69.479a4.716 4.716 0 0 0-1.385-3.343 4.746 4.746 0 0 0-3.345-1.385z" fill="#10084D"/><path d="M256.496 294.05c6.951 0 12.586-5.631 12.586-12.578 0-6.946-5.635-12.577-12.586-12.577-6.951 0-12.586 5.631-12.586 12.577 0 6.947 5.635 12.578 12.586 12.578z" fill="#7040FF" stroke="#10084D" stroke-width="2" stroke-linecap="round" stroke-linejoin="round"/><path d="M294.332 274.533l17.794-17.782m3.038-3.035l8.602-8.596m25.173 19.438l24.114-24.096m-30.19 30.168l3.377-3.374m-46.777 8.578s3.194.868 3.767 5.639m-.296-8.241a3.881 3.881 0 0 1 2.604 3.47m9.548-16.481a1.29 1.29 0 0 1 .868 1.154m41.491 13.158s3.412 6.506 8.741 6.939m-112.997-7.85a8.427 8.427 0 0 1 6.537-.112m-9.939 12.837a8.667 8.667 0 0 1-1.814-5.629m9.712 9.108a8.768 8.768 0 0 1-4.488-.755m11.787-6.427a8.649 8.649 0 0 1-1.076 3.174m-1.336-10.417a8.593 8.593 0 0 1 2.344 4.562m-6.25-.659c.564.58.876 1.36.868 2.168m-6.075-.338c.07-.691.377-1.338.868-1.83m4.339 4.337a3.074 3.074 0 0 1-4.34 0" stroke="#10084D" stroke-width="2" stroke-linecap="round" stroke-linejoin="round"/><path d="M126.338 14.746h-90.36a4.73 4.73 0 0 0-4.73 4.727v72.949a4.729 4.729 0 0 0 4.73 4.727h90.36a4.73 4.73 0 0 0 4.731-4.727V19.473a4.73 4.73 0 0 0-4.731-4.727z" fill="#fff"/><path d="M129.586 49.239L118.887 35.53a2.43 2.43 0 0 0-.788-.686 2.138 2.138 0 0 0-.966-.258 2.114 2.114 0 0 0-.972.216c-.308.149-.584.37-.812.65L97.302 57.015c-.486.579-.757 1.35-.756 2.153v35.2c-.02.777.23 1.53.694 2.096.465.566 1.107.898 1.786.923h28.73a2.29 2.29 0 0 0 .975-.256c.307-.158.584-.383.815-.664.231-.28.412-.61.531-.97.12-.36.176-.743.166-1.128V51.323a3.409 3.409 0 0 0-.657-2.084z" fill="#7040FF" stroke="#10084D" stroke-width="2" stroke-linecap="round" stroke-linejoin="round"/><path d="M130.201 79.801c-.729-.728-26.136-21.19-34.095-27.592a4.48 4.48 0 0 0-5.009-.425l-7.074 3.93a4.508 4.508 0 0 1-5.26-.651L65.448 42.65a4.515 4.515 0 0 0-6.007-.121L32.819 65.393a4.512 4.512 0 0 0-1.571 3.418v24.365a4.5 4.5 0 0 0 2.781 4.16 4.509 4.509 0 0 0 1.724.342h90.108a4.502 4.502 0 0 0 4.505-4.337c.217-5.091.417-12.959-.165-13.54z" fill="#7040FF" stroke="#10084D" stroke-width="2" stroke-linecap="round" stroke-linejoin="round"/><path d="M126.338 16.48a3.003 3.003 0 0 1 2.995 2.993v72.949a3.003 3.003 0 0 1-2.995 2.993h-90.36a3.004 3.004 0 0 1-2.994-2.993V19.473a3 3 0 0 1 2.995-2.992h90.359zm0-1.734h-90.36a4.732 4.732 0 0 0-4.73 4.727v72.949a4.726 4.726 0 0 0 4.73 4.727h90.36a4.731 4.731 0 0 0 4.731-4.727V19.473a4.731 4.731 0 0 0-4.731-4.727z" fill="#10084D"/><path d="M36.994 63.58c.608 1.675 3.246.26 4.166-.242 3.794-2.09 6.945-5.205 10.364-7.807a7.328 7.328 0 0 1 3.611-1.873 3.421 3.421 0 0 1 2.943 1.3c.816.868 1.831 1.735 3.09 1.206.946-.399 1.528-1.353 2.465-1.735 1.354-.598 2.604 0 3.706.712a5.67 5.67 0 0 0 1.945.928c.49.1.993.133 1.493.095 1.675-.147 2.673-1.448 3.16-2.949.22-.704.37-1.427.45-2.16l-8.94-8.336a4.516 4.516 0 0 0-6.006-.12L37.419 61.515a2.87 2.87 0 0 0-.425 2.065zm17.256 1.588a11.645 11.645 0 0 1-2.004 4.129 5.607 5.607 0 0 1-2.7 1.995 1.893 1.893 0 0 1-2.23-1.353 3.52 3.52 0 0 1 .26-2.412c.402-.959.93-1.86 1.57-2.68a24.701 24.701 0 0 1 2.067-2.394c1.736-1.735 3.255-.477 3.368.087.1.89-.013 1.79-.33 2.628zm34.981 2.888a2.927 2.927 0 0 1-2.117 0 4.408 4.408 0 0 1-2.605-2.48c-.407-.868-.737-2.186-.147-3.088.755-1.163 2.266-.599 3.22 0 .287.173 2.465 2.758 2.465 4.18a1.517 1.517 0 0 1-.816 1.388zM83.545 57.43a2.606 2.606 0 0 0 1.901.131 9.389 9.389 0 0 1 1.736-.685 3.241 3.241 0 0 1 2.838 1.37c.747.868 1.51 1.735 2.336 2.524a13.79 13.79 0 0 0 3.185 2.43 2.788 2.788 0 0 0 2.969.138 6.74 6.74 0 0 1 1.206-.824 6.946 6.946 0 0 1 1.615-.564c1.128-.243 2.413-.581 2.916-1.735.175-.429.215-.901.113-1.353l-8.229-6.627a4.48 4.48 0 0 0-5.008-.425l-6.406 3.556c-.4.313-2.066 1.631-1.172 2.065zm-18.444 5.89c.959 0 1.736-.97 1.736-2.168 0-1.198-.777-2.169-1.736-2.169s-1.736.971-1.736 2.169c0 1.197.777 2.168 1.736 2.168zm37.938-11.762c.185.352.623.335.92.308 1.221-.238 2.357-.888 3.273-1.874 1.039-1.003 1.967-2.155 3.014-3.15.742-.703 1.863-1.83 2.91-1.61.426.16.86.292 1.298.397.594.013 1.174-.21 1.648-.634.832-.624 1.96-1.337 2.969-.88.359.18.694.42.995.713.456.421.955.773 1.484 1.047.743.352 1.767.651 2.442 0 .508-.64.79-1.487.787-2.367v-.51l-5.611-7.451a2.421 2.421 0 0 0-.775-.698 2.035 2.035 0 0 0-.947-.263 2.015 2.015 0 0 0-.955.22 2.373 2.373 0 0 0-.797.662L102.92 51.303c.025.094.066.18.119.255z" fill="#fff" stroke="#10084D" stroke-width="2" stroke-linecap="round" stroke-linejoin="round"/><path d="M336.398 7.807h-120.74a3.861 3.861 0 0 0-3.863 3.86v77.285a3.861 3.861 0 0 0 3.863 3.86h120.74a3.861 3.861 0 0 0 3.862-3.86V11.667a3.86 3.86 0 0 0-3.862-3.86z" fill="#fff"/><path d="M336.396 8.674a3.003 3.003 0 0 1 2.995 2.993v77.285a3.003 3.003 0 0 1-2.995 2.992h-120.74a2.999 2.999 0 0 1-2.994-2.992V11.667a2.999 2.999 0 0 1 2.994-2.993h120.74zm0-1.735h-120.74a4.726 4.726 0 0 0-4.73 4.727v77.286a4.726 4.726 0 0 0 4.73 4.728h120.74a4.726 4.726 0 0 0 4.731-4.727V11.666a4.726 4.726 0 0 0-4.731-4.728z" fill="#10084D"/><path d="M306.841 26.456c-24.305 0-22.569 12.143-65.101 12.143-3.223 0-6.314 1.28-8.593 3.557a12.139 12.139 0 0 0 0 17.174 12.157 12.157 0 0 0 8.593 3.557c27.776 0 30.38 4.337 42.532 4.337 12.153 0 39.061-3.47 39.061-24.288 0-4.37-1.738-8.562-4.831-11.653a16.494 16.494 0 0 0-11.661-4.827z" fill="#51A4E4" stroke="#10084D" stroke-width="2" stroke-linecap="round" stroke-linejoin="round"/><path d="M251.445 42.07v17.113M244.5 43.804v13.644m-6.943-12.777v11.91m23.279 3.704c12.152 0 7.812-19.95 22.568-25.155m10.417-3.47l-19.704 29.492m29.251-30.792l-21.7 32.483m29.514-31.183L290.35 62.843m26.031-25.978l-16.223 24.287m19.113-15.613l-7.222 10.807M286.973 35.13l31.769 5.204m-36.205 1.154l30.042 4.918m-35.251 1.31l39.677 6.497m-41.411.295l27.776 4.553" stroke="#fff" stroke-width="2" stroke-linecap="round" stroke-linejoin="round"/><path d="M126.34 195.166H26.432a4.729 4.729 0 0 0-4.73 4.727v74.684a4.73 4.73 0 0 0 4.73 4.727h99.908a4.73 4.73 0 0 0 4.73-4.727v-74.684a4.728 4.728 0 0 0-4.73-4.727z" fill="#fff"/><path d="M21.86 206.603l108.384 55.712v15.279H21.859v-70.991z" fill="#7040FF"/><path d="M99.823 247.21c3.012 11.276-6.944 25.502-23.437 25.502-16.492 0-22.568-22.9-30.38-26.369-7.812-3.47-22.568-11.277-15.624-20.818 6.944-9.541 21.7-3.314 21.7-3.314l47.74 24.999z" fill="#51A4E4"/><path d="M126.34 196.901a3.003 3.003 0 0 1 2.994 2.992v74.684a2.998 2.998 0 0 1-2.994 2.992H26.432a3.002 3.002 0 0 1-2.995-2.992v-74.684a3.002 3.002 0 0 1 2.995-2.992h99.908zm0-1.735H26.432a4.727 4.727 0 0 0-4.73 4.727v74.684a4.73 4.73 0 0 0 4.73 4.727h99.908a4.731 4.731 0 0 0 4.73-4.727v-74.684a4.727 4.727 0 0 0-4.73-4.727z" fill="#10084D"/><path d="M72.913 243.844a5.729 5.729 0 0 1-5.208-3.565c-1.371-3.296-1.849-10.409-1.094-16.22 0-.078.052-.087.078-.087 2.743 2.299 9.14 8.024 10.868 12.144a5.93 5.93 0 0 1 0 4.606 5.091 5.091 0 0 1-2.917 2.793 4.961 4.961 0 0 1-1.736.295l.01.034z" fill="#fff"/><path d="M67.27 225.629c4.879 4.285 8.377 8.284 9.436 10.851a5.057 5.057 0 0 1 0 3.93 4.34 4.34 0 0 1-2.43 2.324c-.45.164-.927.246-1.407.243a4.868 4.868 0 0 1-4.409-3.027c-1.207-2.915-1.684-8.969-1.19-14.321zm-.624-2.524a.943.943 0 0 0-.938.867c-.737 5.665-.355 13.011 1.146 16.663a6.608 6.608 0 0 0 6.015 4.103 5.79 5.79 0 0 0 2.014-.356 6.38 6.38 0 0 0 4.03-6.04 6.375 6.375 0 0 0-.558-2.495c-1.788-4.337-8.237-10.105-11.032-12.482a.975.975 0 0 0-.634-.234l-.043-.026z" fill="#10084D"/><path d="M39.842 226.687a4.335 4.335 0 0 1-3.915-2.68c-1.041-2.524-1.423-7.954-.868-12.439 2.075 1.813 6.944 6.185 8.238 9.351a4.433 4.433 0 0 1 0 3.47 3.852 3.852 0 0 1-2.179 2.09 3.72 3.72 0 0 1-1.276.208z" fill="#fff"/><path d="M35.762 213.373c3.472 3.131 5.972 6.011 6.745 7.876a3.594 3.594 0 0 1 0 2.784 2.98 2.98 0 0 1-1.736 1.622 2.8 2.8 0 0 1-.972.165 3.474 3.474 0 0 1-3.107-2.143c-.869-2.099-1.25-6.358-.973-10.304h.043zm-.842-2.759a.737.737 0 0 0-.737.66c-.582 4.441-.278 10.218.868 13.071a5.206 5.206 0 0 0 4.713 3.21 4.48 4.48 0 0 0 1.571-.278 4.986 4.986 0 0 0 2.69-6.688c-1.397-3.382-6.457-7.928-8.68-9.784a.776.776 0 0 0-.494-.191h.07z" fill="#10084D"/><path d="M90.518 232.412a4.514 4.514 0 0 1-4.08-2.793c-1.085-2.602-1.467-8.275-.868-12.924 2.161 1.865 7.213 6.41 8.576 9.706a4.664 4.664 0 0 1 0 3.6 3.893 3.893 0 0 1-3.602 2.411h-.026z" fill="#fff"/><path d="M86.245 218.481c3.663 3.271 6.267 6.298 7.075 8.249a3.725 3.725 0 0 1 0 2.924 3.13 3.13 0 0 1-1.736 1.734 2.89 2.89 0 0 1-1.025.183 3.62 3.62 0 0 1-3.272-2.256c-.868-2.203-1.302-6.687-.998-10.808l-.044-.026zm-.737-2.706a.764.764 0 0 0-.755.694c-.6 4.589-.296 10.556.928 13.506a5.373 5.373 0 0 0 4.878 3.33 4.57 4.57 0 0 0 1.624-.295 5.192 5.192 0 0 0 2.864-2.879 5.206 5.206 0 0 0-.078-4.06c-1.45-3.469-6.684-8.188-8.95-10.114a.768.768 0 0 0-.511-.199v.017z" fill="#10084D"/><path d="M51.9 210.181a5.216 5.216 0 0 1-4.723-3.236c-1.25-3.018-1.684-9.541-.99-14.85 2.466 2.073 8.334 7.321 9.905 11.12a5.335 5.335 0 0 1 0 4.164 4.598 4.598 0 0 1-2.604 2.524 4.429 4.429 0 0 1-1.545.278h-.044z" fill="#fff"/><path d="M46.873 193.821c4.34 3.843 7.464 7.425 8.42 9.724a4.456 4.456 0 0 1 0 3.469 3.75 3.75 0 0 1-2.145 2.056 3.464 3.464 0 0 1-1.24.226 4.334 4.334 0 0 1-2.36-.766 4.333 4.333 0 0 1-1.556-1.932c-1.076-2.602-1.519-7.98-1.11-12.794l-.01.017zm-.677-2.619a.867.867 0 0 0-.868.772c-.678 5.204-.33 11.961 1.05 15.292a6.073 6.073 0 0 0 5.52 3.773 5.398 5.398 0 0 0 1.84-.329 5.871 5.871 0 0 0 3.232-3.236 5.852 5.852 0 0 0-.08-4.571c-1.641-3.955-7.56-9.273-10.122-11.45a.944.944 0 0 0-.581-.217l.009-.034zm337.074-53.285a3 3 0 0 1 2.995 2.993v72.948a3.006 3.006 0 0 1-2.995 2.993h-57.375a3 3 0 0 1-2.995-2.993V140.91a3.001 3.001 0 0 1 2.995-2.993h57.375zm0-1.735h-57.375a4.73 4.73 0 0 0-4.731 4.728v72.948a4.73 4.73 0 0 0 4.731 4.728h57.375a4.73 4.73 0 0 0 4.731-4.728V140.91a4.728 4.728 0 0 0-4.731-4.728z" fill="#10084D"/><path d="M304.281 78.066H82.851a4.729 4.729 0 0 0-4.73 4.728v138.004a4.73 4.73 0 0 0 4.73 4.727h221.43a4.73 4.73 0 0 0 4.73-4.727V82.794a4.729 4.729 0 0 0-4.73-4.728z" fill="#fff"/><path d="M304.281 79.801a3.005 3.005 0 0 1 2.994 2.993v138.004a2.998 2.998 0 0 1-2.994 2.992H82.851a3.002 3.002 0 0 1-2.994-2.992V82.794a3 3 0 0 1 2.995-2.993H304.28zm0-1.735H82.851a4.732 4.732 0 0 0-4.73 4.728v138.004a4.73 4.73 0 0 0 4.73 4.727h221.43a4.73 4.73 0 0 0 4.73-4.727V82.794a4.726 4.726 0 0 0-4.73-4.728z" fill="#10084D"/><path d="M210.57 92.422a62.731 62.731 0 0 0 1.623-6.662m-9.591 23.698a68.806 68.806 0 0 0 5.676-10.687m-13.462 20.644a84.655 84.655 0 0 0 1.884-2.107" stroke="#10084D" stroke-width="2" stroke-linecap="round" stroke-linejoin="round"/><path d="M135.123 140.867a66.34 66.34 0 0 0 28.113-1.776 66.296 66.296 0 0 0 24.836-13.283" stroke="#fff" stroke-width="2" stroke-linecap="round" stroke-linejoin="round"/><path d="M125.436 139.01c.937.234 1.874.443 2.821.633m-23.046-9.949a63.544 63.544 0 0 0 14.522 7.573M86.68 110.793a74.32 74.32 0 0 0 11.284 13.012m63.806-25.068a65.642 65.642 0 0 0-2.725-4.867m10.408 33.777a63.082 63.082 0 0 0-2.465-15.197m2.118 24.981a72.831 72.831 0 0 1-9.774 28.581m-28.896 26.89a70.347 70.347 0 0 0 25.918-22.362m-47.297 28.451a69.58 69.58 0 0 0 3.94-.555m-25.327-.182a79.78 79.78 0 0 0 7.1.911" stroke="#10084D" stroke-width="2" stroke-linecap="round" stroke-linejoin="round"/><path d="M199.746 145.203s-9.01-9.888-27.125-9.021m35.701 32.094l8.316-8.162m-14.392 2.091l8.316-8.163m-13.523 2.091l8.316-8.163m-15.304 4.693l10.963-10.764m-66.907 17.244s19.531 3.929 27.343 11.736c7.812 7.806 2.239 14.997 51.03 28.32 10.781 3.21 42.255 4.892 48.122 0" stroke="#fff" stroke-width="2" stroke-linecap="round" stroke-linejoin="round"/><path d="M257.799 185.625s-14.392 4.588-16.744 13.574m-108.631-35l-7.43 10.149m13.888-45.92l-6.458 8.83m9.061-5.361l-6.458 8.831m9.93-5.274l-3.853 5.274m7.326-2.03l-2.118 2.897m-11.771 27.913l-6.076 8.31m8.15-3.47l-3.81 5.205m6.077-.642l-1.736 2.376m16.492 1.961l-1.736 2.376m6.075.547l-.868 1.188" stroke="#10084D" stroke-width="2" stroke-linecap="round" stroke-linejoin="round"/><path d="M256.932 215.984c17.258 0 31.248-13.981 31.248-31.227 0-17.246-13.99-31.226-31.248-31.226-17.258 0-31.248 13.98-31.248 31.226s13.99 31.227 31.248 31.227z" stroke="#10084D" stroke-width="2" stroke-linecap="round" stroke-linejoin="round"/><path d="M130.287 158.348c-15.625 17.348-2.604 22.552 4.34 25.154 6.944 2.603 86.8 24.288 113.709 24.288 20.346 0 19.356-14.373 17.655-21.391a5.048 5.048 0 0 0-4.54-3.877c-43.14-2.949-69.536-61.473-69.536-61.473-17.36 0-19.096 12.144-19.096 12.144h-5.208s-16.492 0-24.304-10.409c0 0-8.68 2.602-9.548 13.879V141a19.882 19.882 0 0 1-.868 14.416l-2.604 2.932z" fill="#7040FF"/><path d="M172.819 133.193s1.736-12.144 19.096-12.144c0 0 26.396 58.524 69.536 61.473a5.054 5.054 0 0 1 4.54 3.877c1.736 7.018 2.691 21.391-17.655 21.391-26.908 0-106.765-21.685-113.709-24.288-6.944-2.602-19.965-7.806-4.34-25.154" stroke="#10084D" stroke-width="2" stroke-linecap="round" stroke-linejoin="round"/><path d="M167.612 133.192s-16.492 0-24.304-10.409c0 0-8.68 2.603-9.548 13.879m76.385 31.226l8.315-8.162m-14.392 2.091l8.316-8.162m-13.525 2.09l8.316-8.162m-15.302 4.692l10.963-10.764m-62.132-13.471l-6.458 8.83m9.062-5.36l-6.458 8.83m9.93-5.274l-3.854 5.274m7.325-2.03l-2.118 2.897" stroke="#10084D" stroke-width="2" stroke-linecap="round" stroke-linejoin="round"/><path d="M228.928 201.023l-63.3-24.573c-1.366-2.276-1.867-2.827-2.732-4.096-6.138-9-18.696-10.108-28.235-13.652-17.174 3.625-14.117 22.298-2.732 23.663l4.098 1.366 15.484 4.55 72.408 18.203c35.066 4.551 38.709-1.365 42.352-9.101 0 0-28.777 6.823-37.343 3.64z" fill="#FFEEC1" stroke="#10084D" stroke-width="2" stroke-linecap="round" stroke-linejoin="round"/><path d="M134.245 163.812l-7.431 10.148m11.624 0l-3.811 5.205m6.076-.642l-1.736 2.376m-2.604-11.778l-6.076 8.31m25.172 5.429l-1.736 2.377m6.077.546l-.868 1.189" stroke="#10084D" stroke-width="2" stroke-linecap="round" stroke-linejoin="round"/><path d="M158.934 167.079l7.742-13.197 4.098-16.838c-5.906 1.891-16.704 6.972-20.493 7.281-4.333.356-13.234-.561-16.394-2.73 1.87 8.957-2.277 17.292-2.277 17.292 6.624 1.306 18.216 4.096 27.324 8.192z" fill="#51A4E4" stroke="#10084D" stroke-width="2" stroke-linecap="round" stroke-linejoin="round"/><path d="M171.606 136.429c-.425.162-.863.296-1.288.431l20.038 1.094c6.376-.455 5.465-.295 10.019-1.365-4.554-5.916-6.831-11.832-8.197-15.473-18.216-.909-20.572 15.313-20.572 15.313z" fill="#10084D" stroke="#10084D" stroke-width="2" stroke-linecap="round" stroke-linejoin="round"/><path d="M336.787 200.37c8.68 0 5.208-20.817 21.7-20.817 16.493 0 24.687-31.4 16.249-34.35-8.437-2.949-17.117 30.88-14.513 35.217 2.604 4.337 2.709-39.571-13.836-35.399-16.544 4.172 11.232 31.929 16.44 35.399 5.208 3.47 6.076 13.011 1.736 17.348s-2.604 9.541.868 11.276" stroke="#7040FF" stroke-width="2" stroke-linecap="round" stroke-linejoin="round"/></g><defs><clipPath id="a"><path fill="#fff" d="M0 0h388v314H0z"/></clipPath></defs></svg>