<svg width="391" height="335" viewBox="0 0 391 335" fill="none" xmlns="http://www.w3.org/2000/svg"><ellipse cx="195.501" cy="168" rx="195.233" ry="168" fill="#E2DBFF"/><g clip-path="url(#a)"><path d="M93.346 39.761h-79.51a4.223 4.223 0 0 0-4.223 4.224v63.625a4.223 4.223 0 0 0 4.222 4.224h79.511a4.223 4.223 0 0 0 4.222-4.224V43.985a4.223 4.223 0 0 0-4.222-4.224z" fill="#7040FF"/><path d="M29.717 33.057l5.026 10.057" stroke="#7040FF" stroke-width="2" stroke-linecap="round" stroke-linejoin="round"/><path d="M8.775 83.34l6.702-1.676m7.539 22.645l2.513-3.302m62.867 4.19l-5.068-5.096" stroke="#fff" stroke-width="2" stroke-linecap="round" stroke-linejoin="round"/><path d="M77.606 68.574a25.482 25.482 0 0 0-16.927-20.677 25.454 25.454 0 0 0-26.072 5.826 25.48 25.48 0 0 0-6.524 25.918 25.46 25.46 0 0 0 20.204 17.485 2.646 2.646 0 0 1 2.12 1.802c.595 1.936 2.203 4.903 6.207 4.366 4.49-.611 5.026-3.897 4.959-5.866a2.339 2.339 0 0 1 1.399-2.238 25.47 25.47 0 0 0 11.716-10.887 25.487 25.487 0 0 0 2.918-15.73z" fill="#fff" stroke="#7040FF" stroke-width="2" stroke-linecap="round" stroke-linejoin="round"/><path d="M64.044 104.728l-13.06 3.461m13.396-.126l-13.06 3.453m13.393-.126l-13.059 3.453m4.08 2.363l5.797-1.534m-9.925-19.937l-6.702-23.088s3.217 7.986 5.102 7.735c1.884-.251 1.616-8.64-.16-8.38-1.775.26 1.29 8.254 3.025 8.02 1.733-.235 3.668-8.917 1.24-8.59-2.43.326 1.28 8.246 2.018 8.145.737-.1 3.242-8.858 3.242-8.858l.134 23.952" stroke="#10084D" stroke-width="2" stroke-linecap="round" stroke-linejoin="round"/><path d="M107.619 71.608h219.007a19.72 19.72 0 0 1 13.949 5.78 19.739 19.739 0 0 1 5.778 13.956v89.588a19.738 19.738 0 0 1-5.778 13.955 19.718 19.718 0 0 1-13.949 5.781h-60.06a19.725 19.725 0 0 1-13.948-5.782l-19.014-19.024a19.722 19.722 0 0 0-13.948-5.783H59.663a19.72 19.72 0 0 0-13.95 5.781 19.74 19.74 0 0 0-5.777 13.955v55.63a19.733 19.733 0 0 0 12.201 18.264c2.4.99 4.972 1.496 7.568 1.489h28.648c14.24 0 18.428-11.732 18.428-20.113s-4.188-20.951-20.104-20.951c-15.915 0-20.104 15.085-20.104 20.951 0 8.95 5.864 25.494 36.807 29.541a19.573 19.573 0 0 0 16.36-5.631l15.187-15.194a19.718 19.718 0 0 1 13.947-5.783h197.479" stroke="#10084D" stroke-width="2" stroke-linecap="round" stroke-linejoin="round" stroke-dasharray="11 11"/><path d="M218.19 89.207c14.342 0 25.968-11.632 25.968-25.98s-11.626-25.98-25.968-25.98c-14.341 0-25.967 11.632-25.967 25.98s11.626 25.98 25.967 25.98z" fill="#7040FF"/><path d="M211.49 47.304s1.676 5.028 6.702 5.866c5.026.838 11.727 1.676 12.565 10.057.837 8.38.837 11.733 9.214 15.923 8.377 4.19 7.539 20.113 7.539 20.113l-31.831 15.923s-6.702-2.514-6.702-7.542c0-5.028.838-7.543-4.188-10.895-5.026-3.352-10.89-.838-12.565-10.056-1.675-9.22-1.675-6.705-6.701-11.733-5.026-5.029 0-21.295 0-21.295l25.967-6.361z" fill="#fff" stroke="#10084D" stroke-width="2" stroke-linecap="round" stroke-linejoin="round"/><path d="M231.594 83.34s-2.513 4.19-20.104 8.38m10.89-30.169s0 7.543-3.351 10.895m-1.901-5.448s-3.124 6.286-3.962 7.124m-7.046-3.562c-.494 1.048-11.384 6.076-11.384 6.076" stroke="#7040FF" stroke-width="2" stroke-linecap="round" stroke-linejoin="round"/><path d="M172.957 64.065s2.513 12.571-2.513 20.952c0 0-13.403 2.514-16.753 1.676l-2.513-16.761s17.591-1.677 21.779-5.867zm58.637-18.58s15.337 1.534 19.811 0c0 0 2.806 10.2 1.968 15.228l-13.126 3.352a29.565 29.565 0 0 0-8.653-18.58zm122.541 104.062h-62.473a3.108 3.108 0 0 0-3.107 3.109v21.437a3.108 3.108 0 0 0 3.107 3.109h62.473a3.108 3.108 0 0 0 3.108-3.109v-21.437a3.108 3.108 0 0 0-3.108-3.109zm0-45.255h-19.752a3.109 3.109 0 0 0-3.108 3.109v14.733a3.109 3.109 0 0 0 3.108 3.109h19.752a3.108 3.108 0 0 0 3.108-3.109v-14.733a3.108 3.108 0 0 0-3.108-3.109zm0 26.817h-19.752a3.11 3.11 0 0 0-3.108 3.11v5.514a3.109 3.109 0 0 0 3.108 3.109h19.752a3.108 3.108 0 0 0 3.108-3.109v-5.514a3.108 3.108 0 0 0-3.108-3.11z" fill="#fff" stroke="#10084D" stroke-width="2" stroke-linecap="round" stroke-linejoin="round"/><path d="M294.418 157.751h31.831" stroke="#10084D" stroke-width="2" stroke-linecap="round" stroke-linejoin="round"/><path d="M335.465 116.863h17.591m-17.591 3.352h12.565" stroke="#7040FF" stroke-width="2" stroke-linecap="round" stroke-linejoin="round"/><path d="M294.418 162.117h31.831m-31.831 4.367h20.104" stroke="#10084D" stroke-width="2" stroke-linecap="round" stroke-linejoin="round"/><path d="M350.542 167.984H340.49a2.514 2.514 0 0 0 0 5.028h10.052a2.514 2.514 0 0 0 0-5.028zm-13.402-55.312a2.514 2.514 0 1 0-.001-5.027 2.514 2.514 0 0 0 .001 5.027z" fill="#7040FF"/><path d="M323.142 105.13h-31.479a2.27 2.27 0 0 0-2.27 2.271v33.17a2.27 2.27 0 0 0 2.27 2.271h31.479a2.27 2.27 0 0 0 2.27-2.271v-33.17a2.27 2.27 0 0 0-2.27-2.271z" fill="#51A4E4"/><path d="M323.145 105.468h-31.486a1.94 1.94 0 0 0-1.929 1.93v33.176c.003.511.207 1 .568 1.362l.354-.354-.354.354c.362.361.851.565 1.361.568h31.486a1.94 1.94 0 0 0 1.929-1.93v-33.176a1.94 1.94 0 0 0-.568-1.361l-.35.35.35-.35a1.937 1.937 0 0 0-1.361-.569zm-31.483-.676h31.48a2.61 2.61 0 0 1 2.608 2.609v33.17a2.61 2.61 0 0 1-2.608 2.609h-31.48a2.607 2.607 0 0 1-2.607-2.609v-33.17a2.61 2.61 0 0 1 2.607-2.609z" fill="#E2DBFF" stroke="#10084D"/><path d="M295.256 142.842v-4.19a.828.828 0 0 0-.343-.679.893.893 0 0 0-.494-.159.949.949 0 0 0-.26.042l-4.766 1.559V124.48c2.278-1.248 12.489-6.863 15.488-8.64 1.474 1.5 6.148 5.632 12.959 5.632a18.43 18.43 0 0 0 7.539-1.676v20.859c0 .589-.234 1.154-.651 1.57-.416.417-.98.651-1.569.651l-27.903-.034z" fill="#fff"/><path d="M305.093 116.502l-.764-.734c.242-.141.452-.266.626-.37.156.164.376.388.658.651a20.048 20.048 0 0 0 2.63 2.069c2.275 1.502 5.574 3.016 9.63 3.016h.007a18.49 18.49 0 0 0 7.87-1.89v21.379a2.555 2.555 0 0 1-1.577 2.364 2.537 2.537 0 0 1-.98.193h-28.275v-5.218l-.655.215-5.208 1.704v-15.599l.368-.202 1.67-.92c1.392-.766 3.267-1.801 5.203-2.875 3.031-1.68 6.231-3.468 7.951-4.469v.783c-3.502 2.024-11.565 6.464-14.257 7.937l-.26.143v14.268l.655-.214 3.669-1.198.006-.002c.114-.039.234-.058.354-.057h.004c.247 0 .487.078.687.223l.001.001a1.17 1.17 0 0 1 .488.952v3.852h27.598a1.89 1.89 0 0 0 1.331-.551 1.893 1.893 0 0 0 .551-1.332v-20.334l-.682.267a18.348 18.348 0 0 1-6.516 1.256 19.022 19.022 0 0 1-12.783-5.308z" fill="#E2DBFF" stroke="#10084D"/><path d="M301.957 117.483s9.868 12.948 24.292 5.263M94.43 153.278l-.439-.066a8.377 8.377 0 0 0-9.535 7.033l-1.481 9.803a8.38 8.38 0 0 0 7.03 9.539l.438.067a8.377 8.377 0 0 0 9.535-7.033l1.482-9.803a8.38 8.38 0 0 0-7.03-9.54z" stroke="#10084D" stroke-width="2" stroke-linecap="round" stroke-linejoin="round"/><path d="M124.238 144.644c-10.806-1.626-20.012.067-20.582 3.796-.008.12-.008.241 0 .361l-5.696 37.67c-.04.115-.068.233-.084.352-.56 3.73 7.732 8.079 18.538 9.713 10.806 1.635 20.012-.067 20.573-3.796.012-.12.012-.241 0-.36l5.688-37.671a2.5 2.5 0 0 0 .083-.352c.578-3.729-7.723-8.079-18.52-9.713z" fill="#fff" stroke="#10084D" stroke-width="2" stroke-linecap="round" stroke-linejoin="round"/><path d="M123.218 151.981c4.641.703 8.773 1.71 11.699 2.764 1.466.528 2.605 1.06 3.35 1.557.374.249.624.474.769.664.144.19.152.3.144.349-.007.05-.047.152-.241.291-.195.139-.5.279-.931.407-.858.254-2.103.425-3.661.496-3.106.142-7.35-.119-11.992-.821-4.641-.702-8.773-1.709-11.698-2.763-1.467-.529-2.606-1.06-3.351-1.558-.373-.249-.623-.473-.769-.664-.144-.19-.152-.299-.144-.349.008-.049.047-.152.241-.29.195-.139.5-.28.931-.407.858-.255 2.103-.426 3.661-.497 3.106-.141 7.351.119 11.992.821z" fill="#10084D" stroke="#10084D"/><path d="M134.885 166.274l-2.647 17.532m-.561 3.73l-.595 3.93" stroke="#10084D" stroke-width="2" stroke-linecap="round" stroke-linejoin="round"/><path d="M126.183 114.491c-4.138 3.05-5.185 9.009-1.968 13.023 2.931 3.654.125 10.685-1.86 12.311m8.417-21.161a6.104 6.104 0 0 0-1.307 8.649c1.944 2.43.084 7.098-1.239 8.179" stroke="#7040FF" stroke-width="2" stroke-linecap="round" stroke-linejoin="round"/><path d="M142.849 154.391c.564-3.73-7.734-8.078-18.534-9.712-10.799-1.634-20.012.064-20.575 3.794-.564 3.73 7.734 8.078 18.534 9.712 10.799 1.634 20.012-.064 20.575-3.794z" stroke="#10084D" stroke-width="2" stroke-linecap="round" stroke-linejoin="round"/><path d="M170.025 266.036c11.334 0 20.522-9.192 20.522-20.532s-9.188-20.532-20.522-20.532c-11.335 0-20.523 9.192-20.523 20.532s9.188 20.532 20.523 20.532z" fill="#51A4E4"/><path d="M215.259 217.429h-56.961a7.122 7.122 0 0 0-7.12 7.124 7.122 7.122 0 0 0 7.12 7.123h56.961a7.122 7.122 0 0 0 7.12-7.123 7.122 7.122 0 0 0-7.12-7.124zm14.24 20.951h-56.961a7.122 7.122 0 0 0-7.12 7.124 7.122 7.122 0 0 0 7.12 7.123h56.961a7.121 7.121 0 0 0 7.12-7.123 7.122 7.122 0 0 0-7.12-7.124zm-38.532 21.79h-46.071a7.122 7.122 0 0 0-7.121 7.123 7.122 7.122 0 0 0 7.121 7.124h46.071a7.122 7.122 0 0 0 7.12-7.124 7.122 7.122 0 0 0-7.12-7.123z" fill="#fff" stroke="#10084D" stroke-width="2" stroke-linecap="round" stroke-linejoin="round"/><path d="M228.242 285.312h-16.753a4.189 4.189 0 0 0-4.188 4.19 4.189 4.189 0 0 0 4.188 4.19h16.753a4.19 4.19 0 0 0 4.189-4.19 4.19 4.19 0 0 0-4.189-4.19z" fill="#7040FF"/><path d="M159.998 224.552h33.063M173.4 243.828h46.466m-46.466 4.19h28.875" stroke="#E2DBFF" stroke-width="2" stroke-linecap="round" stroke-linejoin="round"/><path d="M368.099 233.352H284.4a4.223 4.223 0 0 0-4.222 4.224v51.054a4.223 4.223 0 0 0 4.222 4.224h83.699a4.223 4.223 0 0 0 4.222-4.224v-51.054a4.223 4.223 0 0 0-4.222-4.224z" fill="#7040FF"/><path d="M340.323 231.374l-7.723.838a14.424 14.424 0 0 1-18.002 2.02l-7.723.838 3.594 60.91 39.822-4.467-9.968-60.139z" fill="#fff" stroke="#10084D" stroke-width="2" stroke-linecap="round" stroke-linejoin="round"/><path d="M340.322 231.374l20.272 8.222-3.083 15.671-13.31-.436-3.879-23.457zm-33.447 3.755l-17.959 12.504 6.475 14.599 12.883-3.369-1.399-23.734z" fill="#fff" stroke="#10084D" stroke-width="2" stroke-linecap="round" stroke-linejoin="round"/><path d="M337.139 231.735a17.59 17.59 0 0 1-27.032 3.033" stroke="#10084D" stroke-width="2" stroke-linecap="round" stroke-linejoin="round"/><path d="M336.611 277.492l6.475 5.171 10.563-13.249" stroke="#10084D" stroke-width="4" stroke-linecap="round" stroke-linejoin="round"/><path d="M335.547 275.196l7.355 5.867 10.571-13.242" stroke="#51A4E4" stroke-width="4" stroke-linecap="round" stroke-linejoin="round"/><path d="M88.354 43.952l-5.864 5.866" stroke="#fff" stroke-width="2" stroke-linecap="round" stroke-linejoin="round"/></g><defs><clipPath id="a"><path fill="#fff" transform="translate(7.938 32.219)" d="M0 0h364.384v264.658H0z"/></clipPath></defs></svg>