<svg width="345" height="296" viewBox="0 0 345 296" fill="none" xmlns="http://www.w3.org/2000/svg"><ellipse cx="141.39" cy="85.783" rx="79.656" ry="69.758" fill="#E2DBFF"/><g clip-path="url(#a)"><path d="M336.341.787H8.657a7.408 7.408 0 0 0-7.409 7.408v211.908a7.409 7.409 0 0 0 7.41 7.408H336.34a7.409 7.409 0 0 0 7.409-7.408V8.195A7.408 7.408 0 0 0 336.34.787zm-3.614 287.341H13.846l68.5-40.937h179.518l70.863 40.937zm0 0H13.846v7.085h318.881v-7.085z" stroke="#10084D" stroke-width="2" stroke-linecap="round" stroke-linejoin="round"/><path d="M331.034 19.68h-50.155a3.267 3.267 0 0 0-3.268 3.268v69.828a3.267 3.267 0 0 0 3.268 3.267h50.155a3.267 3.267 0 0 0 3.267-3.267V22.948a3.267 3.267 0 0 0-3.267-3.267z" stroke="#10084D" stroke-width="2" stroke-linecap="round" stroke-linejoin="round"/><path d="M331.034 111.787h-50.155a3.268 3.268 0 0 0-3.268 3.267v80.062a3.268 3.268 0 0 0 3.268 3.267h50.155a3.267 3.267 0 0 0 3.267-3.267v-80.062a3.267 3.267 0 0 0-3.267-3.267zm-4.724-71.638h-40.707a3.267 3.267 0 0 0-3.267 3.267v23.38a3.267 3.267 0 0 0 3.267 3.268h40.707a3.267 3.267 0 0 0 3.268-3.267V43.416a3.267 3.267 0 0 0-3.268-3.267z" fill="#7040FF"/><path d="M326.31 77.936h-40.707a3.267 3.267 0 0 0-3.267 3.267v4.487a3.267 3.267 0 0 0 3.267 3.268h40.707a3.267 3.267 0 0 0 3.268-3.267v-4.488a3.267 3.267 0 0 0-3.268-3.267z" stroke="#51A4E4" stroke-width="2" stroke-linecap="round" stroke-linejoin="round"/><path d="M24.082 227.393v-57.232a3.268 3.268 0 0 1 3.268-3.267h147a3.267 3.267 0 0 1 3.267 3.267v57.232" stroke="#10084D" stroke-width="2" stroke-linecap="round" stroke-linejoin="round"/><path d="M32.742 227.393v-31.254a3.268 3.268 0 0 1 3.268-3.267h129.678a3.268 3.268 0 0 1 3.268 3.267v31.254" stroke="#10084D" stroke-width="2" stroke-linecap="round" stroke-linejoin="round"/><path d="M287.06 33.851a3.149 3.149 0 1 0 0-6.298 3.149 3.149 0 0 0 0 6.298z" fill="#7040FF"/><path d="M287.06 123.596a3.15 3.15 0 1 0 0-6.298 3.15 3.15 0 0 0 0 6.298z" fill="#51A4E4"/><path d="M283.91 133.83h44.273M294.146 30.702h25.196" stroke="#10084D" stroke-width="2" stroke-linecap="round" stroke-linejoin="round"/><path d="M33.53 181.064a3.15 3.15 0 1 0 0-6.299 3.15 3.15 0 0 0 0 6.299z" fill="#7040FF"/><path d="M167.382 181.064a3.15 3.15 0 1 0 0-6.298 3.15 3.15 0 0 0 0 6.298z" fill="#51A4E4"/><path d="M40.617 177.915h25.196m-25.196 21.452h76.374m-76.374 12.596h37.794m-45.669-5.708h136.214M32.742 218.064h136.214M283.91 139.34h44.273m-44.273 5.511h44.273m-44.273 5.511h44.273m-44.273 5.51h44.273m-44.273 5.511h30.707" stroke="#10084D" stroke-width="2" stroke-linecap="round" stroke-linejoin="round"/><path d="M324.854 185.787h-15.748a3.15 3.15 0 0 0 0 6.298h15.748a3.15 3.15 0 0 0 0-6.298z" fill="#51A4E4"/><path d="M159.902 197.399h-13.385a1.968 1.968 0 1 0 0 3.936h13.385a1.969 1.969 0 1 0 0-3.936zm.787 12.596h-13.385a1.968 1.968 0 1 0 0 3.936h13.385a1.968 1.968 0 1 0 0-3.936z" fill="#7040FF"/><path d="M205.088 53.76a2.843 2.843 0 1 0 0-5.685 2.843 2.843 0 0 0 0 5.685zm-75.933-21.231a2.842 2.842 0 1 0 0-5.684 2.842 2.842 0 0 0 0 5.684zM39.522 74.496a2.842 2.842 0 1 0 0-5.684 2.842 2.842 0 0 0 0 5.684zm184.25 73.969a2.842 2.842 0 1 0 0-5.684 2.842 2.842 0 0 0 0 5.684zm82.186 133.365H40.618l46.477-28.341h168.243l50.62 28.341zM75.473 260.574H267.99M63.86 267.66h216.79m-229.703 7.872h243.759" stroke="#10084D" stroke-width="2" stroke-linecap="round" stroke-linejoin="round"/><path d="M222.496 281.83h-98.42l3.543-6.298h90.413l4.464 6.298zm0 0l-20.078-28.341m30.425 28.341l-23.864-28.341m34.218 28.341l-27.652-28.341m37.998 28.341l-31.439-28.341m41.785 28.341l-35.219-28.341m45.564 28.341l-39.005-28.341m49.359 28.341l-42.801-28.341m53.147 28.341l-46.58-28.341M51.639 281.83l42.446-28.341M61.984 281.83l38.66-28.341M72.34 281.83l34.872-28.341M82.686 281.83l31.085-28.341m-20.74 28.341l27.298-28.341m-16.952 28.341l23.518-28.341M113.73 281.83l19.724-28.341m-9.378 28.341l15.936-28.341m-2.991 22.043l9.488-22.043m-.489 22.043l6.7-22.043m2.307 22.043l3.906-22.043m5.094 22.043l1.118-22.043m7.882 22.043l-1.67-22.043m10.67 22.043l-4.457-22.043m13.463 22.043l-7.252-22.043m16.252 22.043l-10.039-22.043m19.039 22.043l-12.826-22.043" stroke="#10084D" stroke-width="2" stroke-linecap="round" stroke-linejoin="round"/><path d="M72.007 79.167c-16.17 17.968-2.695 23.358 4.492 26.053 7.187 2.696 89.839 25.156 117.689 25.156 21.058 0 20.034-14.887 18.273-22.155a5.227 5.227 0 0 0-4.698-4.016c-44.65-3.054-71.97-63.67-71.97-63.67-17.968 0-19.765 12.578-19.765 12.578h-5.39s-17.07 0-25.155-10.781c0 0-8.984 2.695-9.882 14.374v4.492a20.601 20.601 0 0 1-.898 14.932l-2.696 3.037z" fill="#7040FF"/><path d="M116.028 53.113s1.797-12.578 19.765-12.578c0 0 27.32 60.616 71.97 63.67a5.229 5.229 0 0 1 4.698 4.016c1.797 7.268 2.785 22.155-18.273 22.155-27.85 0-110.502-22.46-117.689-25.156-7.187-2.695-20.663-8.085-4.492-26.053" stroke="#10084D" stroke-width="2" stroke-linecap="round" stroke-linejoin="round"/><path d="M110.639 53.113s-17.07 0-25.155-10.781c0 0-8.984 2.695-9.882 14.374M154.66 89.05l8.607-8.455m-14.896 2.165l8.607-8.454m-13.998 2.165l8.607-8.454m-15.839 4.861l11.347-11.15m58.774 45.289s-14.895 4.753-17.33 14.06M82.79 47.776l-6.684 9.146m9.379-5.552L78.8 60.516m10.279-5.462l-3.99 5.462m7.581-2.103l-2.192 3.001" stroke="#10084D" stroke-width="2" stroke-linecap="round" stroke-linejoin="round"/><path d="M174.245 123.561l-65.516-25.452c-1.414-2.356-1.933-2.927-2.828-4.242-6.352-9.322-19.35-10.47-29.223-14.14-17.775 3.755-14.611 23.096-2.828 24.509l4.242 1.414 16.026 4.714 74.942 18.853c36.294 4.714 40.064-1.414 43.835-9.427 0 0-29.785 7.067-38.65 3.771z" fill="#FFEEC1" stroke="#10084D" stroke-width="2" stroke-linecap="round" stroke-linejoin="round"/><path d="M101.66 88.21l8.012-13.668 4.242-17.44c-6.113 1.96-17.289 7.222-21.21 7.542-4.485.369-13.697-.581-16.968-2.828 1.935 9.278-2.357 17.91-2.357 17.91 6.857 1.352 18.854 4.243 28.281 8.485z" fill="#51A4E4" stroke="#10084D" stroke-width="2" stroke-linecap="round" stroke-linejoin="round"/><path d="M114.774 56.466c-.439.167-.894.306-1.333.445l20.739 1.134c6.599-.471 5.656-.306 10.37-1.414-5.993-4.231-3.845-9.304-8.582-14.098-19.68-3.715-21.194 13.933-21.194 13.933z" fill="#10084D" stroke="#10084D" stroke-width="2" stroke-linecap="round" stroke-linejoin="round"/><path d="M158.83 75.953l25.723-25.113h17.228m-75.469-21.154h-10.173l-20.951 20.95m125.733 94.986h-14.227l-32.526-32.52M42.373 71.654h15.283l31.84 31.836" stroke="#10084D" stroke-width="2" stroke-linecap="round" stroke-linejoin="round"/><path fill="#10084D" stroke="#10084D" stroke-width="3" d="M152.789 228.685h46.962v16.796h-46.962z"/></g><defs><clipPath id="a"><path fill="#fff" transform="translate(.46)" d="M0 0h344.076v296H0z"/></clipPath></defs></svg>