<svg width="1119" height="1119" viewBox="0 0 1119 1119" fill="none" xmlns="http://www.w3.org/2000/svg"><circle opacity=".5" cx="559.5" cy="559.5" r="122" stroke="#815DC1"/><circle opacity=".5" cx="559.5" cy="559.5" r="217" stroke="#2576BC"/><circle opacity=".5" cx="559.5" cy="559.5" r="318" stroke="#65CED6"/><circle opacity=".5" cx="559.5" cy="559.5" r="559" stroke="#DDD"/><path d="M556.16 555.826h18.135a1.3 1.3 0 0 1 1.302 1.302v2.501h-18.135a1.301 1.301 0 0 1-1.302-1.302v-2.501z" fill="#503885"/><path d="M541.26 552.023h18.135a1.306 1.306 0 0 1 1.302 1.303v2.5h-18.135a1.303 1.303 0 0 1-1.302-1.302v-2.501z" fill="#815DC1"/><path d="M555.977 546.273h18.134a1.303 1.303 0 0 1 1.303 1.303v2.5h-18.135a1.302 1.302 0 0 1-1.302-1.302v-2.501z" fill="#2576BC"/><path d="M541.26 542.536h18.135a1.306 1.306 0 0 1 1.302 1.303v2.487h-18.135a1.303 1.303 0 0 1-1.302-1.302v-2.501.013z" fill="#51A4E4"/><path d="M555.977 536.174h18.134a1.302 1.302 0 0 1 1.303 1.302v2.501h-18.135a1.303 1.303 0 0 1-1.302-1.303v-2.5z" fill="#8CE2E9"/><path d="M541.26 532.365h18.135a1.302 1.302 0 0 1 1.302 1.303v2.5h-18.135a1.303 1.303 0 0 1-1.302-1.302v-2.501z" fill="#65CED6"/><path d="M505.85 582.099h-4.844v-7.612a.852.852 0 0 1 .227-.651c.178-.158.387-.277.613-.352a8.97 8.97 0 0 1 1.68-.332 16.34 16.34 0 0 1 1.953-.117c1.954 0 3.419.41 4.389 1.211a4.12 4.12 0 0 1 1.458 3.328 4.197 4.197 0 0 1-.651 2.357 4.561 4.561 0 0 1-1.901 1.589 6.872 6.872 0 0 1-2.924.579zm-4.844-.976h2.819v5.684c-.178.059-.361.1-.547.124-.252.04-.507.059-.762.059a1.83 1.83 0 0 1-1.159-.3 1.305 1.305 0 0 1-.351-1.016v-4.551zm2.8-1.225h1.842a3.45 3.45 0 0 0 2.091-.579 2.007 2.007 0 0 0 .774-1.713 1.956 1.956 0 0 0-.774-1.686 3.835 3.835 0 0 0-2.293-.58c-.293 0-.586 0-.866.033-.28.032-.54.058-.774.104v4.421zm1.667 1.492l2.396-.691c.371.489.755.977 1.146 1.478l1.133 1.44c.365.468.69.898.977 1.302.286.404.514.703.651.957a1.58 1.58 0 0 1-1.53 1.179 1.6 1.6 0 0 1-1.036-.306 3.52 3.52 0 0 1-.697-.808l-3.04-4.551zm11.818.897h-2.754v-7.423a1.45 1.45 0 0 1 .41-1.088 1.515 1.515 0 0 1 1.101-.403c.247 0 .493.024.736.071.171.026.341.063.507.111v8.732zm-2.754-4.356h2.754v8.777a3.667 3.667 0 0 1-.507.111 3.957 3.957 0 0 1-.736.072 1.468 1.468 0 0 1-1.101-.417 1.459 1.459 0 0 1-.41-1.074v-7.469zm1.511-2.292v-2.266h7.358c.092.137.16.289.202.449.064.211.095.431.091.651.018.319-.074.634-.261.892a.894.894 0 0 1-.742.306l-6.648-.032zm0 5.45v-2.247h6.694c.089.14.159.291.208.45.069.199.104.408.104.618.023.312-.072.622-.267.866a.939.939 0 0 1-.736.293l-6.003.02zm0 5.802v-2.247h7.469c.075.142.138.29.188.443.07.21.106.43.105.651.023.312-.073.621-.267.866a.96.96 0 0 1-.736.293l-6.759-.006zm14.599-1.98a2.956 2.956 0 0 0 1.914-.521 1.631 1.631 0 0 0 .652-1.302 1.438 1.438 0 0 0-.482-1.12 3.65 3.65 0 0 0-1.452-.723l-1.446-.449a11.707 11.707 0 0 1-1.954-.84 3.505 3.505 0 0 1-1.302-1.211 3.767 3.767 0 0 1 .886-4.682 5.856 5.856 0 0 1 3.679-1.042c.746-.01 1.49.075 2.214.254a4.284 4.284 0 0 1 1.537.697 1.3 1.3 0 0 1 .351 1.79 1.64 1.64 0 0 1-.521.521 4.793 4.793 0 0 0-1.4-.651 6.362 6.362 0 0 0-1.953-.28 3.177 3.177 0 0 0-1.778.423 1.3 1.3 0 0 0-.651 1.133 1.163 1.163 0 0 0 .436.932c.387.3.83.521 1.302.651l1.303.377a7.433 7.433 0 0 1 2.976 1.57 3.48 3.48 0 0 1 1.068 2.696 3.637 3.637 0 0 1-1.387 2.956 6.125 6.125 0 0 1-3.966 1.133 8.933 8.933 0 0 1-2.403-.287 4.316 4.316 0 0 1-1.654-.801 1.475 1.475 0 0 1-.612-1.152 1.239 1.239 0 0 1 .313-.847c.18-.218.401-.4.651-.534.453.371.955.677 1.491.912.691.294 1.438.43 2.188.397zm21.097-4.805a7.912 7.912 0 0 1-.879 3.907 5.916 5.916 0 0 1-2.396 2.39 7.768 7.768 0 0 1-6.896 0 5.916 5.916 0 0 1-2.396-2.39 7.912 7.912 0 0 1-.879-3.907 7.767 7.767 0 0 1 .898-3.907 6.017 6.017 0 0 1 2.423-2.389 7.599 7.599 0 0 1 6.824 0 5.97 5.97 0 0 1 2.39 2.428 7.813 7.813 0 0 1 .911 3.868zm-2.865 0a5.313 5.313 0 0 0-1.055-3.555 3.533 3.533 0 0 0-2.813-1.218 3.485 3.485 0 0 0-2.767 1.218 6.596 6.596 0 0 0 0 7.163 3.815 3.815 0 0 0 5.6 0 5.37 5.37 0 0 0 1.035-3.608zm8.601 1.139h-2.8v-7.873l.541-.11c.247-.045.497-.067.748-.065.405-.036.81.062 1.153.28a1.225 1.225 0 0 1 .358 1.028v6.74zm2.8 5.952a6.645 6.645 0 0 1-3.021-.652 4.43 4.43 0 0 1-1.954-1.79 5.401 5.401 0 0 1-.651-2.709v-1.602h2.8v1.491a2.915 2.915 0 0 0 .788 2.188 3 3 0 0 0 4.011 0 2.887 2.887 0 0 0 .801-2.188v-1.491h2.82v1.654a5.346 5.346 0 0 1-.652 2.709 4.484 4.484 0 0 1-1.921 1.791 6.686 6.686 0 0 1-3.021.599zm5.62-5.932h-2.82v-7.893l.554-.11c.249-.044.502-.066.755-.065.402-.033.804.065 1.146.28a1.218 1.218 0 0 1 .365 1.028v6.76zm8.446.834h-4.844v-7.612a.82.82 0 0 1 .234-.651c.177-.159.386-.279.612-.352a8.985 8.985 0 0 1 1.68-.332 16.356 16.356 0 0 1 1.954-.117c1.953 0 3.418.41 4.389 1.211a4.12 4.12 0 0 1 1.458 3.328 4.146 4.146 0 0 1-.684 2.357 4.483 4.483 0 0 1-1.894 1.589c-.915.4-1.906.598-2.905.579zm-4.844-.976h2.819v5.684c-.178.059-.361.1-.547.124-.254.04-.511.059-.768.059a1.813 1.813 0 0 1-1.153-.3 1.317 1.317 0 0 1-.289-.469 1.32 1.32 0 0 1-.069-.547l.007-4.551zm2.8-1.225h1.849a3.444 3.444 0 0 0 2.09-.579 2.01 2.01 0 0 0 .775-1.713 1.956 1.956 0 0 0-.775-1.686 3.834 3.834 0 0 0-2.292-.58c-.299 0-.586 0-.866.033-.28.032-.54.058-.781.104v4.421zm1.667 1.492l2.402-.691c.372.489.756.977 1.147 1.478l1.133 1.44c.364.468.69.898.976 1.302.287.404.515.703.651.957-.09.347-.297.653-.586.866a1.726 1.726 0 0 1-1.953 0 3.516 3.516 0 0 1-.703-.807l-3.067-4.545zm19.137-6.305c.004.266-.076.526-.228.743a1.748 1.748 0 0 1-.547.501 7.95 7.95 0 0 0-1.302-.69 4.71 4.71 0 0 0-1.804-.306 4.364 4.364 0 0 0-2.188.54 3.637 3.637 0 0 0-1.465 1.622 5.97 5.97 0 0 0-.521 2.604 4.922 4.922 0 0 0 1.178 3.569c.41.408.9.726 1.439.935a4.184 4.184 0 0 0 1.694.276 4.956 4.956 0 0 0 1.797-.293 6.096 6.096 0 0 0 1.302-.651c.205.133.376.311.501.521.138.232.21.498.209.768.003.243-.063.482-.189.69a1.59 1.59 0 0 1-.651.554 5.41 5.41 0 0 1-1.302.488 8.682 8.682 0 0 1-5.509-.54 5.724 5.724 0 0 1-2.481-2.338 8.967 8.967 0 0 1 0-7.879 6.066 6.066 0 0 1 2.442-2.39 7.078 7.078 0 0 1 3.36-.807 7.592 7.592 0 0 1 2.233.286 3.86 3.86 0 0 1 1.465.756 1.337 1.337 0 0 1 .567 1.041zm5.646 7.202h-2.754v-7.423a1.45 1.45 0 0 1 .41-1.088 1.515 1.515 0 0 1 1.101-.403c.247 0 .493.024.736.071.171.026.341.063.507.111v8.732zm-2.754-4.356h2.754v8.777a3.984 3.984 0 0 1-.507.111 3.957 3.957 0 0 1-.736.072 1.465 1.465 0 0 1-1.101-.417 1.459 1.459 0 0 1-.41-1.074v-7.469zm1.511-2.292v-2.266h7.371c.09.138.158.29.202.449.062.211.091.431.084.651.021.318-.069.633-.254.892a.894.894 0 0 1-.742.306l-6.661-.032zm0 5.45v-2.247h6.72c.089.14.159.291.208.45.067.199.1.408.098.618a1.224 1.224 0 0 1-.306.886.94.94 0 0 1-.73.293h-5.99zm0 5.802v-2.247h7.469c.075.142.138.29.188.443.068.21.101.43.098.651a1.21 1.21 0 0 1-.267.866.924.924 0 0 1-.729.293l-6.759-.006zm21.695-2.878a5.723 5.723 0 0 1-2.533 2.364 8.724 8.724 0 0 1-3.822.782c-.486 0-1.066-.026-1.739-.079a7.347 7.347 0 0 1-1.843-.371 1.356 1.356 0 0 1-1.087-1.302v-10.92a.85.85 0 0 1 .234-.651c.177-.161.385-.284.612-.358a9.103 9.103 0 0 1 1.785-.332 20.16 20.16 0 0 1 1.816-.092 9.412 9.412 0 0 1 3.907.769 5.899 5.899 0 0 1 2.605 2.305 7.283 7.283 0 0 1 .944 3.907 7.96 7.96 0 0 1-.879 3.978zm-2.565-6.628a3.78 3.78 0 0 0-1.602-1.531 5.146 5.146 0 0 0-2.299-.501c-.325 0-.651 0-.925.033-.273.032-.566.058-.833.104v9.214c.294.061.592.102.892.123.326 0 .651.033.977.033a4.259 4.259 0 0 0 3.256-1.211 5.029 5.029 0 0 0 1.152-3.588 5.393 5.393 0 0 0-.599-2.676h-.019z" fill="#1D1D1B"/></svg>