<svg width="1084" height="998" viewBox="0 0 1084 998" fill="none" xmlns="http://www.w3.org/2000/svg"><circle opacity=".5" cx="559.5" cy="473.5" r="122" stroke="#815DC1"/><circle opacity=".5" cx="559.5" cy="473.5" r="217" stroke="#2576BC"/><circle opacity=".5" cx="559.5" cy="473.5" r="318" stroke="#65CED6"/><circle opacity=".5" cx="559.5" cy="473.5" r="559" stroke="#DDD"/><path d="M505.85 496.099h-4.844v-7.612a.852.852 0 0 1 .227-.651c.178-.158.387-.277.613-.352a8.97 8.97 0 0 1 1.68-.332 16.34 16.34 0 0 1 1.953-.117c1.954 0 3.419.41 4.389 1.211a4.12 4.12 0 0 1 1.458 3.328 4.197 4.197 0 0 1-.651 2.357 4.561 4.561 0 0 1-1.901 1.589 6.872 6.872 0 0 1-2.924.579zm-4.844-.976h2.819v5.684c-.178.059-.361.1-.547.124-.252.04-.507.059-.762.059a1.83 1.83 0 0 1-1.159-.3 1.305 1.305 0 0 1-.351-1.016v-4.551zm2.8-1.225h1.842a3.45 3.45 0 0 0 2.091-.579 2.007 2.007 0 0 0 .774-1.713 1.956 1.956 0 0 0-.774-1.686 3.835 3.835 0 0 0-2.293-.58c-.293 0-.586 0-.866.033-.28.032-.54.058-.774.104v4.421zm1.667 1.492l2.396-.691c.371.489.755.977 1.146 1.478l1.133 1.44c.365.468.69.898.977 1.302.286.404.514.703.651.957a1.58 1.58 0 0 1-1.53 1.179 1.6 1.6 0 0 1-1.036-.306 3.52 3.52 0 0 1-.697-.808l-3.04-4.551zm11.818.897h-2.754v-7.423a1.45 1.45 0 0 1 .41-1.088 1.511 1.511 0 0 1 1.1-.403c.247 0 .494.024.736.071a4 4 0 0 1 .508.111v8.732zm-2.754-4.356h2.754v8.777a3.681 3.681 0 0 1-.508.111 3.949 3.949 0 0 1-.736.072 1.463 1.463 0 0 1-1.1-.417 1.444 1.444 0 0 1-.41-1.074v-7.469zm1.51-2.292v-2.266h7.358c.093.137.161.289.202.449.065.211.096.431.091.651a1.38 1.38 0 0 1-.26.892.901.901 0 0 1-.742.306l-6.649-.032zm0 5.45v-2.247h6.694c.09.14.16.291.209.45.068.199.104.408.104.618.023.312-.072.622-.267.866a.948.948 0 0 1-.736.293l-6.004.02zm0 5.802v-2.247h7.469c.076.142.139.29.189.443.07.21.105.43.104.651.023.312-.072.621-.267.866a.952.952 0 0 1-.736.293l-6.759-.006zm14.599-1.98a2.958 2.958 0 0 0 1.915-.521 1.628 1.628 0 0 0 .651-1.302 1.438 1.438 0 0 0-.482-1.12 3.644 3.644 0 0 0-1.452-.723l-1.446-.449a11.661 11.661 0 0 1-1.953-.84 3.498 3.498 0 0 1-1.302-1.211 3.773 3.773 0 0 1 .885-4.682 5.86 5.86 0 0 1 3.679-1.042c.746-.01 1.49.075 2.214.254a4.277 4.277 0 0 1 1.537.697 1.3 1.3 0 0 1 .352 1.79 1.661 1.661 0 0 1-.521.521 4.793 4.793 0 0 0-1.4-.651 6.372 6.372 0 0 0-1.954-.28 3.176 3.176 0 0 0-1.777.423 1.3 1.3 0 0 0-.652 1.133 1.15 1.15 0 0 0 .437.932c.387.3.829.521 1.302.651l1.302.377a7.426 7.426 0 0 1 2.976 1.57 3.482 3.482 0 0 1 1.068 2.696 3.624 3.624 0 0 1-.343 1.642c-.24.514-.598.963-1.044 1.314a6.122 6.122 0 0 1-3.965 1.133 8.929 8.929 0 0 1-2.403-.287 4.302 4.302 0 0 1-1.654-.801 1.464 1.464 0 0 1-.612-1.152 1.238 1.238 0 0 1 .312-.847c.181-.218.402-.4.651-.534.454.371.955.677 1.492.912.69.294 1.438.43 2.187.397zm21.098-4.805a7.912 7.912 0 0 1-.879 3.907 5.916 5.916 0 0 1-2.396 2.39 7.768 7.768 0 0 1-6.896 0 5.91 5.91 0 0 1-2.396-2.39 7.924 7.924 0 0 1-.88-3.907 7.779 7.779 0 0 1 .899-3.907 6.02 6.02 0 0 1 2.422-2.389 7.602 7.602 0 0 1 6.825 0 5.967 5.967 0 0 1 2.389 2.428 7.824 7.824 0 0 1 .912 3.868zm-2.865 0a5.313 5.313 0 0 0-1.055-3.555 3.533 3.533 0 0 0-2.813-1.218 3.482 3.482 0 0 0-2.767 1.218 6.596 6.596 0 0 0 0 7.163 3.815 3.815 0 0 0 5.599 0 5.365 5.365 0 0 0 1.036-3.608zm8.602 1.139h-2.8v-7.873l.54-.11c.247-.045.498-.067.749-.065.405-.036.81.062 1.153.28a1.222 1.222 0 0 1 .358 1.028v6.74zm2.8 5.952a6.651 6.651 0 0 1-3.022-.652 4.428 4.428 0 0 1-1.953-1.79 5.401 5.401 0 0 1-.651-2.709v-1.602h2.8v1.491a2.922 2.922 0 0 0 .788 2.188 3 3 0 0 0 4.011 0 2.902 2.902 0 0 0 .801-2.188v-1.491h2.819v1.654a5.335 5.335 0 0 1-.651 2.709 4.484 4.484 0 0 1-1.921 1.791 6.686 6.686 0 0 1-3.021.599zm5.619-5.932h-2.819v-7.893l.553-.11c.25-.044.502-.066.756-.065.402-.033.804.065 1.146.28a1.218 1.218 0 0 1 .364 1.028v6.76zm8.446.834h-4.845v-7.612a.837.837 0 0 1 .235-.651 1.68 1.68 0 0 1 .612-.352 8.97 8.97 0 0 1 1.68-.332 16.34 16.34 0 0 1 1.953-.117c1.954 0 3.419.41 4.389 1.211a4.125 4.125 0 0 1 1.459 3.328 4.162 4.162 0 0 1-.684 2.357 4.485 4.485 0 0 1-1.895 1.589c-.915.4-1.906.598-2.904.579zm-4.845-.976h2.82v5.684c-.178.059-.361.1-.547.124-.254.04-.511.059-.769.059a1.808 1.808 0 0 1-1.152-.3 1.303 1.303 0 0 1-.358-1.016l.006-4.551zm2.8-1.225h1.85a3.446 3.446 0 0 0 2.09-.579 2.007 2.007 0 0 0 .775-1.713 1.956 1.956 0 0 0-.775-1.686 3.834 3.834 0 0 0-2.292-.58c-.3 0-.586 0-.866.033-.28.032-.541.058-.782.104v4.421zm1.667 1.492l2.403-.691c.371.489.755.977 1.146 1.478l1.133 1.44c.365.468.69.898.977 1.302.286.404.514.703.651.957a1.57 1.57 0 0 1-.586.866 1.729 1.729 0 0 1-1.954 0 3.54 3.54 0 0 1-.703-.807l-3.067-4.545zm19.138-6.305c.004.266-.075.526-.228.743-.144.204-.33.375-.547.501a7.95 7.95 0 0 0-1.302-.69 4.71 4.71 0 0 0-1.804-.306 4.367 4.367 0 0 0-2.188.54 3.637 3.637 0 0 0-1.465 1.622 6 6 0 0 0-.521 2.604 4.919 4.919 0 0 0 1.179 3.569 4.17 4.17 0 0 0 3.132 1.211 4.956 4.956 0 0 0 1.797-.293 6.073 6.073 0 0 0 1.302-.651c.205.133.376.311.502.521.137.232.209.498.208.768.003.243-.063.482-.189.69a1.583 1.583 0 0 1-.651.554 5.41 5.41 0 0 1-1.302.488 8.683 8.683 0 0 1-5.509-.54 5.73 5.73 0 0 1-2.481-2.338 8.967 8.967 0 0 1 0-7.879 6.066 6.066 0 0 1 2.442-2.39 7.078 7.078 0 0 1 3.36-.807 7.592 7.592 0 0 1 2.233.286 3.86 3.86 0 0 1 1.465.756 1.337 1.337 0 0 1 .567 1.041zm5.645 7.202h-2.754v-7.423a1.45 1.45 0 0 1 .41-1.088 1.515 1.515 0 0 1 1.101-.403c.247 0 .493.024.736.071.171.026.341.063.507.111v8.732zm-2.754-4.356h2.754v8.777a3.984 3.984 0 0 1-.507.111 3.957 3.957 0 0 1-.736.072 1.465 1.465 0 0 1-1.101-.417 1.459 1.459 0 0 1-.41-1.074v-7.469zm1.511-2.292v-2.266h7.371c.09.138.158.29.202.449.062.211.091.431.084.651.021.318-.069.633-.254.892a.894.894 0 0 1-.742.306l-6.661-.032zm0 5.45v-2.247h6.72c.089.14.159.291.208.45.067.199.1.408.098.618a1.224 1.224 0 0 1-.306.886.94.94 0 0 1-.73.293h-5.99zm0 5.802v-2.247h7.469c.075.142.138.29.188.443.068.21.101.43.098.651a1.21 1.21 0 0 1-.267.866.924.924 0 0 1-.729.293l-6.759-.006zm21.697-2.878a5.728 5.728 0 0 1-2.533 2.364 8.729 8.729 0 0 1-3.823.782c-.486 0-1.065-.026-1.738-.079a7.338 7.338 0 0 1-1.843-.371 1.362 1.362 0 0 1-1.088-1.302v-10.92a.85.85 0 0 1 .235-.651 1.68 1.68 0 0 1 .612-.358 9.093 9.093 0 0 1 1.784-.332c.651-.059 1.25-.092 1.817-.092a9.419 9.419 0 0 1 3.907.769 5.896 5.896 0 0 1 2.604 2.305 7.293 7.293 0 0 1 .945 3.907 7.96 7.96 0 0 1-.879 3.978zm-2.566-6.628a3.78 3.78 0 0 0-1.602-1.531 5.144 5.144 0 0 0-2.298-.501c-.326 0-.652 0-.925.033-.274.032-.567.058-.834.104v9.214c.295.061.593.102.893.123.325 0 .651.033.976.033a4.256 4.256 0 0 0 3.256-1.211 5.03 5.03 0 0 0 1.153-3.588 5.414 5.414 0 0 0-.599-2.676h-.02z" fill="#1D1D1B"/><path d="M551.639 475.935h23.274c.444 0 .869.192 1.182.533.314.342.49.806.49 1.289v3.499h-23.274c-.444 0-.869-.192-1.182-.533a1.909 1.909 0 0 1-.49-1.289v-3.499z" fill="#5A36C7"/><path d="M539 470.612h23.274c.444 0 .869.192 1.182.534.314.342.49.805.49 1.289v3.499h-23.275c-.443 0-.868-.192-1.181-.534a1.906 1.906 0 0 1-.49-1.288v-3.5z" fill="#7040FF"/><path d="M551.639 463.628h23.274c.444 0 .869.192 1.182.534.314.342.49.806.49 1.289v3.499h-23.274c-.444 0-.869-.192-1.182-.534a1.905 1.905 0 0 1-.49-1.288v-3.5z" fill="#2576BC"/><path d="M539 458.324h23.274c.444 0 .869.192 1.182.534.314.342.49.806.49 1.289v3.481h-23.275c-.443 0-.868-.192-1.181-.534a1.907 1.907 0 0 1-.49-1.289v-3.499.018z" fill="#51A4E4"/><path d="M551.639 451.322h23.274c.444 0 .869.192 1.182.534.314.342.49.805.49 1.289v3.499h-23.274c-.444 0-.869-.192-1.182-.534a1.907 1.907 0 0 1-.49-1.289v-3.499z" fill="#65CED6"/><path d="M539 446h23.274c.444 0 .869.192 1.182.534.314.342.49.805.49 1.289v3.499h-23.275c-.443 0-.868-.192-1.181-.534a1.907 1.907 0 0 1-.49-1.289V446z" fill="#8CE2E9"/></svg>