<svg width="643" height="420" viewBox="0 0 643 420" fill="none" xmlns="http://www.w3.org/2000/svg"><rect x="50.647" y=".942" width="72" height="71" rx="8" transform="rotate(45 50.647 .942)" stroke="#7040FF" stroke-width="2" stroke-linecap="round" stroke-linejoin="round"/><path d="M604.865 232.752c40.812 20.035 47.168 72.411 27.137 113.231-18.584 37.87-63.345 56.298-101.208 37.71-42.546-20.887-69.454-68.685-48.572-111.24 22.181-45.199 77.452-61.886 122.643-39.701z" fill="#FFEEC1"/><g clip-path="url(#a)"><rect x="37" y="36" width="572.625" height="383.767" rx="7" fill="#fff"/><path fill="#10084D" d="M37.001 36h572.625v21.791H37.001z"/><path fill-rule="evenodd" clip-rule="evenodd" d="M52.739 46.29c0-1.671 1.174-3.026 2.623-3.026H97.33c1.449 0 2.623 1.355 2.623 3.026 0 1.672-1.174 3.027-2.623 3.027H55.362c-1.449 0-2.623-1.355-2.623-3.027z" fill="#fff"/><circle cx="590.255" cy="46.896" r="6.053" fill="#fff"/><g filter="url(#b)"><rect x="60.582" y="77.742" width="244.546" height="240.914" rx="4" fill="#F1F6FF"/><path fill="#E2DBFF" d="M61 78h244v39H61z"/><path d="M188.341 186.039c1.048 0 1.927-.373 2.637-1.119l.853.839a4.036 4.036 0 0 1-1.545 1.092 5.312 5.312 0 0 1-2.011.373 5.346 5.346 0 0 1-2.144-.426 4.7 4.7 0 0 1-1.665-1.226 4.571 4.571 0 0 1-.959-1.824h-1.518v-.746h1.385a7.939 7.939 0 0 1-.026-.546c0-.133.009-.315.026-.546h-1.385v-.745h1.518a4.582 4.582 0 0 1 .959-1.825 4.56 4.56 0 0 1 1.665-1.212 5.205 5.205 0 0 1 2.144-.439c.737 0 1.407.124 2.011.373a4.091 4.091 0 0 1 1.545 1.078l-.853.839c-.701-.737-1.58-1.105-2.637-1.105-.807 0-1.518.209-2.13.626a3.327 3.327 0 0 0-1.292 1.665h4.221v.745h-4.407c-.027.169-.04.351-.04.546 0 .187.013.369.04.546h4.407v.746h-4.221a3.331 3.331 0 0 0 1.292 1.665c.612.417 1.323.626 2.13.626zm16.856 1.078l-2.037-2.703-2.064 2.703h-1.425l2.783-3.609-2.65-3.449h1.425l1.944 2.544 1.931-2.544h1.398l-2.663 3.449 2.81 3.609h-1.452zm15.539-1.078c1.048 0 1.927-.373 2.637-1.119l.852.839a4.025 4.025 0 0 1-1.544 1.092 5.312 5.312 0 0 1-2.011.373 5.343 5.343 0 0 1-2.144-.426 4.7 4.7 0 0 1-1.665-1.226 4.559 4.559 0 0 1-.959-1.824h-1.518v-.746h1.385a7.446 7.446 0 0 1-.027-.546c0-.133.009-.315.027-.546h-1.385v-.745h1.518a4.57 4.57 0 0 1 .959-1.825 4.56 4.56 0 0 1 1.665-1.212 5.201 5.201 0 0 1 2.144-.439c.737 0 1.407.124 2.011.373a4.08 4.08 0 0 1 1.544 1.078l-.852.839c-.701-.737-1.58-1.105-2.637-1.105-.808 0-1.518.209-2.13.626a3.321 3.321 0 0 0-1.292 1.665h4.221v.745h-4.408a3.752 3.752 0 0 0 0 1.092h4.408v.746h-4.221a3.326 3.326 0 0 0 1.292 1.665c.612.417 1.322.626 2.13.626zm12.035-5.687h5.966v1.052h-5.966v-1.052zm0 3.156h5.966v1.052h-5.966v-1.052zm20.763 2.531c1.048 0 1.927-.373 2.637-1.119l.852.839a4.02 4.02 0 0 1-1.545 1.092 5.303 5.303 0 0 1-2.01.373 5.343 5.343 0 0 1-2.144-.426 4.7 4.7 0 0 1-1.665-1.226 4.559 4.559 0 0 1-.959-1.824h-1.518v-.746h1.385a7.446 7.446 0 0 1-.027-.546c0-.133.009-.315.027-.546h-1.385v-.745h1.518a4.57 4.57 0 0 1 .959-1.825 4.56 4.56 0 0 1 1.665-1.212 5.201 5.201 0 0 1 2.144-.439c.737 0 1.407.124 2.01.373a4.075 4.075 0 0 1 1.545 1.078l-.852.839c-.701-.737-1.58-1.105-2.637-1.105-.808 0-1.518.209-2.13.626a3.321 3.321 0 0 0-1.292 1.665h4.221v.745h-4.408a3.752 3.752 0 0 0 0 1.092h4.408v.746h-4.221a3.326 3.326 0 0 0 1.292 1.665c.612.417 1.322.626 2.13.626zm10.742 0c1.048 0 1.927-.373 2.637-1.119l.852.839a4.02 4.02 0 0 1-1.545 1.092 5.303 5.303 0 0 1-2.01.373 5.34 5.34 0 0 1-2.144-.426 4.7 4.7 0 0 1-1.665-1.226 4.559 4.559 0 0 1-.959-1.824h-1.518v-.746h1.385a7.446 7.446 0 0 1-.027-.546c0-.133.009-.315.027-.546h-1.385v-.745h1.518a4.57 4.57 0 0 1 .959-1.825 4.56 4.56 0 0 1 1.665-1.212 5.198 5.198 0 0 1 2.144-.439c.736 0 1.407.124 2.01.373a4.075 4.075 0 0 1 1.545 1.078l-.852.839c-.701-.737-1.58-1.105-2.637-1.105-.808 0-1.518.209-2.131.626a3.325 3.325 0 0 0-1.291 1.665h4.221v.745h-4.408a3.752 3.752 0 0 0 0 1.092h4.408v.746h-4.221a3.33 3.33 0 0 0 1.291 1.665c.613.417 1.323.626 2.131.626zm-79.23 21.833v5.932h-.838v-5.195h-1.339v-.737h2.177zm3.722 6c-.469 0-.887-.119-1.254-.356-.362-.243-.647-.593-.856-1.051-.209-.458-.314-1-.314-1.627s.105-1.17.314-1.627c.209-.458.494-.805.856-1.042a2.22 2.22 0 0 1 1.254-.365c.463 0 .875.122 1.237.365.367.237.655.584.864 1.042.209.457.314 1 .314 1.627s-.105 1.169-.314 1.627c-.209.458-.497.808-.864 1.051a2.207 2.207 0 0 1-1.237.356zm0-.754c.474 0 .853-.195 1.135-.585.288-.39.432-.955.432-1.695 0-.74-.144-1.305-.432-1.695a1.332 1.332 0 0 0-1.135-.585c-.48 0-.865.195-1.153.585-.282.39-.424.955-.424 1.695 0 .74.142 1.305.424 1.695.288.39.673.585 1.153.585zm5.652.754c-.469 0-.887-.119-1.254-.356-.362-.243-.647-.593-.856-1.051-.209-.458-.314-1-.314-1.627s.105-1.17.314-1.627c.209-.458.494-.805.856-1.042a2.22 2.22 0 0 1 1.254-.365c.463 0 .876.122 1.237.365.368.237.656.584.865 1.042.209.457.313 1 .313 1.627s-.104 1.169-.313 1.627c-.209.458-.497.808-.865 1.051a2.205 2.205 0 0 1-1.237.356zm0-.754c.475 0 .853-.195 1.136-.585.288-.39.432-.955.432-1.695 0-.74-.144-1.305-.432-1.695a1.334 1.334 0 0 0-1.136-.585c-.48 0-.864.195-1.152.585-.283.39-.424.955-.424 1.695 0 .74.141 1.305.424 1.695.288.39.672.585 1.152.585zm5.652.754c-.469 0-.887-.119-1.254-.356-.361-.243-.647-.593-.856-1.051-.209-.458-.313-1-.313-1.627s.104-1.17.313-1.627c.209-.458.495-.805.856-1.042a2.22 2.22 0 0 1 1.254-.365c.464 0 .876.122 1.238.365.367.237.655.584.864 1.042.209.457.314 1 .314 1.627s-.105 1.169-.314 1.627c-.209.458-.497.808-.864 1.051a2.208 2.208 0 0 1-1.238.356zm0-.754c.475 0 .853-.195 1.136-.585.288-.39.432-.955.432-1.695 0-.74-.144-1.305-.432-1.695a1.334 1.334 0 0 0-1.136-.585c-.48 0-.864.195-1.152.585-.283.39-.424.955-.424 1.695 0 .74.141 1.305.424 1.695.288.39.672.585 1.152.585zm5.653.754c-.469 0-.887-.119-1.254-.356-.362-.243-.647-.593-.856-1.051-.209-.458-.314-1-.314-1.627s.105-1.17.314-1.627c.209-.458.494-.805.856-1.042a2.22 2.22 0 0 1 1.254-.365c.463 0 .875.122 1.237.365.367.237.655.584.864 1.042.209.457.314 1 .314 1.627s-.105 1.169-.314 1.627c-.209.458-.497.808-.864 1.051a2.207 2.207 0 0 1-1.237.356zm0-.754c.474 0 .853-.195 1.135-.585.288-.39.432-.955.432-1.695 0-.74-.144-1.305-.432-1.695a1.332 1.332 0 0 0-1.135-.585c-.481 0-.865.195-1.153.585-.282.39-.424.955-.424 1.695 0 .74.142 1.305.424 1.695.288.39.672.585 1.153.585zm-19.772 5.152c.435 0 .825.096 1.17.288.344.192.613.461.805.805.198.345.296.743.296 1.195 0 .452-.098.853-.296 1.204a2.05 2.05 0 0 1-.805.805 2.365 2.365 0 0 1-1.17.288c-.322 0-.618-.062-.89-.187a1.86 1.86 0 0 1-.678-.542v2.322h-.813v-6.135h.78v.711c.18-.248.409-.435.686-.559.277-.13.582-.195.915-.195zm-.068 3.873c.289 0 .546-.065.772-.195.231-.136.412-.322.542-.559.136-.243.203-.52.203-.831 0-.31-.067-.584-.203-.822a1.365 1.365 0 0 0-.542-.559 1.52 1.52 0 0 0-.772-.195c-.282 0-.539.068-.771.203-.226.13-.406.314-.542.551-.13.238-.195.512-.195.822 0 .311.065.588.195.831.13.237.311.423.542.559.232.13.489.195.771.195zm5.058-3.873c.621 0 1.096.153 1.423.458.334.305.5.76.5 1.364v2.712h-.771v-.593c-.135.209-.33.37-.585.483a2.237 2.237 0 0 1-.889.161c-.503 0-.907-.122-1.212-.365a1.171 1.171 0 0 1-.449-.957c0-.396.144-.712.432-.949.288-.243.746-.365 1.373-.365h1.288v-.161c0-.35-.102-.618-.305-.805-.204-.186-.503-.279-.899-.279-.265 0-.525.045-.779.135a1.943 1.943 0 0 0-.644.348l-.339-.611c.231-.186.508-.327.83-.423a3.378 3.378 0 0 1 1.026-.153zm-.187 3.958c.311 0 .579-.068.805-.204.226-.141.39-.339.492-.593v-.627h-1.254c-.69 0-1.034.232-1.034.695 0 .226.087.404.262.534.175.13.418.195.729.195zm3.616-3.915h.813v4.491h-.813v-4.491zm.407-.865a.56.56 0 0 1-.399-.152.51.51 0 0 1-.152-.373.51.51 0 0 1 .152-.373.544.544 0 0 1 .399-.161c.158 0 .288.051.389.152a.467.467 0 0 1 .161.365.53.53 0 0 1-.55.542zm2.739 1.619c.142-.26.351-.458.627-.593.277-.136.613-.204 1.009-.204v.788a1.765 1.765 0 0 0-.187-.008c-.44 0-.788.133-1.042.398-.249.26-.373.633-.373 1.119v2.237h-.813v-4.491h.779v.754zm3.96 3.788c-.367 0-.721-.048-1.06-.144-.339-.102-.604-.229-.796-.382l.339-.644c.198.142.438.255.72.339.283.085.568.127.856.127.712 0 1.068-.203 1.068-.61a.396.396 0 0 0-.144-.322.876.876 0 0 0-.365-.169 6.152 6.152 0 0 0-.61-.127 6.343 6.343 0 0 1-.89-.195 1.373 1.373 0 0 1-.584-.373c-.164-.175-.246-.421-.246-.737 0-.407.169-.732.508-.975.339-.249.794-.373 1.365-.373.299 0 .599.037.898.11.299.074.545.173.737.297l-.347.644c-.367-.237-.8-.356-1.297-.356-.344 0-.607.057-.788.17-.181.113-.271.262-.271.449 0 .147.051.262.153.347a.967.967 0 0 0 .372.187c.153.039.365.084.636.135.362.062.652.13.873.204.226.067.418.186.576.355.158.17.237.407.237.712 0 .407-.175.732-.525.975-.345.237-.816.356-1.415.356zm29.481-9.788v.737h-4.263v-.576l2.416-2.331c.293-.282.491-.525.593-.729a1.43 1.43 0 0 0 .152-.627c0-.31-.11-.55-.33-.72-.215-.175-.526-.263-.932-.263-.656 0-1.161.215-1.517.644l-.577-.5c.232-.282.534-.502.907-.661.379-.158.8-.237 1.263-.237.621 0 1.116.15 1.483.449.367.294.551.695.551 1.204 0 .316-.068.615-.204.898-.135.282-.392.604-.771.966l-1.813 1.746h3.042zm3.096.805c-.469 0-.887-.119-1.255-.356-.361-.243-.647-.593-.856-1.051-.209-.458-.313-1-.313-1.627s.104-1.17.313-1.627c.209-.458.495-.805.856-1.042a2.226 2.226 0 0 1 1.255-.365c.463 0 .875.122 1.237.365.367.237.655.584.864 1.042.209.457.314 1 .314 1.627s-.105 1.169-.314 1.627c-.209.458-.497.808-.864 1.051a2.207 2.207 0 0 1-1.237.356zm0-.754c.474 0 .853-.195 1.135-.585.288-.39.432-.955.432-1.695 0-.74-.144-1.305-.432-1.695a1.332 1.332 0 0 0-1.135-.585c-.481 0-.865.195-1.153.585-.282.39-.424.955-.424 1.695 0 .74.142 1.305.424 1.695.288.39.672.585 1.153.585zm5.652.754c-.469 0-.887-.119-1.254-.356-.362-.243-.647-.593-.856-1.051-.209-.458-.314-1-.314-1.627s.105-1.17.314-1.627c.209-.458.494-.805.856-1.042a2.22 2.22 0 0 1 1.254-.365c.463 0 .876.122 1.237.365.367.237.655.584.865 1.042.209.457.313 1 .313 1.627s-.104 1.169-.313 1.627c-.21.458-.498.808-.865 1.051a2.205 2.205 0 0 1-1.237.356zm0-.754c.474 0 .853-.195 1.135-.585.289-.39.433-.955.433-1.695 0-.74-.144-1.305-.433-1.695a1.332 1.332 0 0 0-1.135-.585c-.48 0-.864.195-1.153.585-.282.39-.423.955-.423 1.695 0 .74.141 1.305.423 1.695.289.39.673.585 1.153.585zm5.652.754c-.469 0-.887-.119-1.254-.356-.362-.243-.647-.593-.856-1.051-.209-.458-.313-1-.313-1.627s.104-1.17.313-1.627c.209-.458.494-.805.856-1.042a2.22 2.22 0 0 1 1.254-.365c.463 0 .876.122 1.237.365.368.237.656.584.865 1.042.209.457.313 1 .313 1.627s-.104 1.169-.313 1.627c-.209.458-.497.808-.865 1.051a2.205 2.205 0 0 1-1.237.356zm0-.754c.475 0 .853-.195 1.136-.585.288-.39.432-.955.432-1.695 0-.74-.144-1.305-.432-1.695a1.334 1.334 0 0 0-1.136-.585c-.48 0-.864.195-1.152.585-.283.39-.424.955-.424 1.695 0 .74.141 1.305.424 1.695.288.39.672.585 1.152.585zm5.653.754c-.469 0-.887-.119-1.255-.356-.361-.243-.647-.593-.856-1.051-.209-.458-.313-1-.313-1.627s.104-1.17.313-1.627c.209-.458.495-.805.856-1.042a2.226 2.226 0 0 1 1.255-.365c.463 0 .875.122 1.237.365.367.237.655.584.864 1.042.209.457.314 1 .314 1.627s-.105 1.169-.314 1.627c-.209.458-.497.808-.864 1.051a2.207 2.207 0 0 1-1.237.356zm0-.754c.474 0 .853-.195 1.135-.585.288-.39.432-.955.432-1.695 0-.74-.144-1.305-.432-1.695a1.332 1.332 0 0 0-1.135-.585c-.481 0-.865.195-1.153.585-.282.39-.424.955-.424 1.695 0 .74.142 1.305.424 1.695.288.39.672.585 1.153.585zm-21.477 5.152c.435 0 .825.096 1.17.288.344.192.613.461.805.805.198.345.296.743.296 1.195 0 .452-.098.853-.296 1.204a2.05 2.05 0 0 1-.805.805 2.365 2.365 0 0 1-1.17.288c-.322 0-.618-.062-.89-.187a1.848 1.848 0 0 1-.677-.542v2.322h-.814v-6.135h.78v.711c.18-.248.409-.435.686-.559.277-.13.582-.195.915-.195zm-.068 3.873c.289 0 .546-.065.772-.195.231-.136.412-.322.542-.559.136-.243.203-.52.203-.831 0-.31-.067-.584-.203-.822a1.365 1.365 0 0 0-.542-.559 1.52 1.52 0 0 0-.772-.195c-.282 0-.539.068-.771.203-.226.13-.406.314-.542.551-.13.238-.195.512-.195.822 0 .311.065.588.195.831.13.237.311.423.542.559.232.13.489.195.771.195zm5.058-3.873c.621 0 1.096.153 1.423.458.334.305.5.76.5 1.364v2.712h-.771v-.593c-.135.209-.33.37-.585.483a2.237 2.237 0 0 1-.889.161c-.503 0-.907-.122-1.212-.365a1.171 1.171 0 0 1-.449-.957c0-.396.144-.712.432-.949.288-.243.746-.365 1.373-.365h1.288v-.161c0-.35-.102-.618-.305-.805-.204-.186-.503-.279-.899-.279-.265 0-.525.045-.779.135a1.953 1.953 0 0 0-.644.348l-.339-.611c.231-.186.508-.327.83-.423a3.378 3.378 0 0 1 1.026-.153zm-.187 3.958c.311 0 .579-.068.805-.204.226-.141.39-.339.492-.593v-.627h-1.254c-.69 0-1.034.232-1.034.695 0 .226.087.404.262.534.176.13.418.195.729.195zm3.616-3.915h.813v4.491h-.813v-4.491zm.407-.865a.56.56 0 0 1-.399-.152.51.51 0 0 1-.152-.373.51.51 0 0 1 .152-.373.544.544 0 0 1 .399-.161c.158 0 .288.051.389.152a.467.467 0 0 1 .161.365.53.53 0 0 1-.55.542zm2.739 1.619c.142-.26.351-.458.627-.593.277-.136.613-.204 1.009-.204v.788a1.765 1.765 0 0 0-.187-.008c-.44 0-.788.133-1.042.398-.248.26-.373.633-.373 1.119v2.237h-.813v-4.491h.779v.754zm3.96 3.788c-.367 0-.721-.048-1.06-.144-.339-.102-.604-.229-.796-.382l.339-.644c.198.142.438.255.72.339.283.085.568.127.856.127.712 0 1.068-.203 1.068-.61a.396.396 0 0 0-.144-.322.876.876 0 0 0-.365-.169 6.152 6.152 0 0 0-.61-.127 6.343 6.343 0 0 1-.89-.195 1.373 1.373 0 0 1-.584-.373c-.164-.175-.246-.421-.246-.737 0-.407.169-.732.508-.975.339-.249.794-.373 1.365-.373.299 0 .599.037.898.11.299.074.545.173.737.297l-.347.644c-.367-.237-.8-.356-1.297-.356-.344 0-.607.057-.788.17-.181.113-.271.262-.271.449 0 .147.051.262.153.347a.967.967 0 0 0 .372.187c.153.039.365.084.636.135.362.062.653.13.873.204.226.067.418.186.576.355.158.17.237.407.237.712 0 .407-.175.732-.525.975-.345.237-.816.356-1.415.356z" fill="#10084D"/><path d="M107.996 148.089h25.423m-25.423 34.503h25.423m-25.677 27.844h25.423" stroke="#10084D" stroke-width="2.421" stroke-linecap="round"/><path d="M87.162 250.386h175.54m-175.54 6.053h192.489m-192.489 6.054h192.489m-192.489 6.053h161.013" stroke="#10084D" stroke-width="1.211" stroke-linecap="round"/><path d="M107.742 216.489h18.16m-38.74 25.423h18.159m2.675-88.375h14.528" stroke="#10084D" stroke-width="2.421" stroke-linecap="round"/><rect x="214.277" y="143.852" width="21.869" height="7.81" rx="3.905" fill="#E2DBFF"/><path fill-rule="evenodd" clip-rule="evenodd" d="M218.184 147.757a.78.78 0 0 1 .781-.781h12.496a.78.78 0 1 1 0 1.562h-12.496a.78.78 0 0 1-.781-.781z" fill="#fff"/><rect x="214.277" y="154.747" width="21.869" height="7.81" rx="3.905" fill="#E2DBFF"/><path fill-rule="evenodd" clip-rule="evenodd" d="M218.184 158.652a.78.78 0 0 1 .781-.781h12.496a.78.78 0 1 1 0 1.562h-12.496a.78.78 0 0 1-.781-.781z" fill="#fff"/><rect x="240.832" y="143.852" width="21.869" height="7.81" rx="3.905" fill="#E2DBFF"/><path fill-rule="evenodd" clip-rule="evenodd" d="M244.738 147.757c0-.431.35-.781.781-.781h10.154a.781.781 0 0 1 0 1.562h-10.154a.781.781 0 0 1-.781-.781z" fill="#fff"/><rect x="240.832" y="154.747" width="21.869" height="7.81" rx="3.905" fill="#E2DBFF"/><path fill-rule="evenodd" clip-rule="evenodd" d="M244.738 158.652c0-.431.35-.781.781-.781h10.154a.781.781 0 0 1 0 1.562h-10.154a.78.78 0 0 1-.781-.781z" fill="#fff"/><path d="M85.188 103.562a8.357 8.357 0 0 1-2.593-.406c-.825-.283-1.474-.644-1.949-1.085l.627-1.322c.452.407 1.028.74 1.729 1 .712.248 1.44.373 2.186.373.983 0 1.718-.164 2.204-.492.486-.339.729-.785.729-1.339 0-.406-.136-.734-.407-.983a2.52 2.52 0 0 0-.983-.593 17.237 17.237 0 0 0-1.644-.458c-.893-.214-1.616-.429-2.17-.644a3.693 3.693 0 0 1-1.407-.983c-.384-.452-.576-1.056-.576-1.813 0-.633.164-1.203.492-1.712.339-.508.847-.915 1.525-1.22.678-.305 1.52-.458 2.526-.458.7 0 1.39.09 2.067.271.678.181 1.26.44 1.746.78l-.56 1.356a5.93 5.93 0 0 0-1.593-.712 5.765 5.765 0 0 0-1.66-.254c-.961 0-1.684.175-2.17.525-.475.35-.712.802-.712 1.356 0 .407.136.74.407 1 .271.249.604.446 1 .593.407.136.955.283 1.644.44.893.216 1.61.43 2.152.645a3.554 3.554 0 0 1 1.39.983c.396.44.593 1.034.593 1.78 0 .621-.17 1.192-.508 1.711-.339.509-.853.916-1.542 1.221-.69.293-1.537.44-2.543.44zm11.629-9.203c1.14 0 2.045.334 2.712 1 .677.656 1.016 1.622 1.016 2.898v5.17h-1.627v-4.983c0-.87-.209-1.526-.627-1.966-.418-.44-1.017-.661-1.796-.661-.882 0-1.577.26-2.085.78-.508.508-.763 1.242-.763 2.203v4.627H92.02v-8.983h1.56V95.8c.327-.463.768-.82 1.322-1.068.564-.248 1.203-.373 1.915-.373zm14.908 4.627c0 .124-.012.288-.034.492h-7.288c.102.791.446 1.429 1.034 1.915.599.474 1.339.712 2.22.712 1.073 0 1.938-.362 2.593-1.085l.898 1.051a3.927 3.927 0 0 1-1.525 1.085c-.599.248-1.271.372-2.017.372-.949 0-1.791-.192-2.525-.576a4.276 4.276 0 0 1-1.712-1.644c-.395-.7-.593-1.491-.593-2.373 0-.87.192-1.655.576-2.356.396-.7.932-1.242 1.61-1.627.689-.395 1.463-.593 2.322-.593s1.622.198 2.288.593a3.97 3.97 0 0 1 1.576 1.627c.385.701.577 1.503.577 2.407zm-4.441-3.254c-.779 0-1.435.237-1.966.712-.52.474-.825 1.096-.915 1.864h5.762c-.09-.757-.401-1.373-.932-1.847-.52-.486-1.169-.729-1.949-.729zm9.723-1.373c1.243 0 2.192.305 2.847.915.667.61 1 1.52 1 2.73v5.423h-1.542v-1.187c-.271.418-.661.74-1.17.966-.497.215-1.09.322-1.779.322-1.006 0-1.814-.242-2.424-.728-.599-.486-.898-1.125-.898-1.916 0-.79.288-1.423.864-1.898.577-.486 1.492-.729 2.746-.729h2.576v-.322c0-.7-.203-1.237-.61-1.61s-1.006-.56-1.797-.56c-.531 0-1.05.091-1.559.272a3.9 3.9 0 0 0-1.288.695l-.678-1.22a4.804 4.804 0 0 1 1.661-.848 6.773 6.773 0 0 1 2.051-.305zm-.373 7.915c.621 0 1.158-.135 1.61-.407.452-.282.78-.677.983-1.186v-1.254h-2.508c-1.379 0-2.068.463-2.068 1.39 0 .452.175.808.525 1.067.351.26.837.39 1.458.39zm10.723-3.034l-1.865 1.729v2.458h-1.627V90.851h1.627v8.067l4.899-4.474h1.966l-3.78 3.712 4.152 5.271h-1.999l-3.373-4.187zm14.69-.254c0 .124-.011.288-.034.492h-7.288c.102.791.446 1.429 1.034 1.915.599.474 1.339.712 2.22.712 1.074 0 1.938-.362 2.593-1.085l.899 1.051a3.93 3.93 0 0 1-1.526 1.085c-.598.248-1.271.372-2.017.372-.949 0-1.79-.192-2.525-.576a4.283 4.283 0 0 1-1.712-1.644c-.395-.7-.593-1.491-.593-2.373 0-.87.192-1.655.576-2.356.396-.7.933-1.242 1.61-1.627.69-.395 1.464-.593 2.322-.593.859 0 1.622.198 2.289.593a3.983 3.983 0 0 1 1.576 1.627c.384.701.576 1.503.576 2.407zm-4.441-3.254c-.779 0-1.435.237-1.966.712-.519.474-.824 1.096-.915 1.864h5.763c-.091-.757-.401-1.373-.932-1.847-.52-.486-1.17-.729-1.95-.729zm8.26.22c.282-.52.7-.915 1.254-1.186.554-.271 1.226-.407 2.017-.407v1.576a3.19 3.19 0 0 0-.373-.017c-.881 0-1.576.266-2.085.797-.497.52-.746 1.266-.746 2.237v4.475h-1.627v-8.983h1.56v1.508z" fill="#10084D"/><g clip-path="url(#c)"><path fill="#2B9F5A" d="M83.996 178.156h7v12h-7z"/><path fill="#DC251C" d="M90.996 178.156h9v12h-9z"/><circle cx="90.996" cy="184.156" r="2.75" stroke="#FFD018" stroke-width=".5"/><path d="M88.996 183.156a1 1 0 0 1 1-1h2a1 1 0 0 1 1 1v1a2 2 0 0 1-4 0v-1z" fill="#DC251C"/><path d="M89.996 183.156h2v1a1 1 0 0 1-2 0v-1z" fill="#F5F8FB"/></g><path d="M84.42 153.419l-.43.23c.085.158.25.257.43.257v-.487zm14.346 0v.487a.488.488 0 0 0 .435-.268l-.435-.219zm-.66-2.133l.154-.462-.153.462zm-7.09-3.117l.447-.193a.489.489 0 0 0-.4-.292l-.047.485zm-1.814.82l.237.425a.487.487 0 0 0 .243-.344l-.48-.081zm-3.958-.328l.393-.287a.489.489 0 0 0-.75-.045l.357.332zm-.825 5.245h14.347v-.974H84.42v.974zm14.782-.268c.165-.327.334-.861.267-1.402a1.64 1.64 0 0 0-.337-.829 1.807 1.807 0 0 0-.87-.583l-.307.924c.219.073.341.171.414.263a.671.671 0 0 1 .134.343c.035.29-.06.627-.17.846l.87.438zm-.94-2.814c-.764-.253-2.385-.736-3.9-1.306-.755-.284-1.463-.583-2.007-.876a4.378 4.378 0 0 1-.65-.411c-.167-.133-.227-.221-.241-.255l-.894.386c.109.253.317.462.53.631.22.176.494.346.794.507.6.323 1.356.639 2.126.929 1.536.579 3.214 1.08 3.934 1.319l.307-.924zm-7.197-3.14a3.388 3.388 0 0 0-1.255.114c-.443.136-.977.45-1.088 1.111l.96.161c.022-.127.12-.251.414-.341.289-.089.64-.099.872-.076l.097-.969zm-2.1.88c-.392.22-1.045.469-1.7.501-.641.032-1.226-.143-1.627-.691l-.786.574c.654.896 1.609 1.132 2.462 1.089.84-.041 1.639-.35 2.126-.623l-.475-.85zm-4.076-.235a5.53 5.53 0 0 0-1.188 2.123c-.275.938-.312 2.074.29 3.197l.858-.46c-.453-.846-.435-1.706-.213-2.463a4.569 4.569 0 0 1 .965-1.733l-.712-.664z" fill="#10084D"/><path d="M86.892 149.646c-.103.742-.776 1.797-2.638.727m7.42-1.384l-.494.821m1.155-.493l-.495.821m1.155-.492l-.495.82" stroke="#10084D" stroke-width=".974" stroke-linecap="round" stroke-linejoin="round"/><path d="M86.996 210.156l5 2v6l-5-2v-6zm10 0l-5 2v6l5-2v-6z" stroke="#10084D" stroke-linecap="round" stroke-linejoin="round"/><path d="M91.996 208.156l.186-.464a.497.497 0 0 0-.372 0l.186.464zm5 2l.186.464a.5.5 0 0 0 0-.928l-.186.464zm-5 2l-.186.464c.12.048.253.048.372 0l-.186-.464zm-5-2l-.186-.464a.498.498 0 0 0 0 .928l.186-.464zm4.814-1.536l5 2 .372-.928-5-2-.372.928zm5 1.072l-5 2 .372.928 5-2-.372-.928zm-4.628 2l-5-2-.372.928 5 2 .372-.928zm-5-1.072l5-2-.372-.928-5 2 .372.928z" fill="#10084D"/><rect x="60.582" y="77.742" width="244.546" height="240.914" rx="4" stroke="#E2DBFF" stroke-linecap="round" stroke-linejoin="round"/></g><path d="M63.536 347.6c1.088 0 1.944.26 2.568.78.624.52.936 1.236.936 2.148 0 .912-.312 1.628-.936 2.148-.624.52-1.48.78-2.568.78H61.46V356h-1.2v-8.4h3.276zm-.036 4.812c.76 0 1.34-.16 1.74-.48.4-.328.6-.796.6-1.404 0-.608-.2-1.072-.6-1.392-.4-.328-.98-.492-1.74-.492h-2.04v3.768h2.04zm6.133-1.704c.2-.368.496-.648.889-.84.391-.192.867-.288 1.427-.288v1.116a2.249 2.249 0 0 0-.263-.012c-.625 0-1.117.188-1.477.564-.352.368-.528.896-.528 1.584V356H68.53v-6.36h1.103v1.068zm6.402 5.364c-.632 0-1.2-.14-1.704-.42-.504-.28-.9-.664-1.188-1.152a3.357 3.357 0 0 1-.42-1.68c0-.624.14-1.18.42-1.668.288-.496.684-.88 1.188-1.152a3.449 3.449 0 0 1 1.704-.42c.632 0 1.196.14 1.692.42.504.272.896.656 1.176 1.152.288.488.432 1.044.432 1.668 0 .624-.144 1.184-.432 1.68-.28.488-.672.872-1.176 1.152-.496.28-1.06.42-1.692.42zm0-1.008a2.15 2.15 0 0 0 1.092-.276 2.03 2.03 0 0 0 .768-.792c.184-.344.276-.736.276-1.176 0-.44-.092-.828-.276-1.164a1.93 1.93 0 0 0-.768-.792 2.15 2.15 0 0 0-1.092-.276c-.408 0-.776.092-1.104.276-.32.184-.576.448-.768.792a2.385 2.385 0 0 0-.276 1.164c0 .44.092.832.276 1.176.192.336.448.6.768.792.328.184.696.276 1.104.276zm10.893-7.968V356h-1.104v-1.008c-.256.352-.58.62-.972.804a3.012 3.012 0 0 1-1.296.276 3.343 3.343 0 0 1-1.656-.408 2.976 2.976 0 0 1-1.152-1.14c-.272-.496-.408-1.064-.408-1.704 0-.64.136-1.204.408-1.692.28-.488.664-.868 1.152-1.14a3.343 3.343 0 0 1 1.656-.408c.456 0 .876.088 1.26.264.384.168.704.42.96.756v-3.504h1.152zm-3.276 7.968c.4 0 .764-.092 1.092-.276a2.03 2.03 0 0 0 .768-.792c.184-.344.276-.736.276-1.176 0-.44-.092-.828-.276-1.164a1.93 1.93 0 0 0-.768-.792 2.193 2.193 0 0 0-1.092-.276c-.408 0-.776.092-1.104.276-.32.184-.576.448-.768.792a2.385 2.385 0 0 0-.276 1.164c0 .44.092.832.276 1.176.192.336.448.6.768.792.328.184.696.276 1.104.276zm11.384-5.424V356h-1.092v-.96c-.232.328-.54.584-.924.768a2.879 2.879 0 0 1-1.236.264c-.848 0-1.516-.232-2.004-.696-.488-.472-.732-1.164-.732-2.076v-3.66H90.2v3.528c0 .616.148 1.084.444 1.404.296.312.72.468 1.272.468.608 0 1.088-.184 1.44-.552.352-.368.528-.888.528-1.56v-3.288h1.152zm4.965 6.432c-.648 0-1.228-.14-1.74-.42-.504-.28-.9-.664-1.188-1.152a3.284 3.284 0 0 1-.432-1.68c0-.624.144-1.18.432-1.668.288-.496.684-.88 1.188-1.152.512-.28 1.092-.42 1.74-.42.576 0 1.088.116 1.536.348a2.47 2.47 0 0 1 1.056 1.008l-.876.564a1.957 1.957 0 0 0-.744-.684 2.122 2.122 0 0 0-.984-.228 2.31 2.31 0 0 0-1.128.276 2.008 2.008 0 0 0-.78.792 2.385 2.385 0 0 0-.276 1.164c0 .448.092.844.276 1.188.192.336.452.596.78.78a2.31 2.31 0 0 0 1.128.276c.36 0 .688-.076.984-.228.296-.152.544-.38.744-.684l.876.552c-.248.44-.6.78-1.056 1.02-.448.232-.96.348-1.536.348zm7.741-.444a1.79 1.79 0 0 1-.624.336 2.74 2.74 0 0 1-.768.108c-.64 0-1.136-.172-1.488-.516-.352-.344-.528-.836-.528-1.476v-3.492h-1.08v-.948h1.08v-1.392h1.152v1.392h1.824v.948h-1.824v3.444c0 .344.084.608.252.792.176.184.424.276.744.276.352 0 .652-.1.9-.3l.36.828zm4.208-3.42h3.228v.996h-3.228v-.996zm13.744 1.692h-4.464l-.924 2.1h-1.236l3.804-8.4h1.188l3.816 8.4h-1.26l-.924-2.1zm-.42-.96l-1.812-4.116-1.812 4.116h3.624zm4.793-2.232c.2-.368.496-.648.888-.84.392-.192.868-.288 1.428-.288v1.116a2.249 2.249 0 0 0-.264-.012c-.624 0-1.116.188-1.476.564-.352.368-.528.896-.528 1.584V356h-1.152v-6.36h1.104v1.068zm7.57 4.92a1.79 1.79 0 0 1-.624.336 2.74 2.74 0 0 1-.768.108c-.64 0-1.136-.172-1.488-.516-.352-.344-.528-.836-.528-1.476v-3.492h-1.08v-.948h1.08v-1.392h1.152v1.392h1.824v.948h-1.824v3.444c0 .344.084.608.252.792.176.184.424.276.744.276.352 0 .652-.1.9-.3l.36.828zm1.393-5.988h1.152V356h-1.152v-6.36zm.576-1.224a.789.789 0 0 1-.564-.216.718.718 0 0 1-.216-.528c0-.208.072-.384.216-.528a.766.766 0 0 1 .564-.228c.224 0 .408.072.552.216a.662.662 0 0 1 .228.516c0 .216-.076.4-.228.552a.748.748 0 0 1-.552.216zm5.547 7.656c-.648 0-1.228-.14-1.74-.42-.504-.28-.9-.664-1.188-1.152a3.284 3.284 0 0 1-.432-1.68c0-.624.144-1.18.432-1.668.288-.496.684-.88 1.188-1.152.512-.28 1.092-.42 1.74-.42.576 0 1.088.116 1.536.348a2.47 2.47 0 0 1 1.056 1.008l-.876.564a1.957 1.957 0 0 0-.744-.684 2.122 2.122 0 0 0-.984-.228 2.31 2.31 0 0 0-1.128.276 2.008 2.008 0 0 0-.78.792 2.385 2.385 0 0 0-.276 1.164c0 .448.092.844.276 1.188.192.336.452.596.78.78a2.31 2.31 0 0 0 1.128.276c.36 0 .688-.076.984-.228.296-.152.544-.38.744-.684l.876.552c-.248.44-.6.78-1.056 1.02-.448.232-.96.348-1.536.348zm4.002-8.976h1.152V356h-1.152v-8.904zm9.099 5.76c0 .088-.008.204-.024.348h-5.16c.072.56.316 1.012.732 1.356.424.336.948.504 1.572.504.76 0 1.372-.256 1.836-.768l.636.744a2.777 2.777 0 0 1-1.08.768c-.424.176-.9.264-1.428.264-.672 0-1.268-.136-1.788-.408a3.033 3.033 0 0 1-1.212-1.164 3.357 3.357 0 0 1-.42-1.68c0-.616.136-1.172.408-1.668.28-.496.66-.88 1.14-1.152a3.244 3.244 0 0 1 1.644-.42c.608 0 1.148.14 1.62.42.48.272.852.656 1.116 1.152.272.496.408 1.064.408 1.704zm-3.144-2.304c-.552 0-1.016.168-1.392.504-.368.336-.584.776-.648 1.32h4.08c-.064-.536-.284-.972-.66-1.308-.368-.344-.828-.516-1.38-.516zm6.568 5.52c-.52 0-1.02-.068-1.5-.204-.48-.144-.856-.324-1.128-.54l.48-.912c.28.2.62.36 1.02.48s.804.18 1.212.18c1.008 0 1.512-.288 1.512-.864a.56.56 0 0 0-.204-.456 1.235 1.235 0 0 0-.516-.24 9.055 9.055 0 0 0-.864-.18 8.75 8.75 0 0 1-1.26-.276 1.937 1.937 0 0 1-.828-.528c-.232-.248-.348-.596-.348-1.044 0-.576.24-1.036.72-1.38.48-.352 1.124-.528 1.932-.528.424 0 .848.052 1.272.156.424.104.772.244 1.044.42l-.492.912c-.52-.336-1.132-.504-1.836-.504-.488 0-.86.08-1.116.24-.256.16-.384.372-.384.636 0 .208.072.372.216.492.144.12.32.208.528.264.216.056.516.12.9.192.512.088.924.184 1.236.288.32.096.592.264.816.504.224.24.336.576.336 1.008 0 .576-.248 1.036-.744 1.38-.488.336-1.156.504-2.004.504z" fill="#10084D"/><g filter="url(#d)"><rect x="61" y="371" width="524" height="71" rx="4" fill="#F1F6FF"/><rect x="61" y="371" width="524" height="71" rx="4" stroke="#E2DBFF" stroke-linecap="round" stroke-linejoin="round"/></g><path d="M351.354 181.776l-2.798-15.734 211.923 30.956 1.657 1.549-3.396 11.092c-20.509 10.925-88.013-.82-107.12-4.561l-58.263-11.406c-28.118-5.504-39.717-10.224-42.003-11.896z" fill="#fff"/><path d="M348.556 166.042l.109-.742a.752.752 0 0 0-.847.874l.738-.132zm2.798 15.734l-.738.131c.034.19.14.36.296.474l.442-.605zm207.386 27.863l.352.662a.75.75 0 0 0 .365-.443l-.717-.219zm3.396-11.092l.717.22a.751.751 0 0 0-.205-.768l-.512.548zm-1.657-1.549l.513-.548a.754.754 0 0 0-.404-.194l-.109.742zm-212.661-30.824l2.798 15.733 1.477-.263-2.798-15.733-1.477.263zm3.094 16.207c.648.474 1.871 1.11 3.729 1.878 1.875.774 4.44 1.701 7.806 2.744 6.732 2.087 16.688 4.649 30.766 7.405l.288-1.472c-14.04-2.748-23.942-5.298-30.61-7.366-3.335-1.033-5.855-1.945-7.677-2.697-1.839-.76-2.922-1.341-3.417-1.703l-.885 1.211zm42.301 12.027l58.263 11.406.289-1.472-58.264-11.406-.288 1.472zm58.263 11.406c9.566 1.873 31.246 5.749 53.109 7.791 10.93 1.021 21.924 1.584 31.482 1.206 9.527-.378 17.739-1.694 23.025-4.51l-.705-1.324c-4.968 2.646-12.885 3.959-22.379 4.335-9.465.375-20.386-.183-31.284-1.201-21.793-2.035-43.418-5.901-52.959-7.769l-.289 1.472zm107.981 4.044l3.396-11.091-1.435-.44-3.396 11.092 1.435.439zm3.191-11.859l-1.656-1.549-1.025 1.096 1.656 1.549 1.025-1.096zm-214.2-31.214l211.923 30.955.217-1.484L348.665 165.3l-.217 1.485z" fill="#10084D"/><path d="M349.228 168.868c-1.521-3.237.669-5.502 1.955-6.23l205.78 27.304c4.341.849 4.027 4.87 3.328 6.774-18.58 9.834-90.838-.148-108.53-3.612l-78.785-15.423c-11.323-2.217-21.846-4.767-23.748-8.813z" fill="#fff" stroke="#10084D" stroke-width="1.5" stroke-linejoin="round"/><path d="M358.898 135.737c-.578-3.052.406-4.574.97-4.954 1.067-4.199 4.05-12.433 7.447-11.768 3.397.665 4.663 2.873 4.871 3.893 3.461 4.841 14.798 10.735 21.875 12.12 20.003 3.916 31.032-4.212 34.046-8.765.325-1.243 1.386-4.578 3.031-7.979 1.646-3.401 6.628-8.418 8.914-10.501 5.514 1.863 13.629 12.955 16.998 18.268l3.604 5.359c12.672 9.502 39.273 29.34 44.303 32.676 6.286 4.169 13.28 8.478 25.274 13.52 11.994 5.042 27.101 10.449 26.685 12.572-.785 4.01-33.543 4.945-48.63 4.44-12.069-.403-45.686-6.005-60.986-8.755l-82.56-16.162c-11.889-2.328-13.866-5.491-13.368-6.781-.122-11.388 4.966-22.867 7.526-27.183z" fill="#fff" stroke="#10084D" stroke-width="1.5" stroke-linejoin="round"/><path d="M369.392 119.667c1.374 5.494 8.415 17.322 25.587 20.684 17.172 3.362 29.179-7.677 33.036-13.616" stroke="#10084D" stroke-width="1.5" stroke-linecap="round" stroke-linejoin="round"/><path d="M373.824 127.349a.75.75 0 0 0-1.256.82l1.256-.82zm-3.102 18.051l-.622.418.622-.418zm9.967 16.646l-.704.259.704-.259zm4.881 12.255a.75.75 0 0 0 1.271-.796l-1.271.796zm-13.002-46.132c.323.496.27 1.134-.298 2.234-.275.532-.636 1.106-1.047 1.751-.405.636-.853 1.334-1.274 2.075-.841 1.483-1.607 3.203-1.751 5.157-.147 1.974.346 4.118 1.902 6.432l1.244-.837c-1.384-2.058-1.77-3.872-1.651-5.484.121-1.633.766-3.126 1.561-4.528.397-.701.823-1.363 1.235-2.009.405-.637.803-1.267 1.113-1.869.603-1.166 1.028-2.506.222-3.742l-1.256.82zm-2.468 17.649c3.148 4.681 7.21 9.21 9.885 16.487l1.408-.518c-2.758-7.502-7.02-12.303-10.049-16.806l-1.244.837zm9.885 16.487c2.19 5.957 4.622 10.46 5.585 11.996l1.271-.796c-.903-1.442-3.291-5.851-5.448-11.718l-1.408.518zm-20.438-26.612a.75.75 0 1 0-1.391.56l1.391-.56zm6.324 10.716l.543-.517-.543.517zm8.485 11.703l-.692.289.692-.289zm5.497 14.974a.751.751 0 0 0 1.382-.583l-1.382.583zm-21.011-35.343a.75.75 0 1 0 1.339-.675l-1.339.675zm2.859 2.018a.75.75 0 1 0-1.274.792l1.274-.792zm.529 3.456a.75.75 0 0 0 1.209-.888l-1.209.888zm3.143 1.532a.75.75 0 1 0-1.131.985l1.131-.985zm1.178 3.494a.75.75 0 1 0 1.112-1.007l-1.112 1.007zm3.501 1.782a.749.749 0 1 0-1.167.942l1.167-.942zm.981 3.801a.75.75 0 1 0 1.233-.855l-1.233.855zm3.193 2.297a.75.75 0 0 0-1.319.714l1.319-.714zm.208 4.114a.75.75 0 0 0 1.383-.581l-1.383.581zm2.929 3.091a.75.75 0 0 0-1.382.583l1.382-.583zm.166 4.254a.75.75 0 1 0 1.382-.583l-1.382.583zm2.932 3.088a.749.749 0 1 0-1.382.583l1.382-.583zm-22.305-34.417c.157.391.387.898.686 1.49l1.339-.675a19.205 19.205 0 0 1-.634-1.375l-1.391.56zm2.271 4.3c.522.839 1.123 1.74 1.803 2.664l1.209-.888a40.064 40.064 0 0 1-1.738-2.568l-1.274.792zm3.815 5.181c.348.399.71.798 1.086 1.193l1.086-1.035c-.36-.378-.707-.76-1.041-1.143l-1.131.985zm1.086 1.193c.425.446.833.885 1.223 1.316l1.112-1.007c-.399-.44-.815-.889-1.249-1.344l-1.086 1.035zm3.557 4.04a49.118 49.118 0 0 1 2.148 2.859l1.233-.855a50.784 50.784 0 0 0-2.214-2.946l-1.167.942zm4.022 5.87c.32.592.57 1.115.757 1.564l1.385-.577a18.945 18.945 0 0 0-.823-1.701l-1.319.714zm.757 1.564c.158.379.427 1.021.77 1.836l1.383-.581-.768-1.832-1.385.577zm2.317 5.51l1.548 3.671 1.382-.583-1.548-3.671-1.382.583zm3.098 7.342l.774 1.833 1.382-.583-.774-1.833-1.382.583z" fill="#10084D"/><path d="M507.321 165.773l.661 11.641-.402 17.066" stroke="#10084D" stroke-width="1.5" stroke-linejoin="round"/><path d="M511.21 194.701c.662-7.137 1.332-22.567-1.289-27.195m3.544 1.919c1.176 3.169 3.2 12.677 1.894 25.353" stroke="#10084D" stroke-width="1.5" stroke-linecap="round" stroke-linejoin="round" stroke-dasharray="4 4"/><path d="M425.624 130.185c4.498.799 14.534 3.58 18.702 8.315 4.167 4.735 43.732 27.666 62.993 38.539" stroke="#10084D" stroke-width="1.5" stroke-linejoin="round"/><path d="M427.784 127.919c4.412.783 14.256 3.526 18.331 8.242 4.076 4.716 42.84 27.487 61.713 38.284" stroke="#10084D" stroke-width="1.5" stroke-linecap="round" stroke-linejoin="round" stroke-dasharray="4 4"/><path d="M438.308 119.198l.293-.691a.766.766 0 0 0-.357-.057l.064.748zm-9.478 8.232c.782-1.183 2.221-2.997 3.965-4.551 1.764-1.571 3.731-2.777 5.576-2.934l-.127-1.495c-2.339.2-4.612 1.675-6.447 3.309-1.855 1.653-3.376 3.57-4.218 4.844l1.251.827zm9.184-7.542c3.865 1.642 13.422 6.702 20.566 13.713l1.051-1.07c-7.32-7.184-17.056-12.335-21.03-14.024l-.587 1.381zm20.566 13.713c3.673 3.605 12.492 9.992 21.955 16.474 9.488 6.499 19.695 13.141 26.199 17.275l.804-1.266c-6.493-4.127-16.685-10.76-26.155-17.247-9.496-6.504-18.193-12.813-21.752-16.306l-1.051 1.07z" fill="#10084D"/><circle cx="440.127" cy="126.167" r="1.683" transform="rotate(11.076 440.127 126.167)" stroke="#10084D" stroke-width="1.5" stroke-linecap="round" stroke-linejoin="round"/><path d="M443.364 110.88c-1.677 1.06-5.441 4.274-7.083 8.656m-76.178 11.293l9.29 12.596m31.102-2.484c1.766 1.407 4.928 6.353 3.455 14.882m-1.472 8.774c-.302 4.023 3.624 12.956 21.751 16.505" stroke="#10084D" stroke-width="1.5" stroke-linecap="round" stroke-linejoin="round" stroke-dasharray="4 4"/><path d="M377.454 154.8c10.154.681 32.884 2.176 42.578 2.702 12.118.658 13.106 11.873 10.566 24.846" stroke="#10084D" stroke-width="1.5" stroke-linejoin="round"/><path d="M380.154 161.025c9.008.593 25.874 1.246 34.475 1.701 10.751.568 11.876 6.748 9.6 18.376m83.309 3.573l-39.099-5.458c-12.388-1.729-21.372-12.684-20.641-25.171l.69-11.792" stroke="#10084D" stroke-width="1.5" stroke-linejoin="round"/><path d="M508.059 178.262l-39.838-5.546c-8.303-1.156-14.306-8.525-13.76-16.891l.643-9.826" stroke="#10084D" stroke-width="1.5" stroke-linejoin="round"/><path d="M453.489 131.722c1.695-.648 5.452-.321 7.118-.076.922-1.371 1.623-4.287-2.943-4.985-5.707-.873-10.164 4.378-9.359 5.27.805.893 3.066.601 5.184-.209z" fill="#fff"/><path d="M460.607 131.646l-.109.742a.751.751 0 0 0 .732-.324l-.623-.418zm-7.118.076l-.268-.701.268.701zm-5.184.209l-.557.503.557-.503zm9.359-5.27l.113-.742-.113.742zm3.052 4.243a31.76 31.76 0 0 0-3.64-.305c-1.359-.031-2.856.04-3.855.422l.536 1.401c.696-.266 1.925-.355 3.284-.323 1.324.03 2.649.17 3.457.289l.218-1.484zm-7.495.117c-1.012.387-2.032.639-2.867.696-.893.06-1.338-.117-1.492-.288l-1.114 1.005c.651.721 1.739.844 2.707.779 1.027-.069 2.197-.368 3.302-.791l-.536-1.401zm-4.359.408c.152.169.072.309.108.163.028-.115.111-.31.283-.574.339-.519.935-1.171 1.744-1.787 1.618-1.233 3.959-2.225 6.554-1.829l.226-1.483c-3.112-.475-5.854.721-7.689 2.119-.918.699-1.642 1.472-2.091 2.161-.222.34-.4.695-.483 1.035-.076.308-.12.808.234 1.2l1.114-1.005zm8.689-4.027c2.136.327 2.754 1.116 2.921 1.704.194.683-.084 1.521-.487 2.121l1.245.837c.518-.771 1.051-2.076.685-3.368-.394-1.387-1.708-2.405-4.138-2.777l-.226 1.483z" fill="#10084D"/><path d="M467.888 136.99c-3.02-.836-9.502 4.752-12.056 2.783-1.337-4.181 3.666-6.63 6.334-7.332 4.788-.435 5.81 2.851 5.722 4.549z" fill="#fff" stroke="#10084D" stroke-width="1.5" stroke-linejoin="round"/><path d="M476.92 143.411c-4.626-1.395-9.98 3.435-12.39 1.984-1.559-.795-.825-5.795 5.959-6.671 5.428-.701 6.549 2.833 6.431 4.687z" fill="#fff"/><path d="M464.53 145.395l.387-.643-.046-.025-.341.668zm12.39-1.984l-.217.718a.75.75 0 0 0 .965-.67l-.748-.048zm-6.431-4.687l-.096-.744.096.744zm-6.346 7.313c.871.525 1.914.429 2.87.192.971-.241 2.071-.69 3.15-1.105 2.253-.865 4.509-1.607 6.54-.995l.433-1.436c-2.594-.782-5.328.193-7.511 1.031-1.139.437-2.118.837-2.974 1.049-.87.216-1.4.18-1.734-.021l-.774 1.285zm13.525-2.578c.068-1.074-.215-2.641-1.331-3.857-1.15-1.252-3.054-1.995-5.944-1.622l.193 1.488c2.538-.328 3.907.345 4.646 1.149.771.839.989 1.966.939 2.747l1.497.095zm-7.275-5.479c-3.572.461-5.685 2.033-6.663 3.736-.482.841-.686 1.716-.628 2.48.055.742.378 1.505 1.087 1.867l.682-1.336c-.071-.036-.24-.197-.274-.643-.031-.424.08-1.003.435-1.621.696-1.214 2.342-2.581 5.554-2.995l-.193-1.488z" fill="#10084D"/><path d="M472.801 150.688c-3.556-2.852 2.115-5.383 5.396-6.292 4.258-.734 4.611 1.883 4.255 3.282-2.548-.743-8.374 3.994-9.651 3.01z" fill="#fff" stroke="#10084D" stroke-width="1.5" stroke-linejoin="round"/><path d="M489.971 153.069c-1.407 1.766-4.864 4.828-7.436 2.953-.892-.452-1.431-3.954 2.19-6.184 2.896-1.784 4.704 1.411 5.246 3.231zm8.603 6.093c-1.266 1.467-4.414 4.034-6.872 2.574-2.535-2.064.059-4.887 1.673-6.041 3.881-.808 5.083 1.975 5.199 3.467zm6.194 4.642c.144.518-1.395 4.625-4.277 3.081-2.838-2.515-1.199-5.133-.025-6.128 3.862-.958 4.159 2.529 4.302 3.047z" fill="#fff"/><path d="M482.535 156.022l.441-.606a.666.666 0 0 0-.102-.063l-.339.669zm7.436-2.953l.586.467a.748.748 0 0 0 .132-.681l-.718.214zm-5.246-3.231l.393.638-.393-.638zm6.977 11.898l-.473.581a.806.806 0 0 0 .09.063l.383-.644zm6.872-2.574l.568.49a.746.746 0 0 0 .18-.548l-.748.058zm-5.199-3.467l-.153-.734a.74.74 0 0 0-.283.124l.436.61zm7.116 11.19l-.497.561a.736.736 0 0 0 .143.1l.354-.661zm4.277-3.081l-.722.2.722-.2zm-4.302-3.047l-.18-.728a.747.747 0 0 0-.304.156l.484.572zm-18.373-4.129c1.636 1.193 3.496.747 4.959-.061 1.474-.814 2.762-2.098 3.505-3.031l-1.173-.934c-.664.833-1.808 1.962-3.057 2.652-1.261.696-2.415.844-3.351.162l-.883 1.212zm8.596-3.773c-.291-.979-.932-2.377-1.953-3.308-.521-.474-1.172-.854-1.948-.957-.785-.103-1.612.089-2.456.609l.786 1.277c.604-.372 1.089-.449 1.474-.398.395.051.773.25 1.134.578.741.676 1.275 1.785 1.526 2.627l1.437-.428zm-6.357-3.656c-1.988 1.225-2.89 2.841-3.134 4.272-.12.705-.08 1.367.071 1.909.139.497.421 1.055.926 1.311l.679-1.338c.059.03-.06-.02-.16-.376a2.934 2.934 0 0 1-.037-1.254c.169-.991.808-2.241 2.441-3.247l-.786-1.277zm6.987 13.181c1.555.924 3.26.526 4.608-.166 1.36-.698 2.537-1.777 3.215-2.562l-1.135-.98c-.589.681-1.62 1.62-2.765 2.207-1.156.594-2.254.748-3.156.212l-.767 1.289zm8.003-3.276c-.068-.877-.449-2.135-1.412-3.075-1.003-.979-2.539-1.516-4.688-1.068l.306 1.468c1.731-.36 2.738.091 3.335.674.637.622.916 1.502.964 2.117l1.495-.116zm-6.383-4.019c-.86.614-2.022 1.697-2.632 2.964-.309.643-.499 1.381-.381 2.148.121.784.548 1.506 1.303 2.12l.947-1.163c-.513-.417-.712-.823-.767-1.185-.059-.378.026-.805.25-1.27.457-.949 1.398-1.855 2.152-2.394l-.872-1.22zm7.198 12.461c.883.473 1.729.54 2.488.296.733-.236 1.304-.735 1.722-1.253a6.142 6.142 0 0 0 .918-1.596 4.68 4.68 0 0 0 .213-.688c.021-.103.039-.209.046-.312.006-.089.01-.235-.033-.39l-1.445.401c-.025-.09-.016-.144-.018-.116a.849.849 0 0 1-.017.103 3.11 3.11 0 0 1-.144.457c-.147.377-.38.82-.686 1.198-.308.381-.653.651-1.015.768-.336.108-.762.109-1.32-.19l-.709 1.322zm5.354-3.943l-.005-.021-.012-.059a29.235 29.235 0 0 0-.039-.189 7.836 7.836 0 0 0-.134-.563 4.87 4.87 0 0 0-.676-1.476 3.303 3.303 0 0 0-1.63-1.247c-.743-.26-1.639-.285-2.709-.019l.361 1.456c.86-.214 1.449-.162 1.853-.021a1.8 1.8 0 0 1 .898.694c.476.675.532 1.428.648 1.846l1.445-.401zm-5.509-3.418c-.678.573-1.504 1.619-1.746 2.93-.254 1.376.162 2.917 1.758 4.331l.995-1.122c-1.242-1.101-1.427-2.127-1.277-2.937.161-.876.742-1.637 1.239-2.058l-.969-1.144z" fill="#10084D"/><rect x="322.5" y="78.5" width="264" height="175" rx="3.5" stroke="#10084D"/><path d="M349.979 303.763L348 298.649l73.402-3.546.66.412-.412 3.959c-6.186 5.031-29.691 5.526-36.372 5.526h-20.371c-9.831 0-14.048-.825-14.928-1.237z" fill="#fff"/><path d="M348 298.649l-.012-.249a.252.252 0 0 0-.198.113.253.253 0 0 0-.023.227l.233-.091zm1.979 5.114l-.233.09c.023.06.069.109.127.136l.106-.226zm71.671-4.289l.157.194a.248.248 0 0 0 .091-.168l-.248-.026zm.412-3.959l.249.026a.253.253 0 0 0-.117-.238l-.132.212zm-.66-.412l.133-.212a.257.257 0 0 0-.145-.038l.012.25zm-73.635 3.637l1.979 5.113.467-.18-1.98-5.114-.466.181zm2.106 5.249c.249.117.702.25 1.378.386.682.137 1.607.28 2.809.41 2.404.259 5.925.465 10.847.465v-.5c-4.909 0-8.412-.206-10.794-.463a31.48 31.48 0 0 1-2.763-.402c-.67-.135-1.073-.259-1.265-.349l-.212.453zm15.034 1.261h20.371v-.5h-20.371v.5zm20.371 0c3.345 0 10.9-.124 18.397-.878 3.747-.376 7.486-.911 10.679-1.669 3.183-.755 5.86-1.739 7.453-3.035l-.315-.388c-1.5 1.22-4.081 2.184-7.253 2.937-3.163.75-6.878 1.282-10.614 1.658-7.473.751-15.01.875-18.347.875v.5zm36.62-5.75l.413-3.959-.498-.052-.412 3.959.497.052zm.296-4.197l-.659-.412-.265.424.659.412.265-.424zm-74.182 3.596l73.402-3.546-.024-.5-73.402 3.547.024.499z" fill="#10084D"/><path d="M348.413 299.557c-.726-.99-.138-1.897.247-2.227l71.093-4.371c1.518 0 1.677 1.374 1.567 2.062-5.608 4.536-30.598 5.938-36.784 5.938H356.99c-3.959 0-7.67-.165-8.577-1.402z" fill="#fff" stroke="#10084D" stroke-width=".5" stroke-linejoin="round"/><path d="M349.485 287.763c-.396-.99-.165-1.567 0-1.732.082-1.485.544-4.454 1.732-4.454 1.187 0 1.759.66 1.896.99 1.485 1.402 5.691 2.639 8.165 2.639 6.994 0 10.172-3.464 10.887-5.196.028-.44.165-1.633.495-2.886.33-1.254 1.677-3.272 2.309-4.124 1.98.264 5.443 3.464 6.928 5.031l1.567 1.567c4.893 2.364 15.159 7.291 17.072 8.082 2.392.99 5.031 1.98 9.402 2.887 4.371.907 9.815 1.732 9.815 2.474 0 1.402-10.969 3.877-16.083 4.701-4.091.66-15.78.99-21.113 1.072h-28.866c-4.157 0-5.031-.934-4.949-1.402-.792-3.826.165-8.027.743-9.649z" fill="#fff" stroke="#10084D" stroke-width=".5" stroke-linejoin="round"/><path d="M351.958 281.66c.825 1.759 3.976 5.278 9.98 5.278 6.004 0 9.319-4.508 10.227-6.763" stroke="#10084D" stroke-width=".5" stroke-linecap="round" stroke-linejoin="round"/><path d="M353.952 283.96a.25.25 0 1 0-.358.348l.358-.348zm.151 6.277l-.177.177.177-.177zm4.454 4.949l-.214.129.214-.129zm2.456 3.799a.25.25 0 1 0 .365-.342l-.365.342zm-7.419-14.677c.145.149.168.371.049.779a8.627 8.627 0 0 1-.237.66c-.095.241-.2.505-.293.782-.185.554-.329 1.183-.249 1.849.081.672.387 1.36 1.062 2.036l.354-.354c-.603-.603-.853-1.189-.92-1.742-.067-.559.052-1.106.228-1.63.087-.263.187-.514.283-.759.095-.241.187-.479.252-.702.126-.432.179-.907-.171-1.267l-.358.348zm.332 6.106c1.368 1.368 3.036 2.626 4.417 4.901l.427-.259c-1.423-2.344-3.173-3.678-4.49-4.996l-.354.354zm4.417 4.901c1.13 1.861 2.245 3.217 2.67 3.67l.365-.342c-.399-.426-1.494-1.753-2.608-3.587l-.427.259zm-8.649-7.606a.25.25 0 1 0-.419.273l.419-.273zm2.842 3.188l.144-.204-.144.204zm3.629 3.381l-.208.139.208-.139zm2.844 4.676a.25.25 0 1 0 .415-.279l-.415.279zm-9.055-10.087a.25.25 0 0 0 .38-.325l-.38.325zm1.888 1.174a.25.25 0 0 0-.324.381l.324-.381zm1.537 1.798a.25.25 0 1 0 .31-.392l-.31.392zm2.183 1.304a.25.25 0 1 0-.365.342l.365-.342zm1.156 2.409a.25.25 0 1 0 .415-.279l-.415.279zm1.942 1.99a.25.25 0 1 0-.415.279l.415-.279zm-9.385-9.56c.135.208.366.519.679.885l.38-.325a8.507 8.507 0 0 1-.64-.833l-.419.273zm2.243 2.44c.272.231.564.46.873.679l.289-.408a12.14 12.14 0 0 1-.838-.652l-.324.381zm.873.679c.357.252.685.499.988.738l.31-.392a23.9 23.9 0 0 0-1.009-.754l-.289.408zm2.806 2.384c.343.367.593.682.76.932l.416-.277a8.128 8.128 0 0 0-.811-.997l-.365.342zm.76.932l.761 1.135.415-.279-.76-1.133-.416.277zm2.288 3.404l.764 1.133.415-.279-.764-1.133-.415.279z" fill="#10084D"/><path d="M401.444 288.093l.99 3.876.989 5.773" stroke="#10084D" stroke-width=".5" stroke-linejoin="round"/><path d="M404.66 297.577c-.247-2.446-1.039-7.686-2.226-9.072m1.319.413c.605.989 1.913 4.057 2.309 8.412" stroke="#10084D" stroke-width=".5" stroke-linecap="round" stroke-linejoin="round" stroke-dasharray="4 4"/><path d="M371.588 281.495c1.567-.028 5.13.247 6.845 1.567 1.716 1.319 16.55 6.433 23.753 8.825" stroke="#10084D" stroke-width=".5" stroke-linejoin="round"/><path d="M372.166 280.589c1.537-.027 5.033.248 6.716 1.567 1.683 1.32 16.237 6.432 23.304 8.823" stroke="#10084D" stroke-width=".5" stroke-linecap="round" stroke-linejoin="round" stroke-dasharray="4 4"/><path d="M375.134 276.959l.051-.245a.257.257 0 0 0-.12.004l.069.241zm-2.656 3.394a8.602 8.602 0 0 1 1.036-1.796c.491-.645 1.075-1.183 1.688-1.358l-.137-.481c-.772.221-1.439.866-1.949 1.537a9.038 9.038 0 0 0-1.1 1.908l.462.19zm2.604-3.15c1.41.299 4.963 1.373 7.832 3.263l.275-.417c-2.938-1.936-6.555-3.028-8.004-3.335l-.103.489zm7.832 3.263c1.473.972 4.863 2.541 8.477 4.1a333.062 333.062 0 0 0 9.961 4.089l.182-.465a338.118 338.118 0 0 1-9.945-4.083c-3.626-1.565-6.971-3.116-8.4-4.058l-.275.417z" fill="#10084D"/><circle cx="376.206" cy="279.186" r=".577" stroke="#10084D" stroke-width=".5" stroke-linecap="round" stroke-linejoin="round"/><path d="M376.289 273.825c-.495.467-1.551 1.798-1.815 3.381m-24.907 8.825l3.959 3.629m10.308-2.887c.688.358 2.079 1.815 2.145 4.784m.083 3.051c.163 1.375 2.074 4.124 8.412 4.124" stroke="#10084D" stroke-width=".5" stroke-linecap="round" stroke-linejoin="round" stroke-dasharray="4 4"/><path d="M356.99 292.959c3.464-.44 11.216-1.435 14.515-1.897 4.124-.577 5.196 3.134 5.196 7.67" stroke="#10084D" stroke-width=".5" stroke-linejoin="round"/><path d="M358.309 294.877c3.073-.394 8.795-1.286 11.721-1.7 3.658-.517 4.444 1.489 4.444 5.555m28.288-4.289l-9.478.519a12.628 12.628 0 0 1-13.202-10.91" stroke="#10084D" stroke-width=".5" stroke-linejoin="round"/><path d="M402.515 292.25l-10.406.572a9.124 9.124 0 0 1-9.552-7.946" stroke="#10084D" stroke-width=".5" stroke-linejoin="round"/><path d="M381.072 280.175c.528-.33 1.814-.467 2.392-.495.22-.522.264-1.55-1.32-1.484-1.979.082-3.134 2.144-2.804 2.392.33.247 1.072 0 1.732-.413z" fill="#fff"/><path d="M383.464 279.68l.012.25a.248.248 0 0 0 .218-.153l-.23-.097zm-2.392.495l.133.212-.133-.212zm-1.732.413l.15-.2-.15.2zm2.804-2.392l-.01-.25.01.25zm1.308 1.235c-.297.014-.774.056-1.245.137-.46.079-.958.202-1.267.395l.265.424c.218-.136.627-.247 1.087-.326.448-.077.904-.118 1.184-.131l-.024-.499zm-2.512.532a3.55 3.55 0 0 1-.922.424c-.297.08-.462.05-.528.001l-.3.4c.264.198.636.168.957.082a4.04 4.04 0 0 0 1.058-.483l-.265-.424zm-1.45.425c.06.044.042.094.044.041a.744.744 0 0 1 .058-.214c.081-.198.239-.458.471-.719.465-.523 1.189-1.013 2.092-1.05l-.021-.5c-1.077.045-1.92.627-2.445 1.218a3.131 3.131 0 0 0-.56.863 1.204 1.204 0 0 0-.094.378c-.005.108.013.276.155.383l.3-.4zm2.665-1.942c.742-.031 1.006.194 1.102.385.112.22.073.523-.024.752l.461.194c.124-.292.216-.765.009-1.173-.222-.437-.728-.693-1.569-.658l.021.5z" fill="#10084D"/><path d="M386.268 281c-1.072-.083-2.887 2.227-3.876 1.732-.726-1.32.797-2.474 1.649-2.887 1.584-.462 2.144.578 2.227 1.155z" fill="#fff" stroke="#10084D" stroke-width=".5" stroke-linejoin="round"/><path d="M389.732 282.567c-1.649-.165-3.134 1.814-4.041 1.485-.577-.165-.66-1.897 1.567-2.64 1.781-.593 2.392.523 2.474 1.155z" fill="#fff"/><path d="M385.691 284.052l.085-.235-.016-.006-.069.241zm4.041-1.485l-.025.249a.25.25 0 0 0 .273-.281l-.248.032zm-2.474-1.155l-.079-.237.079.237zm-1.653 2.875c.325.118.668.018.974-.125.31-.145.651-.368.987-.579.701-.44 1.414-.84 2.141-.767l.05-.498c-.922-.092-1.776.415-2.457.841-.354.223-.658.422-.933.55-.279.13-.462.154-.591.108l-.171.47zm4.375-1.752c-.048-.365-.246-.872-.7-1.206-.467-.344-1.155-.469-2.101-.154l.158.475c.835-.279 1.343-.143 1.647.081.317.234.465.601.5.868l.496-.064zm-2.801-1.36c-1.171.391-1.777 1.058-1.993 1.693a1.51 1.51 0 0 0-.048.872c.067.245.225.478.484.552l.138-.481c-.03-.008-.099-.054-.14-.203a1.004 1.004 0 0 1 .04-.579c.155-.457.621-1.027 1.677-1.379l-.158-.475z" fill="#10084D"/><path d="M388.825 285.289c-1.386-.726.357-1.952 1.402-2.475 1.385-.527 1.677.33 1.649.825-.907-.082-2.556 1.897-3.051 1.65z" fill="#fff" stroke="#10084D" stroke-width=".5" stroke-linejoin="round"/><path d="M394.763 284.959c-.357.687-1.319 1.946-2.309 1.484-.33-.093-.742-1.237.33-2.227.858-.791 1.677.165 1.979.743zm3.299 1.484c-.33.578-1.22 1.65-2.144 1.32-.99-.528-.303-1.65.165-2.144 1.253-.528 1.842.329 1.979.824zm2.392 1.155c.082.165-.165 1.649-1.237 1.32-1.122-.66-.742-1.65-.413-2.062 1.238-.578 1.567.577 1.65.742z" fill="#fff"/><path d="M392.454 286.443l.106-.226a.174.174 0 0 0-.038-.014l-.068.24zm2.309-1.484l.222.115a.248.248 0 0 0 0-.231l-.222.116zm-1.979-.743l.17.184-.17-.184zm3.134 3.547l-.118.22a.207.207 0 0 0 .034.015l.084-.235zm2.144-1.32l.217.124a.25.25 0 0 0 .024-.191l-.241.067zm-1.979-.824l-.097-.231a.265.265 0 0 0-.085.059l.182.172zm3.134 3.299l-.127.215c.017.01.035.018.053.023l.074-.238zm1.237-1.32l-.224.112.224-.112zm-1.65-.742l-.105-.227a.247.247 0 0 0-.09.07l.195.157zm-6.456-.186c.626.292 1.22.021 1.658-.347.442-.37.791-.886.979-1.249l-.443-.231c-.169.325-.481.782-.857 1.097-.379.319-.761.447-1.125.277l-.212.453zm2.637-1.827c-.163-.31-.47-.737-.873-.983a1.232 1.232 0 0 0-.715-.192c-.269.017-.534.135-.783.365l.34.367c.179-.166.339-.225.474-.233a.722.722 0 0 1 .424.121c.296.18.55.519.69.787l.443-.232zm-2.371-.81c-.587.542-.783 1.143-.771 1.639.006.245.063.464.149.635.08.158.21.325.394.377l.136-.481c.019.005-.026-.006-.083-.12-.05-.1-.092-.246-.096-.423-.008-.347.125-.812.611-1.26l-.34-.367zm3.22 3.965c.581.208 1.126-.037 1.533-.358.411-.324.736-.764.912-1.073l-.434-.248a3.416 3.416 0 0 1-.787.928c-.351.277-.713.403-1.056.28l-.168.471zm2.469-1.622a1.695 1.695 0 0 0-.675-.938c-.4-.262-.95-.341-1.642-.05l.194.461c.561-.236.932-.151 1.174.008.258.168.41.448.467.653l.482-.134zm-2.402-.929c-.248.263-.568.703-.689 1.168-.062.236-.077.496.013.744.092.255.282.468.575.624l.235-.441c-.201-.107-.296-.232-.339-.352a.751.751 0 0 1 0-.449c.092-.351.35-.719.569-.951l-.364-.343zm3.242 3.709c.327.101.614.068.852-.063.229-.127.388-.332.494-.533.107-.202.171-.418.203-.596.016-.088.025-.172.026-.244a.76.76 0 0 0-.004-.107.401.401 0 0 0-.036-.127l-.448.224c-.013-.028-.014-.045-.013-.036a1.028 1.028 0 0 1-.017.202 1.588 1.588 0 0 1-.153.45.777.777 0 0 1-.294.329c-.108.059-.253.088-.463.024l-.147.477zm1.535-1.67l-.001-.002-.003-.005-.008-.019a1.373 1.373 0 0 0-.025-.061 3.64 3.64 0 0 0-.082-.181 1.653 1.653 0 0 0-.324-.45 1.129 1.129 0 0 0-.627-.311c-.265-.038-.567.013-.909.172l.211.453c.277-.129.48-.151.627-.13a.63.63 0 0 1 .352.177c.206.197.276.449.341.581l.448-.224zm-2.069-.787c-.189.237-.398.642-.393 1.097.005.478.245.967.874 1.337l.254-.431c-.493-.29-.625-.625-.628-.911a1.295 1.295 0 0 1 .284-.779l-.391-.313z" fill="#10084D"/><path d="M509.021 303.763l1.979-5.114-73.402-3.546-.66.412.412 3.959c6.186 5.031 29.691 5.526 36.372 5.526h20.371c9.831 0 14.048-.825 14.928-1.237z" fill="#fff"/><path d="M511 298.649l.012-.249c.08.004.154.046.198.113a.253.253 0 0 1 .023.227l-.233-.091zm-1.979 5.114l.233.09a.249.249 0 0 1-.127.136l-.106-.226zm-71.671-4.289l-.157.194a.248.248 0 0 1-.091-.168l.248-.026zm-.412-3.959l-.249.026a.253.253 0 0 1 .117-.238l.132.212zm.66-.412l-.133-.212a.257.257 0 0 1 .145-.038l-.012.25zm73.635 3.637l-1.979 5.113-.467-.18 1.98-5.114.466.181zm-2.106 5.249c-.249.117-.702.25-1.378.386a32.16 32.16 0 0 1-2.809.41c-2.404.259-5.925.465-10.847.465v-.5c4.909 0 8.412-.206 10.794-.463a31.48 31.48 0 0 0 2.763-.402c.67-.135 1.073-.259 1.265-.349l.212.453zm-15.034 1.261h-20.371v-.5h20.371v.5zm-20.371 0c-3.345 0-10.9-.124-18.397-.878-3.747-.376-7.486-.911-10.679-1.669-3.183-.755-5.86-1.739-7.453-3.035l.315-.388c1.5 1.22 4.081 2.184 7.253 2.937 3.163.75 6.878 1.282 10.614 1.658 7.473.751 15.01.875 18.347.875v.5zm-36.62-5.75l-.413-3.959.498-.052.412 3.959-.497.052zm-.296-4.197l.659-.412.265.424-.659.412-.265-.424zm74.182 3.596l-73.402-3.546.024-.5 73.402 3.547-.024.499z" fill="#10084D"/><path d="M510.587 299.557c.726-.99.138-1.897-.247-2.227l-71.093-4.371c-1.518 0-1.677 1.374-1.567 2.062 5.608 4.536 30.598 5.938 36.784 5.938h27.546c3.959 0 7.67-.165 8.577-1.402z" fill="#fff" stroke="#10084D" stroke-width=".5" stroke-linejoin="round"/><path d="M509.515 287.763c.396-.99.165-1.567 0-1.732-.082-1.485-.544-4.454-1.732-4.454-1.187 0-1.759.66-1.896.99-1.485 1.402-5.691 2.639-8.165 2.639-6.994 0-10.172-3.464-10.887-5.196a17.021 17.021 0 0 0-.495-2.886c-.33-1.254-1.677-3.272-2.309-4.124-1.98.264-5.443 3.464-6.928 5.031l-1.567 1.567c-4.893 2.364-15.159 7.291-17.072 8.082-2.392.99-5.031 1.98-9.402 2.887-4.371.907-9.815 1.732-9.815 2.474 0 1.402 10.969 3.877 16.083 4.701 4.091.66 15.78.99 21.113 1.072h28.866c4.157 0 5.031-.934 4.949-1.402.792-3.826-.165-8.027-.743-9.649z" fill="#fff" stroke="#10084D" stroke-width=".5" stroke-linejoin="round"/><path d="M507.042 281.66c-.825 1.759-3.976 5.278-9.98 5.278-6.004 0-9.319-4.508-10.227-6.763" stroke="#10084D" stroke-width=".5" stroke-linecap="round" stroke-linejoin="round"/><path d="M505.048 283.96a.25.25 0 1 1 .358.348l-.358-.348zm-.151 6.277l.177.177-.177-.177zm-4.454 4.949l.214.129-.214-.129zm-2.456 3.799a.25.25 0 1 1-.365-.342l.365.342zm7.419-14.677c-.145.149-.168.371-.049.779.058.198.142.415.237.66.095.241.2.505.293.782.185.554.329 1.183.249 1.849-.081.672-.387 1.36-1.062 2.036l-.354-.354c.603-.603.853-1.189.92-1.742.067-.559-.052-1.106-.228-1.63-.087-.263-.187-.514-.283-.759a8.368 8.368 0 0 1-.252-.702c-.126-.432-.179-.907.171-1.267l.358.348zm-.332 6.106c-1.368 1.368-3.036 2.626-4.417 4.901l-.427-.259c1.423-2.344 3.173-3.678 4.49-4.996l.354.354zm-4.417 4.901c-1.13 1.861-2.245 3.217-2.67 3.67l-.365-.342c.399-.426 1.494-1.753 2.608-3.587l.427.259zm8.649-7.606a.25.25 0 1 1 .419.273l-.419-.273zm-2.842 3.188l-.144-.204.144.204zm-3.629 3.381l.208.139-.208-.139zm-2.844 4.676a.25.25 0 1 1-.415-.279l.415.279zm9.055-10.087a.25.25 0 0 1-.38-.325l.38.325zm-1.888 1.174a.25.25 0 0 1 .324.381l-.324-.381zm-1.537 1.798a.25.25 0 1 1-.31-.392l.31.392zm-2.183 1.304a.25.25 0 1 1 .365.342l-.365-.342zm-1.156 2.409a.25.25 0 1 1-.415-.279l.415.279zm-1.942 1.99a.25.25 0 1 1 .415.279l-.415-.279zm9.385-9.56a8.989 8.989 0 0 1-.679.885l-.38-.325c.302-.354.52-.647.64-.833l.419.273zm-2.243 2.44c-.272.231-.564.46-.873.679l-.289-.408c.296-.21.577-.43.838-.652l.324.381zm-.873.679c-.357.252-.685.499-.988.738l-.31-.392a23.9 23.9 0 0 1 1.009-.754l.289.408zm-2.806 2.384a7.608 7.608 0 0 0-.76.932l-.416-.277c.186-.278.454-.615.811-.997l.365.342zm-.76.932l-.761 1.135-.415-.279.76-1.133.416.277zm-2.288 3.404l-.764 1.133-.415-.279.764-1.133.415.279z" fill="#10084D"/><path d="M457.556 288.093l-.99 3.876-.989 5.773" stroke="#10084D" stroke-width=".5" stroke-linejoin="round"/><path d="M454.34 297.577c.247-2.446 1.039-7.686 2.226-9.072m-1.319.413c-.605.989-1.913 4.057-2.309 8.412" stroke="#10084D" stroke-width=".5" stroke-linecap="round" stroke-linejoin="round" stroke-dasharray="4 4"/><path d="M487.412 281.495c-1.567-.028-5.13.247-6.845 1.567-1.716 1.319-16.55 6.433-23.753 8.825" stroke="#10084D" stroke-width=".5" stroke-linejoin="round"/><path d="M486.834 280.589c-1.537-.027-5.033.248-6.716 1.567-1.683 1.32-16.237 6.432-23.304 8.823" stroke="#10084D" stroke-width=".5" stroke-linecap="round" stroke-linejoin="round" stroke-dasharray="4 4"/><path d="M483.866 276.959l-.051-.245a.257.257 0 0 1 .12.004l-.069.241zm2.656 3.394a8.602 8.602 0 0 0-1.036-1.796c-.491-.645-1.075-1.183-1.688-1.358l.137-.481c.772.221 1.439.866 1.949 1.537a9.038 9.038 0 0 1 1.1 1.908l-.462.19zm-2.604-3.15c-1.41.299-4.963 1.373-7.832 3.263l-.275-.417c2.938-1.936 6.555-3.028 8.004-3.335l.103.489zm-7.832 3.263c-1.473.972-4.863 2.541-8.477 4.1a333.062 333.062 0 0 1-9.961 4.089l-.182-.465a338.118 338.118 0 0 0 9.945-4.083c3.626-1.565 6.971-3.116 8.4-4.058l.275.417z" fill="#10084D"/><circle r=".577" transform="matrix(-1 0 0 1 482.794 279.186)" stroke="#10084D" stroke-width=".5" stroke-linecap="round" stroke-linejoin="round"/><path d="M482.711 273.825c.495.467 1.551 1.798 1.815 3.381m24.907 8.825l-3.959 3.629m-10.308-2.887c-.688.358-2.079 1.815-2.145 4.784m-.083 3.051c-.163 1.375-2.074 4.124-8.412 4.124" stroke="#10084D" stroke-width=".5" stroke-linecap="round" stroke-linejoin="round" stroke-dasharray="4 4"/><path d="M502.01 292.959c-3.464-.44-11.216-1.435-14.515-1.897-4.124-.577-5.196 3.134-5.196 7.67" stroke="#10084D" stroke-width=".5" stroke-linejoin="round"/><path d="M500.691 294.877c-3.073-.394-8.795-1.286-11.721-1.7-3.658-.517-4.444 1.489-4.444 5.555m-28.288-4.289l9.478.519a12.628 12.628 0 0 0 13.202-10.91" stroke="#10084D" stroke-width=".5" stroke-linejoin="round"/><path d="M456.485 292.25l10.406.572a9.124 9.124 0 0 0 9.552-7.946" stroke="#10084D" stroke-width=".5" stroke-linejoin="round"/><path d="M477.928 280.175c-.528-.33-1.814-.467-2.392-.495-.22-.522-.264-1.55 1.32-1.484 1.979.082 3.134 2.144 2.804 2.392-.33.247-1.072 0-1.732-.413z" fill="#fff"/><path d="M475.536 279.68l-.012.25a.248.248 0 0 1-.218-.153l.23-.097zm2.392.495l-.133.212.133-.212zm1.732.413l-.15-.2.15.2zm-2.804-2.392l.01-.25-.01.25zm-1.308 1.235c.297.014.774.056 1.245.137.46.079.958.202 1.267.395l-.265.424c-.218-.136-.627-.247-1.087-.326a10.362 10.362 0 0 0-1.184-.131l.024-.499zm2.512.532c.316.198.644.35.922.424.297.08.462.05.528.001l.3.4c-.264.198-.636.168-.957.082a4.04 4.04 0 0 1-1.058-.483l.265-.424zm1.45.425c-.06.044-.042.094-.044.041a.744.744 0 0 0-.058-.214 2.663 2.663 0 0 0-.471-.719c-.465-.523-1.189-1.013-2.092-1.05l.021-.5c1.077.045 1.92.627 2.445 1.218.262.295.455.603.56.863.052.129.088.259.094.378.005.108-.013.276-.155.383l-.3-.4zm-2.665-1.942c-.742-.031-1.006.194-1.102.385-.112.22-.073.523.024.752l-.461.194c-.124-.292-.216-.765-.009-1.173.222-.437.728-.693 1.569-.658l-.021.5z" fill="#10084D"/><path d="M472.732 281c1.072-.083 2.887 2.227 3.876 1.732.726-1.32-.797-2.474-1.649-2.887-1.584-.462-2.144.578-2.227 1.155z" fill="#fff" stroke="#10084D" stroke-width=".5" stroke-linejoin="round"/><path d="M469.268 282.567c1.649-.165 3.134 1.814 4.041 1.485.577-.165.66-1.897-1.567-2.64-1.781-.593-2.392.523-2.474 1.155z" fill="#fff"/><path d="M473.309 284.052l-.085-.235.016-.006.069.241zm-4.041-1.485l.025.249a.25.25 0 0 1-.273-.281l.248.032zm2.474-1.155l.079-.237-.079.237zm1.653 2.875c-.325.118-.668.018-.974-.125-.31-.145-.651-.368-.987-.579-.701-.44-1.414-.84-2.141-.767l-.05-.498c.922-.092 1.776.415 2.457.841.354.223.658.422.933.55.279.13.462.154.591.108l.171.47zm-4.375-1.752c.048-.365.246-.872.7-1.206.467-.344 1.155-.469 2.101-.154l-.158.475c-.835-.279-1.343-.143-1.647.081a1.323 1.323 0 0 0-.5.868l-.496-.064zm2.801-1.36c1.171.391 1.777 1.058 1.993 1.693.106.314.117.62.048.872-.067.245-.225.478-.484.552l-.138-.481c.03-.008.099-.054.14-.203.039-.143.04-.346-.04-.579-.155-.457-.621-1.027-1.677-1.379l.158-.475z" fill="#10084D"/><path d="M470.175 285.289c1.386-.726-.357-1.952-1.402-2.475-1.385-.527-1.677.33-1.649.825.907-.082 2.556 1.897 3.051 1.65z" fill="#fff" stroke="#10084D" stroke-width=".5" stroke-linejoin="round"/><path d="M464.237 284.959c.357.687 1.319 1.946 2.309 1.484.33-.093.742-1.237-.33-2.227-.858-.791-1.677.165-1.979.743zm-3.299 1.484c.33.578 1.22 1.65 2.144 1.32.99-.528.303-1.65-.165-2.144-1.253-.528-1.842.329-1.979.824zm-2.392 1.155c-.082.165.165 1.649 1.237 1.32 1.122-.66.742-1.65.413-2.062-1.238-.578-1.567.577-1.65.742z" fill="#fff"/><path d="M466.546 286.443l-.106-.226a.174.174 0 0 1 .038-.014l.068.24zm-2.309-1.484l-.222.115a.248.248 0 0 1 0-.231l.222.116zm1.979-.743l-.17.184.17-.184zm-3.134 3.547l.118.22a.207.207 0 0 1-.034.015l-.084-.235zm-2.144-1.32l-.217.124a.25.25 0 0 1-.024-.191l.241.067zm1.979-.824l.097-.231a.265.265 0 0 1 .085.059l-.182.172zm-3.134 3.299l.127.215a.224.224 0 0 1-.053.023l-.074-.238zm-1.237-1.32l.224.112-.224-.112zm1.65-.742l.105-.227c.035.016.066.04.09.07l-.195.157zm6.456-.186c-.626.292-1.22.021-1.658-.347-.442-.37-.791-.886-.979-1.249l.443-.231c.169.325.481.782.857 1.097.379.319.761.447 1.125.277l.212.453zm-2.637-1.827c.163-.31.47-.737.873-.983.206-.124.449-.209.715-.192.269.017.534.135.783.365l-.34.367c-.179-.166-.339-.225-.474-.233a.722.722 0 0 0-.424.121c-.296.18-.55.519-.69.787l-.443-.232zm2.371-.81c.587.542.783 1.143.771 1.639a1.508 1.508 0 0 1-.149.635c-.08.158-.21.325-.394.377l-.136-.481c-.019.005.026-.006.083-.12.05-.1.092-.246.096-.423.008-.347-.125-.812-.611-1.26l.34-.367zm-3.22 3.965c-.581.208-1.126-.037-1.533-.358a3.906 3.906 0 0 1-.912-1.073l.434-.248c.154.269.439.654.787.928.351.277.713.403 1.056.28l.168.471zm-2.469-1.622c.08-.289.291-.686.675-.938.4-.262.95-.341 1.642-.05l-.194.461c-.561-.236-.932-.151-1.174.008-.258.168-.41.448-.467.653l-.482-.134zm2.402-.929c.248.263.568.703.689 1.168.062.236.077.496-.013.744-.092.255-.282.468-.575.624l-.235-.441c.201-.107.296-.232.339-.352a.751.751 0 0 0 0-.449c-.092-.351-.35-.719-.569-.951l.364-.343zm-3.242 3.709c-.327.101-.614.068-.852-.063a1.278 1.278 0 0 1-.494-.533 2.094 2.094 0 0 1-.203-.596 1.516 1.516 0 0 1-.026-.244.76.76 0 0 1 .004-.107.401.401 0 0 1 .036-.127l.448.224c.013-.028.014-.045.013-.036a1.028 1.028 0 0 0 .017.202c.025.137.074.302.153.45.079.15.178.265.294.329.108.059.253.088.463.024l.147.477zm-1.535-1.67l.001-.002.003-.005.008-.019.025-.061a3.64 3.64 0 0 1 .082-.181c.069-.136.172-.305.324-.45.154-.148.36-.272.627-.311.265-.038.567.013.909.172l-.211.453c-.277-.129-.48-.151-.627-.13a.63.63 0 0 0-.352.177c-.206.197-.276.449-.341.581l-.448-.224zm2.069-.787c.189.237.398.642.393 1.097-.005.478-.245.967-.874 1.337l-.254-.431c.493-.29.625-.625.628-.911a1.295 1.295 0 0 0-.284-.779l.391-.313z" fill="#10084D"/><path d="M560.049 290.794c.218-.905.091-1.735 0-2.037l-25.718 6.998c-2.001-.096-6.233-.143-7.149.429-.916.573-1.153 1.67-1.156 2.147.358 2.811 1.891 5.448 4.622 6.203 1.117.309 2.372.523 3.683.523 15.666 0 17.84-2.943 19.651-6.158 1.811-3.214 2.762-3.35 3.984-4.256.978-.724 1.525-1.419 1.676-1.675.136-.619.19-1.268.407-2.174z" fill="#fff"/><path d="M560.049 288.757l.24-.072a.25.25 0 0 0-.305-.169l.065.241zm0 2.037l.243.059-.243-.059zm-.407 2.174l.215.127a.248.248 0 0 0 .029-.074l-.244-.053zm-1.676 1.675l.149.201-.149-.201zm-3.984 4.256l.218.123-.218-.123zm-23.334 5.635l-.066.241.066-.241zm-4.4-6.436a.25.25 0 1 0-.496.063l.496-.063zm.934-1.914l.132.212-.132-.212zm7.149-.429l-.012.25a.256.256 0 0 0 .078-.009l-.066-.241zm25.479-6.926c.079.265.202 1.05-.004 1.907l.486.117c.229-.954.098-1.829-.003-2.168l-.479.144zm-.004 1.907c-.111.462-.18.857-.238 1.212-.058.358-.104.665-.171.966l.489.107c.07-.317.119-.644.176-.992.057-.351.124-.732.23-1.176l-.486-.117zm-.38 2.105c-.13.222-.651.892-1.608 1.601l.297.402c.999-.74 1.571-1.458 1.742-1.749l-.431-.254zm-1.608 1.601c-.299.221-.576.392-.873.587a7.608 7.608 0 0 0-.916.689c-.645.574-1.351 1.437-2.265 3.059l.436.245c.897-1.593 1.572-2.405 2.161-2.93.295-.263.574-.458.859-.645.282-.186.582-.371.895-.603l-.297-.402zm-4.054 4.335c-.451.8-.913 1.563-1.593 2.267-.678.701-1.58 1.352-2.915 1.909-2.681 1.118-7.099 1.854-14.925 1.854v.5c7.841 0 12.342-.735 15.117-1.893 1.393-.58 2.353-1.268 3.082-2.023.727-.752 1.215-1.562 1.67-2.369l-.436-.245zm-19.433 6.03c-1.284 0-2.517-.21-3.616-.514l-.133.482a14.16 14.16 0 0 0 3.749.532v-.5zm-8.057-6.508l-.026-.201-.496.063.026.201.496-.063zm.002.034c.001-.206.055-.567.215-.941.16-.372.419-.743.823-.996l-.265-.424c-.512.32-.829.784-1.017 1.223a3.084 3.084 0 0 0-.256 1.134l.5.004zm1.038-1.937c.083-.051.22-.105.418-.156.195-.05.432-.094.705-.13a20.274 20.274 0 0 1 1.921-.141 52.63 52.63 0 0 1 3.961.036l.024-.5a53.162 53.162 0 0 0-4.002-.036c-.715.024-1.402.069-1.97.145a6.782 6.782 0 0 0-.763.141 2.07 2.07 0 0 0-.559.217l.265.424zm7.083-.4l25.718-6.998-.131-.482-25.718 6.998.131.482zm-3.682 8.297c-2.597-.718-4.09-3.238-4.441-5.994l-.496.063c.365 2.866 1.938 5.62 4.804 6.413l.133-.482z" fill="#10084D"/><path d="M559.959 288.666c.399-1.811-.015-3.562-.272-4.211-.006-1.528-.333-4.901-1.592-6.16-1.575-1.574-3.435-1.86-5.582-1.145-.334-.095-1.059-.372-1.288-.715-.286-.43-2.29-3.435-6.154-3.435-1.574 0-2.289 1.002-2.432 2.147-.115.916-4.723 9.54-7.013 13.738l-3.241 2c-2.4 2.943-4.845 4.528-5.388 5.66-.544 1.132.407 1.72 5.841 2.581 12.859 2.082 22.005-4.166 22.729-5.841.58-1.341 2.264-2.853 3.034-3.442.869-.217 1.268-.875 1.358-1.177z" fill="#fff"/><path d="M559.687 284.455l-.25.001a.278.278 0 0 0 .018.091l.232-.092zm.272 4.211l.24.072.004-.018-.244-.054zm-1.358 1.177l-.061-.242a.24.24 0 0 0-.091.044l.152.198zm-3.034 3.442l.23.099-.23-.099zm-22.729 5.841l.04-.247h-.001l-.039.247zm-5.841-2.581l.225.108-.225-.108zm5.388-5.66l-.131-.213a.255.255 0 0 0-.063.055l.194.158zm25.71-12.59l.176-.177-.176.177zm-5.582-1.145l-.068.241c.048.013.1.012.147-.004l-.079-.237zm-1.288-.715l-.208.138.208-.138zm-8.586-1.288l-.248-.031.248.031zm-7.013 13.738l.131.213a.256.256 0 0 0 .089-.093l-.22-.12zm23.829-4.338c.243.615.645 2.314.26 4.066l.488.107c.412-1.871-.013-3.673-.283-4.357l-.465.184zm.265 4.047c-.071.235-.412.815-1.18 1.007l.121.485c.971-.243 1.427-.979 1.538-1.348l-.479-.144zm-1.271 1.051c-.395.302-1.018.835-1.617 1.465-.596.625-1.187 1.364-1.494 2.075l.459.199c.272-.629.813-1.317 1.397-1.929a14.297 14.297 0 0 1 1.559-1.413l-.304-.397zm-3.111 3.54c-.07.162-.261.414-.6.736-.333.315-.788.68-1.36 1.069-1.143.777-2.739 1.642-4.714 2.391-3.949 1.497-9.406 2.531-15.786 1.498l-.08.493c6.478 1.05 12.024.001 16.043-1.524 2.01-.762 3.64-1.644 4.818-2.444a11.36 11.36 0 0 0 1.423-1.121c.35-.332.603-.642.715-.899l-.459-.199zm-22.461 5.694c-2.724-.432-4.284-.79-5.095-1.169-.407-.189-.575-.362-.636-.504-.057-.132-.046-.299.076-.553l-.451-.217c-.149.312-.224.643-.085.967.134.313.441.554.884.761.886.413 2.518.779 5.228 1.208l.079-.493zm-5.655-2.226c.117-.245.348-.532.688-.882.337-.348.762-.739 1.254-1.194.98-.906 2.203-2.048 3.415-3.534l-.388-.316c-1.188 1.457-2.388 2.579-3.366 3.483-.487.451-.925.853-1.274 1.213-.346.357-.625.692-.78 1.013l.451.217zm32.715-12.199a17.795 17.795 0 0 0-.331-3.229c-.241-1.196-.648-2.42-1.335-3.107l-.353.354c.573.573.959 1.664 1.198 2.852.236 1.173.318 2.381.321 3.132l.5-.002zm-1.666-6.336c-.818-.818-1.72-1.31-2.705-1.5-.983-.188-2.029-.073-3.132.295l.158.474c1.044-.348 2.001-.446 2.879-.278.876.169 1.691.607 2.447 1.363l.353-.354zm-5.689-1.208a4.07 4.07 0 0 1-.642-.249c-.247-.122-.432-.253-.507-.365l-.416.277c.154.232.447.411.702.537.268.131.547.229.726.281l.137-.481zm-1.149-.614c-.289-.434-2.358-3.546-6.362-3.546v.5c3.725 0 5.663 2.899 5.946 3.323l.416-.277zm-6.362-3.546c-.843 0-1.483.27-1.929.717-.443.443-.675 1.036-.751 1.649l.496.062c.066-.533.264-1.013.608-1.357.34-.341.846-.571 1.576-.571v-.5zm-2.68 2.366a1.332 1.332 0 0 1-.061.206 6.995 6.995 0 0 1-.162.408c-.139.326-.335.751-.577 1.251a148.1 148.1 0 0 1-1.865 3.689 496.974 496.974 0 0 1-4.319 8.096l.439.239c1.145-2.1 2.87-5.307 4.324-8.104a150.894 150.894 0 0 0 1.872-3.703c.242-.503.443-.935.586-1.272.072-.168.131-.315.174-.437a1.64 1.64 0 0 0 .085-.311l-.496-.062zm-6.896 13.557l-3.241 1.999.262.426 3.241-2-.262-.425z" fill="#10084D"/><path d="M537.342 290.03c1.489.229 2.719.954 3.149 1.288 1.908 1.241 6.01 4.322 7.155 6.727" stroke="#10084D" stroke-width=".5" stroke-linecap="round" stroke-linejoin="round"/><path d="M542.117 274.63c.317-.136.362.272.408.498.016.084-.312 1.172-.745 2.536l-4.1 11.608-.272.753c-2.219-.29-3.701.12-4.165.362 1.177-1.57 3.857-5.162 5.161-6.973.576-.732 1.805-2.617 2.12-4.301.609-1.582 1.025-2.939 1.095-3.125.136-.362.181-1.222.498-1.358z" fill="#fff"/><path d="M542.525 275.128l.245-.049-.245.049zm-.408-.498l.099.23-.099-.23zm-.498 1.358l.234.088-.234-.088zm-3.215 7.426l-.196-.155-.006.009.202.146zm-5.161 6.973l-.2-.15a.251.251 0 0 0 .009.312.251.251 0 0 0 .306.06l-.115-.222zm8.537-12.723l.236.083.002-.008-.238-.075zm-4.372 12.361l-.032.247a.247.247 0 0 0 .267-.163l-.235-.084zm.272-.753l.235.085.001-.002-.236-.083zm2.844-10.159l-.233-.09a.22.22 0 0 0-.012.044l.245.046zm2.246-4.034c-.018-.087-.047-.295-.124-.448a.498.498 0 0 0-.234-.24.476.476 0 0 0-.393.009l.197.46c.034-.015.02.001-.012-.014-.024-.011-.021-.023-.005.009.015.03.03.075.044.136.015.065.023.118.037.186l.49-.098zm-.751-.679c-.163.07-.26.217-.319.34a2.212 2.212 0 0 0-.143.425c-.035.144-.065.298-.092.426a2.557 2.557 0 0 1-.08.31l.468.175c.042-.111.073-.25.101-.382.03-.139.056-.277.089-.41.033-.134.068-.245.107-.327.042-.087.07-.099.066-.097l-.197-.46zm-3.817 8.868c-1.303 1.809-3.982 5.399-5.159 6.969l.4.3c1.177-1.57 3.859-5.164 5.164-6.977l-.405-.292zm3.816-5.529a99.84 99.84 0 0 0 .543-1.752c.067-.227.121-.417.157-.556a2.964 2.964 0 0 0 .054-.245c.001-.011.008-.058-.002-.107l-.49.098c-.008-.039-.002-.067-.004-.052l-.006.03a2.392 2.392 0 0 1-.036.15c-.034.131-.086.314-.153.54a96.811 96.811 0 0 1-.539 1.743l.476.151zm-4.375 12.37l.272-.752-.47-.17-.272.753.47.169zm3.742-14.208c-.037.097-.163.497-.348 1.046a52.306 52.306 0 0 1-.746 2.076l.467.179a54.02 54.02 0 0 0 .753-2.095c.193-.572.309-.942.342-1.031l-.468-.175zm-8.027 14.708c.407-.212 1.835-.622 4.018-.337l.065-.495c-2.256-.295-3.793.117-4.314.388l.231.444zm4.558-1.254l4.1-11.608-.472-.167-4.1 11.609.472.166zm.685-5.787c.296-.377.755-1.043 1.181-1.829.424-.783.824-1.702.988-2.58l-.491-.092c-.151.805-.524 1.672-.937 2.434a13.128 13.128 0 0 1-1.134 1.758l.393.309z" fill="#10084D"/><path d="M551.221 276.622c-.634-1.177-2.753-3.55-6.158-3.622-1.947 0-2.4 1.63-2.49 2.083" stroke="#10084D" stroke-width=".5" stroke-linecap="round" stroke-linejoin="round"/><path d="M558.292 278.259a.25.25 0 1 0-.47.168l.47-.168zm-18.048 12.839a.25.25 0 0 0 .4.299l-.4-.299zm8.762-11.903a.25.25 0 0 0 .409.288l-.409-.288zm-1.422 2.827a.25.25 0 0 0-.404-.295l.404.295zm-.967.475a.25.25 0 0 0 .404.295l-.404-.295zm-.528 1.563a.25.25 0 1 0-.402-.296l.402.296zm-.803.247a.25.25 0 0 0 .403.297l-.403-.297zm-1.675 3.105a.25.25 0 1 0-.401-.298l.401.298zm-.872.336a.25.25 0 0 0 .401.298l-.401-.298zm-1.588 2.97a.25.25 0 0 0-.051-.35.249.249 0 0 0-.349.05l.4.3zm16.671-12.291c.223.624.474 1.541.518 2.272.021.371-.013.655-.099.828a.346.346 0 0 1-.138.157.408.408 0 0 1-.244.033l-.057.497a.907.907 0 0 0 .541-.091.839.839 0 0 0 .345-.373c.146-.294.174-.687.151-1.081-.048-.799-.317-1.767-.547-2.41l-.47.168zm.037 3.29c-.156-.018-.392-.122-.705-.332a9.25 9.25 0 0 1-1.032-.83c-.753-.681-1.593-1.57-2.364-2.442l-.375.331c.777.878 1.631 1.783 2.403 2.482.386.349.756.652 1.09.875.325.218.646.38.926.413l.057-.497zm-8.119-3.597c-.128.206-.382.576-.734 1.075l.409.288c.351-.497.613-.879.75-1.099l-.425-.264zm-2.56 3.607l-.563.77.404.295.563-.77-.404-.295zm-1.493 2.037l-.401.543.403.297.4-.544-.402-.296zm-2.477 3.35l-.471.634.401.298.471-.634-.401-.298zm-2.459 3.304l-.507.68.4.299.507-.679-.4-.3zm13.007-12.305c-.571-.646-1.324-1.034-2.068-1.064-.754-.03-1.477.31-1.95 1.071l.425.264c.377-.607.93-.858 1.505-.835.586.023 1.217.333 1.713.895l.375-.331z" fill="#10084D"/><path d="M550.495 279.701c-1.956-.797-5.765-.452-7.426-.181l2.287.922c.802 0 2.19.231 2.784.346.861.075 2.663.208 2.989.136.407-.091.498-.77-.634-1.223z" fill="#fff"/><path d="M543.069 279.52l-.04-.247a.25.25 0 0 0-.053.479l.093-.232zm7.426.181l-.094.232h.001l.093-.232zm.634 1.223l-.054-.244.054.244zm-2.989-.136l-.047.245a.202.202 0 0 0 .026.004l.021-.249zm-2.784-.346l-.093.232c.03.012.061.018.093.018v-.25zm-2.246-.675a25.908 25.908 0 0 1 3.565-.307c1.399-.02 2.797.095 3.726.473l.188-.463c-1.027-.419-2.512-.53-3.921-.51a26.6 26.6 0 0 0-3.639.313l.081.494zm7.292.166c.536.215.71.455.747.584.017.061.006.098-.005.116a.104.104 0 0 1-.069.047l.108.488a.604.604 0 0 0 .395-.285.647.647 0 0 0 .052-.503c-.099-.347-.446-.672-1.042-.911l-.186.464zm.673.747a2.82 2.82 0 0 1-.426.014 23.644 23.644 0 0 1-.8-.032 59.066 59.066 0 0 1-1.687-.123l-.043.498c.432.038 1.1.09 1.702.124.301.017.587.029.821.033.22.003.425 0 .541-.026l-.108-.488zm-2.887-.137c-.593-.116-2.003-.351-2.832-.351v.5c.775 0 2.142.226 2.737.341l.095-.49zm-2.738-.333l-2.287-.922-.187.464 2.287.922.187-.464z" fill="#10084D"/><path d="M541.306 290.749c-.951-.589-2.989-1.404-5.162-1.902-.377-.166-.906-.597 0-.996 1.132-.498 2.943.362 4.754.996 1.811.634 2.581 1.63 2.491 2.038-.091.407-1.132.453-2.083-.136z" fill="#fff"/><path d="M536.144 288.847l-.101.229.045.015.056-.244zm5.162 1.902l-.132.213.132-.213zm2.083.136l-.244-.054.244.054zm-2.491-2.038l.083-.236-.083.236zm-4.754-.996l-.101-.229.101.229zm-.056 1.24c2.157.494 4.166 1.301 5.086 1.871l.263-.426c-.981-.607-3.047-1.431-5.237-1.932l-.112.487zm5.086 1.871c.51.315 1.051.466 1.489.478.217.007.424-.021.592-.091.167-.07.331-.199.378-.41l-.488-.108-.002.002a.063.063 0 0 1-.008.011.255.255 0 0 1-.073.044.97.97 0 0 1-.385.053c-.343-.01-.799-.132-1.24-.405l-.263.426zm2.459-.023c.042-.189-.022-.393-.121-.575a2.453 2.453 0 0 0-.485-.596c-.437-.407-1.114-.83-2.046-1.157l-.165.472c.878.308 1.492.699 1.87 1.051.19.176.315.338.387.469.076.14.075.213.072.228l.488.108zm-2.652-2.328c-.886-.31-1.817-.692-2.647-.927-.825-.233-1.638-.349-2.291-.062l.202.458c.479-.211 1.138-.145 1.953.085.812.23 1.692.594 2.618.918l.165-.472zm-4.938-.989c-.243.107-.427.232-.536.383a.535.535 0 0 0-.078.518.832.832 0 0 0 .273.351c.109.086.232.154.341.202l.202-.458a1.038 1.038 0 0 1-.232-.136.373.373 0 0 1-.116-.132c-.003-.011-.009-.02.014-.052.034-.047.125-.126.334-.218l-.202-.458z" fill="#10084D"/><path d="M546.646 298.044c-2.898-3.32-9.738-8.866-15.027-6.44" stroke="#10084D" stroke-width=".5" stroke-linecap="round" stroke-linejoin="round" stroke-dasharray="4 4"/><path d="M544.357 294.104a.25.25 0 0 0 .032.352.25.25 0 0 0 .352-.031l-.384-.321zm10.513-14.489a.25.25 0 1 0-.448-.222l.448.222zm-10.129 14.81c1.298-1.555 4.326-5.288 6.035-7.761l-.411-.284c-1.695 2.453-4.71 6.17-6.008 7.724l.384.321zm6.035-7.761c1.713-2.477 3.443-5.731 4.094-7.049l-.448-.222c-.647 1.308-2.364 4.538-4.057 6.987l.411.284zm-7.328 5.926a.25.25 0 0 0 .385.319l-.385-.319zm10.149-14.042a.25.25 0 0 0-.449-.22l.449.22zm-8.263 12.519a.25.25 0 0 0-.39-.313l.39.313zm2.521-4.051a.25.25 0 0 0 .401.3l-.401-.3zm2.872-3.291a.25.25 0 0 0-.426-.263l.426.263zm1.522-3.66a.25.25 0 0 0 .441.236l-.441-.236zm-8.416 12.844c.377-.454.904-1.098 1.501-1.842l-.39-.313c-.596.742-1.121 1.384-1.496 1.836l.385.319zm4.423-5.593c.511-.684.991-1.344 1.395-1.932l-.412-.283c-.399.58-.874 1.235-1.384 1.915l.401.3zm1.395-1.932c.362-.527.724-1.089 1.076-1.659l-.426-.263a40.07 40.07 0 0 1-1.062 1.639l.412.283zm3.039-5.083c.387-.721.702-1.335.907-1.753l-.449-.22a57.22 57.22 0 0 1-.899 1.737l.441.236zm7.246 4.179a.25.25 0 0 0-.225-.273.25.25 0 0 0-.273.224l.498.049zm-1.565 5.218a.25.25 0 0 0 .458.201l-.458-.201zm1.067-5.267c-.076.773-.262 2.49-.404 3.238l.491.093c.147-.774.335-2.515.411-3.282l-.498-.049zm-.404 3.238c-.14.733-.499 1.657-.663 2.029l.458.201c.169-.384.546-1.349.696-2.137l-.491-.093z" fill="#10084D"/><path d="M559.538 286.297a.25.25 0 0 0 .028-.499l-.028.499zm-3.669-.478l.019-.249-.019.249zm-1.449 2.702l.25.009-.25-.009zm-.506 6.149a.25.25 0 0 0 .499.037l-.499-.037zm5.652-8.872a244.86 244.86 0 0 1-3.678-.228l-.038.498c.969.074 2.863.184 3.688.229l.028-.499zm-3.678-.228c-.342-.026-.637.034-.881.19-.242.155-.408.388-.523.66-.224.529-.284 1.274-.314 2.091l.5.019c.03-.831.092-1.483.275-1.915.088-.209.198-.349.332-.434.131-.084.312-.133.573-.113l.038-.498zm-1.718 2.941c-.048 1.324-.176 5.081-.256 6.159l.499.037c.081-1.09.209-4.863.257-6.177l-.5-.019zm5.109-.908a.25.25 0 1 0 0-.5v.5zm-4.053 5.678a.25.25 0 0 0 .5.008l-.5-.008zm4.053-6.178h-2.852v.5h2.852v-.5zm-2.852 0c-.344 0-.565.245-.703.543-.139.299-.231.719-.297 1.232-.132 1.03-.17 2.528-.201 4.403l.5.008c.031-1.884.069-3.351.197-4.348.065-.5.149-.858.254-1.084.106-.227.195-.254.25-.254v-.5z" fill="#10084D"/><path d="M552.924 282.764c0 4.786-2.371 9.262-6.33 11.951l-.869.591" stroke="#10084D" stroke-width=".5" stroke-linecap="round" stroke-linejoin="round"/><path d="M551.703 284.892a8.79 8.79 0 0 1-3.98 7.356l-3.084 2.017" stroke="#10084D" stroke-width=".5" stroke-linecap="round" stroke-linejoin="round"/><path d="M550.607 277.126a.25.25 0 1 0 .412-.283l-.412.283zm-8.282-1.986a.25.25 0 1 0 .496.066l-.496-.066zm.927-.473a.25.25 0 1 0-.278-.416l.278.416zm1.596-.957a.25.25 0 1 0 .035.499l-.035-.499zm2.337.772a.25.25 0 1 0 .166-.472l-.166.472zm2.801 1.185a.249.249 0 0 0-.353.011.249.249 0 0 0 .011.353l.342-.364zm-7.165-.461c.014-.107.112-.327.431-.539l-.278-.416c-.405.27-.611.604-.649.889l.496.066zm2.062-.997c.266-.019.562-.023.893-.008l.023-.5a8.456 8.456 0 0 0-.951.009l.035.499zm.893-.008a4.9 4.9 0 0 1 1.409.281l.166-.472a5.417 5.417 0 0 0-1.552-.309l-.023.5zm3.868 1.83c.433.407.763.803.963 1.095l.412-.283a7.592 7.592 0 0 0-1.033-1.176l-.342.364zm-22.519 20.602a.25.25 0 1 0-.349-.358l.349.358zm-.446 2.266l.101-.229-.101.229zm28.299-3.803l-.177-.177-.014.015.191.162zm3.487-4.392l-.082-.237a.278.278 0 0 0-.08.046l.162.191zm1.82-1.139a.25.25 0 1 0-.472-.167l.472.167zm-34.02 7.316a.25.25 0 1 0 .411.284l-.411-.284zm.098 1.429a.25.25 0 1 0-.456.206l.456-.206zm2.686 1.668a.25.25 0 0 0 .301-.185.249.249 0 0 0-.184-.301l-.117.486zm5.17.177a.25.25 0 1 0-.032.499l.032-.499zm5.007.628a.25.25 0 1 0-.015-.499l.015.499zm4.815-.953a.25.25 0 0 0 .08.494l-.08-.494zm4.862-.68a.25.25 0 1 0-.163-.472l.163.472zm4.129-2.614a.25.25 0 1 0 .293.405l-.293-.405zm3.018-2.422a.25.25 0 1 0-.425-.263l.425.263zm1.207-2.611a.25.25 0 1 0 .367.34l-.367-.34zm1.792-.779a.25.25 0 0 0-.226-.446l.226.446zm.542-.986a.25.25 0 1 0 .363.344l-.363-.344zm-32.815 6.537a4.252 4.252 0 0 0-.511.606l.411.284c.142-.205.305-.391.449-.532l-.349-.358zm-.869 2.241c.117.26.342.467.671.612l.202-.458c-.244-.107-.362-.237-.417-.36l-.456.206zm.671.612c.651.287 1.365.585 2.471.85l.117-.486a12.797 12.797 0 0 1-2.386-.822l-.202.458zm7.609 1.526c.771.051 1.627.093 2.581.125l.017-.5c-.949-.032-1.8-.074-2.566-.124l-.032.499zm2.581.125c.804.027 1.627.029 2.458.004l-.015-.499a38.43 38.43 0 0 1-2.426-.005l-.017.5zm7.353-.455c1.661-.269 3.282-.656 4.782-1.174l-.163-.472c-1.469.507-3.061.887-4.699 1.152l.08.494zm9.204-3.383a10.276 10.276 0 0 0 1.844-1.684l-.382-.323a9.738 9.738 0 0 1-1.755 1.602l.293.405zm1.83-1.668c.39-.391.657-.772.895-1.159l-.425-.263a5.551 5.551 0 0 1-.824 1.068l.354.354zm2.469-3.43a11.16 11.16 0 0 1 1.002-.948l-.323-.382c-.417.351-.759.68-1.046.99l.367.34zm.922-.903c.137-.047.315-.12.503-.216l-.226-.446a3.46 3.46 0 0 1-.44.189l.163.473zm1.408-.858c.14-.148.262-.321.331-.517l-.472-.167a.984.984 0 0 1-.222.34l.363.344z" fill="#10084D"/><path d="M543.885 288.123c-1.521-.58-4.618-.453-5.976-.317l3.758 1.358c.694.121 2.173.39 2.535.498.453.136 1.585-.815-.317-1.539z" fill="#fff"/><path d="M537.909 287.806l-.025-.249a.25.25 0 0 0-.06.484l.085-.235zm5.976.317l.089-.234-.089.234zm.317 1.539l.072-.239-.072.239zm-2.535-.498l-.085.235a.29.29 0 0 0 .042.012l.043-.247zm-3.733-1.109c.67-.067 1.774-.132 2.897-.109 1.131.024 2.248.137 2.965.41l.178-.467c-.804-.306-1.996-.419-3.133-.443a26.187 26.187 0 0 0-2.957.111l.05.498zm5.862.301c.457.174.696.35.811.49.106.13.104.225.082.291a.446.446 0 0 1-.203.228c-.11.063-.191.064-.212.058l-.143.479c.205.062.435-.006.606-.105a.934.934 0 0 0 .427-.504c.08-.244.033-.515-.169-.763-.194-.237-.526-.452-1.021-.641l-.178.467zm.478 1.067c-.38-.114-1.88-.386-2.564-.505l-.086.493c.704.122 2.163.388 2.507.491l.143-.479zm-2.522-.494l-3.758-1.358-.17.47 3.758 1.358.17-.47z" fill="#10084D"/><path d="M537.455 285.859c1.304 0 2.779 1.12 3.322 1.738l-2.19.118c-.377-.211-1.204-.661-1.494-.769-.362-.136-.317-1.087.362-1.087z" fill="#fff"/><path d="M540.777 287.597l.014.25a.25.25 0 0 0 .174-.415l-.188.165zm-3.684-.651l.088-.234-.088.234zm1.494.769l-.122.219a.25.25 0 0 0 .136.031l-.014-.25zm2.378-.283c-.291-.331-.816-.782-1.435-1.151-.617-.367-1.358-.672-2.075-.672v.5c.587 0 1.236.255 1.819.602.579.345 1.063.764 1.316 1.051l.375-.33zm-3.51-1.823a.8.8 0 0 0-.568.221.905.905 0 0 0-.248.472.989.989 0 0 0 .025.496c.05.15.155.312.341.382l.176-.468c.005.001-.02-.006-.042-.072a.485.485 0 0 1-.01-.24.41.41 0 0 1 .106-.211.3.3 0 0 1 .22-.08v-.5zm-.45 1.571c.128.048.393.179.686.333.288.152.587.316.774.421l.245-.437a38.81 38.81 0 0 0-.786-.426 8.085 8.085 0 0 0-.743-.359l-.176.468zm3.759.168l-2.19.118.027.499 2.19-.118-.027-.499z" fill="#10084D"/><path d="M544.247 287.489c-1.159-.471-3.107-.509-4.043-.464-.307-.223-1.015-.695-1.391-.804 1.178-.815 3.985-.453 5.434-.136 1.449.317 2.083.951 1.992 1.404-.09.453-.543.589-1.992 0z" fill="#fff"/><path d="M540.204 287.025l-.146.202a.25.25 0 0 0 .158.048l-.012-.25zm4.043.464l.094-.232-.094.232zm1.992 0l.245.049-.245-.049zm-1.992-1.404l.053-.244-.053.244zm-5.434.136l-.142-.205a.25.25 0 0 0 .073.445l.069-.24zm1.403 1.054a15.065 15.065 0 0 1 1.905.038c.741.062 1.488.187 2.032.408l.188-.464c-.615-.249-1.422-.379-2.178-.443a15.747 15.747 0 0 0-1.971-.039l.024.5zm3.937.446c.727.295 1.248.428 1.613.408a.794.794 0 0 0 .491-.177.716.716 0 0 0 .227-.414l-.49-.098c-.015.077-.04.113-.064.134-.024.021-.076.05-.192.056-.245.014-.675-.079-1.397-.373l-.188.464zm2.331-.183c.074-.367-.155-.724-.51-.999-.367-.285-.926-.534-1.674-.698l-.107.489c.702.153 1.184.379 1.474.604.301.234.344.42.327.506l.49.098zm-2.184-1.697a16.245 16.245 0 0 0-2.865-.362 8.085 8.085 0 0 0-1.521.086c-.47.079-.906.218-1.243.451l.285.411c.252-.175.608-.296 1.041-.369.43-.072.919-.093 1.424-.079 1.011.027 2.059.194 2.772.351l.107-.489zm-3.949.982a10.414 10.414 0 0 0-.686-.456c-.262-.159-.559-.321-.782-.386l-.139.48c.152.044.398.173.661.333.255.155.504.325.653.433l.293-.404z" fill="#10084D"/><path d="M539.311 283.776c.942.073 2.385 1.359 2.989 1.993-.334-.085-1.254-.204-2.264 0-.181-.106-.616-.39-.906-.68-.362-.362-1.132-.09-1.268-.181-.135-.09.272-1.222 1.449-1.132z" fill="#fff"/><path d="M542.3 285.769l-.062.242a.25.25 0 0 0 .243-.415l-.181.173zm-2.989-1.993l-.019.25.019-.25zm-1.449 1.132l.139-.208-.139.208zm1.268.181l-.176.177.176-.177zm.906.68l-.126.215a.25.25 0 0 0 .175.03l-.049-.245zm2.445-.173c-.31-.325-.832-.815-1.4-1.235a6.38 6.38 0 0 0-.877-.555c-.291-.147-.591-.257-.873-.279l-.039.499c.189.014.422.092.686.226.26.132.536.311.806.511.54.399 1.041.869 1.335 1.178l.362-.345zm-3.15-2.069c-.683-.053-1.155.253-1.43.589-.135.165-.226.34-.273.488a.768.768 0 0 0-.041.223c0 .036.003.081.018.128a.303.303 0 0 0 .119.161l.277-.416a.202.202 0 0 1 .081.104c.006.02.005.032.005.029 0-.007.003-.032.017-.077.028-.086.087-.205.184-.323.189-.231.51-.445 1.004-.407l.039-.499zm-1.607 1.589a.41.41 0 0 0 .203.061c.052.003.108 0 .158-.004.115-.008.212-.021.338-.026.252-.012.432.021.531.119l.353-.353c-.264-.265-.65-.277-.907-.266-.129.006-.272.022-.351.027a.743.743 0 0 1-.094.004c-.028-.002.004-.006.046.022l-.277.416zm1.23.15c.311.312.767.608.956.718l.252-.431a4.958 4.958 0 0 1-.855-.64l-.353.353zm3.407.26c-.366-.093-1.324-.215-2.375-.003l.099.491c.969-.196 1.851-.08 2.153-.003l.123-.485z" fill="#10084D"/><path d="M545.878 284.501c-.978-.254-3.909-.197-5.252-.136.336 0 1.291.915 1.727 1.372.785.045 2.683.204 3.299.348.77.182 1.403.544 1.856 0 .453-.543-.407-1.267-1.63-1.584z" fill="#fff"/><path d="M540.626 284.365l-.011-.25a.25.25 0 0 0 .011.5v-.25zm5.252.136l-.062.242.062-.242zm-.226 1.584l-.057.244.057-.244zm-3.299-.348l-.181.172a.252.252 0 0 0 .166.078l.015-.25zm-1.716-1.122c.668-.03 1.732-.06 2.75-.05 1.029.01 1.975.06 2.429.178l.125-.484c-.524-.136-1.533-.184-2.55-.194-1.028-.01-2.101.02-2.776.05l.022.5zm5.179.128c.586.152 1.064.397 1.335.648.137.127.202.237.222.321.017.07.008.136-.057.213l.384.32a.725.725 0 0 0 .16-.651c-.052-.215-.193-.407-.369-.569-.351-.326-.914-.601-1.55-.766l-.125.484zm1.5 1.182a.5.5 0 0 1-.251.175.783.783 0 0 1-.33.01 3.544 3.544 0 0 1-.462-.112c-.17-.049-.363-.109-.564-.156l-.114.487c.184.043.359.097.538.149.175.051.355.101.53.126.176.026.361.029.543-.024.186-.055.352-.164.494-.335l-.384-.32zm-1.607-.083c-.327-.077-.973-.154-1.619-.217a48.321 48.321 0 0 0-1.723-.138l-.029.5a47.05 47.05 0 0 1 1.703.136c.654.063 1.265.138 1.554.206l.114-.487zm-3.175-.277a13.155 13.155 0 0 0-.92-.876 4.884 4.884 0 0 0-.502-.384 1.601 1.601 0 0 0-.233-.129.65.65 0 0 0-.253-.061v.5c-.009 0 .006-.001.052.019.043.019.097.049.162.091.131.084.286.205.45.345.327.278.668.615.882.839l.362-.344z" fill="#10084D"/><path d="M539.946 282.327c.725.073 2.777 1.359 3.713 1.993h-2.626l-1.223-.725c-.286-.106-.869-.362-.905-.543-.045-.227.136-.815 1.041-.725z" fill="#fff"/><path d="M543.659 284.32v.25a.25.25 0 0 0 .14-.457l-.14.207zm-3.713-1.993l-.025.249.025-.249zm-1.041.725l.245-.049-.245.049zm.905.543l.128-.215a.31.31 0 0 0-.041-.02l-.087.235zm1.223.725l-.128.215a.262.262 0 0 0 .128.035v-.25zm2.766-.207a30.981 30.981 0 0 0-1.952-1.217 13.667 13.667 0 0 0-1.043-.544c-.31-.141-.607-.251-.833-.273l-.05.497c.137.014.368.091.676.232.299.136.646.319 1.003.522.713.406 1.455.882 1.919 1.196l.28-.413zm-3.828-2.034c-.511-.052-.867.087-1.085.321-.206.222-.265.507-.226.701l.49-.098a.352.352 0 0 1 .102-.262c.087-.094.274-.204.669-.165l.05-.497zm-1.311 1.022a.417.417 0 0 0 .088.179.784.784 0 0 0 .117.114c.081.064.181.125.28.178.2.107.428.202.579.258l.173-.47a4.35 4.35 0 0 1-.515-.229 1.477 1.477 0 0 1-.205-.128.28.28 0 0 1-.041-.038c-.006-.008.007.005.014.038l-.49.098zm1.023.709l1.222.725.255-.431-1.222-.724-.255.43zm3.976.26h-2.626v.5h2.626v-.5z" fill="#10084D"/><path d="M546.872 284.138c-1.34-.471-3.164-.495-3.949-.405l-1.62-.863c.815-.543 3.622-.588 5.298-.271 1.675.317 2.49 1.222 2.354 1.539-.136.317-.407.589-2.083 0z" fill="#fff"/><path d="M542.923 283.733l-.117.221a.256.256 0 0 0 .146.028l-.029-.249zm3.949.405l-.082.236.082-.236zm2.083 0l.23.099-.23-.099zm-2.354-1.539l.046-.246-.046.246zm-5.298.271l-.138-.208a.248.248 0 0 0-.111.221.247.247 0 0 0 .132.208l.117-.221zm1.649 1.112c.761-.088 2.544-.062 3.838.392l.165-.472c-1.387-.487-3.252-.51-4.06-.417l.057.497zm3.838.392c.841.296 1.374.393 1.73.352a.81.81 0 0 0 .451-.182.815.815 0 0 0 .214-.307l-.46-.197a.305.305 0 0 1-.08.125c-.026.022-.075.052-.183.065-.233.026-.672-.034-1.507-.328l-.165.472zm2.395-.137c.085-.198.001-.41-.092-.56a2.017 2.017 0 0 0-.483-.506c-.431-.333-1.091-.653-1.963-.818l-.093.491c.804.152 1.389.444 1.75.723a1.5 1.5 0 0 1 .364.374c.073.118.041.138.057.099l.46.197zm-2.538-1.884c-.86-.162-2-.231-3.027-.191-.515.02-1.007.068-1.427.147-.412.077-.781.189-1.028.353l.277.417c.16-.107.447-.205.843-.279a9.514 9.514 0 0 1 1.354-.138c.999-.039 2.1.028 2.915.182l.093-.491zm-3.606 1.16l-1.62-.863-.235.441 1.62.863.235-.441z" fill="#10084D"/><path d="M540.218 280.878c.834-.144 3.094.906 4.121 1.449-.625.012-2.042.1-2.717.363-.408-.212-1.331-.652-1.766-.725-.543-.09-.679-.905.362-1.087z" fill="#fff"/><path d="M544.339 282.327l.004.25a.25.25 0 0 0 .113-.471l-.117.221zm-4.121-1.449l.043.247-.043-.247zm-.362 1.087l.041-.246-.041.246zm1.766.725l-.115.222a.251.251 0 0 0 .206.011l-.091-.233zm2.834-.584c-.52-.275-1.35-.677-2.159-.994a9.935 9.935 0 0 0-1.167-.387c-.35-.088-.691-.139-.954-.093l.085.493c.154-.027.408 0 .748.085.33.083.712.213 1.106.368.787.308 1.6.702 2.107.97l.234-.442zm-4.28-1.474c-.576.1-.934.4-.981.794-.046.382.229.721.62.786l.082-.493c-.152-.026-.217-.141-.206-.234.01-.081.104-.279.57-.36l-.085-.493zm-.361 1.58c.183.03.497.146.835.293.33.143.657.303.857.407l.23-.444a14.902 14.902 0 0 0-.888-.422c-.335-.145-.7-.286-.952-.327l-.082.493zm4.519-.135c-.319.006-.837.031-1.362.089-.518.056-1.07.146-1.441.291l.182.466c.304-.119.798-.204 1.313-.26.509-.056 1.012-.08 1.317-.086l-.009-.5z" fill="#10084D"/><path d="M547.598 281.965c-.978-.435-3.517-.392-4.664-.317-.106-.065-1.1-.45-1.584-.634 2.581-1.086 5.252-.543 6.655-.226 1.404.317 2.038.996 1.812 1.494-.227.498-.997.226-2.219-.317z" fill="#fff"/><path d="M542.934 281.648l-.13.213c.044.027.095.04.147.037l-.017-.25zm4.664.317l-.102.229.102-.229zm2.219.317l-.228-.103.228.103zm-1.812-1.494l.055-.244-.055.244zm-6.655.226l-.097-.23a.25.25 0 0 0 .008.464l.089-.234zm1.601.884a24.216 24.216 0 0 1 2.369-.033c.445.017.881.05 1.263.104.386.055.701.13.913.225l.203-.457c-.276-.123-.645-.206-1.046-.263a13.17 13.17 0 0 0-1.314-.109 24.92 24.92 0 0 0-2.421.034l.033.499zm4.545.296c.607.269 1.131.485 1.536.565.204.04.406.052.585 0a.659.659 0 0 0 .427-.374l-.455-.206a.163.163 0 0 1-.113.1c-.067.02-.177.023-.347-.01-.341-.067-.814-.259-1.43-.532l-.203.457zm2.548.191c.18-.394-.013-.801-.356-1.105-.347-.309-.901-.572-1.628-.736l-.11.488c.677.153 1.143.388 1.406.622.269.239.28.421.233.525l.455.206zm-1.984-1.841c-1.404-.317-4.146-.88-6.807.24l.194.461c2.501-1.053 5.101-.53 6.503-.213l.11-.488zm-6.799.704c.241.092.61.233.931.36l.422.17.139.06c.041.018.053.025.051.023l.261-.426a2.536 2.536 0 0 0-.259-.118 76.69 76.69 0 0 0-1.367-.536l-.178.467z" fill="#10084D"/><path d="M540.85 280.154c.58-.036 1.781.196 2.31.317.418-.206 1.744-.176 2.354-.136a150.47 150.47 0 0 0-3.215-1.087c-1.675-.543-1.901-.09-2.082.272-.182.362-.091.679.633.634z" fill="#fff"/><path d="M543.16 280.471l-.056.244a.251.251 0 0 0 .166-.02l-.11-.224zm-2.31-.317l.016.249-.016-.249zm-.633-.634l.223.112-.223-.112zm2.082-.272l.077-.237-.077.237zm3.215 1.087l-.016.249a.25.25 0 0 0 .099-.485l-.083.236zm-2.299-.108a18.004 18.004 0 0 0-1.152-.22c-.439-.069-.908-.123-1.228-.103l.031.499c.26-.016.681.029 1.12.098.432.067.859.154 1.118.214l.111-.488zm-2.38-.323c-.351.022-.434-.055-.442-.066-.001-.001-.009-.009-.006-.042a.446.446 0 0 1 .053-.164l-.447-.224c-.101.202-.18.494.002.733.173.227.497.286.871.262l-.031-.499zm-.395-.272c.09-.18.152-.292.332-.349.211-.066.622-.065 1.45.203l.154-.475c-.846-.275-1.386-.32-1.753-.205-.397.125-.539.42-.63.602l.447.224zm1.782-.146c1.338.434 2.697.904 3.209 1.085l.166-.472a150.57 150.57 0 0 0-3.221-1.088l-.154.475zm3.309.6a14.08 14.08 0 0 0-1.273-.025 6.869 6.869 0 0 0-.673.048 1.826 1.826 0 0 0-.536.138l.221.448c.066-.032.193-.065.381-.09a6.12 6.12 0 0 1 .621-.044c.45-.013.926.004 1.226.023l.033-.498z" fill="#10084D"/><path d="M542.165 277.754c.471.109 2.973.981 4.165 1.404l-2.852.317c-.438-.196-1.458-.616-2.038-.725-.724-.135-.452-.543-.362-.996.091-.453.498-.136 1.087 0z" fill="#fff"/><path d="M546.33 279.158l.028.248a.25.25 0 0 0 .221-.219.251.251 0 0 0-.165-.265l-.084.236zm-4.165-1.404l.056-.243-.056.243zm-1.087 0l.245.049-.245-.049zm.362.996l.046-.245-.046.245zm2.038.725l-.102.228c.04.018.085.025.129.02l-.027-.248zm2.936-.553c-.597-.211-1.522-.535-2.356-.82-.826-.282-1.586-.533-1.837-.591l-.112.487c.219.051.947.29 1.787.577.833.284 1.755.607 2.351.818l.167-.471zm-4.193-1.411a4.05 4.05 0 0 1-.381-.114 3.217 3.217 0 0 0-.353-.108.59.59 0 0 0-.401.034c-.154.082-.223.232-.253.382l.49.098c.016-.076.031-.056-.003-.038-.02.011-.017-.004.063.013.075.016.166.048.296.092.122.042.269.091.43.128l.112-.487zm-1.388.194c-.021.105-.05.195-.08.314a1.184 1.184 0 0 0-.049.368.562.562 0 0 0 .199.404c.122.105.291.167.491.205l.092-.491c-.161-.031-.23-.07-.258-.094-.016-.014-.023-.025-.025-.056a.72.72 0 0 1 .034-.211c.023-.088.062-.219.086-.341l-.49-.098zm.561 1.291c.547.103 1.541.51 1.982.707l.204-.456c-.435-.195-1.481-.627-2.094-.742l-.092.491zm4.909-.087l-2.853.317.055.497 2.853-.317-.055-.497z" fill="#10084D"/><ellipse cx="551.853" cy="278.841" rx=".362" ry=".543" stroke="#10084D" stroke-width=".5" stroke-linecap="round" stroke-linejoin="round"/><path d="M579.53 283.47a.749.749 0 1 0-1.06 1.06l1.06-1.06zM584 289l.53.53a.749.749 0 0 0 0-1.06l-.53.53zm-5.53 4.47a.749.749 0 1 0 1.06 1.06l-1.06-1.06zm0-8.94l5 5 1.06-1.06-5-5-1.06 1.06zm5 3.94l-5 5 1.06 1.06 5-5-1.06-1.06zm-257-5a.749.749 0 1 1 1.06 1.06l-1.06-1.06zM322 289l-.53.53a.749.749 0 0 1 0-1.06l.53.53zm5.53 4.47a.749.749 0 1 1-1.06 1.06l1.06-1.06zm0-8.94l-5 5-1.06-1.06 5-5 1.06 1.06zm-5 3.94l5 5-1.06 1.06-5-5 1.06-1.06z" fill="#10084D"/></g><rect x="38" y="37" width="570.625" height="381.767" rx="6" stroke="#10084D" stroke-width="2"/><defs><filter id="b" x="60.082" y="77.242" width="246.546" height="242.914" filterUnits="userSpaceOnUse" color-interpolation-filters="sRGB"><feFlood flood-opacity="0" result="BackgroundImageFix"/><feColorMatrix in="SourceAlpha" values="0 0 0 0 0 0 0 0 0 0 0 0 0 0 0 0 0 0 127 0" result="hardAlpha"/><feOffset dx="1" dy="1"/><feComposite in2="hardAlpha" operator="out"/><feColorMatrix values="0 0 0 0 0.0627451 0 0 0 0 0.0313726 0 0 0 0 0.301961 0 0 0 0.2 0"/><feBlend in2="BackgroundImageFix" result="effect1_dropShadow_2798_17175"/><feBlend in="SourceGraphic" in2="effect1_dropShadow_2798_17175" result="shape"/></filter><filter id="d" x="60.5" y="370.5" width="526" height="73" filterUnits="userSpaceOnUse" color-interpolation-filters="sRGB"><feFlood flood-opacity="0" result="BackgroundImageFix"/><feColorMatrix in="SourceAlpha" values="0 0 0 0 0 0 0 0 0 0 0 0 0 0 0 0 0 0 127 0" result="hardAlpha"/><feOffset dx="1" dy="1"/><feComposite in2="hardAlpha" operator="out"/><feColorMatrix values="0 0 0 0 0.0627451 0 0 0 0 0.0313726 0 0 0 0 0.301961 0 0 0 0.2 0"/><feBlend in2="BackgroundImageFix" result="effect1_dropShadow_2798_17175"/><feBlend in="SourceGraphic" in2="effect1_dropShadow_2798_17175" result="shape"/></filter><clipPath id="a"><rect x="37" y="36" width="572.625" height="383.767" rx="7" fill="#fff"/></clipPath><clipPath id="c"><path fill="#fff" transform="translate(83.996 178.156)" d="M0 0h16v12H0z"/></clipPath></defs></svg>