<svg width="114" height="72" viewBox="0 0 114 72" fill="none" xmlns="http://www.w3.org/2000/svg">
<path d="M49.4476 25.0103L39.3932 50.6819C39.3203 50.8701 39.3083 51.0762 39.3589 51.2715C39.4094 51.4668 39.52 51.6416 39.6753 51.7717C40.2876 52.2935 40.8727 52.8461 41.4281 53.4271C41.5188 53.5217 41.6276 53.5974 41.7483 53.6495C41.8689 53.7017 41.9988 53.7293 42.1304 53.7308H90.8839C96.6044 53.7308 103.171 51.0928 104.906 50.3484C105.043 50.2913 105.165 50.2035 105.261 50.092C105.358 49.9804 105.428 49.848 105.464 49.7053C107.325 42.2319 99.5278 42.9227 98.7954 43.006H98.6754C78.5965 43.006 64.2622 30.858 56.4347 21.9375C56.2884 21.7723 56.0892 21.662 55.8706 21.6251C55.6521 21.5883 55.4274 21.6271 55.2342 21.7351C53.5054 22.7355 51.5365 23.861 49.4656 24.9984L49.4476 25.0103Z" fill="#7040FF" stroke="#10084D" stroke-width="2"/>
<path d="M41.1142 10.2599C40.9401 10.3671 40.76 10.4564 40.5859 10.5458L49.0317 13.5232C49.1633 13.568 49.303 13.5848 49.4415 13.5725C49.5801 13.5602 49.7146 13.519 49.8361 13.4517C51.6369 12.4513 53.3656 11.4688 54.9143 10.5755C55.0359 10.5049 55.1405 10.4089 55.221 10.2942C55.3015 10.1795 55.3559 10.0488 55.3804 9.91118C55.405 9.77356 55.3991 9.63229 55.3632 9.49715C55.3272 9.362 55.2621 9.23622 55.1724 9.12849C53.1723 6.76082 51.3468 4.25326 49.71 1.6253C49.6443 1.51736 49.5572 1.42374 49.454 1.35006C49.3509 1.27638 49.2338 1.22415 49.1097 1.19654C41.7144 -0.68521 41.1142 10.2599 41.1142 10.2599Z" fill="#10084D"/>
<path d="M29.2828 50.2591C29.4626 50.3766 29.6665 50.4527 29.8798 50.4817C30.093 50.5108 30.3101 50.492 30.5151 50.4269C30.7201 50.3618 30.9077 50.2519 31.0643 50.1054C31.2209 49.9589 31.3423 49.7794 31.4198 49.5802L40.5738 26.2072C40.6125 26.117 40.6218 26.0172 40.6004 25.9215C40.5791 25.8259 40.5282 25.7392 40.4548 25.6737C40.3815 25.6081 40.2893 25.5669 40.1912 25.5558C40.0931 25.5447 39.9939 25.5642 39.9075 25.6117C34.241 28.7083 28.0703 31.8048 24.3007 32.8707C20.2249 34.026 15.5848 32.9362 11.8812 31.513C11.6999 31.4438 11.5063 31.412 11.3122 31.4195C11.118 31.427 10.9276 31.4737 10.7523 31.5567C10.577 31.6398 10.4206 31.7574 10.2927 31.9025C10.1648 32.0475 10.068 32.2169 10.0083 32.4003C8.3276 37.6406 9.13795 43.1192 9.62416 45.4177C9.68953 45.7425 9.86654 46.0346 10.1249 46.2442C10.3833 46.4538 10.707 46.5679 11.0408 46.567C17.4817 46.5849 23.5623 46.4182 29.2828 50.2591Z" fill="#E2DBFF" stroke="#10084D" stroke-width="2"/>
<path d="M24.3077 24.5517C27.9093 23.5334 33.6959 20.6572 39.1523 17.7035C39.3172 17.6141 39.4525 17.4792 39.5418 17.315C39.631 17.1509 39.6704 16.9647 39.6552 16.7788C39.6399 16.5929 39.5707 16.4154 39.4559 16.2678C39.3411 16.1201 39.1856 16.0086 39.0082 15.9468L32.5734 13.6661C32.4495 13.6236 32.3183 13.6059 32.1874 13.6141C32.0565 13.6223 31.9286 13.6561 31.8111 13.7137C25.1601 16.9711 18.071 12.9992 15.0036 10.8911C14.8578 10.7913 14.6873 10.7329 14.5105 10.7222C14.3336 10.7116 14.1572 10.749 14.0003 10.8305C13.8433 10.912 13.7119 11.0346 13.62 11.1848C13.5281 11.3351 13.4793 11.5074 13.479 11.6831V17.638C13.4768 17.8729 13.3894 18.0991 13.2328 18.2752C12.3143 19.3116 11.5428 20.4676 10.9398 21.7112C10.8815 21.8306 10.8484 21.9605 10.8427 22.093C10.837 22.2256 10.8587 22.3579 10.9065 22.4818C10.9543 22.6056 11.0272 22.7185 11.1207 22.8133C11.2142 22.9082 11.3263 22.983 11.4501 23.0332C15.2377 24.5517 20.1059 25.7427 24.3077 24.5517Z" fill="#7040FF" stroke="#10084D" stroke-width="2"/>
<path d="M88.4814 62.0677H39.7279C39.5963 62.0662 39.4664 62.0385 39.3458 61.9864C39.2251 61.9342 39.1163 61.8586 39.0256 61.7639C38.3087 61.0161 37.5449 60.314 36.7386 59.6619C30.3518 54.5406 23.5327 54.8979 16.2275 54.8979C16.0118 54.8945 15.8009 54.9614 15.6273 55.0885C5.17663 62.7763 10.543 70.9762 16.8278 70.9762H85.7743C96.453 70.9762 99.9645 67.4747 102.324 60.4658C102.376 60.2933 102.379 60.1098 102.332 59.9358C102.285 59.7618 102.19 59.6042 102.058 59.4806C101.926 59.357 101.762 59.2723 101.584 59.2359C101.406 59.1996 101.222 59.213 101.051 59.2748C98.3318 60.3288 93.1275 62.0677 88.4814 62.0677Z" fill="#FFEEC1" stroke="#10084D" stroke-width="2"/>
<path d="M59.082 7.35986C60.2731 7.98236 61.3288 8.83159 62.1889 9.85904C63.049 10.8865 63.6965 12.072 64.0945 13.3478C64.4926 14.6236 64.6333 15.9648 64.5086 17.2945C64.3839 18.6243 63.9963 19.9167 63.3679 21.0979" stroke="#E2DBFF" stroke-width="2" stroke-linecap="round" stroke-linejoin="round"/>
<path d="M67.1849 20.9133L63.0851 22.1697L61.8125 18.1025" stroke="#E2DBFF" stroke-width="2" stroke-linecap="round" stroke-linejoin="round"/>
<path d="M111.766 49.8303C112.812 51.6926 113.071 53.8908 112.484 55.9419C111.898 57.993 110.515 59.7294 108.639 60.7695" stroke="#E2DBFF" stroke-width="2" stroke-linecap="round" stroke-linejoin="round"/>
<path d="M110.596 62.4188L107.33 61.5018L108.254 58.2563" stroke="#E2DBFF" stroke-width="2" stroke-linecap="round" stroke-linejoin="round"/>
<path d="M5.37454 21.2585C4.50973 21.8739 3.77555 22.6523 3.21399 23.5492C2.65243 24.4461 2.27447 25.4439 2.10167 26.4857C1.92887 27.5275 1.96462 28.5929 2.20689 29.621C2.44917 30.6491 2.89322 31.6198 3.51368 32.4776" stroke="#E2DBFF" stroke-width="2" stroke-linecap="round" stroke-linejoin="round"/>
<path d="M1.03516 33.1447L4.38461 33.6926L4.93686 30.3638" stroke="#E2DBFF" stroke-width="2" stroke-linecap="round" stroke-linejoin="round"/>
<path d="M5.37518 48.0557C4.84127 48.4355 4.38805 48.9161 4.04144 49.4698C3.69484 50.0235 3.46163 50.6395 3.35515 51.2827C3.24868 51.9259 3.27104 52.5836 3.42092 53.2182C3.5708 53.8528 3.84526 54.4519 4.22866 54.9812" stroke="#E2DBFF" stroke-width="2" stroke-linecap="round" stroke-linejoin="round"/>
<path d="M2.69727 55.3923L4.76817 55.7317L5.10431 53.6772" stroke="#E2DBFF" stroke-width="2" stroke-linecap="round" stroke-linejoin="round"/>
</svg>
