<svg width="345" height="296" viewBox="0 0 345 296" fill="none" xmlns="http://www.w3.org/2000/svg">
<ellipse cx="141.39" cy="85.7834" rx="79.6561" ry="69.758" fill="#E2DBFF"/>
<g clip-path="url(#clip0_2355_14083)">
<path d="M336.341 0.787354H8.65711C4.5652 0.787354 1.24805 4.10397 1.24805 8.19523V220.103C1.24805 224.194 4.5652 227.511 8.65711 227.511H336.341C340.433 227.511 343.75 224.194 343.75 220.103V8.19523C343.75 4.10397 340.433 0.787354 336.341 0.787354Z" stroke="#10084D" stroke-width="2" stroke-linecap="round" stroke-linejoin="round"/>
<path d="M332.727 288.128H13.8457L82.346 247.191H261.864L332.727 288.128Z" stroke="#10084D" stroke-width="2" stroke-linecap="round" stroke-linejoin="round"/>
<path d="M332.727 288.128H13.8457V295.213H332.727V288.128Z" stroke="#10084D" stroke-width="2" stroke-linecap="round" stroke-linejoin="round"/>
<path d="M331.034 19.6809H280.879C279.074 19.6809 277.611 21.1436 277.611 22.9479V92.7756C277.611 94.5799 279.074 96.0426 280.879 96.0426H331.034C332.838 96.0426 334.301 94.5799 334.301 92.7756V22.9479C334.301 21.1436 332.838 19.6809 331.034 19.6809Z" stroke="#10084D" stroke-width="2" stroke-linecap="round" stroke-linejoin="round"/>
<path d="M331.034 111.787H280.879C279.074 111.787 277.611 113.25 277.611 115.054V195.116C277.611 196.92 279.074 198.383 280.879 198.383H331.034C332.838 198.383 334.301 196.92 334.301 195.116V115.054C334.301 113.25 332.838 111.787 331.034 111.787Z" fill="#7040FF"/>
<path d="M326.31 40.1489H285.603C283.799 40.1489 282.336 41.6116 282.336 43.4159V66.7968C282.336 68.6011 283.799 70.0638 285.603 70.0638H326.31C328.115 70.0638 329.578 68.6011 329.578 66.7968V43.4159C329.578 41.6116 328.115 40.1489 326.31 40.1489Z" fill="#7040FF"/>
<path d="M326.31 77.9363H285.603C283.799 77.9363 282.336 79.399 282.336 81.2033V85.6905C282.336 87.4949 283.799 88.9576 285.603 88.9576H326.31C328.115 88.9576 329.578 87.4949 329.578 85.6905V81.2033C329.578 79.399 328.115 77.9363 326.31 77.9363Z" stroke="#51A4E4" stroke-width="2" stroke-linecap="round" stroke-linejoin="round"/>
<path d="M24.082 227.393V170.161C24.082 169.294 24.4263 168.463 25.0391 167.85C25.6519 167.238 26.483 166.894 27.3496 166.894H174.35C175.216 166.894 176.047 167.238 176.66 167.85C177.273 168.463 177.617 169.294 177.617 170.161V227.393" stroke="#10084D" stroke-width="2" stroke-linecap="round" stroke-linejoin="round"/>
<path d="M32.7422 227.393V196.139C32.7422 195.273 33.0864 194.442 33.6992 193.829C34.312 193.217 35.1431 192.872 36.0097 192.872H165.688C166.555 192.872 167.386 193.217 167.998 193.829C168.611 194.442 168.956 195.273 168.956 196.139V227.393" stroke="#10084D" stroke-width="2" stroke-linecap="round" stroke-linejoin="round"/>
<path d="M287.06 33.8511C288.799 33.8511 290.209 32.4413 290.209 30.7022C290.209 28.9631 288.799 27.5532 287.06 27.5532C285.32 27.5532 283.91 28.9631 283.91 30.7022C283.91 32.4413 285.32 33.8511 287.06 33.8511Z" fill="#7040FF"/>
<path d="M287.06 123.596C288.799 123.596 290.209 122.186 290.209 120.447C290.209 118.708 288.799 117.298 287.06 117.298C285.32 117.298 283.91 118.708 283.91 120.447C283.91 122.186 285.32 123.596 287.06 123.596Z" fill="#51A4E4"/>
<path d="M283.91 133.83H328.183" stroke="#10084D" stroke-width="2" stroke-linecap="round" stroke-linejoin="round"/>
<path d="M294.146 30.7021H319.342" stroke="#10084D" stroke-width="2" stroke-linecap="round" stroke-linejoin="round"/>
<path d="M33.5303 181.064C35.2697 181.064 36.6797 179.654 36.6797 177.915C36.6797 176.176 35.2697 174.766 33.5303 174.766C31.7909 174.766 30.3809 176.176 30.3809 177.915C30.3809 179.654 31.7909 181.064 33.5303 181.064Z" fill="#7040FF"/>
<path d="M167.382 181.064C169.121 181.064 170.531 179.654 170.531 177.915C170.531 176.176 169.121 174.766 167.382 174.766C165.642 174.766 164.232 176.176 164.232 177.915C164.232 179.654 165.642 181.064 167.382 181.064Z" fill="#51A4E4"/>
<path d="M40.6172 177.915H65.8127" stroke="#10084D" stroke-width="2" stroke-linecap="round" stroke-linejoin="round"/>
<path d="M40.6172 199.367H116.991" stroke="#10084D" stroke-width="2" stroke-linecap="round" stroke-linejoin="round"/>
<path d="M40.6172 211.963H78.4105" stroke="#10084D" stroke-width="2" stroke-linecap="round" stroke-linejoin="round"/>
<path d="M32.7422 206.255H168.956" stroke="#10084D" stroke-width="2" stroke-linecap="round" stroke-linejoin="round"/>
<path d="M32.7422 218.064H168.956" stroke="#10084D" stroke-width="2" stroke-linecap="round" stroke-linejoin="round"/>
<path d="M283.91 139.34H328.183" stroke="#10084D" stroke-width="2" stroke-linecap="round" stroke-linejoin="round"/>
<path d="M283.91 144.851H328.183" stroke="#10084D" stroke-width="2" stroke-linecap="round" stroke-linejoin="round"/>
<path d="M283.91 150.362H328.183" stroke="#10084D" stroke-width="2" stroke-linecap="round" stroke-linejoin="round"/>
<path d="M283.91 155.872H328.183" stroke="#10084D" stroke-width="2" stroke-linecap="round" stroke-linejoin="round"/>
<path d="M283.91 161.383H314.617" stroke="#10084D" stroke-width="2" stroke-linecap="round" stroke-linejoin="round"/>
<path d="M324.854 185.787H309.106C307.367 185.787 305.957 187.197 305.957 188.936C305.957 190.675 307.367 192.085 309.106 192.085H324.854C326.593 192.085 328.003 190.675 328.003 188.936C328.003 187.197 326.593 185.787 324.854 185.787Z" fill="#51A4E4"/>
<path d="M159.902 197.399H146.517C145.43 197.399 144.549 198.28 144.549 199.367C144.549 200.454 145.43 201.335 146.517 201.335H159.902C160.989 201.335 161.871 200.454 161.871 199.367C161.871 198.28 160.989 197.399 159.902 197.399Z" fill="#7040FF"/>
<path d="M160.689 209.995H147.304C146.217 209.995 145.336 210.876 145.336 211.963C145.336 213.05 146.217 213.931 147.304 213.931H160.689C161.777 213.931 162.658 213.05 162.658 211.963C162.658 210.876 161.777 209.995 160.689 209.995Z" fill="#7040FF"/>
<path d="M205.088 53.7603C206.658 53.7603 207.931 52.4879 207.931 50.9183C207.931 49.3488 206.658 48.0764 205.088 48.0764C203.519 48.0764 202.246 49.3488 202.246 50.9183C202.246 52.4879 203.519 53.7603 205.088 53.7603Z" stroke="#10084D" stroke-width="2" stroke-linecap="round" stroke-linejoin="round"/>
<path d="M129.155 32.5286C130.725 32.5286 131.997 31.2562 131.997 29.6866C131.997 28.1171 130.725 26.8447 129.155 26.8447C127.585 26.8447 126.312 28.1171 126.312 29.6866C126.312 31.2562 127.585 32.5286 129.155 32.5286Z" stroke="#10084D" stroke-width="2" stroke-linecap="round" stroke-linejoin="round"/>
<path d="M39.5221 74.4958C41.0919 74.4958 42.3644 73.2235 42.3644 71.6539C42.3644 70.0844 41.0919 68.812 39.5221 68.812C37.9523 68.812 36.6797 70.0844 36.6797 71.6539C36.6797 73.2235 37.9523 74.4958 39.5221 74.4958Z" stroke="#10084D" stroke-width="2" stroke-linecap="round" stroke-linejoin="round"/>
<path d="M223.772 148.465C225.342 148.465 226.614 147.192 226.614 145.623C226.614 144.053 225.342 142.781 223.772 142.781C222.202 142.781 220.93 144.053 220.93 145.623C220.93 147.192 222.202 148.465 223.772 148.465Z" stroke="#10084D" stroke-width="2" stroke-linecap="round" stroke-linejoin="round"/>
<path d="M305.958 281.83H40.6172L87.0951 253.489H255.338L305.958 281.83Z" stroke="#10084D" stroke-width="2" stroke-linecap="round" stroke-linejoin="round"/>
<path d="M75.4727 260.574H267.99" stroke="#10084D" stroke-width="2" stroke-linecap="round" stroke-linejoin="round"/>
<path d="M63.8594 267.66H280.651" stroke="#10084D" stroke-width="2" stroke-linecap="round" stroke-linejoin="round"/>
<path d="M50.9473 275.532H294.706" stroke="#10084D" stroke-width="2" stroke-linecap="round" stroke-linejoin="round"/>
<path d="M222.496 281.83H124.076L127.619 275.532H218.032L222.496 281.83Z" stroke="#10084D" stroke-width="2" stroke-linecap="round" stroke-linejoin="round"/>
<path d="M222.496 281.83L202.418 253.489" stroke="#10084D" stroke-width="2" stroke-linecap="round" stroke-linejoin="round"/>
<path d="M232.843 281.83L208.979 253.489" stroke="#10084D" stroke-width="2" stroke-linecap="round" stroke-linejoin="round"/>
<path d="M243.197 281.83L215.545 253.489" stroke="#10084D" stroke-width="2" stroke-linecap="round" stroke-linejoin="round"/>
<path d="M253.543 281.83L222.104 253.489" stroke="#10084D" stroke-width="2" stroke-linecap="round" stroke-linejoin="round"/>
<path d="M263.889 281.83L228.67 253.489" stroke="#10084D" stroke-width="2" stroke-linecap="round" stroke-linejoin="round"/>
<path d="M274.234 281.83L235.229 253.489" stroke="#10084D" stroke-width="2" stroke-linecap="round" stroke-linejoin="round"/>
<path d="M284.588 281.83L241.787 253.489" stroke="#10084D" stroke-width="2" stroke-linecap="round" stroke-linejoin="round"/>
<path d="M294.934 281.83L248.354 253.489" stroke="#10084D" stroke-width="2" stroke-linecap="round" stroke-linejoin="round"/>
<path d="M51.6387 281.83L94.0853 253.489" stroke="#10084D" stroke-width="2" stroke-linecap="round" stroke-linejoin="round"/>
<path d="M61.9844 281.83L100.644 253.489" stroke="#10084D" stroke-width="2" stroke-linecap="round" stroke-linejoin="round"/>
<path d="M72.3398 281.83L107.212 253.489" stroke="#10084D" stroke-width="2" stroke-linecap="round" stroke-linejoin="round"/>
<path d="M82.6855 281.83L113.771 253.489" stroke="#10084D" stroke-width="2" stroke-linecap="round" stroke-linejoin="round"/>
<path d="M93.0312 281.83L120.329 253.489" stroke="#10084D" stroke-width="2" stroke-linecap="round" stroke-linejoin="round"/>
<path d="M103.377 281.83L126.895 253.489" stroke="#10084D" stroke-width="2" stroke-linecap="round" stroke-linejoin="round"/>
<path d="M113.73 281.83L133.454 253.489" stroke="#10084D" stroke-width="2" stroke-linecap="round" stroke-linejoin="round"/>
<path d="M124.076 281.83L140.012 253.489" stroke="#10084D" stroke-width="2" stroke-linecap="round" stroke-linejoin="round"/>
<path d="M137.021 275.532L146.509 253.489" stroke="#10084D" stroke-width="2" stroke-linecap="round" stroke-linejoin="round"/>
<path d="M146.02 275.532L152.72 253.489" stroke="#10084D" stroke-width="2" stroke-linecap="round" stroke-linejoin="round"/>
<path d="M155.027 275.532L158.933 253.489" stroke="#10084D" stroke-width="2" stroke-linecap="round" stroke-linejoin="round"/>
<path d="M164.027 275.532L165.145 253.489" stroke="#10084D" stroke-width="2" stroke-linecap="round" stroke-linejoin="round"/>
<path d="M173.027 275.532L171.357 253.489" stroke="#10084D" stroke-width="2" stroke-linecap="round" stroke-linejoin="round"/>
<path d="M182.027 275.532L177.57 253.489" stroke="#10084D" stroke-width="2" stroke-linecap="round" stroke-linejoin="round"/>
<path d="M191.033 275.532L183.781 253.489" stroke="#10084D" stroke-width="2" stroke-linecap="round" stroke-linejoin="round"/>
<path d="M200.033 275.532L189.994 253.489" stroke="#10084D" stroke-width="2" stroke-linecap="round" stroke-linejoin="round"/>
<path d="M209.033 275.532L196.207 253.489" stroke="#10084D" stroke-width="2" stroke-linecap="round" stroke-linejoin="round"/>
<path d="M72.0073 79.1666C55.8364 97.1347 69.3122 102.525 76.4993 105.22C83.6864 107.916 166.338 130.376 194.188 130.376C215.246 130.376 214.222 115.489 212.461 108.221C212.207 107.139 211.614 106.167 210.769 105.444C209.924 104.722 208.871 104.288 207.763 104.205C163.113 101.151 135.793 40.5352 135.793 40.5352C117.825 40.5352 116.028 53.1128 116.028 53.1128H110.638C110.638 53.1128 93.5687 53.1128 85.4832 42.332C85.4832 42.332 76.4993 45.0272 75.6009 56.7065V61.1985C77.1828 66.1124 76.8622 71.4412 74.7025 76.13L72.0073 79.1666Z" fill="#7040FF"/>
<path d="M116.028 53.1128C116.028 53.1128 117.825 40.5352 135.793 40.5352C135.793 40.5352 163.113 101.151 207.763 104.205C208.871 104.288 209.924 104.722 210.769 105.444C211.614 106.167 212.207 107.139 212.461 108.221C214.258 115.489 215.246 130.376 194.188 130.376C166.338 130.376 83.6864 107.916 76.4993 105.22C69.3122 102.525 55.8364 97.1347 72.0073 79.1666" stroke="#10084D" stroke-width="2" stroke-linecap="round" stroke-linejoin="round"/>
<path d="M110.639 53.1129C110.639 53.1129 93.5693 53.1129 85.4838 42.332C85.4838 42.332 76.5 45.0272 75.6016 56.7065" stroke="#10084D" stroke-width="2" stroke-linecap="round" stroke-linejoin="round"/>
<path d="M154.66 89.0492L163.267 80.5952" stroke="#10084D" stroke-width="2" stroke-linecap="round" stroke-linejoin="round"/>
<path d="M148.371 82.7602L156.978 74.3062" stroke="#10084D" stroke-width="2" stroke-linecap="round" stroke-linejoin="round"/>
<path d="M142.98 76.4713L151.587 68.0173" stroke="#10084D" stroke-width="2" stroke-linecap="round" stroke-linejoin="round"/>
<path d="M135.748 72.878L147.095 61.7288" stroke="#10084D" stroke-width="2" stroke-linecap="round" stroke-linejoin="round"/>
<path d="M205.869 107.017C205.869 107.017 190.974 111.77 188.539 121.077" stroke="#10084D" stroke-width="2" stroke-linecap="round" stroke-linejoin="round"/>
<path d="M82.7895 47.7764L76.1055 56.9221" stroke="#10084D" stroke-width="2" stroke-linecap="round" stroke-linejoin="round"/>
<path d="M85.4848 51.3699L78.8008 60.5157" stroke="#10084D" stroke-width="2" stroke-linecap="round" stroke-linejoin="round"/>
<path d="M89.0787 55.0537L85.0898 60.516" stroke="#10084D" stroke-width="2" stroke-linecap="round" stroke-linejoin="round"/>
<path d="M92.6706 58.4133L90.4785 61.414" stroke="#10084D" stroke-width="2" stroke-linecap="round" stroke-linejoin="round"/>
<path d="M174.245 123.561L108.729 98.109C107.315 95.7525 106.796 95.1819 105.901 93.867C99.5489 84.5452 86.5507 83.3977 76.678 79.7268C58.903 83.4817 62.067 102.823 73.8501 104.236L78.0922 105.65L94.1175 110.364L169.06 129.217C205.354 133.931 209.124 127.803 212.895 119.79C212.895 119.79 183.11 126.857 174.245 123.561Z" fill="#FFEEC1" stroke="#10084D" stroke-width="2" stroke-linecap="round" stroke-linejoin="round"/>
<path d="M101.66 88.2106L109.672 74.5419L113.914 57.1027C107.801 59.0615 96.6254 64.3241 92.704 64.6438C88.2191 65.0126 79.007 64.0629 75.7357 61.8159C77.6712 71.0936 73.3794 79.7265 73.3794 79.7265C80.2357 81.0783 92.2328 83.9686 101.66 88.2106Z" fill="#51A4E4" stroke="#10084D" stroke-width="2" stroke-linecap="round" stroke-linejoin="round"/>
<path d="M114.774 56.4657C114.335 56.6329 113.88 56.7722 113.441 56.9115L134.18 58.045C140.779 57.5737 139.836 57.739 144.55 56.631C138.557 52.4 140.705 47.3265 135.968 42.5334C116.288 38.8182 114.774 56.4657 114.774 56.4657Z" fill="#10084D" stroke="#10084D" stroke-width="2" stroke-linecap="round" stroke-linejoin="round"/>
<path d="M158.83 75.9529L184.553 50.8401H201.781" stroke="#10084D" stroke-width="2" stroke-linecap="round" stroke-linejoin="round"/>
<path d="M126.312 29.6865H116.139L95.1875 50.6348" stroke="#10084D" stroke-width="2" stroke-linecap="round" stroke-linejoin="round"/>
<path d="M220.921 145.622H206.694L174.168 113.102" stroke="#10084D" stroke-width="2" stroke-linecap="round" stroke-linejoin="round"/>
<path d="M42.373 71.6541H57.6557L89.4966 103.49" stroke="#10084D" stroke-width="2" stroke-linecap="round" stroke-linejoin="round"/>
<rect x="152.789" y="228.685" width="46.9618" height="16.7962" fill="#10084D" stroke="#10084D" stroke-width="3"/>
</g>
<defs>
<clipPath id="clip0_2355_14083">
<rect width="344.076" height="296" fill="white" transform="translate(0.460938)"/>
</clipPath>
</defs>
</svg>
