<svg width="388" height="314" viewBox="0 0 388 314" fill="none" xmlns="http://www.w3.org/2000/svg">
<g clip-path="url(#clip0_2355_14294)">
<path d="M387.132 199.199C368.675 185.48 358.326 177.789 339.869 164.069C338.219 162.834 336.167 162.259 334.115 162.456C332.063 162.653 330.159 163.609 328.776 165.136L322.031 172.457" stroke="#7040FF" stroke-width="2" stroke-linecap="round" stroke-linejoin="round"/>
<path d="M367.645 235.066H236.488C233.876 235.066 231.758 237.183 231.758 239.794V309.273C231.758 311.884 233.876 314 236.488 314H367.645C370.257 314 372.375 311.884 372.375 309.273V239.794C372.375 237.183 370.257 235.066 367.645 235.066Z" fill="white"/>
<path d="M256.496 294.05C269.95 294.05 271.686 292.315 281.234 285.376C290.782 278.437 295.991 278.072 297.727 287.362C299.463 296.652 310.747 303.166 324.635 290.363C338.523 277.561 344.599 268.895 351.543 277.569C358.487 286.243 361.959 289.938 372.375 284.187V235.066H297.727L256.496 294.05Z" fill="#7040FF" stroke="#10084D" stroke-width="2" stroke-linecap="round" stroke-linejoin="round"/>
<path d="M284.047 236.151L247.6 272.582L265.394 290.363L320.408 235.396L284.047 236.151Z" fill="#7040FF" stroke="#10084D" stroke-width="2" stroke-linecap="round" stroke-linejoin="round"/>
<path d="M367.645 236.801C368.438 236.804 369.198 237.119 369.76 237.68C370.321 238.241 370.637 239.001 370.639 239.794V309.273C370.637 310.066 370.321 310.826 369.76 311.386C369.198 311.947 368.438 312.263 367.645 312.265H236.488C235.695 312.263 234.935 311.947 234.373 311.386C233.812 310.826 233.496 310.066 233.494 309.273V239.794C233.496 239.001 233.812 238.241 234.373 237.68C234.935 237.119 235.695 236.804 236.488 236.801H367.645ZM367.645 235.066H236.488C235.867 235.066 235.252 235.189 234.678 235.426C234.104 235.664 233.583 236.012 233.143 236.451C232.704 236.89 232.356 237.411 232.118 237.985C231.88 238.558 231.758 239.173 231.758 239.794V309.273C231.758 310.527 232.256 311.729 233.143 312.615C234.031 313.502 235.234 314 236.488 314H367.645C368.899 314 370.102 313.502 370.99 312.615C371.877 311.729 372.375 310.527 372.375 309.273V239.794C372.375 239.173 372.253 238.558 372.015 237.985C371.777 237.411 371.429 236.89 370.99 236.451C370.55 236.012 370.029 235.664 369.455 235.426C368.881 235.189 368.266 235.066 367.645 235.066Z" fill="#10084D"/>
<path d="M256.496 294.05C263.447 294.05 269.082 288.419 269.082 281.472C269.082 274.526 263.447 268.895 256.496 268.895C249.545 268.895 243.91 274.526 243.91 281.472C243.91 288.419 249.545 294.05 256.496 294.05Z" fill="#7040FF" stroke="#10084D" stroke-width="2" stroke-linecap="round" stroke-linejoin="round"/>
<path d="M294.332 274.533L312.126 256.751" stroke="#10084D" stroke-width="2" stroke-linecap="round" stroke-linejoin="round"/>
<path d="M315.164 253.716L323.766 245.12" stroke="#10084D" stroke-width="2" stroke-linecap="round" stroke-linejoin="round"/>
<path d="M348.939 264.558L373.053 240.462" stroke="#10084D" stroke-width="2" stroke-linecap="round" stroke-linejoin="round"/>
<path d="M342.863 270.63L346.24 267.256" stroke="#10084D" stroke-width="2" stroke-linecap="round" stroke-linejoin="round"/>
<path d="M299.463 275.834C299.463 275.834 302.657 276.702 303.23 281.473" stroke="#10084D" stroke-width="2" stroke-linecap="round" stroke-linejoin="round"/>
<path d="M302.934 273.232C303.664 273.485 304.302 273.951 304.766 274.569C305.23 275.187 305.499 275.93 305.538 276.702" stroke="#10084D" stroke-width="2" stroke-linecap="round" stroke-linejoin="round"/>
<path d="M315.086 260.221C315.329 260.305 315.542 260.46 315.696 260.666C315.851 260.871 315.94 261.118 315.954 261.375" stroke="#10084D" stroke-width="2" stroke-linecap="round" stroke-linejoin="round"/>
<path d="M357.445 274.533C357.445 274.533 360.857 281.039 366.186 281.472" stroke="#10084D" stroke-width="2" stroke-linecap="round" stroke-linejoin="round"/>
<path d="M253.189 273.622C254.216 273.169 255.324 272.925 256.446 272.906C257.569 272.886 258.684 273.092 259.726 273.51" stroke="#10084D" stroke-width="2" stroke-linecap="round" stroke-linejoin="round"/>
<path d="M249.787 286.347C248.541 284.741 247.899 282.749 247.973 280.718" stroke="#10084D" stroke-width="2" stroke-linecap="round" stroke-linejoin="round"/>
<path d="M257.685 289.826C256.149 289.974 254.6 289.713 253.197 289.071" stroke="#10084D" stroke-width="2" stroke-linecap="round" stroke-linejoin="round"/>
<path d="M264.984 282.644C264.836 283.762 264.47 284.84 263.908 285.818" stroke="#10084D" stroke-width="2" stroke-linecap="round" stroke-linejoin="round"/>
<path d="M262.572 275.401C263.8 276.648 264.617 278.239 264.916 279.963" stroke="#10084D" stroke-width="2" stroke-linecap="round" stroke-linejoin="round"/>
<path d="M258.666 279.304C259.23 279.884 259.542 280.664 259.534 281.472" stroke="#10084D" stroke-width="2" stroke-linecap="round" stroke-linejoin="round"/>
<path d="M253.459 281.134C253.529 280.443 253.836 279.796 254.327 279.304" stroke="#10084D" stroke-width="2" stroke-linecap="round" stroke-linejoin="round"/>
<path d="M258.666 283.641C258.09 284.215 257.31 284.538 256.496 284.538C255.683 284.538 254.902 284.215 254.326 283.641" stroke="#10084D" stroke-width="2" stroke-linecap="round" stroke-linejoin="round"/>
<path d="M126.338 14.7458H35.9787C33.366 14.7458 31.248 16.8624 31.248 19.4732V92.4218C31.248 95.0327 33.366 97.1492 35.9787 97.1492H126.338C128.951 97.1492 131.069 95.0327 131.069 92.4218V19.4732C131.069 16.8624 128.951 14.7458 126.338 14.7458Z" fill="white"/>
<path d="M129.586 49.2386L118.887 35.5304C118.67 35.2408 118.401 35.007 118.099 34.8443C117.796 34.6816 117.467 34.5938 117.133 34.5864C116.8 34.5791 116.468 34.6524 116.161 34.8017C115.853 34.9509 115.577 35.1727 115.349 35.4526L97.3021 57.0138C96.8163 57.5929 96.5453 58.3647 96.5461 59.1673V94.3675C96.5257 95.1438 96.7754 95.8975 97.2403 96.4634C97.7052 97.0293 98.3474 97.3611 99.026 97.3859H127.756C128.093 97.3747 128.424 97.2878 128.731 97.13C129.038 96.9722 129.315 96.7467 129.546 96.4664C129.777 96.1861 129.958 95.8564 130.077 95.4963C130.197 95.1362 130.253 94.7526 130.243 94.3675V51.3229C130.254 50.5597 130.02 49.8184 129.586 49.2386Z" fill="#7040FF" stroke="#10084D" stroke-width="2" stroke-linecap="round" stroke-linejoin="round"/>
<path d="M130.201 79.8011C129.472 79.0725 104.065 58.6104 96.1056 52.209C95.4092 51.6456 94.5595 51.3039 93.6667 51.2282C92.7739 51.1524 91.8788 51.346 91.0972 51.784L84.023 55.7133C83.19 56.1743 82.2322 56.3597 81.2871 56.2429C80.342 56.126 79.4583 55.7128 78.7628 55.0627L65.4476 42.6502C64.6358 41.8968 63.5751 41.4681 62.4674 41.4457C61.3598 41.4234 60.2826 41.8089 59.441 42.5288L32.8192 65.3935C32.3267 65.8167 31.9313 66.341 31.6601 66.9309C31.389 67.5207 31.2484 68.162 31.248 68.8111V93.1764C31.248 93.7676 31.3645 94.353 31.5909 94.8992C31.8173 95.4454 32.1492 95.9417 32.5675 96.3597C32.9859 96.7778 33.4825 97.1093 34.029 97.3356C34.5756 97.5618 35.1614 97.6782 35.753 97.6782H125.861C127.028 97.679 128.149 97.2274 128.99 96.4185C129.83 95.6096 130.323 94.5064 130.366 93.3412C130.583 88.2496 130.783 80.3822 130.201 79.8011Z" fill="#7040FF" stroke="#10084D" stroke-width="2" stroke-linecap="round" stroke-linejoin="round"/>
<path d="M126.338 16.4807C127.132 16.4829 127.892 16.7989 128.453 17.3597C129.015 17.9204 129.331 18.6802 129.333 19.4732V92.4218C129.331 93.2148 129.015 93.9747 128.453 94.5354C127.892 95.0961 127.132 95.4121 126.338 95.4144H35.9787C35.1851 95.4121 34.4248 95.0961 33.8637 94.5354C33.3026 93.9747 32.9864 93.2148 32.9841 92.4218V19.4732C32.9864 18.6802 33.3026 17.9204 33.8637 17.3597C34.4248 16.7989 35.1851 16.4829 35.9787 16.4807H126.338ZM126.338 14.7458H35.9787C34.724 14.7458 33.5208 15.2439 32.6337 16.1304C31.7465 17.017 31.248 18.2194 31.248 19.4732V92.4218C31.248 93.6756 31.7465 94.878 32.6337 95.7646C33.5208 96.6511 34.724 97.1492 35.9787 97.1492H126.338C127.593 97.1492 128.796 96.6511 129.683 95.7646C130.571 94.878 131.069 93.6756 131.069 92.4218V19.4732C131.069 18.2194 130.571 17.017 129.683 16.1304C128.796 15.2439 127.593 14.7458 126.338 14.7458Z" fill="#10084D"/>
<path d="M36.994 63.5806C37.6016 65.2546 40.2404 63.8408 41.1605 63.3377C44.9537 61.2473 48.1045 58.1333 51.5244 55.5311C52.5269 54.5784 53.7789 53.9288 55.1354 53.6575C55.695 53.6164 56.2562 53.7137 56.7694 53.9406C57.2825 54.1675 57.7319 54.5171 58.0779 54.9586C58.8939 55.826 59.9094 56.6934 61.168 56.1643C62.1141 55.7653 62.6958 54.8111 63.6332 54.4295C64.9873 53.831 66.2372 54.4295 67.3395 55.1407C67.9223 55.5715 68.5823 55.8866 69.2839 56.0689C69.7747 56.1699 70.2772 56.202 70.7769 56.1643C72.4522 56.0168 73.4504 54.7157 73.9365 53.2151C74.1566 52.5114 74.3077 51.7881 74.3878 51.0553L65.4473 42.7195C64.6355 41.9662 63.5748 41.5375 62.4671 41.5151C61.3595 41.4927 60.2823 41.8781 59.4407 42.5981L37.4193 61.5161C37.0207 62.1255 36.8687 62.8634 36.994 63.5806Z" fill="white" stroke="#10084D" stroke-width="2" stroke-linecap="round" stroke-linejoin="round"/>
<path d="M54.2507 65.1679C53.863 66.6635 53.1813 68.067 52.2456 69.2968C51.5708 70.2217 50.6287 70.9179 49.5461 71.2918C49.0715 71.3955 48.5752 71.3129 48.16 71.061C47.7447 70.8091 47.4423 70.4072 47.3154 69.9387C47.1137 69.1294 47.206 68.2749 47.5758 67.5273C47.9784 66.5682 48.5066 65.6669 49.1468 64.847C49.7836 64.0057 50.4736 63.2061 51.2127 62.453C52.9487 60.7182 54.4677 61.9759 54.5806 62.5397C54.6811 63.4295 54.568 64.3305 54.2507 65.1679ZM89.2315 68.0564C88.5504 68.3208 87.7947 68.3208 87.1135 68.0564C86.5294 67.8491 85.9955 67.5209 85.5469 67.0934C85.0982 66.666 84.7447 66.1488 84.5095 65.5756C84.1016 64.7082 83.7717 63.3897 84.3619 62.4876C85.1171 61.3253 86.6275 61.8891 87.5823 62.4876C87.8688 62.6611 90.0474 65.246 90.0474 66.6685C90.0553 66.953 89.983 67.234 89.8387 67.4794C89.6944 67.7248 89.4841 67.9248 89.2315 68.0564Z" fill="white" stroke="#10084D" stroke-width="2" stroke-linecap="round" stroke-linejoin="round"/>
<path d="M83.5452 57.4309C84.1396 57.7127 84.8187 57.7591 85.446 57.561C86.0005 57.2755 86.582 57.0459 87.1821 56.8757C87.7328 56.8436 88.2827 56.9526 88.7795 57.1924C89.2762 57.4323 89.7034 57.7951 90.0205 58.2462C90.767 59.1136 91.5309 59.981 92.3555 60.7704C93.2932 61.7308 94.3664 62.549 95.541 63.1991C95.9723 63.4998 96.4799 63.6724 97.0052 63.697C97.5306 63.7216 98.0521 63.5971 98.5096 63.3379C98.8807 63.0203 99.2853 62.744 99.7162 62.5138C100.229 62.2602 100.771 62.0708 101.331 61.95C102.459 61.7071 103.744 61.3689 104.247 60.2152C104.422 59.7863 104.462 59.314 104.36 58.8621L96.1313 52.2351C95.4348 51.6717 94.5852 51.3301 93.6923 51.2543C92.7995 51.1786 91.9044 51.3721 91.1229 51.8101L84.7169 55.3665C84.3177 55.6787 82.6511 56.9972 83.5452 57.4309Z" fill="white" stroke="#10084D" stroke-width="2" stroke-linecap="round" stroke-linejoin="round"/>
<path d="M65.1013 63.3204C66.06 63.3204 66.8373 62.3495 66.8373 61.1519C66.8373 59.9543 66.06 58.9834 65.1013 58.9834C64.1425 58.9834 63.3652 59.9543 63.3652 61.1519C63.3652 62.3495 64.1425 63.3204 65.1013 63.3204Z" fill="white" stroke="#10084D" stroke-width="2" stroke-linecap="round" stroke-linejoin="round"/>
<path d="M103.039 51.5582C103.224 51.9101 103.662 51.8926 103.959 51.8662C105.18 51.6283 106.316 50.9776 107.232 49.9923C108.271 48.9894 109.199 47.8369 110.246 46.8428C110.988 46.139 112.109 45.0129 113.156 45.2328C113.582 45.3916 114.016 45.5237 114.454 45.6287C115.048 45.6416 115.628 45.4187 116.102 44.9953C116.934 44.3707 118.062 43.6581 119.071 44.1156C119.43 44.2943 119.765 44.5344 120.066 44.8281C120.522 45.2492 121.021 45.6009 121.55 45.8751C122.293 46.227 123.317 46.5261 123.992 45.8751C124.5 45.2343 124.782 44.3875 124.779 43.5085C124.779 43.3326 124.779 43.1654 124.779 42.9982L119.168 35.5467C118.954 35.2521 118.69 35.0143 118.393 34.8488C118.096 34.6833 117.774 34.5939 117.446 34.5864C117.118 34.579 116.792 34.6536 116.491 34.8054C116.189 34.9572 115.917 35.1829 115.694 35.4675L102.92 51.3031C102.945 51.3965 102.986 51.4831 103.039 51.5582Z" fill="white" stroke="#10084D" stroke-width="2" stroke-linecap="round" stroke-linejoin="round"/>
<path d="M336.398 7.80664H215.658C213.524 7.80664 211.795 9.5348 211.795 11.6666V88.9522C211.795 91.084 213.524 92.8122 215.658 92.8122H336.398C338.531 92.8122 340.26 91.084 340.26 88.9522V11.6666C340.26 9.5348 338.531 7.80664 336.398 7.80664Z" fill="white"/>
<path d="M336.396 8.67402C337.19 8.6763 337.95 8.9923 338.511 9.55301C339.073 10.1137 339.389 10.8736 339.391 11.6666V88.9522C339.389 89.7451 339.073 90.505 338.511 91.0657C337.95 91.6264 337.19 91.9424 336.396 91.9447H215.656C214.863 91.9424 214.103 91.6264 213.541 91.0657C212.98 90.505 212.664 89.7451 212.662 88.9522V11.6666C212.664 10.8736 212.98 10.1137 213.541 9.55301C214.103 8.9923 214.863 8.6763 215.656 8.67402H336.396ZM336.396 6.93921H215.656C214.402 6.93921 213.199 7.43725 212.311 8.3238C211.424 9.21035 210.926 10.4128 210.926 11.6666V88.9522C210.926 90.2059 211.424 91.4084 212.311 92.2949C213.199 93.1815 214.402 93.6795 215.656 93.6795H336.396C337.651 93.6795 338.854 93.1815 339.742 92.2949C340.629 91.4084 341.127 90.2059 341.127 88.9522V11.6666C341.127 10.4128 340.629 9.21035 339.742 8.3238C338.854 7.43725 337.651 6.93921 336.396 6.93921Z" fill="#10084D"/>
<path d="M306.841 26.4558C282.536 26.4558 284.272 38.5995 241.74 38.5995C238.517 38.5995 235.426 39.8789 233.147 42.1563C230.868 44.4336 229.588 47.5224 229.588 50.7431C229.588 53.9638 230.868 57.0526 233.147 59.3299C235.426 61.6073 238.517 62.8867 241.74 62.8867C269.516 62.8867 272.12 67.2238 284.272 67.2238C296.425 67.2238 323.333 63.7542 323.333 42.9365C323.333 38.5655 321.595 34.3736 318.502 31.2829C315.41 28.1921 311.215 26.4558 306.841 26.4558Z" fill="#51A4E4" stroke="#10084D" stroke-width="2" stroke-linecap="round" stroke-linejoin="round"/>
<path d="M251.445 42.0691V59.183" stroke="white" stroke-width="2" stroke-linecap="round" stroke-linejoin="round"/>
<path d="M244.5 43.804V57.4482" stroke="white" stroke-width="2" stroke-linecap="round" stroke-linejoin="round"/>
<path d="M237.557 44.6714V56.5808" stroke="white" stroke-width="2" stroke-linecap="round" stroke-linejoin="round"/>
<path d="M260.836 60.2846C272.988 60.2846 268.648 40.3343 283.404 35.1299" stroke="white" stroke-width="2" stroke-linecap="round" stroke-linejoin="round"/>
<path d="M293.821 31.6602L274.117 61.1519" stroke="white" stroke-width="2" stroke-linecap="round" stroke-linejoin="round"/>
<path d="M303.368 30.3591L281.668 62.8434" stroke="white" stroke-width="2" stroke-linecap="round" stroke-linejoin="round"/>
<path d="M311.182 31.6602L290.35 62.8433" stroke="white" stroke-width="2" stroke-linecap="round" stroke-linejoin="round"/>
<path d="M316.381 36.8647L300.158 61.152" stroke="white" stroke-width="2" stroke-linecap="round" stroke-linejoin="round"/>
<path d="M319.271 45.5386L312.049 56.3464" stroke="white" stroke-width="2" stroke-linecap="round" stroke-linejoin="round"/>
<path d="M286.973 35.1299L318.742 40.3343" stroke="white" stroke-width="2" stroke-linecap="round" stroke-linejoin="round"/>
<path d="M282.537 41.4878L312.579 46.406" stroke="white" stroke-width="2" stroke-linecap="round" stroke-linejoin="round"/>
<path d="M277.328 47.7158L317.005 54.2127" stroke="white" stroke-width="2" stroke-linecap="round" stroke-linejoin="round"/>
<path d="M275.594 54.5076L303.37 59.0614" stroke="white" stroke-width="2" stroke-linecap="round" stroke-linejoin="round"/>
<path d="M126.34 195.166H26.4318C23.8192 195.166 21.7012 197.282 21.7012 199.893V274.577C21.7012 277.187 23.8192 279.304 26.4318 279.304H126.34C128.952 279.304 131.07 277.187 131.07 274.577V199.893C131.07 197.282 128.952 195.166 126.34 195.166Z" fill="white"/>
<path d="M21.8594 206.603L130.244 262.315V277.594H21.8594V206.603Z" fill="#7040FF"/>
<path d="M99.8227 247.21C102.835 258.486 92.8786 272.712 76.3864 272.712C59.8943 272.712 53.8182 249.812 46.0061 246.343C38.1941 242.873 23.4379 235.066 30.382 225.525C37.326 215.984 52.0822 222.211 52.0822 222.211L99.8227 247.21Z" fill="#51A4E4"/>
<path d="M126.34 196.901C127.133 196.903 127.894 197.219 128.455 197.78C129.016 198.34 129.332 199.1 129.334 199.893V274.577C129.332 275.37 129.016 276.129 128.455 276.69C127.894 277.251 127.133 277.567 126.34 277.569H26.4318C25.6383 277.567 24.878 277.251 24.3169 276.69C23.7557 276.129 23.4395 275.37 23.4372 274.577V199.893C23.4395 199.1 23.7557 198.34 24.3169 197.78C24.878 197.219 25.6383 196.903 26.4318 196.901H126.34ZM126.34 195.166H26.4318C25.1771 195.166 23.974 195.664 23.0868 196.55C22.1996 197.437 21.7012 198.639 21.7012 199.893V274.577C21.7012 275.83 22.1996 277.033 23.0868 277.919C23.974 278.806 25.1771 279.304 26.4318 279.304H126.34C127.594 279.304 128.798 278.806 129.685 277.919C130.572 277.033 131.07 275.83 131.07 274.577V199.893C131.07 198.639 130.572 197.437 129.685 196.55C128.798 195.664 127.594 195.166 126.34 195.166Z" fill="#10084D"/>
<path d="M72.9131 243.844C71.791 243.825 70.6992 243.477 69.7733 242.843C68.8474 242.21 68.1282 241.318 67.705 240.279C66.3336 236.983 65.8561 229.87 66.6113 224.059C66.6113 223.981 66.6634 223.972 66.6894 223.972C69.4323 226.271 75.8296 231.996 77.5569 236.116C77.8641 236.845 78.0225 237.628 78.0225 238.419C78.0225 239.21 77.8641 239.993 77.5569 240.722C77.287 241.361 76.889 241.939 76.3874 242.419C75.8859 242.9 75.2914 243.272 74.6404 243.515C74.0841 243.716 73.4961 243.816 72.9044 243.81L72.9131 243.844Z" fill="white"/>
<path d="M67.2708 225.629C72.149 229.914 75.6471 233.913 76.7061 236.48C76.9684 237.102 77.1036 237.77 77.1036 238.445C77.1036 239.12 76.9684 239.788 76.7061 240.41C76.4762 240.939 76.1428 241.418 75.7254 241.817C75.3081 242.216 74.8151 242.528 74.2756 242.734C73.8251 242.898 73.3489 242.98 72.8694 242.977C71.919 242.958 70.995 242.661 70.2115 242.123C69.4279 241.585 68.819 240.83 68.46 239.95C67.2534 237.035 66.776 230.981 67.2708 225.629ZM66.6459 223.105C66.4094 223.106 66.182 223.196 66.0085 223.357C65.835 223.517 65.7279 223.737 65.7083 223.972C64.9705 229.637 65.3525 236.983 66.8542 240.635C67.345 241.832 68.1766 242.859 69.2459 243.588C70.3151 244.318 71.575 244.717 72.8694 244.738C73.5565 244.74 74.2384 244.619 74.8833 244.382C75.6843 244.065 76.4127 243.589 77.0247 242.983C77.6366 242.377 78.1193 241.654 78.4438 240.856C78.7682 240.058 78.9278 239.203 78.9125 238.342C78.8973 237.482 78.7077 236.633 78.3553 235.847C76.5672 231.51 70.1179 225.742 67.3229 223.365C67.1465 223.214 66.9216 223.131 66.6892 223.131L66.6459 223.105Z" fill="#10084D"/>
<path d="M39.8421 226.687C38.9996 226.669 38.1808 226.405 37.4857 225.929C36.7905 225.453 36.249 224.785 35.9273 224.007C34.8857 221.483 34.5038 216.053 35.0593 211.568C37.1339 213.381 42.0034 217.753 43.2967 220.919C43.5302 221.468 43.6505 222.058 43.6505 222.654C43.6505 223.25 43.5302 223.84 43.2967 224.389C43.0936 224.866 42.7959 225.297 42.4214 225.657C42.047 226.016 41.6036 226.296 41.118 226.479C40.7081 226.622 40.2763 226.693 39.8421 226.687Z" fill="white"/>
<path d="M35.7623 213.373C39.2344 216.504 41.7342 219.384 42.5068 221.249C42.6918 221.689 42.7871 222.163 42.7871 222.641C42.7871 223.119 42.6918 223.592 42.5068 224.033C42.3439 224.408 42.1059 224.745 41.8072 225.024C41.5086 225.303 41.1558 225.518 40.7708 225.655C40.4591 225.767 40.1299 225.823 39.7986 225.82C39.129 225.8 38.4794 225.588 37.928 225.208C37.3766 224.827 36.9471 224.296 36.6912 223.677C35.8231 221.578 35.4412 217.319 35.719 213.373H35.7623ZM34.9204 210.614C34.7375 210.613 34.5608 210.68 34.4245 210.802C34.2882 210.924 34.202 211.092 34.1826 211.274C33.601 215.715 33.9048 221.492 35.0506 224.345C35.4388 225.28 36.0913 226.082 36.9285 226.652C37.7657 227.222 38.7511 227.536 39.7639 227.555C40.3 227.557 40.8321 227.463 41.335 227.277C41.9607 227.027 42.5292 226.652 43.0062 226.176C43.4831 225.7 43.8586 225.133 44.11 224.508C44.3615 223.883 44.4837 223.213 44.4692 222.54C44.4547 221.867 44.3039 221.203 44.0258 220.589C42.6283 217.207 37.5678 212.661 35.3457 210.805C35.2085 210.685 35.0333 210.618 34.851 210.614H34.9204Z" fill="#10084D"/>
<path d="M90.5176 232.412C89.6394 232.394 88.7856 232.12 88.0609 231.624C87.3363 231.128 86.7722 230.431 86.4379 229.619C85.3529 227.017 84.9709 221.344 85.5699 216.695C87.7312 218.56 92.783 223.105 94.1458 226.401C94.3843 226.971 94.5071 227.583 94.5071 228.201C94.5071 228.819 94.3843 229.431 94.1458 230.001C93.8518 230.714 93.3526 231.324 92.7112 231.753C92.0699 232.183 91.3156 232.412 90.5437 232.412H90.5176Z" fill="white"/>
<path d="M86.2454 218.481C89.9084 221.752 92.5125 224.779 93.3197 226.73C93.5172 227.193 93.6189 227.69 93.6189 228.192C93.6189 228.694 93.5172 229.192 93.3197 229.654C93.1621 230.045 92.9271 230.4 92.6288 230.698C92.3305 230.996 91.975 231.231 91.5837 231.388C91.2561 231.511 90.909 231.572 90.5594 231.571C89.8532 231.555 89.1672 231.333 88.5857 230.932C88.0043 230.531 87.5529 229.969 87.2871 229.315C86.4191 227.112 85.9851 222.628 86.2889 218.507L86.2454 218.481ZM85.5076 215.775C85.318 215.777 85.1357 215.848 84.9961 215.977C84.8565 216.105 84.7697 216.28 84.7525 216.469C84.1536 221.058 84.4573 227.025 85.6812 229.975C86.0797 230.945 86.7541 231.778 87.6211 232.37C88.4881 232.962 89.5095 233.287 90.5594 233.305C91.1139 233.306 91.6638 233.206 92.1826 233.01C92.8287 232.747 93.4153 232.356 93.9073 231.861C94.3993 231.366 94.7867 230.778 95.0466 230.131C95.3065 229.483 95.4336 228.79 95.4202 228.093C95.4069 227.396 95.2534 226.708 94.969 226.071C93.5194 222.602 88.2852 217.883 86.0197 215.957C85.8797 215.83 85.6972 215.759 85.5076 215.758V215.775Z" fill="#10084D"/>
<path d="M51.8992 210.181C50.8819 210.161 49.8926 209.844 49.0534 209.269C48.2142 208.694 47.562 207.886 47.1772 206.945C45.9273 203.927 45.4932 197.404 46.1877 192.095C48.6528 194.168 54.5206 199.416 56.0917 203.215C56.371 203.874 56.515 204.582 56.515 205.297C56.515 206.012 56.371 206.72 56.0917 207.379C55.8515 207.954 55.4968 208.474 55.0491 208.908C54.6015 209.342 54.0702 209.681 53.4876 209.903C52.9933 210.087 52.47 210.181 51.9426 210.181H51.8992Z" fill="white"/>
<path d="M46.8726 193.821C51.2126 197.664 54.3374 201.246 55.2922 203.545C55.5243 204.094 55.6439 204.684 55.6439 205.28C55.6439 205.876 55.5243 206.465 55.2922 207.014C55.0939 207.485 54.8014 207.91 54.4327 208.264C54.064 208.617 53.6269 208.892 53.1483 209.07C52.7518 209.221 52.3311 209.297 51.9071 209.296C51.0627 209.276 50.2424 209.01 49.5471 208.53C48.8517 208.051 48.3114 207.38 47.9924 206.598C46.916 203.996 46.4733 198.618 46.8813 193.804L46.8726 193.821ZM46.1955 191.202C45.9809 191.2 45.7735 191.279 45.6132 191.421C45.4529 191.564 45.3511 191.761 45.3275 191.974C44.6505 197.178 44.9977 203.935 46.3779 207.266C46.8278 208.366 47.5906 209.309 48.5718 209.98C49.5531 210.651 50.7097 211.019 51.8984 211.039C52.5263 211.037 53.1491 210.926 53.7386 210.71C54.4669 210.414 55.1283 209.976 55.6835 209.42C56.2388 208.864 56.6764 208.202 56.9704 207.474C57.2644 206.746 57.4087 205.965 57.3948 205.18C57.3809 204.395 57.209 203.62 56.8894 202.903C55.2489 198.948 49.3291 193.63 46.7684 191.453C46.6048 191.317 46.3997 191.241 46.1868 191.236L46.1955 191.202Z" fill="#10084D"/>
<path d="M383.27 137.917C384.064 137.919 384.824 138.235 385.385 138.796C385.946 139.357 386.262 140.117 386.265 140.91V213.858C386.262 214.651 385.946 215.411 385.385 215.972C384.824 216.533 384.064 216.849 383.27 216.851H325.895C325.101 216.849 324.341 216.533 323.78 215.972C323.219 215.411 322.902 214.651 322.9 213.858V140.91C322.902 140.117 323.219 139.357 323.78 138.796C324.341 138.235 325.101 137.919 325.895 137.917H383.27ZM383.27 136.182H325.895C324.64 136.182 323.437 136.68 322.55 137.567C321.663 138.454 321.164 139.656 321.164 140.91V213.858C321.164 215.112 321.663 216.315 322.55 217.201C323.437 218.088 324.64 218.586 325.895 218.586H383.27C384.525 218.586 385.728 218.088 386.615 217.201C387.502 216.315 388.001 215.112 388.001 213.858V140.91C388.001 139.656 387.502 138.454 386.615 137.567C385.728 136.68 384.525 136.182 383.27 136.182Z" fill="#10084D"/>
<path d="M304.281 78.0664H82.8517C80.2391 78.0664 78.1211 80.1829 78.1211 82.7938V220.798C78.1211 223.408 80.2391 225.525 82.8517 225.525H304.281C306.893 225.525 309.011 223.408 309.011 220.798V82.7938C309.011 80.1829 306.893 78.0664 304.281 78.0664Z" fill="white"/>
<path d="M304.281 79.8012C305.074 79.8035 305.835 80.1195 306.396 80.6802C306.957 81.2409 307.273 82.0008 307.275 82.7938V220.798C307.273 221.591 306.957 222.35 306.396 222.911C305.835 223.472 305.074 223.788 304.281 223.79H82.8517C82.0582 223.788 81.2979 223.472 80.7368 222.911C80.1757 222.35 79.8594 221.591 79.8571 220.798V82.7938C79.8594 82.0008 80.1757 81.2409 80.7368 80.6802C81.2979 80.1195 82.0582 79.8035 82.8517 79.8012H304.281ZM304.281 78.0664H82.8517C81.5971 78.0664 80.3939 78.5645 79.5067 79.451C78.6195 80.3376 78.1211 81.54 78.1211 82.7938V220.798C78.1211 222.051 78.6195 223.254 79.5067 224.14C80.3939 225.027 81.5971 225.525 82.8517 225.525H304.281C305.536 225.525 306.739 225.027 307.626 224.14C308.513 223.254 309.011 222.051 309.011 220.798V82.7938C309.011 81.54 308.513 80.3376 307.626 79.451C306.739 78.5645 305.536 78.0664 304.281 78.0664Z" fill="#10084D"/>
<path d="M210.57 92.4219C211.232 90.2324 211.774 88.0085 212.193 85.7603" stroke="#10084D" stroke-width="2" stroke-linecap="round" stroke-linejoin="round"/>
<path d="M202.602 109.458C204.804 106.069 206.704 102.493 208.278 98.7712" stroke="#10084D" stroke-width="2" stroke-linecap="round" stroke-linejoin="round"/>
<path d="M194.816 119.415C195.459 118.721 196.084 118.019 196.7 117.308" stroke="#10084D" stroke-width="2" stroke-linecap="round" stroke-linejoin="round"/>
<path d="M135.123 140.867C144.513 142.294 154.1 141.689 163.236 139.091C172.371 136.493 180.841 131.963 188.072 125.808" stroke="white" stroke-width="2" stroke-linecap="round" stroke-linejoin="round"/>
<path d="M125.436 139.01C126.373 139.244 127.31 139.453 128.257 139.643" stroke="#10084D" stroke-width="2" stroke-linecap="round" stroke-linejoin="round"/>
<path d="M105.211 129.694C109.704 132.834 114.585 135.379 119.733 137.267" stroke="#10084D" stroke-width="2" stroke-linecap="round" stroke-linejoin="round"/>
<path d="M86.6797 110.793C89.9238 115.553 93.7106 119.919 97.9638 123.805" stroke="#10084D" stroke-width="2" stroke-linecap="round" stroke-linejoin="round"/>
<path d="M161.77 98.7365C160.931 97.0769 160.023 95.4548 159.045 93.8704" stroke="#10084D" stroke-width="2" stroke-linecap="round" stroke-linejoin="round"/>
<path d="M169.453 127.647C169.255 122.5 168.427 117.396 166.988 112.45" stroke="#10084D" stroke-width="2" stroke-linecap="round" stroke-linejoin="round"/>
<path d="M169.106 137.431C167.881 147.536 164.552 157.272 159.332 166.012" stroke="#10084D" stroke-width="2" stroke-linecap="round" stroke-linejoin="round"/>
<path d="M130.436 192.902C140.786 187.695 149.689 180.013 156.354 170.54" stroke="#10084D" stroke-width="2" stroke-linecap="round" stroke-linejoin="round"/>
<path d="M109.057 198.991C110.376 198.844 111.661 198.662 112.997 198.436" stroke="#10084D" stroke-width="2" stroke-linecap="round" stroke-linejoin="round"/>
<path d="M87.6699 198.254C90.0251 198.664 92.3919 198.968 94.7703 199.165" stroke="#10084D" stroke-width="2" stroke-linecap="round" stroke-linejoin="round"/>
<path d="M199.746 145.203C199.746 145.203 190.736 135.315 172.621 136.182" stroke="white" stroke-width="2" stroke-linecap="round" stroke-linejoin="round"/>
<path d="M208.322 168.276L216.638 160.114" stroke="white" stroke-width="2" stroke-linecap="round" stroke-linejoin="round"/>
<path d="M202.246 162.205L210.562 154.042" stroke="white" stroke-width="2" stroke-linecap="round" stroke-linejoin="round"/>
<path d="M197.039 156.133L205.355 147.97" stroke="white" stroke-width="2" stroke-linecap="round" stroke-linejoin="round"/>
<path d="M190.051 152.663L201.014 141.899" stroke="white" stroke-width="2" stroke-linecap="round" stroke-linejoin="round"/>
<path d="M134.107 159.143C134.107 159.143 153.638 163.072 161.45 170.879C169.262 178.685 163.689 185.876 212.48 199.199C223.261 202.409 254.735 204.091 260.602 199.199" stroke="white" stroke-width="2" stroke-linecap="round" stroke-linejoin="round"/>
<path d="M257.799 185.625C257.799 185.625 243.407 190.213 241.055 199.199" stroke="#10084D" stroke-width="2" stroke-linecap="round" stroke-linejoin="round"/>
<path d="M132.424 164.199L124.994 174.348" stroke="#10084D" stroke-width="2" stroke-linecap="round" stroke-linejoin="round"/>
<path d="M138.882 128.428L132.424 137.258" stroke="#10084D" stroke-width="2" stroke-linecap="round" stroke-linejoin="round"/>
<path d="M141.485 131.897L135.027 140.728" stroke="#10084D" stroke-width="2" stroke-linecap="round" stroke-linejoin="round"/>
<path d="M144.957 135.454L141.104 140.728" stroke="#10084D" stroke-width="2" stroke-linecap="round" stroke-linejoin="round"/>
<path d="M148.43 138.698L146.312 141.595" stroke="#10084D" stroke-width="2" stroke-linecap="round" stroke-linejoin="round"/>
<path d="M134.541 169.508L128.465 177.818" stroke="#10084D" stroke-width="2" stroke-linecap="round" stroke-linejoin="round"/>
<path d="M136.615 174.348L132.805 179.553" stroke="#10084D" stroke-width="2" stroke-linecap="round" stroke-linejoin="round"/>
<path d="M138.882 178.911L137.146 181.287" stroke="#10084D" stroke-width="2" stroke-linecap="round" stroke-linejoin="round"/>
<path d="M153.638 183.248L151.902 185.624" stroke="#10084D" stroke-width="2" stroke-linecap="round" stroke-linejoin="round"/>
<path d="M157.977 186.171L157.109 187.359" stroke="#10084D" stroke-width="2" stroke-linecap="round" stroke-linejoin="round"/>
<path d="M256.932 215.984C274.19 215.984 288.18 202.003 288.18 184.757C288.18 167.511 274.19 153.531 256.932 153.531C239.674 153.531 225.684 167.511 225.684 184.757C225.684 202.003 239.674 215.984 256.932 215.984Z" stroke="#10084D" stroke-width="2" stroke-linecap="round" stroke-linejoin="round"/>
<path d="M130.287 158.348C114.662 175.696 127.683 180.9 134.627 183.502C141.571 186.105 221.427 207.79 248.336 207.79C268.682 207.79 267.692 193.417 265.991 186.399C265.745 185.355 265.172 184.416 264.356 183.719C263.54 183.022 262.522 182.602 261.451 182.522C218.311 179.573 191.915 121.049 191.915 121.049C174.555 121.049 172.819 133.193 172.819 133.193H167.611C167.611 133.193 151.119 133.193 143.307 122.784C143.307 122.784 134.627 125.386 133.759 136.663V141C135.287 145.744 134.977 150.889 132.891 155.416L130.287 158.348Z" fill="#7040FF"/>
<path d="M172.819 133.193C172.819 133.193 174.555 121.049 191.915 121.049C191.915 121.049 218.311 179.573 261.451 182.522C262.522 182.602 263.54 183.022 264.356 183.719C265.172 184.416 265.745 185.355 265.991 186.399C267.727 193.417 268.682 207.79 248.336 207.79C221.428 207.79 141.571 186.105 134.627 183.502C127.683 180.9 114.662 175.696 130.287 158.348" stroke="#10084D" stroke-width="2" stroke-linecap="round" stroke-linejoin="round"/>
<path d="M167.612 133.192C167.612 133.192 151.12 133.192 143.308 122.783C143.308 122.783 134.628 125.386 133.76 136.662" stroke="#10084D" stroke-width="2" stroke-linecap="round" stroke-linejoin="round"/>
<path d="M210.145 167.888L218.46 159.726" stroke="#10084D" stroke-width="2" stroke-linecap="round" stroke-linejoin="round"/>
<path d="M204.068 161.817L212.384 153.655" stroke="#10084D" stroke-width="2" stroke-linecap="round" stroke-linejoin="round"/>
<path d="M198.859 155.745L207.175 147.583" stroke="#10084D" stroke-width="2" stroke-linecap="round" stroke-linejoin="round"/>
<path d="M191.873 152.275L202.836 141.511" stroke="#10084D" stroke-width="2" stroke-linecap="round" stroke-linejoin="round"/>
<path d="M140.704 128.04L134.246 136.87" stroke="#10084D" stroke-width="2" stroke-linecap="round" stroke-linejoin="round"/>
<path d="M143.308 131.51L136.85 140.34" stroke="#10084D" stroke-width="2" stroke-linecap="round" stroke-linejoin="round"/>
<path d="M146.78 135.066L142.926 140.34" stroke="#10084D" stroke-width="2" stroke-linecap="round" stroke-linejoin="round"/>
<path d="M150.251 138.31L148.133 141.207" stroke="#10084D" stroke-width="2" stroke-linecap="round" stroke-linejoin="round"/>
<path d="M228.928 201.023L165.628 176.45C164.262 174.174 163.761 173.623 162.896 172.354C156.758 163.354 144.2 162.246 134.661 158.702C117.487 162.327 120.544 181 131.929 182.365L136.027 183.731L151.511 188.281L223.919 206.484C258.985 211.035 262.628 205.119 266.271 197.383C266.271 197.383 237.494 204.206 228.928 201.023Z" fill="#FFEEC1" stroke="#10084D" stroke-width="2" stroke-linecap="round" stroke-linejoin="round"/>
<path d="M134.245 163.812L126.814 173.96" stroke="#10084D" stroke-width="2" stroke-linecap="round" stroke-linejoin="round"/>
<path d="M138.438 173.96L134.627 179.165" stroke="#10084D" stroke-width="2" stroke-linecap="round" stroke-linejoin="round"/>
<path d="M140.703 178.523L138.967 180.899" stroke="#10084D" stroke-width="2" stroke-linecap="round" stroke-linejoin="round"/>
<path d="M136.363 169.121L130.287 177.431" stroke="#10084D" stroke-width="2" stroke-linecap="round" stroke-linejoin="round"/>
<path d="M155.459 182.86L153.723 185.237" stroke="#10084D" stroke-width="2" stroke-linecap="round" stroke-linejoin="round"/>
<path d="M159.8 185.783L158.932 186.972" stroke="#10084D" stroke-width="2" stroke-linecap="round" stroke-linejoin="round"/>
<path d="M158.934 167.079L166.676 153.882L170.774 137.044C164.868 138.935 154.07 144.016 150.281 144.325C145.948 144.681 137.047 143.764 133.887 141.595C135.757 150.552 131.61 158.887 131.61 158.887C138.234 160.193 149.826 162.983 158.934 167.079Z" fill="#51A4E4" stroke="#10084D" stroke-width="2" stroke-linecap="round" stroke-linejoin="round"/>
<path d="M171.606 136.429C171.181 136.591 170.743 136.725 170.318 136.86L190.356 137.954C196.732 137.499 195.821 137.659 200.375 136.589C195.821 130.673 193.544 124.757 192.178 121.116C173.962 120.207 171.606 136.429 171.606 136.429Z" fill="#10084D" stroke="#10084D" stroke-width="2" stroke-linecap="round" stroke-linejoin="round"/>
<path d="M336.787 200.37C345.467 200.37 341.995 179.553 358.487 179.553C374.98 179.553 383.174 148.153 374.736 145.203C366.299 142.254 357.619 176.083 360.223 180.42C362.827 184.757 362.932 140.849 346.387 145.021C329.843 149.193 357.619 176.95 362.827 180.42C368.035 183.89 368.903 193.431 364.563 197.768C360.223 202.105 361.959 207.309 365.431 209.044" stroke="#7040FF" stroke-width="2" stroke-linecap="round" stroke-linejoin="round"/>
</g>
<defs>
<clipPath id="clip0_2355_14294">
<rect width="388" height="314" fill="white"/>
</clipPath>
</defs>
</svg>
