<svg width="28" height="28" viewBox="0 0 28 28" fill="none" xmlns="http://www.w3.org/2000/svg">
<path d="M4.99797 26H3.99838V19.4L9.69607 13.7C9.99595 13.4 10.0959 13 9.89599 12.6C9.69607 12.2 9.39619 12 8.99636 12H2.99878C2.39903 12 1.99919 12.4 1.99919 13V26H0.999595C0.399838 26 0 26.4 0 27C0 27.6 0.399838 28 0.999595 28H4.99797C5.59773 28 5.99757 27.6 5.99757 27C5.99757 26.4 5.59773 26 4.99797 26Z" fill="#10084D"/>
<path d="M23 18H17C15.3 18 14 16.7 14 15C14 13.3 15.3 12 17 12H19.6C19 11.5 18.4 10.8 17.9 10H17C14.2 10 12 12.2 12 15C12 17.8 14.2 20 17 20H23C24.7 20 26 21.3 26 23C26 24.7 24.7 26 23 26H9C8.4 26 8 26.4 8 27C8 27.6 8.4 28 9 28H23C25.8 28 28 25.8 28 23C28 20.2 25.8 18 23 18Z" fill="#10084D"/>
<path d="M23 0C20.2 0 18 2.2 18 5C18 8.4 21.9 11.5 22.4 11.8C22.6 11.9 22.8 12 23 12C23.2 12 23.4 11.9 23.6 11.8C24 11.5 28 8.4 28 5C28 2.2 25.8 0 23 0ZM23 7C21.9 7 21 6.1 21 5C21 3.9 21.9 3 23 3C24.1 3 25 3.9 25 5C25 6.1 24.1 7 23 7Z" fill="#10084D"/>
</svg>
