<svg width="20" height="20" viewBox="0 0 20 20" fill="none" xmlns="http://www.w3.org/2000/svg">
<path d="M0 8.25562H18.66C19.0154 8.25562 19.3562 8.3968 19.6075 8.6481C19.8588 8.89941 20 9.24025 20 9.59565V12.1685H1.34003C0.984634 12.1685 0.643791 12.0273 0.392486 11.776C0.141181 11.5247 0 11.1839 0 10.8285V8.25562Z" fill="#815DC1"/>
<path d="M11.6875 0L11.6875 18.66C11.6875 19.0154 11.5463 19.3562 11.295 19.6075C11.0437 19.8588 10.7029 20 10.3475 20L7.7746 20L7.77461 1.34003C7.77461 0.984634 7.91579 0.64379 8.16709 0.392485C8.4184 0.141181 8.75924 -1.27998e-07 9.11464 -1.12463e-07L11.6875 0Z" fill="#503885"/>
</svg>
