<svg width="50" height="44" viewBox="0 0 50 44" fill="none" xmlns="http://www.w3.org/2000/svg">
<path d="M18 5.5C18 8.53738 15.3138 11 11.9998 11C8.68616 11 6 8.53738 6 5.5C6 2.46222 8.68616 0 11.9998 0C15.3138 0 18 2.46222 18 5.5Z" fill="#10084D"/>
<path d="M20.4656 9.59774L15.0011 15.0011C14.7107 14.8288 14.376 14.7271 14.0204 14.7271H9.97917C9.62366 14.7271 9.2889 14.8288 8.99852 15.0011L3.53401 9.59774C2.72801 8.80075 1.41053 8.80075 0.604502 9.59774C-0.201501 10.3947 -0.201501 11.6975 0.604502 12.4945L7.25914 19.0747L3.97122 30.1709C3.61281 31.3806 4.5304 32.5918 5.80522 32.5918H6.59629L5.23688 41.6508C5.06971 42.7653 5.85497 43.8117 6.98167 43.9778C8.10873 44.1431 9.16697 43.3666 9.33497 42.2525L10.7847 32.5922H13.2152L14.665 42.2525C14.8322 43.367 15.8913 44.1431 17.0183 43.9778C18.1454 43.8125 18.9303 42.7653 18.7631 41.6508L17.4037 32.5918H18.1948C19.47 32.5918 20.3875 31.3806 20.0288 30.1709L16.7409 19.0747L23.3955 12.4945C24.2015 11.6975 24.2015 10.3947 23.3955 9.59774C22.5887 8.80116 21.2707 8.80157 20.4656 9.59774H20.4656Z" fill="#10084D"/>
<path d="M44 5.5C44 8.53738 41.3138 11 38.0002 11C34.6862 11 32 8.53738 32 5.5C32 2.46222 34.6862 0 38.0002 0C41.3138 0 44 2.46222 44 5.5Z" fill="#10084D"/>
<path d="M43.907 29.4955V17.8811L49.3955 12.4786C50.2015 11.6852 50.2015 10.3884 49.3955 9.59502C48.5895 8.80166 47.2721 8.80166 46.4661 9.59502L40.5304 15.4377H35.4696L29.5339 9.59502C28.728 8.80166 27.4105 8.80166 26.6045 9.59502C25.7985 10.3884 25.7985 11.6852 26.6045 12.4786L32.093 17.8811V29.4955C32.093 30.1529 32.3726 30.7482 32.8181 31.1761L31.2372 41.6615C31.07 42.7709 31.8553 43.8125 32.982 43.9779C34.109 44.1425 35.1672 43.3695 35.3352 42.2605L36.9053 31.8495H39.0959L40.666 42.2605C40.8332 43.3699 41.8922 44.1424 43.0192 43.9779C44.1463 43.8134 44.9312 42.7709 44.764 41.6615L43.1831 31.1761C43.6278 30.7478 43.907 30.1533 43.907 29.4955Z" fill="#10084D"/>
</svg>
