<svg width="16" height="16" viewBox="0 0 16 16" fill="none" xmlns="http://www.w3.org/2000/svg">
<path d="M8.0026 14.6666C11.6845 14.6666 14.6693 11.6818 14.6693 7.99992C14.6693 4.31802 11.6845 1.33325 8.0026 1.33325C4.32071 1.33325 1.33594 4.31802 1.33594 7.99992C1.33594 11.6818 4.32071 14.6666 8.0026 14.6666Z" stroke="#C4C4C4" stroke-width="2" stroke-linecap="round" stroke-linejoin="round"/>
<path d="M6.0625 6.00001C6.21924 5.55446 6.5286 5.17875 6.9358 4.93944C7.343 4.70012 7.82176 4.61264 8.28728 4.69249C8.7528 4.77234 9.17504 5.01436 9.47922 5.3757C9.78339 5.73703 9.94987 6.19436 9.94917 6.66668C9.94917 8.00001 7.94917 8.66668 7.94917 8.66668" stroke="#C4C4C4" stroke-width="2" stroke-linecap="round" stroke-linejoin="round"/>
<path d="M8 11.3333H8.00667" stroke="#C4C4C4" stroke-width="2" stroke-linecap="round" stroke-linejoin="round"/>
</svg>
