<svg width="32" height="32" viewBox="0 0 32 32" fill="none" xmlns="http://www.w3.org/2000/svg">
<g clip-path="url(#clip0_2062_10917)">
<path d="M27.265 27.2668H22.5239V19.8393C22.5239 18.0684 22.492 15.788 20.0576 15.788C17.5882 15.788 17.2101 17.7173 17.2101 19.7092V27.2662H12.469V11.9963H17.0205V14.0834H17.0818C17.5374 13.3045 18.1957 12.6638 18.9866 12.2295C19.7775 11.7951 20.6714 11.5834 21.5731 11.617C26.3787 11.617 27.265 14.7782 27.265 18.8904V27.2668ZM7.11902 9.90867C6.57476 9.90879 6.04268 9.7475 5.59008 9.4452C5.13748 9.1429 4.78468 8.71316 4.57632 8.21034C4.36795 7.70752 4.31337 7.1542 4.41948 6.62035C4.52558 6.08651 4.78761 5.59612 5.17242 5.21121C5.55724 4.82629 6.04755 4.56414 6.58135 4.45791C7.11515 4.35168 7.66846 4.40614 8.17131 4.61441C8.67416 4.82267 9.10396 5.17538 9.40635 5.62793C9.70874 6.08048 9.87014 6.61254 9.87014 7.15683C9.87014 7.88656 9.58031 8.58641 9.06439 9.10246C8.54848 9.61851 7.84872 9.90851 7.11902 9.90867V9.90867ZM9.48958 27.2662H4.74356V11.9963H9.49019L9.48958 27.2662ZM29.6264 0.00254535H2.36073C2.05401 -0.00118314 1.74956 0.0556269 1.46483 0.169723C1.18009 0.283819 0.92065 0.452961 0.701367 0.667463C0.482084 0.881964 0.307263 1.13761 0.186912 1.41977C0.0665614 1.70193 0.00304479 2.00506 0 2.3118V29.689C0.0072854 30.3082 0.260072 30.8993 0.70283 31.3323C1.14559 31.7653 1.7421 32.0048 2.36135 31.9983H29.6264C30.2472 32.0066 30.846 31.768 31.291 31.335C31.736 30.9019 31.9908 30.3099 31.9994 29.689V2.3069C31.9905 1.68639 31.7355 1.09482 31.2905 0.662333C30.8454 0.229843 30.2469 -0.00815065 29.6264 0.000703909" fill="#0A66C2"/>
</g>
<defs>
<clipPath id="clip0_2062_10917">
<rect width="32" height="32" fill="white"/>
</clipPath>
</defs>
</svg>
