<svg width="32" height="32" viewBox="0 0 32 32" fill="none" xmlns="http://www.w3.org/2000/svg">
<path d="M0 10.2V21.9375L8.38401 16.488L0 10.2Z" fill="#8E57FF"/>
<path d="M32 21.9375V10.2L23.616 16.488L32 21.9375Z" fill="#8E57FF"/>
<path d="M18.4 20.4C16.9778 21.4667 15.0222 21.4667 13.6 20.4L12.6648 19.6986C11.3217 18.6913 9.4925 18.6299 8.08486 19.5448L0.707875 24.3399C0.266371 24.6269 0 25.1177 0 25.6443C0 26.5035 0.696523 27.2 1.55573 27.2H30.4443C31.3035 27.2 32 26.5035 32 25.6443C32 25.1177 31.7336 24.6269 31.2921 24.3399L23.9151 19.5448C22.5075 18.6299 20.6783 18.6913 19.3352 19.6986L18.4 20.4Z" fill="#8E57FF"/>
<path d="M0 6.39999C0 6.9036 0.237111 7.37783 0.64 7.67999L13.6 17.4C15.0222 18.4666 16.9778 18.4666 18.4 17.4L31.36 7.67999C31.7629 7.37783 32 6.9036 32 6.39999C32 5.51634 31.2837 4.8 30.4 4.8H1.6C0.716342 4.8 0 5.51634 0 6.39999Z" fill="#8E57FF"/>
</svg>
