<svg width="38" height="45" viewBox="0 0 38 45" fill="none" xmlns="http://www.w3.org/2000/svg">
<path fill-rule="evenodd" clip-rule="evenodd" d="M37.8977 14.0137L36.9953 14.4957C33.1807 16.5345 30.7483 20.5068 30.7483 24.9106C30.7483 28.8881 32.7299 32.5279 35.9699 34.7078L36.733 35.2215L34.6083 43.7196L33.0247 42.5138C31.4395 41.3067 29.5073 40.6432 27.4707 40.6432C24.6477 40.6432 22.038 41.924 20.3058 44.0853L19.9121 44.5762H17.9856L17.5919 44.0853C15.8596 41.924 13.25 40.6432 10.4269 40.6432C8.39027 40.6432 6.45814 41.3067 4.87298 42.5138L3.28933 43.7196L1.16472 35.2215L1.92776 34.7078C5.16773 32.5278 7.14938 28.888 7.14938 24.9106C7.14938 20.5071 4.71687 16.535 0.902349 14.4957L0 14.0137L1.75495 6.99458L2.91504 7.14818C3.23002 7.18985 3.54936 7.21099 3.87184 7.21099C7.44079 7.21099 10.4588 4.60034 10.9977 1.11098L11.1693 0H26.7288L26.9004 1.11098C27.4392 4.60034 30.4572 7.21099 34.0262 7.21099C34.3486 7.21099 34.668 7.18985 34.983 7.14818L36.1431 6.99458L37.8977 14.0137Z" fill="#10084D"/>
</svg>
