<svg width="45" height="45" viewBox="0 0 45 45" fill="none" xmlns="http://www.w3.org/2000/svg">
<path d="M40.3457 44.2241C40.3457 44.6519 39.9976 45 39.5698 45H13.9664V38.0171C13.9664 36.7336 12.9224 35.6896 11.6389 35.6896H4.65601V10.8625H40.3458L40.3457 44.2241ZM31.2622 25.0549L21.952 34.3651L23.049 35.4621L32.3592 26.1519L31.2622 25.0549ZM25.8311 35.1413L26.9282 36.2383L30.8076 32.3589L29.7105 31.2619L25.8311 35.1413ZM35.9176 29.7103L26.6074 39.0205L27.7044 40.1175L37.0146 30.8073L35.9176 29.7103Z" fill="#10084D"/>
<path d="M0 7.75867H1.55161V1.55173H0V7.75867Z" fill="#10084D"/>
<path d="M41.12 9.30994H3.87848C3.45065 9.30994 3.10254 8.96183 3.10254 8.53399V0.775439C3.10254 0.347603 3.45065 -0.00050354 3.87848 -0.00050354H41.12C41.5478 -0.00050354 41.8959 0.347603 41.8959 0.775439V8.53399C41.8956 8.96183 41.5475 9.30994 41.1196 9.30994H41.12Z" fill="#10084D"/>
<path d="M43.4464 7.75867H44.998V1.55173H43.4464V7.75867Z" fill="#10084D"/>
<rect width="16.3125" height="16.6339" transform="matrix(1 0 0 -1 21.777 40.3396)" fill="#10084D"/>
</svg>
