<svg width="18" height="23" viewBox="0 0 18 23" fill="none" xmlns="http://www.w3.org/2000/svg">
<path d="M11.25 0H2.25C1.65316 0 1.08107 0.242365 0.658982 0.673626C0.237107 1.10509 0 1.68995 0 2.3V20.7C0 21.3101 0.237096 21.8949 0.658982 22.3264C1.08107 22.7576 1.65321 23 2.25 23H15.75C16.3468 23 16.9189 22.7576 17.341 22.3264C17.7629 21.8949 18 21.31 18 20.7V6.9L11.25 0ZM13.5 18.4H4.5V16.1H13.5V18.4ZM13.5 13.8H4.5V11.5H13.5V13.8ZM10.5 7.66667V2.35367L15.6975 7.66667H10.5Z" fill="#10084D"/>
</svg>
