<svg width="35" height="23" viewBox="0 0 35 23" fill="none" xmlns="http://www.w3.org/2000/svg">
<path d="M31.0289 0H3.52849C1.60055 0 0 1.60062 0 3.52849V18.661C0 20.5889 1.60062 22.1895 3.52849 22.1895H31.0289C32.9568 22.1895 34.5574 20.5889 34.5574 18.661V3.52849C34.5574 1.56431 32.9568 0 31.0289 0ZM10.0035 4.61984C11.7131 4.61984 13.1318 6.0022 13.1318 7.74819C13.1318 9.45787 11.7494 10.8765 10.0035 10.8765C8.25746 10.8765 6.8751 9.49419 6.8751 7.74819C6.8751 6.03851 8.25746 4.61984 10.0035 4.61984ZM5.12911 16.1511C5.12911 14.005 5.92938 12.1133 7.16611 10.9494C7.93014 11.6041 8.9121 12.0408 10.0035 12.0408C11.0948 12.0408 12.077 11.6406 12.8408 10.9494C14.0775 12.1136 14.8778 14.005 14.8778 16.1511C14.8415 18.0427 5.12898 18.0427 5.12898 16.1511H5.12911ZM28.81 17.3153H19.2794C18.8065 17.3153 18.4063 16.9151 18.4063 16.4422C18.4063 15.9692 18.8065 15.5691 19.2794 15.5691H28.81C29.283 15.5691 29.6831 15.9692 29.6831 16.4422C29.6831 16.9151 29.3192 17.3153 28.81 17.3153ZM28.81 11.968H19.2794C18.8065 11.968 18.4063 11.5678 18.4063 11.0949C18.4063 10.6219 18.8065 10.2218 19.2794 10.2218H28.81C29.283 10.2218 29.6831 10.6219 29.6831 11.0949C29.6831 11.5678 29.3192 11.968 28.81 11.968ZM28.81 6.65691H19.2794C18.8065 6.65691 18.4063 6.25676 18.4063 5.78381C18.4063 5.31087 18.8065 4.91072 19.2794 4.91072H28.81C29.283 4.91072 29.6831 5.31087 29.6831 5.78381C29.6831 6.25676 29.3192 6.65691 28.81 6.65691Z" fill="#10084D"/>
</svg>
