<svg width="55" height="23" viewBox="0 0 55 23" fill="none" xmlns="http://www.w3.org/2000/svg">
<path d="M9.90252 17.3894C9.8329 16.2763 9.85379 15.2493 9.68671 14.2654C9.5962 13.734 9.24812 13.1882 8.88611 12.7789C7.1805 10.8757 5.4192 9.0229 3.68574 7.14852C3.04527 6.45909 3.01046 5.98511 3.54651 5.23104C4.54203 3.82346 5.54451 2.42306 6.55395 1.01547C7.10392 0.247045 7.5077 0.196772 8.2526 0.800022C10.6265 2.70313 12.9935 4.61343 15.3605 6.51654C16.2725 7.24906 16.6832 7.26342 17.623 6.58836C20.4495 4.54879 23.2829 2.50923 26.1093 0.476855C27.0074 -0.169485 27.3972 -0.162305 28.2535 0.519942C28.6085 0.800023 28.9566 1.08729 29.3047 1.36737C30.1262 2.02807 30.1819 2.39433 29.5623 3.23457C27.6757 5.76966 25.8099 8.31911 23.8885 10.8327C23.2341 11.6944 23.0392 12.5419 23.3525 13.5975C23.6727 14.6604 23.8955 15.752 24.1322 16.8364C24.2227 17.2745 24.4176 17.4181 24.8492 17.4038C25.9074 17.375 26.9656 17.3679 28.0168 17.4038C28.518 17.4181 28.8383 17.2458 29.1446 16.8508C31.4071 13.9423 33.6836 11.0481 35.9601 8.14675C36.7955 7.08388 37.06 7.01207 38.3062 7.55068C38.9536 7.83076 39.608 8.11084 40.2554 8.38374C40.9516 8.67819 41.3345 9.20962 41.4111 9.97805C41.6478 12.2402 41.9053 14.5024 42.1142 16.7646C42.1629 17.2745 42.337 17.4038 42.8034 17.3966C45.9013 17.3822 48.9993 17.3822 52.1042 17.3966C53.6706 17.4038 54.8262 18.3876 54.9794 19.8096C55.1743 21.6122 53.9699 22.9838 52.146 22.991C48.0386 23.0054 43.9242 22.9982 39.8168 22.9982C27.6061 22.9982 15.3953 22.9982 3.1845 22.9982C1.50674 22.9982 0.48337 22.3088 0.100477 20.9156C-0.317223 19.4002 0.60868 17.7844 2.1124 17.49C2.66237 17.3822 3.23323 17.3966 3.79713 17.3966C5.78121 17.3822 7.77224 17.3894 9.90252 17.3894Z" fill="#10084D"/>
</svg>
