<svg width="50" height="41" viewBox="0 0 50 41" fill="none" xmlns="http://www.w3.org/2000/svg">
<g filter="url(#filter0_d_2453_14596)">
<path d="M24.8844 3.3126C23.6259 3.32716 22.6129 4.36257 22.631 5.62425L22.5953 28.402C22.5909 31.45 27.1611 31.4535 27.1647 28.4099L27.2013 5.6288C27.2185 4.34423 26.1725 3.29379 24.8845 3.31275L24.8844 3.3126Z" fill="white"/>
</g>
<g filter="url(#filter1_d_2453_14596)">
<path d="M24.8666 0C22.5542 0 20.2451 0.896502 18.4893 2.68553L10.3559 10.7964C9.4272 11.6815 9.40559 13.156 10.3118 14.0628C11.2193 14.9738 12.697 14.9558 13.5838 14.0262L21.7269 5.90038C21.7339 5.89332 21.7414 5.88627 21.748 5.87921C23.698 3.89258 26.0215 3.88073 28.0636 5.91581L36.2102 14.0483C37.1032 14.9377 38.5478 14.9377 39.4408 14.0412C40.3302 13.1482 40.3302 11.7036 39.4337 10.8106L31.2832 2.68564C29.4941 0.900182 27.1782 0.00361241 24.8665 0.000112828L24.8666 0Z" fill="white"/>
</g>
<g filter="url(#filter2_d_2453_14596)">
<path d="M3.786 22.2011C2.53101 22.2223 1.52471 23.2546 1.54322 24.5135V32.7117C1.54322 34.2044 2.04417 35.855 3.28816 37.0288C4.5357 38.2031 6.31766 38.7481 8.34482 38.7481H41.4474C43.4781 38.7481 45.2588 38.2031 46.5028 37.0288C47.7503 35.8545 48.2512 34.2043 48.2512 32.7117V24.5126C48.2988 23.2174 47.2643 22.1445 45.9682 22.1445C44.673 22.1445 43.6376 23.217 43.6889 24.5126V32.7108C43.6889 33.2959 43.568 33.5235 43.3775 33.7061C43.1835 33.8886 42.7002 34.1779 41.4466 34.1779H8.34507C7.09403 34.1779 6.61029 33.8886 6.41624 33.7061C6.22309 33.5235 6.10579 33.2959 6.10579 32.7108L6.10535 24.5126C6.12387 23.228 5.07435 22.182 3.78626 22.201L3.786 22.2011Z" fill="white"/>
</g>
<defs>
<filter id="filter0_d_2453_14596" x="21.6277" y="3.3125" width="6.54131" height="29.313" filterUnits="userSpaceOnUse" color-interpolation-filters="sRGB">
<feFlood flood-opacity="0" result="BackgroundImageFix"/>
<feColorMatrix in="SourceAlpha" type="matrix" values="0 0 0 0 0 0 0 0 0 0 0 0 0 0 0 0 0 0 127 0" result="hardAlpha"/>
<feOffset dy="0.96754"/>
<feGaussianBlur stdDeviation="0.48377"/>
<feComposite in2="hardAlpha" operator="out"/>
<feColorMatrix type="matrix" values="0 0 0 0 0 0 0 0 0 0 0 0 0 0 0 0 0 0 0.25 0"/>
<feBlend mode="normal" in2="BackgroundImageFix" result="effect1_dropShadow_2453_14596"/>
<feBlend mode="normal" in="SourceGraphic" in2="effect1_dropShadow_2453_14596" result="shape"/>
</filter>
<filter id="filter1_d_2453_14596" x="8.678" y="0" width="32.3965" height="16.6699" filterUnits="userSpaceOnUse" color-interpolation-filters="sRGB">
<feFlood flood-opacity="0" result="BackgroundImageFix"/>
<feColorMatrix in="SourceAlpha" type="matrix" values="0 0 0 0 0 0 0 0 0 0 0 0 0 0 0 0 0 0 127 0" result="hardAlpha"/>
<feOffset dy="0.96754"/>
<feGaussianBlur stdDeviation="0.48377"/>
<feComposite in2="hardAlpha" operator="out"/>
<feColorMatrix type="matrix" values="0 0 0 0 0 0 0 0 0 0 0 0 0 0 0 0 0 0 0.25 0"/>
<feBlend mode="normal" in2="BackgroundImageFix" result="effect1_dropShadow_2453_14596"/>
<feBlend mode="normal" in="SourceGraphic" in2="effect1_dropShadow_2453_14596" result="shape"/>
</filter>
<filter id="filter2_d_2453_14596" x="0.575429" y="22.1445" width="48.6449" height="18.5386" filterUnits="userSpaceOnUse" color-interpolation-filters="sRGB">
<feFlood flood-opacity="0" result="BackgroundImageFix"/>
<feColorMatrix in="SourceAlpha" type="matrix" values="0 0 0 0 0 0 0 0 0 0 0 0 0 0 0 0 0 0 127 0" result="hardAlpha"/>
<feOffset dy="0.96754"/>
<feGaussianBlur stdDeviation="0.48377"/>
<feComposite in2="hardAlpha" operator="out"/>
<feColorMatrix type="matrix" values="0 0 0 0 0 0 0 0 0 0 0 0 0 0 0 0 0 0 0.25 0"/>
<feBlend mode="normal" in2="BackgroundImageFix" result="effect1_dropShadow_2453_14596"/>
<feBlend mode="normal" in="SourceGraphic" in2="effect1_dropShadow_2453_14596" result="shape"/>
</filter>
</defs>
</svg>
