<svg width="44" height="44" viewBox="0 0 44 44" fill="none" xmlns="http://www.w3.org/2000/svg">
<g filter="url(#filter0_d_2453_14600)">
<path d="M38.3791 0.726896H5.46867C3.00281 0.726896 1 2.7288 1 5.19355V29.8886C1 32.3534 3.00281 34.3582 5.46867 34.3582H16.1973C15.5924 35.855 14.485 38.1883 12.9615 39.7114C12.6416 40.0282 12.548 40.5044 12.7189 40.9203C12.8898 41.3336 13.2961 41.6051 13.7458 41.6051H30.1C30.5513 41.6051 30.956 41.3336 31.1269 40.9203C31.2977 40.5041 31.2041 40.0283 30.8843 39.7114C29.3604 38.1883 28.2534 35.8549 27.6485 34.3582H38.3771C40.843 34.3582 42.8458 32.3534 42.8458 29.8886L42.8461 5.19355C42.8461 2.7288 40.8433 0.726562 38.3787 0.726562L38.3791 0.726896ZM5.46867 2.94525H38.3775C39.6192 2.94525 40.6259 3.95146 40.6259 5.19264V26.2914L3.2201 26.2911V5.19398C3.2201 3.9528 4.22819 2.94525 5.46867 2.94525ZM27.7757 39.3863H16.0712C17.3378 37.5186 18.1794 35.4567 18.5795 34.3586H25.2701C25.6693 35.4555 26.5092 37.5173 27.7757 39.3863ZM38.3791 32.1393H5.46867C4.22693 32.1393 3.22027 31.1301 3.22027 29.889V28.5105H40.626V29.8876C40.6277 31.1288 39.6195 32.1393 38.3791 32.1393Z" fill="white"/>
</g>
<defs>
<filter id="filter0_d_2453_14600" x="0.0324605" y="0.726562" width="43.7812" height="42.8137" filterUnits="userSpaceOnUse" color-interpolation-filters="sRGB">
<feFlood flood-opacity="0" result="BackgroundImageFix"/>
<feColorMatrix in="SourceAlpha" type="matrix" values="0 0 0 0 0 0 0 0 0 0 0 0 0 0 0 0 0 0 127 0" result="hardAlpha"/>
<feOffset dy="0.96754"/>
<feGaussianBlur stdDeviation="0.48377"/>
<feComposite in2="hardAlpha" operator="out"/>
<feColorMatrix type="matrix" values="0 0 0 0 0 0 0 0 0 0 0 0 0 0 0 0 0 0 0.25 0"/>
<feBlend mode="normal" in2="BackgroundImageFix" result="effect1_dropShadow_2453_14600"/>
<feBlend mode="normal" in="SourceGraphic" in2="effect1_dropShadow_2453_14600" result="shape"/>
</filter>
</defs>
</svg>
